<?xml version="1.0" encoding="UTF-8"?>
<svg xmlns="http://www.w3.org/2000/svg" xmlns:xlink="http://www.w3.org/1999/xlink" width="131px" height="29px" viewBox="0 0 131 29" version="1.1">
  <title>logo_dark</title>
  <g id="Page-1" stroke="none" stroke-width="1" fill="none" fill-rule="evenodd">
    <g id="logo_dark" fill-rule="nonzero">
      <path d="M49.5281,5.73776562 C49.5281,4.62843562 49.7681,3.64176562 50.2481,2.77776562 C50.7281,1.90309562 51.3947,1.22576562 52.2481,0.74576562 C53.1121,0.25509862 54.0881,0.00976562 55.1761,0.00976562 C56.5094,0.00976562 57.6507,0.36176562 58.6001,1.06576562 C59.5494,1.76976562 60.1841,2.72976562 60.5041,3.94576562 L57.4961,3.94576562 C57.2721,3.47643562 56.9521,3.11909562 56.5361,2.87376562 C56.1307,2.62843562 55.6667,2.50576562 55.1441,2.50576562 C54.3014,2.50576562 53.6187,2.79909562 53.0961,3.38576562 C52.5734,3.97243562 52.3121,4.75643562 52.3121,5.73776562 C52.3121,6.71909562 52.5734,7.50309562 53.0961,8.08976562 C53.6187,8.67643562 54.3014,8.96976562 55.1441,8.96976562 C55.6667,8.96976562 56.1307,8.84709562 56.5361,8.60176562 C56.9521,8.35643562 57.2721,7.99909562 57.4961,7.52976562 L60.5041,7.52976562 C60.1841,8.74576562 59.5494,9.70576562 58.6001,10.4097656 C57.6507,11.1030656 56.5094,11.4497656 55.1761,11.4497656 C54.0881,11.4497656 53.1121,11.2097656 52.2481,10.7297656 C51.3947,10.2390656 50.7281,9.56176562 50.2481,8.69776562 C49.7681,7.83376562 49.5281,6.84709562 49.5281,5.73776562 Z" id="Path" fill="#131214"></path>
      <path d="M66.2436,11.4977656 C65.3689,11.4977656 64.5796,11.3110656 63.8756,10.9377656 C63.1822,10.5644656 62.6329,10.0310656 62.2276,9.33776562 C61.8329,8.64443562 61.6356,7.83376562 61.6356,6.90576562 C61.6356,5.98843562 61.8382,5.18309562 62.2436,4.48976562 C62.6489,3.78576562 63.2036,3.24709562 63.9076,2.87376562 C64.6116,2.50043562 65.4009,2.31376562 66.2756,2.31376562 C67.1502,2.31376562 67.9396,2.50043562 68.6436,2.87376562 C69.3476,3.24709562 69.9022,3.78576562 70.3076,4.48976562 C70.7129,5.18309562 70.9156,5.98843562 70.9156,6.90576562 C70.9156,7.82309562 70.7076,8.63376562 70.2916,9.33776562 C69.8862,10.0310656 69.3262,10.5644656 68.6116,10.9377656 C67.9076,11.3110656 67.1182,11.4977656 66.2436,11.4977656 Z M66.2436,9.12976562 C66.7662,9.12976562 67.2089,8.93776562 67.5716,8.55376562 C67.9449,8.16976562 68.1316,7.62043562 68.1316,6.90576562 C68.1316,6.19109562 67.9502,5.64176562 67.5876,5.25776562 C67.2356,4.87376562 66.7982,4.68176562 66.2756,4.68176562 C65.7422,4.68176562 65.2996,4.87376562 64.9476,5.25776562 C64.5956,5.63109562 64.4196,6.18043562 64.4196,6.90576562 C64.4196,7.62043562 64.5902,8.16976562 64.9316,8.55376562 C65.2836,8.93776562 65.7209,9.12976562 66.2436,9.12976562 Z" id="Shape" fill="#131214"></path>
      <path d="M83.7591,2.34576562 C84.8684,2.34576562 85.7484,2.68176562 86.3991,3.35376562 C87.0604,4.02576562 87.3911,4.95909562 87.3911,6.15376562 L87.3911,11.3697656 L84.6711,11.3697656 L84.6711,6.52176562 C84.6711,5.94576562 84.5164,5.50309562 84.2071,5.19376562 C83.9084,4.87376562 83.4924,4.71376562 82.9591,4.71376562 C82.4257,4.71376562 82.0044,4.87376562 81.6951,5.19376562 C81.3964,5.50309562 81.2471,5.94576562 81.2471,6.52176562 L81.2471,11.3697656 L78.5271,11.3697656 L78.5271,6.52176562 C78.5271,5.94576562 78.3724,5.50309562 78.0631,5.19376562 C77.7644,4.87376562 77.3484,4.71376562 76.8151,4.71376562 C76.2817,4.71376562 75.8604,4.87376562 75.5511,5.19376562 C75.2524,5.50309562 75.1031,5.94576562 75.1031,6.52176562 L75.1031,11.3697656 L72.3671,11.3697656 L72.3671,2.44176562 L75.1031,2.44176562 L75.1031,3.56176562 C75.3804,3.18843562 75.7431,2.89509562 76.1911,2.68176562 C76.6391,2.45776562 77.1457,2.34576562 77.7111,2.34576562 C78.3831,2.34576562 78.9804,2.48976562 79.5031,2.77776562 C80.0364,3.06576562 80.4524,3.47643562 80.7511,4.00976562 C81.0604,3.51909562 81.4817,3.11909562 82.0151,2.80976562 C82.5484,2.50043562 83.1297,2.34576562 83.7591,2.34576562 Z" id="Path" fill="#131214"></path>
      <path d="M92.0406,3.70576562 C92.3072,3.28976562 92.6752,2.95376562 93.1446,2.69776562 C93.6139,2.44176562 94.1632,2.31376562 94.7926,2.31376562 C95.5286,2.31376562 96.1952,2.50043562 96.7926,2.87376562 C97.3899,3.24709562 97.8592,3.78043562 98.2006,4.47376562 C98.5526,5.16709562 98.7286,5.97243562 98.7286,6.88976562 C98.7286,7.80709562 98.5526,8.61776562 98.2006,9.32176562 C97.8592,10.0150656 97.3899,10.5537656 96.7926,10.9377656 C96.1952,11.3110656 95.5286,11.4977656 94.7926,11.4977656 C94.1739,11.4977656 93.6246,11.3697656 93.1446,11.1137656 C92.6752,10.8577656 92.3072,10.5270656 92.0406,10.1217656 L92.0406,15.6257656 L89.3046,15.6257656 L89.3046,2.44176562 L92.0406,2.44176562 L92.0406,3.70576562 Z M95.9446,6.88976562 C95.9446,6.20709562 95.7526,5.67376562 95.3686,5.28976562 C94.9952,4.89509562 94.5312,4.69776562 93.9766,4.69776562 C93.4326,4.69776562 92.9686,4.89509562 92.5846,5.28976562 C92.2112,5.68443562 92.0246,6.22309562 92.0246,6.90576562 C92.0246,7.58843562 92.2112,8.12709562 92.5846,8.52176562 C92.9686,8.91643562 93.4326,9.11376562 93.9766,9.11376562 C94.5206,9.11376562 94.9846,8.91643562 95.3686,8.52176562 C95.7526,8.11643562 95.9446,7.57243562 95.9446,6.88976562 Z" id="Shape" fill="#131214"></path>
      <path d="M99.6199,6.88976562 C99.6199,5.97243562 99.7906,5.16709562 100.132,4.47376562 C100.484,3.78043562 100.959,3.24709562 101.556,2.87376562 C102.153,2.50043562 102.82,2.31376562 103.556,2.31376562 C104.185,2.31376562 104.735,2.44176562 105.204,2.69776562 C105.684,2.95376562 106.052,3.28976562 106.308,3.70576562 L106.308,2.44176562 L109.044,2.44176562 L109.044,11.3697656 L106.308,11.3697656 L106.308,10.1057656 C106.041,10.5217656 105.668,10.8577656 105.188,11.1137656 C104.719,11.3697656 104.169,11.4977656 103.54,11.4977656 C102.815,11.4977656 102.153,11.3110656 101.556,10.9377656 C100.959,10.5537656 100.484,10.0150656 100.132,9.32176562 C99.7906,8.61776562 99.6199,7.80709562 99.6199,6.88976562 Z M106.308,6.90576562 C106.308,6.22309562 106.116,5.68443562 105.732,5.28976562 C105.359,4.89509562 104.9,4.69776562 104.356,4.69776562 C103.812,4.69776562 103.348,4.89509562 102.964,5.28976562 C102.591,5.67376562 102.404,6.20709562 102.404,6.88976562 C102.404,7.57243562 102.591,8.11643562 102.964,8.52176562 C103.348,8.91643562 103.812,9.11376562 104.356,9.11376562 C104.9,9.11376562 105.359,8.91643562 105.732,8.52176562 C106.116,8.12709562 106.308,7.58843562 106.308,6.90576562 Z" id="Shape" fill="#131214"></path>
      <path d="M116.463,2.34576562 C117.509,2.34576562 118.341,2.68709562 118.959,3.36976562 C119.589,4.04176562 119.903,4.96976562 119.903,6.15376562 L119.903,11.3697656 L117.183,11.3697656 L117.183,6.52176562 C117.183,5.92443562 117.029,5.46043562 116.719,5.12976562 C116.41,4.79909562 115.994,4.63376562 115.471,4.63376562 C114.949,4.63376562 114.533,4.79909562 114.223,5.12976562 C113.914,5.46043562 113.759,5.92443562 113.759,6.52176562 L113.759,11.3697656 L111.023,11.3697656 L111.023,2.44176562 L113.759,2.44176562 L113.759,3.62576562 C114.037,3.23109562 114.41,2.92176562 114.879,2.69776562 C115.349,2.46309562 115.877,2.34576562 116.463,2.34576562 Z" id="Path" fill="#131214"></path>
      <polygon id="Path" fill="#131214" points="130.925 2.44176562 125.325 15.6097656 122.381 15.6097656 124.429 11.0657656 120.797 2.44176562 123.853 2.44176562 125.917 8.02576562 127.965 2.44176562"></polygon>
      <polygon id="Path" fill="#131214" points="50.6801 27.6297656 53.1201 27.6297656 53.1201 28.3697656 49.7701 28.3697656 49.7701 21.3997656 50.6801 21.3997656"></polygon>
      <path d="M57.2465,28.4397656 C56.5998,28.4397656 56.0098,28.2897656 55.4765,27.9897656 C54.9431,27.6830656 54.5198,27.2597656 54.2065,26.7197656 C53.8998,26.1730656 53.7465,25.5597656 53.7465,24.8797656 C53.7465,24.1997656 53.8998,23.5897656 54.2065,23.0497656 C54.5198,22.5030656 54.9431,22.0797656 55.4765,21.7797656 C56.0098,21.4730656 56.5998,21.3197656 57.2465,21.3197656 C57.8998,21.3197656 58.4931,21.4730656 59.0265,21.7797656 C59.5598,22.0797656 59.9798,22.4997656 60.2865,23.0397656 C60.5931,23.5797656 60.7465,24.1930656 60.7465,24.8797656 C60.7465,25.5664656 60.5931,26.1797656 60.2865,26.7197656 C59.9798,27.2597656 59.5598,27.6830656 59.0265,27.9897656 C58.4931,28.2897656 57.8998,28.4397656 57.2465,28.4397656 Z M57.2465,27.6497656 C57.7331,27.6497656 58.1698,27.5364656 58.5565,27.3097656 C58.9498,27.0830656 59.2565,26.7597656 59.4765,26.3397656 C59.7031,25.9197656 59.8165,25.4330656 59.8165,24.8797656 C59.8165,24.3197656 59.7031,23.8330656 59.4765,23.4197656 C59.2565,22.9997656 58.9531,22.6764656 58.5665,22.4497656 C58.1798,22.2230656 57.7398,22.1097656 57.2465,22.1097656 C56.7531,22.1097656 56.3131,22.2230656 55.9265,22.4497656 C55.5398,22.6764656 55.2331,22.9997656 55.0065,23.4197656 C54.7865,23.8330656 54.6765,24.3197656 54.6765,24.8797656 C54.6765,25.4330656 54.7865,25.9197656 55.0065,26.3397656 C55.2331,26.7597656 55.5398,27.0830656 55.9265,27.3097656 C56.3198,27.5364656 56.7598,27.6497656 57.2465,27.6497656 Z" id="Shape" fill="#131214"></path>
      <path d="M67.2278,23.4197656 C67.0345,23.0130656 66.7545,22.6997656 66.3878,22.4797656 C66.0211,22.2530656 65.5945,22.1397656 65.1078,22.1397656 C64.6211,22.1397656 64.1811,22.2530656 63.7878,22.4797656 C63.4011,22.6997656 63.0945,23.0197656 62.8678,23.4397656 C62.6478,23.8530656 62.5378,24.3330656 62.5378,24.8797656 C62.5378,25.4264656 62.6478,25.9064656 62.8678,26.3197656 C63.0945,26.7330656 63.4011,27.0530656 63.7878,27.2797656 C64.1811,27.4997656 64.6211,27.6097656 65.1078,27.6097656 C65.7878,27.6097656 66.3478,27.4064656 66.7878,26.9997656 C67.2278,26.5930656 67.4845,26.0430656 67.5578,25.3497656 L64.7778,25.3497656 L64.7778,24.6097656 L68.5278,24.6097656 L68.5278,25.3097656 C68.4745,25.8830656 68.2945,26.4097656 67.9878,26.8897656 C67.6811,27.3630656 67.2778,27.7397656 66.7778,28.0197656 C66.2778,28.2930656 65.7211,28.4297656 65.1078,28.4297656 C64.4611,28.4297656 63.8711,28.2797656 63.3378,27.9797656 C62.8045,27.6730656 62.3811,27.2497656 62.0678,26.7097656 C61.7611,26.1697656 61.6078,25.5597656 61.6078,24.8797656 C61.6078,24.1997656 61.7611,23.5897656 62.0678,23.0497656 C62.3811,22.5030656 62.8045,22.0797656 63.3378,21.7797656 C63.8711,21.4730656 64.4611,21.3197656 65.1078,21.3197656 C65.8478,21.3197656 66.5011,21.5030656 67.0678,21.8697656 C67.6411,22.2364656 68.0578,22.7530656 68.3178,23.4197656 L67.2278,23.4197656 Z" id="Path" fill="#131214"></path>
      <path d="M72.891,28.4397656 C72.2443,28.4397656 71.6543,28.2897656 71.121,27.9897656 C70.5877,27.6830656 70.1643,27.2597656 69.851,26.7197656 C69.5443,26.1730656 69.391,25.5597656 69.391,24.8797656 C69.391,24.1997656 69.5443,23.5897656 69.851,23.0497656 C70.1643,22.5030656 70.5877,22.0797656 71.121,21.7797656 C71.6543,21.4730656 72.2443,21.3197656 72.891,21.3197656 C73.5443,21.3197656 74.1377,21.4730656 74.671,21.7797656 C75.2043,22.0797656 75.6243,22.4997656 75.931,23.0397656 C76.2377,23.5797656 76.391,24.1930656 76.391,24.8797656 C76.391,25.5664656 76.2377,26.1797656 75.931,26.7197656 C75.6243,27.2597656 75.2043,27.6830656 74.671,27.9897656 C74.1377,28.2897656 73.5443,28.4397656 72.891,28.4397656 Z M72.891,27.6497656 C73.3777,27.6497656 73.8143,27.5364656 74.201,27.3097656 C74.5943,27.0830656 74.901,26.7597656 75.121,26.3397656 C75.3477,25.9197656 75.461,25.4330656 75.461,24.8797656 C75.461,24.3197656 75.3477,23.8330656 75.121,23.4197656 C74.901,22.9997656 74.5977,22.6764656 74.211,22.4497656 C73.8243,22.2230656 73.3843,22.1097656 72.891,22.1097656 C72.3977,22.1097656 71.9577,22.2230656 71.571,22.4497656 C71.1843,22.6764656 70.8777,22.9997656 70.651,23.4197656 C70.431,23.8330656 70.321,24.3197656 70.321,24.8797656 C70.321,25.4330656 70.431,25.9197656 70.651,26.3397656 C70.8777,26.7597656 71.1843,27.0830656 71.571,27.3097656 C71.9643,27.5364656 72.4043,27.6497656 72.891,27.6497656 Z" id="Shape" fill="#131214"></path>
      <g id="Group">
        <path d="M23.0525,6.67179562 C23.7579,5.96641562 24.1889,4.98670562 24.1889,3.90902562 C24.1889,1.75367562 22.4353,-4.12864187e-16 20.2799,-4.12864187e-16 C18.9181,-4.12864187e-16 17.7131,0.69559162 17.0175,1.76347562 C16.8412,1.95941562 1.28342,21.1224656 1.13646,21.3379656 C0.431071,22.0531656 0,23.0230656 0,24.1007656 C0,26.2561656 1.75367,28.0097656 3.90903,28.0097656 C5.27082,28.0097656 6.47586,27.3141656 7.17145,26.2463656 C7.35759,26.0601656 22.9055,6.89713562 23.0525,6.67179562 Z" id="Path" fill="#131214"></path>
        <path d="M32.0461,15.7733656 C32.7515,15.0679656 33.1924,14.0882656 33.1924,13.0105656 C33.1924,10.8552656 31.4387,9.10156562 29.2834,9.10156562 C27.9216,9.10156562 26.7165,9.80695562 26.021,10.8650656 C25.8348,11.0511656 17.6641,21.1225656 17.5171,21.3380656 C16.8117,22.0434656 16.3708,23.0231656 16.3708,24.1008656 C16.3708,26.2562656 18.1245,28.0098656 20.2799,28.0098656 C21.6417,28.0098656 22.8467,27.3044656 23.5423,26.2464656 C23.7382,26.0602656 31.8992,15.9888656 32.0461,15.7733656 Z" id="Path" fill="#131214"></path>
        <path d="M40.5696,3.91879562 C40.5696,6.07414562 38.816,7.82781562 36.6606,7.82781562 C34.5053,7.82781562 32.7516,6.07414562 32.7516,3.91879562 C32.7516,1.76343562 34.5053,0.00976562 36.6606,0.00976562 C38.816,0.00976562 40.5696,1.76343562 40.5696,3.91879562 Z" id="Path" fill="#C82D35"></path>
        <path d="M7.80826,3.91879562 C7.80826,6.07414562 6.05458,7.82781562 3.89923,7.82781562 C1.74388,7.82781562 0,6.07414562 0,3.91879562 C0,1.76343562 1.75367,0.00976562 3.90903,0.00976562 C6.06438,0.00976562 7.80826,1.76343562 7.80826,3.91879562 Z" id="Path" fill="#C82D35"></path>
      </g>
    </g>
  </g>
</svg>
