<?xml version="1.0" encoding="UTF-8"?>
<svg xmlns="http://www.w3.org/2000/svg" xmlns:xlink="http://www.w3.org/1999/xlink" width="148px" height="33px" viewBox="0 0 148 33" version="1.1">
  <title>logo_light</title>
  <g id="Page-1" stroke="none" stroke-width="1" fill="none" fill-rule="evenodd">
    <g id="logo_light" fill-rule="nonzero">
      <path d="M55.7474,6.4582563 C55.7474,5.2096263 56.0176,4.0990663 56.5578,3.1265663 C57.0981,2.1420663 57.8485,1.3796863 58.809,0.8394073 C59.7815,0.2871263 60.88,0.0109863 62.1047,0.0109863 C63.6054,0.0109863 64.8901,0.4071873 65.9586,1.1995863 C67.0272,1.9919963 67.7415,3.0725463 68.1017,4.4412363 L64.716,4.4412363 C64.4639,3.9129663 64.1037,3.5107663 63.6354,3.2346263 C63.1792,2.9584863 62.6569,2.8204163 62.0686,2.8204163 C61.1202,2.8204163 60.3518,3.1505763 59.7635,3.8109163 C59.1752,4.4712563 58.881,5.3536963 58.881,6.4582563 C58.881,7.5628263 59.1752,8.4452663 59.7635,9.1056063 C60.3518,9.7659363 61.1202,10.0960863 62.0686,10.0960863 C62.6569,10.0960863 63.1792,9.9580363 63.6354,9.6818963 C64.1037,9.4057563 64.4639,9.0035563 64.716,8.4752863 L68.1017,8.4752863 C67.7415,9.8439763 67.0272,10.9244863 65.9586,11.7168863 C64.8901,12.4972863 63.6054,12.8874863 62.1047,12.8874863 C60.88,12.8874863 59.7815,12.6173863 58.809,12.0770863 C57.8485,11.5247863 57.0981,10.7624863 56.5578,9.7899563 C56.0176,8.8174563 55.7474,7.7068963 55.7474,6.4582563 Z" id="Path" fill="#FFFFFF"></path>
      <path d="M74.5619,12.9415863 C73.5774,12.9415863 72.689,12.7314863 71.8966,12.3111863 C71.1162,11.8909863 70.4979,11.2906863 70.0416,10.5102863 C69.5974,9.7299263 69.3753,8.8174563 69.3753,7.7729263 C69.3753,6.7404063 69.6034,5.8339463 70.0596,5.0535463 C70.5159,4.2611463 71.1402,3.6548363 71.9326,3.2346263 C72.725,2.8144063 73.6134,2.6043063 74.5979,2.6043063 C75.5824,2.6043063 76.4709,2.8144063 77.2633,3.2346263 C78.0557,3.6548363 78.68,4.2611463 79.1363,5.0535463 C79.5925,5.8339463 79.8206,6.7404063 79.8206,7.7729263 C79.8206,8.8054563 79.5865,9.7179163 79.1182,10.5102863 C78.662,11.2906863 78.0317,11.8909863 77.2273,12.3111863 C76.4349,12.7314863 75.5464,12.9415863 74.5619,12.9415863 Z M74.5619,10.2761863 C75.1502,10.2761863 75.6485,10.0600863 76.0567,9.6278663 C76.4769,9.1956463 76.687,8.5773363 76.687,7.7729263 C76.687,6.9685163 76.4829,6.3502063 76.0747,5.9179863 C75.6785,5.4857663 75.1862,5.2696563 74.5979,5.2696563 C73.9976,5.2696563 73.4994,5.4857663 73.1032,5.9179863 C72.707,6.3381963 72.5089,6.9565163 72.5089,7.7729263 C72.5089,8.5773363 72.701,9.1956463 73.0852,9.6278663 C73.4814,10.0600863 73.9736,10.2761863 74.5619,10.2761863 Z" id="Shape" fill="#FFFFFF"></path>
      <path d="M94.2769,2.6403263 C95.5255,2.6403263 96.516,3.0185163 97.2484,3.7748963 C97.9928,4.5312863 98.365,5.5818163 98.365,6.9264963 L98.365,12.7974863 L95.3034,12.7974863 L95.3034,7.3407063 C95.3034,6.6923763 95.1293,6.1941263 94.7811,5.8459463 C94.445,5.4857663 93.9767,5.3056763 93.3764,5.3056763 C92.7761,5.3056763 92.3019,5.4857663 91.9537,5.8459463 C91.6175,6.1941263 91.4494,6.6923763 91.4494,7.3407063 L91.4494,12.7974863 L88.3879,12.7974863 L88.3879,7.3407063 C88.3879,6.6923763 88.2138,6.1941263 87.8656,5.8459463 C87.5295,5.4857663 87.0612,5.3056763 86.4609,5.3056763 C85.8606,5.3056763 85.3864,5.4857663 85.0382,5.8459463 C84.702,6.1941263 84.5339,6.6923763 84.5339,7.3407063 L84.5339,12.7974863 L81.4544,12.7974863 L81.4544,2.7483763 L84.5339,2.7483763 L84.5339,4.0090163 C84.8461,3.5888063 85.2543,3.2586363 85.7586,3.0185163 C86.2628,2.7663863 86.8331,2.6403263 87.4694,2.6403263 C88.2258,2.6403263 88.8981,2.8024063 89.4864,3.1265663 C90.0868,3.4507363 90.555,3.9129663 90.8912,4.5132763 C91.2393,3.9609963 91.7136,3.5107663 92.3139,3.1625863 C92.9142,2.8144063 93.5685,2.6403263 94.2769,2.6403263 Z" id="Path" fill="#FFFFFF"></path>
      <path d="M103.598,4.1710963 C103.898,3.7028663 104.313,3.3246663 104.841,3.0365263 C105.369,2.7483763 105.988,2.6043063 106.696,2.6043063 C107.524,2.6043063 108.275,2.8144063 108.947,3.2346263 C109.619,3.6548363 110.148,4.2551463 110.532,5.0355363 C110.928,5.8159363 111.126,6.7223963 111.126,7.7549163 C111.126,8.7874463 110.928,9.6999063 110.532,10.4922863 C110.148,11.2726863 109.619,11.8789863 108.947,12.3111863 C108.275,12.7314863 107.524,12.9415863 106.696,12.9415863 C106,12.9415863 105.381,12.7974863 104.841,12.5092863 C104.313,12.2211863 103.898,11.8489863 103.598,11.3927863 L103.598,17.5878863 L100.519,17.5878863 L100.519,2.7483763 L103.598,2.7483763 L103.598,4.1710963 Z M107.993,7.7549163 C107.993,6.9865263 107.776,6.3862263 107.344,5.9540063 C106.924,5.5097763 106.402,5.2876663 105.777,5.2876663 C105.165,5.2876663 104.643,5.5097763 104.211,5.9540063 C103.79,6.3982263 103.58,7.0045363 103.58,7.7729263 C103.58,8.5413163 103.79,9.1476263 104.211,9.5918563 C104.643,10.0360863 105.165,10.2581863 105.777,10.2581863 C106.39,10.2581863 106.912,10.0360863 107.344,9.5918563 C107.776,9.1356163 107.993,8.5233063 107.993,7.7549163 Z" id="Shape" fill="#FFFFFF"></path>
      <path d="M112.129,7.7549163 C112.129,6.7223963 112.322,5.8159363 112.706,5.0355363 C113.102,4.2551463 113.636,3.6548363 114.309,3.2346263 C114.981,2.8144063 115.731,2.6043063 116.56,2.6043063 C117.268,2.6043063 117.886,2.7483763 118.415,3.0365263 C118.955,3.3246663 119.369,3.7028663 119.657,4.1710963 L119.657,2.7483763 L122.737,2.7483763 L122.737,12.7974863 L119.657,12.7974863 L119.657,11.3747863 C119.357,11.8429863 118.937,12.2211863 118.397,12.5092863 C117.868,12.7974863 117.25,12.9415863 116.542,12.9415863 C115.725,12.9415863 114.981,12.7314863 114.309,12.3111863 C113.636,11.8789863 113.102,11.2726863 112.706,10.4922863 C112.322,9.6999063 112.129,8.7874463 112.129,7.7549163 Z M119.657,7.7729263 C119.657,7.0045363 119.441,6.3982263 119.009,5.9540063 C118.589,5.5097763 118.072,5.2876663 117.46,5.2876663 C116.848,5.2876663 116.326,5.5097763 115.893,5.9540063 C115.473,6.3862263 115.263,6.9865263 115.263,7.7549163 C115.263,8.5233063 115.473,9.1356163 115.893,9.5918563 C116.326,10.0360863 116.848,10.2581863 117.46,10.2581863 C118.072,10.2581863 118.589,10.0360863 119.009,9.5918563 C119.441,9.1476263 119.657,8.5413163 119.657,7.7729263 Z" id="Shape" fill="#FFFFFF"></path>
      <path d="M131.088,2.6403263 C132.264,2.6403263 133.201,3.0245163 133.897,3.7929063 C134.606,4.5492963 134.96,5.5938263 134.96,6.9264963 L134.96,12.7974863 L131.898,12.7974863 L131.898,7.3407063 C131.898,6.6683663 131.724,6.1461063 131.376,5.7739163 C131.028,5.4017263 130.56,5.2156263 129.971,5.2156263 C129.383,5.2156263 128.915,5.4017263 128.567,5.7739163 C128.218,6.1461063 128.044,6.6683663 128.044,7.3407063 L128.044,12.7974863 L124.965,12.7974863 L124.965,2.7483763 L128.044,2.7483763 L128.044,4.0810563 C128.356,3.6368263 128.777,3.2886463 129.305,3.0365263 C129.833,2.7723863 130.428,2.6403263 131.088,2.6403263 Z" id="Path" fill="#FFFFFF"></path>
      <polygon id="Path" fill="#FFFFFF" points="147.365 2.7483763 141.062 17.5698863 137.748 17.5698863 140.053 12.4552863 135.965 2.7483763 139.405 2.7483763 141.728 9.0335663 144.033 2.7483763"></polygon>
      <polygon id="Path" fill="#FFFFFF" points="57.0441 31.0992863 59.7905 31.0992863 59.7905 31.9321863 56.0198 31.9321863 56.0198 24.0869863 57.0441 24.0869863"></polygon>
      <path d="M64.4351,32.0109863 C63.7072,32.0109863 63.0431,31.8421863 62.4428,31.5044863 C61.8425,31.1592863 61.366,30.6827863 61.0133,30.0749863 C60.6681,29.4596863 60.4956,28.7693863 60.4956,28.0039863 C60.4956,27.2385863 60.6681,26.5519863 61.0133,25.9441863 C61.366,25.3288863 61.8425,24.8523863 62.4428,24.5146863 C63.0431,24.1694863 63.7072,23.9968863 64.4351,23.9968863 C65.1704,23.9968863 65.8383,24.1694863 66.4386,24.5146863 C67.0389,24.8523863 67.5116,25.3250863 67.8568,25.9328863 C68.202,26.5406863 68.3746,27.2310863 68.3746,28.0039863 C68.3746,28.7768863 68.202,29.4671863 67.8568,30.0749863 C67.5116,30.6827863 67.0389,31.1592863 66.4386,31.5044863 C65.8383,31.8421863 65.1704,32.0109863 64.4351,32.0109863 Z M64.4351,31.1217863 C64.9828,31.1217863 65.4743,30.9941863 65.9096,30.7390863 C66.3523,30.4839863 66.6975,30.1199863 66.9451,29.6472863 C67.2002,29.1745863 67.3278,28.6267863 67.3278,28.0039863 C67.3278,27.3735863 67.2002,26.8258863 66.9451,26.3605863 C66.6975,25.8878863 66.356,25.5239863 65.9208,25.2687863 C65.4856,25.0136863 64.9903,24.8860863 64.4351,24.8860863 C63.8798,24.8860863 63.3845,25.0136863 62.9493,25.2687863 C62.5141,25.5239863 62.1689,25.8878863 61.9138,26.3605863 C61.6661,26.8258863 61.5423,27.3735863 61.5423,28.0039863 C61.5423,28.6267863 61.6661,29.1745863 61.9138,29.6472863 C62.1689,30.1199863 62.5141,30.4839863 62.9493,30.7390863 C63.392,30.9941863 63.8873,31.1217863 64.4351,31.1217863 Z" id="Shape" fill="#FFFFFF"></path>
      <path d="M75.6698,26.3605863 C75.4521,25.9028863 75.137,25.5501863 74.7243,25.3025863 C74.3116,25.0474863 73.8313,24.9198863 73.2835,24.9198863 C72.7358,24.9198863 72.2405,25.0474863 71.7978,25.3025863 C71.3626,25.5501863 71.0174,25.9103863 70.7623,26.3830863 C70.5146,26.8483863 70.3908,27.3886863 70.3908,28.0039863 C70.3908,28.6192863 70.5146,29.1595863 70.7623,29.6247863 C71.0174,30.0899863 71.3626,30.4501863 71.7978,30.7052863 C72.2405,30.9529863 72.7358,31.0767863 73.2835,31.0767863 C74.0489,31.0767863 74.6793,30.8478863 75.1745,30.3901863 C75.6698,29.9323863 75.9587,29.3133863 76.0412,28.5329863 L72.9121,28.5329863 L72.9121,27.7000863 L77.133,27.7000863 L77.133,28.4879863 C77.073,29.1332863 76.8704,29.7260863 76.5252,30.2663863 C76.18,30.7990863 75.726,31.2230863 75.1632,31.5382863 C74.6005,31.8458863 73.9739,31.9996863 73.2835,31.9996863 C72.5557,31.9996863 71.8916,31.8308863 71.2913,31.4931863 C70.691,31.1480863 70.2145,30.6715863 69.8618,30.0637863 C69.5166,29.4559863 69.344,28.7693863 69.344,28.0039863 C69.344,27.2385863 69.5166,26.5519863 69.8618,25.9441863 C70.2145,25.3288863 70.691,24.8523863 71.2913,24.5146863 C71.8916,24.1694863 72.5557,23.9968863 73.2835,23.9968863 C74.1165,23.9968863 74.8518,24.2032863 75.4897,24.6159863 C76.135,25.0286863 76.604,25.6102863 76.8966,26.3605863 L75.6698,26.3605863 Z" id="Path" fill="#FFFFFF"></path>
      <path d="M82.0441,32.0109863 C81.3162,32.0109863 80.6521,31.8421863 80.0518,31.5044863 C79.4515,31.1592863 78.975,30.6827863 78.6224,30.0749863 C78.2772,29.4596863 78.1046,28.7693863 78.1046,28.0039863 C78.1046,27.2385863 78.2772,26.5519863 78.6224,25.9441863 C78.975,25.3288863 79.4515,24.8523863 80.0518,24.5146863 C80.6521,24.1694863 81.3162,23.9968863 82.0441,23.9968863 C82.7795,23.9968863 83.4473,24.1694863 84.0476,24.5146863 C84.6479,24.8523863 85.1207,25.3250863 85.4658,25.9328863 C85.811,26.5406863 85.9836,27.2310863 85.9836,28.0039863 C85.9836,28.7768863 85.811,29.4671863 85.4658,30.0749863 C85.1207,30.6827863 84.6479,31.1592863 84.0476,31.5044863 C83.4473,31.8421863 82.7795,32.0109863 82.0441,32.0109863 Z M82.0441,31.1217863 C82.5919,31.1217863 83.0834,30.9941863 83.5186,30.7390863 C83.9613,30.4839863 84.3065,30.1199863 84.5541,29.6472863 C84.8092,29.1745863 84.9368,28.6267863 84.9368,28.0039863 C84.9368,27.3735863 84.8092,26.8258863 84.5541,26.3605863 C84.3065,25.8878863 83.9651,25.5239863 83.5299,25.2687863 C83.0946,25.0136863 82.5994,24.8860863 82.0441,24.8860863 C81.4888,24.8860863 80.9936,25.0136863 80.5583,25.2687863 C80.1231,25.5239863 79.7779,25.8878863 79.5228,26.3605863 C79.2752,26.8258863 79.1514,27.3735863 79.1514,28.0039863 C79.1514,28.6267863 79.2752,29.1745863 79.5228,29.6472863 C79.7779,30.1199863 80.1231,30.4839863 80.5583,30.7390863 C81.0011,30.9941863 81.4963,31.1217863 82.0441,31.1217863 Z" id="Shape" fill="#FFFFFF"></path>
      <g id="Group">
        <path d="M25.9472,7.5095863 C26.7412,6.7156263 27.2264,5.6128963 27.2264,4.3998863 C27.2264,1.9738863 25.2525,7.82360288e-16 22.8265,7.82360288e-16 C21.2937,7.82360288e-16 19.9374,0.7829373 19.1544,1.9849163 C18.9559,2.2054563 1.44458,23.7748863 1.27917,24.0174863 C0.485201,24.8224863 0,25.9141863 0,27.1271863 C0,29.5531863 1.97389,31.5269863 4.39989,31.5269863 C5.93268,31.5269863 7.28904,30.7440863 8.07198,29.5420863 C8.2815,29.3325863 25.7818,7.7632163 25.9472,7.5095863 Z" id="Path" fill="#FFFFFF"></path>
        <path d="M36.0703,17.7539863 C36.8643,16.9599863 37.3605,15.8572863 37.3605,14.6442863 C37.3605,12.2182863 35.3866,10.2443863 32.9606,10.2443863 C31.4278,10.2443863 30.0715,11.0383863 29.2885,12.2292863 C29.079,12.4387863 19.8822,23.7748863 19.7168,24.0174863 C18.9229,24.8114863 18.4266,25.9141863 18.4266,27.1271863 C18.4266,29.5531863 20.4005,31.5270863 22.8265,31.5270863 C24.3593,31.5270863 25.7157,30.7330863 26.4986,29.5421863 C26.7192,29.3325863 35.9049,17.9965863 36.0703,17.7539863 Z" id="Path" fill="#FFFFFF"></path>
        <path d="M45.664,4.4108763 C45.664,6.8368763 43.6901,8.8107663 41.2641,8.8107663 C38.8381,8.8107663 36.8643,6.8368763 36.8643,4.4108763 C36.8643,1.9848763 38.8381,0.0109863 41.2641,0.0109863 C43.6901,0.0109863 45.664,1.9848763 45.664,4.4108763 Z" id="Path" fill="#C82D35"></path>
        <path d="M8.78875,4.4108763 C8.78875,6.8368763 6.81487,8.8107663 4.38886,8.8107663 C1.96286,8.8107663 0,6.8368763 0,4.4108763 C0,1.9848763 1.97389,0.0109863 4.39989,0.0109863 C6.8259,0.0109863 8.78875,1.9848763 8.78875,4.4108763 Z" id="Path" fill="#C82D35"></path>
      </g>
    </g>
  </g>
</svg>
