<?xml version="1.0" encoding="iso-8859-1"?>
<!-- Generator: Adobe Illustrator 16.0.0, SVG Export Plug-In . SVG Version: 6.00 Build 0)  -->
<!DOCTYPE svg PUBLIC "-//W3C//DTD SVG 1.1//EN" "http://www.w3.org/Graphics/SVG/1.1/DTD/svg11.dtd">
<svg version="1.1" id="Capa_1" xmlns="http://www.w3.org/2000/svg" xmlns:xlink="http://www.w3.org/1999/xlink" x="0px" y="0px"
	 width="548.291px" height="548.291px" viewBox="0 0 548.291 548.291" style="enable-background:new 0 0 548.291 548.291;"
	 xml:space="preserve">
<g>
	<g>
		<path d="M244.396,418.242c-5.708,0-9.402,0.504-11.583,1.013v74.116c2.18,0.504,5.713,0.504,8.9,0.504
			c23.184,0.169,38.321-12.603,38.321-39.663C280.198,430.678,266.42,418.242,244.396,418.242z"/>
		<path d="M472.929,131.39c-0.031-2.514-0.829-4.997-2.556-6.96L364.656,3.677c-0.021-0.031-0.053-0.044-0.084-0.075
			c-0.63-0.704-1.354-1.284-2.132-1.796c-0.23-0.149-0.462-0.283-0.703-0.419c-0.683-0.365-1.387-0.667-2.121-0.888
			c-0.2-0.058-0.377-0.139-0.577-0.191C358.231,0.118,357.411,0,356.572,0H96.757C84.904,0,75.255,9.649,75.255,21.502V526.79
			c0,11.858,9.649,21.501,21.502,21.501h354.775c11.863,0,21.503-9.643,21.503-21.501V132.595
			C473.036,132.191,472.971,131.795,472.929,131.39z M141.277,517.037c-14.74,0-27.199-3.87-33.867-8.074l5.447-20.012
			c4.734,2.462,15.609,7.024,26.499,7.024c13.864,0,20.879-6.666,20.879-15.265c0-11.234-11.234-16.316-22.984-16.316h-10.882
			V445.26h10.354c8.955-0.174,20.357-3.501,20.357-13.159c0-6.846-5.619-11.928-16.853-11.928c-9.294,0-19.121,4.031-23.856,6.836
			l-5.438-19.298c6.843-4.389,20.522-8.604,35.274-8.604c24.385,0,37.901,12.813,37.901,28.426c0,12.109-6.838,21.591-20.883,26.493
			v0.352c13.691,2.456,24.741,12.814,24.741,27.728C187.955,502.286,170.227,517.037,141.277,517.037z M288.439,499.246
			c-11.933,9.927-30.087,14.63-52.271,14.63c-13.283,0-22.696-0.85-29.082-1.685V400.925c9.417-1.508,21.686-2.348,34.622-2.348
			c21.513,0,35.47,3.864,46.39,12.095c11.764,8.746,19.149,22.693,19.149,42.688C307.253,475.046,299.364,490.007,288.439,499.246z
			 M421.539,512.695l-1.681-43.355c-0.504-13.611-1.008-30.089-1.008-46.562h-0.503c-3.534,14.452-8.237,30.588-12.61,43.863
			l-13.785,44.206h-19.999l-12.096-43.858c-3.701-13.281-7.555-29.418-10.258-44.211h-0.335
			c-0.673,15.297-1.177,32.776-2.016,46.898l-2.016,43.023h-23.686l7.217-113.272h34.123l11.091,37.807
			c3.527,13.104,7.056,27.229,9.586,40.511h0.498c3.197-13.108,7.062-28.069,10.757-40.668l12.104-37.649h33.445l6.22,113.272
			h-25.05V512.695z M96.757,365.081V21.502H345.82v110.011c0,5.935,4.81,10.751,10.752,10.751h94.961l0.011,222.816H96.757z"/>
	</g>
	<g>
		<path d="M389.443,236.092c-17.586,3.128-31.464,21.25-49.912,9.006c7.611-12.29,14.132-22.809,22.258-35.914
			c-6.646,0-8.86-0.462-10.803,0.076c-42.247,11.711-43.559,11.507-63.869-25.958c-5.858-10.812-11.764-14.261-22.297-6.606
			c-3.63,2.637-7.866,4.441-11.817,6.617c25.248-27.333,25.93-30.436,10.119-63.048c-4.158-8.58-9.097-17.04-15.1-24.394
			c-8.231-10.084-17.819-19.061-30.405-32.263c-3.908,21.291-4.386,37.467-10.019,51.588c-9.108,22.812-21.04,44.594-33.216,65.994
			c-1.94,3.406-11.392,2.543-17.373,3.656c-0.38-5.59-2.189-11.569-0.785-16.669c1.596-5.759,6.236-10.633,9.278-16.043
			c15.084-26.848,21.922-55.439,18.003-86.274c-1.683-13.229-8.775-19.302-22.122-16.023c-14.756,3.617-29.415,7.648-44.05,11.735
			c-9.215,2.569-9.709,7.149-6.468,16.41c5.483,15.68,10.337,32.328,11.059,48.757c1.304,30.221-1.276,31.688-31.591,34.68
			c0,10.478-1.021,21.284,0.494,31.712c0.619,4.218,6.375,10.32,10.509,10.968c31.58,4.99,54.919,22.788,74.492,46.408
			c8.683,10.47,15.937,22.123,25.588,35.688c1.084-6.064,2.632-9.376,2.031-12.237c-3.113-14.761-5.436-29.903-10.632-43.947
			c-5.059-13.681-2.754-21.39,11.367-25.723c9.638-2.96,18.972-6.945,28.436-10.47c-6.257,3.682-13.394,6.422-18.587,11.259
			c-8.993,8.38-6.36,20.045,4.79,24.302c4.138,1.58,8.688,2.071,13.052,3.05c-1.013,1.349-2.005,2.698-3.016,4.047
			c8.122,7.171,16.25,14.321,24.35,21.507c14.465,12.829,17.845-12.1,29.557-8.656c-3.769,6.564-8.535,12.761-11.091,19.761
			c-3.597,9.855-5.187,20.449-19.987,16.607c-22.297-5.78-30.571-14.2-29.777-29.68c0.365-7.247-0.984-14.578-1.554-21.867
			c-4.914,8.562-4.79,16.589-6.856,24c-4.375,15.675,1.097,24.449,14.988,32.943c25.927,15.852,50.204,34.394,75.223,51.738
			c5.166,3.568,10.595,6.791,15.896,10.178c1.402-1.065,2.805-2.147,4.21-3.223c-2.188-5.695-5.589-11.25-6.251-17.124
			c-0.771-6.761,0.426-13.901,1.906-20.625c0.272-1.249,7.685-2.898,8.724-1.69c4.461,5.123,8.021,11.114,11.312,17.124
			c0.815,1.496-0.618,4.22-0.781,5.098c-4.935-2.568-9.733-5.056-18.047-9.381c10.121,23.149,16.977,24.635,28.51,9.773
			c4.062-5.233,6.041-12.021,9.416-17.842c5.544-9.549,9.386-21.645,17.602-27.781C395.668,272.817,390.645,254.828,389.443,236.092
			z M253.675,251.187l-13.625-12.729c21.876,15.703,28.236,12.729,28.236,12.729C262.399,257.552,253.675,251.187,253.675,251.187z"
			/>
	</g>
</g>
<g>
</g>
<g>
</g>
<g>
</g>
<g>
</g>
<g>
</g>
<g>
</g>
<g>
</g>
<g>
</g>
<g>
</g>
<g>
</g>
<g>
</g>
<g>
</g>
<g>
</g>
<g>
</g>
<g>
</g>
</svg>
