<?xml version="1.0" encoding="iso-8859-1"?>
<!-- Generator: Adobe Illustrator 16.0.0, SVG Export Plug-In . SVG Version: 6.00 Build 0)  -->
<!DOCTYPE svg PUBLIC "-//W3C//DTD SVG 1.1//EN" "http://www.w3.org/Graphics/SVG/1.1/DTD/svg11.dtd">
<svg version="1.1" id="Capa_1" xmlns="http://www.w3.org/2000/svg" xmlns:xlink="http://www.w3.org/1999/xlink" x="0px" y="0px"
	 width="550.801px" height="550.801px" viewBox="0 0 550.801 550.801" style="enable-background:new 0 0 550.801 550.801;"
	 xml:space="preserve">
<g>
	<g>
		<path d="M273.823,406.023c-6.755,0-11.135,0.596-13.716,1.197v87.682c2.586,0.59,6.761,0.59,10.537,0.59
			c27.438,0.201,45.341-14.907,45.341-46.923C316.174,420.741,299.874,406.023,273.823,406.023z"/>
		<path d="M475.095,131.992c-0.032-2.526-0.833-5.021-2.568-6.993L366.324,3.694c-0.021-0.034-0.053-0.045-0.084-0.076
			c-0.633-0.707-1.36-1.29-2.141-1.804c-0.232-0.15-0.465-0.285-0.707-0.422c-0.686-0.366-1.393-0.67-2.131-0.892
			c-0.2-0.058-0.379-0.14-0.58-0.192C359.87,0.119,359.047,0,358.203,0H97.2C85.292,0,75.6,9.693,75.6,21.601v507.6
			c0,11.913,9.692,21.601,21.6,21.601H453.6c11.918,0,21.601-9.688,21.601-21.601V133.202
			C475.2,132.796,475.137,132.398,475.095,131.992z M97.2,21.601h250.203v110.515c0,5.961,4.831,10.8,10.8,10.8H453.6l0.011,223.836
			H97.2V21.601z M151.696,524.17c-17.758,0-32.761-4.651-40.79-9.735l6.549-24.089c5.709,2.964,18.808,8.453,31.915,8.453
			c16.696,0,25.141-8.031,25.141-18.389c0-13.531-13.521-19.659-27.686-19.659h-13.099v-23.034h12.474
			c10.771-0.211,24.514-4.229,24.514-15.852c0-8.237-6.766-14.365-20.292-14.365c-11.198,0-23.037,4.852-28.737,8.237l-6.558-23.245
			c8.242-5.29,24.732-10.368,42.483-10.368c29.375,0,45.652,15.436,45.652,34.246c0,14.586-8.234,25.998-25.154,31.915v0.422
			c16.488,2.963,29.803,15.43,29.803,33.401C207.911,506.408,186.569,524.17,151.696,524.17z M325.92,501.863
			c-14.117,11.728-35.596,17.297-61.839,17.297c-15.707,0-26.842-0.997-34.396-1.983V385.541c11.14-1.782,25.65-2.778,40.959-2.778
			c25.449,0,41.955,4.571,54.875,14.312c13.922,10.342,22.665,26.842,22.665,50.504C348.184,473.229,338.84,490.926,325.92,501.863z
			 M400.865,519.756c-15.313,0-30.417-3.971-37.974-8.153l6.165-25.054c8.152,4.171,20.677,8.354,33.602,8.354
			c13.922,0,21.273-5.765,21.273-14.519c0-8.353-6.365-13.125-22.465-18.889c-22.265-7.758-36.787-20.082-36.787-39.567
			c0-22.865,19.09-40.362,50.704-40.362c15.108,0,26.245,3.185,34.198,6.761l-6.761,24.458c-5.368-2.59-14.913-6.37-28.034-6.37
			c-13.125,0-19.479,5.964-19.479,12.93c0,8.543,7.552,12.33,24.858,18.89c23.657,8.743,34.789,21.073,34.789,39.957
			C454.95,500.671,437.647,519.756,400.865,519.756z"/>
	</g>
	<g>
		<path d="M165.262,178.422c-0.098,0.021-0.2,0.047-0.293,0.082l0.585,0.582C165.467,178.865,165.359,178.644,165.262,178.422z"/>
		<path d="M363.177,112.451c-28.019,21.674-57.233,15.409-87.46,13.953c0,0,0.105,0.063,0.168,0.111
			c-2.937-0.172-5.869-0.253-8.796-0.111c-30.229,1.456-59.437,7.721-87.462-13.953c-14.797-11.449-34.594,1.737-32.184,20.184
			c2.057,15.768,11.491,30.576,17.824,45.787c0.021-0.005,0.042-0.011,0.061-0.021c-4.683-14.024-11.011-27.817-13.046-42.219
			c-0.926-6.576,7.641-20.814,10.837-20.514c11.351,1.092,22.966,5.767,32.787,11.831c2.447,1.508-0.334,13.711-2.705,20.284
			c-3.246,8.978-7.43,18.003-13.154,25.528c-2.618,3.446-9.579,3.581-14.724,5.089c0.074,0.232,0.155,0.459,0.237,0.686
			c0,0-0.596-0.588-0.596-0.582h0.01l-0.01-0.006c1.864,11.713,3.625,23.446,5.621,35.132c1.253,7.312,2.312,14.731,4.446,21.795
			c3.726,12.372,9.553,24.245,12.058,36.812c3.385,16.901,9.951,29.494,27.509,35.337c9.719,3.243,18.088,10.731,27.857,13.59
			c12.285,3.586,27.504,9.571,37.734,5.411c32.326-13.158,73.596-19.012,73.459-68.476c-0.021-6.863,6.328-13.547,8.743-20.648
			c2.415-7.09,4.355-14.106,5.337-21.094c2.953-8.43,8.912-30.37,10.104-37.853l-0.591,0.582c0.085-0.227,0.169-0.453,0.243-0.686
			c-5.142-1.508-12.108-1.647-14.729-5.089c-5.728-7.525-9.909-16.542-13.152-25.528c-2.373-6.573-5.152-18.776-2.705-20.284
			c9.819-6.064,21.441-10.739,32.79-11.831c3.195-0.309,11.76,13.938,10.832,20.514c-2.036,14.401-8.364,28.2-13.047,42.219
			c0.021,0.011,0.042,0.016,0.063,0.021c6.333-15.206,15.762-30.019,17.824-45.787C397.775,114.194,377.979,101.002,363.177,112.451
			z M265.043,141.885c2.634,0,5.276,0,7.915,0c0,13.318,0,26.628,0,39.938c-2.639,0-5.281,0-7.915,0
			C265.043,168.508,265.043,155.197,265.043,141.885z M235.414,232.021c-8.949,18.889-14.283,37.233-6.724,57.728
			c0.749,2.036-0.891,4.952-2.626,13.152c-25.713-34.462-4.33-61.597,4.487-90.956c-14.773-5.751-28.468-11.098-44.531-17.355
			c2.233-13.808,15.686-19.467,31.292-19.899c15.95-0.432,24.152,10.001,23.765,25.289
			C240.809,210.769,239.912,222.534,235.414,232.021z M289.527,303.07c-15.304,0-25.344,0-37.789,0
			c13.5-14.402,9.632-25.286-4.132-35.285c-3.623-2.623-7.127-9.843-5.972-13.434c1.279-3.974,7.636-7.924,12.372-8.831
			c8.039-1.537,16.788-1.975,24.774-0.443c6.724,1.292,12.788,6.033,19.147,9.252c-3.411,5.376-6.101,11.425-10.372,15.995
			C278.227,280.294,272.359,289.871,289.527,303.07z M307.22,211.637c6.919,28.838,31.614,56.518,2.711,85.569
			c-0.158-3.744-1.562-7.989-0.29-11.143c7.166-17.779,1.461-33.392-5.774-49.613c-4.377-9.806-7.225-20.964-7.741-31.662
			c-0.702-14.423,3.074-28.877,21.114-29.958c16.812-1.004,30.417,5.329,34.636,19.905
			C335.412,200.966,322.176,205.983,307.22,211.637z"/>
		<polygon points="377.842,178.504 377.842,178.498 377.831,178.504 		"/>
	</g>
</g>
<g>
</g>
<g>
</g>
<g>
</g>
<g>
</g>
<g>
</g>
<g>
</g>
<g>
</g>
<g>
</g>
<g>
</g>
<g>
</g>
<g>
</g>
<g>
</g>
<g>
</g>
<g>
</g>
<g>
</g>
</svg>
