<?xml version="1.0" encoding="iso-8859-1"?>
<!-- Generator: Adobe Illustrator 16.0.0, SVG Export Plug-In . SVG Version: 6.00 Build 0)  -->
<!DOCTYPE svg PUBLIC "-//W3C//DTD SVG 1.1//EN" "http://www.w3.org/Graphics/SVG/1.1/DTD/svg11.dtd">
<svg version="1.1" id="Capa_1" xmlns="http://www.w3.org/2000/svg" xmlns:xlink="http://www.w3.org/1999/xlink" x="0px" y="0px"
	 width="550.801px" height="550.801px" viewBox="0 0 550.801 550.801" style="enable-background:new 0 0 550.801 550.801;"
	 xml:space="preserve">
<g>
	<path d="M475.095,131.997c-0.032-2.528-0.833-5.023-2.568-6.992L366.324,3.691c-0.021-0.031-0.053-0.042-0.084-0.073
		c-0.633-0.707-1.36-1.292-2.141-1.804c-0.232-0.153-0.465-0.287-0.707-0.422c-0.686-0.366-1.393-0.67-2.131-0.892
		c-0.2-0.058-0.379-0.14-0.58-0.195C359.87,0.119,359.047,0,358.203,0H97.2C85.292,0,75.6,9.693,75.6,21.601v507.6
		c0,11.913,9.692,21.601,21.6,21.601H453.6c11.918,0,21.601-9.688,21.601-21.601V133.202
		C475.2,132.796,475.137,132.396,475.095,131.997z M156.774,518.77c-15.143,0-27.947-3.96-34.794-8.29l5.584-20.556
		c4.87,2.521,16.055,7.209,27.232,7.209c14.241,0,21.45-6.851,21.45-15.678c0-11.539-11.536-16.77-23.62-16.77h-11.169v-19.66
		h10.634c9.197-0.174,20.915-3.606,20.915-13.521c0-7.024-5.767-12.261-17.308-12.261c-9.558,0-19.657,4.15-24.521,7.029
		l-5.59-19.828c7.037-4.509,21.094-8.833,36.247-8.833c25.06,0,38.944,13.157,38.944,29.204c0,12.44-7.038,22.175-21.466,27.227
		v0.359c14.067,2.521,25.429,13.162,25.429,28.481C204.736,503.624,186.527,518.77,156.774,518.77z M328.588,511.197
		c-8.469,2.879-24.511,6.855-40.563,6.855c-22.177,0-38.232-5.59-49.398-16.411c-11.177-10.457-17.313-26.325-17.128-44.171
		c0.177-40.384,29.571-63.466,69.412-63.466c15.678,0,27.765,3.064,33.713,5.954l-5.769,21.99
		c-6.677-2.879-14.967-5.231-28.309-5.231c-22.895,0-40.202,12.983-40.202,39.309c0,25.06,15.683,39.846,38.219,39.846
		c6.317,0,11.364-0.728,13.521-1.804V468.65h-18.753v-21.463h45.257V511.197z M428.82,516.787h-83.115v-16.585l15.141-13.706
		c25.603-22.897,38.048-36.06,38.406-49.766c0-9.55-5.774-17.123-19.301-17.123c-10.088,0-18.932,5.047-25.06,9.735l-7.752-19.659
		c8.833-6.666,22.539-12.071,38.401-12.071c26.504,0,41.102,15.504,41.102,36.782c0,19.654-14.238,35.332-31.188,50.488
		l-10.821,9.012v0.354h44.181v22.539H428.82z M97.2,366.752V21.601h250.203v110.515c0,5.961,4.831,10.8,10.8,10.8H453.6
		l0.011,223.836H97.2z"/>
	<g>
		<path d="M367.838,196.37c0,0-138.301,0-176.396,0l5.896-4.19c43.772-25.284,140.668-86.065,140.668-86.065
			c4.029-2.334,5.4-7.486,3.091-11.515L332.67,73.85c-2.342-4.04-7.479-5.4-11.528-3.077l-159.384,96.86
			c-4.023,2.336-5.379,7.499-3.066,11.528l15.259,16.54l0.119,127.04c0,4.667,3.765,8.422,8.419,8.422h185.351
			c4.646,0,8.422-3.75,8.422-8.422V204.805C376.26,200.151,372.484,196.37,367.838,196.37z M306.725,202.397l-26.009,25.271h-33.692
			l25.289-25.271H306.725z M295.756,93.81l29.9-19.198l-4.361,28.16l-30.602,19.646L295.756,93.81z M242.443,126.607l30.423-18.96
			l-5.453,28.545l-30.385,18.955L242.443,126.607z M181.812,189.702l5.097-28.626l30.188-19.288l-5.11,28.577L181.812,189.702z
			 M213.326,202.397h33.692l-25.273,25.271h-33.689L213.326,202.397z M361.747,320.904h-173.33v-80.077h173.33V320.904z
			 M340.237,227.663h-34.246l25.286-25.27h33.449L340.237,227.663z"/>
	</g>
</g>
<g>
</g>
<g>
</g>
<g>
</g>
<g>
</g>
<g>
</g>
<g>
</g>
<g>
</g>
<g>
</g>
<g>
</g>
<g>
</g>
<g>
</g>
<g>
</g>
<g>
</g>
<g>
</g>
<g>
</g>
</svg>
