<?xml version="1.0" encoding="iso-8859-1"?>
<!-- Generator: Adobe Illustrator 16.0.0, SVG Export Plug-In . SVG Version: 6.00 Build 0)  -->
<!DOCTYPE svg PUBLIC "-//W3C//DTD SVG 1.1//EN" "http://www.w3.org/Graphics/SVG/1.1/DTD/svg11.dtd">
<svg version="1.1" id="Capa_1" xmlns="http://www.w3.org/2000/svg" xmlns:xlink="http://www.w3.org/1999/xlink" x="0px" y="0px"
	 width="550.801px" height="550.801px" viewBox="0 0 550.801 550.801" style="enable-background:new 0 0 550.801 550.801;"
	 xml:space="preserve">
<g>
	<g>
		<path d="M391.838,414.445c-5.675,0-9.514,0.554-11.528,1.102v36.397c2.379,0.549,5.306,0.728,9.334,0.728
			c14.808,0,23.957-7.498,23.957-20.123C413.596,421.216,405.738,414.445,391.838,414.445z"/>
		<path d="M475.095,131.997c-0.032-2.528-0.833-5.023-2.568-6.992L366.324,3.691c-0.021-0.031-0.053-0.042-0.084-0.073
			c-0.633-0.707-1.36-1.292-2.141-1.804c-0.232-0.153-0.465-0.287-0.707-0.422c-0.686-0.366-1.393-0.67-2.131-0.892
			c-0.2-0.058-0.379-0.14-0.58-0.195C359.87,0.119,359.047,0,358.203,0H97.2C85.292,0,75.6,9.693,75.6,21.601v507.6
			c0,11.913,9.692,21.601,21.6,21.601H453.6c11.918,0,21.601-9.688,21.601-21.601V133.202
			C475.2,132.796,475.137,132.396,475.095,131.997z M156.647,519.618c-15.367,0-28.355-4.023-35.298-8.416l5.669-20.846
			c4.936,2.562,16.282,7.309,27.617,7.309c14.449,0,21.761-6.945,21.761-15.904c0-11.707-11.702-17.013-23.965-17.013h-11.33V444.81
			h10.789c9.332-0.185,21.218-3.665,21.218-13.716c0-7.136-5.854-12.445-17.561-12.445c-9.695,0-19.934,4.208-24.872,7.135
			l-5.672-20.118c7.135-4.577,21.4-8.965,36.77-8.965c25.423,0,39.506,13.353,39.506,29.626c0,12.625-7.132,22.496-21.766,27.622
			v0.364c14.265,2.568,25.79,13.357,25.79,28.903C205.303,504.257,186.83,519.618,156.647,519.618z M330.939,511.94
			c-8.596,2.922-24.869,6.95-41.148,6.95c-22.501,0-38.783-5.674-50.119-16.648c-11.343-10.609-17.561-26.704-17.376-44.813
			c0.185-40.969,30.003-64.378,70.421-64.378c15.905,0,28.16,3.101,34.198,6.033l-5.854,22.307c-6.766-2.922-15.182-5.3-28.714-5.3
			c-23.224,0-40.785,13.167-40.785,39.883c0,25.418,15.91,40.415,38.77,40.415c6.407,0,11.528-0.728,13.722-1.829v-25.787H285.04
			v-21.764h45.905v64.932H330.939z M429.88,461.089c-9.513,8.965-23.604,12.988-40.057,12.988c-3.66,0-6.95-0.185-9.519-0.554
			v44.081h-27.617V395.973c8.596-1.467,20.672-2.563,37.684-2.563c17.191,0,29.447,3.291,37.685,9.877
			c7.857,6.218,13.162,16.459,13.162,28.535C441.213,443.897,437.194,454.139,429.88,461.089z M97.2,366.752V21.601h250.203v110.515
			c0,5.961,4.831,10.8,10.8,10.8H453.6l0.011,223.836H97.2z"/>
	</g>
	<path d="M402.484,303.529c-3.771,2.035-7.029,2.183-10.215,0.475c-20.139-10.785-30.807-80.558-33.206-106.537l-0.765,0.071
		c-7.051-47.98-48.269-84.853-98.202-84.853c-54.881,0-99.375,44.492-99.375,99.37c0,54.881,44.495,99.378,99.375,99.378
		c44.323,0,81.844-29.041,94.647-69.119c5.717,28.743,15.768,62.29,32.421,71.202c3.059,1.646,6.265,2.463,9.551,2.463
		c3.591,0,7.261-0.986,10.899-2.953L402.484,303.529z M198.898,234.257c-13.737-0.886-24.16-12.751-23.274-26.478
		c0.886-13.748,12.743-24.168,26.499-23.282c13.727,0.883,24.152,12.754,23.245,26.501
		C224.501,224.726,212.636,235.148,198.898,234.257z M253.13,296.193c-13.732-0.886-24.161-12.746-23.274-26.491
		c0.891-13.727,12.756-24.149,26.489-23.253c13.716,0.886,24.181,12.728,23.274,26.483
		C278.732,286.659,266.883,297.079,253.13,296.193z M246.19,212.739c0-7.444,6.038-13.508,13.495-13.508
		c7.454,0,13.51,6.064,13.51,13.508c0,7.446-6.056,13.5-13.51,13.5C252.229,226.239,246.19,220.185,246.19,212.739z
		 M260.215,177.687c-13.731-0.881-24.16-12.744-23.295-26.491c0.901-13.74,12.748-24.16,26.504-23.259
		c13.743,0.886,24.158,12.728,23.271,26.47C285.799,168.149,273.937,178.562,260.215,177.687z M313.211,241.635
		c-13.737-0.886-24.163-12.746-23.288-26.483c0.896-13.748,12.735-24.155,26.505-23.259c13.731,0.87,24.152,12.723,23.271,26.483
		C338.797,232.108,326.938,242.523,313.211,241.635z"/>
</g>
<g>
</g>
<g>
</g>
<g>
</g>
<g>
</g>
<g>
</g>
<g>
</g>
<g>
</g>
<g>
</g>
<g>
</g>
<g>
</g>
<g>
</g>
<g>
</g>
<g>
</g>
<g>
</g>
<g>
</g>
</svg>
