<?xml version="1.0" encoding="iso-8859-1"?>
<!-- Generator: Adobe Illustrator 16.0.0, SVG Export Plug-In . SVG Version: 6.00 Build 0)  -->
<!DOCTYPE svg PUBLIC "-//W3C//DTD SVG 1.1//EN" "http://www.w3.org/Graphics/SVG/1.1/DTD/svg11.dtd">
<svg version="1.1" id="Capa_1" xmlns="http://www.w3.org/2000/svg" xmlns:xlink="http://www.w3.org/1999/xlink" x="0px" y="0px"
	 width="550.801px" height="550.801px" viewBox="0 0 550.801 550.801" style="enable-background:new 0 0 550.801 550.801;"
	 xml:space="preserve">
<g>
	<g>
		<path d="M475.095,131.997c-0.032-2.526-0.833-5.021-2.568-6.992L366.324,3.694c-0.021-0.031-0.053-0.042-0.084-0.076
			c-0.633-0.707-1.36-1.29-2.141-1.804c-0.232-0.15-0.465-0.285-0.707-0.422c-0.686-0.366-1.393-0.667-2.131-0.889
			c-0.2-0.061-0.379-0.143-0.58-0.195C359.87,0.119,359.047,0,358.203,0H97.2C85.292,0,75.6,9.693,75.6,21.601v507.6
			c0,11.913,9.692,21.601,21.6,21.601H453.6c11.918,0,21.601-9.688,21.601-21.601V133.202
			C475.2,132.799,475.137,132.398,475.095,131.997z M273.721,414.313l-50.116,103.612h-30.111l50.129-97.817v-0.363h-55.74v-23.383
			h85.839V414.313z M382.398,517.926h-95.851v-14.998l58.715-84.512v-0.728h-53.23v-23.051h89.448v16.09l-57.443,83.415v0.728
			h58.361V517.926z M97.2,366.752V21.601h250.203v110.515c0,5.961,4.831,10.8,10.8,10.8H453.6l0.011,223.836H97.2z"/>
		<g>
			<rect x="157.539" y="148.841" width="157.149" height="20.812"/>
			<polygon points="393.262,196.302 393.262,169.646 314.688,169.646 314.688,196.302 341.275,196.302 341.275,203.159 
				341.275,210.962 341.275,219.839 341.275,227.67 341.275,236.749 341.275,244.566 341.275,255.124 314.688,255.124 
				314.688,280.579 157.539,280.579 157.539,301.377 314.688,301.377 314.688,281.76 393.262,281.76 393.262,255.124 
				349.354,255.124 349.354,244.566 366.693,244.566 366.693,236.749 349.354,236.749 349.354,227.67 366.693,227.67 
				366.693,219.839 349.354,219.839 349.354,210.962 366.693,210.962 366.693,203.159 349.354,203.159 349.354,196.302 			"/>
			<rect x="177.757" y="180.354" width="116.723" height="90.727"/>
		</g>
	</g>
</g>
<g>
</g>
<g>
</g>
<g>
</g>
<g>
</g>
<g>
</g>
<g>
</g>
<g>
</g>
<g>
</g>
<g>
</g>
<g>
</g>
<g>
</g>
<g>
</g>
<g>
</g>
<g>
</g>
<g>
</g>
</svg>
