<?xml version="1.0" encoding="iso-8859-1"?>
<!-- Generator: Adobe Illustrator 16.0.0, SVG Export Plug-In . SVG Version: 6.00 Build 0)  -->
<!DOCTYPE svg PUBLIC "-//W3C//DTD SVG 1.1//EN" "http://www.w3.org/Graphics/SVG/1.1/DTD/svg11.dtd">
<svg version="1.1" id="Capa_1" xmlns="http://www.w3.org/2000/svg" xmlns:xlink="http://www.w3.org/1999/xlink" x="0px" y="0px"
	 width="548.29px" height="548.291px" viewBox="0 0 548.29 548.291" style="enable-background:new 0 0 548.29 548.291;"
	 xml:space="preserve">
<g>
	<g>
		<g>
			<path d="M248.811,408.137h-0.399c-1.974,7.921-3.955,18.01-6.134,25.732l-7.917,28.299h29.489l-8.315-28.299
				C253.171,425.947,250.792,416.058,248.811,408.137z"/>
			<path d="M472.929,131.39c-0.031-2.514-0.823-5-2.55-6.96L364.655,3.677c-0.021-0.034-0.052-0.044-0.083-0.075
				c-0.631-0.704-1.355-1.287-2.132-1.796c-0.231-0.152-0.462-0.286-0.704-0.419c-0.683-0.365-1.386-0.667-2.121-0.888
				c-0.198-0.058-0.377-0.139-0.577-0.194C358.23,0.118,357.41,0,356.571,0H96.757C84.904,0,75.255,9.649,75.255,21.502V526.79
				c0,11.858,9.649,21.501,21.502,21.501h354.776c11.862,0,21.502-9.643,21.502-21.501V132.595
				C473.035,132.191,472.973,131.795,472.929,131.39z M278.504,518.973l-10.299-34.242h-38.192l-9.504,34.242h-31.263
				l40.767-133.393h39.578l41.363,133.393H278.504z M359.049,518.973h-30.288V385.581h30.288V518.973z M96.757,365.081V21.502
				H345.82v110.011c0,5.935,4.809,10.751,10.751,10.751h94.962l0.01,222.816H96.757z"/>
		</g>
		<g>
			<path d="M216.709,263.011l-11.09,39.975h-36.504l47.594-155.731h46.212l48.294,155.731h-37.893l-12.016-39.975H216.709z
				 M256.224,236.673l-9.704-33.043c-2.774-9.239-5.545-20.792-7.853-30.036h-0.462c-2.312,9.244-4.623,21.029-7.165,30.036
				l-9.242,33.043H256.224z"/>
			<path d="M365.763,158.575c0,9.706-7.392,17.562-18.945,17.562c-11.092,0-18.482-7.855-18.257-17.562
				c-0.23-10.166,7.165-17.793,18.478-17.793C358.366,140.787,365.531,148.409,365.763,158.575z M329.485,302.986V189.992h35.123
				v112.994H329.485z"/>
		</g>
	</g>
</g>
<g>
</g>
<g>
</g>
<g>
</g>
<g>
</g>
<g>
</g>
<g>
</g>
<g>
</g>
<g>
</g>
<g>
</g>
<g>
</g>
<g>
</g>
<g>
</g>
<g>
</g>
<g>
</g>
<g>
</g>
</svg>
