<?xml version="1.0" encoding="iso-8859-1"?>
<!-- Generator: Adobe Illustrator 16.0.0, SVG Export Plug-In . SVG Version: 6.00 Build 0)  -->
<!DOCTYPE svg PUBLIC "-//W3C//DTD SVG 1.1//EN" "http://www.w3.org/Graphics/SVG/1.1/DTD/svg11.dtd">
<svg version="1.1" id="Capa_1" xmlns="http://www.w3.org/2000/svg" xmlns:xlink="http://www.w3.org/1999/xlink" x="0px" y="0px"
	 width="548.291px" height="548.291px" viewBox="0 0 548.291 548.291" style="enable-background:new 0 0 548.291 548.291;"
	 xml:space="preserve">
<g>
	<g>
		<path d="M189.939,405.618h-0.425c-2.107,8.414-4.208,19.155-6.526,27.375l-8.417,30.11h31.371l-8.843-30.11
			C194.566,424.573,192.046,414.042,189.939,405.618z"/>
		<path d="M472.929,131.396c-0.031-2.514-0.829-4.997-2.556-6.96L364.656,3.677c-0.021-0.031-0.053-0.042-0.084-0.075
			c-0.63-0.704-1.354-1.284-2.132-1.796c-0.23-0.149-0.462-0.283-0.703-0.418c-0.683-0.366-1.387-0.666-2.121-0.887
			c-0.2-0.06-0.377-0.142-0.577-0.194C358.231,0.118,357.411,0,356.572,0H96.757C84.904,0,75.255,9.649,75.255,21.502V526.79
			c0,11.858,9.649,21.501,21.502,21.501h354.775c11.863,0,21.503-9.643,21.503-21.501V132.595
			C473.036,132.194,472.971,131.795,472.929,131.396z M221.52,523.524l-10.951-36.42h-40.638l-10.104,36.42h-33.264l43.374-141.907
			h42.114l44,141.907H221.52z M307.196,523.524h-32.212V381.617h32.212V523.524z M421.733,407.932h-54.537v32.431h50.956v26.101
			h-50.956v57.061h-32.21V381.612h86.747V407.932z M96.757,365.081V21.502H345.82v110.015c0,5.934,4.81,10.75,10.752,10.75h94.961
			l0.011,222.813H96.757z"/>
	</g>
	<path d="M313.343,124.808c-52.545-36.736-52.401-45.358-52.401-45.358c-10.013,1.187-11.04,8.772-11.04,8.772V261.24
		c-7.522-2.611-16.503-3.076-25.712-0.811c-20.388,5.084-33.725,21.926-29.827,37.58c2.289,14.457,23.625,24.169,44.019,19.033
		c17.921-4.434,30.417-17.973,30.499-31.82h0.06l0.457-164.312c0,0,35.758-1.908,70.793,52.985
		C340.204,173.895,340.276,145.556,313.343,124.808z"/>
</g>
<g>
</g>
<g>
</g>
<g>
</g>
<g>
</g>
<g>
</g>
<g>
</g>
<g>
</g>
<g>
</g>
<g>
</g>
<g>
</g>
<g>
</g>
<g>
</g>
<g>
</g>
<g>
</g>
<g>
</g>
</svg>
