<?xml version="1.0" encoding="iso-8859-1"?>
<!-- Generator: Adobe Illustrator 16.0.0, SVG Export Plug-In . SVG Version: 6.00 Build 0)  -->
<!DOCTYPE svg PUBLIC "-//W3C//DTD SVG 1.1//EN" "http://www.w3.org/Graphics/SVG/1.1/DTD/svg11.dtd">
<svg version="1.1" id="Capa_1" xmlns="http://www.w3.org/2000/svg" xmlns:xlink="http://www.w3.org/1999/xlink" x="0px" y="0px"
	 width="550.801px" height="550.801px" viewBox="0 0 550.801 550.801" style="enable-background:new 0 0 550.801 550.801;"
	 xml:space="preserve">
<g>
	<g>
		<g>
			<path d="M397.67,410.053c-6.164,0-10.336,0.596-12.519,1.191v39.572c2.584,0.59,5.759,0.785,10.136,0.785
				c16.104,0,26.051-8.147,26.051-21.869C421.338,417.403,412.784,410.053,397.67,410.053z"/>
			<path d="M282.161,410.053c-6.162,0-10.336,0.596-12.517,1.191v39.572c2.586,0.59,5.756,0.785,10.136,0.785
				c16.103,0,26.048-8.147,26.048-21.869C305.823,417.403,297.27,410.053,282.161,410.053z"/>
			<path d="M475.095,131.997c-0.031-2.526-0.833-5.023-2.568-6.992L366.319,3.694c-0.021-0.034-0.053-0.045-0.089-0.076
				c-0.628-0.707-1.361-1.292-2.136-1.804c-0.232-0.15-0.465-0.287-0.707-0.422c-0.686-0.366-1.393-0.67-2.136-0.892
				c-0.2-0.058-0.374-0.14-0.575-0.192C359.87,0.119,359.037,0,358.198,0H97.2c-11.907,0-21.6,9.693-21.6,21.601v507.6
				c0,11.913,9.692,21.601,21.6,21.601h356.4c11.918,0,21.6-9.688,21.6-21.601V133.207
				C475.2,132.796,475.137,132.398,475.095,131.997z M189.114,522.187l-10.336-34.394h-38.367l-9.548,34.394H99.447l40.964-134.003
				h39.759l41.555,134.003H189.114z M323.516,460.751c-10.336,9.745-25.65,14.122-43.541,14.122c-3.976,0-7.562-0.2-10.335-0.601
				v47.914h-30.03V389.966c9.342-1.587,22.462-2.779,40.954-2.779c18.688,0,32.01,3.575,40.964,10.737
				c8.543,6.75,14.307,17.887,14.307,31.008C335.845,442.062,331.462,453.194,323.516,460.751z M439.02,460.751
				c-10.336,9.745-25.65,14.122-43.543,14.122c-3.971,0-7.557-0.2-10.336-0.601v47.914h-30.027V389.966
				c9.345-1.587,22.465-2.779,40.954-2.779c18.688,0,32.01,3.575,40.964,10.737c8.543,6.75,14.312,17.887,14.312,31.008
				C451.354,442.062,446.977,453.194,439.02,460.751z M97.2,366.758V21.605h250.204v110.516c0,5.962,4.83,10.8,10.8,10.8h95.396
				l0.011,223.837H97.2z"/>
			<path d="M159.3,410.849h-0.401c-1.99,7.952-3.974,18.093-6.172,25.845l-7.953,28.435h29.624l-8.343-28.435
				C163.664,428.741,161.28,418.796,159.3,410.849z"/>
		</g>
		<g>
			<polygon points="259.665,214.703 264.492,231.114 274.364,223.468 			"/>
			<path d="M336.92,220.886l-3.617-95.521l-149.739,5.677l0.464,12.131l-56.27,12.557l42.327,189.596l104.548-23.33l2.371-0.095
				c-2.437,4.192-3.871,6.687-3.871,6.687l-2.956,4.662c-1.392,2.215-0.728,5.152,1.487,6.55l11.51,7.277
				c2.225,1.402,5.157,0.738,6.56-1.482l5.263-8.337c2.353-3.507,6.275-9.355,11.021-16.464l14.66-0.554l1.909,2.457
				c2.257,2.917,5.711,4.029,7.705,2.489l7.182-5.573l3.186-0.116l-0.101-2.278l8.522-6.613c1.993-1.539,1.771-5.157-0.485-8.068
				l-5.189-6.682l-25.998,20.161l0.522,0.664c-1.107-0.907-2.136-1.919-2.911-2.868c-0.422-0.518-0.796-1.013-1.181-1.52
				l-2.173,0.085c0.453-0.675,0.896-1.329,1.36-2.015l0.443,0.569l8.068-6.26l8.954-6.95l4.535-3.507l2.226-1.719l2.146-1.677
				c0.053-0.021,0.111-0.059,0.158-0.08l-0.717-18.981c10.769-16.118,19.438-29.109,20.387-30.617
				c2.689-4.237,4.599-15.768,4.599-15.768l-17.93-11.322C345.906,214.049,340.802,217.371,336.92,220.886z M176.31,335.528
				L137.561,161.95l46.773-10.449l6.594,173.659l38.309-1.455L176.31,335.528z M294.448,329.949
				c-0.101-0.074-0.19-0.158-0.296-0.232l-4.936-3.111l16.838-25.238l4.008,5.168L294.448,329.949z M320.288,247.164l-10.516,1.55
				l0.517,3.547l7.689-1.129c-1.276,2.186-2.595,4.482-3.955,6.821l-12.957-16.72l-1.461,1.124l-2.984,2.333l-4.535,3.51
				l-8.955,6.939l-8.07,6.263l21.159,27.281c-5.347,9.239-10.367,17.914-14.354,24.822l-83.048,3.154l-6.74-177.729l133.331-5.055
				l3.153,83.371l-4.123-28l-39.662,5.838l5.59,37.919l-13.168-7.853l-11.783,9.115l6.993,23.707l25.996-20.171l-2.731-1.635
				l-5.464-37.044l30.186-4.445l1.466,9.914l-18.204,2.679l0.527,3.549l18.193-2.679l1.435,9.77l-13.162,1.938l0.517,3.547
				l13.173-1.938l1.524,10.357l-13.168,1.938l0.527,3.549l13.162-1.938l0.158,1.021
				C324.712,239.533,322.608,243.172,320.288,247.164z M357.102,236.071l-27.785,41.612l-4.003-5.173l26.521-39.759L357.102,236.071
				z"/>
			<path d="M388.23,158.074c-2.8,10.438-21.347,15.119-21.347,15.119c-21.178,5.022-18.525,36.553-18.525,36.553l17.919,11.325
				c19.364,0.469,31.746-19.607,31.746-19.607C415.142,170.878,388.23,158.074,388.23,158.074z M371.219,217.073l-6.001-2.396
				c0,0,9.618,4.029,31.841-24.759C397.059,189.918,394.886,207.803,371.219,217.073z"/>
		</g>
	</g>
</g>
<g>
</g>
<g>
</g>
<g>
</g>
<g>
</g>
<g>
</g>
<g>
</g>
<g>
</g>
<g>
</g>
<g>
</g>
<g>
</g>
<g>
</g>
<g>
</g>
<g>
</g>
<g>
</g>
<g>
</g>
</svg>
