<?xml version="1.0" encoding="iso-8859-1"?>
<!-- Generator: Adobe Illustrator 16.0.0, SVG Export Plug-In . SVG Version: 6.00 Build 0)  -->
<!DOCTYPE svg PUBLIC "-//W3C//DTD SVG 1.1//EN" "http://www.w3.org/Graphics/SVG/1.1/DTD/svg11.dtd">
<svg version="1.1" id="Capa_1" xmlns="http://www.w3.org/2000/svg" xmlns:xlink="http://www.w3.org/1999/xlink" x="0px" y="0px"
	 width="548.29px" height="548.291px" viewBox="0 0 548.29 548.291" style="enable-background:new 0 0 548.29 548.291;"
	 xml:space="preserve">
<g>
	<g>
		<g>
			<path d="M318.23,415.912c-4.641,0-7.78,0.45-9.43,0.896v29.786c1.953,0.441,4.348,0.593,7.633,0.593
				c12.127,0,19.602-6.142,19.602-16.462C336.03,421.444,329.6,415.912,318.23,415.912z"/>
			<path d="M144.873,416.509h-0.286c-1.5,5.991-3.006,13.618-4.638,19.454l-5.995,21.393h22.297l-6.29-21.393
				C148.167,429.98,146.372,422.503,144.873,416.509z"/>
			<path d="M472.929,131.39c-0.031-2.514-0.828-5-2.556-6.96L364.65,3.677c-0.021-0.034-0.052-0.044-0.089-0.075
				c-0.625-0.704-1.355-1.287-2.127-1.796c-0.23-0.152-0.462-0.286-0.703-0.419c-0.683-0.365-1.387-0.667-2.127-0.888
				c-0.199-0.058-0.371-0.139-0.571-0.194C358.23,0.118,357.4,0,356.566,0H96.757C84.904,0,75.255,9.649,75.255,21.502V526.79
				c0,11.858,9.649,21.501,21.502,21.501h354.776c11.862,0,21.502-9.643,21.502-21.501V132.595
				C473.035,132.191,472.973,131.795,472.929,131.39z M167.319,500.323l-7.777-25.886H130.67l-7.194,25.886H99.836l30.834-100.874
				h29.919l31.273,100.874H167.319z M230.065,501.813c-11.535,0-22.908-2.999-28.586-6.142l4.638-18.846
				c6.134,3.14,15.551,6.269,25.292,6.269c10.467,0,16.013-4.326,16.013-10.909c0-6.289-4.79-9.874-16.911-14.226
				c-16.764-5.828-27.672-15.109-27.672-29.774c0-17.204,14.362-30.368,38.155-30.368c11.377,0,19.759,2.389,25.743,5.064
				l-5.103,18.422c-4.032-1.942-11.224-4.794-21.092-4.794c-9.88,0-14.67,4.493-14.67,9.733c0,6.425,5.694,9.281,18.707,14.216
				c17.808,6.581,26.184,15.862,26.184,30.083C270.764,487.455,257.743,501.813,230.065,501.813z M349.359,454.069
				c-7.78,7.339-19.308,10.63-32.778,10.63c-2.997,0-5.685-0.146-7.78-0.439v36.068h-22.604v-99.524
				c7.046-1.207,16.925-2.099,30.836-2.099c14.062,0,24.1,2.696,30.818,8.082c6.447,5.082,10.782,13.476,10.782,23.352
				C358.634,440.017,355.354,448.384,349.359,454.069z M422.115,500.323l-9.123-18.27c-3.748-7.018-6.132-12.272-8.978-18.11h-0.294
				c-2.104,5.838-4.641,11.093-7.79,18.11l-8.378,18.27h-26.042l29.192-51.035l-28.148-49.839h26.206l8.818,18.416
				c2.992,6.147,5.24,11.076,7.633,16.756h0.304c2.395-6.436,4.342-10.92,6.877-16.756l8.525-18.416h26.037l-28.43,49.234
				l29.933,51.64H422.115z M96.757,365.081V21.502H345.82v110.011c0,5.935,4.809,10.751,10.751,10.751h94.962l0.01,222.816H96.757z"
				/>
		</g>
		<g>
			<path d="M130.39,222.285l97.993-50.568v24.04l-74.111,36.058v0.452l74.111,36.053v24.042l-97.993-50.57V222.285z"/>
			<path d="M243.538,301.421l43.709-164.398h20.609l-43.688,164.398H243.538z"/>
			<path d="M417.716,242.458l-97.995,49.898v-24.042l75.749-36.053v-0.452l-75.749-36.059v-24.04l97.995,49.888V242.458z"/>
		</g>
	</g>
</g>
<g>
</g>
<g>
</g>
<g>
</g>
<g>
</g>
<g>
</g>
<g>
</g>
<g>
</g>
<g>
</g>
<g>
</g>
<g>
</g>
<g>
</g>
<g>
</g>
<g>
</g>
<g>
</g>
<g>
</g>
</svg>
