<?xml version="1.0" encoding="iso-8859-1"?>
<!-- Generator: Adobe Illustrator 16.0.0, SVG Export Plug-In . SVG Version: 6.00 Build 0)  -->
<!DOCTYPE svg PUBLIC "-//W3C//DTD SVG 1.1//EN" "http://www.w3.org/Graphics/SVG/1.1/DTD/svg11.dtd">
<svg version="1.1" id="Capa_1" xmlns="http://www.w3.org/2000/svg" xmlns:xlink="http://www.w3.org/1999/xlink" x="0px" y="0px"
	 width="550.801px" height="550.801px" viewBox="0 0 550.801 550.801" style="enable-background:new 0 0 550.801 550.801;"
	 xml:space="preserve">
<g>
	<g>
		<path d="M191.458,414.566h-0.39c-1.938,7.768-3.881,17.682-6.02,25.271l-7.771,27.791h28.959l-8.163-27.791
			C195.739,432.063,193.406,422.34,191.458,414.566z"/>
		<path d="M475.084,131.992c-0.021-2.526-0.828-5.021-2.562-6.993L366.324,3.694c-0.031-0.034-0.062-0.045-0.084-0.076
			c-0.633-0.707-1.371-1.29-2.151-1.804c-0.232-0.15-0.464-0.285-0.707-0.422c-0.675-0.366-1.392-0.67-2.13-0.892
			c-0.201-0.058-0.38-0.14-0.58-0.192C359.87,0.114,359.037,0,358.193,0H97.2C85.282,0,75.6,9.693,75.6,21.601v507.6
			c0,11.913,9.682,21.601,21.6,21.601H453.6c11.908,0,21.601-9.688,21.601-21.601V133.202
			C475.2,132.796,475.137,132.398,475.084,131.992z M220.617,523.421l-10.115-33.629H172.99l-9.326,33.629h-30.715l40.036-131.014
			h38.873l40.624,131.014H220.617z M324.042,523.421h-34.604l-41.981-131.014h32.463l15.937,55.397
			c4.472,15.552,8.554,30.518,11.665,46.844h0.585c3.302-15.746,7.383-31.292,11.855-46.253l16.717-55.982h31.482L324.042,523.421z
			 M411.908,523.421h-29.742V392.407h29.742V523.421z M97.2,366.752V21.601h250.192v110.515c0,5.961,4.842,10.8,10.801,10.8H453.6
			v223.836H97.2z"/>
		<path d="M173.319,96.24v223.446H372.6V96.24H173.319z M336.872,113.925v86.74H205.685v-86.74H336.872z M181.575,132.047h17.695
			v19.148h-17.695V132.047z M181.575,175.376h17.695v19.148h-17.695V175.376z M199.27,280.605h-17.695v-19.153h17.695V280.605z
			 M199.27,237.271h-17.695v-19.147h17.695V237.271z M205.685,303.766v-88.512h131.187v88.512H205.685z M363.546,280.605h-17.709
			v-19.153h17.709V280.605z M363.546,237.271h-17.709v-19.147h17.709V237.271z M363.546,194.524h-17.709v-19.148h17.709V194.524z
			 M363.546,151.195h-17.709v-19.148h17.709V151.195z"/>
	</g>
</g>
<g>
</g>
<g>
</g>
<g>
</g>
<g>
</g>
<g>
</g>
<g>
</g>
<g>
</g>
<g>
</g>
<g>
</g>
<g>
</g>
<g>
</g>
<g>
</g>
<g>
</g>
<g>
</g>
<g>
</g>
</svg>
