<?xml version="1.0" encoding="iso-8859-1"?>
<!-- Generator: Adobe Illustrator 16.0.0, SVG Export Plug-In . SVG Version: 6.00 Build 0)  -->
<!DOCTYPE svg PUBLIC "-//W3C//DTD SVG 1.1//EN" "http://www.w3.org/Graphics/SVG/1.1/DTD/svg11.dtd">
<svg version="1.1" id="Capa_1" xmlns="http://www.w3.org/2000/svg" xmlns:xlink="http://www.w3.org/1999/xlink" x="0px" y="0px"
	 width="550.801px" height="550.801px" viewBox="0 0 550.801 550.801" style="enable-background:new 0 0 550.801 550.801;"
	 xml:space="preserve">
<g>
	<g>
		<g>
			<path d="M147.155,462.724h-9.516v34.763c2.745,0.358,6.038,0.358,10.794,0.358c12.622,0,23.778-4.757,23.778-17.74
				C172.217,467.67,161.056,462.724,147.155,462.724z"/>
			<path d="M265.884,414.799h-0.361c-1.83,7.313-3.66,16.653-5.669,23.777l-7.317,26.162h27.25l-7.681-26.162
				C269.908,431.268,267.717,422.118,265.884,414.799z"/>
			<path d="M475.095,131.992c-0.032-2.526-0.833-5.021-2.568-6.993L366.324,3.694c-0.021-0.031-0.053-0.045-0.084-0.076
				c-0.633-0.707-1.36-1.29-2.141-1.804c-0.232-0.15-0.465-0.285-0.707-0.422c-0.686-0.366-1.393-0.67-2.131-0.892
				c-0.2-0.058-0.379-0.14-0.58-0.192C359.87,0.119,359.047,0,358.203,0H97.2C85.292,0,75.6,9.693,75.6,21.601v507.6
				c0,11.913,9.692,21.601,21.6,21.601H453.6c11.918,0,21.601-9.688,21.601-21.601V133.202
				C475.2,132.796,475.137,132.398,475.095,131.992z M188.676,507.363c-8.965,7.135-23.965,11.153-48.476,11.153
				c-13.722,0-23.965-0.918-30.18-1.825V395.598c7.317-1.461,22.136-2.562,36.034-2.562c17.009,0,27.438,1.646,36.402,6.95
				c8.596,4.572,14.818,12.988,14.818,24.147c0,10.974-6.405,21.22-20.305,26.341v0.363c14.083,3.845,24.511,14.455,24.511,30.364
				C201.485,492.36,196.359,501.146,188.676,507.363z M293.319,517.24l-9.503-31.646h-35.309l-8.78,31.646h-28.906l37.687-123.288
				h36.585l38.232,123.288H293.319z M408.217,517.24l-30.18-53.23l-10.61,12.989v40.241H339.81V393.952h27.617v54.512h0.554
				c2.742-4.757,5.664-9.144,8.411-13.537l27.986-40.975h34.203l-40.79,52.497l42.984,70.791H408.217z M97.2,366.752V21.601h250.203
				v110.515c0,5.961,4.831,10.8,10.8,10.8H453.6l0.011,223.836H97.2z"/>
			<path d="M169.291,427.613c0-9.334-7.135-14.271-19.754-14.271c-6.035,0-9.513,0.358-11.889,0.728v28.72h9.146
				C161.423,442.79,169.291,436.757,169.291,427.613z"/>
		</g>
		<path d="M317.07,155.78v-11.104h10.357c0.875,4.564,4.873,8.024,9.682,8.024c5.442,0,9.867-4.432,9.867-9.875
			c0-5.445-4.425-9.861-9.867-9.861c-4.809,0-8.807,3.457-9.682,8.013H317.07v-14.175h-9.165v14.175h-21.711
			c0-0.087,0-0.177,0.006-0.264l0.084-3.04c0.322-10.299,0.718-21.249,1.213-33.513c6.613-5.432,10.837-13.669,10.837-22.873
			c0-16.319-13.278-29.598-29.597-29.598c-16.319,0-29.603,13.278-29.603,29.598c0,9.441,4.464,17.855,11.372,23.279
			c0.49,12.105,0.881,22.926,1.191,33.106l0.087,3.046c0.221,7.728,0.448,15.712,0.367,23.479c0.179,2.16-1.646,5.83-3.262,9.07
			l-0.182,0.361c-2.054,3.942-4.39,7.907-6.399,11.248c-2.829,4.662-5.719,9.326-8.625,13.988
			c-6.41,10.325-13.041,20.988-19.019,31.907c-5.237,9.563-8.867,17.157-11.784,24.603c-1.856,4.757-3.238,9.1-4.232,13.284
			c-1.247,5.395-1.735,9.893-1.535,14.138c-0.134,1.867-0.021,3.428,0.211,5.332c0.216,1.692,0.572,3.433,1.097,5.315
			c0.988,3.406,2.381,6.676,4.129,9.734c3.161,5.559,7.522,10.657,13.345,15.614c9.131,7.626,20.255,13.601,34.997,18.801
			c0.206,0.078,0.417,0.115,0.622,0.115c0.749,0,1.447-0.459,1.722-1.202c0.356-0.928-0.098-1.978-1.025-2.362
			c-13.743-5.632-24.397-12.055-32.559-19.602c-4.962-4.656-8.74-9.55-11.24-14.518c-1.355-2.679-2.394-5.495-3.069-8.354
			c-0.345-1.561-0.562-2.963-0.675-4.318c-0.119-1.472-0.103-2.953,0.071-4.098c0.011-0.095,0.021-0.406,0.021-0.496
			c0.011-8.479,3.18-16.898,6.275-23.999c3.061-6.89,6.972-14.196,12.311-22.987c6.302-10.373,13.323-20.629,20.115-30.549
			c3.117-4.54,6.239-9.104,9.332-13.722c2.392-3.606,4.936-7.522,7.317-11.636c1.128-1.972,2.323-4.126,3.38-6.518
			c0.588-1.308,1.076-2.592,1.468-3.91c0.211-0.649,0.488-1.896,0.594-2.716l0.185-2.025c0.49-6.803,0.741-13.484,0.962-20.023
			h4.602c0.222,6.539,0.469,13.221,0.96,20.008l0.189,2.041c0.108,0.81,0.382,2.057,0.583,2.679c0.406,1.35,0.886,2.645,1.469,3.937
			c1.097,2.468,2.32,4.659,3.391,6.528c2.389,4.147,4.931,8.04,7.314,11.642c3.101,4.611,6.223,9.181,9.339,13.731
			c6.787,9.914,13.812,20.161,20.107,30.533c5.337,8.791,9.25,16.087,12.303,22.972c3.102,7.116,6.266,15.546,6.281,24.226
			c0,0.101,0.026,0.327,0.042,0.422c0.147,1.008,0.169,2.479,0.053,3.955c-0.11,1.355-0.327,2.764-0.675,4.293
			c-0.675,2.885-1.714,5.706-3.069,8.385c-2.5,4.968-6.286,9.851-11.237,14.513c-8.169,7.552-18.826,13.975-32.574,19.606
			c-0.929,0.38-1.382,1.435-1.023,2.362c0.274,0.743,0.981,1.202,1.725,1.202c0.206,0,0.411-0.037,0.622-0.115
			c14.739-5.2,25.861-11.175,35.011-18.816c5.812-4.941,10.167-10.035,13.326-15.599c1.756-3.063,3.147-6.349,4.134-9.756
			c0.522-1.866,0.881-3.606,1.097-5.305c0.228-1.904,0.343-3.46,0.206-5.321c0.206-4.245-0.279-8.743-1.534-14.148
			c-0.986-4.174-2.368-8.517-4.235-13.273c-2.91-7.446-6.539-15.034-11.78-24.603c-5.98-10.918-12.619-21.595-19.037-31.923
			c-2.89-4.662-5.79-9.315-8.606-13.972c-2.02-3.341-4.351-7.306-6.386-11.214l-0.195-0.4c-1.614-3.241-3.449-6.9-3.259-9.245
			c-0.074-6.302,0.084-12.862,0.264-19.337h21.811v11.103h9.154V155.78z M337.12,136.664c3.396,0,6.17,2.776,6.17,6.167
			c0,3.401-2.773,6.184-6.17,6.184c-2.758,0-5.067-1.838-5.854-4.332h5.854v-3.699h-5.854
			C332.053,138.483,334.362,136.664,337.12,136.664z M273.467,82.324c0.789-2.112,2.809-3.623,5.182-3.623
			c2.437,0,4.493,1.577,5.231,3.763L273.467,82.324z M242.834,81.288c0-14.283,11.62-25.901,25.897-25.901
			c14.278,0,25.896,11.618,25.896,25.901c0,6.781-2.637,12.938-6.919,17.571c0.048-1.237,0.105-2.507,0.158-3.765
			c0-0.124,0.032-0.237,0.032-0.361v-0.501c0.137-3.188,0.279-6.415,0.422-9.79c0.021-0.509-0.158-0.989-0.507-1.358
			c-0.005-0.01-0.021-0.016-0.031-0.021c-0.591-4.541-4.44-8.066-9.134-8.066c-5.1,0-9.247,4.153-9.247,9.255v10.476
			c0,1.226,0.248,2.375,0.681,3.446c0.058,3.056,0.118,6.03,0.182,8.93c-0.512,0.032-1.021,0.087-1.537,0.087
			c-0.34,0-0.681-0.045-1.015-0.055c0.068-3.148,0.129-6.387,0.198-9.725c0.261-0.849,0.443-1.74,0.443-2.684V84.251
			c0-5.102-4.147-9.255-9.25-9.255c-4.828,0-8.754,3.726-9.168,8.445c-0.179,0.3-0.298,0.635-0.282,1
			c0.066,1.582,0.129,3.114,0.2,4.648v5.637c0,0.82,0.14,1.598,0.34,2.36c0.032,0.783,0.071,1.587,0.103,2.365
			C245.684,94.77,242.834,88.354,242.834,81.288z M253.876,82.475c0.744-2.191,2.797-3.773,5.231-3.773
			c2.387,0,4.406,1.516,5.189,3.623L253.876,82.475z M268.731,110.89c0.546,0,1.079-0.055,1.614-0.087
			c0.221,9.626,0.442,18.473,0.701,26.881l0.108,3.293h-4.335l0.108-3.293c0.258-8.398,0.485-17.236,0.696-26.86
			C267.996,110.84,268.357,110.89,268.731,110.89z"/>
	</g>
</g>
<g>
</g>
<g>
</g>
<g>
</g>
<g>
</g>
<g>
</g>
<g>
</g>
<g>
</g>
<g>
</g>
<g>
</g>
<g>
</g>
<g>
</g>
<g>
</g>
<g>
</g>
<g>
</g>
<g>
</g>
</svg>
