<?xml version="1.0" encoding="iso-8859-1"?>
<!-- Generator: Adobe Illustrator 16.0.0, SVG Export Plug-In . SVG Version: 6.00 Build 0)  -->
<!DOCTYPE svg PUBLIC "-//W3C//DTD SVG 1.1//EN" "http://www.w3.org/Graphics/SVG/1.1/DTD/svg11.dtd">
<svg version="1.1" id="Capa_1" xmlns="http://www.w3.org/2000/svg" xmlns:xlink="http://www.w3.org/1999/xlink" x="0px" y="0px"
	 width="550.801px" height="550.801px" viewBox="0 0 550.801 550.801" style="enable-background:new 0 0 550.801 550.801;"
	 xml:space="preserve">
<g>
	<g>
		<g>
			<path d="M284.545,409.567h-0.401c-1.982,7.952-3.976,18.099-6.162,25.851l-7.955,28.434h29.621l-8.353-28.434
				C288.916,427.465,286.538,417.52,284.545,409.567z"/>
			<path d="M179.566,423.483c0-10.135-7.755-15.504-21.477-15.504c-6.56,0-10.336,0.396-12.922,0.786v31.219h9.949
				C171.023,439.995,179.566,433.435,179.566,423.483z"/>
			<path d="M155.509,461.658h-10.336v37.779c2.987,0.4,6.562,0.4,11.73,0.4c13.722,0,25.848-5.168,25.848-19.29
				C182.751,467.026,170.625,461.658,155.509,461.658z"/>
			<path d="M475.095,131.997c-0.031-2.526-0.833-5.021-2.568-6.992L366.319,3.694c-0.021-0.034-0.053-0.045-0.089-0.076
				c-0.628-0.707-1.361-1.29-2.136-1.804c-0.232-0.15-0.465-0.287-0.707-0.422c-0.686-0.366-1.393-0.67-2.136-0.892
				c-0.2-0.058-0.374-0.14-0.575-0.192C359.87,0.119,359.037,0,358.198,0H97.2c-11.907,0-21.6,9.693-21.6,21.601v507.6
				c0,11.913,9.692,21.601,21.6,21.601h356.4c11.918,0,21.6-9.688,21.6-21.601V133.207
				C475.2,132.796,475.137,132.398,475.095,131.997z M200.652,510.174c-9.746,7.757-26.048,12.129-52.692,12.129
				c-14.916,0-26.048-0.997-32.812-1.982V388.695c7.966-1.593,24.058-2.785,39.174-2.785c18.489,0,29.824,1.788,39.569,7.552
				c9.342,4.968,16.103,14.112,16.103,26.241c0,11.928-6.958,23.065-22.075,28.635v0.4c15.314,4.177,26.644,15.704,26.644,33.001
				C214.563,493.874,208.997,503.413,200.652,510.174z M314.366,520.91l-10.347-34.398h-38.367l-9.547,34.398h-31.406
				l40.953-134.008h39.765l41.549,134.008H314.366z M441.219,412.352h-36.588v108.564h-30.417V412.352h-35.985v-25.449h102.99
				V412.352z M97.2,366.758V21.605h250.204v110.516c0,5.962,4.83,10.8,10.8,10.8h95.396l0.011,223.837H97.2z"/>
		</g>
		<g>
			<path d="M356.168,105.171H183.88c-10.8,0-19.585,8.78-19.585,19.575v161.138c0,10.8,8.786,19.586,19.585,19.586h172.288
				c10.801,0,19.586-8.786,19.586-19.586V124.746C375.754,113.951,366.969,105.171,356.168,105.171z M362.697,285.884
				c0,3.607-2.922,6.528-6.529,6.528H183.88c-3.597,0-6.528-2.921-6.528-6.528v-127.2h185.34v127.2H362.697z"/>
			<path d="M196.528,245.505c5.189,1.14,9.734,4.385,12.517,8.894c2.755,4.525,3.575,10.078,2.215,15.206
				c-0.113,0.478,0.063,0.989,0.464,1.276l12.084,8.812c0.675,0.479,1.065,0.227,1.36,0.025c2.281-1.46,4.823-2.431,7.512-2.853
				c2.566-0.4,5.126-0.306,7.636,0.321c5.157,1.24,9.65,4.578,12.329,9.16c0.232,0.412,0.738,0.654,1.224,0.57l14.766-2.32
				c0.496-0.085,0.886-0.454,0.994-0.929c1.149-5.188,4.377-9.742,8.909-12.509c4.403-2.689,9.771-3.515,14.75-2.338
				c-0.032-0.625,0.021-1.268,0.189-1.912c0.243-0.902,0.111-1.872-0.369-2.629c-0.464-0.751-1.25-1.313-2.13-1.506
				c-2.658-0.611-4.62-2.7-5.031-5.347l-1.107-6.998c-0.422-2.642,0.802-5.239,3.111-6.615c0.812-0.48,1.402-1.258,1.604-2.128
				c0.211-0.857,0.053-1.819-0.433-2.565c-1.445-2.263-1.34-5.21,0.211-7.359l4.177-5.729c1.049-1.438,2.552-2.354,4.224-2.618
				l1.165-0.185l1.403,0.309c1.107,0.29,1.972,0.113,2.7-0.341c0.78-0.477,1.35-1.268,1.529-2.138
				c0.563-2.5,2.479-4.338,4.925-4.894l-0.732-4.612c-0.09-0.485-0.465-0.886-0.939-1.004c-5.188-1.139-9.75-4.377-12.503-8.894
				c-2.769-4.529-3.586-10.069-2.236-15.2c0.122-0.464-0.058-0.989-0.453-1.273l-12.09-8.796c-0.675-0.493-1.062-0.237-1.371-0.05
				c-4.416,2.848-9.979,3.797-15.137,2.545c-5.145-1.221-9.627-4.575-12.316-9.157c-0.242-0.412-0.728-0.649-1.226-0.57
				l-14.763,2.328c-0.485,0.071-0.886,0.454-0.994,0.923c-1.139,5.184-4.379,9.753-8.899,12.506
				c-4.504,2.776-10.083,3.591-15.206,2.225c-0.319-0.069-0.783-0.195-1.276,0.464l-8.807,12.092
				c-0.285,0.398-0.295,0.954-0.031,1.371c2.855,4.461,3.797,9.975,2.555,15.143c-1.242,5.145-4.58,9.627-9.176,12.311
				c-0.422,0.248-0.654,0.728-0.577,1.237l2.333,14.774C195.674,245.015,196.041,245.397,196.528,245.505z M247.639,199.308
				c15.844-2.495,30.752,8.382,33.257,24.205c2.489,15.841-8.369,30.752-24.219,33.246c-15.831,2.489-30.741-8.364-33.23-24.197
				C220.947,216.733,231.794,201.804,247.639,199.308z"/>
			<path d="M308.401,221.39c-0.543,2.455-2.088,4.617-4.208,5.928c-2.141,1.312-4.788,1.695-7.214,1.055
				c-0.147-0.034-0.38-0.098-0.602,0.221l-4.177,5.73c-0.132,0.187-0.142,0.458-0.021,0.653c1.36,2.115,1.793,4.726,1.207,7.164
				c-0.574,2.441-2.156,4.569-4.34,5.833c-0.2,0.114-0.316,0.351-0.284,0.588l1.107,6.998c0.031,0.232,0.211,0.417,0.442,0.466
				c2.458,0.543,4.62,2.078,5.917,4.217c1.318,2.138,1.719,4.772,1.065,7.203c-0.053,0.222,0.031,0.464,0.222,0.599l5.727,4.174
				c0.332,0.234,0.512,0.111,0.644,0.013c1.086-0.688,2.278-1.152,3.564-1.35c1.202-0.189,2.426-0.137,3.607,0.146
				c2.446,0.588,4.582,2.17,5.843,4.345c0.116,0.198,0.348,0.309,0.58,0.271l6.992-1.102c0.232-0.037,0.422-0.211,0.475-0.433
				c0.538-2.455,2.078-4.611,4.219-5.928c2.142-1.318,4.778-1.689,7.204-1.06c0.158,0.045,0.38,0.092,0.611-0.211l4.155-5.74
				c0.138-0.182,0.148-0.443,0.021-0.636c-1.36-2.122-1.793-4.738-1.202-7.177c0.58-2.447,2.162-4.569,4.335-5.838
				c0.2-0.118,0.316-0.345,0.284-0.577l-1.107-7.003c-0.031-0.222-0.211-0.417-0.442-0.464c-2.458-0.546-4.609-2.085-5.928-4.224
				c-1.308-2.144-1.688-4.767-1.055-7.198c0.068-0.216-0.031-0.464-0.211-0.606l-5.727-4.166c-0.316-0.232-0.518-0.11-0.654-0.023
				c-2.088,1.35-4.735,1.809-7.172,1.215c-2.447-0.583-4.566-2.17-5.843-4.345c-0.105-0.2-0.343-0.309-0.564-0.277l-7.009,1.103
				C308.634,220.989,308.443,221.168,308.401,221.39z M330.275,245.608c1.182,7.506-3.955,14.565-11.464,15.746
				c-7.499,1.187-14.565-3.958-15.747-11.47c-1.17-7.496,3.945-14.565,11.465-15.752
				C322.022,232.957,329.095,238.096,330.275,245.608z"/>
		</g>
	</g>
</g>
<g>
</g>
<g>
</g>
<g>
</g>
<g>
</g>
<g>
</g>
<g>
</g>
<g>
</g>
<g>
</g>
<g>
</g>
<g>
</g>
<g>
</g>
<g>
</g>
<g>
</g>
<g>
</g>
<g>
</g>
</svg>
