<?xml version="1.0" encoding="iso-8859-1"?>
<!-- Generator: Adobe Illustrator 16.0.0, SVG Export Plug-In . SVG Version: 6.00 Build 0)  -->
<!DOCTYPE svg PUBLIC "-//W3C//DTD SVG 1.1//EN" "http://www.w3.org/Graphics/SVG/1.1/DTD/svg11.dtd">
<svg version="1.1" id="Capa_1" xmlns="http://www.w3.org/2000/svg" xmlns:xlink="http://www.w3.org/1999/xlink" x="0px" y="0px"
	 width="550.801px" height="550.801px" viewBox="0 0 550.801 550.801" style="enable-background:new 0 0 550.801 550.801;"
	 xml:space="preserve">
<g>
	<g>
		<path d="M157.362,461.516h-8.701v31.805c2.507,0.332,5.519,0.332,9.872,0.332c11.551,0,21.745-4.351,21.745-16.231
			C180.278,466.035,170.079,461.516,157.362,461.516z"/>
		<path d="M401.825,417.003c-5.188,0-8.706,0.506-10.541,1.018v33.297c2.167,0.501,4.846,0.664,8.526,0.664
			c13.559,0,21.928-6.86,21.928-18.404C421.738,423.193,414.545,417.003,401.825,417.003z"/>
		<path d="M475.095,131.992c-0.032-2.526-0.833-5.021-2.568-6.993L366.324,3.694c-0.021-0.031-0.053-0.045-0.084-0.076
			c-0.633-0.707-1.36-1.29-2.141-1.804c-0.232-0.15-0.465-0.285-0.707-0.422c-0.686-0.366-1.393-0.67-2.131-0.892
			c-0.2-0.058-0.379-0.14-0.58-0.192C359.87,0.119,359.047,0,358.203,0H97.2C85.292,0,75.6,9.693,75.6,21.601v507.6
			c0,11.913,9.692,21.601,21.6,21.601H453.6c11.918,0,21.601-9.688,21.601-21.601V133.202
			C475.2,132.796,475.137,132.398,475.095,131.992z M195.344,502.348c-8.203,6.529-21.921,10.21-44.35,10.21
			c-12.543,0-21.919-0.833-27.604-1.677V400.106c6.694-1.339,20.245-2.341,32.961-2.341c15.562,0,25.099,1.497,33.302,6.354
			c7.863,4.182,13.553,11.881,13.553,22.09c0,10.041-5.859,19.417-18.57,24.1v0.338c12.886,3.512,22.422,13.215,22.422,27.78
			C207.059,488.627,202.371,496.663,195.344,502.348z M321.506,511.387l-1.672-43.174c-0.506-13.553-1.007-29.953-1.007-46.354
			h-0.496c-3.518,14.392-8.211,30.454-12.556,43.675l-13.722,44.007h-19.91l-12.047-43.675
			c-3.684-13.215-7.533-29.278-10.212-44.007h-0.335c-0.67,15.225-1.176,32.632-2.009,46.686l-2.006,42.847H221.94l7.193-112.793
			h33.971l11.042,37.657c3.515,13.052,7.032,27.111,9.542,40.331h0.501c3.181-13.057,7.03-27.949,10.711-40.494l12.044-37.483
			h33.302l6.187,112.788h-24.928V511.387z M436.63,459.681c-8.701,8.2-21.589,11.881-36.65,11.881c-3.343,0-6.359-0.169-8.695-0.506
			v40.331h-25.276v-111.28c7.868-1.339,18.911-2.341,34.473-2.341c15.73,0,26.942,3.011,34.473,9.038
			c7.193,5.685,12.045,15.056,12.045,26.099C446.998,443.95,443.327,453.321,436.63,459.681z M97.2,366.752V21.601h250.203v110.515
			c0,5.961,4.831,10.8,10.8,10.8H453.6l0.011,223.836H97.2z"/>
		<path d="M177.606,429.396c0-8.532-6.523-13.058-18.074-13.058c-5.519,0-8.699,0.338-10.877,0.665v26.277h8.367
			C170.414,443.28,177.606,437.759,177.606,429.396z"/>
	</g>
	<g>
		<path d="M321.184,171.295c-3.976,0-7.646,0.728-10.726,1.975c-1.245-1.208-2.942-1.975-4.81-1.975h-2.79
			c-3.549,0-6.359,2.7-6.766,6.133c-8.59,0.902-14.966,4.003-14.966,7.723c0,4.422,8.965,7.998,20.028,7.998
			c3.238,0,6.255-0.34,8.949-0.865c3.127,1.339,6.939,2.144,11.079,2.144c10.59,0,19.164-5.189,19.164-11.564
			C340.358,176.479,331.783,171.295,321.184,171.295z"/>
		<path d="M204.045,150.834c-8.872,0-16.044,7.169-16.044,16.01c0,8.857,7.172,16.023,16.044,16.023
			c8.844,0,16.016-7.167,16.016-16.023C220.061,158.003,212.889,150.834,204.045,150.834z"/>
		<path d="M164.468,103.869v208.846h208.797V103.869H164.468z M356.021,249.674c0,7.944-3.059,15.138-8.005,20.44
			c-7.689-19.646-17.118-40.985-30.46-37.568c-16.917,4.327-25.977,41.062-27.264,46.651h-0.337
			c-1.282-6.086-11.064-49.307-35.037-73.322c-24.031-24.021-47.363,60.719-50.512,72.674
			c-12.959-2.821-22.687-14.676-22.687-28.875v-94.959c0-16.292,12.82-29.51,28.648-29.51H327.37c15.825,0,28.65,13.218,28.65,29.51
			V249.674L356.021,249.674z"/>
	</g>
</g>
<g>
</g>
<g>
</g>
<g>
</g>
<g>
</g>
<g>
</g>
<g>
</g>
<g>
</g>
<g>
</g>
<g>
</g>
<g>
</g>
<g>
</g>
<g>
</g>
<g>
</g>
<g>
</g>
<g>
</g>
</svg>
