<?xml version="1.0" encoding="iso-8859-1"?>
<!-- Generator: Adobe Illustrator 16.0.0, SVG Export Plug-In . SVG Version: 6.00 Build 0)  -->
<!DOCTYPE svg PUBLIC "-//W3C//DTD SVG 1.1//EN" "http://www.w3.org/Graphics/SVG/1.1/DTD/svg11.dtd">
<svg version="1.1" id="Capa_1" xmlns="http://www.w3.org/2000/svg" xmlns:xlink="http://www.w3.org/1999/xlink" x="0px" y="0px"
	 width="548.291px" height="548.291px" viewBox="0 0 548.291 548.291" style="enable-background:new 0 0 548.291 548.291;"
	 xml:space="preserve">
<g>
	<g>
		<path d="M272.592,405.654h-0.388c-1.931,7.737-3.866,17.607-5.994,25.145l-7.735,27.675h28.831l-8.133-27.675
			C276.843,423.061,274.522,413.391,272.592,405.654z"/>
		<path d="M390.051,456.341h-10.058v36.768c2.897,0.389,6.388,0.389,11.413,0.389c13.354,0,25.159-5.04,25.159-18.772
			C416.561,461.571,404.76,456.341,390.051,456.341z"/>
		<path d="M413.464,419.198c0-9.869-7.549-15.104-20.893-15.104c-6.388,0-10.067,0.389-12.578,0.783v30.366h9.67
			C405.149,435.25,413.464,428.866,413.464,419.198z"/>
		<path d="M472.929,131.39c-0.031-2.514-0.839-4.997-2.566-6.96L364.656,3.677c-0.031-0.034-0.062-0.044-0.084-0.075
			c-0.63-0.704-1.365-1.284-2.142-1.796c-0.231-0.149-0.463-0.283-0.704-0.419c-0.672-0.365-1.376-0.667-2.121-0.888
			c-0.2-0.058-0.377-0.139-0.577-0.191C358.231,0.118,357.4,0,356.561,0H96.757C84.904,0,75.255,9.649,75.255,21.502V526.79
			c0,11.858,9.649,21.501,21.502,21.501h354.775c11.853,0,21.503-9.643,21.503-21.501V132.595
			C473.036,132.191,472.971,131.795,472.929,131.39z M173.511,491.555c8.903,0,18.772-1.932,24.578-4.251l4.438,23.022
			c-5.417,2.71-17.604,5.606-33.47,5.606c-45.085,0-68.306-28.058-68.306-65.196c0-44.506,31.736-69.277,71.214-69.277
			c15.275,0,26.887,3.098,32.115,5.806l-5.992,23.407c-6.005-2.52-14.32-4.834-24.764-4.834c-23.41,0-41.607,14.12-41.607,43.144
			C131.717,475.114,147.204,491.555,173.511,491.555z M301.61,514.002l-10.058-33.471h-37.345l-9.284,33.471h-30.575l39.854-130.406
			h38.693l40.442,130.406H301.61z M433.978,503.555c-9.479,7.55-25.354,11.801-51.276,11.801c-14.509,0-25.344-0.966-31.927-1.932
			V385.329c7.739-1.543,23.414-2.709,38.123-2.709c17.994,0,29.018,1.743,38.499,7.359c9.092,4.83,15.675,13.732,15.675,25.533
			c0,11.611-6.772,22.447-21.481,27.864v0.388c14.898,4.064,25.933,15.288,25.933,32.121
			C447.523,487.691,442.106,496.972,433.978,503.555z M451.533,365.081H96.757V21.502H345.81v110.011
			c0,5.935,4.819,10.751,10.751,10.751h94.972V365.081z"/>
		<path d="M345.763,201.178v-60.443H191.955v60.449h-8.793l-4.286-47.856l-22.549,47.856l0.538,123.598h224.273V201.178
			l-22.372-47.425l-4.174,47.425H345.763z M301.694,245.71h-58.457v-26.206h58.457V245.71z M335.363,201.178h-133v-51.821h133
			V201.178z"/>
		<rect x="205.205" y="122.511" width="128.706" height="8.622"/>
		<rect x="217.226" y="105.529" width="104.332" height="8.623"/>
		<rect x="248.386" y="225.101" width="48.604" height="7.648"/>
	</g>
</g>
<g>
</g>
<g>
</g>
<g>
</g>
<g>
</g>
<g>
</g>
<g>
</g>
<g>
</g>
<g>
</g>
<g>
</g>
<g>
</g>
<g>
</g>
<g>
</g>
<g>
</g>
<g>
</g>
<g>
</g>
</svg>
