<?xml version="1.0" encoding="iso-8859-1"?>
<!-- Generator: Adobe Illustrator 16.0.0, SVG Export Plug-In . SVG Version: 6.00 Build 0)  -->
<!DOCTYPE svg PUBLIC "-//W3C//DTD SVG 1.1//EN" "http://www.w3.org/Graphics/SVG/1.1/DTD/svg11.dtd">
<svg version="1.1" id="Capa_1" xmlns="http://www.w3.org/2000/svg" xmlns:xlink="http://www.w3.org/1999/xlink" x="0px" y="0px"
	 width="550.801px" height="550.801px" viewBox="0 0 550.801 550.801" style="enable-background:new 0 0 550.801 550.801;"
	 xml:space="preserve">
<g>
	<g>
		<path d="M264.908,413.791h-0.369c-1.866,7.494-3.73,17.033-5.798,24.332l-7.48,26.778h27.884l-7.865-26.778
			C269.027,430.64,266.78,421.285,264.908,413.791z"/>
		<path d="M382.135,413.417c-6.36,0-10.479,0.564-12.92,1.128v82.562c2.436,0.559,6.37,0.559,9.924,0.559
			c25.84,0.19,42.684-14.038,42.684-44.181C422.012,427.275,406.666,413.417,382.135,413.417z"/>
		<path d="M475.095,131.992c-0.032-2.521-0.833-5.021-2.568-6.993L366.324,3.689c-0.021-0.035-0.053-0.045-0.084-0.077
			c-0.633-0.706-1.36-1.284-2.141-1.803c-0.232-0.145-0.465-0.285-0.707-0.422c-0.686-0.367-1.393-0.665-2.131-0.886
			c-0.2-0.063-0.379-0.145-0.58-0.197C359.87,0.114,359.037,0,358.203,0H97.2C85.292,0,75.6,9.693,75.6,21.601v507.6
			c0,11.907,9.692,21.601,21.6,21.601H453.6c11.908,0,21.601-9.693,21.601-21.601V133.202
			C475.2,132.791,475.137,132.393,475.095,131.992z M169.037,496.916c8.628,0,18.17-1.872,23.792-4.118l4.303,22.285
			c-5.242,2.616-17.031,5.427-32.39,5.427c-43.63,0-66.095-27.147-66.095-63.097c0-43.068,30.705-67.025,68.903-67.025
			c14.787,0,26.03,3.001,31.084,5.611l-5.801,22.649c-5.812-2.432-13.856-4.667-23.965-4.667c-22.663,0-40.268,13.652-40.268,41.739
			C128.596,481.001,143.585,496.916,169.037,496.916z M293.003,518.638l-9.745-32.4h-36.131l-8.975,32.4h-29.587l38.562-126.193
			h37.455l39.124,126.193H293.003z M431.188,503.656c-13.299,11.053-33.518,16.295-58.229,16.295
			c-14.782,0-25.271-0.939-32.39-1.878V394.137c10.483-1.692,24.157-2.626,38.575-2.626c23.968,0,39.492,4.304,51.664,13.479
			c13.114,9.745,21.347,25.28,21.347,47.566C452.155,476.698,443.359,493.362,431.188,503.656z M97.2,366.752V21.601h250.203
			v110.521c0,5.962,4.831,10.8,10.8,10.8H453.6l0.011,223.837H97.2V366.752z"/>
		<path d="M325.244,268.289l-22.074-60.033h12.256v9.682h5.979v-25.353h-5.979v9.693h-14.46l-14.302-38.886
			c1.529-3.449,2.404-7.235,2.404-11.243c0-14.109-10.525-25.65-24.123-27.496v-33.07h-7.491v33.064
			c-13.614,1.846-24.131,13.387-24.131,27.496c0,5.655,1.695,10.908,4.611,15.303l-12.825,34.826h-15.029v-9.692h-5.978v25.352
			h5.978v-9.682h12.835l-22.074,60.033l1.405,16.894l-8.214,36.598l18.479-32.379l13.278-12.445l37.249-95.354l37.272,95.354
			l13.269,12.445l18.478,32.379l-8.216-36.598L325.244,268.289z M261.636,171.466c-10.655,0-19.28-8.627-19.28-19.256
			c0-10.645,8.63-19.267,19.28-19.267c10.642,0,19.269,8.628,19.269,19.267C280.905,162.844,272.278,171.466,261.636,171.466z"/>
		<circle cx="261.636" cy="152.475" r="9.504"/>
	</g>
</g>
<g>
</g>
<g>
</g>
<g>
</g>
<g>
</g>
<g>
</g>
<g>
</g>
<g>
</g>
<g>
</g>
<g>
</g>
<g>
</g>
<g>
</g>
<g>
</g>
<g>
</g>
<g>
</g>
<g>
</g>
</svg>
