<?xml version="1.0" encoding="iso-8859-1"?>
<!-- Generator: Adobe Illustrator 16.0.0, SVG Export Plug-In . SVG Version: 6.00 Build 0)  -->
<!DOCTYPE svg PUBLIC "-//W3C//DTD SVG 1.1//EN" "http://www.w3.org/Graphics/SVG/1.1/DTD/svg11.dtd">
<svg version="1.1" id="Capa_1" xmlns="http://www.w3.org/2000/svg" xmlns:xlink="http://www.w3.org/1999/xlink" x="0px" y="0px"
	 width="550.801px" height="550.801px" viewBox="0 0 550.801 550.801" style="enable-background:new 0 0 550.801 550.801;"
	 xml:space="preserve">
<g>
	<g>
		<path d="M262.873,408.955c-6.307,0-10.392,0.56-12.804,1.118v81.812c2.412,0.559,6.317,0.559,9.837,0.559
			c25.597,0.18,42.292-13.916,42.292-43.785C302.39,422.688,287.181,408.955,262.873,408.955z"/>
		<path d="M391.647,408.228c-6.866,0-10.758,0.564-12.804,0.929v34.52h11.132c14.102,0,22.444-7.066,22.444-18.004
			C412.425,414.155,404.631,408.407,391.647,408.228z"/>
		<path d="M475.095,131.986c-0.032-2.525-0.844-5.015-2.584-6.992L366.324,3.684c-0.031-0.029-0.062-0.045-0.084-0.071
			c-0.633-0.712-1.371-1.289-2.151-1.803c-0.232-0.15-0.464-0.29-0.707-0.422c-0.675-0.372-1.382-0.669-2.13-0.891
			c-0.201-0.058-0.38-0.145-0.58-0.188C359.87,0.114,359.037,0,358.193,0H97.2C85.292,0,75.6,9.688,75.6,21.601v507.6
			c0,11.907,9.692,21.601,21.6,21.601H453.6c11.908,0,21.601-9.693,21.601-21.601V133.197
			C475.2,132.791,475.137,132.393,475.095,131.986z M175.289,491.717c8.532,0,18.003-1.856,23.562-4.092l4.271,22.085
			c-5.202,2.595-16.888,5.379-32.094,5.379c-43.232,0-65.496-26.905-65.496-62.522c0-42.683,30.43-66.424,68.283-66.424
			c14.649,0,25.784,2.964,30.797,5.563l-5.756,22.449c-5.746-2.405-13.721-4.63-23.738-4.63c-22.455,0-39.891,13.542-39.891,41.364
			C135.222,475.938,150.061,491.717,175.289,491.717z M311.48,498.383c-13.162,10.958-33.201,16.146-57.702,16.146
			c-14.649,0-25.041-0.928-32.091-1.855V389.855c10.389-1.683,23.931-2.595,38.219-2.595c23.741,0,39.139,4.266,51.205,13.353
			c12.983,9.65,21.146,25.059,21.146,47.134C332.258,471.678,323.536,488.184,311.48,498.383z M416.316,513.232
			c-2.035-3.522-4.999-13.732-8.711-29.131c-3.344-15.599-8.712-19.864-20.229-20.039h-8.521v49.159h-28.013V389.855
			c9.092-1.477,22.628-2.595,37.663-2.595c18.557,0,31.54,2.773,40.447,9.829c7.414,5.938,11.496,14.66,11.496,26.156
			c0,15.958-11.322,26.905-22.075,30.808v0.549c8.718,3.522,13.543,11.87,16.696,23.382c3.907,14.102,7.794,30.428,10.215,35.248
			H416.316z M97.2,366.747V21.601h250.192v110.51c0,5.962,4.842,10.8,10.801,10.8H453.6v223.837H97.2z"/>
		<path d="M248.442,278.459l-41.924-41.939l95.724-95.724l-6.74-6.734L193.05,236.524l0.066,0.066
			c-1.065,1.004-1.859,2.288-2.184,3.699l-13.468,58.377c-0.567,2.489,0.158,5.067,1.972,6.876c1.814,1.809,4.39,2.553,6.874,1.973
			l58.38-13.474c1.35-0.312,2.586-0.986,3.564-1.973c0.053-0.058,0.108-0.121,0.156-0.185l0.032,0.043l102.463-102.463l-6.739-6.734
			L248.442,278.459z M243.066,287.013l-36.819,8.501l-16.778-16.78l8.501-36.819c0-0.026,0.021-0.058,0.042-0.079l0.077-0.045
			c0.053-0.011,0.113,0.005,0.155,0.045l44.906,44.903c0.045,0.042,0.066,0.105,0.045,0.158l0.329,0.105l0.135,0.137
			L243.066,287.013z M323.209,161.779l-85.944,85.941l-13.835-13.834l85.941-85.947L323.209,161.779z"/>
	</g>
</g>
<g>
</g>
<g>
</g>
<g>
</g>
<g>
</g>
<g>
</g>
<g>
</g>
<g>
</g>
<g>
</g>
<g>
</g>
<g>
</g>
<g>
</g>
<g>
</g>
<g>
</g>
<g>
</g>
<g>
</g>
</svg>
