<?xml version="1.0" encoding="iso-8859-1"?>
<!-- Generator: Adobe Illustrator 16.0.0, SVG Export Plug-In . SVG Version: 6.00 Build 0)  -->
<!DOCTYPE svg PUBLIC "-//W3C//DTD SVG 1.1//EN" "http://www.w3.org/Graphics/SVG/1.1/DTD/svg11.dtd">
<svg version="1.1" id="Capa_1" xmlns="http://www.w3.org/2000/svg" xmlns:xlink="http://www.w3.org/1999/xlink" x="0px" y="0px"
	 width="548.29px" height="548.291px" viewBox="0 0 548.29 548.291" style="enable-background:new 0 0 548.29 548.291;"
	 xml:space="preserve">
<g>
	<g>
		<g>
			<path d="M368.823,411.879c-6.425,0-10.068,0.524-11.984,0.872v32.283h10.421c13.195,0,21.007-6.594,21.007-16.834
				C388.267,417.439,380.97,412.053,368.823,411.879z"/>
			<path d="M472.929,131.399c-0.031-2.518-0.828-5-2.556-6.964L364.65,3.677c-0.021-0.031-0.052-0.042-0.089-0.073
				c-0.625-0.707-1.355-1.287-2.127-1.795c-0.23-0.152-0.462-0.286-0.703-0.421c-0.683-0.366-1.387-0.666-2.127-0.887
				c-0.199-0.06-0.371-0.139-0.571-0.194C358.23,0.118,357.4,0,356.566,0H96.757C84.904,0,75.255,9.651,75.255,21.502V526.79
				c0,11.858,9.649,21.501,21.502,21.501h354.776c11.862,0,21.502-9.643,21.502-21.501V132.603
				C473.035,132.199,472.973,131.795,472.929,131.399z M194.572,489.992c7.989,0,16.842-1.737,22.05-3.822l3.99,20.661
				c-4.861,2.431-15.798,5.04-30.027,5.04c-40.439,0-61.279-25.171-61.279-58.5c0-39.926,28.473-62.147,63.886-62.147
				c13.711,0,24.124,2.787,28.806,5.207l-5.375,21.009c-5.386-2.262-12.854-4.342-22.215-4.342
				c-21.009,0-37.321,12.668-37.321,38.71C157.08,475.241,170.958,489.992,194.572,489.992z M312.592,510.133h-74.639V393.14h72.214
				v21.7h-45.66v24.299h43.056v21.519h-43.056v27.773h48.085V510.133z M391.91,510.133c-1.911-3.303-4.683-12.847-8.157-27.255
				c-3.129-14.578-8.162-18.578-18.924-18.746h-7.99v46.006h-26.205V394.704c8.504-1.396,21.172-2.437,35.239-2.437
				c17.355,0,29.496,2.604,37.838,9.198c6.949,5.563,10.762,13.717,10.762,24.481c0,14.92-10.588,25.167-20.651,28.8v0.54
				c8.157,3.293,12.666,11.103,15.617,21.864c3.647,13.187,7.28,28.462,9.537,32.987H391.91V510.133z M96.757,365.085V21.507H345.82
				v110.015c0,5.935,4.809,10.75,10.751,10.75h94.962l0.01,222.813H96.757z"/>
		</g>
		<path d="M359.085,151.044c0-6.407-3.359-11.998-8.393-15.208c2.965-4.854,3.617-11.008,1.171-16.615l-3.008-6.897
			c-1.9-4.365-5.345-7.557-9.408-9.315c-0.189-4.338-1.891-8.627-5.207-11.944l-5.323-5.321c-4.272-4.273-10.162-5.918-15.706-5.01
			c-1.122-5.89-5.103-11.106-11.092-13.46l-7.009-2.764c-4.944-1.929-10.183-1.488-14.603,0.696
			c-3.137-2.651-7.126-4.307-11.558-4.307h-7.535c-5.562,0-10.475,2.575-13.792,6.533c-4.966-3.41-11.499-4.302-17.415-1.711
			l-6.897,2.995c-5.221,2.284-8.736,6.746-10.134,11.843c-4.273,0.242-8.47,1.93-11.728,5.187l-5.322,5.321
			c-3.704,3.701-5.407,8.606-5.231,13.456c-5.551,1.315-10.394,5.224-12.641,10.948l-2.763,7c-2.093,5.344-1.4,11.042,1.267,15.648
			c-3.371,3.268-5.488,7.848-5.488,12.927v7.52c0,5.323,2.333,10.053,5.995,13.347c-2.394,4.662-2.835,10.289-0.564,15.465
			l3.005,6.897c2.181,5.032,6.412,8.478,11.276,9.967c-0.441,5.123,1.22,10.385,5.145,14.299l5.322,5.32
			c4.032,4.047,9.515,5.694,14.793,5.098c1.75,4.569,5.289,8.428,10.202,10.362l1.092,0.437L178.5,322l37.321-20.463
			c0,0,9.638,60.799,9.638,58.999c0-1.454,22.307-81.613,30.953-112.561c1.585,0.473,3.263,0.746,5.008,0.746h3.139l36.746,97.972
			v-51.17l35.517,24.078l-32.163-81.452l0.6-0.257c4.173-1.83,7.254-5.076,9.065-8.898c5.207,0.539,10.614-1.113,14.604-5.119
			l5.323-5.32c4.588-4.585,6.142-11.013,4.755-16.9c4.988-1.606,9.25-5.262,11.308-10.509l2.762-7.004
			c1.616-4.133,1.533-8.471,0.221-12.369c3.538-3.299,5.795-7.971,5.795-13.203v-7.525H359.085z M265.189,219.071
			c-35.5,0-64.263-28.774-64.263-64.257c0-35.495,28.769-64.258,64.263-64.258c35.485,0,64.252,28.769,64.252,64.258
			C329.441,190.297,300.675,219.071,265.189,219.071z"/>
	</g>
</g>
<g>
</g>
<g>
</g>
<g>
</g>
<g>
</g>
<g>
</g>
<g>
</g>
<g>
</g>
<g>
</g>
<g>
</g>
<g>
</g>
<g>
</g>
<g>
</g>
<g>
</g>
<g>
</g>
<g>
</g>
</svg>
