<?xml version="1.0" encoding="iso-8859-1"?>
<!-- Generator: Adobe Illustrator 16.0.0, SVG Export Plug-In . SVG Version: 6.00 Build 0)  -->
<!DOCTYPE svg PUBLIC "-//W3C//DTD SVG 1.1//EN" "http://www.w3.org/Graphics/SVG/1.1/DTD/svg11.dtd">
<svg version="1.1" id="Capa_1" xmlns="http://www.w3.org/2000/svg" xmlns:xlink="http://www.w3.org/1999/xlink" x="0px" y="0px"
	 width="550.801px" height="550.801px" viewBox="0 0 550.801 550.801" style="enable-background:new 0 0 550.801 550.801;"
	 xml:space="preserve">
<g>
	<g>
		<path d="M475.095,131.997c-0.032-2.526-0.833-5.021-2.568-6.992L366.324,3.694c-0.021-0.031-0.053-0.042-0.084-0.076
			c-0.633-0.707-1.36-1.29-2.141-1.804c-0.232-0.15-0.465-0.285-0.707-0.422c-0.686-0.366-1.393-0.667-2.131-0.889
			c-0.2-0.061-0.379-0.143-0.58-0.195C359.87,0.119,359.047,0,358.203,0H97.2C85.292,0,75.6,9.693,75.6,21.601v507.6
			c0,11.913,9.692,21.601,21.6,21.601H453.6c11.918,0,21.601-9.688,21.601-21.601V133.202
			C475.2,132.799,475.137,132.398,475.095,131.997z M187.228,492.888c8.409,0,17.74-1.825,23.227-4.019l4.206,21.769
			c-5.113,2.563-16.643,5.3-31.638,5.3c-42.623,0-64.578-26.525-64.578-61.646c0-42.071,30.008-65.485,67.32-65.485
			c14.452,0,25.429,2.927,30.364,5.489l-5.674,22.139c-5.667-2.373-13.534-4.578-23.414-4.578c-22.13,0-39.329,13.358-39.329,40.796
			C147.712,477.342,162.346,492.888,187.228,492.888z M308.327,413.691h-47.371v28.165h44.271v22.681h-44.271v49.576h-27.983
			V390.825h75.354V413.691z M432.369,508.444c-8.596,2.921-24.88,6.95-41.164,6.95c-22.497,0-38.771-5.674-50.119-16.653
			c-11.338-10.61-17.561-26.699-17.371-44.813c0.18-40.975,29.996-64.389,70.422-64.389c15.915,0,28.171,3.105,34.203,6.038
			l-5.854,22.312c-6.76-2.922-15.182-5.305-28.719-5.305c-23.225,0-40.785,13.173-40.785,39.883
			c0,25.429,15.916,40.421,38.781,40.421c6.402,0,11.518-0.728,13.711-1.825v-25.792h-19.016v-21.764h45.91V508.444L432.369,508.444
			z M97.2,366.752V21.601h250.203v110.515c0,5.961,4.831,10.8,10.8,10.8H453.6l0.011,223.836H97.2z"/>
		<g>
			<path d="M359.87,242.331l11.391-38.042c0.39-1.313,0.464-2.634,0.284-3.916l2.943-9.039c0.453-1.492-0.158-2.837-1.25-3.953
				c0.143-0.288,0.343-0.519,0.453-0.838c0.718-2.283-0.564-4.715-2.858-5.432l-3.85-1.21c-2.277-0.696-4.725,0.566-5.432,2.853
				c-0.079,0.227-0.047,0.459-0.079,0.686c-1.413,0.216-2.562,0.82-3.006,2.228l-2.668,9.392c-1.065,1.052-1.909,2.35-2.362,3.889
				l-11.401,38.042c-0.591,1.97-0.464,3.974,0.18,5.777l-15.504,54.416c-1.023,3.359-2.985,18.278,0.379,19.307
				c3.365,1.018,10.769-12.224,11.792-15.589l17.444-53.707C357.961,246.057,359.248,244.4,359.87,242.331z"/>
			<path d="M159.366,133.877l137.138-51.094l44.951,120.646c0.611-1.562,1.36-3.062,2.352-4.433l2.047-7.167
				c0.4-1.294,0.98-2.468,1.666-3.546L302.959,68.674l-157.71,58.757l76.496,205.308l93.938-35l3.729-13.109l-91.23,33.992
				L159.366,133.877z"/>
			<path d="M370.068,248.788l-1.75,5.854c-0.896,2.982-2.437,5.655-4.515,7.896l-0.158,0.464l1.688,4.519l-3.58,1.34l-4.341,13.326
				l22.043-8.214L370.068,248.788z"/>
			<path d="M283.584,193.195c0.929-1.042,2.173-1.661,3.502-1.753l0.938-0.061l1.076,0.34c0.844,0.309,1.54,0.231,2.141-0.077
				c0.644-0.316,1.149-0.907,1.36-1.569c0.606-1.922,2.247-3.24,4.203-3.499l-0.242-3.673c-0.032-0.385-0.312-0.73-0.675-0.854
				c-3.992-1.258-7.336-4.124-9.187-7.868c-1.856-3.752-2.109-8.168-0.696-12.1c0.137-0.358,0.037-0.783-0.253-1.033l-8.886-7.763
				c-0.496-0.433-0.807-0.261-1.07-0.127c-3.673,1.925-8.101,2.281-12.066,0.926c-3.963-1.329-7.246-4.277-9.039-8.068
				c-0.156-0.34-0.53-0.562-0.928-0.535l-11.752,0.788c-0.388,0.016-0.728,0.293-0.852,0.648c-1.252,3.995-4.126,7.349-7.868,9.197
				c-3.731,1.861-8.176,2.112-12.108,0.675c-0.242-0.076-0.599-0.206-1.031,0.279l-7.771,8.878c-0.253,0.298-0.308,0.73-0.113,1.071
				c1.927,3.709,2.268,8.105,0.928,12.068c-1.34,3.958-4.271,7.246-8.068,9.028c-0.356,0.164-0.567,0.53-0.551,0.928l0.791,11.773
				c0.021,0.385,0.285,0.712,0.651,0.839c3.998,1.257,7.34,4.129,9.208,7.873c1.848,3.741,2.091,8.168,0.664,12.1
				c-0.124,0.361-0.021,0.783,0.277,1.031l8.88,7.775c0.488,0.422,0.812,0.251,1.065,0.113c1.891-0.986,3.953-1.566,6.096-1.711
				c2.046-0.129,4.05,0.119,5.978,0.788c3.963,1.34,7.249,4.271,9.031,8.063c0.166,0.345,0.538,0.562,0.928,0.54l11.76-0.783
				c0.401-0.029,0.73-0.292,0.844-0.654c1.263-3.997,4.124-7.346,7.878-9.197c3.66-1.803,7.921-2.077,11.76-0.793
				c0.021-0.491,0.116-1,0.285-1.479c0.253-0.696,0.211-1.464-0.105-2.102c-0.307-0.614-0.887-1.118-1.572-1.329
				c-2.035-0.667-3.428-2.449-3.564-4.562l-0.366-5.574c-0.146-2.104,0.994-4.055,2.897-4.973c0.675-0.324,1.191-0.891,1.413-1.556
				c0.222-0.664,0.158-1.432-0.152-2.046c-0.976-1.885-0.686-4.185,0.686-5.767L283.584,193.195z M252.481,214.727
				c-12.614,0.836-23.559-8.743-24.397-21.357c-0.852-12.608,8.723-23.572,21.347-24.413c12.625-0.844,23.572,8.749,24.414,21.362
				C274.688,202.933,265.109,213.883,252.481,214.727z"/>
			<path d="M321.521,207.241c-1.888-0.599-3.47-1.959-4.346-3.731c-0.886-1.783-1.007-3.866-0.332-5.735
				c0.068-0.166,0.011-0.366-0.121-0.49l-4.197-3.684c-0.243-0.206-0.401-0.113-0.518-0.066c-1.729,0.915-3.85,1.087-5.716,0.448
				c-1.883-0.635-3.443-2.03-4.287-3.828c-0.074-0.161-0.254-0.269-0.428-0.259l-5.579,0.377c-0.18,0.016-0.348,0.137-0.391,0.308
				c-0.601,1.891-1.961,3.489-3.733,4.364c-1.771,0.881-3.87,0.999-5.727,0.319c-0.127-0.04-0.296-0.103-0.496,0.129l-3.696,4.195
				c-0.111,0.14-0.143,0.356-0.063,0.52c0.928,1.753,1.07,3.839,0.453,5.719c-0.643,1.877-2.024,3.433-3.817,4.276
				c-0.169,0.074-0.29,0.253-0.279,0.44l0.379,5.574c0.011,0.185,0.138,0.34,0.322,0.396c1.888,0.599,3.48,1.959,4.345,3.73
				c0.887,1.77,1.019,3.866,0.343,5.735c-0.062,0.171-0.01,0.361,0.111,0.49l4.219,3.688c0.231,0.201,0.374,0.114,0.495,0.053
				c0.896-0.464,1.883-0.743,2.9-0.809c0.96-0.063,1.915,0.071,2.812,0.375c1.882,0.625,3.454,2.03,4.281,3.823
				c0.079,0.166,0.264,0.264,0.443,0.253l5.568-0.374c0.18-0.011,0.349-0.13,0.401-0.301c0.601-1.901,1.951-3.488,3.733-4.364
				c1.771-0.88,3.871-0.994,5.737-0.324c0.116,0.042,0.285,0.098,0.485-0.118l3.681-4.211c0.116-0.137,0.138-0.343,0.068-0.509
				c-0.917-1.756-1.086-3.845-0.442-5.725c0.627-1.885,2.015-3.433,3.817-4.276c0.164-0.087,0.274-0.253,0.264-0.438l-0.363-5.572
				C321.827,207.457,321.701,207.297,321.521,207.241z M300.955,222.724c-5.97,0.404-11.158-4.142-11.564-10.119
				c-0.385-5.967,4.14-11.167,10.125-11.573c5.964-0.385,11.158,4.153,11.564,10.13C311.48,217.14,306.945,222.323,300.955,222.724z
				"/>
		</g>
	</g>
</g>
<g>
</g>
<g>
</g>
<g>
</g>
<g>
</g>
<g>
</g>
<g>
</g>
<g>
</g>
<g>
</g>
<g>
</g>
<g>
</g>
<g>
</g>
<g>
</g>
<g>
</g>
<g>
</g>
<g>
</g>
</svg>
