<?xml version="1.0" encoding="iso-8859-1"?>
<!-- Generator: Adobe Illustrator 16.0.0, SVG Export Plug-In . SVG Version: 6.00 Build 0)  -->
<!DOCTYPE svg PUBLIC "-//W3C//DTD SVG 1.1//EN" "http://www.w3.org/Graphics/SVG/1.1/DTD/svg11.dtd">
<svg version="1.1" id="Capa_1" xmlns="http://www.w3.org/2000/svg" xmlns:xlink="http://www.w3.org/1999/xlink" x="0px" y="0px"
	 width="550.801px" height="550.801px" viewBox="0 0 550.801 550.801" style="enable-background:new 0 0 550.801 550.801;"
	 xml:space="preserve">
<g>
	<g>
		<path d="M475.095,132c-0.031-2.529-0.833-5.023-2.568-6.995L366.319,3.694c-0.021-0.031-0.053-0.042-0.089-0.074
			c-0.628-0.709-1.361-1.292-2.136-1.803c-0.232-0.153-0.465-0.288-0.707-0.422c-0.686-0.369-1.393-0.67-2.136-0.892
			c-0.2-0.061-0.374-0.143-0.575-0.195C359.87,0.119,359.037,0,358.198,0H97.2c-11.907,0-21.6,9.695-21.6,21.601v507.6
			c0,11.913,9.692,21.601,21.6,21.601h356.4c11.918,0,21.6-9.688,21.6-21.601V133.207C475.2,132.804,475.137,132.398,475.095,132z
			 M182.817,490.356c7.636,0,16.103-1.667,21.07-3.649l3.818,19.738c-4.638,2.326-15.103,4.814-28.695,4.814
			c-38.665,0-58.59-24.057-58.59-55.914c0-38.174,27.221-59.416,61.069-59.416c13.123,0,23.063,2.658,27.551,4.989l-5.152,20.07
			c-5.133-2.151-12.274-4.145-21.233-4.145c-20.082,0-35.677,12.107-35.677,37.009C146.977,476.25,160.244,490.356,182.817,490.356z
			 M292.655,418.5h-42.981v25.556h40.165v20.582h-40.165v44.967H224.29V397.766h68.365V418.5z M405.654,509.604l-1.666-42.82
			c-0.501-13.432-0.997-29.7-0.997-45.964h-0.49c-3.491,14.281-8.132,30.207-12.445,43.316l-13.611,43.643H356.69l-11.949-43.315
			c-3.649-13.104-7.457-29.036-10.115-43.633h-0.343c-0.664,15.104-1.16,32.358-1.978,46.301l-1.993,42.473h-23.403l7.135-111.839
			h33.687l10.948,37.336c3.491,12.94,6.972,26.884,9.46,39.982h0.496c3.153-12.94,6.972-27.717,10.621-40.157l11.949-37.167h33.022
			l6.138,111.839h-24.711V509.604z M97.2,366.758V21.605h250.204v110.519c0,5.961,4.83,10.8,10.8,10.8h95.396l0.011,223.834H97.2z"
			/>
		<g>
			<path d="M183.925,218.745c15.623-0.222,17.416-8.706,17.416-15.85c0-5.806-0.675-11.831-1.339-17.863
				c-0.896-6.249-1.561-12.274-1.561-18.08c0-20.983,13.392-29.908,33.251-29.908h6.476v16.073h-4.018
				c-11.609,0-15.633,6.471-15.633,17.41c0,4.467,0.675,9.152,1.572,14.062c0.443,4.91,1.339,10.265,1.339,16.071
				c0.222,15.628-6.473,22.322-17.869,25.001v0.448c11.391,2.679,18.091,9.595,17.869,25.223c0,6.028-0.896,11.386-1.339,16.298
				c-0.896,4.91-1.572,9.595-1.572,14.062c0,11.153,4.472,17.629,15.633,17.629h4.018v15.857h-6.476
				c-19.417,0-33.251-8.031-33.251-30.58c0-5.58,0.665-11.831,1.561-17.859c0.664-6.025,1.339-11.831,1.339-17.634
				c0-6.476-1.793-15.628-17.416-15.854V218.745z"/>
			<path d="M351.349,233.25c-15.414,0.227-17.418,9.373-17.418,15.854c0,5.798,0.896,11.604,1.561,17.634
				c0.675,6.022,1.561,12.274,1.561,17.859c0,22.549-13.843,30.58-33.254,30.58h-6.471V299.32h4.014
				c11.158-0.221,15.403-6.465,15.403-17.629c0-4.467-0.664-9.152-1.34-14.062c-0.664-4.907-1.339-10.265-1.339-16.298
				c-0.222-15.627,6.476-22.544,17.634-25.223v-0.448c-11.158-2.679-17.855-9.373-17.634-25.001c0-5.801,0.675-11.156,1.339-16.071
				c0.676-4.909,1.34-9.595,1.34-14.062c0-10.935-4.019-17.188-15.403-17.41h-4.014v-16.073h6.471
				c19.865,0,33.254,8.925,33.254,29.908c0,5.801-0.886,11.826-1.561,18.08c-0.664,6.027-1.561,12.052-1.561,17.863
				c0,7.138,2.004,15.628,17.418,15.85V233.25z"/>
		</g>
	</g>
</g>
<g>
</g>
<g>
</g>
<g>
</g>
<g>
</g>
<g>
</g>
<g>
</g>
<g>
</g>
<g>
</g>
<g>
</g>
<g>
</g>
<g>
</g>
<g>
</g>
<g>
</g>
<g>
</g>
<g>
</g>
</svg>
