<?xml version="1.0" encoding="iso-8859-1"?>
<!-- Generator: Adobe Illustrator 16.0.0, SVG Export Plug-In . SVG Version: 6.00 Build 0)  -->
<!DOCTYPE svg PUBLIC "-//W3C//DTD SVG 1.1//EN" "http://www.w3.org/Graphics/SVG/1.1/DTD/svg11.dtd">
<svg version="1.1" id="Capa_1" xmlns="http://www.w3.org/2000/svg" xmlns:xlink="http://www.w3.org/1999/xlink" x="0px" y="0px"
	 width="550.801px" height="550.801px" viewBox="0 0 550.801 550.801" style="enable-background:new 0 0 550.801 550.801;"
	 xml:space="preserve">
<g>
	<g>
		<path d="M475.095,131.997c-0.031-2.526-0.833-5.021-2.568-6.992L366.319,3.694c-0.021-0.034-0.053-0.045-0.089-0.076
			c-0.628-0.707-1.361-1.29-2.136-1.804c-0.232-0.15-0.465-0.287-0.707-0.422c-0.686-0.366-1.393-0.67-2.136-0.892
			c-0.2-0.058-0.374-0.14-0.575-0.192C359.87,0.119,359.037,0,358.198,0H97.2c-11.907,0-21.6,9.693-21.6,21.601v507.6
			c0,11.913,9.692,21.601,21.6,21.601h356.4c11.918,0,21.6-9.688,21.6-21.601V133.207
			C475.2,132.796,475.137,132.398,475.095,131.997z M207.911,494.327c9.142,0,19.287-1.988,25.249-4.372l4.58,23.657
			c-5.566,2.784-18.101,5.769-34.394,5.769c-46.33,0-70.189-28.835-70.189-67.004c0-45.736,32.611-71.187,73.167-71.187
			c15.715,0,27.643,3.19,33.009,5.965l-6.173,24.058c-6.159-2.584-14.713-4.968-25.45-4.968c-24.057,0-42.747,14.513-42.747,44.339
			C164.959,477.431,180.869,494.327,207.911,494.327z M363.583,511.224c-9.345,3.18-27.032,7.557-44.729,7.557
			c-24.458,0-42.158-6.17-54.485-18.099c-12.318-11.533-19.079-29.03-18.879-48.716c0.19-44.54,32.601-69.989,76.539-69.989
			c17.297,0,30.628,3.386,37.188,6.561l-6.371,24.258c-7.351-3.175-16.495-5.759-31.208-5.759
			c-25.249,0-44.336,14.312-44.336,43.337c0,27.644,17.294,43.943,42.143,43.943c6.961,0,12.529-0.785,14.918-1.988v-28.033H313.69
			v-23.656h49.897v70.585H363.583z M417.651,517.388h-30.428V383.385h30.428V517.388z M97.2,366.758V21.605h250.204v110.516
			c0,5.962,4.83,10.8,10.8,10.8h95.396l0.011,223.837H97.2z"/>
		<g>
			<path d="M351.248,250.457l11.386-38.043c0.39-1.312,0.464-2.634,0.29-3.915l2.942-9.039c0.453-1.492-0.153-2.834-1.25-3.952
				c0.143-0.287,0.343-0.52,0.454-0.839c0.717-2.283-0.57-4.714-2.858-5.432l-3.85-1.21c-2.278-0.696-4.726,0.567-5.432,2.853
				c-0.079,0.227-0.042,0.458-0.079,0.686c-1.413,0.216-2.563,0.82-3.006,2.228l-2.669,9.392c-1.064,1.053-1.914,2.35-2.367,3.89
				l-11.396,38.042c-0.59,1.969-0.469,3.973,0.175,5.777l-15.504,54.417c-1.019,3.354-2.985,18.277,0.379,19.312
				c3.365,1.012,10.769-12.234,11.792-15.589l17.444-53.712C349.345,254.183,350.631,252.527,351.248,250.457z"/>
			<path d="M150.747,142.003l137.141-51.094l44.945,120.646c0.612-1.561,1.361-3.061,2.357-4.432l2.046-7.167
				c0.401-1.295,0.981-2.468,1.667-3.547L294.337,76.792L136.63,135.557l76.497,205.309l93.936-35.006l3.733-13.104l-91.23,33.993
				L150.747,142.003z"/>
			<path d="M361.452,256.914l-1.751,5.854c-0.896,2.982-2.436,5.656-4.514,7.897l-0.158,0.464l1.688,4.52l-3.586,1.339
				l-4.335,13.326l22.043-8.216L361.452,256.914z"/>
			<path d="M274.968,201.322c0.928-1.042,2.17-1.661,3.499-1.753l0.938-0.061l1.076,0.34c0.847,0.309,1.542,0.232,2.139-0.076
				c0.643-0.316,1.149-0.907,1.36-1.569c0.611-1.922,2.246-3.24,4.208-3.499l-0.248-3.673c-0.031-0.382-0.306-0.73-0.675-0.854
				c-3.992-1.257-7.335-4.124-9.181-7.868c-1.859-3.752-2.112-8.169-0.696-12.1c0.135-0.356,0.031-0.783-0.256-1.031l-8.883-7.766
				c-0.496-0.432-0.809-0.261-1.073-0.126c-3.673,1.925-8.101,2.28-12.063,0.925c-3.965-1.329-7.248-4.276-9.041-8.068
				c-0.156-0.34-0.53-0.562-0.928-0.535l-11.752,0.789c-0.387,0.016-0.728,0.292-0.852,0.649c-1.252,3.994-4.126,7.349-7.868,9.196
				c-3.731,1.862-8.177,2.112-12.108,0.675c-0.242-0.077-0.598-0.206-1.031,0.28l-7.77,8.878c-0.253,0.298-0.309,0.73-0.114,1.07
				c1.927,3.71,2.268,8.105,0.928,12.068c-1.339,3.958-4.271,7.245-8.065,9.028c-0.359,0.164-0.567,0.53-0.551,0.928l0.789,11.773
				c0.021,0.385,0.284,0.712,0.653,0.838c3.995,1.258,7.338,4.129,9.205,7.873c1.849,3.742,2.091,8.169,0.665,12.1
				c-0.124,0.361-0.021,0.783,0.277,1.031l8.883,7.776c0.485,0.422,0.81,0.25,1.062,0.114c1.891-0.986,3.953-1.566,6.097-1.712
				c2.048-0.129,4.05,0.119,5.977,0.789c3.966,1.339,7.249,4.271,9.031,8.062c0.166,0.346,0.541,0.562,0.928,0.541l11.762-0.783
				c0.398-0.029,0.728-0.293,0.841-0.654c1.263-3.997,4.126-7.346,7.878-9.196c3.663-1.804,7.921-2.078,11.763-0.794
				c0.021-0.49,0.113-0.999,0.285-1.479c0.253-0.696,0.211-1.463-0.108-2.102c-0.309-0.614-0.886-1.118-1.572-1.329
				c-2.036-0.667-3.428-2.45-3.562-4.562l-0.369-5.574c-0.146-2.104,0.994-4.056,2.9-4.973c0.675-0.324,1.194-0.891,1.416-1.556
				c0.221-0.665,0.155-1.432-0.158-2.046c-0.971-1.885-0.686-4.184,0.686-5.766L274.968,201.322z M243.865,222.854
				c-12.617,0.835-23.562-8.744-24.397-21.357c-0.854-12.609,8.72-23.572,21.344-24.414c12.627-0.844,23.572,8.749,24.414,21.363
				C266.069,211.059,256.49,222.01,243.865,222.854z"/>
			<path d="M312.905,215.367c-1.894-0.598-3.476-1.959-4.346-3.73c-0.886-1.782-1.007-3.865-0.332-5.735
				c0.063-0.166,0.011-0.366-0.121-0.49l-4.198-3.684c-0.242-0.205-0.4-0.113-0.517-0.065c-1.729,0.915-3.854,1.086-5.722,0.448
				c-1.883-0.636-3.443-2.03-4.282-3.829c-0.079-0.16-0.258-0.269-0.432-0.258l-5.58,0.377c-0.174,0.016-0.343,0.137-0.385,0.309
				c-0.601,1.891-1.962,3.488-3.733,4.363c-1.771,0.881-3.873,1-5.729,0.319c-0.124-0.04-0.298-0.103-0.498,0.129l-3.692,4.195
				c-0.113,0.14-0.147,0.356-0.066,0.52c0.928,1.753,1.076,3.839,0.454,5.719c-0.643,1.877-2.025,3.433-3.818,4.277
				c-0.166,0.074-0.285,0.253-0.274,0.44l0.377,5.574c0.011,0.185,0.135,0.34,0.319,0.396c1.891,0.599,3.483,1.959,4.345,3.731
				c0.886,1.769,1.015,3.865,0.34,5.734c-0.063,0.172-0.011,0.361,0.113,0.491l4.219,3.689c0.232,0.2,0.377,0.113,0.496,0.053
				c0.896-0.464,1.88-0.744,2.897-0.81c0.965-0.063,1.914,0.071,2.815,0.374c1.878,0.625,3.449,2.03,4.282,3.823
				c0.074,0.166,0.264,0.264,0.443,0.253l5.568-0.375c0.18-0.011,0.349-0.129,0.401-0.301c0.601-1.901,1.951-3.488,3.728-4.363
				c1.772-0.881,3.876-0.994,5.743-0.324c0.11,0.042,0.285,0.097,0.485-0.119l3.681-4.211c0.116-0.137,0.137-0.343,0.063-0.509
				c-0.918-1.753-1.087-3.844-0.443-5.724c0.633-1.885,2.015-3.433,3.818-4.277c0.169-0.087,0.274-0.253,0.264-0.438l-0.364-5.571
				C313.211,215.584,313.084,215.423,312.905,215.367z M292.333,230.851c-5.964,0.403-11.153-4.143-11.559-10.12
				c-0.391-5.967,4.134-11.166,10.125-11.572c5.964-0.383,11.153,4.152,11.559,10.13
				C302.864,225.266,298.329,230.449,292.333,230.851z"/>
		</g>
	</g>
</g>
<g>
</g>
<g>
</g>
<g>
</g>
<g>
</g>
<g>
</g>
<g>
</g>
<g>
</g>
<g>
</g>
<g>
</g>
<g>
</g>
<g>
</g>
<g>
</g>
<g>
</g>
<g>
</g>
<g>
</g>
</svg>
