<?xml version="1.0" encoding="iso-8859-1"?>
<!-- Generator: Adobe Illustrator 16.0.0, SVG Export Plug-In . SVG Version: 6.00 Build 0)  -->
<!DOCTYPE svg PUBLIC "-//W3C//DTD SVG 1.1//EN" "http://www.w3.org/Graphics/SVG/1.1/DTD/svg11.dtd">
<svg version="1.1" id="Capa_1" xmlns="http://www.w3.org/2000/svg" xmlns:xlink="http://www.w3.org/1999/xlink" x="0px" y="0px"
	 width="550.801px" height="550.801px" viewBox="0 0 550.801 550.801" style="enable-background:new 0 0 550.801 550.801;"
	 xml:space="preserve">
<g>
	<g>
		<path d="M276.275,421.105h-0.242c-1.256,5.447-2.503,12.393-3.874,17.692l-4.999,19.464h18.603l-5.242-19.464
			C279.018,433.361,277.53,426.553,276.275,421.105z"/>
		<path d="M475.095,131.986c-0.032-2.525-0.833-5.015-2.568-6.992L366.324,3.684c-0.021-0.029-0.053-0.045-0.084-0.071
			c-0.633-0.712-1.36-1.289-2.141-1.803c-0.232-0.15-0.465-0.29-0.707-0.422c-0.686-0.372-1.393-0.669-2.131-0.891
			c-0.2-0.058-0.379-0.145-0.58-0.188C359.87,0.114,359.047,0,358.203,0H97.2C85.292,0,75.6,9.688,75.6,21.601v507.6
			c0,11.907,9.692,21.601,21.6,21.601H453.6c11.918,0,21.601-9.693,21.601-21.601V133.197
			C475.2,132.791,475.137,132.393,475.095,131.986z M149.051,481.539c5.74,0,12.108-1.36,15.855-2.995l2.876,16.2
			c-3.499,1.908-11.367,3.944-21.6,3.944c-29.089,0-44.073-19.733-44.073-45.868c0-31.304,20.482-48.722,45.942-48.722
			c9.861,0,17.36,2.178,20.725,4.082l-3.871,16.469c-3.874-1.772-9.239-3.401-15.979-3.401c-15.103,0-26.844,9.94-26.844,30.349
			C122.077,469.969,132.068,481.539,149.051,481.539z M232.833,497.328h-52.566v-91.737h19.101v74.313h33.465V497.328z
			 M295.007,497.328l-6.497-23.541h-24.089l-5.988,23.541h-19.73l25.724-91.727h24.965l26.093,91.727H295.007z M347.319,498.688
			c-9.608,0-19.101-2.722-23.836-5.579l3.86-17.149c5.125,2.858,12.982,5.722,21.104,5.722c8.733,0,13.353-3.944,13.353-9.94
			c0-5.717-3.986-8.986-14.101-12.931c-13.985-5.305-23.098-13.742-23.098-27.084c0-15.652,11.986-27.628,31.835-27.628
			c9.498,0,16.49,2.178,21.479,4.625l-4.24,16.737c-3.375-1.761-9.365-4.355-17.603-4.355c-8.242,0-12.24,4.087-12.24,8.849
			c0,5.854,4.746,8.438,15.615,12.931c14.85,5.99,21.843,14.428,21.843,27.358C381.28,485.621,370.417,498.688,347.319,498.688z
			 M414.745,498.688c-9.618,0-19.101-2.722-23.847-5.579l3.871-17.149c5.115,2.858,12.983,5.722,21.104,5.722
			c8.732,0,13.353-3.944,13.353-9.94c0-5.717-3.992-8.986-14.106-12.931c-13.975-5.305-23.093-13.742-23.093-27.084
			c0-15.652,11.992-27.628,31.836-27.628c9.492,0,16.474,2.178,21.479,4.625l-4.25,16.737c-3.365-1.761-9.355-4.355-17.608-4.355
			c-8.231,0-12.224,4.087-12.224,8.849c0,5.854,4.735,8.438,15.599,12.931c14.86,5.99,21.843,14.428,21.843,27.358
			C448.695,485.621,437.843,498.688,414.745,498.688z M97.2,366.747V21.601h250.203v110.51c0,5.962,4.831,10.8,10.8,10.8H453.6
			l0.011,223.837H97.2z"/>
		<path d="M257.586,226.985c0,0-11.731-22.604-11.298-39.124c0.319-11.799,26.937-23.47,37.392-40.408
			c10.42-16.952-1.309-33.46-1.309-33.46s2.616,12.173-4.334,24.764c-6.961,12.606-32.625,20.002-42.612,41.721
			C225.46,202.208,257.586,226.985,257.586,226.985z"/>
		<path d="M301.504,158.317c0,0-39.981,15.211-39.981,32.584c0,17.395,10.864,23.037,12.604,28.685
			c1.737,5.659-3.041,15.217-3.041,15.217s15.642-10.866,13.025-23.48c-2.615-12.598-14.786-16.516-7.814-29.109
			C280.947,173.778,301.504,158.317,301.504,158.317z"/>
		<path d="M253.26,249.951c41.251-1.474,46.113-9.239,50.416-12.973c-23.898,6.507-87.352,6.088-87.805,1.308
			c-0.422-4.778,19.554-8.693,19.554-8.693s-31.282,0-33.887,7.823C198.925,245.231,216.346,251.24,253.26,249.951z"/>
		<path d="M309.751,230.468c0,0,17.824,0,19.554,10.853c1.74,10.866-22.597,26.939-22.597,26.939s38.322-7.709,34.747-27.351
			C337.12,217.005,309.751,230.468,309.751,230.468z"/>
		<path d="M266.279,261.75c-18.101,2.036-39.97,0.43-41.726-2.621c-1.706-3.04,3.056-4.772,3.056-4.772
			c-21.745,5.221-9.858,14.331,15.623,16.087c21.832,1.49,46.249-6.523,46.249-6.523l7.509-6.075
			C296.989,257.84,279.777,260.226,266.279,261.75z"/>
		<path d="M232.833,276.835c0,0-9.861,0.274-10.434,5.489c-0.567,5.184,3.056,7.82,27.443,7.246
			c29.028-0.691,33.864-4.15,36.848-6.66l7.093-5.326c-18.977,2.457-20.45,3.132-31.187,3.438
			c-10.821,0.316-29.763,1.002-30.628-1.012C231.093,277.974,232.833,276.835,232.833,276.835z"/>
		<path d="M327.564,300.291c3.766-4.061-1.17-7.246-1.17-7.246s1.74,2.025-0.554,4.335c-2.331,2.315-23.488,8.101-57.386,9.841
			c-33.896,1.75-70.696-3.175-71.856-7.525c-1.128-4.34,18.834-7.811,18.834-7.811c-2.312,0.285-30.122,0.865-31.008,8.406
			c-0.852,7.525,12.174,13.61,64.336,13.61C300.913,313.896,323.811,304.33,327.564,300.291z"/>
		<path d="M307.283,317.377c-22.887,4.63-92.401,1.714-92.401,1.714s45.183,10.721,96.757,1.745
			c24.648-4.292,26.083-16.227,26.083-16.227S330.181,312.73,307.283,317.377z"/>
	</g>
</g>
<g>
</g>
<g>
</g>
<g>
</g>
<g>
</g>
<g>
</g>
<g>
</g>
<g>
</g>
<g>
</g>
<g>
</g>
<g>
</g>
<g>
</g>
<g>
</g>
<g>
</g>
<g>
</g>
<g>
</g>
</svg>
