<?xml version="1.0" encoding="iso-8859-1"?>
<!-- Generator: Adobe Illustrator 16.0.0, SVG Export Plug-In . SVG Version: 6.00 Build 0)  -->
<!DOCTYPE svg PUBLIC "-//W3C//DTD SVG 1.1//EN" "http://www.w3.org/Graphics/SVG/1.1/DTD/svg11.dtd">
<svg version="1.1" id="Capa_1" xmlns="http://www.w3.org/2000/svg" xmlns:xlink="http://www.w3.org/1999/xlink" x="0px" y="0px"
	 width="550.801px" height="550.801px" viewBox="0 0 550.801 550.801" style="enable-background:new 0 0 550.801 550.801;"
	 xml:space="preserve">
<g>
	<g>
		<g>
			<path d="M475.095,131.997c-0.031-2.526-0.833-5.021-2.568-6.992L366.319,3.694c-0.021-0.034-0.053-0.045-0.089-0.076
				c-0.628-0.707-1.361-1.29-2.136-1.804c-0.232-0.15-0.465-0.287-0.707-0.422c-0.686-0.366-1.393-0.67-2.136-0.892
				c-0.2-0.058-0.374-0.14-0.575-0.192C359.87,0.119,359.037,0,358.198,0H97.2c-11.907,0-21.6,9.693-21.6,21.601v507.6
				c0,11.913,9.692,21.601,21.6,21.601h356.4c11.918,0,21.6-9.688,21.6-21.601V133.207
				C475.2,132.796,475.137,132.398,475.095,131.997z M97.2,21.605h250.204v110.516c0,5.962,4.83,10.8,10.8,10.8h95.396
				l0.011,223.837H97.2V21.605z M170.543,493.262c7.823,0,16.508-1.692,21.6-3.738l3.915,20.239
				c-4.759,2.384-15.482,4.936-29.415,4.936c-39.635,0-60.054-24.658-60.054-57.322c0-39.123,27.896-60.893,62.598-60.893
				c13.434,0,23.646,2.727,28.242,5.1l-5.286,20.588c-5.266-2.215-12.583-4.251-21.769-4.251c-20.59,0-36.574,12.414-36.574,37.927
				C133.795,478.812,147.409,493.262,170.543,493.262z M256.604,514.867c-34.017,0-53.913-25.682-53.913-58.34
				c0-34.362,21.94-60.049,55.79-60.049c35.208,0,54.425,26.362,54.425,58.003C312.905,492.081,290.113,514.867,256.604,514.867z
				 M428.562,513.006l-1.698-43.886c-0.517-13.79-1.023-30.454-1.023-47.118h-0.506c-3.575,14.618-8.343,30.95-12.762,44.381
				l-13.943,44.74h-20.25l-12.234-44.392c-3.744-13.437-7.657-29.769-10.378-44.729h-0.348c-0.676,15.482-1.192,33.165-2.036,47.45
				L351.349,513H327.37l7.314-114.645h34.53l11.222,38.265c3.575,13.268,7.151,27.564,9.703,40.995h0.496
				c3.237-13.268,7.15-28.402,10.895-41.153l12.25-38.106h33.861L453.928,513h-25.365V513.006z"/>
			<path d="M257.784,417.066c-17.505,0-27.706,16.664-27.706,38.949c0,22.454,10.536,38.274,27.886,38.274
				c17.529,0,27.562-16.675,27.562-38.96C285.525,434.748,275.659,417.066,257.784,417.066z"/>
		</g>
		<g>
			<path d="M155.277,121.948v201.388h224.342V121.948H155.277z M369.869,313.58H165.035V156.735h204.834V313.58z"/>
			<rect x="173.167" y="170.715" width="69.082" height="129.238"/>
			<polygon points="288.12,199.312 263.741,188.639 263.741,188.502 288.12,177.829 288.12,170.715 255.894,185.684 
				255.894,191.458 288.12,206.427 			"/>
			<polygon points="341.698,185.485 309.478,170.715 309.478,177.829 334.384,188.502 334.384,188.639 309.478,199.312 
				309.478,206.427 341.698,191.655 			"/>
		</g>
	</g>
</g>
<g>
</g>
<g>
</g>
<g>
</g>
<g>
</g>
<g>
</g>
<g>
</g>
<g>
</g>
<g>
</g>
<g>
</g>
<g>
</g>
<g>
</g>
<g>
</g>
<g>
</g>
<g>
</g>
<g>
</g>
</svg>
