<?xml version="1.0" encoding="iso-8859-1"?>
<!-- Generator: Adobe Illustrator 16.0.0, SVG Export Plug-In . SVG Version: 6.00 Build 0)  -->
<!DOCTYPE svg PUBLIC "-//W3C//DTD SVG 1.1//EN" "http://www.w3.org/Graphics/SVG/1.1/DTD/svg11.dtd">
<svg version="1.1" id="Capa_1" xmlns="http://www.w3.org/2000/svg" xmlns:xlink="http://www.w3.org/1999/xlink" x="0px" y="0px"
	 width="550.801px" height="550.801px" viewBox="0 0 550.801 550.801" style="enable-background:new 0 0 550.801 550.801;"
	 xml:space="preserve">
<g>
	<g>
		<g>
			<path d="M261.415,414.535c-6.769,0-10.612,0.554-12.622,0.917v34.024h10.979c13.901,0,22.136-6.95,22.136-17.745
				C281.902,420.389,274.217,414.72,261.415,414.535z"/>
			<path d="M475.095,131.992c-0.031-2.526-0.828-5.021-2.562-6.993L366.325,3.694c-0.021-0.031-0.053-0.045-0.085-0.076
				c-0.633-0.707-1.36-1.29-2.141-1.804c-0.232-0.15-0.464-0.285-0.707-0.422c-0.686-0.366-1.392-0.67-2.13-0.892
				c-0.2-0.058-0.38-0.14-0.58-0.192C359.87,0.119,359.048,0,358.204,0H97.2c-11.907,0-21.6,9.693-21.6,21.601v507.6
				c0,11.913,9.692,21.601,21.6,21.601h356.4c11.918,0,21.6-9.688,21.6-21.601V133.202
				C475.2,132.796,475.137,132.398,475.095,131.992z M175.429,496.848c8.414,0,17.745-1.83,23.232-4.023l4.206,21.769
				c-5.118,2.563-16.648,5.306-31.644,5.306c-42.623,0-64.573-26.525-64.573-61.646c0-42.072,30.003-65.486,67.315-65.486
				c14.452,0,25.423,2.922,30.364,5.49l-5.669,22.133c-5.671-2.373-13.539-4.572-23.414-4.572c-22.135,0-39.329,13.357-39.329,40.79
				C135.918,481.302,150.552,496.848,175.429,496.848z M285.747,518.062c-2.015-3.475-4.941-13.531-8.599-28.714
				c-3.288-15.372-8.596-19.569-19.936-19.754h-8.419v48.479h-27.619V396.426c8.965-1.466,22.317-2.562,37.13-2.562
				c18.288,0,31.098,2.742,39.878,9.692c7.319,5.854,11.338,14.454,11.338,25.792c0,15.73-11.153,26.521-21.764,30.364v0.554
				c8.596,3.476,13.353,11.707,16.464,23.045c3.839,13.906,7.684,30.006,10.057,34.763h-28.529V518.062z M396.062,518.062
				l-11.153-22.316c-4.577-8.596-7.498-14.998-10.974-22.133h-0.369c-2.558,7.135-5.669,13.537-9.514,22.133l-10.246,22.316H321.98
				l35.664-62.374l-34.383-60.908h32.01l10.795,22.497c3.66,7.498,6.407,13.536,9.329,20.481h0.369
				c2.927-7.857,5.305-13.353,8.416-20.481l10.421-22.497h31.83l-34.752,60.181l36.587,63.112h-32.205V518.062z M97.2,366.752
				V21.601h250.204v110.515c0,5.961,4.83,10.8,10.8,10.8h95.396l0.011,223.836H97.2z"/>
		</g>
		<g>
			<path d="M214.326,175.187c11.609-27.562,36.511-41.942,66.34-41.022c33.811,1.031,67.682,0.219,101.521,0.108
				c-22.012-35.933-61.646-59.964-106.782-59.964c-39.999,0-75.642,18.884-98.566,48.175c10.773,19.883,22.259,39.398,34.24,60.241
				C212.694,178.968,213.527,177.082,214.326,175.187z"/>
			<path d="M285.811,264.104c-31.644,3.32-54.501-8.819-70.092-36.655c-15.892-28.377-32.149-56.539-48.307-84.76
				c-0.535-0.933-1.184-1.809-2.009-2.855c-9.65,17.735-15.135,38.048-15.135,59.611c0,63.146,47.015,115.491,107.881,123.923
				c11.868-19.248,22.91-39.023,34.781-59.653C289.344,263.904,287.566,263.915,285.811,264.104z"/>
			<path d="M384.809,151.567c-14.961,0.983-30.017,0.261-45.035,0.261c-5.4,0-10.8,0-17.725,0
				c23.921,30.19,24.068,58.772,5.348,89.213c-16.77,27.27-31.915,55.543-47.672,83.434c67.004-2.288,120.819-57.478,120.819-125.03
				c0-16.762-3.338-32.756-9.339-47.385C389.423,151.572,387.334,151.4,384.809,151.567z"/>
			<path d="M275.039,152.21c-25.634,0.217-47.079,21.993-46.868,47.601c0.211,25.629,21.99,47.071,47.601,46.863
				c25.647-0.211,47.073-21.969,46.862-47.595C322.424,173.433,300.655,151.994,275.039,152.21z"/>
		</g>
	</g>
</g>
<g>
</g>
<g>
</g>
<g>
</g>
<g>
</g>
<g>
</g>
<g>
</g>
<g>
</g>
<g>
</g>
<g>
</g>
<g>
</g>
<g>
</g>
<g>
</g>
<g>
</g>
<g>
</g>
<g>
</g>
</svg>
