<?xml version="1.0" encoding="iso-8859-1"?>
<!-- Generator: Adobe Illustrator 16.0.0, SVG Export Plug-In . SVG Version: 6.00 Build 0)  -->
<!DOCTYPE svg PUBLIC "-//W3C//DTD SVG 1.1//EN" "http://www.w3.org/Graphics/SVG/1.1/DTD/svg11.dtd">
<svg version="1.1" id="Capa_1" xmlns="http://www.w3.org/2000/svg" xmlns:xlink="http://www.w3.org/1999/xlink" x="0px" y="0px"
	 width="548.29px" height="548.291px" viewBox="0 0 548.29 548.291" style="enable-background:new 0 0 548.29 548.291;"
	 xml:space="preserve">
<g>
	<g>
		<g>
			<path d="M472.929,131.399c-0.031-2.518-0.828-5-2.556-6.964L364.65,3.677c-0.021-0.031-0.052-0.042-0.089-0.073
				c-0.625-0.707-1.355-1.287-2.127-1.795c-0.23-0.152-0.462-0.286-0.703-0.421c-0.683-0.366-1.387-0.666-2.127-0.887
				c-0.199-0.06-0.371-0.139-0.571-0.194C358.23,0.118,357.4,0,356.566,0H96.757C84.904,0,75.255,9.651,75.255,21.502V526.79
				c0,11.858,9.649,21.501,21.502,21.501h354.776c11.862,0,21.502-9.643,21.502-21.501V132.603
				C473.035,132.199,472.973,131.795,472.929,131.399z M193.924,490.208c7.598,0,16.029-1.654,20.974-3.639l3.801,19.653
				c-4.617,2.32-15.037,4.787-28.565,4.787c-38.489,0-58.324-23.941-58.324-55.654c0-37.994,27.097-59.14,60.791-59.14
				c13.061,0,22.958,2.641,27.426,4.956l-5.124,19.989c-5.113-2.147-12.218-4.132-21.136-4.132
				c-19.99,0-35.516,12.053-35.516,36.835C158.246,476.164,171.454,490.208,193.924,490.208z M262.46,511.009
				c-12.714,0-25.271-3.296-31.549-6.771l5.124-20.819c6.771,3.475,17.173,6.938,27.914,6.938c11.556,0,17.671-4.786,17.671-12.052
				c0-6.939-5.282-10.904-18.66-15.686c-18.507-6.446-30.565-16.688-30.565-32.872c0-18.997,15.854-33.533,42.122-33.533
				c12.554,0,21.797,2.641,28.407,5.616l-5.617,20.311c-4.462-2.147-12.388-5.274-23.283-5.274
				c-10.908,0-16.191,4.955-16.191,10.729c0,7.103,6.278,10.242,20.653,15.695c19.651,7.271,28.9,17.514,28.9,33.209
				C307.394,495.157,293.017,511.009,262.46,511.009z M382.704,509.36c-1.817-3.127-4.464-12.214-7.771-25.931
				c-2.971-13.869-7.759-17.669-18.006-17.832h-7.589v43.775h-24.946V399.518c8.095-1.324,20.142-2.316,33.527-2.316
				c16.51,0,28.09,2.478,36.006,8.757c6.609,5.279,10.236,13.05,10.236,23.286c0,14.211-10.078,23.948-19.653,27.424v0.504
				c7.758,3.139,12.053,10.571,14.87,20.809c3.472,12.557,6.941,27.086,9.077,31.379H382.704z M96.757,365.085V21.507H345.82
				v110.015c0,5.935,4.809,10.75,10.751,10.75h94.962l0.01,222.813H96.757z"/>
			<path d="M360.729,415.874c-6.115,0-9.574,0.493-11.39,0.815v30.734h9.91c12.546,0,19.979-6.284,19.979-16.025
				C379.222,421.15,372.293,416.027,360.729,415.874z"/>
		</g>
		<g>
			<path d="M233.281,155.459c-31.042-10.667-71.214,5.884-58.059,44.362c6.654,19.475,28.849,31.914,44.42,43.347
				c31.066,22.817-25.123,33.328-42.751,30.77c2.898-2.882,5.795-5.764,8.693-8.641c4.617,1.948,9.089,4.189,13.417,6.73
				c4.536,2.517,8.956,5.027,13.66,7.216c5.89,2.74,15.706,5.233,22.097,2.618c8.879-3.622,15.17-8.44,21.819-15.44
				c6.155-6.484,13.858-26.468,22.824-15.708c4.118,4.936,11.776,5.633,17.494,4.063c4.614-1.267,8.666-4.503,12.478-7.201
				c7.501-5.315,12.672-3.047,22.11-2.812c26.655,0.672,46.343-9.008,66.62-25.656c8.042-6.606-3.438-17.943-11.401-11.402
				c-17.952,14.74-36.86,24.518-60.804,19.654c-12.726-2.583-19.947,2.956-29.906,10.003c-3.769,2.667-16.326-8.725-21.854-8.725
				c-9.354,0-16.756,10.828-21.732,17.062c-10.643,13.32-22.813,24.701-40.381,15.186c-8.977-4.864-18.783-11.847-29.268-12.842
				c-17.24-1.623-28.62,12.037-26.35,28.79c4.417,32.515,76.938,4.62,87.715-6.788c14.88-15.735-4.317-32.302-16.347-40.807
				c-14.89-10.52-37.021-22.963-39.311-43.04c-2.722-23.784,29.187-19.091,40.526-15.196
				C238.855,174.396,243.052,158.819,233.281,155.459L233.281,155.459z"/>
		</g>
	</g>
</g>
<g>
</g>
<g>
</g>
<g>
</g>
<g>
</g>
<g>
</g>
<g>
</g>
<g>
</g>
<g>
</g>
<g>
</g>
<g>
</g>
<g>
</g>
<g>
</g>
<g>
</g>
<g>
</g>
<g>
</g>
</svg>
