<?xml version="1.0" encoding="iso-8859-1"?>
<!-- Generator: Adobe Illustrator 16.0.0, SVG Export Plug-In . SVG Version: 6.00 Build 0)  -->
<!DOCTYPE svg PUBLIC "-//W3C//DTD SVG 1.1//EN" "http://www.w3.org/Graphics/SVG/1.1/DTD/svg11.dtd">
<svg version="1.1" id="Capa_1" xmlns="http://www.w3.org/2000/svg" xmlns:xlink="http://www.w3.org/1999/xlink" x="0px" y="0px"
	 width="550.801px" height="550.801px" viewBox="0 0 550.801 550.801" style="enable-background:new 0 0 550.801 550.801;"
	 xml:space="preserve">
<g>
	<g>
		<path d="M475.084,131.992c-0.021-2.531-0.828-5.021-2.562-6.993L366.324,3.694c-0.031-0.031-0.062-0.045-0.084-0.076
			c-0.633-0.707-1.371-1.295-2.151-1.804c-0.232-0.155-0.464-0.285-0.707-0.422c-0.675-0.366-1.392-0.675-2.13-0.896
			c-0.201-0.053-0.38-0.135-0.58-0.188C359.87,0.119,359.037,0,358.193,0H97.2C85.282,0,75.6,9.693,75.6,21.601v507.6
			c0,11.907,9.682,21.601,21.6,21.601H453.6c11.908,0,21.601-9.693,21.601-21.601V133.197
			C475.2,132.796,475.137,132.398,475.084,131.992z M188.81,502.242c8.938,0,18.853-1.94,24.685-4.281l4.464,23.14
			c-5.442,2.721-17.685,5.632-33.623,5.632c-45.291,0-68.618-28.182-68.618-65.507c0-44.708,31.88-69.588,71.531-69.588
			c15.354,0,27.019,3.111,32.271,5.832l-6.025,23.515c-6.027-2.521-14.381-4.847-24.877-4.847
			c-23.517,0-41.792,14.186-41.792,43.332C146.82,485.716,162.372,502.242,188.81,502.242z M269.48,526.732
			c-14.963,0-29.737-3.892-37.125-7.974l6.027-24.489c7.971,4.081,20.213,8.163,32.849,8.163c13.608,0,20.801-5.632,20.801-14.186
			c0-8.163-6.223-12.825-21.961-18.468c-21.769-7.583-35.96-19.628-35.96-38.676c0-22.359,18.658-39.466,49.573-39.466
			c14.761,0,25.65,3.111,33.429,6.612l-6.613,23.91c-5.252-2.531-14.576-6.223-27.411-6.223c-12.825,0-19.045,5.832-19.045,12.641
			c0,8.363,7.388,12.05,24.297,18.468c23.13,8.553,34.014,20.593,34.014,39.06C322.354,508.075,305.448,526.732,269.48,526.732z
			 M374.467,526.732c-14.966,0-29.742-3.892-37.125-7.974l6.022-24.489c7.963,4.081,20.213,8.163,32.843,8.163
			c13.616,0,20.799-5.632,20.799-14.186c0-8.163-6.213-12.825-21.954-18.468c-21.769-7.583-35.965-19.628-35.965-38.676
			c0-22.359,18.663-39.466,49.576-39.466c14.766,0,25.649,3.111,33.428,6.612l-6.618,23.91c-5.247-2.531-14.57-6.223-27.4-6.223
			c-12.836,0-19.048,5.832-19.048,12.641c0,8.363,7.389,12.05,24.295,18.468c23.129,8.553,34.019,20.593,34.019,39.06
			C427.338,508.075,410.421,526.732,374.467,526.732z M453.6,366.747H97.2V21.601h250.192v110.51c0,5.97,4.842,10.8,10.801,10.8
			H453.6V366.747z"/>
		<path d="M200.852,155.071c0,6.615,0.952,12.973,1.896,19.575c0.946,6.584,1.885,13.184,1.885,19.786
			c0,8.259-2.354,17.442-19.09,17.442V223.9c16.741,0,19.09,10.135,19.09,17.442c0,6.384-0.938,12.728-1.885,19.101
			c-0.944,6.373-1.896,12.949-1.896,19.324c0,23.799,14.618,32.3,34.188,32.3h4.951V299.1h-4.237
			c-13.205,0-18.631-7.314-18.631-20.509c0-5.653,0.712-11.085,1.653-16.986c0.944-5.645,1.65-11.53,1.65-17.898
			c0.246-15.093-6.365-23.105-16.978-25.703v-0.453c10.613-2.845,17.215-10.389,16.978-25.471c0-6.362-0.706-12.029-1.65-17.909
			c-0.941-5.664-1.653-11.328-1.653-16.738c0-12.73,4.709-20.273,18.631-20.273h4.237v-12.971h-4.951
			C215.006,124.189,200.852,133.387,200.852,155.071z"/>
		<path d="M337.162,194.432c0-6.602,0.949-13.202,1.894-19.786c0.944-6.602,1.894-12.959,1.894-19.575
			c0-21.685-14.387-30.882-34.426-30.882h-4.714v12.971h4.239c13.68,0.231,18.626,7.538,18.626,20.273
			c0,5.41-0.949,11.074-1.646,16.738c-0.959,5.888-1.903,11.551-1.903,17.909c0,15.082,6.607,22.618,16.985,25.471v0.453
			c-10.378,2.592-16.985,10.61-16.985,25.703c0,6.373,0.944,12.258,1.903,17.898c0.696,5.906,1.646,11.338,1.646,16.986
			c0,13.194-5.663,20.276-18.857,20.509h-4.008v12.967h4.946c19.332,0,34.183-8.501,34.183-32.3c0-6.375-0.944-12.951-1.888-19.324
			c-0.939-6.373-1.889-12.717-1.889-19.101c0-7.312,2.363-17.442,19.101-17.442v-12.026
			C339.525,211.874,337.162,202.69,337.162,194.432z"/>
	</g>
</g>
<g>
</g>
<g>
</g>
<g>
</g>
<g>
</g>
<g>
</g>
<g>
</g>
<g>
</g>
<g>
</g>
<g>
</g>
<g>
</g>
<g>
</g>
<g>
</g>
<g>
</g>
<g>
</g>
<g>
</g>
</svg>
