<?xml version="1.0" encoding="iso-8859-1"?>
<!-- Generator: Adobe Illustrator 16.0.0, SVG Export Plug-In . SVG Version: 6.00 Build 0)  -->
<!DOCTYPE svg PUBLIC "-//W3C//DTD SVG 1.1//EN" "http://www.w3.org/Graphics/SVG/1.1/DTD/svg11.dtd">
<svg version="1.1" id="Capa_1" xmlns="http://www.w3.org/2000/svg" xmlns:xlink="http://www.w3.org/1999/xlink" x="0px" y="0px"
	 width="550.801px" height="550.801px" viewBox="0 0 550.801 550.801" style="enable-background:new 0 0 550.801 550.801;"
	 xml:space="preserve">
<g>
	<g>
		<path d="M475.095,131.992c-0.032-2.526-0.833-5.021-2.568-6.993L366.324,3.694c-0.021-0.031-0.053-0.042-0.084-0.076
			c-0.633-0.707-1.36-1.29-2.141-1.804c-0.232-0.15-0.465-0.285-0.707-0.422c-0.686-0.366-1.393-0.667-2.131-0.889
			c-0.2-0.061-0.379-0.143-0.58-0.195C359.87,0.119,359.047,0,358.203,0H97.2C85.292,0,75.6,9.693,75.6,21.601v507.6
			c0,11.913,9.692,21.601,21.6,21.601H453.6c11.918,0,21.601-9.688,21.601-21.601V133.202
			C475.2,132.796,475.137,132.398,475.095,131.992z M185.063,500.423c8.419,0,17.75-1.829,23.237-4.023l4.206,21.769
			c-5.125,2.563-16.643,5.306-31.638,5.306c-42.633,0-64.578-26.525-64.578-61.646c0-42.071,30.006-65.485,67.32-65.485
			c14.452,0,25.418,2.921,30.365,5.489l-5.674,22.133c-5.677-2.373-13.534-4.572-23.417-4.572c-22.138,0-39.326,13.357-39.326,40.79
			C145.558,484.877,160.196,500.423,185.063,500.423z M331.425,467.501c0,38.043-19.206,56.151-51.405,56.151
			c-31.095,0-49.391-17.196-49.391-56.525v-68.771h27.994v70.971c0,21.22,8.044,32.015,22.315,32.015
			c14.628,0,22.676-10.241,22.676-32.015v-70.971h27.812V467.501z M434.246,521.648h-78.658V398.355h76.096v22.86h-48.109v25.608
			h45.367v22.681h-45.367v29.268h50.678v22.876H434.246z M97.2,366.752V21.601h250.203v110.515c0,5.964,4.831,10.8,10.8,10.8H453.6
			l0.011,223.836H97.2z"/>
		<g>
			<path d="M340.527,175.851c-7.457-49.956-50.425-88.312-102.474-88.312c-57.288,0-103.75,46.446-103.75,103.729
				c0,57.312,46.462,103.771,103.75,103.771c11.886,0,23.258-2.1,33.884-5.77c-4.237-9.861-6.602-20.717-6.602-32.104
				C265.341,214.315,298.529,179.157,340.527,175.851z M269.304,100.214l-22.552,45.998c-4.39-1.69-8.698-0.789-8.698-0.789
				l-13.036-48.305C225.018,97.113,242.304,89.358,269.304,100.214z M238.054,232.098c-22.549,0-40.83-18.272-40.83-40.835
				c0-22.533,18.281-40.812,40.83-40.812c22.549,0,40.816,18.278,40.816,40.812C278.87,213.83,260.603,232.098,238.054,232.098z"/>
			<path d="M238.054,156.157c-19.364,0-35.111,15.763-35.111,35.132c0,19.361,15.747,35.113,35.111,35.113
				c19.375,0,35.132-15.752,35.132-35.113C273.186,171.92,257.428,156.157,238.054,156.157z M238.054,224.225
				c-18.159,0-32.94-14.779-32.94-32.941c0-18.175,14.776-32.959,32.94-32.959c18.172,0,32.951,14.779,32.951,32.959
				C271.005,209.445,256.226,224.225,238.054,224.225z"/>
			<path d="M238.054,174.999c-8.965,0-16.266,7.302-16.266,16.269c0,8.976,7.301,16.277,16.266,16.277
				c8.975,0,16.276-7.301,16.276-16.277C254.33,182.301,247.029,174.999,238.054,174.999z M238.054,205.369
				c-7.771,0-14.088-6.325-14.088-14.102c0-7.77,6.317-14.093,14.088-14.093s14.099,6.323,14.099,14.093
				C252.152,199.044,245.824,205.369,238.054,205.369z"/>
			<path d="M342.984,187.355c-38.549,0-69.799,31.248-69.799,69.804c0,38.555,31.25,69.805,69.799,69.805s69.81-31.25,69.81-69.805
				C412.794,218.603,381.533,187.355,342.984,187.355z M355.208,312.589h-24.595v-79.07h24.595V312.589z M342.742,223.815
				c-7.763,0-12.931-5.503-12.762-12.282c-0.164-7.122,5.004-12.445,12.936-12.445c7.926,0,12.936,5.318,13.089,12.445
				C355.999,218.318,350.831,223.815,342.742,223.815z"/>
		</g>
	</g>
</g>
<g>
</g>
<g>
</g>
<g>
</g>
<g>
</g>
<g>
</g>
<g>
</g>
<g>
</g>
<g>
</g>
<g>
</g>
<g>
</g>
<g>
</g>
<g>
</g>
<g>
</g>
<g>
</g>
<g>
</g>
</svg>
