<?xml version="1.0" encoding="iso-8859-1"?>
<!-- Generator: Adobe Illustrator 16.0.0, SVG Export Plug-In . SVG Version: 6.00 Build 0)  -->
<!DOCTYPE svg PUBLIC "-//W3C//DTD SVG 1.1//EN" "http://www.w3.org/Graphics/SVG/1.1/DTD/svg11.dtd">
<svg version="1.1" id="Capa_1" xmlns="http://www.w3.org/2000/svg" xmlns:xlink="http://www.w3.org/1999/xlink" x="0px" y="0px"
	 width="548.29px" height="548.291px" viewBox="0 0 548.29 548.291" style="enable-background:new 0 0 548.29 548.291;"
	 xml:space="preserve">
<g>
	<g>
		<g>
			<path d="M472.929,131.39c-0.031-2.514-0.828-4.997-2.556-6.96L364.65,3.677c-0.021-0.031-0.052-0.044-0.089-0.075
				c-0.625-0.704-1.355-1.284-2.127-1.796c-0.23-0.149-0.462-0.283-0.703-0.419c-0.683-0.365-1.387-0.667-2.127-0.888
				c-0.199-0.058-0.371-0.139-0.571-0.191C358.23,0.118,357.4,0,356.566,0H96.757C84.904,0,75.255,9.649,75.255,21.502V526.79
				c0,11.858,9.649,21.501,21.502,21.501h354.776c11.862,0,21.502-9.643,21.502-21.501V132.595
				C473.035,132.191,472.973,131.795,472.929,131.39z M177.167,500.237c8.381,0,17.659-1.815,23.129-3.999l4.189,21.669
				c-5.103,2.552-16.578,5.276-31.504,5.276c-42.429,0-64.274-26.405-64.274-61.365c0-41.881,29.859-65.188,67.003-65.188
				c14.395,0,25.313,2.913,30.227,5.464l-5.641,22.037c-5.648-2.368-13.48-4.557-23.307-4.557c-22.038,0-39.147,13.293-39.147,40.61
				C137.836,484.762,152.398,500.237,177.167,500.237z M322.85,467.46c0,37.88-19.123,55.907-51.167,55.907
				c-30.964,0-49.164-17.124-49.164-56.275v-68.457h27.866v70.646c0,21.129,8.008,31.869,22.205,31.869
				c14.572,0,22.584-10.193,22.584-31.869v-70.646h27.675V467.46z M411.187,521.363c-2.007-3.467-4.913-13.482-8.557-28.59
				c-3.276-15.298-8.557-19.484-19.854-19.664h-8.378v48.257h-27.485V400.274c8.913-1.455,22.204-2.553,36.955-2.553
				c18.215,0,30.96,2.736,39.696,9.655c7.286,5.825,11.296,14.382,11.296,25.668c0,15.665-11.102,26.405-21.663,30.228v0.551
				c8.557,3.459,13.291,11.653,16.389,22.944c3.82,13.839,7.643,29.859,10.009,34.599h-28.408V521.363z M96.757,365.081V21.502
				H345.82v110.011c0,5.935,4.809,10.751,10.751,10.751h94.962l0.01,222.816H96.757z"/>
			<path d="M386.966,418.294c-6.741,0-10.562,0.55-12.567,0.913v33.869h10.929c13.833,0,22.037-6.918,22.037-17.659
				C407.364,424.122,399.711,418.483,386.966,418.294z"/>
		</g>
		<polygon points="270.345,202.633 337.694,185.743 192.031,141.136 236.63,286.796 253.525,219.453 339.437,305.379 
			356.268,288.56 		"/>
	</g>
</g>
<g>
</g>
<g>
</g>
<g>
</g>
<g>
</g>
<g>
</g>
<g>
</g>
<g>
</g>
<g>
</g>
<g>
</g>
<g>
</g>
<g>
</g>
<g>
</g>
<g>
</g>
<g>
</g>
<g>
</g>
</svg>
