<?xml version="1.0" encoding="iso-8859-1"?>
<!-- Generator: Adobe Illustrator 16.0.0, SVG Export Plug-In . SVG Version: 6.00 Build 0)  -->
<!DOCTYPE svg PUBLIC "-//W3C//DTD SVG 1.1//EN" "http://www.w3.org/Graphics/SVG/1.1/DTD/svg11.dtd">
<svg version="1.1" id="Capa_1" xmlns="http://www.w3.org/2000/svg" xmlns:xlink="http://www.w3.org/1999/xlink" x="0px" y="0px"
	 width="550.801px" height="550.801px" viewBox="0 0 550.801 550.801" style="enable-background:new 0 0 550.801 550.801;"
	 xml:space="preserve">
<g>
	<g>
		<path d="M165.525,415.674c-5.999,0-9.88,0.538-12.171,1.06v77.8c2.296,0.527,5.998,0.527,9.347,0.527
			c24.351,0.179,40.226-13.227,40.226-41.634C203.099,428.73,188.639,415.674,165.525,415.674z"/>
		<path d="M290.809,416.027h-0.353c-1.767,7.061-3.528,16.058-5.469,22.934l-7.062,25.229h26.288l-7.409-25.229
			C294.68,431.905,292.57,423.088,290.809,416.027z"/>
		<path d="M475.095,131.992c-0.032-2.526-0.833-5.021-2.568-6.993L366.324,3.694c-0.021-0.034-0.053-0.045-0.084-0.076
			c-0.633-0.707-1.36-1.29-2.141-1.804c-0.232-0.15-0.465-0.285-0.707-0.422c-0.686-0.366-1.393-0.67-2.131-0.892
			c-0.2-0.058-0.379-0.14-0.58-0.192C359.87,0.114,359.047,0,358.203,0H97.2C85.292,0,75.6,9.693,75.6,21.601v507.6
			c0,11.913,9.692,21.601,21.6,21.601H453.6c11.918,0,21.601-9.688,21.601-21.601V133.202
			C475.2,132.796,475.137,132.398,475.095,131.992z M211.744,500.713c-12.521,10.399-31.58,15.346-54.865,15.346
			c-13.935,0-23.817-0.886-30.52-1.761V397.502c9.883-1.582,22.755-2.469,36.337-2.469c22.583,0,37.228,4.061,48.692,12.704
			c12.35,9.176,20.11,23.814,20.11,44.809C231.504,475.306,223.209,491.005,211.744,500.713z M317.266,514.819l-9.17-30.517h-34.051
			l-8.467,30.517h-27.875l36.342-118.899h35.284l36.872,118.899H317.266z M429.838,418.5H397.38v96.319h-26.995V418.5h-31.931
			v-22.58h91.384V418.5z M97.2,366.752V21.601h250.203v110.515c0,5.961,4.831,10.8,10.8,10.8H453.6l0.011,223.836H97.2z"/>
		<path d="M298.097,229.145c2.848-6.874,8.459-12.361,15.409-15.077c0.617-0.256,1.065-0.864,1.065-1.561v-20.98
			c0-0.686-0.448-1.34-1.065-1.598c-6.95-2.711-12.562-8.203-15.409-15.066c-2.826-6.874-2.763-14.736,0.227-21.545
			c0.274-0.617,0.122-1.395-0.343-1.885l-14.839-14.834c-0.817-0.804-1.445-0.556-1.904-0.367
			c-6.75,2.979-14.673,3.099-21.523,0.232c-6.892-2.835-12.376-8.456-15.09-15.396c-0.248-0.625-0.873-1.062-1.563-1.062h-20.975
			c-0.691,0-1.345,0.438-1.582,1.062c-2.695,6.935-8.208,12.556-15.061,15.396c-6.863,2.866-14.763,2.771-21.568-0.232
			c-0.43-0.166-1.041-0.438-1.872,0.367l-14.85,14.834c-0.475,0.49-0.628,1.263-0.356,1.901c3.017,6.811,3.067,14.655,0.227,21.529
			c-2.842,6.863-8.445,12.355-15.38,15.066c-0.654,0.258-1.102,0.87-1.102,1.598v20.98c0,0.696,0.448,1.305,1.102,1.561
			c6.929,2.716,12.532,8.203,15.38,15.077c2.84,6.868,2.79,14.736-0.227,21.565c-0.271,0.612-0.118,1.363,0.356,1.859l14.85,14.855
			c0.831,0.809,1.424,0.545,1.872,0.34c3.497-1.529,7.198-2.32,11.04-2.32c3.623,0,7.153,0.712,10.497,2.099
			c6.879,2.853,12.393,8.448,15.087,15.388c0.237,0.644,0.896,1.07,1.582,1.07h20.973c0.688,0,1.313-0.416,1.566-1.07
			c2.71-6.929,8.197-12.529,15.09-15.388c6.869-2.851,14.752-2.753,21.555,0.222c0.448,0.205,1.045,0.453,1.878-0.34l14.829-14.855
			c0.475-0.496,0.627-1.242,0.348-1.859C295.334,243.881,295.26,236.013,298.097,229.145z M232.562,242.805
			c-22.518,0-40.785-18.299-40.785-40.811c0-22.48,18.268-40.813,40.785-40.813c22.507,0,40.809,18.333,40.809,40.813
			C273.37,224.506,255.068,242.805,232.562,242.805z"/>
		<path d="M383.779,257.758c-3.49-1.36-6.307-4.121-7.741-7.56c-1.424-3.456-1.387-7.393,0.116-10.821
			c0.137-0.314,0.063-0.691-0.18-0.952l-7.445-7.441c-0.412-0.409-0.729-0.28-0.96-0.182c-3.386,1.495-7.367,1.553-10.8,0.113
			c-3.46-1.426-6.218-4.25-7.578-7.728c-0.121-0.324-0.443-0.541-0.786-0.541h-10.536c-0.343,0-0.675,0.216-0.791,0.541
			c-1.355,3.478-4.118,6.302-7.562,7.728c-3.448,1.44-7.414,1.393-10.82-0.113c-0.222-0.092-0.527-0.227-0.944,0.182l-7.457,7.441
			c-0.237,0.261-0.321,0.638-0.174,0.968c1.514,3.412,1.535,7.349,0.111,10.805c-1.43,3.446-4.24,6.199-7.716,7.56
			c-0.332,0.129-0.554,0.443-0.554,0.805v10.536c0,0.346,0.222,0.654,0.554,0.783c3.476,1.355,6.286,4.116,7.716,7.569
			c1.429,3.444,1.402,7.394-0.111,10.821c-0.137,0.312-0.063,0.686,0.174,0.944l7.457,7.457c0.422,0.4,0.723,0.269,0.944,0.158
			c1.75-0.766,3.606-1.16,5.537-1.16c1.819,0,3.596,0.348,5.273,1.055c3.454,1.424,6.217,4.239,7.572,7.72
			c0.116,0.327,0.448,0.538,0.791,0.538h10.536c0.343,0,0.665-0.211,0.786-0.538c1.36-3.48,4.118-6.296,7.578-7.72
			c3.448-1.435,7.403-1.393,10.82,0.105c0.222,0.11,0.527,0.231,0.939-0.158l7.445-7.457c0.243-0.259,0.316-0.633,0.18-0.944
			c-1.503-3.428-1.54-7.377-0.116-10.821c1.435-3.459,4.245-6.214,7.741-7.569c0.312-0.124,0.533-0.433,0.533-0.783v-10.536
			C384.307,258.222,384.086,257.893,383.779,257.758z M343.138,284.312c-11.307,0-20.478-9.191-20.478-20.495
			c0-11.291,9.171-20.493,20.478-20.493c11.301,0,20.481,9.202,20.481,20.493C363.625,275.121,354.438,284.312,343.138,284.312z"/>
	</g>
</g>
<g>
</g>
<g>
</g>
<g>
</g>
<g>
</g>
<g>
</g>
<g>
</g>
<g>
</g>
<g>
</g>
<g>
</g>
<g>
</g>
<g>
</g>
<g>
</g>
<g>
</g>
<g>
</g>
<g>
</g>
</svg>
