<?xml version="1.0" encoding="iso-8859-1"?>
<!-- Generator: Adobe Illustrator 16.0.0, SVG Export Plug-In . SVG Version: 6.00 Build 0)  -->
<!DOCTYPE svg PUBLIC "-//W3C//DTD SVG 1.1//EN" "http://www.w3.org/Graphics/SVG/1.1/DTD/svg11.dtd">
<svg version="1.1" id="Capa_1" xmlns="http://www.w3.org/2000/svg" xmlns:xlink="http://www.w3.org/1999/xlink" x="0px" y="0px"
	 width="550.801px" height="550.801px" viewBox="0 0 550.801 550.801" style="enable-background:new 0 0 550.801 550.801;"
	 xml:space="preserve">
<g>
	<g>
		<path d="M331.541,460.793h-10.104v36.936c2.91,0.391,6.412,0.391,11.464,0.391c13.41,0,25.271-5.053,25.271-18.858
			C358.172,466.046,346.317,460.793,331.541,460.793z"/>
		<path d="M355.061,423.479c0-9.914-7.583-15.166-20.988-15.166c-6.423,0-10.114,0.39-12.635,0.78v30.512h9.713
			C346.697,439.604,355.061,433.192,355.061,423.479z"/>
		<path d="M199.924,409.482c-6.605,0-10.887,0.58-13.402,1.16v85.726c2.521,0.58,6.605,0.58,10.304,0.58
			c26.821,0.2,44.305-14.576,44.305-45.868C241.331,423.869,225.397,409.482,199.924,409.482z"/>
		<path d="M475.095,131.986c-0.032-2.525-0.833-5.015-2.568-6.992L366.324,3.684c-0.021-0.029-0.053-0.045-0.084-0.071
			c-0.633-0.712-1.36-1.289-2.141-1.803c-0.232-0.15-0.465-0.29-0.707-0.422c-0.686-0.372-1.393-0.669-2.131-0.891
			c-0.2-0.058-0.379-0.145-0.58-0.188C359.87,0.114,359.047,0,358.203,0H97.2C85.292,0,75.6,9.688,75.6,21.601v507.6
			c0,11.907,9.692,21.601,21.6,21.601H453.6c11.918,0,21.601-9.693,21.601-21.601V133.197
			C475.2,132.791,475.137,132.393,475.095,131.986z M250.857,503.171c-13.809,11.464-34.792,16.906-60.455,16.906
			c-15.356,0-26.238-0.97-33.624-1.936V389.465c10.884-1.751,25.07-2.731,40.046-2.731c24.877,0,41.006,4.472,53.642,13.995
			c13.608,10.115,22.162,26.241,22.162,49.381C272.623,475.18,263.493,492.477,250.857,503.171z M375.669,508.223
			c-9.539,7.583-25.471,11.854-51.511,11.854c-14.586,0-25.471-0.976-32.073-1.94V389.465c7.773-1.561,23.52-2.731,38.285-2.731
			c18.077,0,29.162,1.751,38.687,7.394c9.133,4.856,15.746,13.795,15.746,25.66c0,11.654-6.803,22.539-21.579,27.98v0.391
			c14.966,4.082,26.051,15.356,26.051,32.273C389.274,492.286,383.832,501.609,375.669,508.223z M97.2,366.747V21.601h250.203
			v110.51c0,5.962,4.831,10.8,10.8,10.8H453.6l0.011,223.837H97.2z"/>
		<path d="M329.653,140.363H201.959c-2.876,0-5.21,2.331-5.21,5.205v37.626c0,2.874,2.334,5.208,5.21,5.208h127.688
			c2.88,0,5.216-2.333,5.216-5.208v-37.626C334.863,142.694,332.532,140.363,329.653,140.363z"/>
		<path d="M329.653,200.201H201.959c-2.876,0-5.21,2.331-5.21,5.21v37.621c0,2.879,2.334,5.213,5.21,5.213h127.688
			c2.88,0,5.216-2.334,5.216-5.213v-37.621C334.863,202.526,332.532,200.201,329.653,200.201z"/>
		<path d="M329.653,259.659H201.959c-2.876,0-5.21,2.333-5.21,5.205v37.631c0,2.869,2.334,5.2,5.21,5.2h127.688
			c2.88,0,5.216-2.331,5.216-5.2v-37.631C334.863,261.993,332.532,259.659,329.653,259.659z"/>
	</g>
</g>
<g>
</g>
<g>
</g>
<g>
</g>
<g>
</g>
<g>
</g>
<g>
</g>
<g>
</g>
<g>
</g>
<g>
</g>
<g>
</g>
<g>
</g>
<g>
</g>
<g>
</g>
<g>
</g>
<g>
</g>
</svg>
