<?xml version="1.0" encoding="iso-8859-1"?>
<!-- Generator: Adobe Illustrator 16.0.0, SVG Export Plug-In . SVG Version: 6.00 Build 0)  -->
<!DOCTYPE svg PUBLIC "-//W3C//DTD SVG 1.1//EN" "http://www.w3.org/Graphics/SVG/1.1/DTD/svg11.dtd">
<svg version="1.1" id="Capa_1" xmlns="http://www.w3.org/2000/svg" xmlns:xlink="http://www.w3.org/1999/xlink" x="0px" y="0px"
	 width="550.801px" height="550.801px" viewBox="0 0 550.801 550.801" style="enable-background:new 0 0 550.801 550.801;"
	 xml:space="preserve">
<g>
	<g>
		<g>
			<path d="M154.644,415.474c-5.967,0-9.837,0.527-12.121,1.049v77.493c2.284,0.527,5.972,0.527,9.315,0.527
				c24.245,0.169,40.062-13.178,40.062-41.47C192.072,428.473,177.665,415.474,154.644,415.474z"/>
			<path d="M276.933,415.474c-5.967,0-9.838,0.527-12.121,1.049v77.493c2.283,0.527,5.972,0.527,9.315,0.527
				c24.244,0.169,40.064-13.178,40.064-41.47C314.36,428.473,299.953,415.474,276.933,415.474z"/>
			<path d="M475.095,131.992c-0.031-2.529-0.828-5.023-2.562-6.993L366.325,3.694c-0.021-0.034-0.053-0.045-0.085-0.076
				c-0.633-0.707-1.36-1.292-2.141-1.804c-0.232-0.153-0.464-0.287-0.707-0.422c-0.686-0.366-1.392-0.67-2.13-0.892
				c-0.2-0.058-0.38-0.14-0.58-0.195C359.87,0.119,359.048,0,358.204,0H97.2c-11.907,0-21.6,9.693-21.6,21.601v507.6
				c0,11.913,9.692,21.601,21.6,21.601h356.4c11.918,0,21.6-9.688,21.6-21.601V133.202
				C475.2,132.796,475.137,132.398,475.095,131.992z M200.687,500.165c-12.479,10.362-31.456,15.282-54.649,15.282
				c-13.882,0-23.722-0.881-30.396-1.756V397.364c9.843-1.576,22.668-2.452,36.197-2.452c22.489,0,37.075,4.04,48.498,12.646
				c12.3,9.14,20.028,23.726,20.028,44.64C220.364,474.863,212.101,490.493,200.687,500.165z M322.978,500.165
				c-12.482,10.362-31.462,15.282-54.651,15.282c-13.882,0-23.723-0.881-30.401-1.756V397.364
				c9.843-1.576,22.668-2.452,36.202-2.452c22.488,0,37.075,4.04,48.492,12.646c12.308,9.14,20.028,23.726,20.028,44.64
				C342.652,474.863,334.389,490.493,322.978,500.165z M389.212,515.975c-13.532,0-26.884-3.512-33.561-7.203l5.447-22.139
				c7.204,3.687,18.272,7.373,29.7,7.373c12.293,0,18.8-5.089,18.8-12.825c0-7.383-5.632-11.597-19.859-16.696
				c-19.681-6.85-32.517-17.739-32.517-34.968c0-20.208,16.875-35.664,44.814-35.664c13.352,0,23.192,2.811,30.222,5.97
				l-5.975,21.615c-4.735-2.283-13.179-5.627-24.774-5.627c-11.597,0-17.218,5.273-17.218,11.423c0,7.552,6.671,10.9,21.964,16.695
				C427.159,451.66,437,462.544,437,479.245C437.005,499.11,421.712,515.975,389.212,515.975z M97.2,366.752V21.601h250.204v110.515
				c0,5.961,4.83,10.8,10.8,10.8h95.396l0.011,223.836H97.2z"/>
		</g>
		<g>
			<path style="fill:#231F20;" d="M347.035,143.585c-0.011-1.042-0.338-2.067-1.055-2.879l-43.728-49.955
				c-0.011-0.011-0.026-0.016-0.037-0.026c-0.259-0.295-0.564-0.541-0.881-0.744c-0.095-0.066-0.189-0.122-0.29-0.174
				c-0.279-0.15-0.574-0.279-0.875-0.366c-0.09-0.021-0.153-0.061-0.237-0.082c-0.338-0.081-0.675-0.124-1.023-0.124H191.437
				c-4.904,0-8.896,3.989-8.896,8.894v209.007c0,4.904,3.992,8.892,8.896,8.892h146.755c4.909,0,8.896-3.987,8.896-8.892V144.081
				C347.077,143.915,347.056,143.749,347.035,143.585z M191.437,305.839V98.128h103.022v45.504c0,2.458,1.993,4.445,4.45,4.445
				h39.282v157.761H191.437L191.437,305.839z"/>
			<path style="fill:#231F20;" d="M309.129,188.568l-42.147,16.962c-0.309,0.118-0.506,0.419-0.506,0.754v50.62
				c0,0.271,0.134,0.525,0.356,0.675c0.135,0.092,0.29,0.134,0.454,0.134c0.103,0,0.206-0.021,0.3-0.058l42.146-16.962
				c0.312-0.124,0.512-0.419,0.512-0.757v-50.617c0-0.271-0.138-0.524-0.358-0.675C309.662,188.491,309.372,188.465,309.129,188.568
				z M270.918,251.509v-25.666l31.73,12.907L270.918,251.509z M305.791,236.206l-34.868-14.169v-13.3l34.868-14.035V236.206z"/>
			<path style="fill:#231F20;" d="M262.639,205.53l-42.146-16.962c-0.242-0.103-0.53-0.077-0.757,0.082
				c-0.227,0.156-0.355,0.403-0.355,0.675v50.62c0,0.335,0.206,0.625,0.506,0.754l42.148,16.962c0.097,0.037,0.2,0.061,0.303,0.061
				c0.161,0,0.319-0.05,0.454-0.137c0.227-0.15,0.356-0.403,0.356-0.675v-50.617C263.153,205.949,262.947,205.648,262.639,205.53z
				 M258.702,251.509l-30.499-12.269l30.499-13.423V251.509z M258.702,221.962l-34.865,15.346v-42.602l34.865,14.035V221.962z"/>
			<path style="fill:#231F20;" d="M309.076,185.003c0-0.34-0.2-0.63-0.517-0.759l-43.279-16.893c-0.19-0.079-0.406-0.074-0.593,0
				l-42.143,16.962c-0.309,0.118-0.506,0.422-0.515,0.757c0,0.329,0.201,0.625,0.509,0.756l41.613,16.896
				c0.103,0.037,0.206,0.058,0.309,0.058c0.095,0,0.197-0.021,0.29-0.053l43.809-16.962
				C308.876,185.636,309.076,185.338,309.076,185.003z M262.304,197.158l-29.747-12.073l29.747-11.974V197.158z M265.842,197.527
				v-25.181l32.392,12.641L265.842,197.527z"/>
		</g>
	</g>
</g>
<g>
</g>
<g>
</g>
<g>
</g>
<g>
</g>
<g>
</g>
<g>
</g>
<g>
</g>
<g>
</g>
<g>
</g>
<g>
</g>
<g>
</g>
<g>
</g>
<g>
</g>
<g>
</g>
<g>
</g>
</svg>
