<?xml version="1.0" encoding="iso-8859-1"?>
<!-- Generator: Adobe Illustrator 16.0.0, SVG Export Plug-In . SVG Version: 6.00 Build 0)  -->
<!DOCTYPE svg PUBLIC "-//W3C//DTD SVG 1.1//EN" "http://www.w3.org/Graphics/SVG/1.1/DTD/svg11.dtd">
<svg version="1.1" id="Capa_1" xmlns="http://www.w3.org/2000/svg" xmlns:xlink="http://www.w3.org/1999/xlink" x="0px" y="0px"
	 width="550.801px" height="550.801px" viewBox="0 0 550.801 550.801" style="enable-background:new 0 0 550.801 550.801;"
	 xml:space="preserve">
<g>
	<g>
		<path d="M171.439,410.062c-6.605,0-10.887,0.58-13.402,1.16v85.726c2.521,0.58,6.603,0.58,10.302,0.58
			c26.823,0.195,44.307-14.576,44.307-45.868C212.847,424.449,196.91,410.062,171.439,410.062z"/>
		<path d="M475.095,131.992c-0.032-2.526-0.833-5.021-2.568-6.993L366.324,3.694c-0.021-0.034-0.053-0.045-0.084-0.076
			c-0.633-0.707-1.36-1.29-2.141-1.804c-0.232-0.15-0.465-0.285-0.707-0.422c-0.686-0.366-1.393-0.67-2.131-0.892
			c-0.2-0.058-0.379-0.14-0.58-0.192C359.87,0.114,359.047,0,358.203,0H97.2C85.292,0,75.6,9.693,75.6,21.601v507.6
			c0,11.913,9.692,21.601,21.6,21.601H453.6c11.918,0,21.601-9.688,21.601-21.601V133.202
			C475.2,132.796,475.137,132.398,475.095,131.992z M222.373,503.751c-13.809,11.464-34.794,16.906-60.455,16.906
			c-15.356,0-26.238-0.97-33.626-1.94V390.034c10.887-1.74,25.073-2.721,40.047-2.721c24.877,0,41.009,4.472,53.644,13.995
			c13.608,10.115,22.162,26.241,22.162,49.376C244.139,475.76,235.008,493.057,222.373,503.751z M345.432,519.297h-81.836V388.294
			h29.734v106.123h52.096v24.88H345.432z M444.762,519.297h-81.833V388.294h29.742v106.123h52.091V519.297z M97.2,366.752V21.601
			h250.203v110.515c0,5.961,4.831,10.8,10.8,10.8H453.6l0.011,223.836H97.2z"/>
		<path d="M301.725,245.015c1.382-0.546,2.484-1.619,3.027-2.911c0.538-1.292,0.522-2.829-0.042-4.103
			c-1.698-3.878-0.823-8.448,2.141-11.417l7.899-7.899c1.994-1.973,4.557-3.04,7.235-3.04h1.856l2.12,0.814
			c1.646,0.717,3.037,0.659,4.287,0.14c1.323-0.551,2.399-1.65,2.905-2.958c1.498-3.758,4.926-6.157,8.87-6.426v-7.362
			c0-0.765-0.501-1.49-1.224-1.785c-7.788-3.046-14.096-9.213-17.297-16.936c-3.206-7.739-3.116-16.577,0.254-24.234
			c0.306-0.693,0.137-1.556-0.396-2.107l-16.69-16.674c-0.918-0.923-1.599-0.633-2.12-0.412c-7.589,3.359-16.485,3.478-24.211,0.253
			c-7.723-3.18-13.9-9.503-16.951-17.303c-0.279-0.706-0.983-1.197-1.764-1.197h-23.578c-0.789,0-1.5,0.491-1.783,1.197
			c-3.04,7.8-9.212,14.123-16.938,17.303c-7.702,3.225-16.58,3.127-24.242-0.253c-0.48-0.195-1.166-0.511-2.101,0.412l-16.69,16.674
			c-0.541,0.551-0.702,1.414-0.377,2.123c3.351,7.662,3.449,16.479,0.253,24.218c-3.204,7.723-9.511,13.885-17.318,16.936
			c-0.728,0.295-1.205,0.98-1.205,1.785v23.593c0,0.783,0.478,1.469,1.205,1.767c7.808,3.046,14.099,9.213,17.318,16.933
			c3.195,7.739,3.098,16.58-0.269,24.242c-0.309,0.702-0.143,1.551,0.393,2.102l16.69,16.688c0.936,0.928,1.595,0.611,2.117,0.379
			c3.915-1.708,8.095-2.594,12.397-2.594c4.09,0,8.058,0.785,11.815,2.356c7.739,3.201,13.911,9.509,16.951,17.303
			c0.282,0.706,1,1.202,1.783,1.202h23.578c0.793,0,1.484-0.475,1.764-1.202c3.045-7.794,9.213-14.102,16.951-17.303
			c7.536-3.111,16.079-3.085,23.567-0.016c0.105-0.991,0.358-1.982,0.77-2.932c0.597-1.34,0.612-2.88,0.074-4.188
			c-0.538-1.276-1.64-2.357-2.953-2.871c-3.997-1.604-6.528-5.345-6.528-9.563v-11.172
			C295.26,250.338,297.791,246.592,301.725,245.015z M249.816,257.5c-25.289,0-45.853-20.569-45.853-45.863
			c0-25.278,20.569-45.884,45.853-45.884c25.31,0,45.887,20.601,45.887,45.884C295.703,236.931,275.12,257.5,249.816,257.5z"/>
		<path d="M384.381,245.695c-1.508-3.668-1.466-7.853,0.121-11.48c0.143-0.33,0.068-0.735-0.185-0.999l-7.899-7.9
			c-0.438-0.438-0.77-0.298-1.013-0.195c-3.597,1.587-7.815,1.653-11.464,0.124c-3.676-1.511-6.598-4.503-8.037-8.203
			c-0.132-0.335-0.464-0.567-0.833-0.567h-11.169c-0.364,0-0.718,0.232-0.844,0.567c-1.435,3.699-4.367,6.692-8.016,8.203
			c-3.655,1.529-7.863,1.474-11.486-0.124c-0.227-0.093-0.559-0.237-1.002,0.195l-7.91,7.9c-0.253,0.264-0.332,0.675-0.189,1.01
			c1.613,3.628,1.64,7.802,0.121,11.47c-1.514,3.654-4.498,6.576-8.189,8.023c-0.348,0.134-0.585,0.464-0.585,0.849v11.172
			c0,0.367,0.237,0.691,0.585,0.833c3.691,1.445,6.676,4.361,8.189,8.024c1.514,3.667,1.482,7.86-0.121,11.488
			c-0.137,0.332-0.063,0.733,0.189,0.992l7.91,7.91c0.443,0.438,0.765,0.295,1.002,0.179c1.867-0.812,3.834-1.233,5.88-1.233
			c1.925,0,3.813,0.374,5.59,1.117c3.665,1.52,6.608,4.504,8.032,8.2c0.126,0.338,0.479,0.564,0.844,0.564h11.169
			c0.369,0,0.701-0.227,0.833-0.564c1.445-3.696,4.366-6.681,8.037-8.2c3.659-1.519,7.857-1.466,11.475,0.116
			c0.242,0.116,0.564,0.243,1.002-0.179l7.899-7.91c0.253-0.259,0.338-0.66,0.185-0.992c-1.593-3.628-1.629-7.82-0.121-11.488
			c1.519-3.663,4.504-6.579,8.211-8.024c0.332-0.142,0.564-0.466,0.564-0.833v-11.172c0-0.366-0.232-0.714-0.564-0.849
			C388.885,252.271,385.899,249.35,384.381,245.695z M349.481,281.876c-11.992,0-21.716-9.742-21.716-21.731
			c0-11.977,9.729-21.734,21.716-21.734c11.991,0,21.731,9.764,21.731,21.734C371.213,272.134,361.463,281.876,349.481,281.876z"/>
	</g>
</g>
<g>
</g>
<g>
</g>
<g>
</g>
<g>
</g>
<g>
</g>
<g>
</g>
<g>
</g>
<g>
</g>
<g>
</g>
<g>
</g>
<g>
</g>
<g>
</g>
<g>
</g>
<g>
</g>
<g>
</g>
</svg>
