<?xml version="1.0" encoding="iso-8859-1"?>
<!-- Generator: Adobe Illustrator 16.0.0, SVG Export Plug-In . SVG Version: 6.00 Build 0)  -->
<!DOCTYPE svg PUBLIC "-//W3C//DTD SVG 1.1//EN" "http://www.w3.org/Graphics/SVG/1.1/DTD/svg11.dtd">
<svg version="1.1" id="Capa_1" xmlns="http://www.w3.org/2000/svg" xmlns:xlink="http://www.w3.org/1999/xlink" x="0px" y="0px"
	 width="550.801px" height="550.801px" viewBox="0 0 550.801 550.801" style="enable-background:new 0 0 550.801 550.801;"
	 xml:space="preserve">
<g>
	<g>
		<g>
			<path d="M475.095,131.992c-0.032-2.526-0.833-5.021-2.568-6.993L366.324,3.694c-0.021-0.031-0.053-0.045-0.084-0.076
				c-0.633-0.707-1.36-1.29-2.141-1.804c-0.232-0.15-0.465-0.285-0.707-0.422c-0.686-0.366-1.393-0.67-2.131-0.892
				c-0.2-0.058-0.379-0.14-0.58-0.192C359.87,0.119,359.047,0,358.203,0H97.2C85.292,0,75.6,9.693,75.6,21.601v507.6
				c0,11.913,9.692,21.601,21.6,21.601H453.6c11.918,0,21.601-9.688,21.601-21.601V133.202
				C475.2,132.796,475.137,132.398,475.095,131.992z M181.699,498.287c-11.697,9.725-29.489,14.334-51.245,14.334
				c-13.015,0-22.243-0.823-28.498-1.646V401.895c9.218-1.482,21.254-2.31,33.94-2.31c21.091,0,34.771,3.786,45.478,11.859
				c11.541,8.569,18.787,22.243,18.787,41.851C200.156,474.562,192.417,489.228,181.699,498.287z M312.229,511.471l-1.646-42.504
				c-0.501-13.357-0.996-29.505-0.996-45.657h-0.49c-3.46,14.175-8.068,29.995-12.351,43.021l-13.521,43.327h-19.609l-11.862-43.005
				c-3.628-13.015-7.415-28.835-10.051-43.343h-0.327c-0.654,14.998-1.152,32.137-1.983,45.984l-1.972,42.183h-23.235l7.09-111.064
				h33.441l10.887,37.072c3.462,12.857,6.916,26.7,9.384,39.72h0.496c3.133-12.856,6.919-27.527,10.547-39.878l11.865-36.914h32.79
				l6.097,111.059H312.229z M448.854,506.366c-7.741,2.632-22.401,6.255-37.072,6.255c-20.271,0-34.931-5.105-45.15-14.998
				c-10.21-9.556-15.811-24.052-15.646-40.363c0.163-36.914,27.016-58.008,63.434-58.008c14.334,0,25.376,2.806,30.818,5.432
				l-5.273,20.108c-6.096-2.632-13.68-4.778-25.871-4.778c-20.926,0-36.746,11.86-36.746,35.918
				c0,22.907,14.334,36.418,34.932,36.418c5.77,0,10.378-0.654,12.361-1.646V467.47H407.5v-19.606h41.354V506.366z M97.2,366.752
				V21.601h250.203v110.515c0,5.964,4.831,10.8,10.8,10.8H453.6l0.011,223.836H97.2z"/>
			<path d="M138.53,418.859c-5.608,0-9.229,0.501-11.367,0.996v72.668c2.138,0.496,5.601,0.496,8.733,0.496
				c22.739,0.163,37.568-12.355,37.568-38.892C173.631,431.057,160.12,418.859,138.53,418.859z"/>
		</g>
		<g>
			<path d="M406.508,239.356l-17.687-112.822c-0.127-0.815-0.823-1.427-1.656-1.427H154.673c-0.833,0-1.54,0.606-1.669,1.427
				l-17.706,112.967c-0.124,0.243-0.211,0.53-0.211,0.82v71.593c0,0.928,0.749,1.682,1.69,1.682h268.449
				c0.929,0,1.683-0.754,1.683-1.682v-71.587C406.898,239.966,406.751,239.631,406.508,239.356z M274.559,148.548
				c39.98,0,72.392,16.73,72.392,37.359c0,20.627-32.411,37.352-72.392,37.352c-39.983,0-72.394-16.725-72.394-37.352
				C202.165,165.278,234.57,148.548,274.559,148.548z M394.58,301.282H147.403v-50.321H394.58V301.282z"/>
			<path d="M361.146,285.631h21.262c0.929,0,1.683-0.749,1.683-1.683v-21.26c0-0.928-0.754-1.68-1.683-1.68h-21.262
				c-0.929,0-1.678,0.752-1.678,1.68v21.26C359.469,284.887,360.218,285.631,361.146,285.631z"/>
			<path d="M168.771,285.631h21.254c0.929,0,1.68-0.749,1.68-1.683v-21.26c0-0.928-0.751-1.68-1.68-1.68h-21.254
				c-0.928,0-1.69,0.752-1.69,1.68v21.26C167.081,284.887,167.843,285.631,168.771,285.631z"/>
			<path d="M203.839,285.631h21.234c0.928,0,1.679-0.749,1.679-1.683v-21.26c0-0.928-0.751-1.68-1.679-1.68h-21.234
				c-0.928,0-1.679,0.752-1.679,1.68v21.26C202.165,284.887,202.911,285.631,203.839,285.631z"/>
			<path d="M241.109,285.631h21.265c0.928,0,1.68-0.749,1.68-1.683v-21.26c0-0.928-0.751-1.68-1.68-1.68h-21.265
				c-0.928,0-1.68,0.752-1.68,1.68v21.26C239.435,284.887,240.187,285.631,241.109,285.631z"/>
			<path d="M274.282,154.726c32.558,0,58.957,13.561,58.957,30.291c0,16.727-26.399,30.288-58.957,30.288
				c-32.561,0-58.957-13.561-58.957-30.288C215.325,168.286,241.721,154.726,274.282,154.726z"/>
		</g>
	</g>
</g>
<g>
</g>
<g>
</g>
<g>
</g>
<g>
</g>
<g>
</g>
<g>
</g>
<g>
</g>
<g>
</g>
<g>
</g>
<g>
</g>
<g>
</g>
<g>
</g>
<g>
</g>
<g>
</g>
<g>
</g>
</svg>
