<?xml version="1.0" encoding="iso-8859-1"?>
<!-- Generator: Adobe Illustrator 16.0.0, SVG Export Plug-In . SVG Version: 6.00 Build 0)  -->
<!DOCTYPE svg PUBLIC "-//W3C//DTD SVG 1.1//EN" "http://www.w3.org/Graphics/SVG/1.1/DTD/svg11.dtd">
<svg version="1.1" id="Capa_1" xmlns="http://www.w3.org/2000/svg" xmlns:xlink="http://www.w3.org/1999/xlink" x="0px" y="0px"
	 width="550.801px" height="550.801px" viewBox="0 0 550.801 550.801" style="enable-background:new 0 0 550.801 550.801;"
	 xml:space="preserve">
<g>
	<g>
		<g>
			<path d="M392.48,423.362c-4.883,0-8.189,0.464-9.924,0.944v31.355c2.046,0.48,4.566,0.633,8.036,0.633
				c12.762,0,20.641-6.46,20.641-17.339C411.233,429.195,404.451,423.362,392.48,423.362z"/>
			<path d="M150.757,423.679c-5.357,0-8.822,0.47-10.876,0.949v69.478c2.048,0.47,5.357,0.47,8.355,0.47
				c21.74,0.163,35.92-11.812,35.92-37.184C184.317,435.339,171.397,423.679,150.757,423.679z"/>
			<path d="M475.095,131.997c-0.032-2.526-0.833-5.021-2.568-6.992L366.324,3.694c-0.021-0.031-0.053-0.042-0.084-0.076
				c-0.633-0.707-1.36-1.29-2.141-1.804c-0.232-0.15-0.465-0.285-0.707-0.422c-0.686-0.366-1.393-0.67-2.131-0.889
				c-0.2-0.061-0.379-0.143-0.58-0.195C359.87,0.119,359.047,0,358.203,0H97.2C85.292,0,75.6,9.693,75.6,21.601v507.6
				c0,11.913,9.692,21.601,21.6,21.601H453.6c11.918,0,21.601-9.688,21.601-21.601V133.202
				C475.2,132.796,475.137,132.398,475.095,131.997z M192.04,499.616c-11.182,9.297-28.205,13.711-49.001,13.711
				c-12.445,0-21.27-0.796-27.253-1.582V407.452c8.825-1.418,20.327-2.209,32.456-2.209c20.163,0,33.241,3.628,43.485,11.349
				c11.026,8.194,17.961,21.268,17.961,40.015C209.683,476.93,202.278,490.952,192.04,499.616z M316.833,512.22l-1.576-40.643
				c-0.47-12.762-0.944-28.207-0.944-43.647h-0.469c-3.312,13.547-7.721,28.677-11.812,41.122l-12.926,41.434h-18.75l-11.346-41.112
				c-3.473-12.45-7.09-27.574-9.611-41.443h-0.319c-0.633,14.344-1.102,30.723-1.896,43.97l-1.891,40.331h-22.209l6.771-106.186
				h31.983l10.397,35.438c3.312,12.287,6.623,25.533,8.985,37.979h0.475c2.995-12.297,6.613-26.314,10.083-38.127l11.343-35.289
				h31.351l5.833,106.186h-23.473V512.22z M425.25,463.535c-8.195,7.721-20.324,11.186-34.51,11.186
				c-3.153,0-5.979-0.153-8.189-0.48v37.979h-23.788V407.452c7.403-1.26,17.803-2.209,32.452-2.209
				c14.809,0,25.365,2.837,32.453,8.506c6.771,5.353,11.349,14.181,11.349,24.585C435.017,448.728,431.552,457.545,425.25,463.535z
				 M97.2,366.752V21.601h250.203v110.515c0,5.961,4.831,10.8,10.8,10.8H453.6l0.011,223.836H97.2z"/>
		</g>
		<path d="M381.38,197.063h-14.538V95.531H146.206v174.372h75.323v16.013h-21.353v15.419h99.692v38.617h104.725V219.396
			L381.38,197.063z M383.854,207.571l11.307,10.881h-11.307V207.571z M165.185,250.921V114.513h182.677v82.551h-47.993v53.865
			H165.185V250.921z M284.987,285.916v-16.013h14.871v16.013H284.987z M398.74,334.109h-93.028V202.922H378v21.379h20.735v109.809
			H398.74z"/>
		<g>
			<rect x="315.9" y="239.533" width="63.449" height="5.4"/>
			<rect x="315.9" y="267.435" width="63.449" height="5.4"/>
			<rect x="315.9" y="296.905" width="63.449" height="5.4"/>
		</g>
	</g>
</g>
<g>
</g>
<g>
</g>
<g>
</g>
<g>
</g>
<g>
</g>
<g>
</g>
<g>
</g>
<g>
</g>
<g>
</g>
<g>
</g>
<g>
</g>
<g>
</g>
<g>
</g>
<g>
</g>
<g>
</g>
</svg>
