<?xml version="1.0" encoding="iso-8859-1"?>
<!-- Generator: Adobe Illustrator 16.0.0, SVG Export Plug-In . SVG Version: 6.00 Build 0)  -->
<!DOCTYPE svg PUBLIC "-//W3C//DTD SVG 1.1//EN" "http://www.w3.org/Graphics/SVG/1.1/DTD/svg11.dtd">
<svg version="1.1" id="Capa_1" xmlns="http://www.w3.org/2000/svg" xmlns:xlink="http://www.w3.org/1999/xlink" x="0px" y="0px"
	 width="550.801px" height="550.801px" viewBox="0 0 550.801 550.801" style="enable-background:new 0 0 550.801 550.801;"
	 xml:space="preserve">
<g>
	<g>
		<path d="M281,413.575c-18.581,0-29.415,17.687-29.415,41.322c0,23.825,11.19,40.605,29.595,40.605
			c18.594,0,29.236-17.687,29.236-41.322C310.416,432.338,299.953,413.575,281,413.575z"/>
		<path d="M142.57,413.934c-6.139,0-10.115,0.538-12.456,1.076v79.586c2.341,0.549,6.138,0.549,9.563,0.549
			c24.898,0.18,41.141-13.542,41.141-42.588C181.008,427.286,166.206,413.934,142.57,413.934z"/>
		<path d="M475.095,131.992c-0.032-2.526-0.833-5.021-2.568-6.993L366.324,3.694c-0.021-0.034-0.053-0.045-0.084-0.076
			c-0.633-0.707-1.36-1.29-2.141-1.804c-0.232-0.15-0.465-0.285-0.707-0.422c-0.686-0.366-1.393-0.67-2.131-0.892
			c-0.2-0.058-0.379-0.14-0.58-0.192C359.87,0.114,359.047,0,358.203,0H97.2C85.292,0,75.6,9.693,75.6,21.601v507.6
			c0,11.913,9.692,21.601,21.6,21.601H453.6c11.918,0,21.601-9.688,21.601-21.601V133.202
			C475.2,132.796,475.137,132.398,475.095,131.992z M189.854,500.914c-12.814,10.652-32.305,15.704-56.133,15.704
			c-14.262,0-24.366-0.907-31.219-1.804V395.35c10.104-1.624,23.28-2.531,37.18-2.531c23.095,0,38.074,4.156,49.803,12.994
			c12.638,9.387,20.579,24.363,20.579,45.837C210.06,474.932,201.583,490.989,189.854,500.914z M279.734,517.346
			c-36.091,0-57.206-27.253-57.206-61.905c0-36.455,23.28-63.703,59.189-63.703c37.356,0,57.755,27.976,57.755,61.536
			C339.473,493.162,315.288,517.346,279.734,517.346z M419.787,494.428c8.3,0,17.508-1.814,22.918-3.972l4.155,21.474
			c-5.052,2.537-16.421,5.236-31.219,5.236c-42.05,0-63.703-26.172-63.703-60.818c0-41.502,29.595-64.604,66.403-64.604
			c14.26,0,25.091,2.885,29.964,5.416l-5.601,21.832c-5.585-2.342-13.353-4.515-23.093-4.515c-21.832,0-38.807,13.179-38.807,40.247
			C380.806,479.082,395.244,494.428,419.787,494.428z M97.2,366.752V21.601h250.203v110.515c0,5.961,4.831,10.8,10.8,10.8H453.6
			l0.011,223.836H97.2z"/>
		<path d="M248.023,149.099h78.592c3.945,0,7.151-3.201,7.151-7.153c0-3.952-3.206-7.156-7.151-7.156h-78.592
			c-3.953,0-7.146,3.204-7.146,7.156C240.872,145.898,244.062,149.099,248.023,149.099z"/>
		<path d="M365.059,192.024H169.538c-3.952,0-7.161,3.201-7.161,7.153c0,3.955,3.209,7.151,7.161,7.151h195.521
			c3.955,0,7.162-3.196,7.162-7.151C372.221,195.226,369.02,192.024,365.059,192.024z"/>
		<path d="M189.973,163.432l6.626-26.937c1.695-6.539,2.805-12.062,3.829-18.18h0.166c0.675,6.199,1.695,11.641,3.138,18.18
			l5.956,26.937h11.222l15.367-57.267h-10.621l-5.946,25.914c-1.529,6.971-2.896,13.505-3.91,19.802h-0.177
			c-0.844-6.204-2.036-12.577-3.478-19.375l-5.693-26.335h-10.96l-6.194,25.914c-1.627,7.22-3.251,14.025-4.174,20.05h-0.158
			c-0.934-5.69-2.299-13.002-3.747-19.968l-5.439-25.996h-11.132l14.022,57.267h11.303V163.432z"/>
		<path d="M365.059,248.849H169.538c-3.952,0-7.161,3.201-7.161,7.156c0,3.952,3.209,7.153,7.161,7.153h195.521
			c3.955,0,7.162-3.201,7.162-7.153C372.221,252.05,369.02,248.849,365.059,248.849z"/>
		<path d="M365.059,307.03H169.538c-3.952,0-7.161,3.206-7.161,7.161c0,3.95,3.209,7.151,7.161,7.151h195.521
			c3.955,0,7.162-3.201,7.162-7.151C372.221,310.236,369.02,307.03,365.059,307.03z"/>
	</g>
</g>
<g>
</g>
<g>
</g>
<g>
</g>
<g>
</g>
<g>
</g>
<g>
</g>
<g>
</g>
<g>
</g>
<g>
</g>
<g>
</g>
<g>
</g>
<g>
</g>
<g>
</g>
<g>
</g>
<g>
</g>
</svg>
