<?xml version="1.0" encoding="iso-8859-1"?>
<!-- Generator: Adobe Illustrator 16.0.0, SVG Export Plug-In . SVG Version: 6.00 Build 0)  -->
<!DOCTYPE svg PUBLIC "-//W3C//DTD SVG 1.1//EN" "http://www.w3.org/Graphics/SVG/1.1/DTD/svg11.dtd">
<svg version="1.1" id="Capa_1" xmlns="http://www.w3.org/2000/svg" xmlns:xlink="http://www.w3.org/1999/xlink" x="0px" y="0px"
	 width="548.291px" height="548.291px" viewBox="0 0 548.291 548.291" style="enable-background:new 0 0 548.291 548.291;"
	 xml:space="preserve">
<g>
	<g>
		<path d="M472.929,131.385c-0.031-2.514-0.839-4.992-2.566-6.96L364.656,3.667c-0.031-0.029-0.062-0.044-0.084-0.07
			c-0.63-0.709-1.365-1.284-2.142-1.795c-0.231-0.149-0.463-0.29-0.704-0.42c-0.672-0.37-1.376-0.667-2.121-0.888
			c-0.2-0.058-0.377-0.144-0.577-0.186C358.231,0.113,357.4,0,356.561,0H96.757C84.904,0,75.255,9.644,75.255,21.502V526.79
			c0,11.854,9.649,21.501,21.502,21.501h354.775c11.853,0,21.503-9.647,21.503-21.501v-394.2
			C473.036,132.186,472.971,131.79,472.929,131.385z M165.853,484.783c-9.837,8.18-24.796,12.055-43.09,12.055
			c-10.938,0-18.701-0.693-23.959-1.387v-91.708c7.759-1.243,17.87-1.932,28.539-1.932c17.732,0,29.231,3.182,38.223,9.975
			c9.705,7.201,15.801,18.698,15.801,35.181C181.367,464.835,174.854,477.171,165.853,484.783z M234.845,497.393
			c-27.703,0-43.917-20.926-43.917-47.519c0-27.979,17.867-48.908,45.439-48.908c28.683,0,44.324,21.48,44.324,47.244
			C280.697,478.831,262.137,497.393,234.845,497.393z M342.356,479.796c6.373,0,13.438-1.387,17.591-3.044l3.187,16.483
			c-3.879,1.932-12.604,4.02-23.959,4.02c-32.289,0-48.908-20.084-48.908-46.688c0-31.864,22.724-49.602,50.977-49.602
			c10.939,0,19.255,2.221,22.992,4.158l-4.293,16.761c-4.295-1.806-10.247-3.465-17.733-3.465c-16.767,0-29.785,10.11-29.785,30.888
			C312.434,468.017,323.521,479.796,342.356,479.796z M426.587,495.871l-8.451-16.902c-3.464-6.511-5.68-11.361-8.315-16.769h-0.272
			c-1.942,5.407-4.295,10.258-7.201,16.769l-7.76,16.902h-24.104l27.013-47.245L371.459,402.5h24.24l8.169,17.044
			c2.771,5.671,4.85,10.247,7.064,15.508h0.274c2.216-5.949,4.021-10.111,6.373-15.508l7.895-17.044h24.105l-26.315,45.57
			l27.701,47.805h-24.379V495.871z M96.757,365.076V21.502H345.81v110.006c0,5.935,4.819,10.751,10.751,10.751h94.972v222.816
			H96.757z"/>
		<path d="M129.558,418.011c-4.713,0-7.755,0.42-9.562,0.833v61.09c1.806,0.408,4.713,0.408,7.347,0.408
			c19.121,0.143,31.58-10.388,31.58-32.683C159.057,428.268,147.7,418.011,129.558,418.011z"/>
		<path d="M235.813,417.738c-14.268,0-22.572,13.574-22.572,31.722c0,18.284,8.59,31.166,22.723,31.166
			c14.265,0,22.435-13.574,22.435-31.717C258.394,432.143,250.365,417.738,235.813,417.738z"/>
		<g>
			<path d="M340.372,179.759V118.7H130.729v148.72h61.065v61.057h209.639V179.759H340.372z M191.794,256.67h-50.315V129.451h188.142
				v50.308H191.794V256.67z M390.682,317.726H202.545V190.509h188.137V317.726z"/>
			<circle cx="233.131" cy="213.354" r="7.166"/>
			<rect x="251.3" y="210.667" width="109.302" height="5.375"/>
			<circle cx="233.131" cy="239.334" r="7.166"/>
			<rect x="251.3" y="236.646" width="109.302" height="5.375"/>
			<circle cx="233.131" cy="267.294" r="7.167"/>
			<rect x="251.3" y="264.604" width="109.302" height="5.375"/>
			<path d="M233.131,286.555c3.956,0,7.166,3.212,7.166,7.172c0,3.952-3.21,7.159-7.166,7.159c-3.958,0-7.165-3.207-7.165-7.159
				C225.966,289.767,229.173,286.555,233.131,286.555z"/>
			<rect x="251.3" y="291.038" width="109.302" height="5.375"/>
		</g>
	</g>
</g>
<g>
</g>
<g>
</g>
<g>
</g>
<g>
</g>
<g>
</g>
<g>
</g>
<g>
</g>
<g>
</g>
<g>
</g>
<g>
</g>
<g>
</g>
<g>
</g>
<g>
</g>
<g>
</g>
<g>
</g>
</svg>
