<?xml version="1.0" encoding="iso-8859-1"?>
<!-- Generator: Adobe Illustrator 16.0.0, SVG Export Plug-In . SVG Version: 6.00 Build 0)  -->
<!DOCTYPE svg PUBLIC "-//W3C//DTD SVG 1.1//EN" "http://www.w3.org/Graphics/SVG/1.1/DTD/svg11.dtd">
<svg version="1.1" id="Capa_1" xmlns="http://www.w3.org/2000/svg" xmlns:xlink="http://www.w3.org/1999/xlink" x="0px" y="0px"
	 width="550.801px" height="550.801px" viewBox="0 0 550.801 550.801" style="enable-background:new 0 0 550.801 550.801;"
	 xml:space="preserve">
<g>
	<g>
		<g>
			<path d="M151.762,411.191c-6.22,0-10.244,0.554-12.619,1.097v80.663c2.375,0.554,6.22,0.554,9.692,0.554
				c25.244,0.185,41.71-13.717,41.71-43.163C190.722,424.733,175.727,411.191,151.762,411.191z"/>
			<path d="M278.728,410.458c-6.769,0-10.607,0.554-12.622,0.913v34.023h10.982c13.9,0,22.132-6.95,22.132-17.739
				C299.215,416.312,291.537,410.648,278.728,410.458z"/>
			<path d="M475.095,131.997c-0.032-2.526-0.833-5.023-2.568-6.992L366.324,3.694c-0.021-0.034-0.053-0.045-0.084-0.076
				c-0.633-0.709-1.36-1.292-2.141-1.804c-0.232-0.15-0.465-0.287-0.707-0.422c-0.686-0.366-1.393-0.67-2.131-0.892
				c-0.2-0.058-0.379-0.14-0.58-0.195C359.87,0.119,359.047,0,358.203,0H97.2C85.292,0,75.6,9.693,75.6,21.601v507.6
				c0,11.913,9.692,21.601,21.6,21.601H453.6c11.918,0,21.601-9.688,21.601-21.601V133.207
				C475.2,132.796,475.137,132.398,475.095,131.997z M199.687,499.363c-12.986,10.789-32.74,15.91-56.89,15.91
				c-14.449,0-24.693-0.918-31.644-1.83V392.354c10.244-1.646,23.599-2.562,37.682-2.562c23.414,0,38.594,4.203,50.49,13.162
				c12.804,9.514,20.849,24.69,20.849,46.47C220.174,473.018,211.578,489.302,199.687,499.363z M303.06,513.992
				c-2.015-3.476-4.941-13.537-8.602-28.72c-3.29-15.366-8.596-19.564-19.934-19.749h-8.419v48.479h-27.62V392.354
				c8.965-1.466,22.312-2.562,37.13-2.562c18.288,0,31.098,2.742,39.878,9.692c7.314,5.854,11.343,14.449,11.343,25.792
				c0,15.731-11.158,26.521-21.769,30.365v0.554c8.596,3.475,13.353,11.707,16.464,23.045c3.839,13.9,7.684,30,10.062,34.762H303.06
				V513.992z M407.521,513.992h-32.558l-39.515-123.283h30.55l14.997,52.128c4.208,14.634,8.048,28.714,10.975,44.081h0.554
				c3.111-14.813,6.95-29.447,11.153-43.537l15.73-52.682h29.637L407.521,513.992z M97.2,366.758V21.605h250.203v110.516
				c0,5.962,4.831,10.8,10.8,10.8H453.6l0.011,223.837H97.2z"/>
		</g>
		<g>
			<path d="M365.502,233.025H195.718c-8.791,0-15.915,7.122-15.915,15.921v25.331c0,8.791,7.125,15.91,15.915,15.91h169.784
				c8.796,0,15.926-7.119,15.926-15.91v-25.331C381.428,240.147,374.298,233.025,365.502,233.025z M369.752,272.025h-41.386v-20.822
				h41.386V272.025z"/>
			<path d="M388.373,220.293l-19.063-48.196l-107.697,0.034c0.108,0.319,0.169,0.646,0.304,0.949
				c2.004,4.374,1.112,9.645-2.334,13.278l-12.213,12.237c-2.479,2.381-5.461,3.612-8.548,3.612l0,0
				c-1.783,0-3.478-0.388-5.178-1.187c-2.297-0.984-5.983-1.142-8.754,0.016c-2.885,1.191-5.179,3.53-6.312,6.426
				c-1.711,4.566-6.286,7.728-11.33,7.728h-16.988c-3.515,0-6.771-1.606-9.044-4.137l-4.208,8.617
				c-5.912,3.549-9.925,10.299-9.925,18.032v47.822c0,11.412,8.717,20.693,19.43,20.693h191.415
				c10.716,0,19.433-9.281,19.433-20.693v-47.822C397.343,230.384,393.757,223.971,388.373,220.293z M387.787,285.525
				c0,6.139-4.43,11.138-9.871,11.138H186.495c-5.445,0-9.877-5.005-9.877-11.138v-47.822c0-6.146,4.432-11.14,9.877-11.14h191.421
				c5.441,0,9.871,5,9.871,11.14V285.525z"/>
			<path d="M176.148,191.716c5.577,2.31,10.049,6.858,12.224,12.48c0.2,0.506,0.725,0.852,1.292,0.852h16.988
				c0.562,0,1.068-0.33,1.268-0.852c2.199-5.622,6.642-10.17,12.232-12.48c5.566-2.312,11.95-2.22,17.463,0.177
				c0.361,0.169,0.854,0.364,1.519-0.274l12.018-12.037c0.385-0.406,0.509-1.015,0.282-1.506
				c-2.426-5.526-2.479-11.918-0.185-17.486c2.312-5.556,6.853-10.001,12.485-12.203c0.509-0.211,0.87-0.714,0.87-1.271v-17.01
				c0-0.562-0.361-1.083-0.87-1.294c-5.632-2.188-10.173-6.642-12.485-12.206c-2.294-5.566-2.246-11.944,0.185-17.452
				c0.227-0.517,0.108-1.134-0.282-1.54l-12.018-12.023c-0.665-0.648-1.174-0.438-1.545-0.287
				c-5.476,2.412-11.892,2.505-17.442,0.177c-5.59-2.3-10.033-6.855-12.231-12.478c-0.201-0.514-0.702-0.859-1.269-0.859h-16.988
				c-0.567,0-1.097,0.346-1.292,0.859c-2.175,5.622-6.642,10.178-12.203,12.478c-5.556,2.328-11.96,2.246-17.474-0.177
				c-0.345-0.135-0.844-0.361-1.519,0.287l-12.036,12.023c-0.383,0.406-0.506,1.023-0.298,1.54
				c2.457,5.523,2.491,11.886,0.189,17.452c-2.305,5.559-6.853,10.012-12.469,12.206c-0.527,0.211-0.886,0.707-0.886,1.294v17.01
				c0,0.562,0.354,1.06,0.886,1.271c5.616,2.202,10.164,6.642,12.469,12.203c2.302,5.568,2.263,11.96-0.189,17.486
				c-0.208,0.496-0.09,1.1,0.298,1.506l12.036,12.037c0.675,0.654,1.155,0.443,1.519,0.274c2.829-1.236,5.83-1.888,8.941-1.888
				C170.58,190.005,173.443,190.582,176.148,191.716z M198.146,105.527c18.236,0,33.064,14.86,33.064,33.075
				c0,18.246-14.829,33.075-33.064,33.075c-18.251,0-33.051-14.829-33.051-33.075C165.101,120.388,179.896,105.527,198.146,105.527z
				"/>
		</g>
	</g>
</g>
<g>
</g>
<g>
</g>
<g>
</g>
<g>
</g>
<g>
</g>
<g>
</g>
<g>
</g>
<g>
</g>
<g>
</g>
<g>
</g>
<g>
</g>
<g>
</g>
<g>
</g>
<g>
</g>
<g>
</g>
</svg>
