<?xml version="1.0" encoding="iso-8859-1"?>
<!-- Generator: Adobe Illustrator 16.0.0, SVG Export Plug-In . SVG Version: 6.00 Build 0)  -->
<!DOCTYPE svg PUBLIC "-//W3C//DTD SVG 1.1//EN" "http://www.w3.org/Graphics/SVG/1.1/DTD/svg11.dtd">
<svg version="1.1" id="Capa_1" xmlns="http://www.w3.org/2000/svg" xmlns:xlink="http://www.w3.org/1999/xlink" x="0px" y="0px"
	 width="550.801px" height="550.801px" viewBox="0 0 550.801 550.801" style="enable-background:new 0 0 550.801 550.801;"
	 xml:space="preserve">
<g>
	<g>
		<g>
			<path d="M153.782,412.32c-6.054,0-9.959,0.543-12.263,1.064v78.4c2.31,0.533,6.043,0.533,9.418,0.533
				c24.532,0.185,40.521-13.332,40.521-41.945C191.635,425.482,177.062,412.32,153.782,412.32z"/>
			<path d="M369.995,412.32c-6.043,0-9.951,0.543-12.261,1.064v78.4c2.31,0.533,6.038,0.533,9.413,0.533
				c24.537,0.185,40.526-13.332,40.526-41.945C407.858,425.482,393.283,412.32,369.995,412.32z"/>
			<path d="M475.095,132c-0.031-2.529-0.833-5.023-2.568-6.995L366.319,3.694c-0.021-0.031-0.053-0.042-0.089-0.074
				c-0.628-0.709-1.361-1.292-2.136-1.803c-0.232-0.153-0.465-0.288-0.707-0.422c-0.686-0.369-1.393-0.67-2.136-0.892
				c-0.2-0.061-0.374-0.14-0.575-0.195C359.87,0.119,359.037,0,358.198,0H97.2c-11.907,0-21.6,9.695-21.6,21.601v507.6
				c0,11.913,9.692,21.601,21.6,21.601h356.4c11.918,0,21.6-9.688,21.6-21.601V133.21C475.2,132.804,475.137,132.398,475.095,132z
				 M200.346,498.003c-12.614,10.488-31.812,15.472-55.276,15.472c-14.051,0-23.992-0.896-30.752-1.782V394.021
				c9.959-1.604,22.918-2.489,36.619-2.489c22.75,0,37.502,4.092,49.064,12.793c12.435,9.25,20.26,24,20.26,45.156
				C220.261,472.405,211.905,488.226,200.346,498.003z M316.122,415.178h-32.717v97.053h-27.203v-97.053h-32.168v-22.76h92.088
				V415.178z M416.57,498.003c-12.614,10.488-31.814,15.472-55.287,15.472c-14.043,0-23.994-0.896-30.744-1.782V394.021
				c9.957-1.604,22.919-2.489,36.619-2.489c22.75,0,37.505,4.092,49.064,12.793c12.424,9.25,20.26,24,20.26,45.156
				C436.482,472.405,428.13,488.226,416.57,498.003z M97.2,366.758V21.605h250.204v110.519c0,5.961,4.83,10.8,10.8,10.8h95.396
				l0.011,223.834H97.2z"/>
		</g>
		<g>
			<polygon points="236.962,217.369 164.505,181.096 164.505,180.642 236.962,144.376 236.962,120.195 141.157,171.062 
				141.157,190.675 236.962,241.542 			"/>
			<polygon points="286.681,195.956 291.084,111.932 259.346,111.932 263.936,195.956 			"/>
			<path d="M275.313,248.883c10.781,0,17.764-8.894,17.764-20.759c-0.2-12.084-7.183-20.762-17.764-20.762
				c-10.589,0-17.972,8.672-17.972,20.762C257.342,239.981,264.534,248.883,275.313,248.883z"/>
			<polygon points="313.644,120.195 313.644,144.376 387.693,180.642 387.693,181.096 313.644,217.369 313.644,241.542 
				409.462,191.36 409.462,170.377 			"/>
			<rect x="155.25" y="274.225" width="240.3" height="16.199"/>
			<rect x="155.25" y="320.572" width="240.3" height="16.2"/>
		</g>
	</g>
</g>
<g>
</g>
<g>
</g>
<g>
</g>
<g>
</g>
<g>
</g>
<g>
</g>
<g>
</g>
<g>
</g>
<g>
</g>
<g>
</g>
<g>
</g>
<g>
</g>
<g>
</g>
<g>
</g>
<g>
</g>
</svg>
