<?xml version="1.0" encoding="iso-8859-1"?>
<!-- Generator: Adobe Illustrator 16.0.0, SVG Export Plug-In . SVG Version: 6.00 Build 0)  -->
<!DOCTYPE svg PUBLIC "-//W3C//DTD SVG 1.1//EN" "http://www.w3.org/Graphics/SVG/1.1/DTD/svg11.dtd">
<svg version="1.1" id="Capa_1" xmlns="http://www.w3.org/2000/svg" xmlns:xlink="http://www.w3.org/1999/xlink" x="0px" y="0px"
	 width="550.801px" height="550.801px" viewBox="0 0 550.801 550.801" style="enable-background:new 0 0 550.801 550.801;"
	 xml:space="preserve">
<g>
	<g>
		<path d="M475.095,132c-0.031-2.529-0.833-5.023-2.568-6.995L366.319,3.694c-0.021-0.031-0.053-0.042-0.089-0.076
			c-0.628-0.707-1.361-1.29-2.136-1.804c-0.232-0.15-0.465-0.285-0.707-0.422c-0.686-0.366-1.393-0.667-2.136-0.889
			c-0.2-0.061-0.374-0.143-0.575-0.195C359.87,0.119,359.037,0,358.198,0H97.2c-11.907,0-21.6,9.693-21.6,21.601v507.6
			c0,11.913,9.692,21.601,21.6,21.601h356.4c11.918,0,21.6-9.688,21.6-21.601V133.207C475.2,132.804,475.137,132.398,475.095,132z
			 M185.43,498.14c-11.264,9.366-28.392,13.806-49.338,13.806c-12.529,0-21.423-0.791-27.443-1.582V405.338
			c8.883-1.435,20.458-2.226,32.674-2.226c20.316,0,33.476,3.654,43.788,11.433c11.108,8.237,18.08,21.41,18.08,40.289
			C203.191,475.306,195.75,489.428,185.43,498.14z M318.685,510.838h-26.183l-9.055-46.005c-2.057-10.79-3.802-20.788-5.067-33.001
			h-0.316c-1.911,12.065-3.652,22.211-6.183,33.001l-10.159,46.005H235.23l-25.386-106.929h25.861l8.089,44.106
			c2.381,12.693,4.601,26.488,6.35,37.272h0.319c1.75-11.575,4.282-24.421,6.982-37.594l9.041-43.785h25.706l8.563,45.051
			c2.379,12.535,4.124,23.962,5.717,35.864h0.316c1.582-11.902,3.955-24.421,6.186-37.125l8.728-43.785h24.59L318.685,510.838z
			 M446.84,505.913c-7.457,2.536-21.568,6.022-35.69,6.022c-19.512,0-33.634-4.915-43.464-14.429
			c-9.84-9.207-15.24-23.161-15.071-38.865c0.158-35.532,26.009-55.846,61.077-55.846c13.8,0,24.426,2.689,29.668,5.231
			l-5.078,19.354c-5.864-2.531-13.168-4.599-24.901-4.599c-20.14,0-35.385,11.423-35.385,34.589
			c0,22.048,13.812,35.053,33.64,35.053c5.553,0,9.998-0.628,11.896-1.582v-22.376H407.03v-18.879h39.814v56.326H446.84z
			 M97.2,366.758V21.605h250.204v110.519c0,5.961,4.83,10.8,10.8,10.8h95.396l0.011,223.834H97.2z"/>
		<path d="M143.868,421.681c-5.389,0-8.883,0.479-10.948,0.954v69.957c2.07,0.475,5.4,0.475,8.409,0.475
			c21.898,0.158,36.165-11.896,36.165-37.441C177.66,433.424,164.655,421.681,143.868,421.681z"/>
	</g>
	<g>
		<path d="M458.062,139.101H237.601V96.299h-42.802v-80.48h-10.8v80.48H141.21v42.802H91.8v10.8h49.41v42.789h42.789v187.974h10.8
			V192.689h42.802V149.9h220.461V139.101z M226.8,181.889H152.01v-74.791H226.8V181.889z"/>
		<circle cx="189.398" cy="144.494" r="17.145"/>
	</g>
</g>
<g>
</g>
<g>
</g>
<g>
</g>
<g>
</g>
<g>
</g>
<g>
</g>
<g>
</g>
<g>
</g>
<g>
</g>
<g>
</g>
<g>
</g>
<g>
</g>
<g>
</g>
<g>
</g>
<g>
</g>
</svg>
