<?xml version="1.0" encoding="iso-8859-1"?>
<!-- Generator: Adobe Illustrator 16.0.0, SVG Export Plug-In . SVG Version: 6.00 Build 0)  -->
<!DOCTYPE svg PUBLIC "-//W3C//DTD SVG 1.1//EN" "http://www.w3.org/Graphics/SVG/1.1/DTD/svg11.dtd">
<svg version="1.1" id="Capa_1" xmlns="http://www.w3.org/2000/svg" xmlns:xlink="http://www.w3.org/1999/xlink" x="0px" y="0px"
	 width="550.801px" height="550.801px" viewBox="0 0 550.801 550.801" style="enable-background:new 0 0 550.801 550.801;"
	 xml:space="preserve">
<g>
	<g>
		<g>
			<path d="M162.989,417.678c-6.162,0-10.154,0.543-12.514,1.097v79.987c2.359,0.538,6.172,0.538,9.613,0.538
				c25.033,0.19,41.352-13.605,41.352-42.805C201.625,431.104,186.754,417.678,162.989,417.678z"/>
			<path d="M475.095,132c-0.031-2.529-0.828-5.023-2.562-6.995L366.325,3.694c-0.021-0.031-0.053-0.042-0.085-0.074
				c-0.633-0.709-1.36-1.292-2.141-1.803c-0.232-0.153-0.464-0.288-0.707-0.422c-0.686-0.369-1.392-0.67-2.13-0.892
				c-0.2-0.061-0.38-0.143-0.58-0.195C359.87,0.119,359.048,0,358.204,0H97.2c-11.907,0-21.6,9.695-21.6,21.601v507.6
				c0,11.913,9.692,21.601,21.6,21.601h356.4c11.918,0,21.6-9.688,21.6-21.601V133.207C475.2,132.804,475.137,132.398,475.095,132z
				 M210.514,505.106c-12.873,10.71-32.464,15.783-56.408,15.783c-14.333,0-24.484-0.896-31.385-1.814V398.999
				c10.157-1.635,23.398-2.542,37.362-2.542c23.219,0,38.275,4.166,50.069,13.068c12.695,9.423,20.677,24.479,20.677,46.063
				C230.834,478.986,222.308,495.123,210.514,505.106z M307.368,519.624l-11.063-22.128c-4.535-8.532-7.436-14.887-10.885-21.947
				h-0.364c-2.536,7.066-5.626,13.415-9.434,21.947l-10.151,22.128h-31.569l35.369-61.847l-34.101-60.418h31.741l10.697,22.312
				c3.631,7.436,6.352,13.421,9.252,20.313h0.364c2.9-7.783,5.258-13.236,8.343-20.313l10.336-22.312h31.566l-34.467,59.68
				l36.275,62.585H307.368L307.368,519.624z M428.879,420.04h-46.977v27.938h43.896v22.486h-43.896v49.159h-27.759v-122.26h74.729
				v22.676H428.879z M97.2,366.758V21.605h250.204v110.519c0,5.961,4.83,10.8,10.8,10.8h95.396l0.011,223.834H97.2z"/>
		</g>
		<path d="M396.816,316.649c-13.896-32.976-27.812-65.952-41.745-98.914c-7.646-18.085-15.356-36.126-22.992-54.216
			c-8.321-19.694-16.627-39.398-24.838-59.142c-1.793-4.319-4.482-7.301-9.249-8.06c-0.222-0.04-70.997,0.258-71.139,0.258
			c-4.474-0.055-7.029,2.542-8.662,6.328c-2.236,5.21-4.396,10.449-6.581,15.67c-8.14,19.462-16.276,38.908-24.403,58.364
			c-10.157,24.305-20.311,48.605-30.462,72.91c-0.901,2.144-1.938,4.256-2.673,6.466c-0.393,1.176-0.651,2.299-0.804,3.38
			l-0.166-0.179c0,0,0.021,0.372,0.063,1.055c-0.14,1.587-0.032,3.066,0.303,4.417l16.777,46.728
			c5.055,16.391,12.675,11.17,21.379,7.604c8.712-3.564,104.269-44.278,104.269-44.278l-125.307-1.269l45.03-3.617l42.338-102.099
			l-18.857-60.162l24.975,53.473c5.751,13.64,11.465,27.29,17.221,40.927c10.341,24.472,20.714,48.922,31.034,73.414
			c8.569,20.324,9.345,22.117,17.877,42.462c22.375,0,44.739,0,67.109,0C394.569,311.471,399.621,323.325,396.816,316.649z"/>
	</g>
</g>
<g>
</g>
<g>
</g>
<g>
</g>
<g>
</g>
<g>
</g>
<g>
</g>
<g>
</g>
<g>
</g>
<g>
</g>
<g>
</g>
<g>
</g>
<g>
</g>
<g>
</g>
<g>
</g>
<g>
</g>
</svg>
