<?xml version="1.0" encoding="iso-8859-1"?>
<!-- Generator: Adobe Illustrator 16.0.0, SVG Export Plug-In . SVG Version: 6.00 Build 0)  -->
<!DOCTYPE svg PUBLIC "-//W3C//DTD SVG 1.1//EN" "http://www.w3.org/Graphics/SVG/1.1/DTD/svg11.dtd">
<svg version="1.1" id="Capa_1" xmlns="http://www.w3.org/2000/svg" xmlns:xlink="http://www.w3.org/1999/xlink" x="0px" y="0px"
	 width="550.801px" height="550.801px" viewBox="0 0 550.801 550.801" style="enable-background:new 0 0 550.801 550.801;"
	 xml:space="preserve">
<g>
	<g>
		<path d="M475.095,131.986c-0.032-2.525-0.833-5.015-2.568-6.992L366.324,3.684c-0.021-0.029-0.053-0.045-0.084-0.071
			c-0.633-0.712-1.36-1.289-2.141-1.803c-0.232-0.15-0.465-0.29-0.707-0.422c-0.686-0.372-1.393-0.669-2.131-0.891
			c-0.2-0.058-0.379-0.145-0.58-0.188C359.87,0.114,359.047,0,358.203,0H97.2C85.292,0,75.6,9.688,75.6,21.601v507.6
			c0,11.907,9.692,21.601,21.6,21.601H453.6c11.918,0,21.601-9.693,21.601-21.601V133.197
			C475.2,132.791,475.137,132.393,475.095,131.986z M217.371,516.744h-83.587V385.731h80.866v24.3h-51.121v27.211h48.21v24.1h-48.21
			v31.103h53.842V516.744z M319.434,516.744H237.6V385.731h29.742v106.133h52.091V516.744z M417.023,410.031h-50.351v29.932h47.039
			v24.1h-47.039v52.682h-29.742V385.731h80.093V410.031z M97.2,366.747V21.601h250.203v110.51c0,5.962,4.831,10.8,10.8,10.8H453.6
			l0.011,223.837H97.2z"/>
		<path d="M280.305,308.201c-4.256-2.721-7.702-5.906-10.03-10.283c-2.078-3.913-4.525-4.261-4.525,0.174
			c0,4.583,2.777,7.82,8.485,11.006c1.809,1.002,4.225,1.629,4.287,4.177c0.059,2.193-1.888,3.259-3.622,3.86
			c-9.856,3.396-18.61,8.585-27.143,14.575c-6.286,4.409-13.3,1.055-13.466-5.979c-0.271-10.531,0.527-21.084-1.287-31.567
			c-0.351-1.993-0.189-4.577,2.392-5.273c2.344-0.638,3.133,1.614,4.063,3.164c3.14,5.306,7.812,6.513,13.331,4.81
			c7.609-2.342,16.01-14.418,15.066-22.391c-1.756-14.953-6.204-29.247-16.406-40.532c-2.9-3.209-5.653-6.697-7.878-10.412
			c-0.625-1.058-1.176-2.139-1.738-3.214c-2.766-5.128-5.563-12.5-6.27-17.684c-0.701-4.082-0.593-18.03-3.122-25.727
			c-2.412-6.845-6.966-13.601-13.46-17.128c-4.63-2.515-10.062-4.261-15.349-4.482c-2.958-0.124-6.151,0.164-9.028,0.88
			c-10.401,2.587-16.864,11.021-18.111,24.079c-0.351,3.72-0.356,7.538,0.098,11.243c2.109,17.355,0.285,32.89-12.67,46.878
			c-9.018,9.74-10.971,24.165-16.371,36.353c-1.946,4.408-1.729,9.629,5.999,8.965c2.428-0.217,4.308,1.787,5.875,3.533
			c8.343,9.334,15.169,19.717,20.641,30.944c1.954,4.019,3.314,8.648-0.077,12.656c-3.159,3.733-7.728,3.254-11.831,2.352
			c-10.547-2.299-21.007-4.967-31.493-7.509c-4.673-1.129-6.162-3.808-4.077-8.343c1.213-2.626,1.759-5.458,0.454-8.195
			c-2.956-6.159-1.034-8.954,5.685-9.787c3.186-0.4,5.74-1.571,7.167-4.029c2.23-3.828-0.762-4.514-4.52-2.151
			c-2.642,1.65-5.537,2.362-8.738,2.647c-4.633,0.422-6.122,3.67-5.239,8.179c0.902,4.572,1.695,8.991-0.058,13.801
			c-2.7,7.335-0.892,10.479,6.879,12.113c3.932,0.833,37.223,9.576,37.842,9.84c5.909,2.568,18.425-13.863,23-13.863
			c0.335,0,0.659,0,0.989,0c8.256,0,17.191,2.684,25.083,2.626c2.985-0.021,5.287,2.525,7.425,4.725
			c7.343,7.488,16.248,8.596,24.255,1.762c5.579-4.768,11.551-8.464,18.225-11.527c0.313-0.138,0.622-0.243,0.929-0.344
			c0.509-0.179,3.952-2.346,7.068-5.5C282.646,313.971,284.006,310.574,280.305,308.201z M223.699,309.952
			c-9.658,9.972-20.798,11.78-33.339,6.217c-1.025-0.453-7.29-2.251-5.168-4.767c3.618-4.304,2.371-8.285-1.376-11.808
			c-2.587-2.437-9.126-8.152-13.537-13.221c-2.911-3.349-6.049-9.919-6.858-14.272c-1.571-8.44-0.406-18.167-0.406-18.167
			c0.156-0.954,0.491-1.408,0.87-1.587c0.939-0.443,0.783,3.992,1.079,8.414c0.034,0.443,0.071,0.891,0.118,1.324
			c0.509,4.4,2.492,4.222,3.7-0.05c1.854-6.534,4.533-12.831,7.928-19.093c2.753-5.084,2.025-12.185,5.303-17.864
			c1.912-3.322,3.104-4.435,5.74-0.896c3.887,5.221,8.435,5.081,13.458,1.553c3.654-2.553,7.499-4.815,11.224-7.277
			c1.463-0.957,4.089-1.788,2.706-4.029c-1.237-1.999-3.386-0.475-5.055,0.269c-2.908,1.313-5.695,3.064-8.968,4.105
			c-4.224,1.35-4.59-0.562-0.458-2.186c4.572-1.798,8.796-3.462,13.001-5.163c1.495-0.606,3.618-1.545,2.637-3.399
			c-1.128-2.114-2.803-0.203-4.163,0.448c-5.991,2.848-12.185,4.931-18.911,4.849c-4.25-0.053-7.583-2.299-8.651-6.03
			c-1.034-3.642,3.272-4.396,5.344-6.421c0.741-0.725,1.485-1.366,2.226-1.901c1.318-0.947,2.521-1.643,2.494-1.978
			c-0.016-0.34,0-0.599,0-0.599c0.351-2.628,0.269-4.556-0.053-5.967c-0.746-3.23-7.053-4.456-9.001-2.046
			c-1.709,2.107-1.709,5.261-1.709,5.261c0.093,1.202-0.203,1.846-0.635,2.175c-1.036,0.783-2.42-3.662-1.086-7.884
			c1.474-4.667,4.095-5.389,6.956-5.389c10.491-0.005,9.595,14.546,9.26,14.829c-0.031,0.032-0.063,0.048-0.098,0.069
			c-0.053,0.034,1.044,0.361,2.226,1.147c1.194,0.786,2.405-0.05,2.576-2.194c0.098-1.297,0.14-2.613,0.232-3.886
			c0.082-8.527,4.894-10.458,8.533-9.964c10.758,1.442,9.429,14.546,9.094,14.829c-1.173,0.976-1.972,1.321-2.534,1.316
			c-1.603-0.005-1.041-2.937-0.933-3.757c0.082-0.52,0.124-1.01,0.174-1.479c0-0.901-0.035-1.835-0.143-2.771
			c-0.182-1.517-1.058-3.552-1.985-4.18c-0.941-0.633-5.218-1.165-7.193,1.5c-1.982,2.673-1.951,7.162-1.777,9.015
			c0.113,1.263,0.422,2.46,1.263,3.006c1.761,1.139,3.662,2.193,5.647,2.824c3.997,1.271,5.854,3.43,4.73,7.847
			c-0.896,3.535-0.068,6.939,1.788,10.141c6.254,10.902,13.318,30.747,16.369,44.869c0.944,4.337,2.423,6.913,3.325,5.363
			c0.891-1.556,2.041-6.502,2.262-10.924c0.271-5.173-0.053-12.042-2.597-17.972c-1.748-4.071-1.231-4.714,1.281-1.057
			c2.813,4.108,5.463,10.755,4.601,20.814c-0.379,4.425,0.187,9.34,2.001,11.077c1.827,1.737,0.406,1.495-3.335,1.959
			c-3.736,0.464-6.038,3.887-6.318,5.016c-0.211,0.864-0.551,1.477-1.033,1.782c-9.023,5.432-7.802,13.421-7.101,21.632
			C229.624,305.701,224.487,309.129,223.699,309.952z M193.174,190.506c1.086,2.271,0.098,2.603-0.836,0.472
			C191.402,188.845,192.088,188.238,193.174,190.506z M214.516,189.52c-1.35-1.848-0.443-2.776,1.139-0.838
			C217.226,190.614,215.865,191.36,214.516,189.52z"/>
		<path d="M342.014,126.798c-4.904-1.901-8.943-5.833-10.958-10.745c-2.035-4.889-1.972-10.494,0.153-15.358
			c0.189-0.443,0.1-0.979-0.259-1.329l-10.567-10.568c-0.349-0.351-0.892-0.448-1.335-0.258c-4.856,2.133-10.457,2.196-15.351,0.16
			c-4.894-2.014-8.838-6.035-10.747-10.981c-0.127-0.304-0.306-0.752-1.129-0.757l-14.955-0.005
			c-0.496,0.005-0.949,0.325-1.129,0.783c-1.925,4.941-5.835,8.936-10.742,10.971c-4.889,2.025-10.479,1.962-15.354-0.166
			c-0.453-0.195-0.983-0.103-1.339,0.259l-10.579,10.578c-0.345,0.346-0.442,0.87-0.248,1.329
			c2.138,4.864,2.186,10.449,0.171,15.354c-2.036,4.896-6.041,8.822-10.987,10.745c-0.453,0.185-0.762,0.633-0.762,1.124
			l-0.011,14.963c0.011,0.828,0.443,0.994,0.783,1.118c2.521,0.989,4.801,2.468,6.724,4.396c1.835,1.832,3.262,3.963,4.237,6.357
			c2.03,4.902,1.978,10.497-0.15,15.356c-0.195,0.443-0.098,0.989,0.258,1.334l10.563,10.568c0.355,0.356,0.886,0.454,1.329,0.259
			c4.87-2.128,10.46-2.191,15.364-0.161c4.772,1.98,8.59,5.827,10.573,10.558c0.491-0.401,1.045-0.73,1.656-0.973
			c0.87-0.334,1.571-1.015,1.909-1.846c0.343-0.812,0.332-1.793-0.032-2.61c-1.075-2.51-0.537-5.329,1.361-7.219l5.015-5.005
			c1.888-1.896,4.698-2.441,7.167-1.381c0.864,0.372,1.851,0.388,2.668,0.047c0.812-0.34,1.498-1.031,1.814-1.858
			c0.985-2.5,3.428-4.158,6.085-4.158h7.082c1.777,0.01,3.407,0.68,4.614,1.88l0.834,0.838l0.574,1.31
			c0.417,1.065,1.061,1.659,1.861,1.988c0.839,0.346,1.819,0.34,2.632-0.026c2.357-1.01,4.962-0.551,6.86,1.103l3.291-3.302
			c0.338-0.34,0.443-0.891,0.253-1.35c-2.13-4.859-2.183-10.455-0.158-15.341c2.036-4.909,6.027-8.83,10.975-10.758
			c0.442-0.171,0.765-0.625,0.765-1.118v-14.958C342.784,127.101,342.352,126.927,342.014,126.798z M304.91,155.968
			c-11.338,11.34-29.784,11.335-41.13-0.011c-11.33-11.333-11.33-29.769,0.01-41.109c11.328-11.335,29.787-11.351,41.12-0.01
			C316.248,126.178,316.237,144.635,304.91,155.968z"/>
		<path d="M328.498,208.322c0.965-2.323,2.854-4.179,5.2-5.089c0.211-0.079,0.353-0.306,0.363-0.533v-7.084
			c0-0.391-0.216-0.483-0.363-0.541c-2.326-0.896-4.251-2.766-5.2-5.081c-0.965-2.323-0.934-4.973,0.079-7.28
			c0.095-0.211,0.042-0.458-0.116-0.627l-5.01-5.01c-0.168-0.169-0.422-0.216-0.633-0.124c-2.299,1.015-4.957,1.036-7.267,0.087
			c-2.325-0.957-4.187-2.863-5.094-5.207c-0.063-0.14-0.147-0.356-0.538-0.361h-7.093c-0.232,0-0.453,0.152-0.543,0.369
			c-0.907,2.341-2.764,4.227-5.078,5.194c-2.326,0.959-4.968,0.933-7.272-0.077c-0.211-0.092-0.475-0.055-0.644,0.113l-5.01,5.01
			c-0.169,0.168-0.211,0.422-0.11,0.638c1.007,2.302,1.039,4.952,0.079,7.27c-0.965,2.32-2.858,4.189-5.205,5.097
			c-0.211,0.082-0.354,0.303-0.354,0.53v7.095c0,0.394,0.2,0.47,0.364,0.53c1.197,0.47,2.272,1.166,3.19,2.083
			c0.859,0.865,1.534,1.875,2.004,3.003c0.96,2.326,0.938,4.979-0.079,7.277c-0.101,0.211-0.042,0.473,0.121,0.639l5.01,5.007
			c0.158,0.166,0.411,0.216,0.622,0.119c2.31-1.01,4.957-1.039,7.283-0.077c2.32,0.968,4.171,2.866,5.089,5.2
			c0.068,0.158,0.147,0.361,0.532,0.366l7.093-0.005c0.232,0,0.443-0.145,0.527-0.361c0.918-2.345,2.773-4.237,5.094-5.2
			c2.32-0.968,4.968-0.933,7.277,0.082c0.211,0.084,0.465,0.047,0.633-0.119l5.01-5.007c0.158-0.166,0.211-0.427,0.116-0.638
			C327.564,213.295,327.533,210.643,328.498,208.322z M296.631,208.899c-5.368-5.379-5.368-14.104,0.011-19.478
			c5.363-5.368,14.096-5.384,19.475-0.005c5.368,5.374,5.368,14.114-0.005,19.482C310.737,214.273,302.005,214.268,296.631,208.899z
			"/>
	</g>
</g>
<g>
</g>
<g>
</g>
<g>
</g>
<g>
</g>
<g>
</g>
<g>
</g>
<g>
</g>
<g>
</g>
<g>
</g>
<g>
</g>
<g>
</g>
<g>
</g>
<g>
</g>
<g>
</g>
<g>
</g>
</svg>
