<?xml version="1.0" encoding="iso-8859-1"?>
<!-- Generator: Adobe Illustrator 16.0.0, SVG Export Plug-In . SVG Version: 6.00 Build 0)  -->
<!DOCTYPE svg PUBLIC "-//W3C//DTD SVG 1.1//EN" "http://www.w3.org/Graphics/SVG/1.1/DTD/svg11.dtd">
<svg version="1.1" id="Capa_1" xmlns="http://www.w3.org/2000/svg" xmlns:xlink="http://www.w3.org/1999/xlink" x="0px" y="0px"
	 width="550.801px" height="550.801px" viewBox="0 0 550.801 550.801" style="enable-background:new 0 0 550.801 550.801;"
	 xml:space="preserve">
<g>
	<g>
		<g>
			<path d="M475.095,131.992c-0.031-2.526-0.833-5.023-2.568-6.993L366.319,3.694c-0.021-0.034-0.053-0.045-0.089-0.076
				c-0.628-0.707-1.361-1.292-2.136-1.804c-0.232-0.153-0.465-0.287-0.707-0.422c-0.686-0.366-1.393-0.67-2.136-0.892
				c-0.2-0.058-0.374-0.14-0.575-0.195C359.87,0.119,359.037,0,358.198,0H97.2c-11.907,0-21.6,9.693-21.6,21.601v507.6
				c0,11.913,9.692,21.601,21.6,21.601h356.4c11.918,0,21.6-9.688,21.6-21.601V133.202
				C475.2,132.796,475.137,132.398,475.095,131.992z M212.538,526.306h-85.503V392.302h82.716v24.854h-52.294v27.828h49.31v24.659
				h-49.31v31.809h55.076v24.854H212.538z M317.113,464.87c-10.336,9.739-25.65,14.116-43.548,14.116
				c-3.977,0-7.552-0.2-10.336-0.596v47.915H233.2V394.084c9.342-1.582,22.475-2.778,40.964-2.778
				c18.691,0,32.012,3.575,40.956,10.736c8.554,6.755,14.317,17.888,14.317,31.013C329.438,446.181,325.065,457.312,317.113,464.87z
				 M381.523,528.293c-15.314,0-30.418-3.976-37.979-8.152l6.17-25.054c8.152,4.171,20.672,8.348,33.603,8.348
				c13.911,0,21.272-5.759,21.272-14.513c0-8.354-6.37-13.131-22.465-18.89c-22.274-7.752-36.787-20.081-36.787-39.566
				c0-22.86,19.09-40.368,50.698-40.368c15.114,0,26.252,3.19,34.204,6.761l-6.761,24.458c-5.368-2.584-14.913-6.365-28.033-6.365
				c-13.131,0-19.485,5.965-19.485,12.926c0,8.553,7.546,12.329,24.864,18.889c23.656,8.754,34.788,21.073,34.788,39.963
				C435.607,509.209,418.295,528.293,381.523,528.293z M97.2,366.752V21.601h250.204v110.515c0,5.961,4.83,10.8,10.8,10.8h95.396
				l0.011,223.836H97.2z"/>
			<path d="M275.756,414.166c-6.172,0-10.346,0.596-12.527,1.196v39.567c2.586,0.59,5.767,0.791,10.135,0.791
				c16.105,0,26.051-8.153,26.051-21.875C299.416,421.527,290.862,414.166,275.756,414.166z"/>
		</g>
		<path d="M366.251,266.944l-52.581-62.743v-9.914h-8.312l-55.993-66.82v-14.03h-16.917v16.922h12.306l41.863,49.958
			c-13.648-8.928-29.513-13.916-46.219-14.188c-19.43-0.372-38.129,5.817-53.557,17.358h-12.901v15.524h15.525v-10.763
			c14.531-11.048,32.168-16.836,50.847-16.725c21.874,0.358,42.292,9.212,57.512,24.927c0.11,0.119,0.2,0.248,0.316,0.367v12.988
			h10.146c18.637,29.607,16.4,68.505-6.307,95.853h-11.602v15.525h15.525v-11.802c21.367-25.534,25.871-60.595,13.289-90.187
			l40.731,48.605v16.068h16.923v-16.925H366.251z M237.848,118.837h6.117v6.123h-6.117V118.837z M371.451,278.459h-6.117v-6.123
			h6.117V278.459z"/>
	</g>
</g>
<g>
</g>
<g>
</g>
<g>
</g>
<g>
</g>
<g>
</g>
<g>
</g>
<g>
</g>
<g>
</g>
<g>
</g>
<g>
</g>
<g>
</g>
<g>
</g>
<g>
</g>
<g>
</g>
<g>
</g>
</svg>
