<?xml version="1.0" encoding="iso-8859-1"?>
<!-- Generator: Adobe Illustrator 16.0.0, SVG Export Plug-In . SVG Version: 6.00 Build 0)  -->
<!DOCTYPE svg PUBLIC "-//W3C//DTD SVG 1.1//EN" "http://www.w3.org/Graphics/SVG/1.1/DTD/svg11.dtd">
<svg version="1.1" id="Capa_1" xmlns="http://www.w3.org/2000/svg" xmlns:xlink="http://www.w3.org/1999/xlink" x="0px" y="0px"
	 width="550.801px" height="550.801px" viewBox="0 0 550.801 550.801" style="enable-background:new 0 0 550.801 550.801;"
	 xml:space="preserve">
<g>
	<g>
		<path d="M475.095,131.992c-0.032-2.526-0.833-5.021-2.568-6.993L366.324,3.694c-0.021-0.034-0.053-0.045-0.084-0.076
			c-0.633-0.707-1.36-1.29-2.141-1.804c-0.232-0.15-0.465-0.285-0.707-0.422c-0.686-0.366-1.393-0.67-2.131-0.892
			c-0.2-0.058-0.379-0.14-0.58-0.192C359.87,0.114,359.047,0,358.203,0H97.2C85.292,0,75.6,9.693,75.6,21.601v507.6
			c0,11.913,9.692,21.601,21.6,21.601H453.6c11.918,0,21.601-9.688,21.601-21.601V133.202
			C475.2,132.796,475.137,132.398,475.095,131.992z M346.074,233.561c0.158-0.081,0.316-0.179,0.475-0.253
			c1.076-0.551,2.205-1.004,3.312-1.484c0.801-0.34,1.587-0.725,2.394-1.025c0.332-0.127,0.686-0.217,1.013-0.338
			c17.967-6.402,38.67-4.276,55.371,7.589c27.147,19.301,33.539,57.063,14.249,84.232c-9.788,13.753-24.321,22.17-39.825,24.632
			c-1.771,0.28-3.555,0.507-5.315,0.628c-0.053,0-0.095,0-0.127,0c-30.475,1.951-58.171-19.454-63.376-50.214
			C309.751,270.81,323.367,245.323,346.074,233.561z M97.2,21.601h250.203v110.515c0,5.961,4.831,10.8,10.8,10.8H453.6v52.078
			l-22.127-15.712c-1.393-0.999-2.215-0.472-2.832-0.076c-0.005,0.005-0.016,0.011-0.016,0.011c-0.042,0.021-0.095,0.01-0.127,0.037
			c-3.459,2.27-7.225,3.976-11.153,5.089c-0.258,0.074-0.521,0.113-0.785,0.182c-1.002,0.264-2.004,0.52-3.032,0.701
			c-5.358,0.968-10.922,0.875-16.29-0.372c-10.726-2.423-20.139-9.281-25.818-18.744c-0.517-0.857-1.535-1.342-2.553-1.171
			l-30.628,5.184c-1.018,0.174-1.841,0.968-2.052,1.946c-2.235,10.8-8.859,20.366-18.188,26.193
			c-9.308,5.874-20.862,7.707-31.551,5.002c-0.665-0.153-1.625-0.412-2.632,0.999l-12.445,17.489
			c-0.037-0.016-0.082-0.026-0.113-0.047l-5.622,7.894c-0.578,0.825-0.588,1.985-0.047,2.845c6.043,9.223,8.11,20.656,5.658,31.385
			c-2.473,10.752-9.305,20.189-18.766,25.832c-0.856,0.506-1.345,1.561-1.181,2.567l5.189,30.634
			c0.285,1.688,1.237,1.898,1.954,2.051c10.721,2.189,20.358,8.844,26.195,18.21c4.451,7.056,6.556,15.361,6.16,23.63H97.2V21.601z
			 M207.059,522.192h-83.586V391.184h80.863v24.29h-51.121v27.222h48.21v24.1h-48.21v31.103h53.844V522.192z M296.293,522.192
			l-11.865-23.715c-4.852-9.134-7.963-15.937-11.651-23.52h-0.39c-2.722,7.583-6.031,14.386-10.115,23.52l-10.884,23.715h-33.816
			l37.897-66.282l-36.537-64.727h34.014l11.464,23.915c3.895,7.963,6.806,14.381,9.914,21.764h0.391
			c3.111-8.353,5.632-14.186,8.943-21.764l11.074-23.915h33.824l-36.936,63.951l38.876,67.062h-34.204V522.192z M430.038,522.192
			h-83.584V391.184h80.853v24.29h-51.121v27.222h48.21v24.1h-48.21v31.103h53.853V522.192z"/>
		<path d="M244.69,251.121c-3.768-3.261-6.075-7.976-6.339-12.943c-0.261-4.978,1.561-9.919,4.973-13.542
			c0.319-0.335,0.393-0.844,0.2-1.253l-4.147-8.717c0.021-0.016,0.042-0.037,0.063-0.042l-1.883-3.952
			c-0.071-0.153-0.195-0.246-0.324-0.341c-0.011-0.016-0.029-0.034-0.05-0.05c-0.058-0.047-0.108-0.092-0.172-0.124
			c-0.147-0.068-0.298-0.113-0.432-0.103c-0.055-0.005-0.098-0.026-0.134-0.032c-4.968,0.356-9.938-1.35-13.624-4.683
			c-3.699-3.335-5.919-8.105-6.064-13.083c-0.011-0.448-0.319-0.875-0.762-1.031l-13.226-4.693
			c-0.728-0.258-1.015,0.077-1.237,0.319c-0.005,0.005-0.005,0.005-0.005,0.016c-0.021,0.005-0.037,0.011-0.059,0.026
			c-1.221,1.411-2.642,2.621-4.213,3.586c-0.103,0.066-0.208,0.119-0.316,0.18c-0.401,0.242-0.812,0.464-1.237,0.675
			c-2.209,1.078-4.635,1.727-7.13,1.846c-4.962,0.271-9.898-1.551-13.532-4.962c-0.329-0.309-0.83-0.388-1.252-0.195l-12.675,6.032
			c-0.422,0.206-0.681,0.654-0.649,1.097c0.359,4.973-1.339,9.951-4.669,13.634c-3.322,3.705-8.121,5.922-13.102,6.064
			c-0.311,0.026-0.759,0.026-1.02,0.76l-3.251,9.139c-0.01,0-0.037,0-0.053-0.011l-1.468,4.129c-0.15,0.433-0.006,0.937,0.334,1.25
			c3.763,3.259,6.075,7.974,6.328,12.936c0.253,4.981-1.55,9.922-4.967,13.545c-0.309,0.33-0.388,0.841-0.195,1.253l6.043,12.685
			c0.334,0.702,0.767,0.665,1.102,0.646c4.925-0.366,9.935,1.339,13.624,4.688c3.705,3.322,5.906,8.096,6.069,13.073
			c0.011,0.454,0.314,0.87,0.744,1.034l13.226,4.683c0.087,0.031,0.166,0.011,0.253,0.011c0.596,0.142,0.865-0.133,1.055-0.369
			c0.831-0.955,1.748-1.825,2.753-2.584c0.05-0.032,0.098-0.063,0.134-0.096c0.433-0.337,0.886-0.633,1.339-0.917
			c0.346-0.211,0.715-0.406,1.076-0.591c0.166-0.095,0.34-0.189,0.517-0.274c2.194-1.065,4.601-1.698,7.063-1.824
			c4.952-0.27,9.92,1.55,13.55,4.968c0.232,0.205,0.548,0.517,1.252,0.189l12.678-6.033c0.018-0.005,0.023-0.01,0.034-0.016
			l0.031-0.016c0.433-0.206,0.675-0.639,0.649-1.103c-0.361-4.968,1.345-9.935,4.68-13.634c1.94-2.139,4.374-3.773,7.042-4.807
			c0.129-0.047,0.274-0.113,0.412-0.161c0.227-0.082,0.464-0.14,0.696-0.222c0.382-0.119,0.773-0.237,1.15-0.34
			c0.065-0.011,0.113-0.021,0.179-0.037c1.149-0.261,2.336-0.427,3.531-0.459c0.464-0.023,0.87-0.309,1.031-0.762l4.704-13.231
			C245.17,251.915,245.041,251.436,244.69,251.121z M216.691,249.75c-2.56,7.188-7.842,12.641-14.273,15.623
			c-0.738,0.34-1.479,0.664-2.23,0.928c-0.021,0.006-0.042,0.016-0.063,0.021c-13.004,4.606-27.686-1.279-33.75-14.006
			c-5.215-10.969-2.436-23.733,5.973-31.643c0.058-0.05,0.113-0.122,0.179-0.174c0.393-0.367,0.825-0.707,1.252-1.052
			c0.311-0.25,0.593-0.514,0.912-0.746c0.124-0.092,0.269-0.174,0.398-0.269c7.016-4.997,16.281-6.632,25.009-3.528
			C214.283,219.937,221.725,235.56,216.691,249.75z"/>
		<path d="M226.913,133.785c0.248,4.973-1.55,9.919-4.967,13.544c-0.309,0.327-0.39,0.841-0.201,1.258l6.044,12.672
			c0.334,0.704,0.772,0.675,1.107,0.653c4.922-0.372,9.935,1.334,13.624,4.683c3.705,3.325,5.906,8.1,6.064,13.078
			c0.016,0.454,0.316,0.87,0.749,1.031l13.226,4.693c0.087,0.021,0.167,0,0.253,0.011c0.593,0.14,0.859-0.14,1.052-0.372
			c0.833-0.962,1.751-1.832,2.755-2.586c0.042-0.032,0.098-0.061,0.134-0.092c0.433-0.33,0.876-0.638,1.34-0.923
			c0.345-0.211,0.717-0.406,1.076-0.588c0.166-0.098,0.335-0.195,0.517-0.277c2.193-1.068,4.59-1.696,7.059-1.819
			c4.957-0.277,9.93,1.545,13.547,4.967c0.227,0.206,0.56,0.525,1.261,0.19l12.677-6.033c0.011,0,0.021-0.016,0.026-0.016
			l0.043-0.016c0.422-0.206,0.675-0.639,0.643-1.097c-0.358-4.973,1.351-9.94,4.684-13.634c1.94-2.144,4.377-3.781,7.045-4.812
			c0.127-0.053,0.274-0.113,0.406-0.155c0.227-0.087,0.469-0.147,0.701-0.227c0.374-0.113,0.76-0.237,1.149-0.335
			c0.053-0.011,0.111-0.016,0.174-0.04c1.155-0.264,2.337-0.424,3.533-0.458c0.47-0.021,0.87-0.311,1.028-0.759l4.704-13.231
			c0.147-0.438,0.021-0.923-0.332-1.231c-3.775-3.262-6.075-7.981-6.339-12.949c-0.248-4.979,1.556-9.914,4.973-13.542
			c0.316-0.33,0.391-0.838,0.19-1.255l-4.135-8.709c0.021-0.016,0.032-0.037,0.063-0.042l-1.888-3.952
			c-0.068-0.148-0.2-0.245-0.316-0.343c-0.016-0.016-0.032-0.032-0.053-0.048c-0.063-0.042-0.111-0.092-0.174-0.124
			c-0.148-0.076-0.301-0.108-0.433-0.108c-0.059-0.005-0.101-0.032-0.132-0.032c-4.973,0.351-9.94-1.35-13.627-4.678
			c-3.702-3.338-5.917-8.105-6.069-13.088c-0.006-0.454-0.312-0.87-0.754-1.034l-13.227-4.69c-0.738-0.261-1.022,0.076-1.244,0.319
			c0,0.005,0,0.005,0,0.005c-0.021,0.011-0.037,0.016-0.058,0.031c-1.219,1.403-2.647,2.619-4.214,3.586
			c-0.105,0.059-0.216,0.119-0.316,0.18c-0.406,0.242-0.812,0.464-1.239,0.675c-2.21,1.079-4.638,1.728-7.122,1.851
			c-4.967,0.264-9.903-1.556-13.537-4.967c-0.335-0.309-0.833-0.396-1.252-0.195l-12.68,6.038c-0.422,0.2-0.675,0.648-0.644,1.089
			c0.356,4.976-1.34,9.954-4.675,13.643c-3.317,3.704-8.116,5.922-13.097,6.057c-0.314,0.023-0.762,0.023-1.021,0.767l-3.251,9.136
			c-0.011-0.005-0.037,0-0.053-0.005l-1.474,4.126c-0.147,0.438-0.01,0.936,0.34,1.247
			C224.353,124.103,226.666,128.817,226.913,133.785z M255.706,111.391c0.066-0.047,0.114-0.113,0.172-0.166
			c0.4-0.369,0.833-0.709,1.26-1.06c0.311-0.242,0.598-0.506,0.912-0.743c0.129-0.087,0.269-0.174,0.398-0.272
			c7.017-5,16.276-6.631,25.004-3.531c14.186,5.039,21.621,20.664,16.585,34.853c-2.558,7.19-7.836,12.641-14.27,15.622
			c-0.743,0.338-1.477,0.662-2.23,0.929c-0.021,0-0.042,0.01-0.063,0.016c-13.004,4.611-27.686-1.281-33.739-14.009
			C244.511,132.068,247.292,119.312,255.706,111.391z"/>
	</g>
</g>
<g>
</g>
<g>
</g>
<g>
</g>
<g>
</g>
<g>
</g>
<g>
</g>
<g>
</g>
<g>
</g>
<g>
</g>
<g>
</g>
<g>
</g>
<g>
</g>
<g>
</g>
<g>
</g>
<g>
</g>
</svg>
