<?xml version="1.0" encoding="iso-8859-1"?>
<!-- Generator: Adobe Illustrator 16.0.0, SVG Export Plug-In . SVG Version: 6.00 Build 0)  -->
<!DOCTYPE svg PUBLIC "-//W3C//DTD SVG 1.1//EN" "http://www.w3.org/Graphics/SVG/1.1/DTD/svg11.dtd">
<svg version="1.1" id="Capa_1" xmlns="http://www.w3.org/2000/svg" xmlns:xlink="http://www.w3.org/1999/xlink" x="0px" y="0px"
	 width="550.801px" height="550.801px" viewBox="0 0 550.801 550.801" style="enable-background:new 0 0 550.801 550.801;"
	 xml:space="preserve">
<g>
	<g>
		<path d="M373.549,413.153h-0.39c-1.936,7.772-3.882,17.687-6.022,25.271l-7.768,27.791h28.962l-8.169-27.791
			C377.826,430.64,375.495,420.926,373.549,413.153z"/>
		<path d="M475.084,131.992c-0.021-2.531-0.828-5.021-2.562-6.993L366.324,3.694c-0.031-0.031-0.062-0.045-0.084-0.076
			c-0.633-0.707-1.371-1.295-2.151-1.804c-0.232-0.155-0.464-0.285-0.707-0.422c-0.675-0.366-1.392-0.675-2.13-0.896
			c-0.201-0.053-0.38-0.135-0.58-0.188C359.87,0.119,359.037,0,358.193,0H97.2C85.282,0,75.6,9.693,75.6,21.601v507.6
			c0,11.907,9.682,21.601,21.6,21.601H453.6c11.908,0,21.601-9.693,21.601-21.601V133.197
			C475.2,132.796,475.137,132.398,475.084,131.992z M201.706,415.283h-50.345v29.943h47.042v24.1h-47.042v52.671h-29.742V390.994
			h80.087V415.283z M305.901,521.997h-81.833V390.994h29.737v106.123h52.096V521.997z M402.706,521.997l-10.109-33.624h-37.515
			l-9.324,33.624H315.04l40.036-131.003h38.876l40.621,131.003H402.706z M453.6,366.747H97.2V21.601h250.192v110.51
			c0,5.97,4.842,10.8,10.801,10.8H453.6V366.747z"/>
	</g>
	<g>
		<path d="M192.871,138.091h89.258v24.353h-61.646v44.848h57.607v24.353h-57.607v68.963h-27.612V138.091z"/>
		<path d="M302.41,139.116h27.834c0,0,0,110.542,0,123.156c0,12.616,2.9,14.947,16.885,14.947c0,22.565-0.084,26.304-0.084,26.304
			c-22.021,0.596-44.64-2.668-44.64-29.112C302.41,247.957,302.41,139.116,302.41,139.116z"/>
	</g>
</g>
<g>
</g>
<g>
</g>
<g>
</g>
<g>
</g>
<g>
</g>
<g>
</g>
<g>
</g>
<g>
</g>
<g>
</g>
<g>
</g>
<g>
</g>
<g>
</g>
<g>
</g>
<g>
</g>
<g>
</g>
</svg>
