<?xml version="1.0" encoding="iso-8859-1"?>
<!-- Generator: Adobe Illustrator 16.0.0, SVG Export Plug-In . SVG Version: 6.00 Build 0)  -->
<!DOCTYPE svg PUBLIC "-//W3C//DTD SVG 1.1//EN" "http://www.w3.org/Graphics/SVG/1.1/DTD/svg11.dtd">
<svg version="1.1" id="Capa_1" xmlns="http://www.w3.org/2000/svg" xmlns:xlink="http://www.w3.org/1999/xlink" x="0px" y="0px"
	 width="550.801px" height="550.801px" viewBox="0 0 550.801 550.801" style="enable-background:new 0 0 550.801 550.801;"
	 xml:space="preserve">
<g>
	<path d="M475.095,131.992c-0.032-2.531-0.833-5.021-2.568-6.993L366.324,3.694c-0.021-0.031-0.062-0.045-0.084-0.076
		c-0.633-0.707-1.36-1.295-2.141-1.804c-0.232-0.155-0.475-0.285-0.718-0.422c-0.675-0.366-1.382-0.675-2.13-0.896
		c-0.19-0.053-0.38-0.135-0.58-0.188C359.87,0.119,359.047,0,358.203,0H97.2C85.292,0,75.6,9.693,75.6,21.601v507.6
		c0,11.907,9.692,21.601,21.6,21.601H453.6c11.908,0,21.601-9.693,21.601-21.601V133.197
		C475.2,132.796,475.137,132.398,475.095,131.992z M207.89,415.283h-50.346v29.933h47.042v24.1h-47.042v52.682h-29.737V390.983
		h80.083V415.283z M312.082,521.997h-81.831V390.983h29.742v106.134h52.088V521.997z M382.461,521.997h-34.599l-41.981-131.014
		h32.463l15.937,55.403c4.472,15.546,8.554,30.512,11.665,46.838h0.58c3.301-15.746,7.383-31.292,11.854-46.258l16.717-55.978
		h31.487L382.461,521.997z M97.2,366.747V21.601h250.203v110.51c0,5.97,4.831,10.8,10.8,10.8H453.6l0.011,223.837H97.2z"/>
	<path d="M291.927,157.784c-26.161,19.606-42.723,72.813-56.671,102.022c-13.959,29.199-39.672,25.734-39.672,25.734v34.425
		c0,0,16.124,0.443,29.624-5.199c13.542-5.664,29.225-18.336,38.404-34.003c3.564-6.131,9.028-18.745,14.963-32.709h41.281v-35.332
		h-26.183c4.028-8.975,7.673-16.577,10.446-20.903c10.041-15.681,34.899-15.283,34.899-15.283v-33.582
		C339.019,142.955,318.083,138.164,291.927,157.784z"/>
</g>
<g>
</g>
<g>
</g>
<g>
</g>
<g>
</g>
<g>
</g>
<g>
</g>
<g>
</g>
<g>
</g>
<g>
</g>
<g>
</g>
<g>
</g>
<g>
</g>
<g>
</g>
<g>
</g>
<g>
</g>
</svg>
