<?xml version="1.0" encoding="iso-8859-1"?>
<!-- Generator: Adobe Illustrator 16.0.0, SVG Export Plug-In . SVG Version: 6.00 Build 0)  -->
<!DOCTYPE svg PUBLIC "-//W3C//DTD SVG 1.1//EN" "http://www.w3.org/Graphics/SVG/1.1/DTD/svg11.dtd">
<svg version="1.1" id="Capa_1" xmlns="http://www.w3.org/2000/svg" xmlns:xlink="http://www.w3.org/1999/xlink" x="0px" y="0px"
	 width="548.29px" height="548.291px" viewBox="0 0 548.29 548.291" style="enable-background:new 0 0 548.29 548.291;"
	 xml:space="preserve">
<g>
	<g>
		<path d="M472.929,131.39c-0.031-2.514-0.823-4.997-2.55-6.96L364.655,3.677c-0.021-0.031-0.052-0.044-0.083-0.075
			c-0.631-0.704-1.355-1.284-2.132-1.796c-0.231-0.149-0.462-0.283-0.704-0.419c-0.683-0.365-1.386-0.667-2.121-0.888
			c-0.198-0.058-0.377-0.139-0.577-0.191C358.23,0.118,357.41,0,356.571,0H96.757C84.904,0,75.255,9.649,75.255,21.502V526.79
			c0,11.858,9.649,21.501,21.502,21.501h354.776c11.862,0,21.502-9.643,21.502-21.501V132.595
			C473.035,132.191,472.973,131.795,472.929,131.39z M195.831,419.281h-47.16v28.038h44.069v22.583h-44.069v49.35h-27.858V396.519
			h75.019V419.281z M318.396,519.251h-29.133l-26.224-47.35c-7.283-13.104-15.299-28.956-21.304-43.34l-0.546,0.179
			c0.725,16.21,1.089,33.508,1.089,53.533v36.967H216.79V396.519h32.413l25.491,44.973c7.284,12.93,14.57,28.227,20.029,42.062
			h0.546c-1.815-16.21-2.363-32.775-2.363-51.17v-35.865h25.491V519.251z M427.48,419.828h-33.508v99.424h-27.857v-99.424h-32.956
			v-23.309h94.321V419.828z M96.757,365.081V21.502H345.82v110.011c0,5.935,4.809,10.751,10.751,10.751h94.962l0.01,222.816H96.757z
			"/>
		<g>
			<path d="M292.214,210.4l-27.87,91.157h21.371l6.499-23.396h26.1l7.035,23.396h22.183L319.27,210.4H292.214z M295.19,262.738
				l5.406-19.338c1.486-5.275,2.84-12.176,4.194-17.586h0.273c1.35,5.415,2.981,12.177,4.599,17.586l5.68,19.338H295.19z"/>
			<path d="M414.184,285.463v-22.993c0-15.557-7.029-28.544-29.077-28.544c-12.031,0-21.103,3.248-25.701,5.817l3.791,13.255
				c4.331-2.704,11.501-5.005,18.257-5.005c10.143,0,12.036,5.005,12.036,8.522v0.945c-23.396-0.128-38.818,8.119-38.818,25.295
				c0,10.551,7.979,20.284,21.37,20.284c7.848,0,14.609-2.836,18.936-8.117h0.403l1.223,6.624h18.531
				C414.462,297.904,414.184,291.821,414.184,285.463z M394.167,277.484c0,1.218-0.136,2.436-0.403,3.519
				c-1.354,4.188-5.549,7.567-10.683,7.567c-4.6,0-8.121-2.571-8.121-7.843c0-7.978,8.394-10.555,19.207-10.419V277.484z"/>
			<polygon points="153.87,261.658 229.577,271.022 229.577,213.73 153.87,213.73 			"/>
			<polygon points="153.87,198.045 229.577,198.045 229.577,142.27 153.87,152.805 			"/>
			<polygon points="320.96,128.616 245.257,139.155 245.257,198.045 320.96,198.045 			"/>
			<polygon points="245.257,213.73 245.257,273.797 260.974,275.741 279.931,213.73 			"/>
		</g>
	</g>
</g>
<g>
</g>
<g>
</g>
<g>
</g>
<g>
</g>
<g>
</g>
<g>
</g>
<g>
</g>
<g>
</g>
<g>
</g>
<g>
</g>
<g>
</g>
<g>
</g>
<g>
</g>
<g>
</g>
<g>
</g>
</svg>
