<?xml version="1.0" encoding="iso-8859-1"?>
<!-- Generator: Adobe Illustrator 16.0.0, SVG Export Plug-In . SVG Version: 6.00 Build 0)  -->
<!DOCTYPE svg PUBLIC "-//W3C//DTD SVG 1.1//EN" "http://www.w3.org/Graphics/SVG/1.1/DTD/svg11.dtd">
<svg version="1.1" id="Capa_1" xmlns="http://www.w3.org/2000/svg" xmlns:xlink="http://www.w3.org/1999/xlink" x="0px" y="0px"
	 width="550.801px" height="550.801px" viewBox="0 0 550.801 550.801" style="enable-background:new 0 0 550.801 550.801;"
	 xml:space="preserve">
<g>
	<g>
		<g>
			<path d="M475.095,131.992c-0.031-2.526-0.828-5.021-2.562-6.993L366.325,3.694c-0.021-0.031-0.053-0.045-0.085-0.076
				c-0.633-0.707-1.36-1.29-2.141-1.804c-0.232-0.15-0.464-0.285-0.707-0.422c-0.686-0.366-1.392-0.67-2.13-0.892
				c-0.2-0.058-0.38-0.14-0.58-0.192C359.87,0.119,359.048,0,358.204,0H97.2c-11.907,0-21.6,9.693-21.6,21.601v507.6
				c0,11.913,9.692,21.601,21.6,21.601h356.4c11.918,0,21.6-9.688,21.6-21.601V133.202
				C475.2,132.796,475.137,132.398,475.095,131.992z M185.934,418.152h-47.376v28.16h44.271v22.687h-44.271v49.575h-27.986V395.281
				h75.362V418.152z M259.303,520.584c-36.584,0-57.987-27.623-57.987-62.744c0-36.956,23.599-64.573,60.001-64.573
				c37.866,0,58.538,28.355,58.538,62.38C319.845,496.067,295.334,520.584,259.303,520.584z M440.227,518.569h-29.268
				l-26.335-47.566c-7.319-13.163-15.367-29.083-21.399-43.532l-0.554,0.174c0.732,16.29,1.091,33.66,1.091,53.778v37.141h-25.603
				V395.281h32.554l25.618,45.178c7.314,12.983,14.628,28.35,20.118,42.251h0.554c-1.83-16.279-2.384-32.922-2.384-51.4v-36.033
				h25.618v123.293H440.227z M97.2,366.752V21.601h250.204v110.515c0,5.961,4.83,10.8,10.8,10.8h95.396l0.011,223.836H97.2z"/>
			<path d="M260.582,415.399c-18.839,0-29.813,17.93-29.813,41.893c0,24.146,11.341,41.153,29.998,41.153
				c18.839,0,29.632-17.919,29.632-41.887C290.398,434.426,279.791,415.399,260.582,415.399z"/>
		</g>
		<g>
			<path d="M283.311,281.021v-7.807c17.571-2.231,20.081-4.462,16.453-15.344c-3.623-10.879-9.197-25.939-15.335-42.952h-59.411
				c-4.461,12.551-8.646,24.264-12.269,35.981c-6.135,17.571-3.623,20.364,17.292,22.315v7.807h-60.523v-7.807
				c17.571-2.513,21.476-4.18,31.237-28.73L258.494,98.06l8.643-2.513c17.297,47.976,35.98,100.966,53.837,149.5
				c8.923,23.989,12.545,26.499,30.681,28.173v7.802H283.311z M255.981,131.805h-0.562c-8.925,23.981-17.851,48.252-26.217,71.123
				h51.321L255.981,131.805z"/>
		</g>
	</g>
</g>
<g>
</g>
<g>
</g>
<g>
</g>
<g>
</g>
<g>
</g>
<g>
</g>
<g>
</g>
<g>
</g>
<g>
</g>
<g>
</g>
<g>
</g>
<g>
</g>
<g>
</g>
<g>
</g>
<g>
</g>
</svg>
