<?xml version="1.0" encoding="iso-8859-1"?>
<!-- Generator: Adobe Illustrator 16.0.0, SVG Export Plug-In . SVG Version: 6.00 Build 0)  -->
<!DOCTYPE svg PUBLIC "-//W3C//DTD SVG 1.1//EN" "http://www.w3.org/Graphics/SVG/1.1/DTD/svg11.dtd">
<svg version="1.1" id="Capa_1" xmlns="http://www.w3.org/2000/svg" xmlns:xlink="http://www.w3.org/1999/xlink" x="0px" y="0px"
	 width="550.801px" height="550.801px" viewBox="0 0 550.801 550.801" style="enable-background:new 0 0 550.801 550.801;"
	 xml:space="preserve">
<g>
	<g>
		<g>
			<path d="M256.582,419.117h-0.34c-1.659,6.64-3.312,15.104-5.137,21.574l-6.642,23.73h24.732l-6.972-23.73
				C260.231,434.052,258.249,425.757,256.582,419.117z"/>
			<path d="M475.095,132c-0.031-2.529-0.833-5.023-2.568-6.995L366.319,3.694c-0.021-0.031-0.053-0.042-0.089-0.076
				c-0.628-0.707-1.361-1.29-2.136-1.804c-0.232-0.15-0.465-0.285-0.707-0.422c-0.686-0.366-1.393-0.667-2.136-0.889
				c-0.2-0.061-0.374-0.143-0.575-0.195C359.87,0.119,359.037,0,358.198,0H97.2c-11.907,0-21.6,9.693-21.6,21.601v507.6
				c0,11.913,9.692,21.601,21.6,21.601h356.4c11.918,0,21.6-9.688,21.6-21.601V133.207C475.2,132.804,475.137,132.398,475.095,132z
				 M195.03,506.904c-7.791,2.652-22.56,6.302-37.333,6.302c-20.408,0-35.177-5.146-45.457-15.104
				c-10.294-9.618-15.937-24.221-15.771-40.652c0.169-37.173,27.211-58.409,63.883-58.409c14.441,0,25.552,2.816,31.029,5.479
				l-5.302,20.245c-6.141-2.658-13.777-4.81-26.051-4.81c-21.07,0-37.012,11.938-37.012,36.165
				c0,23.071,14.441,36.682,35.187,36.682c5.801,0,10.455-0.675,12.448-1.666v-23.393h-17.265v-19.749h41.652v58.909H195.03z
				 M281.476,512.046l-8.63-28.709h-32.034l-7.963,28.709h-26.217l34.18-111.845H274l34.681,111.845H281.476z M419.851,512.046
				l-1.656-42.815c-0.495-13.441-0.996-29.71-0.996-45.968h-0.507c-3.485,14.274-8.137,30.2-12.45,43.315l-13.605,43.644h-19.744
				l-11.949-43.316c-3.649-13.109-7.468-29.041-10.125-43.643h-0.316c-0.665,15.108-1.171,32.357-1.993,46.301l-1.994,42.478
				h-23.393l7.13-111.845h33.687l10.953,37.331c3.485,12.94,6.961,26.889,9.466,39.993h0.495
				c3.154-12.946,6.961-27.712,10.621-40.162l11.949-37.167h33.012l6.139,111.844h-24.722V512.046z M97.2,366.758V21.605h250.204
				v110.519c0,5.961,4.83,10.8,10.8,10.8h95.396l0.011,223.834H97.2z"/>
		</g>
		<g>
			<path d="M299.294,196.555h-34.127l-6.539-0.068c-0.487-1.231-0.686-2.387-0.73-3.381c-0.243-6.935,6.42-12.938,9.294-15.2
				c3.818-2.998,5.812-6.06,6.863-10.563c0.707-2.982-0.962-6.336-2.869-9.516l-1.738-2.9c-4.451-7.327-8.641-14.254-10.789-23.316
				c-0.167-0.751-0.52-1.511-1.804-1.511c-0.907,0-1.856,0.435-2.381,1.094c-0.422,0.53-0.53,1.144-0.34,1.946
				c1.625,6.84,4.448,13.542,8.91,21.112l0.562,0.946c3.122,5.253,8.363,14.027-1.793,20.683c-2.133,1.397-4.147,2.721-5.508,4.498
				c-2.521,3.294-3.509,8.024-2.71,12.96c0.179,1.112,0.464,2.181,0.799,3.217h-27.448c-17.495,0-31.669,14.193-31.669,31.683
				s14.175,31.675,31.669,31.675c17.01,0,30.895-13.407,31.638-30.232h9.073c0.751,16.819,14.631,30.232,31.638,30.232
				c17.498,0,31.673-14.186,31.673-31.675S316.797,196.555,299.294,196.555z M228.991,212.053c3.241-1.181,6.827,0.485,8.003,3.715
				c1.194,3.24-0.475,6.821-3.702,7.997c-3.24,1.194-6.826-0.464-8.005-3.71C224.101,216.823,225.764,213.242,228.991,212.053z
				 M209.962,225.683c-1.181-3.246,0.475-6.819,3.715-8.008c3.24-1.189,6.826,0.479,8.002,3.715
				c1.184,3.235-0.485,6.821-3.715,7.997C214.732,230.576,211.157,228.918,209.962,225.683z M223.483,244.422
				c-3.238,1.181-6.824-0.475-8.002-3.705c-1.192-3.24,0.475-6.832,3.705-8.008c3.24-1.189,6.837,0.48,8.013,3.71
				C228.377,239.646,226.713,243.232,223.483,244.422z M238.8,238.8c-3.229,1.194-6.815-0.464-8.005-3.704
				c-1.187-3.241,0.478-6.821,3.715-8.008c3.241-1.184,6.827,0.479,8.005,3.715C243.702,234.03,242.038,237.616,238.8,238.8z
				 M315.605,232.417h-10.938v10.94h-8.354v-10.94h-10.947v-8.358h10.947v-10.934h8.354v10.934h10.938V232.417z"/>
			<path d="M314.819,87.848H175.469v236.701h175.311V129.627L314.819,87.848z M318.537,106.872l16.98,19.733h-16.98V106.872z
				 M185.053,314.951V97.448h123.881v38.757h32.257v178.751H185.053V314.951z"/>
		</g>
	</g>
</g>
<g>
</g>
<g>
</g>
<g>
</g>
<g>
</g>
<g>
</g>
<g>
</g>
<g>
</g>
<g>
</g>
<g>
</g>
<g>
</g>
<g>
</g>
<g>
</g>
<g>
</g>
<g>
</g>
<g>
</g>
</svg>
