<?xml version="1.0" encoding="iso-8859-1"?>
<!-- Generator: Adobe Illustrator 16.0.0, SVG Export Plug-In . SVG Version: 6.00 Build 0)  -->
<!DOCTYPE svg PUBLIC "-//W3C//DTD SVG 1.1//EN" "http://www.w3.org/Graphics/SVG/1.1/DTD/svg11.dtd">
<svg version="1.1" id="Capa_1" xmlns="http://www.w3.org/2000/svg" xmlns:xlink="http://www.w3.org/1999/xlink" x="0px" y="0px"
	 width="550.801px" height="550.801px" viewBox="0 0 550.801 550.801" style="enable-background:new 0 0 550.801 550.801;"
	 xml:space="preserve">
<g>
	<g>
		<path d="M475.095,132c-0.032-2.529-0.833-5.023-2.568-6.993L366.324,3.694c-0.021-0.031-0.053-0.042-0.084-0.076
			c-0.633-0.707-1.36-1.29-2.141-1.804c-0.232-0.15-0.465-0.285-0.707-0.419c-0.686-0.369-1.393-0.67-2.131-0.892
			c-0.2-0.061-0.379-0.14-0.58-0.195C359.87,0.119,359.047,0,358.203,0H97.2C85.292,0,75.6,9.693,75.6,21.601v507.6
			c0,11.913,9.692,21.601,21.6,21.601H453.6c11.918,0,21.601-9.688,21.601-21.601V133.207
			C475.2,132.804,475.137,132.398,475.095,132z M218.761,514.72c-8.295,2.815-23.994,6.697-39.696,6.697
			c-21.698,0-37.402-5.469-48.336-16.053c-10.935-10.23-16.933-25.755-16.762-43.221c0.18-39.52,28.928-62.101,67.922-62.101
			c15.346,0,27.166,3.006,32.988,5.822l-5.643,21.526c-6.523-2.827-14.639-5.115-27.696-5.115c-22.404,0-39.34,12.698-39.34,38.454
			c0,24.521,15.346,38.986,37.399,38.986c6.178,0,11.113-0.701,13.231-1.756v-24.875h-18.344v-20.994h44.281v62.628H218.761z
			 M315.637,520.188h-75.861v-118.9h73.388v22.043h-46.398v24.7h43.751v21.875h-43.751v28.229h48.866v22.054H315.637z
			 M419.386,506.082c-12.519,10.398-31.577,15.346-54.864,15.346c-13.938,0-23.82-0.887-30.523-1.762V402.87
			c9.883-1.582,22.761-2.468,36.34-2.468c22.586,0,37.225,4.061,48.689,12.703c12.351,9.176,20.113,23.815,20.113,44.809
			C439.146,480.674,430.851,496.373,419.386,506.082z M97.2,366.758V21.605h250.203v110.519c0,5.961,4.831,10.8,10.8,10.8H453.6
			l0.011,223.834H97.2z"/>
		<path d="M373.159,421.042c-5.996,0-9.883,0.538-12.171,1.061v77.799c2.299,0.527,6.001,0.527,9.35,0.527
			c24.348,0.179,40.221-13.226,40.221-41.634C410.737,434.1,396.272,421.042,373.159,421.042z"/>
	</g>
	<g>
		<rect x="196.771" y="53.969" width="76.95" height="37.8"/>
		<rect x="213.3" y="194.817" width="76.95" height="37.8"/>
		<rect x="213.3" y="288.642" width="76.95" height="37.8"/>
		<rect x="337.363" y="288.642" width="76.949" height="37.8"/>
		<rect x="114.249" y="241.392" width="76.95" height="37.8"/>
		<rect x="337.363" y="194.817" width="76.949" height="37.8"/>
		<polygon points="149.85,152.967 232.545,152.967 232.545,179.967 232.545,182.667 232.545,188.969 237.945,188.969 
			237.945,182.667 365.038,182.667 365.038,188.969 370.438,188.969 370.438,177.267 237.945,177.267 237.945,152.967 
			237.945,150.267 237.945,100.771 232.545,100.771 232.545,147.567 144.45,147.567 144.45,236.667 149.85,236.667 		"/>
		<rect x="232.545" y="241.392" width="5.4" height="37.8"/>
		<rect x="365.038" y="241.392" width="5.399" height="37.8"/>
	</g>
</g>
<g>
</g>
<g>
</g>
<g>
</g>
<g>
</g>
<g>
</g>
<g>
</g>
<g>
</g>
<g>
</g>
<g>
</g>
<g>
</g>
<g>
</g>
<g>
</g>
<g>
</g>
<g>
</g>
<g>
</g>
</svg>
