<?xml version="1.0" encoding="iso-8859-1"?>
<!-- Generator: Adobe Illustrator 16.0.0, SVG Export Plug-In . SVG Version: 6.00 Build 0)  -->
<!DOCTYPE svg PUBLIC "-//W3C//DTD SVG 1.1//EN" "http://www.w3.org/Graphics/SVG/1.1/DTD/svg11.dtd">
<svg version="1.1" id="Capa_1" xmlns="http://www.w3.org/2000/svg" xmlns:xlink="http://www.w3.org/1999/xlink" x="0px" y="0px"
	 width="550.801px" height="550.801px" viewBox="0 0 550.801 550.801" style="enable-background:new 0 0 550.801 550.801;"
	 xml:space="preserve">
<g>
	<g>
		<path d="M475.095,131.992c-0.032-2.526-0.833-5.021-2.568-6.993L366.324,3.694c-0.021-0.031-0.053-0.045-0.084-0.076
			c-0.633-0.707-1.36-1.29-2.141-1.804c-0.232-0.15-0.465-0.285-0.707-0.422c-0.686-0.366-1.393-0.67-2.131-0.889
			c-0.2-0.061-0.379-0.143-0.58-0.195C359.87,0.119,359.047,0,358.203,0H97.2C85.292,0,75.6,9.693,75.6,21.601v507.6
			c0,11.913,9.692,21.601,21.6,21.601H453.6c11.918,0,21.601-9.688,21.601-21.601V133.202
			C475.2,132.796,475.137,132.398,475.095,131.992z M251.245,516.744c-8.596,2.933-24.877,6.951-41.159,6.951
			c-22.502,0-38.781-5.664-50.122-16.644c-11.34-10.61-17.561-26.704-17.378-44.813c0.185-40.975,30.003-64.394,70.427-64.394
			c15.915,0,28.168,3.111,34.203,6.032l-5.854,22.317c-6.766-2.927-15.185-5.3-28.716-5.3c-23.229,0-40.79,13.168-40.79,39.878
			c0,25.429,15.913,40.426,38.781,40.426c6.405,0,11.525-0.728,13.722-1.835v-25.787h-19.024v-21.764h45.911V516.744z
			 M361.009,522.419h-95.847v-14.998l58.722-84.512v-0.728h-53.23v-23.051h89.448v16.09l-57.438,83.415v0.728h58.355v23.056H361.009
			z M97.2,366.752V21.601h250.203v110.515c0,5.964,4.831,10.8,10.8,10.8H453.6l0.011,223.836H97.2z"/>
		<g>
			<polygon points="246.364,234.35 188.902,218.107 188.902,275.395 274.261,301.656 274.261,171.975 262.188,199.45 			"/>
			<polygon points="289.554,199.975 279.197,173.615 279.197,301.656 364.553,275.395 364.553,210.146 302.179,227.789 			"/>
			<polygon points="281.676,160.743 306.64,215.815 379.35,195.255 358.299,156.79 358.309,156.584 358.172,156.574 
				358.045,156.337 356.337,156.439 277.572,150.375 182.978,156.445 181.111,156.337 180.977,156.574 180.803,156.584 
				180.813,156.858 157.307,199.837 238.549,222.821 266.47,161.262 223.755,158.799 277.541,155.332 319.401,158.567 			"/>
		</g>
	</g>
</g>
<g>
</g>
<g>
</g>
<g>
</g>
<g>
</g>
<g>
</g>
<g>
</g>
<g>
</g>
<g>
</g>
<g>
</g>
<g>
</g>
<g>
</g>
<g>
</g>
<g>
</g>
<g>
</g>
<g>
</g>
</svg>
