<?xml version="1.0" encoding="iso-8859-1"?>
<!-- Generator: Adobe Illustrator 16.0.0, SVG Export Plug-In . SVG Version: 6.00 Build 0)  -->
<!DOCTYPE svg PUBLIC "-//W3C//DTD SVG 1.1//EN" "http://www.w3.org/Graphics/SVG/1.1/DTD/svg11.dtd">
<svg version="1.1" id="Capa_1" xmlns="http://www.w3.org/2000/svg" xmlns:xlink="http://www.w3.org/1999/xlink" x="0px" y="0px"
	 width="550.801px" height="550.801px" viewBox="0 0 550.801 550.801" style="enable-background:new 0 0 550.801 550.801;"
	 xml:space="preserve">
<g>
	<g>
		<path d="M158.672,465.481h-5.107v18.679c1.474,0.2,3.246,0.2,5.801,0.2c6.781,0,12.774-2.558,12.774-9.54
			C172.141,468.134,166.147,465.481,158.672,465.481z"/>
		<path d="M297.411,439.33c-10.125,0-16.021,9.63-16.021,22.518c0,12.973,6.086,22.117,16.126,22.117
			c10.125,0,15.921-9.635,15.921-22.518C313.438,449.556,307.736,439.33,297.411,439.33z"/>
		<path d="M170.569,446.607c0-5.01-3.834-7.667-10.615-7.667c-3.246,0-5.11,0.195-6.389,0.39v15.431h4.915
			C166.348,454.771,170.569,451.522,170.569,446.607z"/>
		<path d="M226.913,439.33c-10.125,0-16.021,9.63-16.021,22.518c0,12.973,6.096,22.117,16.118,22.117
			c10.125,0,15.923-9.635,15.923-22.518C242.934,449.556,237.233,439.33,226.913,439.33z"/>
		<path d="M475.095,132c-0.032-2.529-0.833-5.023-2.568-6.993L366.324,3.694c-0.021-0.031-0.053-0.042-0.084-0.076
			c-0.633-0.707-1.36-1.29-2.141-1.804c-0.232-0.15-0.465-0.285-0.707-0.419c-0.686-0.369-1.393-0.67-2.131-0.892
			c-0.2-0.061-0.379-0.14-0.58-0.195C359.87,0.119,359.047,0,358.203,0H97.2C85.292,0,75.6,9.693,75.6,21.601v507.6
			c0,11.913,9.692,21.601,21.6,21.601H453.6c11.918,0,21.601-9.688,21.601-21.601V133.207
			C475.2,132.804,475.137,132.398,475.095,132z M125.74,494.775H110.7V428.52h15.04V494.775z M180.992,489.46
			c-4.817,3.839-12.88,5.996-26.056,5.996c-7.37,0-12.873-0.485-16.216-0.976v-65.074c3.937-0.791,11.896-1.382,19.364-1.382
			c9.142,0,14.747,0.886,19.564,3.738c4.617,2.452,7.96,6.972,7.96,12.973c0,5.896-3.441,11.396-10.914,14.149v0.2
			c7.57,2.067,13.17,7.763,13.17,16.315C187.877,481.402,185.124,486.116,180.992,489.46z M226.228,495.856
			c-19.662,0-31.163-14.84-31.163-33.713c0-19.865,12.686-34.705,32.244-34.705c20.351,0,31.459,15.235,31.459,33.519
			C258.762,482.688,245.587,495.856,226.228,495.856z M296.726,495.856c-19.659,0-31.163-14.84-31.163-33.713
			c0-19.865,12.686-34.705,32.239-34.705c20.355,0,31.461,15.235,31.461,33.519C329.263,482.688,316.09,495.856,296.726,495.856z
			 M375.869,494.775l-16.221-28.608l-5.7,6.977v21.632h-14.851V428.52h14.851v29.294h0.29c1.477-2.558,3.048-4.914,4.524-7.282
			l15.04-22.012h18.383l-21.927,28.213l23.108,38.043H375.869z M415.694,495.756c-7.567,0-15.04-1.961-18.773-4.028l3.048-12.393
			c4.029,2.067,10.221,4.134,16.611,4.134c6.882,0,10.516-2.848,10.516-7.172c0-4.134-3.148-6.491-11.105-9.344
			c-11.012-3.829-18.188-9.925-18.188-19.555c0-11.306,9.439-19.954,25.075-19.954c7.467,0,12.973,1.571,16.906,3.343l-3.343,12.087
			c-2.658-1.271-7.372-3.143-13.864-3.143c-6.48,0-9.635,2.953-9.635,6.392c0,4.219,3.739,6.091,12.287,9.334
			c11.702,4.324,17.202,10.42,17.202,19.754C442.441,486.316,433.888,495.756,415.694,495.756z M97.2,366.758V21.605h250.203
			v110.519c0,5.961,4.831,10.8,10.8,10.8H453.6l0.011,223.834H97.2z"/>
	</g>
	<path d="M410.273,127.043c-0.095-0.011-9.719-0.968-23.735-0.968c-31.235,0-86.532,4.757-110.689,36.039
		c-24.161-31.282-79.455-36.039-110.69-36.039c-14.019,0-23.641,0.957-23.738,0.968l-8.04,0.124v21.826l-0.276,138.811
		c60.544-6.792,126.62,25.845,139.303,32.484v0.269h0.498c1.103,0.575,1.706,0.912,1.706,0.912l0.006-0.912h1.574v0.912
		c0,0,0.596-0.337,1.688-0.912h0.026v-0.016c11.343-6.033,77.777-39.614,139.097-32.737l0.686-160.637L410.273,127.043z
		 M272.407,166.771v132.118c-12.45-6.793-61.73-31.738-113.938-31.738c-5.709,0-11.346,0.303-16.762,0.891l-1.529,0.166V153.816
		v-19.62c3.003-0.243,13.99-0.81,24.975-0.81c30.494,0,84.241,4.433,107.958,33.384H272.407z M411.513,268.078l-1.529-0.166
		c-5.416-0.596-11.059-0.896-16.765-0.896c-54.432,0-105.643,27.227-115.309,32.653v-132.69
		c23.361-29.821,77.852-34.359,108.633-34.359c10.984,0,21.969,0.572,24.975,0.82v19.76v114.879H411.513z"/>
</g>
<g>
</g>
<g>
</g>
<g>
</g>
<g>
</g>
<g>
</g>
<g>
</g>
<g>
</g>
<g>
</g>
<g>
</g>
<g>
</g>
<g>
</g>
<g>
</g>
<g>
</g>
<g>
</g>
<g>
</g>
</svg>
