<?xml version="1.0" encoding="iso-8859-1"?>
<!-- Generator: Adobe Illustrator 16.0.0, SVG Export Plug-In . SVG Version: 6.00 Build 0)  -->
<!DOCTYPE svg PUBLIC "-//W3C//DTD SVG 1.1//EN" "http://www.w3.org/Graphics/SVG/1.1/DTD/svg11.dtd">
<svg version="1.1" id="Capa_1" xmlns="http://www.w3.org/2000/svg" xmlns:xlink="http://www.w3.org/1999/xlink" x="0px" y="0px"
	 width="548.291px" height="548.291px" viewBox="0 0 548.291 548.291" style="enable-background:new 0 0 548.291 548.291;"
	 xml:space="preserve">
<g>
	<g>
		<path d="M472.929,131.396c-0.031-2.514-0.829-4.997-2.556-6.96L364.656,3.677c-0.021-0.031-0.053-0.042-0.084-0.075
			c-0.63-0.704-1.354-1.284-2.132-1.796c-0.23-0.149-0.462-0.283-0.703-0.419c-0.683-0.365-1.387-0.665-2.121-0.885
			c-0.2-0.06-0.377-0.142-0.577-0.194C358.231,0.118,357.411,0,356.572,0H96.757C84.904,0,75.255,9.649,75.255,21.502V526.79
			c0,11.858,9.649,21.501,21.502,21.501h354.775c11.863,0,21.503-9.643,21.503-21.501V132.595
			C473.036,132.194,472.971,131.795,472.929,131.396z M135.492,507.849H109.62V393.875h25.872V507.849z M216.155,488.232
			c7.779,0,16.402-1.684,21.475-3.722l3.893,20.126c-4.738,2.363-15.392,4.903-29.255,4.903c-39.399,0-59.693-24.525-59.693-56.987
			c0-38.894,27.732-60.537,62.231-60.537c13.357,0,23.507,2.698,28.071,5.072l-5.242,20.461c-5.242-2.204-12.515-4.23-21.641-4.23
			c-20.465,0-36.36,12.346-36.36,37.712C179.629,473.855,193.159,488.232,216.155,488.232z M352.796,507.849h-27.05l-24.357-43.975
			c-6.762-12.172-14.194-26.881-19.78-40.236l-0.509,0.163c0.678,15.05,1.013,31.114,1.013,49.711v34.337h-23.674V393.875h30.101
			l23.669,41.77c6.762,12.005,13.527,26.21,18.599,39.061h0.504c-1.69-15.045-2.194-30.437-2.194-47.517v-33.303h23.669v113.964
			H352.796z M403.039,509.54c-13.019,0-25.868-3.387-32.294-6.935l5.239-21.308c6.938,3.55,17.586,7.098,28.576,7.098
			c11.839,0,18.096-4.903,18.096-12.336c0-7.103-5.412-11.171-19.113-16.074c-18.935-6.583-31.28-17.07-31.28-33.648
			c0-19.443,16.235-34.321,43.124-34.321c12.85,0,22.315,2.698,29.081,5.744l-5.742,20.797c-4.568-2.194-12.684-5.406-23.843-5.406
			c-11.161,0-16.578,5.071-16.578,10.992c0,7.266,6.425,10.479,21.144,16.064c20.127,7.433,29.592,17.921,29.592,33.979
			C449.035,493.298,434.321,509.54,403.039,509.54z M96.757,365.081V21.502H345.82v110.011c0,5.935,4.81,10.751,10.752,10.751
			h94.961l0.011,222.816H96.757z"/>
		<g>
			<path d="M309.253,104.98h-178.05v168.543h178.05V104.98z M292.942,232.749h-6.514c-6.204-15.711-13.8-32.167-24.43-29.452
				c-9.95,2.542-16.578,18.777-19.933,29.452h-4.897c-3.64-13.04-11.832-36.593-26.533-51.308
				c-16.654-16.649-32.898,30.415-39.084,51.308h-24.04V121.291h145.429v111.458H292.942z"/>
			<circle cx="168.931" cy="149.442" r="13.128"/>
			<path d="M248.551,171.008c2.651,0,5.134-0.273,7.339-0.725c2.57,1.1,5.688,1.761,9.084,1.761c8.678,0,15.712-4.239,15.712-9.48
				c0-5.242-7.034-9.489-15.712-9.489c-3.263,0-6.278,0.601-8.798,1.627c-1.023-1.002-2.414-1.627-3.953-1.627h-2.273
				c-2.913,0-5.22,2.215-5.553,5.043c-7.047,0.724-12.26,3.262-12.26,6.309C232.136,168.063,239.483,171.008,248.551,171.008z"/>
			<polygon points="314.86,151.292 314.86,167.94 389.931,183.189 367.741,292.414 311.809,281.049 205.002,281.049 201.12,300.163 
				375.605,335.616 409.165,170.459 			"/>
			<polygon points="323.583,242.232 336.529,245.15 320.776,214.935 334.157,217.951 321.201,193.105 329.431,194.977 
				319.479,175.874 314.86,179.706 314.86,269.195 340.67,275.022 			"/>
		</g>
	</g>
</g>
<g>
</g>
<g>
</g>
<g>
</g>
<g>
</g>
<g>
</g>
<g>
</g>
<g>
</g>
<g>
</g>
<g>
</g>
<g>
</g>
<g>
</g>
<g>
</g>
<g>
</g>
<g>
</g>
<g>
</g>
</svg>
