<?xml version="1.0" encoding="iso-8859-1"?>
<!-- Generator: Adobe Illustrator 16.0.0, SVG Export Plug-In . SVG Version: 6.00 Build 0)  -->
<!DOCTYPE svg PUBLIC "-//W3C//DTD SVG 1.1//EN" "http://www.w3.org/Graphics/SVG/1.1/DTD/svg11.dtd">
<svg version="1.1" id="Capa_1" xmlns="http://www.w3.org/2000/svg" xmlns:xlink="http://www.w3.org/1999/xlink" x="0px" y="0px"
	 width="550.801px" height="550.801px" viewBox="0 0 550.801 550.801" style="enable-background:new 0 0 550.801 550.801;"
	 xml:space="preserve">
<g>
	<g>
		<g>
			<path d="M363.277,409.768c-21.357,0-33.803,20.324-33.803,47.503c0,27.358,12.856,46.654,34.014,46.654
				c21.357,0,33.581-20.318,33.581-47.498C397.08,431.341,385.057,409.768,363.277,409.768z"/>
			<path d="M475.095,131.994c-0.031-2.528-0.828-5.022-2.562-6.995L366.325,3.694c-0.021-0.031-0.053-0.042-0.085-0.076
				c-0.633-0.707-1.36-1.29-2.141-1.804c-0.232-0.15-0.464-0.285-0.707-0.419c-0.686-0.369-1.392-0.67-2.13-0.892
				c-0.2-0.061-0.38-0.143-0.58-0.195C359.87,0.119,359.048,0,358.204,0H97.2c-11.907,0-21.6,9.693-21.6,21.601v507.6
				c0,11.913,9.692,21.601,21.6,21.601h356.4c11.918,0,21.6-9.688,21.6-21.601V133.202
				C475.2,132.799,475.137,132.393,475.095,131.994z M157.914,526.728h-31.725V386.965h31.725V526.728z M256.851,502.675
				c9.542,0,20.116-2.077,26.333-4.562l4.768,24.664c-5.801,2.922-18.868,6.022-35.867,6.022c-48.32,0-73.203-30.069-73.203-69.884
				c0-47.693,34.003-74.234,76.312-74.234c16.374,0,28.825,3.307,34.425,6.218l-6.434,25.086
				c-6.423-2.689-15.337-5.174-26.538-5.174c-25.094,0-44.582,15.124-44.582,46.237
				C212.063,485.046,228.651,502.675,256.851,502.675z M361.821,529.011c-41.48,0-65.728-31.313-65.728-71.128
				c0-41.893,26.746-73.201,68.011-73.201c42.926,0,66.361,32.131,66.361,70.717C430.461,501.209,402.68,529.011,361.821,529.011z
				 M97.2,366.752V21.601h250.204v110.515c0,5.964,4.83,10.8,10.8,10.8h95.396l0.011,223.836H97.2z"/>
		</g>
		<path d="M318.674,137.458c5.965,0,10.801-4.839,10.801-10.8v-19.894c0-5.962-4.836-10.8-10.801-10.8h-98.547
			c-5.962,0-10.8,4.838-10.8,10.8v19.894c0,5.961,4.838,10.8,10.8,10.8h26.868v133.481h-26.868c-5.962,0-10.8,4.841-10.8,10.8
			v19.892c0,5.964,4.838,10.8,10.8,10.8h98.547c5.965,0,10.801-4.836,10.801-10.8v-19.892c0-5.959-4.836-10.8-10.801-10.8h-24.168
			V137.458H318.674z"/>
	</g>
</g>
<g>
</g>
<g>
</g>
<g>
</g>
<g>
</g>
<g>
</g>
<g>
</g>
<g>
</g>
<g>
</g>
<g>
</g>
<g>
</g>
<g>
</g>
<g>
</g>
<g>
</g>
<g>
</g>
<g>
</g>
</svg>
