<?xml version="1.0" encoding="iso-8859-1"?>
<!-- Generator: Adobe Illustrator 16.0.0, SVG Export Plug-In . SVG Version: 6.00 Build 0)  -->
<!DOCTYPE svg PUBLIC "-//W3C//DTD SVG 1.1//EN" "http://www.w3.org/Graphics/SVG/1.1/DTD/svg11.dtd">
<svg version="1.1" id="Capa_1" xmlns="http://www.w3.org/2000/svg" xmlns:xlink="http://www.w3.org/1999/xlink" x="0px" y="0px"
	 width="550.801px" height="550.801px" viewBox="0 0 550.801 550.801" style="enable-background:new 0 0 550.801 550.801;"
	 xml:space="preserve">
<g>
	<path d="M475.095,131.992c-0.032-2.526-0.833-5.021-2.568-6.993L366.324,3.694c-0.021-0.034-0.053-0.045-0.084-0.076
		c-0.633-0.707-1.36-1.29-2.141-1.804c-0.232-0.15-0.465-0.285-0.707-0.422c-0.686-0.366-1.393-0.67-2.131-0.892
		c-0.2-0.058-0.379-0.14-0.58-0.192C359.87,0.114,359.047,0,358.203,0H97.2C85.292,0,75.6,9.693,75.6,21.601v507.6
		c0,11.913,9.692,21.601,21.6,21.601H453.6c11.918,0,21.601-9.688,21.601-21.601V133.202
		C475.2,132.796,475.137,132.398,475.095,131.992z M179.286,521.016h-30.807V385.299h30.807V521.016z M275.348,497.654
		c9.26,0,19.532-2.014,25.576-4.43l4.624,23.963c-5.637,2.821-18.325,5.843-34.836,5.843c-46.92,0-71.086-29.199-71.086-67.858
		c0-46.316,33.027-72.099,74.104-72.099c15.908,0,27.994,3.228,33.426,6.044l-6.243,24.373c-6.244-2.62-14.903-5.041-25.771-5.041
		c-24.366,0-43.298,14.702-43.298,44.903C231.854,480.542,247.962,497.654,275.348,497.654z M358.932,523.03
		c-15.504,0-30.808-4.028-38.465-8.258l6.244-25.376c8.258,4.234,20.94,8.459,34.034,8.459c14.091,0,21.542-5.838,21.542-14.703
		c0-8.453-6.438-13.294-22.749-19.132c-22.555-7.847-37.257-20.34-37.257-40.072c0-23.156,19.332-40.875,51.353-40.875
		c15.304,0,26.578,3.223,34.636,6.845l-6.845,24.775c-5.438-2.616-15.104-6.444-28.393-6.444s-19.733,6.043-19.733,13.089
		c0,8.658,7.652,12.487,25.171,19.132c23.968,8.859,35.242,21.347,35.242,40.468C413.701,503.698,396.188,523.03,358.932,523.03z
		 M97.2,366.752V21.601h250.203v110.515c0,5.961,4.831,10.8,10.8,10.8H453.6l0.011,223.836H97.2z"/>
	<g>
		<path d="M371.914,124.076h-28.275v-19.38h-14.144v19.38h-26.895v-19.38h-13.616v19.38h-25.977v-19.38h-13.613v19.38h-28.047
			v-19.38h-0.525h-13.624v19.38h-25.737v-19.38h-13.614v21.621c-6.906,3.428-11.712,10.486-11.712,18.71v151.877
			c0,11.554,9.4,20.957,20.946,20.957h194.832c11.549,0,20.952-9.403,20.952-20.957V145.022
			C392.86,133.471,383.463,124.076,371.914,124.076z M376.102,296.905c0,2.31-1.883,4.188-4.192,4.188H177.077
			c-2.312,0-4.184-1.883-4.184-4.188v-138.28h203.209V296.905z"/>
		<rect x="255.907" y="170.43" width="30.377" height="30.381"/>
		<rect x="307.758" y="170.43" width="30.375" height="30.381"/>
		<rect x="205.627" y="213.899" width="30.375" height="30.375"/>
		<rect x="255.907" y="213.899" width="30.377" height="30.375"/>
		<rect x="307.758" y="213.899" width="30.375" height="30.375"/>
		<rect x="205.627" y="257.429" width="30.375" height="30.375"/>
		<rect x="255.907" y="257.429" width="30.377" height="30.375"/>
		<rect x="307.758" y="257.429" width="30.375" height="30.375"/>
	</g>
</g>
<g>
</g>
<g>
</g>
<g>
</g>
<g>
</g>
<g>
</g>
<g>
</g>
<g>
</g>
<g>
</g>
<g>
</g>
<g>
</g>
<g>
</g>
<g>
</g>
<g>
</g>
<g>
</g>
<g>
</g>
</svg>
