<?xml version="1.0" encoding="iso-8859-1"?>
<!-- Generator: Adobe Illustrator 16.0.0, SVG Export Plug-In . SVG Version: 6.00 Build 0)  -->
<!DOCTYPE svg PUBLIC "-//W3C//DTD SVG 1.1//EN" "http://www.w3.org/Graphics/SVG/1.1/DTD/svg11.dtd">
<svg version="1.1" id="Capa_1" xmlns="http://www.w3.org/2000/svg" xmlns:xlink="http://www.w3.org/1999/xlink" x="0px" y="0px"
	 width="548.291px" height="548.291px" viewBox="0 0 548.291 548.291" style="enable-background:new 0 0 548.291 548.291;"
	 xml:space="preserve">
<g>
	<path d="M472.929,131.396c-0.031-2.514-0.829-4.997-2.556-6.96L364.656,3.677c-0.021-0.031-0.053-0.042-0.084-0.075
		c-0.63-0.704-1.354-1.284-2.132-1.796c-0.23-0.149-0.462-0.283-0.703-0.418c-0.683-0.366-1.387-0.666-2.121-0.887
		c-0.2-0.06-0.377-0.142-0.577-0.194C358.231,0.118,357.411,0,356.572,0H96.757C84.904,0,75.255,9.649,75.255,21.502V526.79
		c0,11.858,9.649,21.501,21.502,21.501h354.775c11.863,0,21.503-9.643,21.503-21.501V132.595
		C473.036,132.194,472.971,131.795,472.929,131.396z M195.386,525.991H163.17V384.084h32.216V525.991z M309.915,410.399h-54.536
		v32.431h50.956v26.102h-50.956v57.06h-32.213V384.08h86.75V410.399z M420.861,410.399h-54.536v32.431h50.955v26.102h-50.955v57.06
		h-32.211V384.08h86.747V410.399z M96.757,365.081V21.502H345.82v110.015c0,5.934,4.81,10.75,10.752,10.75h94.961l0.011,222.813
		H96.757z"/>
	<g>
		<path d="M294.576,207.764c-28.903-20.21-28.828-24.956-28.828-24.956c-5.509,0.648-6.073,4.821-6.073,4.821v95.188
			c-4.14-1.438-9.079-1.69-14.146-0.447c-11.217,2.8-18.554,12.059-16.409,20.679c1.257,7.947,12.998,13.292,24.215,10.467
			c9.858-2.441,16.735-9.89,16.783-17.512h0.031l0.254-90.391c0,0,19.672-1.046,38.948,29.153
			C309.352,234.767,309.401,219.176,294.576,207.764z"/>
		<path d="M369.034,193.375c-3.622-52.056-47.024-93.327-99.986-93.327c-52.961,0-96.364,41.276-99.985,93.327
			c-8.651,0.296-15.583,7.35-15.583,16.074v80.634c0,8.902,7.218,16.125,16.125,16.125h14.336c8.906,0,16.126-7.223,16.126-16.125
			v-80.634c0-8.483-6.57-15.354-14.88-16.002c3.546-43.198,39.768-77.276,83.859-77.276c44.096,0,80.315,34.079,83.859,77.276
			c-8.305,0.643-14.877,7.515-14.877,16.002v80.634c0,8.902,7.224,16.125,16.127,16.125h14.335c8.909,0,16.127-7.223,16.127-16.125
			v-80.634C384.624,200.725,377.684,193.672,369.034,193.375z"/>
	</g>
</g>
<g>
</g>
<g>
</g>
<g>
</g>
<g>
</g>
<g>
</g>
<g>
</g>
<g>
</g>
<g>
</g>
<g>
</g>
<g>
</g>
<g>
</g>
<g>
</g>
<g>
</g>
<g>
</g>
<g>
</g>
</svg>
