<?xml version="1.0" encoding="iso-8859-1"?>
<!-- Generator: Adobe Illustrator 16.0.0, SVG Export Plug-In . SVG Version: 6.00 Build 0)  -->
<!DOCTYPE svg PUBLIC "-//W3C//DTD SVG 1.1//EN" "http://www.w3.org/Graphics/SVG/1.1/DTD/svg11.dtd">
<svg version="1.1" id="Capa_1" xmlns="http://www.w3.org/2000/svg" xmlns:xlink="http://www.w3.org/1999/xlink" x="0px" y="0px"
	 width="550.801px" height="550.801px" viewBox="0 0 550.801 550.801" style="enable-background:new 0 0 550.801 550.801;"
	 xml:space="preserve">
<g>
	<g>
		<g>
			<path d="M292.286,422.993c-4.946,0-8.143,0.438-10.03,0.876v64.13c1.894,0.438,4.946,0.438,7.699,0.438
				c20.076,0.147,33.165-10.91,33.165-34.319C323.262,433.751,311.334,422.993,292.286,422.993z"/>
			<path d="M393.494,422.993c-4.937,0-8.143,0.438-10.03,0.876v64.13c1.888,0.438,4.946,0.438,7.71,0.438
				c20.06,0.147,33.164-10.91,33.164-34.319C424.48,433.751,412.552,422.993,393.494,422.993z"/>
			<path d="M475.095,131.997c-0.031-2.528-0.833-5.023-2.568-6.992L366.319,3.691c-0.021-0.031-0.053-0.042-0.089-0.073
				c-0.628-0.707-1.361-1.292-2.136-1.804c-0.232-0.153-0.465-0.287-0.707-0.422c-0.686-0.366-1.393-0.67-2.136-0.892
				c-0.2-0.058-0.374-0.14-0.575-0.195C359.87,0.119,359.037,0,358.198,0H97.2c-11.907,0-21.6,9.693-21.6,21.601v507.6
				c0,11.913,9.692,21.601,21.6,21.601h356.4c11.918,0,21.6-9.688,21.6-21.601V133.202
				C475.2,132.796,475.137,132.398,475.095,131.997z M140.469,504.727h-22.262v-98.018h22.262V504.727z M240.801,504.727h-23.269
				l-20.946-37.811c-5.809-10.468-12.213-23.124-17.009-34.615l-0.432,0.147c0.577,12.937,0.875,26.758,0.875,42.752v29.526h-20.363
				v-98.018h25.882l20.364,35.917c5.811,10.331,11.63,22.544,16,33.598h0.433c-1.458-12.936-1.901-26.178-1.901-40.858v-28.656
				h20.363v98.018H240.801z M330.392,493.099c-10.336,8.574-26.04,12.646-45.235,12.646c-11.491,0-19.633-0.728-25.167-1.455
				v-96.272c8.153-1.308,18.765-2.035,29.966-2.035c18.615,0,30.691,3.343,40.142,10.468c10.188,7.567,16.579,19.633,16.579,36.94
				C346.676,472.152,339.842,485.094,330.392,493.099z M431.595,493.099c-10.326,8.574-26.024,12.646-45.226,12.646
				c-11.496,0-19.638-0.728-25.159-1.455v-96.272c8.142-1.308,18.763-2.035,29.964-2.035c18.609,0,30.691,3.343,40.141,10.468
				c10.178,7.567,16.569,19.633,16.569,36.94C447.884,472.152,441.044,485.094,431.595,493.099z M97.2,366.752V21.601h250.204
				v110.515c0,5.961,4.83,10.8,10.8,10.8h95.396l0.011,223.836H97.2z"/>
		</g>
		<g>
			<path d="M223.494,156.951v143.667h-32.608V156.951H223.494z"/>
			<path d="M350.969,149.273v120.224c0,11.73,0.422,24.086,0.844,31.126h-28.771l-1.498-15.346h-0.422
				C314.519,297,301.937,302.97,288.51,302.97c-24.729,0-44.55-21.104-44.55-53.507c-0.208-35.177,21.737-55.427,46.681-55.427
				c12.793,0,22.808,4.478,27.501,11.726h0.433v-56.489H350.969z M318.568,240.506c0-1.703-0.221-4.05-0.432-5.753
				c-1.92-8.741-8.955-15.989-18.975-15.989c-14.707,0-22.386,13.215-22.386,29.631c0,17.69,8.744,28.777,22.165,28.777
				c9.376,0,16.843-6.399,18.768-15.564c0.633-2.349,0.854-4.686,0.854-7.462v-13.64H318.568z"/>
		</g>
	</g>
</g>
<g>
</g>
<g>
</g>
<g>
</g>
<g>
</g>
<g>
</g>
<g>
</g>
<g>
</g>
<g>
</g>
<g>
</g>
<g>
</g>
<g>
</g>
<g>
</g>
<g>
</g>
<g>
</g>
<g>
</g>
</svg>
