<?xml version="1.0" encoding="iso-8859-1"?>
<!-- Generator: Adobe Illustrator 18.0.0, SVG Export Plug-In . SVG Version: 6.00 Build 0)  -->
<!DOCTYPE svg PUBLIC "-//W3C//DTD SVG 1.1//EN" "http://www.w3.org/Graphics/SVG/1.1/DTD/svg11.dtd">
<svg version="1.1" id="Capa_1" xmlns="http://www.w3.org/2000/svg" xmlns:xlink="http://www.w3.org/1999/xlink" x="0px" y="0px"
	 viewBox="0 0 317.001 317.001" style="enable-background:new 0 0 317.001 317.001;" xml:space="preserve">
<g>
	<path d="M162.331,40.873H103.6c-8.999,0-16.319,7.321-16.319,16.319v117.75c0,8.999,7.321,16.319,16.319,16.319h58.73
		c8.999,0,16.319-7.321,16.319-16.319V57.193C178.65,48.194,171.329,40.873,162.331,40.873z M132.965,176.3
		c-3.937,0-7.129-3.192-7.129-7.129c0-3.937,3.192-7.129,7.129-7.129c3.937,0,7.129,3.192,7.129,7.129
		C140.094,173.108,136.903,176.3,132.965,176.3z M166.815,153.471H99.116V60.205h67.698V153.471z"/>
	<path d="M187.974,244.503h-0.149c-0.75,3-1.5,6.824-2.325,9.749l-3,10.725h11.175l-3.15-10.725
		C189.625,251.252,188.724,247.503,187.974,244.503z"/>
	<path d="M146.049,244.203c-2.325,0-3.899,0.225-4.725,0.449v14.925c0.975,0.225,2.175,0.3,3.825,0.3
		c6.074,0,9.824-3.075,9.824-8.25C154.974,246.977,151.75,244.203,146.049,244.203z"/>
	<path d="M270.826,70.55L212.17,3.66C210.13,1.334,207.187,0,204.093,0H55.941C49.076,0,43.51,5.566,43.51,12.431V304.57
		c0,6.866,5.566,12.431,12.431,12.431h205.118c6.866,0,12.432-5.566,12.432-12.432V77.633
		C273.491,75.027,272.544,72.51,270.826,70.55z M120.101,286.501h-11.475v-50.548h11.475V286.501z M145.224,268.651
		c-1.5,0-2.85-0.074-3.899-0.225v18.074h-11.324v-49.873c3.524-0.6,8.475-1.05,15.449-1.05c7.05,0,12.074,1.35,15.449,4.05
		c3.225,2.55,5.399,6.75,5.399,11.699c0,4.95-1.649,9.149-4.649,12C157.749,267.002,151.974,268.651,145.224,268.651z
		 M199.224,286.501l-3.899-12.975H180.85l-3.601,12.975h-11.849l15.449-50.548h14.999l15.675,50.548H199.224z M55.941,211.073
		L55.941,211.073V12.432H199.94v63.601c0,3.431,2.78,6.216,6.216,6.216h54.904l0.006,128.824H55.941z"/>
</g>
<g>
</g>
<g>
</g>
<g>
</g>
<g>
</g>
<g>
</g>
<g>
</g>
<g>
</g>
<g>
</g>
<g>
</g>
<g>
</g>
<g>
</g>
<g>
</g>
<g>
</g>
<g>
</g>
<g>
</g>
</svg>
