<?xml version="1.0" encoding="iso-8859-1"?>
<!-- Generator: Adobe Illustrator 16.0.0, SVG Export Plug-In . SVG Version: 6.00 Build 0)  -->
<!DOCTYPE svg PUBLIC "-//W3C//DTD SVG 1.1//EN" "http://www.w3.org/Graphics/SVG/1.1/DTD/svg11.dtd">
<svg version="1.1" id="Capa_1" xmlns="http://www.w3.org/2000/svg" xmlns:xlink="http://www.w3.org/1999/xlink" x="0px" y="0px"
	 width="548.291px" height="548.291px" viewBox="0 0 548.291 548.291" style="enable-background:new 0 0 548.291 548.291;"
	 xml:space="preserve">
<g>
	<g>
		<path d="M377.191,399.124c-7.16,0-11.224,0.578-13.344,0.966v35.99h11.602c14.708,0,23.411-7.359,23.411-18.772
			C398.86,405.307,390.734,399.313,377.191,399.124z"/>
		<path d="M472.918,131.385c-0.021-2.514-0.823-4.992-2.55-6.96L364.656,3.667c-0.031-0.029-0.062-0.044-0.084-0.07
			c-0.63-0.709-1.365-1.284-2.142-1.795c-0.231-0.149-0.463-0.29-0.704-0.42c-0.672-0.37-1.387-0.667-2.121-0.888
			c-0.2-0.058-0.377-0.144-0.577-0.186C358.231,0.113,357.4,0,356.561,0H96.757C84.893,0,75.255,9.644,75.255,21.502V526.79
			c0,11.854,9.638,21.501,21.502,21.501h354.775c11.853,0,21.503-9.647,21.503-21.501v-394.2
			C473.036,132.186,472.971,131.79,472.918,131.385z M183.101,460.647c0,37.154-17.808,50.11-46.438,50.11
			c-6.771,0-15.675-1.161-21.478-3.086l3.294-23.801c4.063,1.354,9.283,2.319,15.09,2.319c12.388,0,20.124-5.617,20.124-25.933
			V378.22h29.409V460.647z M285.462,508.637l-10.058-33.481h-37.344l-9.294,33.481h-30.576l39.865-130.417h38.694l40.44,130.417
			H285.462z M402.923,508.637c-2.121-3.674-5.217-14.321-9.092-30.384c-3.479-16.248-9.086-20.704-21.092-20.894h-8.893v51.277
			h-29.22V379.963c9.481-1.543,23.604-2.709,39.278-2.709c19.353,0,32.893,2.898,42.188,10.258
			c7.733,6.194,11.984,15.286,11.984,27.275c0,16.642-11.8,28.062-23.023,32.127v0.576c9.093,3.675,14.132,12.38,17.419,24.38
			c4.062,14.709,8.126,31.737,10.64,36.767H402.923z M96.757,365.076V21.502H345.81v110.006c0,5.935,4.819,10.751,10.751,10.751
			h94.972v222.816H96.757z"/>
		<path d="M256.443,400.279h-0.388c-1.929,7.736-3.874,17.606-5.992,25.154l-7.746,27.665h28.827l-8.126-27.665
			C260.696,417.697,258.373,408.015,256.443,400.279z"/>
		<path d="M256.854,219.436c0,0-10.848-20.89-10.446-36.155c0.296-10.909,24.896-21.69,34.552-37.345
			c9.627-15.665-1.208-30.919-1.208-30.919s2.415,11.247-4.012,22.883c-6.422,11.647-30.139,18.485-39.367,38.554
			C227.152,196.542,256.854,219.436,256.854,219.436z"/>
		<path d="M297.432,155.979c0,0-36.946,14.055-36.946,30.113c0,16.071,10.037,21.286,11.644,26.504
			c1.605,5.23-2.8,14.062-2.8,14.062s14.454-10.042,12.028-21.696c-2.415-11.648-13.659-15.26-7.223-26.897
			C278.428,170.259,297.432,155.979,297.432,155.979z"/>
		<path d="M252.853,240.657c38.122-1.359,42.604-8.54,46.584-11.987c-22.079,6.017-80.718,5.622-81.138,1.211
			c-0.386-4.42,18.069-8.037,18.069-8.037s-28.903,0-31.318,7.231C202.635,236.292,218.729,241.851,252.853,240.657z"/>
		<path d="M305.053,222.649c0,0,16.473,0,18.067,10.031c1.607,10.04-20.871,24.893-20.871,24.893s35.403-7.129,32.105-25.281
			C330.345,210.205,305.053,222.649,305.053,222.649z"/>
		<path d="M264.872,251.557c-16.722,1.883-36.935,0.399-38.551-2.423c-1.575-2.811,2.822-4.409,2.822-4.409
			c-20.093,4.827-9.11,13.248,14.438,14.869c20.178,1.375,42.731-6.031,42.731-6.031l6.951-5.617
			C293.263,247.946,277.358,250.156,264.872,251.557z"/>
		<path d="M233.974,265.498c0,0-9.11,0.252-9.638,5.073c-0.539,4.793,2.822,7.229,25.357,6.697
			c26.825-0.639,31.298-3.826,34.059-6.154l6.541-4.929c-17.534,2.267-18.887,2.897-28.816,3.175
			c-9.993,0.292-27.497,0.927-28.297-0.934C232.362,266.555,233.974,265.498,233.974,265.498z"/>
		<path d="M321.516,287.18c3.475-3.753-1.081-6.703-1.081-6.703s1.61,1.878-0.515,4.016c-2.137,2.137-21.702,7.489-53.027,9.092
			c-31.316,1.615-65.321-2.935-66.408-6.955c-1.036-4.012,17.417-7.214,17.417-7.214c-2.128,0.263-27.845,0.793-28.661,7.765
			c-0.785,6.95,11.244,12.572,59.457,12.572C296.886,299.752,318.051,290.917,321.516,287.18z"/>
		<path d="M302.776,302.964c-21.156,4.285-85.39,1.587-85.39,1.587s41.746,9.904,89.411,1.61
			c22.782-3.969,24.104-14.997,24.104-14.997S323.93,298.671,302.776,302.964z"/>
	</g>
</g>
<g>
</g>
<g>
</g>
<g>
</g>
<g>
</g>
<g>
</g>
<g>
</g>
<g>
</g>
<g>
</g>
<g>
</g>
<g>
</g>
<g>
</g>
<g>
</g>
<g>
</g>
<g>
</g>
<g>
</g>
</svg>
