<?xml version="1.0" encoding="iso-8859-1"?>
<!-- Generator: Adobe Illustrator 16.0.0, SVG Export Plug-In . SVG Version: 6.00 Build 0)  -->
<!DOCTYPE svg PUBLIC "-//W3C//DTD SVG 1.1//EN" "http://www.w3.org/Graphics/SVG/1.1/DTD/svg11.dtd">
<svg version="1.1" id="Capa_1" xmlns="http://www.w3.org/2000/svg" xmlns:xlink="http://www.w3.org/1999/xlink" x="0px" y="0px"
	 width="550.801px" height="550.801px" viewBox="0 0 550.801 550.801" style="enable-background:new 0 0 550.801 550.801;"
	 xml:space="preserve">
<g>
	<g>
		<path d="M475.084,131.997c-0.021-2.531-0.833-5.021-2.567-6.992L366.325,3.694c-0.032-0.034-0.063-0.045-0.085-0.076
			c-0.633-0.707-1.371-1.295-2.151-1.804c-0.231-0.155-0.464-0.285-0.706-0.422c-0.676-0.366-1.393-0.675-2.131-0.896
			c-0.2-0.053-0.38-0.135-0.58-0.188C359.87,0.119,359.037,0,358.193,0H97.2c-11.918,0-21.6,9.693-21.6,21.601v507.6
			c0,11.907,9.682,21.601,21.6,21.601h356.4c11.907,0,21.6-9.693,21.6-21.601V133.202
			C475.2,132.796,475.137,132.398,475.084,131.997z M251.599,469.832c0,38.043-18.225,51.311-47.548,51.311
			c-6.94,0-16.055-1.182-21.998-3.164l3.375-24.374c4.158,1.393,9.503,2.384,15.448,2.384c12.68,0,20.596-5.759,20.596-26.557
			v-83.996h30.122v84.396H251.599z M309.445,520.942c-15.25,0-30.296-3.966-37.829-8.121l6.138-24.965
			c8.118,4.166,20.606,8.321,33.483,8.321c13.869,0,21.189-5.737,21.189-14.459c0-8.322-6.339-13.078-22.381-18.816
			c-22.19-7.73-36.647-20.007-36.647-39.424c0-22.781,19.013-40.215,50.512-40.215c15.056,0,26.156,3.164,34.076,6.739
			l-6.724,24.363c-5.357-2.573-14.86-6.339-27.943-6.339c-13.067,0-19.417,5.954-19.417,12.878c0,8.511,7.536,12.287,24.774,18.815
			c23.567,8.723,34.668,20.999,34.668,39.814C363.34,501.926,346.096,520.942,309.445,520.942z M453.601,366.747H97.2V21.601
			h250.193v110.51c0,5.967,4.841,10.8,10.8,10.8h95.407V366.747z"/>
	</g>
	<path d="M174.396,126.755c0,9.336,6.637,16.928,14.79,16.928c2.304,0,4.179-2.144,4.179-4.789c0-2.647-1.88-4.785-4.179-4.785
		c-3.536,0-6.426-3.299-6.426-7.354c0-4.061,2.89-7.356,6.426-7.356h0.037c0.799,0,7.971-0.182,8.026,6.557v183.658
		c0,7.921,5.627,14.365,12.543,14.365h22.32c-0.008-0.042-0.008-0.085-0.013-0.116h114.03c9.091,0,16.474-8.453,16.474-18.868
		c0-8.648-5.125-15.947-12.086-18.151c0.01-0.042,0.021-0.063,0.021-0.095h0.042V124.185c0-7.921-5.621-14.359-12.54-14.359H189.066
		c-0.005,0-0.005,0-0.005,0C181.032,109.819,174.396,117.419,174.396,126.755z M231.488,305.101c0-3.713-1.107-6.824-2.694-9.397
		h106.238c4.472,0,8.11,4.166,8.11,9.292c0,5.136-3.639,9.297-8.11,9.297h-106.13C230.426,311.787,231.488,308.739,231.488,305.101z
		 M227.438,216.902h97.875v8.774h-97.875V216.902z M227.438,185.177h97.875v8.775h-97.875V185.177z M227.438,152.777h97.875v8.774
		h-97.875V152.777z"/>
</g>
<g>
</g>
<g>
</g>
<g>
</g>
<g>
</g>
<g>
</g>
<g>
</g>
<g>
</g>
<g>
</g>
<g>
</g>
<g>
</g>
<g>
</g>
<g>
</g>
<g>
</g>
<g>
</g>
<g>
</g>
</svg>
