<?xml version="1.0" encoding="iso-8859-1"?>
<!-- Generator: Adobe Illustrator 16.0.0, SVG Export Plug-In . SVG Version: 6.00 Build 0)  -->
<!DOCTYPE svg PUBLIC "-//W3C//DTD SVG 1.1//EN" "http://www.w3.org/Graphics/SVG/1.1/DTD/svg11.dtd">
<svg version="1.1" id="Capa_1" xmlns="http://www.w3.org/2000/svg" xmlns:xlink="http://www.w3.org/1999/xlink" x="0px" y="0px"
	 width="550.801px" height="550.801px" viewBox="0 0 550.801 550.801" style="enable-background:new 0 0 550.801 550.801;"
	 xml:space="preserve">
<g>
	<path d="M475.095,132c-0.032-2.529-0.833-5.023-2.568-6.993L366.324,3.694c-0.021-0.031-0.053-0.042-0.084-0.076
		c-0.633-0.707-1.36-1.29-2.141-1.804c-0.232-0.15-0.465-0.285-0.707-0.419c-0.686-0.369-1.393-0.67-2.131-0.892
		c-0.2-0.061-0.379-0.14-0.58-0.195C359.87,0.119,359.047,0,358.203,0H97.2C85.292,0,75.6,9.693,75.6,21.601v507.6
		c0,11.913,9.692,21.601,21.6,21.601H453.6c11.918,0,21.601-9.688,21.601-21.601V133.207C475.2,132.804,475.137,132.398,475.095,132
		z M199.299,512.136l-29.112-51.337l-10.233,12.524v38.812h-26.639v-118.9h26.639v52.571h0.53c2.645-4.594,5.468-8.828,8.116-13.058
		l26.995-39.514h32.988l-39.34,50.63l41.457,68.271H199.299z M317.514,512.136h-75.853v-118.9h73.385v22.048H268.65v24.701h43.749
		v21.874H268.65v28.224h48.864V512.136z M390.224,462.565v49.57h-26.82v-48.689l-37.573-70.211h30.696l12.171,28.577
		c3.708,8.643,6.181,14.997,9.176,22.755h0.354c2.647-7.409,5.469-14.286,9.002-22.755l11.992-28.577h30.164L390.224,462.565z
		 M97.2,366.758V21.605h250.203v110.519c0,5.961,4.831,10.8,10.8,10.8H453.6l0.011,223.834H97.2z"/>
	<path d="M363.983,221.405c-17.044-17.035-42.304-23.063-65.127-15.762l-95.516-95.521c-1.11-1.107-2.505-1.906-4.031-2.273
		l-36.748-9.142c-2.987-0.741-6.167,0.171-8.306,2.371c-2.138,2.201-2.958,5.416-2.128,8.369l9.693,34.691
		c0.406,1.424,1.168,2.742,2.22,3.784l7.712,7.707c0.841,0.852,1.975,1.34,3.17,1.376l13.241,0.454v11.794
		c0,1.3,0.517,2.489,1.371,3.33c0.815,0.812,1.933,1.329,3.169,1.379l12.372,0.409v10.46c0,1.302,0.53,2.483,1.376,3.327
		c0.82,0.825,1.928,1.334,3.17,1.376l10.984,0.372v10.705c0.092,2.553-0.237,3.639,1.062,4.938l0.319,0.324
		c0.859,0.67,2.586,1.14,4.725,1.118l11.367,0.385v12.636c0,1.247,0.498,2.446,1.379,3.327l19.406,19.406
		c-9.611,23.754-4.116,51.353,14.154,69.62c25.077,25.075,65.878,25.075,90.953,0C389.053,287.287,389.053,246.479,363.983,221.405z
		 M275.379,214.893l-91.521-91.512l3.122-3.127l91.51,91.521L275.379,214.893z M282.862,207.404L191.35,115.89l1.458-1.456
		l91.515,91.513L282.862,207.404z M347.33,295.714c-11.539,11.538-27.096,15.482-33.961,8.606
		c-6.872-6.866-2.933-22.412,8.601-33.951c11.544-11.551,27.09-15.482,33.966-8.614C362.802,268.624,358.868,284.176,347.33,295.714
		z"/>
</g>
<g>
</g>
<g>
</g>
<g>
</g>
<g>
</g>
<g>
</g>
<g>
</g>
<g>
</g>
<g>
</g>
<g>
</g>
<g>
</g>
<g>
</g>
<g>
</g>
<g>
</g>
<g>
</g>
<g>
</g>
</svg>
