<?xml version="1.0" encoding="iso-8859-1"?>
<!-- Generator: Adobe Illustrator 16.0.0, SVG Export Plug-In . SVG Version: 6.00 Build 0)  -->
<!DOCTYPE svg PUBLIC "-//W3C//DTD SVG 1.1//EN" "http://www.w3.org/Graphics/SVG/1.1/DTD/svg11.dtd">
<svg version="1.1" id="Capa_1" xmlns="http://www.w3.org/2000/svg" xmlns:xlink="http://www.w3.org/1999/xlink" x="0px" y="0px"
	 width="550.801px" height="550.801px" viewBox="0 0 550.801 550.801" style="enable-background:new 0 0 550.801 550.801;"
	 xml:space="preserve">
<g>
	<g>
		<path d="M475.095,132c-0.031-2.529-0.828-5.023-2.562-6.995L366.325,3.694c-0.021-0.031-0.053-0.042-0.085-0.074
			c-0.633-0.709-1.36-1.292-2.141-1.803c-0.232-0.153-0.464-0.288-0.707-0.422c-0.686-0.369-1.392-0.67-2.13-0.892
			c-0.2-0.061-0.38-0.14-0.58-0.195C359.87,0.119,359.048,0,358.204,0H97.2c-11.907,0-21.6,9.695-21.6,21.601v507.6
			c0,11.913,9.692,21.601,21.6,21.601h356.4c11.918,0,21.6-9.688,21.6-21.601V133.21C475.2,132.804,475.137,132.398,475.095,132z
			 M180.149,512.721l-27.382-48.289l-9.624,11.792v36.503h-25.054V400.882h25.054v49.438h0.504c2.489-4.313,5.139-8.29,7.636-12.271
			l25.384-37.167H207.7l-37.007,47.624l38.995,64.215H180.149z M316.206,512.721l-1.655-42.814
			c-0.496-13.438-1.002-29.7-1.002-45.964h-0.496c-3.485,14.275-8.126,30.206-12.44,43.311l-13.61,43.644h-19.746l-11.944-43.311
			c-3.649-13.11-7.462-29.047-10.125-43.644h-0.335c-0.665,15.104-1.16,32.353-1.985,46.296l-1.994,42.478h-23.398l7.137-111.839
			h33.687l10.95,37.336c3.483,12.94,6.966,26.884,9.455,39.982h0.498c3.154-12.936,6.972-27.717,10.621-40.157l11.944-37.167h33.022
			l6.138,111.839h-24.722V512.721z M430.191,512.721h-69.867V400.882h25.392v90.603h44.476V512.721z M97.2,366.758V21.605h250.204
			v110.519c0,5.961,4.83,10.8,10.8,10.8h95.396l0.011,223.834H97.2z"/>
		<g>
			<path d="M272.025,64.505c72.452-0.276,132.891,59.034,132.748,132.92c-0.143,72.101-59.542,133.046-133.855,132.481
				c-72.839-0.559-131.662-61.606-131.425-133.312C139.736,124.137,199.476,64.299,272.025,64.505z M154.462,161.196
				c0.433,0.309,0.865,0.606,1.295,0.912c1.313-0.794,2.734-1.463,3.91-2.418c2.618-2.138,5.07-4.498,7.673-6.657
				c15.617-12.968,32.616-16.757,51.371-7.317c6.344,3.19,12.696,6.516,18.602,10.437c26.109,17.328,51.671,35.521,78.208,52.165
				c20.999,13.181,43.87,22.61,68.46,27.382c3.797,0.741,5.5-0.253,6.223-3.644c0.991-4.617,1.566-9.337,2.816-13.877
				c0.833-2.987-0.274-4.095-2.812-4.688c-13.072-3.082-25.069-8.878-35.495-17.01c-19.068-14.881-37.6-30.478-56.083-46.105
				c-12.788-10.826-24.94-22.409-37.687-33.302c-17.305-14.769-37.589-17.497-59.173-13.176c-5.329,1.062-11.588,2.252-15.325,5.664
				c-12.852,11.752-23.042,25.716-29.133,42.282C156.189,154.895,155.4,158.08,154.462,161.196z M373.513,266.599
				c-0.49-0.529-0.976-1.046-1.472-1.576c-1.571,0.396-3.143,0.757-4.703,1.184c-16.675,4.567-33.598,8.564-50.899,7.699
				c-14.939-0.751-29.922-2.787-44.624-5.579c-25.423-4.831-48.977-15.414-72.792-25.196c-7.538-3.093-15.704-5.762-23.738-6.308
				c-10.747-0.732-16.648,10.136-11.541,19.42c12.01,21.821,29.049,38.586,51.073,50.229c1.767,0.928,3.786,1.371,6.692,2.399
				c-0.583-2.896-0.839-4.52-1.237-6.097c-2.917-11.585,1.814-16.437,13.687-13.99c1.653,0.343,3.312,0.675,4.952,1.107
				c28.571,7.372,57.43,10.821,86.872,6.381c15.562-2.352,30.786-5.374,40.526-19.723
				C368.608,273.154,371.113,269.903,373.513,266.599z M236.931,79.748c0.087,0.707,0.171,1.405,0.258,2.112
				c1.237,0.206,2.463,0.546,3.7,0.604c6.415,0.358,12.83,0.585,19.24,0.973c23.457,1.421,44.149,9.851,60.054,27.108
				c12.355,13.387,22.744,28.582,34.383,42.654c5.136,6.225,10.815,12.139,16.954,17.378c4.614,3.937,10.172,3.375,14.074,0.192
				c4.262-3.478,4.947-6.787,2.769-13.239c-7.693-22.805-21.151-41.7-40.136-56.252c-27.527-21.12-58.725-30.048-93.379-25.444
				C248.817,76.631,242.903,78.419,236.931,79.748z"/>
		</g>
	</g>
</g>
<g>
</g>
<g>
</g>
<g>
</g>
<g>
</g>
<g>
</g>
<g>
</g>
<g>
</g>
<g>
</g>
<g>
</g>
<g>
</g>
<g>
</g>
<g>
</g>
<g>
</g>
<g>
</g>
<g>
</g>
</svg>
