<?xml version="1.0" encoding="iso-8859-1"?>
<!-- Generator: Adobe Illustrator 16.0.0, SVG Export Plug-In . SVG Version: 6.00 Build 0)  -->
<!DOCTYPE svg PUBLIC "-//W3C//DTD SVG 1.1//EN" "http://www.w3.org/Graphics/SVG/1.1/DTD/svg11.dtd">
<svg version="1.1" id="Capa_1" xmlns="http://www.w3.org/2000/svg" xmlns:xlink="http://www.w3.org/1999/xlink" x="0px" y="0px"
	 width="550.801px" height="550.801px" viewBox="0 0 550.801 550.801" style="enable-background:new 0 0 550.801 550.801;"
	 xml:space="preserve">
<g>
	<g>
		<path d="M475.095,132c-0.031-2.529-0.828-5.023-2.562-6.995L366.325,3.694c-0.021-0.031-0.053-0.042-0.085-0.074
			c-0.633-0.709-1.36-1.292-2.141-1.803c-0.232-0.153-0.464-0.288-0.707-0.422c-0.686-0.369-1.392-0.67-2.13-0.892
			c-0.2-0.061-0.38-0.14-0.58-0.195C359.87,0.119,359.048,0,358.204,0H97.2c-11.907,0-21.6,9.695-21.6,21.601v507.6
			c0,11.913,9.692,21.601,21.6,21.601h356.4c11.918,0,21.6-9.688,21.6-21.601V133.21C475.2,132.804,475.137,132.398,475.095,132z
			 M169.494,512.947l-27.383-48.283l-9.621,11.781v36.508h-25.057v-111.85h25.057v49.449h0.501
			c2.489-4.314,5.142-8.301,7.636-12.277l25.387-37.172h31.031l-37.006,47.624l38.995,64.22H169.494z M305.554,512.947l-1.655-42.82
			c-0.496-13.431-1.002-29.699-1.002-45.952H302.4c-3.491,14.265-8.126,30.185-12.445,43.306l-13.605,43.643h-19.746l-11.944-43.316
			c-3.652-13.109-7.465-29.035-10.125-43.632h-0.335c-0.665,15.093-1.163,32.342-1.988,46.285l-1.993,42.482h-23.398l7.14-111.845
			h33.684l10.95,37.336c3.483,12.941,6.966,26.885,9.458,39.983h0.496c3.153-12.936,6.971-27.706,10.62-40.151l11.947-37.173h33.022
			l6.138,111.845h-24.722V512.947z M429.49,512.947h-86.948v-13.615l53.262-76.655v-0.664H347.52v-20.909h81.143v14.602
			l-52.106,75.669v0.664h52.935V512.947z M97.2,366.758V21.605h250.204v110.519c0,5.961,4.83,10.8,10.8,10.8h95.396l0.011,223.834
			H97.2z"/>
		<g>
			<path d="M275.292,64.505c72.449-0.276,132.889,59.034,132.746,132.92c-0.138,72.101-59.537,133.046-133.854,132.492
				C201.346,329.353,142.523,268.3,142.76,196.6C143.003,124.137,202.743,64.299,275.292,64.505z M157.724,161.196
				c0.433,0.309,0.865,0.606,1.295,0.912c1.312-0.794,2.734-1.463,3.91-2.418c2.618-2.138,5.07-4.498,7.673-6.657
				c15.617-12.968,32.616-16.757,51.371-7.317c6.344,3.19,12.696,6.516,18.602,10.437c26.109,17.328,51.674,35.521,78.205,52.165
				c20.999,13.181,43.875,22.61,68.46,27.382c3.797,0.741,5.506-0.253,6.223-3.644c0.991-4.617,1.571-9.337,2.821-13.877
				c0.828-2.987-0.274-4.095-2.811-4.688c-13.078-3.082-25.07-8.878-35.495-17.01c-19.074-14.881-37.605-30.478-56.083-46.105
				c-12.794-10.826-24.943-22.409-37.689-33.302c-17.305-14.769-37.589-17.497-59.173-13.176
				c-5.329,1.062-11.588,2.252-15.325,5.664c-12.852,11.752-23.042,25.716-29.133,42.282
				C159.456,154.895,158.662,158.08,157.724,161.196z M376.777,266.599c-0.496-0.529-0.981-1.046-1.477-1.576
				c-1.566,0.396-3.144,0.757-4.699,1.184c-16.675,4.567-33.597,8.564-50.904,7.699c-14.935-0.751-29.916-2.787-44.621-5.579
				c-25.423-4.831-48.977-15.414-72.792-25.196c-7.538-3.093-15.704-5.762-23.738-6.308c-10.747-0.732-16.648,10.136-11.541,19.42
				c12.01,21.821,29.049,38.586,51.073,50.229c1.767,0.928,3.786,1.371,6.692,2.399c-0.583-2.896-0.838-4.52-1.237-6.097
				c-2.916-11.585,1.814-16.437,13.688-13.99c1.653,0.343,3.312,0.675,4.954,1.107c28.569,7.372,57.431,10.821,86.867,6.381
				c15.567-2.352,30.786-5.374,40.531-19.723C371.873,273.154,374.372,269.903,376.777,266.599z M240.197,79.748
				c0.087,0.707,0.172,1.405,0.259,2.112c1.236,0.206,2.463,0.546,3.699,0.604c6.415,0.358,12.83,0.585,19.24,0.973
				c23.453,1.421,44.146,9.851,60.057,27.108c12.351,13.387,22.739,28.582,34.383,42.654c5.136,6.225,10.811,12.139,16.948,17.378
				c4.62,3.937,10.173,3.375,14.075,0.192c4.267-3.478,4.952-6.787,2.769-13.239c-7.688-22.805-21.146-41.7-40.136-56.252
				c-27.527-21.12-58.726-30.048-93.377-25.444C252.084,76.631,246.165,78.419,240.197,79.748z"/>
		</g>
	</g>
</g>
<g>
</g>
<g>
</g>
<g>
</g>
<g>
</g>
<g>
</g>
<g>
</g>
<g>
</g>
<g>
</g>
<g>
</g>
<g>
</g>
<g>
</g>
<g>
</g>
<g>
</g>
<g>
</g>
<g>
</g>
</svg>
