<?xml version="1.0" encoding="iso-8859-1"?>
<!-- Generator: Adobe Illustrator 16.0.0, SVG Export Plug-In . SVG Version: 6.00 Build 0)  -->
<!DOCTYPE svg PUBLIC "-//W3C//DTD SVG 1.1//EN" "http://www.w3.org/Graphics/SVG/1.1/DTD/svg11.dtd">
<svg version="1.1" id="Capa_1" xmlns="http://www.w3.org/2000/svg" xmlns:xlink="http://www.w3.org/1999/xlink" x="0px" y="0px"
	 width="550.801px" height="550.801px" viewBox="0 0 550.801 550.801" style="enable-background:new 0 0 550.801 550.801;"
	 xml:space="preserve">
<g>
	<g>
		<path d="M475.095,131.997c-0.032-2.526-0.833-5.021-2.568-6.992L366.324,3.694c-0.021-0.031-0.053-0.042-0.084-0.076
			c-0.633-0.707-1.36-1.29-2.141-1.804c-0.232-0.15-0.465-0.285-0.707-0.422c-0.686-0.366-1.393-0.667-2.131-0.889
			c-0.2-0.061-0.379-0.143-0.58-0.195C359.87,0.119,359.047,0,358.203,0H97.2C85.292,0,75.6,9.693,75.6,21.601v507.6
			c0,11.913,9.692,21.601,21.6,21.601H453.6c11.918,0,21.601-9.688,21.601-21.601V133.202
			C475.2,132.799,475.137,132.398,475.095,131.997z M193.957,516.207h-77.15V392.692h28.039V492.75h49.111V516.207z
			 M312.704,516.207h-29.32l-26.394-47.641c-7.327-13.194-15.393-29.141-21.437-43.622l-0.551,0.19
			c0.733,16.311,1.102,33.718,1.102,53.878v37.204H210.45V392.692h32.622l25.655,45.267c7.327,13.016,14.657,28.403,20.157,42.336
			h0.554c-1.835-16.316-2.383-32.985-2.383-51.501v-36.102h25.655v123.515H312.704z M405.422,516.207l-30.238-53.325l-10.631,13.01
			v40.315h-27.675V392.692h27.675v54.611h0.549c2.752-4.767,5.685-9.165,8.432-13.563l28.039-41.048h34.267l-40.869,52.592
			l43.068,70.923H405.422L405.422,516.207z M97.2,366.752V21.601h250.203v110.515c0,5.961,4.831,10.8,10.8,10.8H453.6l0.011,223.836
			H97.2z"/>
		<path d="M357.091,259.865l-36.435-50.084c-10.583-14.549-29.473-19.506-45.488-13.188l-1.495-2.052
			c10.939-13.3,12.042-32.788,1.458-47.34l-27.514-37.823c-12.557-17.252-36.801-21.081-54.061-8.538l-3.913,2.853
			c-17.26,12.548-21.078,36.806-8.527,54.058l27.506,37.815c10.238,14.086,28.271,19.209,43.941,13.819l1.988,2.721
			c-9.97,13.242-10.645,31.975-0.401,46.053l36.438,50.084c12.551,17.244,36.803,21.073,54.058,8.522l3.907-2.838
			C365.818,301.367,369.642,277.099,357.091,259.865z M238.847,168.6c-5.756,4.179-7.03,12.263-2.84,18.014l8.369,11.496
			c-9.395,1.643-19.348-1.912-25.321-10.12l-27.506-37.831c-8.377-11.491-5.822-27.665,5.685-36.042l3.916-2.85
			c11.501-8.358,27.675-5.817,36.039,5.697l27.515,37.806c6.349,8.735,6.383,20.142,1.01,28.809l-8.831-12.14
			C252.682,165.663,244.608,164.397,238.847,168.6z M340.97,303.492l-3.913,2.842c-11.501,8.364-27.675,5.822-36.038-5.674
			l-36.435-50.09c-5.982-8.229-6.291-18.781-1.848-27.216l8.367,11.498c4.189,5.767,12.261,7.051,18.019,2.851
			c5.759-4.195,7.035-12.264,2.838-18.02l-8.828-12.149c9.893-2.452,20.735,1.083,27.095,9.832l36.429,50.074
			C355.029,278.944,352.477,295.123,340.97,303.492z"/>
	</g>
</g>
<g>
</g>
<g>
</g>
<g>
</g>
<g>
</g>
<g>
</g>
<g>
</g>
<g>
</g>
<g>
</g>
<g>
</g>
<g>
</g>
<g>
</g>
<g>
</g>
<g>
</g>
<g>
</g>
<g>
</g>
</svg>
