<?xml version="1.0" encoding="iso-8859-1"?>
<!-- Generator: Adobe Illustrator 16.0.0, SVG Export Plug-In . SVG Version: 6.00 Build 0)  -->
<!DOCTYPE svg PUBLIC "-//W3C//DTD SVG 1.1//EN" "http://www.w3.org/Graphics/SVG/1.1/DTD/svg11.dtd">
<svg version="1.1" id="Capa_1" xmlns="http://www.w3.org/2000/svg" xmlns:xlink="http://www.w3.org/1999/xlink" x="0px" y="0px"
	 width="548.291px" height="548.291px" viewBox="0 0 548.291 548.291" style="enable-background:new 0 0 548.291 548.291;"
	 xml:space="preserve">
<g>
	<g>
		<path d="M256.08,417.128c-18.09,0-28.625,17.209-28.625,40.21c0,23.183,10.885,39.52,28.795,39.52
			c18.09,0,28.447-17.209,28.447-40.216C284.702,435.392,274.522,417.128,256.08,417.128z"/>
		<path d="M472.929,131.39c-0.031-2.514-0.829-4.997-2.556-6.96L364.656,3.677c-0.021-0.034-0.053-0.044-0.084-0.075
			c-0.63-0.704-1.354-1.284-2.132-1.796c-0.23-0.149-0.462-0.283-0.703-0.419c-0.683-0.365-1.387-0.667-2.121-0.888
			c-0.2-0.058-0.377-0.139-0.577-0.191C358.231,0.113,357.411,0,356.572,0H96.757C84.904,0,75.255,9.649,75.255,21.502V526.79
			c0,11.858,9.649,21.501,21.502,21.501h354.775c11.863,0,21.503-9.643,21.503-21.501V132.595
			C473.036,132.191,472.971,131.795,472.929,131.39z M195.477,516.164h-73.93V397.812h26.867v95.88h47.063V516.164z
			 M254.853,518.101c-35.124,0-55.667-26.515-55.667-60.226c0-35.481,22.651-61.996,57.596-61.996
			c36.355,0,56.198,27.219,56.198,59.886C312.98,494.568,289.452,518.101,254.853,518.101z M429.433,510.726
			c-8.263,2.808-23.884,6.672-39.518,6.672c-21.596,0-37.229-5.443-48.115-15.979c-10.889-10.188-16.856-25.643-16.683-43.028
			c0.177-39.335,28.792-61.817,67.611-61.817c15.276,0,27.041,2.992,32.835,5.794l-5.617,21.43
			c-6.492-2.814-14.571-5.093-27.569-5.093c-22.305,0-39.161,12.647-39.161,38.279c0,24.408,15.282,38.813,37.234,38.813
			c6.142,0,11.056-0.704,13.166-1.753v-24.762h-18.258v-20.897h44.074V510.726L429.433,510.726z M96.757,365.081V21.502H345.82
			v110.011c0,5.935,4.81,10.751,10.752,10.751h94.961l0.011,222.816H96.757z"/>
	</g>
	<g>
		<path d="M355.221,91.376h-15.229v25.985c0,4.699-3.81,8.509-8.508,8.509c-4.705,0-8.51-3.811-8.51-8.509V91.376h-26.878v25.985
			c0,4.699-3.81,8.509-8.508,8.509c-4.703,0-8.51-3.811-8.51-8.509V91.376h-33.155v25.985c0,4.699-3.811,8.509-8.51,8.509
			c-4.703,0-8.509-3.811-8.509-8.509V91.376h-26.877v25.985c0,4.699-3.811,8.509-8.51,8.509c-4.703,0-8.509-3.811-8.509-8.509
			V91.376h-7.165c-8.906,0-16.126,7.218-16.126,16.127v209.641c0,8.907,7.221,16.126,16.126,16.126h177.387
			c8.909,0,16.127-7.219,16.127-16.126V107.503C371.348,98.595,364.13,91.376,355.221,91.376z M357.915,317.149H171.566V155.887
			h186.349V317.149z"/>
		<path d="M202.023,88.689c0-4.698-3.811-8.509-8.51-8.509c-4.703,0-8.509,3.811-8.509,8.509v2.688h17.024v-2.688H202.023z"/>
		<path d="M245.924,88.689c0-4.698-3.811-8.509-8.51-8.509c-4.703,0-8.509,3.811-8.509,8.509v2.688h17.024v-2.688H245.924z"/>
		<path d="M296.092,88.689c0-4.698-3.811-8.509-8.508-8.509c-4.705,0-8.511,3.811-8.511,8.509v2.688h17.023v-2.688H296.092z"/>
		<path d="M339.993,88.689c0-4.698-3.81-8.509-8.508-8.509c-4.705,0-8.51,3.811-8.51,8.509v2.688h17.023v-2.688H339.993z"/>
		<path d="M193.514,186.795h137.971c1.485,0,2.688-1.205,2.688-2.688s-1.202-2.688-2.688-2.688H193.514
			c-1.483,0-2.688,1.205-2.688,2.688S192.031,186.795,193.514,186.795z"/>
		<path d="M193.514,218.15h137.971c1.485,0,2.688-1.205,2.688-2.688s-1.202-2.688-2.688-2.688H193.514
			c-1.483,0-2.688,1.205-2.688,2.688S192.031,218.15,193.514,218.15z"/>
		<path d="M193.514,254.885h137.971c1.485,0,2.688-1.204,2.688-2.688s-1.202-2.688-2.688-2.688H193.514
			c-1.483,0-2.688,1.205-2.688,2.688S192.031,254.885,193.514,254.885z"/>
		<path d="M193.514,286.241h137.971c1.485,0,2.688-1.208,2.688-2.688s-1.202-2.688-2.688-2.688H193.514
			c-1.483,0-2.688,1.207-2.688,2.688S192.031,286.241,193.514,286.241z"/>
	</g>
</g>
<g>
</g>
<g>
</g>
<g>
</g>
<g>
</g>
<g>
</g>
<g>
</g>
<g>
</g>
<g>
</g>
<g>
</g>
<g>
</g>
<g>
</g>
<g>
</g>
<g>
</g>
<g>
</g>
<g>
</g>
</svg>
