<?xml version="1.0" encoding="iso-8859-1"?>
<!-- Generator: Adobe Illustrator 16.0.0, SVG Export Plug-In . SVG Version: 6.00 Build 0)  -->
<!DOCTYPE svg PUBLIC "-//W3C//DTD SVG 1.1//EN" "http://www.w3.org/Graphics/SVG/1.1/DTD/svg11.dtd">
<svg version="1.1" id="Capa_1" xmlns="http://www.w3.org/2000/svg" xmlns:xlink="http://www.w3.org/1999/xlink" x="0px" y="0px"
	 width="550.801px" height="550.801px" viewBox="0 0 550.801 550.801" style="enable-background:new 0 0 550.801 550.801;"
	 xml:space="preserve">
<g>
	<g>
		<g>
			<path d="M475.095,131.992c-0.031-2.526-0.833-5.021-2.568-6.993L366.319,3.694c-0.021-0.031-0.053-0.045-0.089-0.076
				c-0.628-0.707-1.361-1.29-2.136-1.804c-0.232-0.15-0.465-0.285-0.707-0.422c-0.686-0.366-1.393-0.67-2.136-0.892
				c-0.2-0.058-0.374-0.14-0.575-0.192C359.87,0.119,359.037,0,358.198,0H97.2c-11.907,0-21.6,9.693-21.6,21.601v507.6
				c0,11.913,9.692,21.601,21.6,21.601h356.4c11.918,0,21.6-9.688,21.6-21.601V133.202
				C475.2,132.796,475.137,132.398,475.095,131.992z M198.616,518.427H120.76V393.778h28.286v100.976h49.57V518.427z
				 M311.233,463.684c0,38.464-19.417,56.773-51.964,56.773c-31.438,0-49.926-17.381-49.926-57.143v-69.536h28.284v71.756
				c0,21.458,8.142,32.363,22.573,32.363c14.784,0,22.916-10.357,22.916-32.363v-71.756h28.118V463.684z M404.452,518.427
				l-9.619-31.994h-35.695l-8.876,31.994h-29.235l38.111-124.648h36.993l38.638,124.648H404.452z M97.2,366.752V21.601h250.204
				v110.515c0,5.961,4.83,10.8,10.8,10.8h95.396l0.011,223.836H97.2z"/>
			<path d="M376.708,414.867h-0.363c-1.856,7.388-3.707,16.816-5.743,24.031l-7.394,26.446h27.554l-7.768-26.446
				C380.769,431.505,378.56,422.255,376.708,414.867z"/>
		</g>
		<g>
			<path d="M346.37,242.594l11.386-38.042c0.385-1.311,0.464-2.634,0.284-3.913l2.948-9.041c0.453-1.49-0.158-2.835-1.255-3.953
				c0.147-0.285,0.348-0.519,0.453-0.838c0.718-2.283-0.569-4.712-2.858-5.432l-3.85-1.208c-2.277-0.698-4.725,0.564-5.432,2.851
				c-0.073,0.227-0.042,0.459-0.073,0.686c-1.419,0.216-2.568,0.82-3.012,2.23l-2.663,9.39c-1.064,1.055-1.914,2.35-2.373,3.889
				l-11.396,38.042c-0.585,1.97-0.464,3.974,0.18,5.777l-15.504,54.416c-1.019,3.359-2.99,18.278,0.374,19.312
				c3.364,1.018,10.769-12.229,11.797-15.594l17.439-53.704C344.461,246.317,345.748,244.664,346.37,242.594z"/>
			<path d="M145.858,134.141l137.136-51.094l44.951,120.648c0.611-1.561,1.36-3.064,2.356-4.435l2.047-7.164
				c0.4-1.297,0.985-2.468,1.671-3.549L289.459,68.938l-157.71,58.751l76.497,205.309l93.938-35.005l3.728-13.105l-91.225,33.993
				L145.858,134.141z"/>
			<path d="M356.569,249.049l-1.751,5.854c-0.896,2.979-2.437,5.653-4.514,7.895l-0.158,0.464l1.688,4.52l-3.586,1.339
				l-4.335,13.326l22.043-8.21L356.569,249.049z"/>
			<path d="M270.082,193.456c0.928-1.044,2.17-1.663,3.499-1.756l0.938-0.058l1.076,0.337c0.841,0.309,1.537,0.235,2.139-0.073
				c0.641-0.319,1.149-0.907,1.36-1.572c0.608-1.922,2.243-3.241,4.205-3.499l-0.242-3.673c-0.032-0.382-0.306-0.728-0.675-0.854
				c-3.998-1.258-7.338-4.124-9.187-7.865c-1.856-3.755-2.109-8.172-0.696-12.103c0.135-0.356,0.032-0.783-0.253-1.031l-8.883-7.765
				c-0.499-0.432-0.81-0.261-1.076-0.124c-3.67,1.922-8.1,2.278-12.063,0.923c-3.963-1.329-7.246-4.277-9.039-8.068
				c-0.158-0.34-0.53-0.562-0.931-0.533l-11.75,0.786c-0.388,0.019-0.728,0.292-0.854,0.648c-1.253,3.997-4.124,7.351-7.866,9.197
				c-3.733,1.864-8.176,2.112-12.108,0.675c-0.242-0.077-0.599-0.206-1.031,0.279l-7.771,8.878c-0.255,0.298-0.308,0.73-0.113,1.07
				c1.927,3.71,2.268,8.105,0.928,12.068c-1.34,3.958-4.271,7.248-8.068,9.028c-0.356,0.163-0.567,0.53-0.551,0.931l0.789,11.771
				c0.021,0.385,0.287,0.714,0.654,0.838c3.998,1.258,7.338,4.132,9.208,7.874c1.846,3.742,2.091,8.168,0.664,12.1
				c-0.124,0.363-0.021,0.783,0.274,1.033l8.883,7.776c0.488,0.419,0.809,0.248,1.065,0.113c1.891-0.989,3.953-1.566,6.096-1.714
				c2.046-0.129,4.05,0.122,5.978,0.791c3.963,1.337,7.246,4.269,9.028,8.061c0.169,0.345,0.541,0.562,0.931,0.541l11.76-0.783
				c0.401-0.026,0.73-0.293,0.844-0.654c1.263-3.995,4.124-7.343,7.878-9.197c3.66-1.804,7.921-2.078,11.76-0.794
				c0.021-0.49,0.113-0.997,0.287-1.479c0.253-0.696,0.211-1.463-0.108-2.102c-0.308-0.614-0.886-1.115-1.571-1.326
				c-2.036-0.669-3.43-2.452-3.565-4.564l-0.366-5.58c-0.146-2.104,0.994-4.055,2.9-4.973c0.675-0.321,1.191-0.891,1.413-1.556
				c0.222-0.661,0.158-1.429-0.156-2.046c-0.973-1.883-0.686-4.185,0.686-5.767L270.082,193.456z M238.977,214.985
				c-12.614,0.836-23.559-8.743-24.397-21.357c-0.852-12.609,8.723-23.57,21.347-24.414c12.625-0.841,23.572,8.749,24.414,21.363
				S251.602,214.144,238.977,214.985z"/>
			<path d="M308.021,207.505c-1.888-0.599-3.47-1.959-4.345-3.731c-0.886-1.78-1.008-3.866-0.332-5.735
				c0.068-0.166,0.01-0.366-0.122-0.49l-4.197-3.684c-0.242-0.203-0.4-0.113-0.517-0.063c-1.729,0.912-3.85,1.084-5.722,0.448
				c-1.878-0.638-3.438-2.03-4.282-3.828c-0.074-0.164-0.253-0.272-0.427-0.262l-5.58,0.38c-0.179,0.016-0.348,0.135-0.39,0.306
				c-0.602,1.891-1.962,3.491-3.733,4.364c-1.77,0.881-3.871,0.999-5.73,0.319c-0.124-0.037-0.295-0.103-0.496,0.129l-3.694,4.195
				c-0.113,0.142-0.145,0.359-0.063,0.52c0.928,1.756,1.073,3.839,0.454,5.719c-0.644,1.88-2.025,3.433-3.818,4.276
				c-0.168,0.077-0.287,0.253-0.276,0.443l0.379,5.571c0.01,0.185,0.134,0.34,0.316,0.396c1.891,0.599,3.483,1.959,4.348,3.73
				c0.886,1.772,1.015,3.866,0.34,5.735c-0.066,0.174-0.011,0.361,0.113,0.493l4.219,3.686c0.232,0.201,0.377,0.114,0.496,0.056
				c0.896-0.464,1.88-0.746,2.9-0.81c0.96-0.065,1.911,0.068,2.813,0.372c1.874,0.625,3.446,2.03,4.279,3.823
				c0.073,0.166,0.264,0.264,0.442,0.253l5.569-0.372c0.179-0.01,0.348-0.129,0.4-0.303c0.602-1.901,1.951-3.488,3.733-4.364
				c1.772-0.88,3.871-0.991,5.738-0.324c0.115,0.045,0.284,0.098,0.484-0.118l3.682-4.211c0.115-0.135,0.137-0.34,0.068-0.509
				c-0.923-1.754-1.087-3.845-0.443-5.722c0.628-1.886,2.015-3.436,3.818-4.277c0.163-0.087,0.274-0.255,0.264-0.438l-0.364-5.574
				C308.328,207.721,308.201,207.561,308.021,207.505z M287.455,222.982c-5.969,0.406-11.158-4.143-11.564-10.12
				c-0.388-5.967,4.137-11.166,10.125-11.572c5.965-0.382,11.153,4.153,11.564,10.13C297.981,217.397,293.44,222.59,287.455,222.982
				z"/>
		</g>
	</g>
</g>
<g>
</g>
<g>
</g>
<g>
</g>
<g>
</g>
<g>
</g>
<g>
</g>
<g>
</g>
<g>
</g>
<g>
</g>
<g>
</g>
<g>
</g>
<g>
</g>
<g>
</g>
<g>
</g>
<g>
</g>
</svg>
