<?xml version="1.0" encoding="iso-8859-1"?>
<!-- Generator: Adobe Illustrator 16.0.0, SVG Export Plug-In . SVG Version: 6.00 Build 0)  -->
<!DOCTYPE svg PUBLIC "-//W3C//DTD SVG 1.1//EN" "http://www.w3.org/Graphics/SVG/1.1/DTD/svg11.dtd">
<svg version="1.1" id="Capa_1" xmlns="http://www.w3.org/2000/svg" xmlns:xlink="http://www.w3.org/1999/xlink" x="0px" y="0px"
	 width="548.291px" height="548.291px" viewBox="0 0 548.291 548.291" style="enable-background:new 0 0 548.291 548.291;"
	 xml:space="preserve">
<g>
	<path d="M472.929,131.396c-0.031-2.517-0.829-5-2.556-6.96L364.656,3.675c-0.021-0.031-0.053-0.042-0.084-0.073
		c-0.63-0.704-1.354-1.287-2.132-1.796c-0.23-0.152-0.462-0.286-0.703-0.419c-0.683-0.365-1.387-0.667-2.121-0.888
		c-0.2-0.058-0.377-0.139-0.577-0.194C358.231,0.118,357.411,0,356.572,0H96.757C84.904,0,75.255,9.649,75.255,21.502V526.79
		c0,11.858,9.649,21.501,21.502,21.501h354.775c11.863,0,21.503-9.643,21.503-21.501V132.595
		C473.036,132.191,472.971,131.792,472.929,131.396z M208.204,512.689l-1.698-43.854c-0.512-13.774-1.015-30.431-1.015-47.088
		h-0.512c-3.567,14.621-8.331,30.935-12.749,44.363l-13.94,44.709h-20.229l-12.239-44.366c-3.74-13.429-7.649-29.755-10.368-44.706
		h-0.339c-0.679,15.472-1.189,33.152-2.039,47.425l-2.042,43.517h-23.963l7.309-114.562h34.505l11.22,38.242
		c3.569,13.254,7.136,27.537,9.69,40.966h0.512c3.232-13.26,7.139-28.39,10.88-41.13l12.234-38.078h33.827l6.29,114.562H208.204z
		 M281.453,514.559c-14.279,0-26.348-3.739-32.809-7.822l5.268-19.37c4.59,2.371,15.126,6.798,25.672,6.798
		c13.423,0,20.22-6.452,20.22-14.788c0-10.877-10.876-15.811-22.267-15.811h-10.536v-18.521h10.032
		c8.671-0.166,19.716-3.401,19.716-12.75c0-6.62-5.438-11.555-16.319-11.555c-9.008,0-18.528,3.911-23.114,6.631l-5.267-18.704
		c6.627-4.251,19.882-8.325,34.166-8.325c23.627,0,36.715,12.41,36.715,27.527c0,11.738-6.63,20.915-20.227,25.67v0.336
		c13.26,2.384,23.969,12.41,23.969,26.856C326.67,500.281,309.5,514.559,281.453,514.559z M441.218,462.374
		c0,35.354-17.844,52.186-47.766,52.186c-28.893,0-45.895-15.979-45.895-52.525v-63.907h26.005v65.953
		c0,19.717,7.481,29.743,20.741,29.743c13.596,0,21.071-9.518,21.071-29.743v-65.953h25.843V462.374z M96.757,365.081V21.502H345.82
		v110.011c0,5.935,4.81,10.751,10.752,10.751h94.961l0.011,222.816H96.757z"/>
	<path d="M264.809,110.857c-56.024,0-101.598,45.576-101.598,101.605c0,56.021,45.578,101.593,101.598,101.593
		c56.034,0,101.604-45.577,101.604-101.593C366.419,156.438,320.843,110.857,264.809,110.857z M330.813,216.326l-93.398,59.635
		c-0.512,0.4-1.113,0.61-1.743,0.61l-1.231-0.285c-0.971-0.45-1.585-1.453-1.585-2.519V154.488c0-1.063,0.614-2.068,1.585-2.52
		c0.979-0.486,2.128-0.362,2.979,0.31l93.393,59.62c0.667,0.559,1.064,1.375,1.064,2.215
		C331.877,214.956,331.48,215.783,330.813,216.326z"/>
</g>
<g>
</g>
<g>
</g>
<g>
</g>
<g>
</g>
<g>
</g>
<g>
</g>
<g>
</g>
<g>
</g>
<g>
</g>
<g>
</g>
<g>
</g>
<g>
</g>
<g>
</g>
<g>
</g>
<g>
</g>
</svg>
