<?xml version="1.0" encoding="iso-8859-1"?>
<!-- Generator: Adobe Illustrator 16.0.0, SVG Export Plug-In . SVG Version: 6.00 Build 0)  -->
<!DOCTYPE svg PUBLIC "-//W3C//DTD SVG 1.1//EN" "http://www.w3.org/Graphics/SVG/1.1/DTD/svg11.dtd">
<svg version="1.1" id="Capa_1" xmlns="http://www.w3.org/2000/svg" xmlns:xlink="http://www.w3.org/1999/xlink" x="0px" y="0px"
	 width="550.801px" height="550.801px" viewBox="0 0 550.801 550.801" style="enable-background:new 0 0 550.801 550.801;"
	 xml:space="preserve">
<g>
	<g>
		<path d="M285.108,440.29l-14.829,24.2v0.343h24.886V440.29c0-6.645,0.337-13.468,0.854-20.624h-0.686
			C291.758,426.827,288.863,433.298,285.108,440.29z"/>
		<path d="M475.095,131.997c-0.032-2.528-0.833-5.023-2.568-6.992L366.324,3.691c-0.021-0.031-0.053-0.042-0.084-0.073
			c-0.633-0.707-1.36-1.292-2.141-1.804c-0.232-0.153-0.465-0.287-0.707-0.422c-0.686-0.366-1.393-0.67-2.131-0.892
			c-0.2-0.058-0.379-0.14-0.58-0.195C359.87,0.119,359.047,0,358.203,0H97.2C85.292,0,75.6,9.693,75.6,21.601v507.6
			c0,11.913,9.692,21.601,21.6,21.601H453.6c11.918,0,21.601-9.688,21.601-21.601V133.202
			C475.2,132.796,475.137,132.396,475.095,131.997z M208.09,510.68l-1.701-43.97c-0.514-13.806-1.023-30.512-1.023-47.218h-0.512
			c-3.581,14.66-8.348,31.023-12.783,44.486l-13.975,44.829h-20.282l-12.269-44.481c-3.755-13.468-7.667-29.826-10.396-44.834h-0.34
			c-0.68,15.514-1.192,33.238-2.041,47.556l-2.046,43.632h-24.036l7.328-114.871h34.599l11.248,38.354
			c3.581,13.289,7.162,27.606,9.714,41.07h0.514c3.241-13.289,7.162-28.467,10.908-41.249l12.269-38.175h33.917l6.307,114.871
			H208.09z M333.007,484.266h-13.294v26.425H295.17v-26.425h-49.088v-16.875l41.927-67.489h31.704v64.937h13.294V484.266z
			 M405.433,510.68h-30.338L338.28,395.809h28.461l13.975,48.574c3.918,13.637,7.504,26.763,10.226,41.08h0.511
			c2.896-13.812,6.481-27.443,10.399-40.569l14.655-49.09h27.617L405.433,510.68z M97.2,366.752V21.601h250.203v110.515
			c0,5.961,4.831,10.8,10.8,10.8H453.6l0.011,223.836H97.2z"/>
	</g>
	<g>
		<rect x="198.635" y="155.185" width="13.466" height="14.57"/>
		<rect x="198.635" y="220.699" width="13.466" height="14.573"/>
		<rect x="198.635" y="188.167" width="13.466" height="14.576"/>
		<rect x="198.635" y="253.677" width="13.466" height="14.578"/>
		<path d="M370.248,213.63c0-26.175-9.988-49.995-26.235-68.072v136.145C360.266,263.617,370.248,239.792,370.248,213.63z"/>
		<path d="M210.832,298.002c16.355,11.148,36.1,17.688,57.343,17.688c21.252,0,40.991-6.539,57.354-17.688"/>
		<path d="M166.116,213.63c0,26.167,9.982,49.987,26.232,68.072V145.547C176.093,163.635,166.116,187.455,166.116,213.63z"/>
		<path d="M268.175,111.552c-20.369,0-39.319,6.064-55.263,16.385h110.529C307.494,117.616,288.552,111.552,268.175,111.552z"/>
		<rect x="216.983" y="141.405" width="99.84" height="66.013"/>
		<rect x="216.983" y="218.521" width="99.84" height="67.363"/>
		<rect x="323.652" y="155.185" width="13.479" height="14.57"/>
		<rect x="323.652" y="220.699" width="13.479" height="14.573"/>
		<rect x="323.652" y="188.167" width="13.479" height="14.576"/>
		<rect x="323.652" y="253.677" width="13.479" height="14.578"/>
	</g>
</g>
<g>
</g>
<g>
</g>
<g>
</g>
<g>
</g>
<g>
</g>
<g>
</g>
<g>
</g>
<g>
</g>
<g>
</g>
<g>
</g>
<g>
</g>
<g>
</g>
<g>
</g>
<g>
</g>
<g>
</g>
</svg>
