<?xml version="1.0" encoding="iso-8859-1"?>
<!-- Generator: Adobe Illustrator 16.0.0, SVG Export Plug-In . SVG Version: 6.00 Build 0)  -->
<!DOCTYPE svg PUBLIC "-//W3C//DTD SVG 1.1//EN" "http://www.w3.org/Graphics/SVG/1.1/DTD/svg11.dtd">
<svg version="1.1" id="Capa_1" xmlns="http://www.w3.org/2000/svg" xmlns:xlink="http://www.w3.org/1999/xlink" x="0px" y="0px"
	 width="550.801px" height="550.801px" viewBox="0 0 550.801 550.801" style="enable-background:new 0 0 550.801 550.801;"
	 xml:space="preserve">
<g>
	<g>
		<path d="M291.843,417.983h-0.338c-1.655,6.607-3.301,15.04-5.12,21.484l-6.607,23.63h24.621l-6.939-23.63
			C295.476,432.86,293.498,424.591,291.843,417.983z"/>
		<path d="M475.095,131.992c-0.032-2.526-0.833-5.021-2.568-6.993L366.324,3.694c-0.021-0.031-0.053-0.045-0.084-0.076
			c-0.633-0.707-1.36-1.29-2.141-1.804c-0.232-0.15-0.465-0.285-0.707-0.422c-0.686-0.366-1.393-0.67-2.131-0.892
			c-0.2-0.058-0.379-0.14-0.58-0.192C359.87,0.119,359.047,0,358.203,0H97.2C85.292,0,75.6,9.693,75.6,21.601v507.6
			c0,11.913,9.692,21.601,21.6,21.601H453.6c11.918,0,21.601-9.688,21.601-21.601V133.202
			C475.2,132.796,475.137,132.398,475.095,131.992z M206.745,510.521l-1.653-42.63c-0.496-13.39-0.994-29.584-0.994-45.779h-0.496
			c-3.472,14.207-8.1,30.075-12.393,43.127l-13.555,43.458h-19.651l-11.899-43.126c-3.636-13.058-7.431-28.92-10.078-43.459h-0.334
			c-0.659,15.035-1.155,32.227-1.98,46.101l-1.983,42.304h-23.295l7.101-111.375h33.544l10.908,37.178
			c3.473,12.894,6.945,26.773,9.418,39.825h0.496c3.143-12.889,6.945-27.596,10.579-39.979l11.897-37.02h32.885l6.115,111.375
			H206.745z M316.628,510.521l-8.596-28.587h-31.884l-7.936,28.587h-26.109l34.045-111.375h33.038l34.536,111.375H316.628z
			 M413.29,510.521l-10.083-20.154c-4.135-7.769-6.776-13.553-9.914-19.997h-0.327c-2.32,6.444-5.126,12.229-8.596,19.997
			l-9.255,20.154h-28.756l32.221-56.352l-31.061-55.023h28.914l9.751,20.335c3.307,6.771,5.779,12.224,8.432,18.499h0.333
			c2.642-7.104,4.788-12.061,7.599-18.499l9.418-20.335h28.751l-31.397,54.359l33.054,57.016H413.29z M97.2,366.752V21.601h250.203
			v110.515c0,5.961,4.831,10.8,10.8,10.8H453.6l0.011,223.836H97.2z"/>
	</g>
	<g>
		<path d="M401.878,195.128c-3.211-24.638-21.03-42.875-45.225-45.797c-34.31-4.158-69.409-4.346-104.008-2.784
			c-22.708,1.03-40.231,14.594-44.703,38.636c-5.242,28.194-9.972,57.105,11.686,81.345c4.575,5.131,11.923,8.656,18.668,10.813
			c41.866,13.489,80.099,7.404,114.471-22.417c-17.318-22.913-37.521-36.171-67.278-32.303c-24.187,3.148-44.854-5.218-62.786-29.07
			c18.003-10.507,34.143-23.375,52.537-30.016c52.79-19.059,106.874,7.968,114.004,56.84c2.879,19.751,0.49,40.607-1.825,60.689
			c-2.373,20.587-15.557,33.992-35.648,38.938c-46.501,11.448-93.411,14.307-140.695,4.588
			c-21.043-4.335-37.637-15.894-41.32-36.856c-5.875-33.388-12.778-67.761-10.547-101.125c3.385-50.599,18.733-64.254,70.092-71.529
			c38.665-5.472,77.962-6.317,116.849-10.444c6.761-0.723,17.824,0.005,19.264-11.543c1.45-11.557-0.385-12.778-6.28-11.401
			c-52.292,7.588-104.709,14.407-156.827,23.058c-32.492,5.39-50.949,26.438-57.633,58.683
			c-9.347,45.067-7.167,89.111,9.181,132.324c9.379,24.774,26.172,40.353,52.713,45.842c49.676,10.289,98.819,7.657,147.862-3.791
			c28.677-6.697,47.566-25.461,50.388-53.325C407.806,255.042,405.728,224.606,401.878,195.128z M324.396,252.559l-26.952,10.615
			l-2.047-17.964L324.396,252.559z"/>
		<polygon points="292.955,202.326 290.909,184.352 263.957,194.973 		"/>
	</g>
</g>
<g>
</g>
<g>
</g>
<g>
</g>
<g>
</g>
<g>
</g>
<g>
</g>
<g>
</g>
<g>
</g>
<g>
</g>
<g>
</g>
<g>
</g>
<g>
</g>
<g>
</g>
<g>
</g>
<g>
</g>
</svg>
