<?xml version="1.0" encoding="iso-8859-1"?>
<!-- Generator: Adobe Illustrator 16.0.0, SVG Export Plug-In . SVG Version: 6.00 Build 0)  -->
<!DOCTYPE svg PUBLIC "-//W3C//DTD SVG 1.1//EN" "http://www.w3.org/Graphics/SVG/1.1/DTD/svg11.dtd">
<svg version="1.1" id="Capa_1" xmlns="http://www.w3.org/2000/svg" xmlns:xlink="http://www.w3.org/1999/xlink" x="0px" y="0px"
	 width="550.801px" height="550.801px" viewBox="0 0 550.801 550.801" style="enable-background:new 0 0 550.801 550.801;"
	 xml:space="preserve">
<g>
	<g>
		<g>
			<path d="M410.126,428.014c0-7.994-6.117-12.229-16.938-12.229c-5.178,0-8.157,0.312-10.198,0.628v24.622h7.842
				C403.376,441.034,410.126,435.86,410.126,428.014z"/>
			<path d="M391.152,458.13h-8.158v29.801c2.357,0.316,5.174,0.316,9.25,0.316c10.826,0,20.387-4.082,20.387-15.209
				C412.637,462.37,403.07,458.13,391.152,458.13z"/>
			<path d="M284.977,416.724c-5.326,0-8.777,0.475-10.818,0.943v69.167c2.036,0.475,5.329,0.475,8.309,0.475
				c21.643,0.158,35.765-11.76,35.765-37.01C318.384,428.33,305.522,416.724,284.977,416.724z"/>
			<path d="M475.095,131.997c-0.031-2.526-0.828-5.021-2.562-6.992L366.325,3.694c-0.021-0.034-0.053-0.045-0.085-0.076
				c-0.633-0.707-1.36-1.29-2.141-1.804c-0.232-0.15-0.464-0.287-0.707-0.422c-0.686-0.366-1.392-0.67-2.13-0.892
				c-0.2-0.058-0.38-0.14-0.58-0.192C359.87,0.119,359.048,0,358.204,0H97.2c-11.907,0-21.6,9.693-21.6,21.601v507.6
				c0,11.913,9.692,21.601,21.6,21.601h356.4c11.918,0,21.6-9.688,21.6-21.601V133.207
				C475.2,132.796,475.137,132.398,475.095,131.997z M208.446,504.869l-1.571-40.458c-0.47-12.709-0.941-28.076-0.941-43.442h-0.47
				c-3.293,13.483-7.688,28.539-11.765,40.932l-12.865,41.244h-18.663l-11.296-40.928c-3.446-12.393-7.053-27.442-9.563-41.248
				h-0.313c-0.625,14.27-1.097,30.58-1.885,43.759l-1.877,40.151h-22.114l6.745-105.711h31.838l10.352,35.29
				c3.293,12.234,6.589,25.407,8.938,37.8h0.469c2.985-12.234,6.586-26.198,10.038-37.953l11.29-35.137h31.214l5.798,105.711
				h-23.358V504.869z M326.067,492.323c-11.138,9.25-28.075,13.643-48.776,13.643c-12.388,0-21.176-0.791-27.137-1.571V400.57
				c8.788-1.413,20.234-2.193,32.313-2.193c20.07,0,33.086,3.607,43.284,11.296c10.979,8.158,17.877,21.167,17.877,39.835
				C343.628,469.737,336.267,483.701,326.067,492.323z M426.748,496.399c-7.688,6.117-20.545,9.566-41.56,9.566
				c-11.766,0-20.551-0.791-25.877-1.571V400.57c6.28-1.255,18.974-2.193,30.896-2.193c14.587,0,23.525,1.413,31.214,5.964
				c7.372,3.919,12.709,11.133,12.709,20.704c0,9.407-5.495,18.193-17.413,22.586v0.316c12.076,3.291,21.021,12.388,21.021,26.029
				C437.728,483.543,433.34,491.073,426.748,496.399z M97.2,366.758V21.605h250.204v110.516c0,5.962,4.83,10.8,10.8,10.8h95.396
				l0.011,223.837H97.2z"/>
		</g>
		<g>
			<path d="M421.021,189.862c-1.345-1.3-3.302-1.803-5.105-1.294l-21.178,5.925c-0.875,0.248-1.683,0.712-2.32,1.355l-4.704,4.709
				c-0.521,0.511-0.812,1.203-0.833,1.927l-0.285,8.087h-7.198c-0.796,0-1.523,0.319-2.035,0.839
				c-0.496,0.501-0.807,1.181-0.839,1.933l-0.253,7.549h-6.386c-0.797,0-1.519,0.324-2.03,0.844
				c-0.507,0.501-0.817,1.176-0.844,1.933l-0.227,6.7h-6.534c-1.561,0.061-2.226-0.14-3.017,0.653l-0.195,0.19
				c-0.411,0.529-0.701,1.582-0.68,2.89l-0.232,6.937h-7.72c-0.765,0-1.493,0.303-2.025,0.844l-11.854,11.841
				c-14.502-5.869-31.356-2.51-42.51,8.651c-15.312,15.309-15.312,40.226,0,55.54c15.314,15.313,40.231,15.313,55.546,0
				c10.404-10.41,14.08-25.829,9.629-39.768l58.303-58.313c0.676-0.675,1.16-1.529,1.393-2.457l5.579-22.436
				C422.92,193.113,422.36,191.17,421.021,189.862z M322.909,313.011c-4.192,4.197-13.695,1.793-20.735-5.253
				c-7.04-7.056-9.455-16.548-5.258-20.745c4.192-4.192,13.689-1.782,20.735,5.263C324.702,299.32,327.102,308.812,322.909,313.011z
				 M351.527,263.822l55.878-55.885l1.914,1.906l-55.894,55.885L351.527,263.822z M356.98,269.286l-0.886-0.892l55.883-55.883
				l0.891,0.892L356.98,269.286z"/>
			<path d="M273.666,287.598H156.45V178.061h218.523v24.877c1.698-1.706,3.718-3.069,5.933-4.018c0.96-2.587,2.489-4.963,4.52-6.951
				l4.313-4.324v-52.666H141.674v167.39h132.521C273.381,297.485,273.175,292.523,273.666,287.598z"/>
			<rect x="202.115" y="200.631" width="127.18" height="16.411"/>
			<path d="M202.115,258.892h83.125c1.351-1.711,2.779-3.385,4.361-4.967c4.867-4.865,10.679-8.711,16.976-11.443H202.115V258.892z"
				/>
		</g>
	</g>
</g>
<g>
</g>
<g>
</g>
<g>
</g>
<g>
</g>
<g>
</g>
<g>
</g>
<g>
</g>
<g>
</g>
<g>
</g>
<g>
</g>
<g>
</g>
<g>
</g>
<g>
</g>
<g>
</g>
<g>
</g>
</svg>
