<?xml version="1.0" encoding="iso-8859-1"?>
<!-- Generator: Adobe Illustrator 16.0.0, SVG Export Plug-In . SVG Version: 6.00 Build 0)  -->
<!DOCTYPE svg PUBLIC "-//W3C//DTD SVG 1.1//EN" "http://www.w3.org/Graphics/SVG/1.1/DTD/svg11.dtd">
<svg version="1.1" id="Capa_1" xmlns="http://www.w3.org/2000/svg" xmlns:xlink="http://www.w3.org/1999/xlink" x="0px" y="0px"
	 width="550.801px" height="550.801px" viewBox="0 0 550.801 550.801" style="enable-background:new 0 0 550.801 550.801;"
	 xml:space="preserve">
<g>
	<g>
		<g>
			<path d="M292.328,414.303c-5.844,0-9.619,0.517-11.855,1.028v75.784c2.236,0.518,5.844,0.518,9.118,0.518
				c23.715,0.174,39.182-12.894,39.182-40.559C328.926,427.017,314.846,414.303,292.328,414.303z"/>
			<path d="M475.095,131.992c-0.032-2.526-0.833-5.021-2.568-6.993L366.324,3.694c-0.021-0.031-0.053-0.042-0.084-0.076
				c-0.633-0.707-1.36-1.29-2.141-1.804c-0.232-0.15-0.465-0.285-0.707-0.422c-0.686-0.366-1.393-0.667-2.131-0.889
				c-0.2-0.061-0.379-0.143-0.58-0.195C359.87,0.119,359.047,0,358.203,0H97.2C85.292,0,75.6,9.693,75.6,21.601v507.6
				c0,11.913,9.692,21.601,21.6,21.601H453.6c11.918,0,21.601-9.688,21.601-21.601V133.202
				C475.2,132.796,475.137,132.398,475.095,131.992z M208.451,510.881l-1.717-44.34c-0.52-13.922-1.033-30.76-1.033-47.603h-0.517
				c-3.607,14.771-8.419,31.276-12.88,44.86L178.2,508.987H157.75l-12.372-44.855c-3.783-13.579-7.73-30.069-10.48-45.193h-0.346
				c-0.686,15.636-1.205,33.507-2.057,47.945l-2.07,43.997h-24.224l7.383-115.831h34.889l11.351,38.659
				c3.607,13.41,7.214,27.844,9.795,41.423h0.506c3.267-13.405,7.225-28.698,11-41.586l12.371-38.496h34.193l6.373,115.831H208.451z
				 M337.353,497.127c-12.192,10.136-30.766,14.956-53.436,14.956c-13.577,0-23.206-0.865-29.734-1.72V396.6
				c9.618-1.55,22.167-2.41,35.408-2.41c21.99,0,36.25,3.955,47.43,12.377c12.028,8.934,19.585,23.198,19.585,43.648
				C356.601,472.385,348.521,487.678,337.353,497.127z M444.604,416.539h-44.508v26.456h41.586v21.311h-41.586v46.575h-26.283
				V395.05h70.791V416.539z M97.2,366.752V21.601h250.203v110.515c0,5.964,4.831,10.8,10.8,10.8H453.6l0.011,223.836H97.2z"/>
		</g>
		<g>
			<path d="M260.993,75.481c-68.818,0-124.622,55.788-124.622,124.596c0,68.826,55.804,124.635,124.622,124.635
				c68.839,0,124.622-55.809,124.622-124.635C385.615,131.274,329.832,75.481,260.993,75.481z M298.519,90.698l-27.076,55.255
				c-5.255-2.038-10.455-0.952-10.455-0.952l-15.66-58.018C245.333,86.983,266.095,77.657,298.519,90.698z M260.982,249.125
				c-27.076,0-49.032-21.946-49.032-49.043c0-27.082,21.956-49.017,49.032-49.017c27.095,0,49.032,21.94,49.032,49.017
				C310.015,227.175,288.077,249.125,260.982,249.125z"/>
			<path d="M260.993,156.703c-23.923,0-43.369,19.467-43.369,43.396c0,23.915,19.451,43.376,43.369,43.376
				c23.92,0,43.379-19.461,43.379-43.376C304.372,176.175,284.913,156.703,260.993,156.703z M260.993,238.471
				c-21.157,0-38.367-17.215-38.367-38.367c0-21.178,17.215-38.394,38.367-38.394c21.167,0,38.38,17.216,38.38,38.394
				C299.373,221.261,282.16,238.471,260.993,238.471z"/>
			<path d="M260.993,179.35c-11.433,0-20.735,9.306-20.735,20.733c0,11.43,9.302,20.741,20.735,20.741
				c11.443,0,20.745-9.311,20.745-20.741C281.738,188.649,272.437,179.35,260.993,179.35z M260.993,215.821
				c-8.678,0-15.736-7.056-15.736-15.739c0-8.672,7.059-15.725,15.736-15.725c8.677,0,15.746,7.053,15.746,15.725
				C276.739,208.765,269.67,215.821,260.993,215.821z"/>
		</g>
	</g>
</g>
<g>
</g>
<g>
</g>
<g>
</g>
<g>
</g>
<g>
</g>
<g>
</g>
<g>
</g>
<g>
</g>
<g>
</g>
<g>
</g>
<g>
</g>
<g>
</g>
<g>
</g>
<g>
</g>
<g>
</g>
</svg>
