<?xml version="1.0" encoding="iso-8859-1"?>
<!-- Generator: Adobe Illustrator 16.0.0, SVG Export Plug-In . SVG Version: 6.00 Build 0)  -->
<!DOCTYPE svg PUBLIC "-//W3C//DTD SVG 1.1//EN" "http://www.w3.org/Graphics/SVG/1.1/DTD/svg11.dtd">
<svg version="1.1" id="Capa_1" xmlns="http://www.w3.org/2000/svg" xmlns:xlink="http://www.w3.org/1999/xlink" x="0px" y="0px"
	 width="548.291px" height="548.291px" viewBox="0 0 548.291 548.291" style="enable-background:new 0 0 548.291 548.291;"
	 xml:space="preserve">
<g>
	<g>
		<path d="M358.613,416.375c-5.778,0-9.518,0.514-11.728,1.018v74.955c2.21,0.51,5.78,0.51,9.009,0.51
			c23.46,0.168,38.751-12.746,38.751-40.115C394.819,428.952,380.875,416.375,358.613,416.375z"/>
		<path d="M472.929,131.39c-0.031-2.514-0.829-4.997-2.556-6.96L364.656,3.677c-0.021-0.034-0.053-0.044-0.084-0.075
			c-0.63-0.704-1.354-1.284-2.132-1.796c-0.23-0.149-0.462-0.283-0.703-0.419c-0.683-0.365-1.387-0.667-2.121-0.888
			c-0.2-0.058-0.377-0.139-0.577-0.191C358.231,0.113,357.411,0,356.572,0H96.757C84.904,0,75.255,9.649,75.255,21.502V526.79
			c0,11.858,9.649,21.501,21.502,21.501h354.775c11.863,0,21.503-9.643,21.503-21.501V132.595
			C473.036,132.191,472.971,131.795,472.929,131.39z M227.238,511.902l-1.697-43.854c-0.513-13.774-1.016-30.431-1.016-47.088
			h-0.512c-3.57,14.621-8.331,30.93-12.751,44.358l-13.938,44.709h-20.228l-12.239-44.368c-3.74-13.422-7.649-29.748-10.368-44.699
			h-0.341c-0.677,15.465-1.186,33.145-2.037,47.418l-2.042,43.523h-23.963l7.309-114.568h34.505l11.22,38.248
			c3.569,13.254,7.136,27.537,9.69,40.961h0.511c3.232-13.26,7.137-28.384,10.88-41.13l12.234-38.079h33.828l6.289,114.568H227.238z
			 M298.45,511.902h-26.009V397.333h26.009V511.902z M403.15,498.3c-12.068,10.031-30.426,14.794-52.862,14.794
			c-13.427,0-22.944-0.856-29.413-1.701V398.861c9.522-1.527,21.933-2.378,35.024-2.378c21.754,0,35.863,3.91,46.919,12.241
			c11.896,8.835,19.37,22.946,19.37,43.166C422.183,473.824,414.2,488.951,403.15,498.3z M96.757,365.081V21.502H345.82v110.011
			c0,5.935,4.81,10.751,10.752,10.751h94.961l0.011,222.816H96.757z"/>
	</g>
	<g>
		<path d="M223.95,226.003h0.042l0.344-124.461c0,0,27.092-1.447,53.629,40.137c0,0,0.064-21.462-20.34-37.182
			c-39.798-27.822-39.696-34.365-39.696-34.365c-7.585,0.893-8.36,6.641-8.36,6.641v131.073c-5.698-1.979-12.501-2.328-19.48-0.614
			c-15.448,3.855-25.543,16.611-22.591,28.476c1.729,10.942,17.893,18.302,33.347,14.417
			C214.425,246.751,223.89,236.501,223.95,226.003z"/>
		<path d="M241.845,167.771v121.712c-5.301-1.857-11.622-2.179-18.079-0.571c-14.362,3.591-23.759,15.423-21.005,26.437
			c1.606,10.188,16.629,17.018,30.96,13.416c12.622-3.127,21.405-12.682,21.47-22.425h0.021l0.339-102.818l74.163-13.561v82.657
			c-5.386-1.903-11.842-2.236-18.394-0.617c-14.51,3.636-23.999,15.566-21.218,26.722c2.782,11.118,16.776,17.187,31.286,13.596
			c13.218-3.338,21.681-12.414,21.681-23.759V151.351L241.845,167.771z"/>
	</g>
</g>
<g>
</g>
<g>
</g>
<g>
</g>
<g>
</g>
<g>
</g>
<g>
</g>
<g>
</g>
<g>
</g>
<g>
</g>
<g>
</g>
<g>
</g>
<g>
</g>
<g>
</g>
<g>
</g>
<g>
</g>
</svg>
