<?xml version="1.0" encoding="iso-8859-1"?>
<!-- Generator: Adobe Illustrator 16.0.0, SVG Export Plug-In . SVG Version: 6.00 Build 0)  -->
<!DOCTYPE svg PUBLIC "-//W3C//DTD SVG 1.1//EN" "http://www.w3.org/Graphics/SVG/1.1/DTD/svg11.dtd">
<svg version="1.1" id="Capa_1" xmlns="http://www.w3.org/2000/svg" xmlns:xlink="http://www.w3.org/1999/xlink" x="0px" y="0px"
	 width="548.291px" height="548.291px" viewBox="0 0 548.291 548.291" style="enable-background:new 0 0 548.291 548.291;"
	 xml:space="preserve">
<g>
	<g>
		<path d="M472.929,131.396c-0.031-2.514-0.829-4.997-2.556-6.96L364.656,3.677c-0.021-0.031-0.053-0.042-0.084-0.075
			c-0.63-0.704-1.354-1.284-2.132-1.796c-0.23-0.149-0.462-0.283-0.703-0.419c-0.683-0.365-1.387-0.665-2.121-0.885
			c-0.2-0.06-0.377-0.142-0.577-0.194C358.231,0.118,357.411,0,356.572,0H96.757C84.904,0,75.255,9.649,75.255,21.502V526.79
			c0,11.858,9.649,21.501,21.502,21.501h354.775c11.863,0,21.503-9.643,21.503-21.501V132.595
			C473.036,132.194,472.971,131.795,472.929,131.396z M210.585,508.51l-1.827-46.971c-0.549-14.75-1.092-32.594-1.092-50.447h-0.549
			c-3.822,15.665-8.922,33.145-13.656,47.528l-14.93,47.885h-21.667l-13.104-47.518c-4.011-14.388-8.197-31.869-11.105-47.896
			h-0.368c-0.724,16.578-1.278,35.508-2.181,50.804l-2.183,46.614H102.24l7.832-122.72h36.966l12.008,40.967
			c3.833,14.205,7.657,29.495,10.386,43.885h0.548c3.468-14.21,7.644-30.415,11.654-44.064l13.11-40.787h36.232l6.74,122.72H210.585
			z M286.901,508.51h-27.866v-122.72h27.866V508.51z M416.55,508.51l-1.815-46.971c-0.551-14.75-1.092-32.594-1.092-50.447h-0.547
			c-3.831,15.665-8.923,33.145-13.658,47.528l-14.924,47.885h-21.676l-13.112-47.518c-4.01-14.388-8.184-31.869-11.103-47.896
			h-0.368c-0.725,16.578-1.265,35.508-2.179,50.804l-2.184,46.614h-25.669l7.822-122.72h36.965l12.021,40.967
			c3.822,14.205,7.645,29.495,10.385,43.885h0.545c3.459-14.21,7.644-30.415,11.653-44.064l13.108-40.787h36.242l6.729,122.72
			H416.55z M96.757,365.081V21.502H345.82v110.011c0,5.935,4.81,10.751,10.752,10.751h94.961l0.011,222.816H96.757z"/>
		<g>
			<path d="M350.492,156.144c-0.01-1.095-0.355-2.187-1.111-3.042l-46.248-52.815c0-0.01-0.021-0.016-0.031-0.031
				c-0.278-0.305-0.589-0.559-0.94-0.785c-0.099-0.068-0.199-0.123-0.309-0.181c-0.294-0.163-0.605-0.297-0.925-0.394
				c-0.094-0.027-0.163-0.058-0.252-0.082c-0.351-0.084-0.714-0.134-1.081-0.134H185.979c-5.189,0-9.407,4.22-9.407,9.401v220.993
				c0,5.176,4.218,9.396,9.407,9.396h155.149c5.196,0,9.406-4.221,9.406-9.396V156.671
				C350.534,156.493,350.513,156.323,350.492,156.144z M185.979,328.288V108.083h108.923V156.2c0,2.59,2.104,4.698,4.703,4.698
				h41.527l0.011,167.39H185.979z"/>
			<path d="M327.605,185.493c-0.01-0.112-0.041-0.212-0.074-0.328c-0.037-0.123-0.068-0.257-0.115-0.38
				c-0.041-0.113-0.083-0.226-0.147-0.333c-0.031-0.087-0.062-0.16-0.104-0.247c-0.021-0.031-0.041-0.055-0.062-0.081
				c-0.079-0.135-0.168-0.253-0.268-0.365c-0.043-0.071-0.085-0.124-0.132-0.179c-0.662-0.756-1.595-1.236-2.636-1.236H203.034
				c-1.036,0-1.974,0.485-2.635,1.236c-0.053,0.056-0.084,0.113-0.135,0.179c-0.096,0.112-0.186,0.23-0.262,0.365
				c-0.021,0.026-0.042,0.049-0.065,0.081c-0.043,0.087-0.063,0.16-0.108,0.247c-0.053,0.107-0.108,0.215-0.144,0.333
				c-0.053,0.124-0.087,0.257-0.113,0.38c-0.031,0.116-0.053,0.215-0.076,0.328c-0.021,0.147-0.042,0.297-0.042,0.441
				c-0.01,0.086-0.021,0.158-0.021,0.231v79.841c0,2.107,1.617,3.816,3.601,3.816h121.032c1.995,0,3.612-1.709,3.612-3.816v-79.841
				c0-0.073-0.021-0.145-0.021-0.231C327.636,185.79,327.636,185.646,327.605,185.493z M311.006,189.995l-47.458,30.048
				l-47.442-30.048H311.006z M320.456,262.18H206.645v-69.271l55.056,34.859c0.56,0.359,1.2,0.554,1.848,0.554
				c0.651,0,1.292-0.189,1.85-0.554l55.057-34.859V262.18z"/>
		</g>
	</g>
</g>
<g>
</g>
<g>
</g>
<g>
</g>
<g>
</g>
<g>
</g>
<g>
</g>
<g>
</g>
<g>
</g>
<g>
</g>
<g>
</g>
<g>
</g>
<g>
</g>
<g>
</g>
<g>
</g>
<g>
</g>
</svg>
