<?xml version="1.0" encoding="iso-8859-1"?>
<!-- Generator: Adobe Illustrator 16.0.0, SVG Export Plug-In . SVG Version: 6.00 Build 0)  -->
<!DOCTYPE svg PUBLIC "-//W3C//DTD SVG 1.1//EN" "http://www.w3.org/Graphics/SVG/1.1/DTD/svg11.dtd">
<svg version="1.1" id="Capa_1" xmlns="http://www.w3.org/2000/svg" xmlns:xlink="http://www.w3.org/1999/xlink" x="0px" y="0px"
	 width="550.801px" height="550.801px" viewBox="0 0 550.801 550.801" style="enable-background:new 0 0 550.801 550.801;"
	 xml:space="preserve">
<g>
	<g>
		<path d="M294.796,411.55c-16.664,0-26.378,15.862-26.378,37.052c0,21.362,10.03,36.407,26.536,36.407
			c16.675,0,26.22-15.857,26.22-37.051C321.174,428.383,311.787,411.55,294.796,411.55z"/>
		<path d="M475.095,131.986c-0.032-2.525-0.844-5.015-2.579-6.992L366.324,3.684c-0.031-0.029-0.062-0.045-0.084-0.071
			c-0.633-0.712-1.371-1.289-2.151-1.803c-0.232-0.15-0.464-0.29-0.707-0.422c-0.675-0.372-1.382-0.669-2.13-0.891
			c-0.201-0.058-0.38-0.145-0.58-0.188C359.87,0.114,359.037,0,358.193,0H97.2C85.292,0,75.6,9.688,75.6,21.601v507.6
			c0,11.907,9.692,21.601,21.6,21.601H453.6c11.908,0,21.601-9.693,21.601-21.601V133.197
			C475.2,132.791,475.137,132.393,475.095,131.986z M204.325,502.812l-1.625-41.75c-0.487-13.104-0.973-28.967-0.973-44.824h-0.485
			c-3.396,13.916-7.934,29.463-12.129,42.245l-13.268,42.557h-19.256l-11.654-42.245c-3.562-12.783-7.288-28.313-9.869-42.557h-0.33
			c-0.644,14.729-1.128,31.562-1.94,45.146l-1.938,41.429h-22.815l6.961-109.061h32.843l10.687,36.402
			c3.396,12.625,6.795,26.22,9.218,39.003h0.485c3.08-12.625,6.805-27.026,10.36-39.161l11.651-36.244h32.2l5.991,109.061H204.325z
			 M293.667,504.595c-32.365,0-51.3-24.438-51.3-55.498c0-32.695,20.872-57.127,53.072-57.127c33.496,0,51.785,25.086,51.785,55.176
			C347.225,482.91,325.54,504.595,293.667,504.595z M416.823,502.812H388.02l-34.958-109.061h27.026l13.263,46.116
			c3.724,12.941,7.119,25.407,9.72,39.003h0.484c2.753-13.11,6.149-26.062,9.872-38.522l13.911-46.597h26.215L416.823,502.812z
			 M97.2,366.747V21.601h250.192v110.51c0,5.962,4.842,10.8,10.801,10.8H453.6v223.837H97.2z"/>
		<path d="M275.4,109.514c-57.365,0-103.874,46.504-103.874,103.868c0,57.365,46.509,103.874,103.874,103.874
			c57.364,0,103.876-46.504,103.876-103.874C379.276,156.013,332.765,109.514,275.4,109.514z M211.425,236.591
			c-14.357-0.929-25.254-13.334-24.327-27.681c0.929-14.37,13.324-25.263,27.696-24.332c14.349,0.923,25.252,13.332,24.3,27.702
			C238.188,226.626,225.79,237.519,211.425,236.591z M268.109,301.319c-14.352-0.918-25.249-13.315-24.326-27.686
			c0.934-14.347,13.339-25.244,27.69-24.306c14.336,0.929,25.273,13.318,24.324,27.686
			C294.869,291.363,282.487,302.253,268.109,301.319z M260.864,214.094c0-7.781,6.307-14.119,14.104-14.119
			c7.783,0,14.122,6.338,14.122,14.119c0,7.776-6.339,14.109-14.122,14.109C267.171,228.203,260.864,221.87,260.864,214.094z
			 M275.516,177.449c-14.356-0.923-25.251-13.321-24.355-27.691c0.944-14.356,13.332-25.249,27.709-24.305
			c14.359,0.917,25.249,13.305,24.321,27.669C302.263,167.487,289.859,178.369,275.516,177.449z M330.908,244.298
			c-14.354-0.931-25.249-13.318-24.342-27.681c0.949-14.37,13.32-25.252,27.706-24.313c14.354,0.91,25.249,13.302,24.326,27.68
			C357.655,234.339,345.263,245.231,330.908,244.298z"/>
	</g>
</g>
<g>
</g>
<g>
</g>
<g>
</g>
<g>
</g>
<g>
</g>
<g>
</g>
<g>
</g>
<g>
</g>
<g>
</g>
<g>
</g>
<g>
</g>
<g>
</g>
<g>
</g>
<g>
</g>
<g>
</g>
</svg>
