<?xml version="1.0" encoding="iso-8859-1"?>
<!-- Generator: Adobe Illustrator 16.0.0, SVG Export Plug-In . SVG Version: 6.00 Build 0)  -->
<!DOCTYPE svg PUBLIC "-//W3C//DTD SVG 1.1//EN" "http://www.w3.org/Graphics/SVG/1.1/DTD/svg11.dtd">
<svg version="1.1" id="Capa_1" xmlns="http://www.w3.org/2000/svg" xmlns:xlink="http://www.w3.org/1999/xlink" x="0px" y="0px"
	 width="550.801px" height="550.801px" viewBox="0 0 550.801 550.801" style="enable-background:new 0 0 550.801 550.801;"
	 xml:space="preserve">
<g>
	<g>
		<path d="M301.271,414.224c-5.484,0-9.207,0.532-11.148,1.05v35.236c2.3,0.527,5.137,0.718,9.028,0.718
			c14.344,0,23.203-7.267,23.203-19.485C322.354,420.773,314.74,414.224,301.271,414.224z"/>
		<path d="M475.084,131.992c-0.021-2.521-0.828-5.021-2.562-6.993L366.324,3.689c-0.031-0.035-0.062-0.045-0.084-0.077
			c-0.633-0.706-1.371-1.284-2.151-1.803c-0.232-0.145-0.464-0.285-0.707-0.422c-0.675-0.367-1.392-0.665-2.13-0.886
			c-0.201-0.063-0.38-0.145-0.58-0.197C359.87,0.114,359.037,0,358.193,0H97.2C85.282,0,75.6,9.693,75.6,21.601v507.6
			c0,11.907,9.682,21.601,21.6,21.601H453.6c11.908,0,21.601-9.693,21.601-21.601V133.202
			C475.2,132.791,475.137,132.393,475.084,131.992z M216.264,514.087l-1.77-45.679c-0.54-14.344-1.065-31.704-1.065-49.054h-0.53
			c-3.721,15.229-8.678,32.231-13.289,46.228l-14.516,46.564h-21.07l-12.749-46.228c-3.895-13.985-7.976-30.976-10.8-46.564h-0.356
			c-0.709,16.116-1.237,34.53-2.123,49.401l-2.133,45.331H110.9l7.612-119.338h35.943l11.687,39.835
			c3.72,13.816,7.436,28.688,10.093,42.668h0.538c3.364-13.822,7.436-29.563,11.33-42.847l12.749-39.667h35.237l6.55,119.343
			h-26.375V514.087z M338.111,459.369c-9.207,8.686-22.844,12.583-38.78,12.583c-3.544,0-6.729-0.18-9.208-0.533v42.662h-26.749
			V396.342c8.332-1.43,20.021-2.489,36.484-2.489c16.643,0,28.508,3.195,36.481,9.571c7.615,6.006,12.751,15.926,12.751,27.622
			C349.091,442.727,345.188,452.651,338.111,459.369z M395.497,516.038c-14.882,0-27.453-3.897-34.183-8.143l5.495-20.187
			c4.778,2.479,15.757,7.077,26.736,7.077c13.985,0,21.073-6.729,21.073-15.398c0-11.333-11.338-16.475-23.203-16.475h-10.979
			v-19.301h10.452c9.027-0.169,20.545-3.533,20.545-13.278c0-6.908-5.674-12.039-16.996-12.039c-9.382,0-19.296,4.071-24.089,6.908
			l-5.49-19.491c6.908-4.413,20.714-8.664,35.602-8.664c24.605,0,38.242,12.931,38.242,28.688c0,12.214-6.908,21.779-21.072,26.736
			v0.358c13.821,2.479,24.975,12.92,24.975,27.971C442.6,501.167,424.712,516.038,395.497,516.038z M97.2,366.752V21.601h250.192
			v110.521c0,5.962,4.842,10.8,10.801,10.8H453.6v223.837H97.2V366.752z"/>
		<path d="M352.002,234.668c-28.956-17.729-28.856-21.919-28.856-21.919c-5.526,0.567-6.096,4.251-6.096,4.251v83.565
			c-4.155-1.276-9.092-1.509-14.175-0.391c-11.243,2.437-18.595,10.579-16.443,18.141c1.256,6.993,13.036,11.696,24.269,9.197
			c9.872-2.151,16.749-8.69,16.802-15.383h0.021l0.253-77.478c0,0,19.723-2.808,39.023,23.712
			C366.799,258.362,366.852,244.675,352.002,234.668z"/>
		<path d="M243.411,219.381c0,9.795,7.977,17.771,17.771,17.771c9.796,0,17.761-7.977,17.761-17.771
			c0-9.796-7.965-17.761-17.761-17.761C251.388,201.62,243.411,209.585,243.411,219.381z"/>
		<path d="M227.188,219.381c0,18.744,15.251,33.992,33.995,33.992c18.731,0,33.982-15.248,33.982-33.992
			c0-18.742-15.251-33.993-33.982-33.993C242.438,185.394,227.188,200.644,227.188,219.381z M286.78,219.381
			c0,14.111-11.478,25.597-25.598,25.597c-14.111,0-25.607-11.485-25.607-25.597c0-14.109,11.496-25.598,25.607-25.598
			C275.303,193.783,286.78,205.271,286.78,219.381z"/>
		<path d="M301.651,293.43c2.731-0.596,5.273-0.928,8.279-0.886l0.011-10.056c-13.511,10.462-30.396,16.759-48.759,16.759
			c-44.043,0-79.861-35.828-79.861-79.861c0-44.03,35.817-79.861,79.861-79.861c43.886,0,79.587,35.598,79.829,79.428
			c2.215,1.562,4.947,3.386,8.153,5.445c0.095-1.669,0.253-3.322,0.253-5.013c0-48.652-39.582-88.246-88.235-88.246
			c-48.676,0-88.259,39.593-88.259,88.246c0,48.653,39.583,88.246,88.259,88.246c7.51,0,14.755-1.044,21.716-2.812
			C286.949,299.273,293.636,295.165,301.651,293.43z"/>
		<path d="M335.591,248.147l-0.068,18.581c3.797-5.962,6.908-12.382,9.207-19.198c-2.811-1.727-5.379-2.866-7.599-3.586
			C336.667,245.371,336.118,246.752,335.591,248.147z"/>
	</g>
</g>
<g>
</g>
<g>
</g>
<g>
</g>
<g>
</g>
<g>
</g>
<g>
</g>
<g>
</g>
<g>
</g>
<g>
</g>
<g>
</g>
<g>
</g>
<g>
</g>
<g>
</g>
<g>
</g>
<g>
</g>
</svg>
