<?xml version="1.0" encoding="iso-8859-1"?>
<!-- Generator: Adobe Illustrator 16.0.0, SVG Export Plug-In . SVG Version: 6.00 Build 0)  -->
<!DOCTYPE svg PUBLIC "-//W3C//DTD SVG 1.1//EN" "http://www.w3.org/Graphics/SVG/1.1/DTD/svg11.dtd">
<svg version="1.1" id="Capa_1" xmlns="http://www.w3.org/2000/svg" xmlns:xlink="http://www.w3.org/1999/xlink" x="0px" y="0px"
	 width="550.801px" height="550.801px" viewBox="0 0 550.801 550.801" style="enable-background:new 0 0 550.801 550.801;"
	 xml:space="preserve">
<g>
	<g>
		<path d="M402.058,439.257l-15.915,25.977v0.358h26.693v-26.335c0-7.13,0.369-14.444,0.918-22.128h-0.728
			C409.188,424.812,406.076,431.758,402.058,439.257z"/>
		<path d="M475.095,131.992c-0.032-2.526-0.844-5.021-2.568-6.993L366.324,3.694c-0.021-0.034-0.053-0.045-0.084-0.076
			c-0.633-0.707-1.36-1.29-2.141-1.804c-0.232-0.15-0.465-0.285-0.707-0.422c-0.686-0.366-1.393-0.67-2.131-0.892
			c-0.2-0.058-0.379-0.14-0.59-0.192C359.87,0.114,359.037,0,358.203,0H97.2C85.292,0,75.6,9.693,75.6,21.601v507.6
			c0,11.913,9.692,21.601,21.6,21.601H453.6c11.908,0,21.601-9.688,21.601-21.601V133.202
			C475.2,132.796,475.137,132.398,475.095,131.992z M213.11,514.783l-1.825-47.188c-0.562-14.797-1.097-32.731-1.097-50.651h-0.551
			c-3.839,15.731-8.962,33.292-13.722,47.741l-14.995,48.094h-21.755L146,465.044c-4.029-14.449-8.224-32.01-11.156-48.1h-0.369
			c-0.728,16.638-1.274,35.665-2.191,51.021l-2.183,46.818h-25.795l7.868-123.251h37.125l12.063,41.144
			c3.839,14.27,7.681,29.626,10.434,44.075h0.551c3.462-14.271,7.678-30.544,11.696-44.255l13.17-40.964h36.384l6.773,123.251
			H213.11z M338.945,458.272c-9.503,8.965-23.583,12.983-40.047,12.983c-3.66,0-6.95-0.18-9.503-0.543v44.064h-27.619v-121.61
			c8.596-1.461,20.658-2.568,37.676-2.568c17.196,0,29.431,3.296,37.679,9.883c7.857,6.206,13.162,16.453,13.162,28.523
			C350.283,441.092,346.254,451.327,338.945,458.272z M453.441,486.443h-14.27v28.34h-26.336v-28.34h-52.66v-18.109l44.982-72.414
			h34.014v69.667h14.27V486.443z M97.2,366.752V21.601h250.203v110.515c0,5.961,4.831,10.8,10.8,10.8H453.6l0.011,223.836H97.2z"/>
		<path d="M300.902,411.645c-5.664,0-9.503,0.549-11.507,1.087v36.397c2.362,0.548,5.295,0.738,9.323,0.738
			c14.809,0,23.958-7.505,23.958-20.129C322.671,418.416,314.803,411.645,300.902,411.645z"/>
		<path d="M188.821,276.281h151.907V164.953H188.821V276.281z M243.443,187.418c0-0.588,0.345-1.149,0.875-1.402
			c0.551-0.271,1.192-0.2,1.669,0.171l51.993,33.188c0.369,0.314,0.58,0.763,0.58,1.231c0,0.475-0.211,0.929-0.58,1.237
			l-51.993,33.205c-0.287,0.221-0.622,0.34-0.973,0.34l-0.696-0.161c-0.53-0.25-0.875-0.81-0.875-1.4V187.418z"/>
		<path d="M188.821,278.016v-1.734h-5.508v27.189h163.5v-27.189h-6.085v1.734H188.821z M343.343,279.756v20.24H186.796v-20.24
			H343.343z"/>
		<path d="M183.312,164.953h5.508v-1.737h151.907v1.737h6.085v-27.187h-163.5V164.953z M186.796,141.244h156.547v20.231H186.796
			V141.244z"/>
		<rect x="192.884" y="146.054" width="23.267" height="9.855"/>
		<rect x="222.684" y="146.054" width="23.269" height="9.855"/>
		<rect x="252.26" y="146.054" width="23.266" height="9.855"/>
		<rect x="282.055" y="146.054" width="23.267" height="9.855"/>
		<rect x="312.82" y="146.433" width="23.267" height="9.859"/>
		<rect x="193.163" y="284.623" width="23.28" height="9.861"/>
		<rect x="222.972" y="284.623" width="23.269" height="9.861"/>
		<rect x="252.548" y="284.623" width="23.269" height="9.861"/>
		<rect x="282.351" y="284.623" width="23.267" height="9.861"/>
		<rect x="313.105" y="285.009" width="23.266" height="9.861"/>
	</g>
</g>
<g>
</g>
<g>
</g>
<g>
</g>
<g>
</g>
<g>
</g>
<g>
</g>
<g>
</g>
<g>
</g>
<g>
</g>
<g>
</g>
<g>
</g>
<g>
</g>
<g>
</g>
<g>
</g>
<g>
</g>
</svg>
