<?xml version="1.0" encoding="iso-8859-1"?>
<!-- Generator: Adobe Illustrator 16.0.0, SVG Export Plug-In . SVG Version: 6.00 Build 0)  -->
<!DOCTYPE svg PUBLIC "-//W3C//DTD SVG 1.1//EN" "http://www.w3.org/Graphics/SVG/1.1/DTD/svg11.dtd">
<svg version="1.1" id="Capa_1" xmlns="http://www.w3.org/2000/svg" xmlns:xlink="http://www.w3.org/1999/xlink" x="0px" y="0px"
	 width="548.291px" height="548.291px" viewBox="0 0 548.291 548.291" style="enable-background:new 0 0 548.291 548.291;"
	 xml:space="preserve">
<g>
	<g>
		<path d="M299.31,415.281c-5.265,0-8.84,0.515-10.708,1.019v33.827c2.205,0.515,4.935,0.684,8.672,0.684
			c13.764,0,22.268-6.973,22.268-18.704C319.532,421.571,312.224,415.281,299.31,415.281z"/>
		<path d="M394.315,415.964h-0.343c-1.695,6.804-3.401,15.47-5.264,22.1l-6.81,24.3h25.328l-7.128-24.3
			C398.052,431.26,396.016,422.768,394.315,415.964z"/>
		<path d="M472.929,131.396c-0.031-2.517-0.829-5-2.556-6.96L364.656,3.675c-0.021-0.031-0.053-0.042-0.084-0.073
			c-0.63-0.704-1.354-1.287-2.132-1.796c-0.23-0.152-0.462-0.286-0.703-0.419c-0.683-0.365-1.387-0.667-2.121-0.888
			c-0.2-0.058-0.377-0.139-0.577-0.194C358.231,0.118,357.411,0,356.572,0H96.757C84.904,0,75.255,9.649,75.255,21.502V526.79
			c0,11.858,9.649,21.501,21.502,21.501h354.775c11.863,0,21.503-9.643,21.503-21.501V132.595
			C473.036,132.191,472.971,131.792,472.929,131.396z M217.735,511.152l-1.698-43.854c-0.509-13.769-1.021-30.42-1.021-47.087
			h-0.512c-3.567,14.62-8.331,30.935-12.748,44.368l-13.935,44.698h-20.234l-12.239-44.368
			c-3.735-13.416-7.643-29.737-10.362-44.698h-0.344c-0.678,15.47-1.189,33.149-2.04,47.428l-2.036,43.514h-23.969l7.305-114.568
			h34.512l11.213,38.247c3.569,13.26,7.136,27.538,9.69,40.967h0.517c3.231-13.261,7.139-28.39,10.874-41.136l12.234-38.078h33.827
			l6.289,114.568H217.735z M297.442,470.694c-3.401,0-6.463-0.168-8.84-0.504v40.962h-25.67V398.116
			c7.987-1.36,19.201-2.373,35.014-2.373c15.979,0,27.369,3.056,35.024,9.177c7.306,5.773,12.229,15.296,12.229,26.52
			c0,11.219-3.737,20.734-10.533,27.192C325.821,466.958,312.738,470.694,297.442,470.694z M419.817,511.152l-8.84-29.413h-32.81
			l-8.162,29.413h-26.857l35.02-114.568h33.989l35.528,114.568H419.817z M96.757,365.081V21.502H345.82v110.011
			c0,5.935,4.81,10.751,10.752,10.751h94.961l0.011,222.816H96.757z"/>
	</g>
	<g>
		<path d="M265.383,102.228c-62.2,0-112.796,50.599-112.796,112.799c0,62.195,50.596,112.799,112.796,112.799
			c62.201,0,112.795-50.604,112.795-112.799C378.178,152.826,327.584,102.228,265.383,102.228z M265.383,311.701
			c-53.307,0-96.67-43.361-96.67-96.668c0-53.308,43.363-96.674,96.67-96.674c53.308,0,96.668,43.366,96.668,96.674
			C362.051,268.34,318.691,311.701,265.383,311.701z"/>
		<path d="M238.378,248.521c-3.354-1.179-7.354-1.384-11.446-0.365c-9.084,2.272-15.029,9.755-13.292,16.727
			c1.017,6.448,10.525,10.764,19.594,8.488c7.982-1.979,13.546-8.021,13.583-14.192h0.016l0.21-65.058l46.925-8.585v52.297
			c-3.412-1.202-7.497-1.412-11.645-0.386c-9.179,2.3-15.183,9.848-13.419,16.906c1.758,7.037,10.618,10.875,19.797,8.606
			c8.362-2.113,13.718-7.853,13.718-15.034v-86.81l-64.041,10.391V248.521z"/>
	</g>
</g>
<g>
</g>
<g>
</g>
<g>
</g>
<g>
</g>
<g>
</g>
<g>
</g>
<g>
</g>
<g>
</g>
<g>
</g>
<g>
</g>
<g>
</g>
<g>
</g>
<g>
</g>
<g>
</g>
<g>
</g>
</svg>
