<?xml version="1.0" encoding="iso-8859-1"?>
<!-- Generator: Adobe Illustrator 16.0.0, SVG Export Plug-In . SVG Version: 6.00 Build 0)  -->
<!DOCTYPE svg PUBLIC "-//W3C//DTD SVG 1.1//EN" "http://www.w3.org/Graphics/SVG/1.1/DTD/svg11.dtd">
<svg version="1.1" id="Capa_1" xmlns="http://www.w3.org/2000/svg" xmlns:xlink="http://www.w3.org/1999/xlink" x="0px" y="0px"
	 width="550.801px" height="550.801px" viewBox="0 0 550.801 550.801" style="enable-background:new 0 0 550.801 550.801;"
	 xml:space="preserve">
<g>
	<g>
		<path d="M287.782,413.949c-5.295,0-8.881,0.512-10.758,1.028v33.993c2.215,0.506,4.946,0.686,8.712,0.686
			c13.837,0,22.38-7.014,22.38-18.795C308.116,420.272,300.766,413.949,287.782,413.949z"/>
		<path d="M475.084,131.992c-0.021-2.526-0.828-5.021-2.562-6.993L366.324,3.694c-0.031-0.034-0.062-0.045-0.084-0.076
			c-0.633-0.707-1.371-1.29-2.151-1.804c-0.232-0.15-0.464-0.285-0.707-0.422c-0.675-0.366-1.392-0.67-2.13-0.892
			c-0.201-0.058-0.38-0.14-0.58-0.192C359.87,0.114,359.037,0,358.193,0H97.2C85.282,0,75.6,9.693,75.6,21.601v507.6
			c0,11.913,9.682,21.601,21.6,21.601H453.6c11.908,0,21.601-9.688,21.601-21.601V133.202
			C475.2,132.796,475.137,132.398,475.084,131.992z M205.767,510.301l-1.706-44.076c-0.52-13.837-1.021-30.58-1.021-47.323h-0.509
			c-3.597,14.691-8.375,31.092-12.814,44.587L175.7,508.412h-20.326l-12.295-44.581c-3.755-13.5-7.691-29.9-10.423-44.93h-0.346
			c-0.686,15.546-1.194,33.317-2.046,47.661l-2.046,43.738h-24.089l7.348-115.141h34.668l11.274,38.433
			c3.586,13.331,7.172,27.675,9.748,41.17h0.506c3.251-13.326,7.172-28.529,10.937-41.339l12.295-38.264h33.993l6.328,115.141
			H205.767z M323.314,457.514c-8.881,8.363-22.032,12.129-37.41,12.129c-3.417,0-6.486-0.169-8.886-0.518v41.176h-25.795V396.694
			c8.024-1.365,19.301-2.389,35.188-2.389c16.062,0,27.506,3.069,35.194,9.229c7.341,5.801,12.309,15.372,12.309,26.646
			C333.914,441.456,330.148,451.017,323.314,457.514z M446.671,505.006c-8.037,2.731-23.235,6.486-38.443,6.486
			c-21.01,0-36.208-5.289-46.808-15.546c-10.589-9.903-16.4-24.943-16.221-41.851c0.169-38.264,28.013-60.133,65.76-60.133
			c14.86,0,26.314,2.906,31.946,5.638l-5.463,20.841c-6.317-2.732-14.175-4.957-26.821-4.957c-21.694,0-38.095,12.297-38.095,37.235
			c0,23.746,14.871,37.758,36.218,37.758c5.975,0,10.758-0.686,12.814-1.703V464.68h-17.771v-20.323h42.878v60.649H446.671z
			 M97.2,366.752V21.601h250.192v110.515c0,5.961,4.842,10.8,10.801,10.8H453.6v223.836H97.2z"/>
		<path d="M228.495,160.574c-0.928-0.723-2.17-0.857-3.229-0.341c-1.031,0.493-1.706,1.577-1.706,2.716v128.788
			c0,1.14,0.675,2.226,1.706,2.711l1.339,0.311c0.675,0,1.329-0.231,1.89-0.659l100.831-64.383c0.717-0.588,1.149-1.479,1.149-2.392
			c0-0.907-0.433-1.788-1.149-2.389L228.495,160.574z"/>
	</g>
</g>
<g>
</g>
<g>
</g>
<g>
</g>
<g>
</g>
<g>
</g>
<g>
</g>
<g>
</g>
<g>
</g>
<g>
</g>
<g>
</g>
<g>
</g>
<g>
</g>
<g>
</g>
<g>
</g>
<g>
</g>
</svg>
