<?xml version="1.0" encoding="iso-8859-1"?>
<!-- Generator: Adobe Illustrator 16.0.0, SVG Export Plug-In . SVG Version: 6.00 Build 0)  -->
<!DOCTYPE svg PUBLIC "-//W3C//DTD SVG 1.1//EN" "http://www.w3.org/Graphics/SVG/1.1/DTD/svg11.dtd">
<svg version="1.1" id="Capa_1" xmlns="http://www.w3.org/2000/svg" xmlns:xlink="http://www.w3.org/1999/xlink" x="0px" y="0px"
	 width="550.801px" height="550.801px" viewBox="0 0 550.801 550.801" style="enable-background:new 0 0 550.801 550.801;"
	 xml:space="preserve">
<g>
	<path d="M475.095,131.992c-0.032-2.526-0.833-5.021-2.568-6.993L366.324,3.694c-0.021-0.034-0.053-0.045-0.084-0.076
		c-0.633-0.707-1.36-1.29-2.141-1.804c-0.232-0.15-0.465-0.285-0.707-0.422c-0.686-0.366-1.393-0.67-2.131-0.892
		c-0.2-0.058-0.379-0.14-0.58-0.192C359.87,0.114,359.047,0,358.203,0H97.2C85.292,0,75.6,9.693,75.6,21.601v507.6
		c0,11.913,9.692,21.601,21.6,21.601H453.6c11.918,0,21.601-9.688,21.601-21.601V133.202
		C475.2,132.796,475.137,132.398,475.095,131.992z M217.447,508.333l-1.632-42.124c-0.485-13.23-0.976-29.23-0.976-45.23h-0.493
		c-3.428,14.049-7.997,29.716-12.248,42.62l-13.386,42.937h-19.428l-11.757-42.614c-3.591-12.904-7.349-28.577-9.957-42.942h-0.33
		c-0.654,14.861-1.145,31.842-1.962,45.562l-1.959,41.792h-23.026l7.021-110.046h33.144l10.779,36.74
		c3.43,12.73,6.858,26.446,9.31,39.351h0.485c3.106-12.741,6.858-27.274,10.45-39.514l11.757-36.571h32.489l6.043,110.046h-24.327
		V508.333z M287.846,509.963c-12.569,0-24.978-3.265-31.185-6.692l5.06-20.571c6.697,3.428,16.98,6.855,27.596,6.855
		c11.428,0,17.471-4.73,17.471-11.918c0-6.855-5.23-10.773-18.457-15.509c-18.283-6.376-30.206-16.501-30.206-32.501
		c0-18.778,15.678-33.144,41.64-33.144c12.402,0,21.552,2.61,28.081,5.548l-5.554,20.087c-4.403-2.131-12.244-5.227-23.019-5.227
		c-10.778,0-15.999,4.899-15.999,10.616c0,7.019,6.207,10.119,20.402,15.509c19.433,7.188,28.582,17.308,28.582,32.822
		C332.258,494.29,318.052,509.963,287.846,509.963z M441.018,503.271c-7.673,2.61-22.201,6.207-36.734,6.207
		c-20.082,0-34.615-5.067-44.74-14.865c-10.125-9.466-15.673-23.831-15.515-39.999c0.158-36.577,26.773-57.48,62.87-57.48
		c14.196,0,25.139,2.784,30.528,5.389l-5.227,19.924c-6.038-2.616-13.553-4.736-25.634-4.736c-20.735,0-36.413,11.755-36.413,35.586
		c0,22.696,14.206,36.091,34.614,36.091c5.717,0,10.283-0.648,12.245-1.629v-23.029h-16.98v-19.433h40.98v57.976H441.018z
		 M97.2,366.752V21.601h250.203v110.515c0,5.961,4.831,10.8,10.8,10.8H453.6l0.011,223.836H97.2z"/>
	<path d="M390.013,156.703c-0.011-0.287-0.031-0.567-0.079-0.844c-0.031-0.214-0.09-0.414-0.143-0.62
		c-0.068-0.248-0.126-0.501-0.221-0.746c-0.079-0.216-0.18-0.424-0.28-0.63c-0.073-0.158-0.121-0.319-0.211-0.469
		c-0.031-0.061-0.079-0.103-0.11-0.158c-0.158-0.253-0.327-0.48-0.506-0.707c-0.09-0.113-0.164-0.237-0.264-0.34
		c-1.266-1.453-3.059-2.365-5.053-2.365H151.271c-2.004,0-3.792,0.917-5.055,2.365c-0.098,0.103-0.174,0.227-0.261,0.34
		c-0.177,0.227-0.351,0.453-0.506,0.707c-0.031,0.061-0.082,0.103-0.113,0.158c-0.087,0.15-0.135,0.311-0.211,0.469
		c-0.103,0.206-0.2,0.414-0.282,0.63c-0.09,0.245-0.15,0.499-0.213,0.746c-0.061,0.206-0.114,0.406-0.153,0.62
		c-0.042,0.277-0.063,0.562-0.082,0.844c-0.005,0.155-0.037,0.293-0.037,0.443V310.1c0,4.034,3.101,7.319,6.914,7.319h231.875
		c3.813,0,6.908-3.285,6.908-7.319V157.146C390.055,156.99,390.023,156.858,390.013,156.703z M158.171,170.048l105.485,66.801
		c1.067,0.681,2.294,1.036,3.546,1.036c1.248,0,2.474-0.355,3.544-1.036l105.482-66.796V302.77H158.171V170.048z M176.299,164.468
		h181.81l-90.906,57.57L176.299,164.468z"/>
</g>
<g>
</g>
<g>
</g>
<g>
</g>
<g>
</g>
<g>
</g>
<g>
</g>
<g>
</g>
<g>
</g>
<g>
</g>
<g>
</g>
<g>
</g>
<g>
</g>
<g>
</g>
<g>
</g>
<g>
</g>
</svg>
