<?xml version="1.0" encoding="iso-8859-1"?>
<!-- Generator: Adobe Illustrator 16.0.0, SVG Export Plug-In . SVG Version: 6.00 Build 0)  -->
<!DOCTYPE svg PUBLIC "-//W3C//DTD SVG 1.1//EN" "http://www.w3.org/Graphics/SVG/1.1/DTD/svg11.dtd">
<svg version="1.1" id="Capa_1" xmlns="http://www.w3.org/2000/svg" xmlns:xlink="http://www.w3.org/1999/xlink" x="0px" y="0px"
	 width="550.801px" height="550.801px" viewBox="0 0 550.801 550.801" style="enable-background:new 0 0 550.801 550.801;"
	 xml:space="preserve">
<g>
	<g>
		<path d="M475.095,131.992c-0.032-2.526-0.833-5.021-2.568-6.993L366.324,3.694c-0.021-0.031-0.053-0.045-0.084-0.076
			c-0.633-0.707-1.36-1.29-2.141-1.804c-0.232-0.15-0.465-0.285-0.707-0.422c-0.686-0.366-1.393-0.67-2.131-0.892
			c-0.2-0.058-0.379-0.14-0.58-0.192C359.87,0.119,359.047,0,358.203,0H97.2C85.292,0,75.6,9.693,75.6,21.601v507.6
			c0,11.913,9.692,21.601,21.6,21.601H453.6c11.918,0,21.601-9.688,21.601-21.601V133.202
			C475.2,132.796,475.137,132.398,475.095,131.992z M242.093,515.711l-1.83-47.187c-0.551-14.818-1.097-32.743-1.097-50.678h-0.551
			c-3.839,15.73-8.965,33.291-13.722,47.745l-15,48.104h-21.769l-13.165-47.74c-4.029-14.454-8.229-32.015-11.156-48.109h-0.367
			c-0.73,16.648-1.282,35.669-2.199,51.036l-2.191,46.828h-25.792l7.868-123.288h37.13l12.076,41.154
			c3.839,14.275,7.683,29.637,10.425,44.086h0.551c3.478-14.275,7.681-30.549,11.707-44.266l13.173-40.975h36.4l6.766,123.288
			H242.093z M320.952,517.541c-14.08,0-27.986-3.66-34.937-7.499l5.669-23.05c7.499,3.839,19.026,7.678,30.918,7.678
			c12.799,0,19.575-5.3,19.575-13.353c0-7.684-5.854-12.076-20.672-17.381c-20.487-7.13-33.84-18.473-33.84-36.397
			c0-21.041,17.561-37.136,46.644-37.136c13.896,0,24.147,2.927,31.456,6.218l-6.212,22.502c-4.941-2.379-13.722-5.854-25.787-5.854
			c-12.071,0-17.93,5.489-17.93,11.886c0,7.868,6.95,11.344,22.865,17.382c21.764,8.047,32.01,19.39,32.01,36.766
			C370.712,499.98,354.797,517.541,320.952,517.541z M417.551,515.711H389.56V392.423h27.991V515.711z M97.2,366.752V21.601h250.203
			v110.515c0,5.961,4.831,10.8,10.8,10.8H453.6l0.011,223.836H97.2z"/>
		<g>
			<path d="M339.541,201.108v-35.49l61.557-22.642l-71.513-27.032l9.35-16.751l-32.511-11.026l-8.137,16.849
				c-1.762,0.377-4.335,1.013-4.578,1.062c-46.379,10.966-116.756,27.346-120.729,27.588c-0.752,0.005-1.379,0.422-1.751,1.016
				l-0.2-0.119l-0.414-0.29l-0.499-0.092l-18.581-3.555l-16.503-3.153l14.942,7.678l11.404,5.867v194.727l32.719,9.244V149.025
				v-0.335l-0.954-0.271l-9.904-6.221l-7.501-4.693c16.406-3.077,101.055-23.98,120.16-28.495l26.235,9.336l-120.962,31.24
				l-0.511-0.19l-0.52-0.253v195.855l89.319-23.061c-11.085-12.852-17.84-29.536-17.84-47.796
				C271.624,235.549,301.63,203.893,339.541,201.108z M181.873,144.197l-18.739-4.997l-12.053-6.188l18.581,3.549L181.873,144.197z
				 M307.815,91.486L335,100.71l-7.309,13.081l-25.919-9.798L307.815,91.486z M327.986,119.697l61.072,22.976l-110.057,32.292
				l-64.631-24.382L327.986,119.697z"/>
			<path d="M348.047,210.039c-36.767,0-66.577,29.803-66.577,66.553c0,36.771,29.811,66.577,66.577,66.577
				s66.562-29.811,66.562-66.577C414.608,239.842,384.813,210.039,348.047,210.039z M368.086,218.165l-14.46,29.518
				c-2.811-1.086-5.579-0.514-5.579-0.514l-8.374-30.989C339.673,216.18,350.773,211.199,368.086,218.165z M348.036,302.796
				c-14.47,0-26.188-11.733-26.188-26.204c0-14.465,11.718-26.188,26.188-26.188c14.471,0,26.193,11.723,26.193,26.188
				C374.229,291.062,362.507,302.796,348.036,302.796z"/>
			<path d="M348.047,253.429c-12.783,0-23.172,10.399-23.172,23.185c0,12.767,10.389,23.172,23.172,23.172
				c12.772,0,23.172-10.405,23.172-23.172C371.219,263.822,360.819,253.429,348.047,253.429z M348.047,297.105
				c-11.307,0-20.498-9.196-20.498-20.492c0-11.322,9.191-20.514,20.498-20.514c11.301,0,20.492,9.191,20.492,20.514
				C368.545,287.909,359.348,297.105,348.047,297.105z"/>
			<path d="M348.047,265.523c-6.117,0-11.085,4.967-11.085,11.079c0,6.106,4.968,11.074,11.085,11.074
				c6.106,0,11.079-4.968,11.079-11.074C359.126,270.491,354.153,265.523,348.047,265.523z M348.047,284.998
				c-4.641,0-8.406-3.76-8.406-8.406c0-4.63,3.766-8.4,8.406-8.4c4.63,0,8.406,3.763,8.406,8.4
				C356.453,281.238,352.677,284.998,348.047,284.998z"/>
		</g>
	</g>
</g>
<g>
</g>
<g>
</g>
<g>
</g>
<g>
</g>
<g>
</g>
<g>
</g>
<g>
</g>
<g>
</g>
<g>
</g>
<g>
</g>
<g>
</g>
<g>
</g>
<g>
</g>
<g>
</g>
<g>
</g>
</svg>
