<?xml version="1.0" encoding="iso-8859-1"?>
<!-- Generator: Adobe Illustrator 16.0.0, SVG Export Plug-In . SVG Version: 6.00 Build 0)  -->
<!DOCTYPE svg PUBLIC "-//W3C//DTD SVG 1.1//EN" "http://www.w3.org/Graphics/SVG/1.1/DTD/svg11.dtd">
<svg version="1.1" id="Capa_1" xmlns="http://www.w3.org/2000/svg" xmlns:xlink="http://www.w3.org/1999/xlink" x="0px" y="0px"
	 width="550.801px" height="550.801px" viewBox="0 0 550.801 550.801" style="enable-background:new 0 0 550.801 550.801;"
	 xml:space="preserve">
<g>
	<g>
		<path d="M475.095,131.992c-0.031-2.526-0.833-5.021-2.568-6.993L366.319,3.694c-0.021-0.031-0.053-0.042-0.089-0.076
			c-0.628-0.707-1.361-1.29-2.136-1.804c-0.232-0.15-0.465-0.285-0.707-0.422c-0.686-0.366-1.393-0.667-2.136-0.889
			c-0.2-0.061-0.374-0.143-0.575-0.195C359.87,0.119,359.037,0,358.198,0H97.2c-11.907,0-21.6,9.693-21.6,21.601v507.6
			c0,11.913,9.692,21.601,21.6,21.601h356.4c11.918,0,21.6-9.688,21.6-21.601V133.202
			C475.2,132.799,475.137,132.398,475.095,131.992z M231.552,515.015h-26.557l-23.889-43.137
			c-6.642-11.955-13.943-26.388-19.419-39.492l-0.496,0.152c0.665,14.771,0.992,30.528,0.992,48.79v33.682h-23.235V403.171h29.545
			l23.234,40.984c6.637,11.797,13.268,25.729,18.246,38.344h0.499c-1.659-14.771-2.149-29.869-2.149-46.633v-32.695h23.235v111.844
			H231.552z M324.791,515.015h-71.352V403.171h69.026v20.74h-43.643v23.234h41.153v20.582h-41.153v26.547h45.968V515.015z
			 M369.415,516.682c-12.772,0-25.386-3.322-31.693-6.809l5.147-20.914c6.803,3.491,17.254,6.972,28.044,6.972
			c11.606,0,17.75-4.81,17.75-12.113c0-6.961-5.305-10.942-18.758-15.757c-18.578-6.477-30.696-16.76-30.696-33.022
			c0-19.085,15.926-33.687,42.314-33.687c12.604,0,21.9,2.657,28.539,5.647l-5.643,20.403c-4.482-2.152-12.445-5.306-23.393-5.306
			c-10.958,0-16.264,4.979-16.264,10.784c0,7.135,6.297,10.289,20.735,15.763c19.755,7.309,29.046,17.598,29.046,33.359
			C414.556,500.745,400.112,516.682,369.415,516.682z M97.2,366.752V21.601h250.204v110.515c0,5.964,4.83,10.8,10.8,10.8h95.396
			l0.011,223.836H97.2L97.2,366.752z"/>
		<g>
			<path d="M309.604,180.457h-82.35v11.254h-16.875v3.597h-8.889v3.153h8.889v4.05h16.875v19.797h-16.875v4.05h-8.889v3.153h8.889
				v3.597h16.875v21.151h-16.875v3.823h-8.889v3.154h8.889v3.823h16.875v15.298h82.35v-15.298h15.293v-3.823h8.892v-3.154h-8.892
				v-3.823h-15.293v-21.151h15.293v-3.597h8.892v-3.153h-8.892v-4.05h-15.293v-19.797h15.293v-4.05h8.892v-3.153h-8.892v-3.597
				h-15.293V180.457z M293.857,207.457c-3.48,0-6.307-2.818-6.307-6.302c0-3.482,2.826-6.302,6.307-6.302s6.297,2.819,6.297,6.302
				C300.154,204.639,297.338,207.457,293.857,207.457z"/>
			<path d="M319.333,103.6h-139.35v236.695h175.31V145.378L319.333,103.6z M323.051,122.624l16.98,19.733h-16.98V122.624z
				 M345.706,330.703H189.567V113.2h123.881v38.757h32.258V330.703z"/>
		</g>
	</g>
</g>
<g>
</g>
<g>
</g>
<g>
</g>
<g>
</g>
<g>
</g>
<g>
</g>
<g>
</g>
<g>
</g>
<g>
</g>
<g>
</g>
<g>
</g>
<g>
</g>
<g>
</g>
<g>
</g>
<g>
</g>
</svg>
