<?xml version="1.0" encoding="iso-8859-1"?>
<!-- Generator: Adobe Illustrator 16.0.0, SVG Export Plug-In . SVG Version: 6.00 Build 0)  -->
<!DOCTYPE svg PUBLIC "-//W3C//DTD SVG 1.1//EN" "http://www.w3.org/Graphics/SVG/1.1/DTD/svg11.dtd">
<svg version="1.1" id="Capa_1" xmlns="http://www.w3.org/2000/svg" xmlns:xlink="http://www.w3.org/1999/xlink" x="0px" y="0px"
	 width="550.801px" height="550.801px" viewBox="0 0 550.801 550.801" style="enable-background:new 0 0 550.801 550.801;"
	 xml:space="preserve">
<g>
	<g>
		<path d="M475.084,131.992c-0.021-2.531-0.828-5.021-2.562-6.993L366.324,3.694c-0.031-0.031-0.062-0.045-0.084-0.076
			c-0.633-0.707-1.371-1.295-2.151-1.804c-0.232-0.155-0.464-0.285-0.707-0.422c-0.675-0.366-1.392-0.675-2.13-0.896
			c-0.201-0.053-0.38-0.135-0.58-0.188C359.87,0.119,359.037,0,358.193,0H97.2C85.282,0,75.6,9.693,75.6,21.601v507.6
			c0,11.907,9.682,21.601,21.6,21.601H453.6c11.908,0,21.601-9.693,21.601-21.601V133.197
			C475.2,132.796,475.137,132.398,475.084,131.992z M164.041,512.947c-33.998,0-53.887-25.66-53.887-58.303
			c0-34.341,21.935-60.012,55.761-60.012c35.187,0,54.393,26.356,54.393,57.977C220.309,490.177,197.532,512.947,164.041,512.947z
			 M319.602,497.486c-12.07,10.029-30.428,14.786-52.868,14.786c-13.424,0-22.95-0.844-29.408-1.698V398.039
			c9.519-1.529,21.935-2.383,35.018-2.383c21.756,0,35.873,3.918,46.915,12.25c11.902,8.838,19.38,22.95,19.38,43.168
			C338.639,473.007,330.645,488.142,319.602,497.486z M428.752,501.905c-8.332,6.634-22.275,10.367-45.057,10.367
			c-12.751,0-22.265-0.844-28.044-1.698V398.039c6.803-1.35,20.566-2.383,33.486-2.383c15.81,0,25.502,1.539,33.834,6.465
			c7.984,4.25,13.764,12.065,13.764,22.443c0,10.188-5.948,19.713-18.868,24.469v0.343c13.089,3.565,22.781,13.427,22.781,28.219
			C440.648,487.962,435.892,496.125,428.752,501.905z M453.6,366.747H97.2V21.601h250.192v110.51c0,5.97,4.842,10.8,10.801,10.8
			H453.6V366.747z"/>
		<path d="M410.727,427.792c0-8.675-6.634-13.257-18.352-13.257c-5.61,0-8.849,0.343-11.048,0.675v26.694h8.496
			C403.418,441.904,410.727,436.293,410.727,427.792z"/>
		<path d="M275.065,415.547c-5.777,0-9.527,0.518-11.733,1.023v74.957c2.207,0.527,5.782,0.527,9.012,0.527
			c23.465,0.158,38.758-12.762,38.758-40.131C311.27,428.13,297.327,415.547,275.065,415.547z"/>
		<path d="M165.23,415.21c-17.508,0-27.709,16.664-27.709,38.929c0,22.443,10.537,38.242,27.881,38.242
			c17.513,0,27.541-16.664,27.541-38.918C192.937,432.887,183.081,415.21,165.23,415.21z"/>
		<path d="M390.16,460.424h-8.838v32.295c2.553,0.338,5.601,0.338,10.03,0.338c11.728,0,22.096-4.403,22.096-16.475
			C413.448,465.012,403.08,460.424,390.16,460.424z"/>
		<path d="M267.408,275.2c41.916,0,74.711-14.974,74.711-34.09v-21.513c0-3.056-0.886-6.162-2.668-9.207l-0.074-0.113
			c1.74-2.933,2.742-6.01,2.742-9.218V179.54c0-3.056-0.886-6.162-2.668-9.218l-0.232-0.387c1.852-3.009,2.9-6.188,2.9-9.506
			v-21.513c0-2.911-0.807-5.875-2.409-8.807l-0.19-0.34c0.475-1.308,0.807-2.647,0.807-4.074c0-17.381-37.567-26.766-72.918-26.766
			c-35.321,0-72.879,9.385-72.879,26.766c0,1.427,0.33,2.766,0.81,4.074l-0.188,0.34c-1.616,2.932-2.415,5.896-2.415,8.807v21.513
			c0,3.312,1.042,6.486,2.89,9.492l-0.242,0.411c-1.762,3.057-2.647,6.152-2.647,9.208v21.513c0,3.209,0.983,6.275,2.734,9.208
			l-0.087,0.134c-1.762,3.046-2.647,6.151-2.647,9.197v21.513C192.731,260.221,225.537,275.2,267.408,275.2z M200.728,142.523
			c11.984,10.157,39.772,15.417,66.68,15.417c26.944,0,54.715-5.265,66.712-15.417v17.906c0,12.34-27.375,26.083-66.712,26.083
			c-39.295,0-66.68-13.743-66.68-26.083V142.523z M200.728,180.813c12.263,11.232,37.494,18.404,66.68,18.404
			c29.223,0,54.451-7.172,66.712-18.415v20.25c0,12.34-27.375,26.093-66.712,26.093c-39.295,0-66.68-13.753-66.68-26.093V180.813z
			 M200.728,220.87c12.263,11.232,37.494,18.404,66.68,18.404c29.223,0,54.451-7.172,66.712-18.404v20.24
			c0,12.34-27.375,26.093-66.712,26.093c-39.295,0-66.68-13.753-66.68-26.093V220.87z"/>
		<polygon points="289.802,306.904 273.715,306.904 273.715,288.911 262.915,288.911 262.915,306.904 251.1,306.904 251.1,311.935 
			137.437,311.935 137.437,322.734 251.1,322.734 251.1,325.804 289.802,325.804 289.802,322.734 413.363,322.734 413.363,311.935 
			289.802,311.935 		"/>
	</g>
</g>
<g>
</g>
<g>
</g>
<g>
</g>
<g>
</g>
<g>
</g>
<g>
</g>
<g>
</g>
<g>
</g>
<g>
</g>
<g>
</g>
<g>
</g>
<g>
</g>
<g>
</g>
<g>
</g>
<g>
</g>
</svg>
