<?xml version="1.0" encoding="iso-8859-1"?>
<!-- Generator: Adobe Illustrator 16.0.0, SVG Export Plug-In . SVG Version: 6.00 Build 0)  -->
<!DOCTYPE svg PUBLIC "-//W3C//DTD SVG 1.1//EN" "http://www.w3.org/Graphics/SVG/1.1/DTD/svg11.dtd">
<svg version="1.1" id="Capa_1" xmlns="http://www.w3.org/2000/svg" xmlns:xlink="http://www.w3.org/1999/xlink" x="0px" y="0px"
	 width="550.801px" height="550.801px" viewBox="0 0 550.801 550.801" style="enable-background:new 0 0 550.801 550.801;"
	 xml:space="preserve">
<g>
	<g>
		<path d="M270.512,411.022c-5.909,0-9.732,0.527-11.989,1.055v76.581c2.257,0.527,5.909,0.527,9.208,0.527
			c23.962,0.169,39.593-13.036,39.593-40.996C307.502,423.879,293.264,411.022,270.512,411.022z"/>
		<path d="M158.293,410.675c-17.89,0-28.305,17.033-28.305,39.782c0,22.93,10.766,39.066,28.485,39.066
			c17.89,0,28.128-17.013,28.128-39.762C186.606,428.741,176.534,410.675,158.293,410.675z"/>
		<path d="M475.082,131.992c-0.021-2.531-0.828-5.021-2.563-6.993L366.327,3.694c-0.042-0.031-0.062-0.045-0.084-0.076
			c-0.633-0.707-1.376-1.295-2.151-1.804c-0.232-0.155-0.464-0.285-0.707-0.422c-0.686-0.366-1.402-0.675-2.136-0.896
			c-0.189-0.053-0.369-0.135-0.569-0.188C359.878,0.119,359.045,0,358.19,0H97.208c-11.918,0-21.6,9.693-21.6,21.601v507.6
			c0,11.907,9.682,21.601,21.6,21.601h356.385c11.918,0,21.6-9.693,21.6-21.601V133.197
			C475.192,132.796,475.14,132.398,475.082,131.992z M157.078,510.543c-34.736,0-55.047-26.22-55.047-59.568
			c0-35.09,22.399-61.31,56.963-61.31c35.955,0,55.577,26.927,55.577,59.221C214.566,487.276,191.297,510.543,157.078,510.543z
			 M316.003,494.733c-12.329,10.251-31.081,15.124-54.008,15.124c-13.722,0-23.445-0.875-30.045-1.751V393.135
			c9.724-1.561,22.404-2.426,35.78-2.426c22.222,0,36.64,3.998,47.93,12.509c12.155,9.028,19.802,23.446,19.802,44.107
			C335.462,469.737,327.299,485.188,316.003,494.733z M412.76,488.489c7.984,0,16.844-1.729,22.054-3.828l3.997,20.683
			c-4.861,2.426-15.81,5.03-30.042,5.03c-40.464,0-61.314-25.186-61.314-58.535c0-39.936,28.492-62.174,63.925-62.174
			c13.711,0,24.131,2.774,28.824,5.21l-5.379,21.01c-5.39-2.246-12.856-4.335-22.228-4.335c-21.025,0-37.347,12.678-37.347,38.729
			C375.245,473.724,389.135,488.489,412.76,488.489z M453.593,366.747H97.203V21.601h250.183v110.51c0,5.97,4.846,10.8,10.8,10.8
			h95.407V366.747z"/>
		<rect x="144.503" y="203.671" width="64.945" height="16.2"/>
		<rect x="144.503" y="155.569" width="133.795" height="16.2"/>
		<rect x="144.503" y="106.207" width="181.72" height="16.2"/>
		<rect x="144.503" y="253.115" width="64.945" height="16.2"/>
		<rect x="144.503" y="300.871" width="64.945" height="16.2"/>
		<rect x="258.522" y="300.871" width="148.273" height="16.2"/>
		<rect x="261.624" y="203.671" width="18.333" height="80.283"/>
		<rect x="304.349" y="167.854" width="18.336" height="116.101"/>
		<rect x="346.874" y="185.404" width="18.336" height="98.55"/>
		<rect x="385.496" y="225.904" width="18.336" height="58.05"/>
	</g>
</g>
<g>
</g>
<g>
</g>
<g>
</g>
<g>
</g>
<g>
</g>
<g>
</g>
<g>
</g>
<g>
</g>
<g>
</g>
<g>
</g>
<g>
</g>
<g>
</g>
<g>
</g>
<g>
</g>
<g>
</g>
</svg>
