<?xml version="1.0" encoding="iso-8859-1"?>
<!-- Generator: Adobe Illustrator 16.0.0, SVG Export Plug-In . SVG Version: 6.00 Build 0)  -->
<!DOCTYPE svg PUBLIC "-//W3C//DTD SVG 1.1//EN" "http://www.w3.org/Graphics/SVG/1.1/DTD/svg11.dtd">
<svg version="1.1" id="Capa_1" xmlns="http://www.w3.org/2000/svg" xmlns:xlink="http://www.w3.org/1999/xlink" x="0px" y="0px"
	 width="550.801px" height="550.801px" viewBox="0 0 550.801 550.801" style="enable-background:new 0 0 550.801 550.801;"
	 xml:space="preserve">
<g>
	<g>
		<path d="M283.162,413.227c-6.275,0-10.349,0.549-12.746,1.107v81.538c2.397,0.549,6.286,0.549,9.792,0.549
			c25.519,0.189,42.156-13.854,42.156-43.622C322.545,426.917,307.389,413.227,283.162,413.227z"/>
		<path d="M475.095,131.992c-0.032-2.531-0.833-5.021-2.579-6.993L366.314,3.694c-0.011-0.031-0.043-0.045-0.074-0.076
			c-0.644-0.707-1.36-1.295-2.141-1.804c-0.232-0.155-0.465-0.285-0.707-0.422c-0.686-0.366-1.393-0.675-2.131-0.896
			c-0.2-0.053-0.379-0.135-0.58-0.188C359.87,0.119,359.047,0,358.203,0H97.2C85.292,0,75.6,9.693,75.6,21.601v507.6
			c0,11.907,9.692,21.601,21.6,21.601H453.6c11.918,0,21.601-9.693,21.601-21.601V133.197
			C475.2,132.796,475.126,132.398,475.095,131.992z M162.411,519.17c-36.979,0-58.611-27.917-58.611-63.418
			c0-37.347,23.857-65.264,60.642-65.264c38.275,0,59.168,28.661,59.168,63.044C223.615,494.385,198.838,519.17,162.411,519.17z
			 M331.604,502.348c-13.131,10.906-33.097,16.074-57.494,16.074c-14.607,0-24.959-0.918-31.991-1.846V394.189
			c10.352-1.666,23.852-2.604,38.09-2.604c23.668,0,39.014,4.261,51.026,13.32c12.94,9.619,21.078,24.954,21.078,46.966
			C352.313,475.717,343.622,492.17,331.604,502.348z M446.998,415.621h-47.894v28.487h44.739v22.918h-44.739v50.108h-28.287V392.523
			h76.181V415.621z M97.2,366.747V21.601h250.203v110.51c0,5.97,4.831,10.8,10.8,10.8H453.6l0.011,223.837H97.2z"/>
		<path d="M163.706,412.857c-19.04,0-30.138,18.12-30.138,42.336c0,24.405,11.464,41.607,30.327,41.607
			c19.04,0,29.943-18.12,29.943-42.336C193.838,432.085,183.125,412.857,163.706,412.857z"/>
		<path d="M340.717,152.814c0-4.334-3.512-7.844-7.857-7.844H200.971c-3.175,0-6.035,1.912-7.251,4.838s-0.551,6.318,1.695,8.564
			l64.837,64.832l-63.666,57.923c-2.392,2.184-3.206,5.611-2.03,8.644c1.173,3.032,4.079,5.021,7.317,5.021h130.987
			c4.335,0,7.847-3.507,7.847-7.842c0-4.351-3.512-7.857-7.847-7.857H222.173l54.735-49.818c1.593-1.447,2.521-3.473,2.568-5.611
			c0.058-2.149-0.775-4.216-2.3-5.74l-57.251-57.262h112.934C337.194,160.661,340.717,157.151,340.717,152.814z"/>
	</g>
</g>
<g>
</g>
<g>
</g>
<g>
</g>
<g>
</g>
<g>
</g>
<g>
</g>
<g>
</g>
<g>
</g>
<g>
</g>
<g>
</g>
<g>
</g>
<g>
</g>
<g>
</g>
<g>
</g>
<g>
</g>
</svg>
