<?xml version="1.0" encoding="iso-8859-1"?>
<!-- Generator: Adobe Illustrator 16.0.0, SVG Export Plug-In . SVG Version: 6.00 Build 0)  -->
<!DOCTYPE svg PUBLIC "-//W3C//DTD SVG 1.1//EN" "http://www.w3.org/Graphics/SVG/1.1/DTD/svg11.dtd">
<svg version="1.1" id="Capa_1" xmlns="http://www.w3.org/2000/svg" xmlns:xlink="http://www.w3.org/1999/xlink" x="0px" y="0px"
	 width="548.291px" height="548.291px" viewBox="0 0 548.291 548.291" style="enable-background:new 0 0 548.291 548.291;"
	 xml:space="preserve">
<g>
	<g>
		<path d="M155.091,409.077c-17.809,0-28.179,16.945-28.179,39.591c0,22.824,10.72,38.909,28.354,38.909
			c17.812,0,28.009-16.945,28.009-39.592C183.275,427.061,173.243,409.077,155.091,409.077z"/>
		<path d="M266.796,409.422c-5.874,0-9.68,0.515-11.926,1.029v76.253c2.246,0.514,5.878,0.514,9.159,0.514
			c23.859,0.18,39.423-12.954,39.423-40.797C303.625,422.22,289.452,409.422,266.796,409.422z"/>
		<path d="M472.929,131.39c-0.031-2.52-0.839-4.997-2.566-6.96L364.656,3.677c-0.031-0.031-0.062-0.044-0.084-0.075
			c-0.63-0.704-1.365-1.29-2.142-1.796c-0.231-0.154-0.463-0.283-0.704-0.419c-0.672-0.365-1.376-0.672-2.121-0.893
			c-0.2-0.052-0.377-0.134-0.577-0.186C358.231,0.118,357.4,0,356.561,0H96.757C84.904,0,75.255,9.649,75.255,21.502V526.79
			c0,11.854,9.649,21.501,21.502,21.501h354.775c11.853,0,21.503-9.647,21.503-21.501v-394.2
			C473.036,132.191,472.971,131.795,472.929,131.39z M153.881,508.49c-34.586,0-54.807-26.104-54.807-59.298
			c0-34.929,22.302-61.033,56.71-61.033c35.791,0,55.329,26.803,55.329,58.966C211.107,485.318,187.944,508.49,153.881,508.49z
			 M312.099,492.763c-12.273,10.193-30.952,15.033-53.768,15.033c-13.659,0-23.347-0.859-29.914-1.722V391.616
			c9.685-1.553,22.302-2.424,35.617-2.424c22.132,0,36.472,3.979,47.722,12.435c12.102,9.004,19.708,23.356,19.708,43.933
			C331.458,467.859,323.332,483.25,312.099,492.763z M446.105,501.235c-8.136,2.762-23.518,6.562-38.898,6.562
			c-21.27,0-36.65-5.354-47.37-15.727c-10.721-10.037-16.6-25.25-16.437-42.363c0.179-38.729,28.363-60.861,66.579-60.861
			c15.034,0,26.624,2.939,32.325,5.711l-5.532,21.099c-6.394-2.778-14.348-5.024-27.141-5.024
			c-21.962,0-38.556,12.452-38.556,37.696c0,24.032,15.038,38.2,36.646,38.2c6.058,0,10.893-0.683,12.966-1.723v-24.373h-17.974
			v-20.578h43.392V501.235z M451.533,365.076H96.757V21.502H345.81v110.006c0,5.943,4.819,10.751,10.751,10.751h94.972V365.076z"/>
		<path d="M318.386,261.282c-6.246,24.895,16.106,46.786,16.106,46.786c34.567,31.082,58.986,0,58.986,0
			c-12.682-6.656-13.317-32.022-13.317-32.022c-0.319-28.874-41.891-34.646-41.891-34.646L318.386,261.282z M322.114,268.825
			l4.86-7.058c0,0-8.026,11.255,22.741,48.422C349.715,310.189,327.195,302.146,322.114,268.825z"/>
		<path d="M323.18,217.596C318.251,212.662,164.099,84.369,155.337,75.6c-10.837-7.896-17.115,0.178-8.643,8.638
			c8.453,8.462,143.061,157.343,147.781,162.057c4.709,4.704,19.049,10.544,19.049,10.544l19.885-19.885
			C333.41,236.958,328.115,222.521,323.18,217.596z"/>
	</g>
</g>
<g>
</g>
<g>
</g>
<g>
</g>
<g>
</g>
<g>
</g>
<g>
</g>
<g>
</g>
<g>
</g>
<g>
</g>
<g>
</g>
<g>
</g>
<g>
</g>
<g>
</g>
<g>
</g>
<g>
</g>
</svg>
