<?xml version="1.0" encoding="iso-8859-1"?>
<!-- Generator: Adobe Illustrator 16.0.0, SVG Export Plug-In . SVG Version: 6.00 Build 0)  -->
<!DOCTYPE svg PUBLIC "-//W3C//DTD SVG 1.1//EN" "http://www.w3.org/Graphics/SVG/1.1/DTD/svg11.dtd">
<svg version="1.1" id="Capa_1" xmlns="http://www.w3.org/2000/svg" xmlns:xlink="http://www.w3.org/1999/xlink" x="0px" y="0px"
	 width="550.801px" height="550.801px" viewBox="0 0 550.801 550.801" style="enable-background:new 0 0 550.801 550.801;"
	 xml:space="preserve">
<g>
	<g>
		<rect x="148.355" y="196.468" width="64.945" height="16.2"/>
		<rect x="148.355" y="148.366" width="133.795" height="16.2"/>
		<rect x="148.355" y="99.004" width="181.72" height="16.2"/>
		<rect x="148.355" y="245.911" width="64.945" height="16.2"/>
		<rect x="148.355" y="293.668" width="64.945" height="16.199"/>
		<path d="M311.607,175.743c-40.954,0-74.142,33.199-74.142,74.142c0,40.945,33.188,74.137,74.142,74.137
			c40.943,0,74.134-33.191,74.134-74.137h-74.134V175.743z"/>
		<path d="M321.658,238.188v0.023h74.15c0-20.861-8.654-39.669-22.513-53.148L321.658,238.188z"/>
		<path d="M320.884,225.166l52.418-52.428c-14.739-14.745-33.144-21.943-52.471-21.666l0.036,74.07L320.884,225.166z"/>
	</g>
	<g>
		<path d="M163.788,416.971c-18.684,0-29.576,17.782-29.576,41.555c0,23.952,11.253,40.816,29.76,40.816
			c18.689,0,29.386-17.781,29.386-41.538C193.364,435.84,182.838,416.971,163.788,416.971z"/>
		<path d="M281.011,417.33c-6.167,0-10.156,0.559-12.511,1.097v80.009c2.359,0.548,6.164,0.548,9.61,0.548
			c25.038,0.18,41.365-13.616,41.365-42.82C319.654,430.756,304.783,417.33,281.011,417.33z"/>
		<path d="M405.854,416.971c-5.627,0-9.439,0.549-11.433,1.087v36.102c2.362,0.564,5.263,0.733,9.255,0.733
			c14.696,0,23.772-7.425,23.772-19.955C427.449,423.679,419.639,416.971,405.854,416.971z"/>
		<path d="M475.084,131.992c-0.021-2.531-0.828-5.021-2.562-6.993L366.324,3.694c-0.031-0.031-0.062-0.045-0.084-0.076
			c-0.633-0.707-1.371-1.295-2.151-1.804c-0.232-0.155-0.464-0.285-0.707-0.422c-0.675-0.366-1.392-0.675-2.13-0.896
			c-0.201-0.053-0.38-0.135-0.58-0.188C359.87,0.119,359.037,0,358.193,0H97.2C85.282,0,75.6,9.693,75.6,21.601v507.6
			c0,11.907,9.682,21.601,21.6,21.601H453.6c11.908,0,21.601-9.693,21.601-21.601V133.197
			C475.2,132.796,475.137,132.398,475.084,131.992z M97.2,21.601h250.192v110.51c0,5.97,4.842,10.8,10.801,10.8H453.6v223.837H97.2
			V21.601z M162.52,521.29c-36.289,0-57.512-27.39-57.512-62.227c0-36.65,23.404-64.051,59.513-64.051
			c37.558,0,58.063,28.128,58.063,61.878C222.576,496.99,198.26,521.29,162.52,521.29z M328.546,504.784
			c-12.878,10.7-32.474,15.789-56.423,15.789c-14.334,0-24.49-0.907-31.391-1.825V398.651c10.162-1.635,23.403-2.542,37.378-2.542
			c23.219,0,38.28,4.171,50.066,13.067c12.709,9.429,20.692,24.49,20.692,46.079C348.869,478.67,340.337,494.807,328.546,504.784z
			 M443.591,463.24c-9.439,8.891-23.403,12.878-39.729,12.878c-3.634,0-6.898-0.18-9.439-0.549v43.738h-27.396V398.651
			c8.526-1.456,20.508-2.542,37.372-2.542c17.06,0,29.21,3.265,37.389,9.793c7.789,6.175,13.058,16.321,13.058,28.297
			C454.834,446.186,450.848,456.343,443.591,463.24z"/>
	</g>
</g>
<g>
</g>
<g>
</g>
<g>
</g>
<g>
</g>
<g>
</g>
<g>
</g>
<g>
</g>
<g>
</g>
<g>
</g>
<g>
</g>
<g>
</g>
<g>
</g>
<g>
</g>
<g>
</g>
<g>
</g>
</svg>
