<?xml version="1.0" encoding="iso-8859-1"?>
<!-- Generator: Adobe Illustrator 16.0.0, SVG Export Plug-In . SVG Version: 6.00 Build 0)  -->
<!DOCTYPE svg PUBLIC "-//W3C//DTD SVG 1.1//EN" "http://www.w3.org/Graphics/SVG/1.1/DTD/svg11.dtd">
<svg version="1.1" id="Capa_1" xmlns="http://www.w3.org/2000/svg" xmlns:xlink="http://www.w3.org/1999/xlink" x="0px" y="0px"
	 width="550.801px" height="550.801px" viewBox="0 0 550.801 550.801" style="enable-background:new 0 0 550.801 550.801;"
	 xml:space="preserve">
<g>
	<g>
		<path d="M283.215,416.317c-5.948,0-9.798,0.517-12.076,1.044v77.172c2.278,0.527,5.959,0.527,9.281,0.527
			c24.152,0.179,39.899-13.121,39.899-41.297C320.498,429.269,306.145,416.317,283.215,416.317z"/>
		<path d="M170.153,415.959c-18.025,0-28.516,17.148-28.516,40.078c0,23.098,10.848,39.371,28.695,39.371
			c18.024,0,28.35-17.149,28.35-40.067C198.682,434.162,188.531,415.959,170.153,415.959z"/>
		<path d="M475.084,131.992c-0.021-2.531-0.828-5.021-2.562-6.993L366.324,3.694c-0.031-0.031-0.062-0.045-0.084-0.076
			c-0.633-0.707-1.371-1.295-2.151-1.804c-0.232-0.155-0.464-0.285-0.707-0.422c-0.675-0.366-1.392-0.675-2.13-0.896
			c-0.201-0.053-0.38-0.135-0.58-0.188C359.87,0.119,359.037,0,358.193,0H97.2C85.282,0,75.6,9.693,75.6,21.601v507.6
			c0,11.907,9.682,21.601,21.6,21.601H453.6c11.908,0,21.601-9.693,21.601-21.601V133.197
			C475.2,132.796,475.137,132.398,475.084,131.992z M168.929,516.586c-34.992,0-55.468-26.43-55.468-60.021
			c0-35.354,22.575-61.773,57.401-61.773c36.218,0,55.99,27.127,55.99,59.669C226.853,493.13,203.407,516.586,168.929,516.586z
			 M329.062,500.66c-12.424,10.326-31.313,15.22-54.419,15.22c-13.825,0-23.62-0.876-30.267-1.751V398.293
			c9.795-1.572,22.573-2.458,36.054-2.458c22.392,0,36.925,4.019,48.289,12.593c12.25,9.118,19.949,23.625,19.949,44.466
			C348.669,475.464,340.442,491.031,329.062,500.66z M395.055,516.418c-13.474,0-26.779-3.513-33.424-7.183l5.422-22.054
			c7.177,3.681,18.203,7.352,29.578,7.352c12.261,0,18.727-5.073,18.727-12.772c0-7.352-5.601-11.549-19.775-16.622
			c-19.597-6.824-32.374-17.671-32.374-34.826c0-20.123,16.801-35.521,44.629-35.521c13.3,0,23.093,2.8,30.101,5.954l-5.953,21.516
			c-4.726-2.273-13.126-5.59-24.68-5.59c-11.549,0-17.149,5.252-17.149,11.374c0,7.525,6.649,10.843,21.88,16.611
			c20.824,7.699,30.628,18.558,30.628,35.185C442.652,499.605,427.423,516.418,395.055,516.418z M453.6,366.747H97.2V21.601h250.192
			v110.51c0,5.97,4.842,10.8,10.801,10.8H453.6V366.747z"/>
		<path d="M149.705,154.744v171.007h251.393V154.744H149.705z M385.752,310.363h-84.955v-17.539h84.955V310.363L385.752,310.363z
			 M296.409,310.363h-41.099v-17.539h41.099V310.363z M250.921,310.363h-38.367v-17.539h38.367V310.363z M208.169,310.363h-43.118
			v-17.539h43.118V310.363z M300.797,202.382h84.955v19.73h-84.955V202.382z M300.797,226.505h84.955v17.906h-84.955V226.505z
			 M300.797,248.801h84.955v19.721h-84.955V248.801z M385.752,272.911v15.525h-84.955v-15.525H385.752z M255.306,172.283h41.104
			v25.724h-41.104V172.283z M255.306,202.382h41.104v19.73h-41.104V202.382z M255.306,226.505h41.104v17.906h-41.104V226.505z
			 M255.306,248.801h41.104v19.721h-41.104V248.801z M296.409,272.911v15.525h-41.099v-15.525H296.409z M212.549,202.382h38.367
			v19.73h-38.367V202.382z M212.549,226.505h38.367v17.906h-38.367V226.505z M212.549,248.801h38.367v19.721h-38.367V248.801z
			 M250.921,272.911v15.525h-38.367v-15.525H250.921z M165.045,172.283h43.118v25.724h-43.118V172.283z M165.045,202.382h43.118
			v19.73h-43.118V202.382z M165.045,226.505h43.118v17.906h-43.118V226.505z M165.045,248.801h43.118v19.721h-43.118V248.801z
			 M208.169,272.911v15.525h-43.118v-15.525H208.169z"/>
	</g>
</g>
<g>
</g>
<g>
</g>
<g>
</g>
<g>
</g>
<g>
</g>
<g>
</g>
<g>
</g>
<g>
</g>
<g>
</g>
<g>
</g>
<g>
</g>
<g>
</g>
<g>
</g>
<g>
</g>
<g>
</g>
</svg>
