<?xml version="1.0" encoding="iso-8859-1"?>
<!-- Generator: Adobe Illustrator 16.0.0, SVG Export Plug-In . SVG Version: 6.00 Build 0)  -->
<!DOCTYPE svg PUBLIC "-//W3C//DTD SVG 1.1//EN" "http://www.w3.org/Graphics/SVG/1.1/DTD/svg11.dtd">
<svg version="1.1" id="Capa_1" xmlns="http://www.w3.org/2000/svg" xmlns:xlink="http://www.w3.org/1999/xlink" x="0px" y="0px"
	 width="548.291px" height="548.291px" viewBox="0 0 548.291 548.291" style="enable-background:new 0 0 548.291 548.291;"
	 xml:space="preserve">
<g>
	<g>
		<path d="M271.292,412.279c-5.786,0-9.533,0.515-11.751,1.028v75.036c2.212,0.514,5.782,0.514,9.018,0.514
			c23.486,0.169,38.804-12.767,38.804-40.158C307.531,424.876,293.578,412.279,271.292,412.279z"/>
		<path d="M472.918,131.39c-0.021-2.509-0.823-4.997-2.55-6.96L364.656,3.672c-0.031-0.034-0.062-0.044-0.084-0.076
			c-0.63-0.704-1.365-1.279-2.142-1.795c-0.231-0.145-0.463-0.284-0.704-0.42c-0.672-0.365-1.387-0.662-2.121-0.882
			c-0.2-0.063-0.377-0.145-0.577-0.197C358.231,0.113,357.4,0,356.561,0H96.757C84.893,0,75.255,9.649,75.255,21.502V526.79
			c0,11.854,9.638,21.501,21.502,21.501h354.775c11.853,0,21.503-9.647,21.503-21.501V132.595
			C473.036,132.186,472.971,131.79,472.918,131.39z M160.159,509.776c-34.037,0-53.942-25.685-53.942-58.358
			c0-34.378,21.943-60.079,55.814-60.079c35.224,0,54.447,26.384,54.447,58.043C216.472,486.972,193.68,509.776,160.159,509.776z
			 M315.868,494.295c-12.084,10.047-30.457,14.805-52.925,14.805c-13.438,0-22.969-0.841-29.441-1.703V394.755
			c9.531-1.532,21.953-2.382,35.053-2.382c21.79,0,35.91,3.916,46.973,12.252c11.904,8.846,19.386,22.966,19.386,43.224
			C334.923,469.791,326.933,484.936,315.868,494.295z M406.745,507.913l-10.373-20.767c-4.251-7.99-6.98-13.953-10.214-20.589
			h-0.337c-2.384,6.636-5.28,12.599-8.851,20.589l-9.533,20.767H337.83l33.188-58.027l-31.991-56.662h29.776l10.036,20.934
			c3.402,6.973,5.958,12.59,8.677,19.057h0.341c2.731-7.318,4.936-12.419,7.832-19.057l9.702-20.934h29.607l-32.337,55.989
			l34.037,58.7H406.745z M96.757,365.081V21.502H345.81v110.016c0,5.935,4.819,10.751,10.751,10.751h94.972v222.815H96.757V365.081z
			"/>
		<path d="M161.348,411.937c-17.525,0-27.738,16.688-27.738,38.972c0,22.463,10.551,38.269,27.904,38.269
			c17.535,0,27.569-16.678,27.569-38.951C189.083,429.627,179.215,411.937,161.348,411.937z"/>
		<path d="M300.497,199.234h7.687l-28.307,13.131c-4.703-7.833-13.188-13.131-22.981-13.131c-2.509,0-4.903,0.461-7.202,1.102
			l-19.433-41.008h12.756v-27.769h-61.817v27.769h43.116l20.357,42.97c-8.661,4.461-14.659,13.396-14.659,23.814
			c0,6.805,2.601,12.931,6.771,17.669l-30.236,32.506h-43.959v27.771h61.817v-27.771h-10.52l26.822-28.829
			c4.518,3.422,10.079,5.53,16.182,5.53c14.845,0,26.877-12.029,26.877-26.876c0-3.129-0.642-6.08-1.621-8.869l38.809-18.008h41.349
			v-27.77h-61.817v27.77H300.497z"/>
	</g>
</g>
<g>
</g>
<g>
</g>
<g>
</g>
<g>
</g>
<g>
</g>
<g>
</g>
<g>
</g>
<g>
</g>
<g>
</g>
<g>
</g>
<g>
</g>
<g>
</g>
<g>
</g>
<g>
</g>
<g>
</g>
</svg>
