<?xml version="1.0" encoding="iso-8859-1"?>
<!-- Generator: Adobe Illustrator 16.0.0, SVG Export Plug-In . SVG Version: 6.00 Build 0)  -->
<!DOCTYPE svg PUBLIC "-//W3C//DTD SVG 1.1//EN" "http://www.w3.org/Graphics/SVG/1.1/DTD/svg11.dtd">
<svg version="1.1" id="Capa_1" xmlns="http://www.w3.org/2000/svg" xmlns:xlink="http://www.w3.org/1999/xlink" x="0px" y="0px"
	 width="550.801px" height="550.801px" viewBox="0 0 550.801 550.801" style="enable-background:new 0 0 550.801 550.801;"
	 xml:space="preserve">
<g>
	<g>
		<path d="M156.455,419.249c-17.827,0-28.216,16.97-28.216,39.646c0,22.84,10.724,38.95,28.382,38.95
			c17.837,0,28.042-16.976,28.042-39.636C184.663,437.264,174.625,419.249,156.455,419.249z"/>
		<path d="M475.084,131.992c-0.021-2.531-0.828-5.021-2.562-6.993L366.324,3.689c-0.031-0.035-0.062-0.045-0.084-0.077
			c-0.633-0.706-1.371-1.294-2.151-1.803c-0.232-0.156-0.464-0.285-0.707-0.422c-0.675-0.367-1.392-0.675-2.13-0.896
			c-0.201-0.053-0.38-0.134-0.58-0.187C359.87,0.114,359.037,0,358.193,0H97.2C85.282,0,75.6,9.693,75.6,21.601v507.6
			c0,11.907,9.682,21.601,21.6,21.601H453.6c11.908,0,21.601-9.693,21.601-21.601V133.197
			C475.2,132.791,475.137,132.393,475.084,131.992z M155.239,518.791c-34.625,0-54.875-26.146-54.875-59.369
			c0-34.973,22.33-61.119,56.787-61.119c35.827,0,55.392,26.842,55.392,59.031C212.538,495.588,189.346,518.791,155.239,518.791z
			 M327.333,511.514c-8.143,2.773-23.552,6.581-38.96,6.581c-21.294,0-36.695-5.368-47.43-15.757
			c-10.726-10.041-16.622-25.276-16.442-42.415c0.166-38.77,28.392-60.924,66.646-60.924c15.061,0,26.662,2.942,32.368,5.717
			l-5.537,21.114c-6.401-2.778-14.364-5.025-27.179-5.025c-21.975,0-38.597,12.472-38.597,37.737
			c0,24.057,15.061,38.253,36.703,38.253c6.054,0,10.911-0.686,12.978-1.725v-24.41H283.88v-20.608h43.453V511.514z
			 M445.395,511.514c-8.132,2.773-23.541,6.581-38.949,6.581c-21.284,0-36.693-5.368-47.43-15.757
			c-10.736-10.041-16.611-25.276-16.442-42.415c0.169-38.77,28.392-60.924,66.646-60.924c15.061,0,26.662,2.942,32.379,5.717
			l-5.548,21.114c-6.401-2.778-14.364-5.025-27.179-5.025c-21.98,0-38.602,12.472-38.602,37.737
			c0,24.057,15.061,38.253,36.708,38.253c6.049,0,10.911-0.686,12.978-1.725v-24.41h-18.003v-20.608h43.442V511.514L445.395,511.514
			z M97.2,366.747V21.601h250.192v110.51c0,5.967,4.842,10.8,10.801,10.8H453.6v223.837H97.2z"/>
		<path d="M226.444,276.255c-5.324-1.87-11.676-2.194-18.162-0.58c-14.428,3.606-23.867,15.493-21.102,26.557
			c1.614,10.241,16.706,17.097,31.103,13.479c12.68-3.144,21.503-12.741,21.568-22.528h0.021l0.34-103.286l74.506-13.624v83.036
			c-5.41-1.912-11.896-2.247-18.479-0.62c-14.575,3.649-24.112,15.636-21.314,26.842c2.795,11.164,16.854,17.266,31.43,13.658
			c13.278-3.354,21.779-12.472,21.779-23.87V137.484l-101.686,16.498v122.272H226.444z"/>
	</g>
</g>
<g>
</g>
<g>
</g>
<g>
</g>
<g>
</g>
<g>
</g>
<g>
</g>
<g>
</g>
<g>
</g>
<g>
</g>
<g>
</g>
<g>
</g>
<g>
</g>
<g>
</g>
<g>
</g>
<g>
</g>
</svg>
