<?xml version="1.0" encoding="iso-8859-1"?>
<!-- Generator: Adobe Illustrator 16.0.0, SVG Export Plug-In . SVG Version: 6.00 Build 0)  -->
<!DOCTYPE svg PUBLIC "-//W3C//DTD SVG 1.1//EN" "http://www.w3.org/Graphics/SVG/1.1/DTD/svg11.dtd">
<svg version="1.1" id="Capa_1" xmlns="http://www.w3.org/2000/svg" xmlns:xlink="http://www.w3.org/1999/xlink" x="0px" y="0px"
	 width="548.291px" height="548.291px" viewBox="0 0 548.291 548.291" style="enable-background:new 0 0 548.291 548.291;"
	 xml:space="preserve">
<g>
	<g>
		<path d="M472.929,131.385c-0.031-2.514-0.829-4.992-2.556-6.96L364.656,3.667c-0.021-0.029-0.062-0.044-0.084-0.07
			c-0.63-0.709-1.354-1.284-2.132-1.795c-0.23-0.149-0.473-0.29-0.714-0.42c-0.672-0.37-1.376-0.667-2.121-0.888
			c-0.189-0.058-0.377-0.144-0.577-0.186C358.231,0.113,357.4,0,356.572,0H96.757C84.904,0,75.255,9.644,75.255,21.502V526.79
			c0,11.854,9.649,21.501,21.502,21.501h354.775c11.853,0,21.503-9.647,21.503-21.501v-394.2
			C473.036,132.186,472.971,131.79,472.929,131.385z M172.937,519.209c-38.707,0-61.332-29.207-61.332-66.363
			c0-39.087,24.956-68.305,63.465-68.305c40.053,0,61.914,29.994,61.914,65.985C236.979,493.288,211.06,519.209,172.937,519.209z
			 M341.286,411.438h-35.604v105.65h-29.595v-105.65h-35.027v-24.767h100.225V411.438z M436.689,410.861h-50.112v29.795h46.824
			v23.99h-46.824v52.442h-29.607V386.671h79.72V410.861z M96.757,365.076V21.502H345.82v110.006c0,5.935,4.81,10.751,10.752,10.751
			h94.961l0.011,222.816H96.757z"/>
		<path d="M174.291,407.953c-19.927,0-31.547,18.971-31.547,44.316c0,25.543,12.008,43.527,31.746,43.527
			c19.927,0,31.329-18.955,31.329-44.299C205.819,428.079,194.605,407.953,174.291,407.953z"/>
		<path d="M329.758,272.51c-2.753-5.746-4.872-17.667-6.363-35.767l-6.53-77.835l-1.47-37.515l-22.962,4.166
			c-7.433,0.601-12.977,1.016-16.66,1.241c-18.384,1.275-32.418,4.092-42.098,8.452c-9.672,4.36-18.08,11.685-25.206,21.974
			c-6.456,9.234-10.396,20.922-11.821,35.042l22.061-10.935c0-14.567,4.263-25.779,12.788-33.627
			c8.514-7.848,20.62-11.772,36.305-11.772c5.851,0,12.863,0.483,21.042,1.463l-48.515,83.846
			c-13.504,23.41-25.113,39.717-34.833,48.909c-9.724,9.192-20.092,13.791-31.129,13.791c-11.546,0-20.895-5.481-28.032-16.435
			l-15.192,15.311c10.134,9.076,22.142,13.616,36.021,13.616c14.636,0,27.243-4.109,37.815-12.325
			c10.595-8.21,21.809-22.602,33.661-43.166h61.353l4.609,55.491l51.676-8.556l1.454-7.429c-7.502,0.451-11.896,0.678-13.161,0.678
			C337.421,281.122,332.498,278.25,329.758,272.51z M243.468,232.604l48.526-84.618l7.201,84.623h-55.727V232.604z"/>
	</g>
</g>
<g>
</g>
<g>
</g>
<g>
</g>
<g>
</g>
<g>
</g>
<g>
</g>
<g>
</g>
<g>
</g>
<g>
</g>
<g>
</g>
<g>
</g>
<g>
</g>
<g>
</g>
<g>
</g>
<g>
</g>
</svg>
