<?xml version="1.0" encoding="iso-8859-1"?>
<!-- Generator: Adobe Illustrator 16.0.0, SVG Export Plug-In . SVG Version: 6.00 Build 0)  -->
<!DOCTYPE svg PUBLIC "-//W3C//DTD SVG 1.1//EN" "http://www.w3.org/Graphics/SVG/1.1/DTD/svg11.dtd">
<svg version="1.1" id="Capa_1" xmlns="http://www.w3.org/2000/svg" xmlns:xlink="http://www.w3.org/1999/xlink" x="0px" y="0px"
	 width="550.801px" height="550.801px" viewBox="0 0 550.801 550.801" style="enable-background:new 0 0 550.801 550.801;"
	 xml:space="preserve">
<g>
	<g>
		<path d="M129.249,427.359c-3.812,0-6.404,0.369-7.754,0.738v24.469c1.598,0.364,3.565,0.485,6.27,0.485
			c9.962,0,16.103-5.036,16.103-13.521C143.873,431.905,138.586,427.359,129.249,427.359z"/>
		<path d="M197.986,427.845h-0.248c-1.237,4.915-2.463,11.186-3.808,15.989l-4.92,17.582h18.317l-5.163-17.582
			C200.686,438.914,199.217,432.771,197.986,427.845z"/>
		<path d="M475.095,131.992c-0.032-2.526-0.833-5.021-2.568-6.993L366.324,3.694c-0.021-0.034-0.053-0.045-0.084-0.076
			c-0.633-0.707-1.36-1.29-2.141-1.804c-0.232-0.15-0.465-0.285-0.707-0.422c-0.686-0.366-1.393-0.67-2.131-0.892
			c-0.2-0.058-0.379-0.14-0.58-0.192C359.87,0.114,359.047,0,358.203,0H97.2C85.292,0,75.6,9.693,75.6,21.601v507.6
			c0,11.913,9.692,21.601,21.6,21.601H453.6c11.918,0,21.601-9.688,21.601-21.601V133.202
			C475.2,132.796,475.137,132.398,475.095,131.992z M127.894,467.438c-2.458,0-4.677-0.11-6.399-0.363v29.631H102.93V414.94
			c5.771-0.985,13.888-1.724,25.32-1.724c11.562,0,19.796,2.215,25.331,6.645c5.287,4.176,8.846,11.063,8.846,19.174
			c0,8.121-2.7,15.008-7.615,19.686C148.418,464.738,138.947,467.438,127.894,467.438z M216.427,496.705l-6.399-21.272H186.3
			l-5.909,21.272h-19.417l25.331-82.872h24.593l25.698,82.872H216.427z M313.812,492.888c-5.774,1.962-16.717,4.672-27.653,4.672
			c-15.133,0-26.072-3.808-33.692-11.19c-7.625-7.124-11.81-17.945-11.681-30.121c0.124-27.538,20.16-43.274,47.334-43.274
			c10.695,0,18.932,2.089,22.992,4.05l-3.934,15.003c-4.551-1.967-10.204-3.569-19.301-3.569c-15.614,0-27.414,8.859-27.414,26.81
			c0,17.086,10.692,27.164,26.064,27.164c4.303,0,7.746-0.491,9.218-1.229v-17.339h-12.783v-14.628h30.86v43.653H313.812z
			 M381.333,496.705h-52.866v-82.866h51.142v15.366h-32.331v17.218h30.485v15.24h-30.485v19.676h34.061v15.366H381.333z
			 M414.418,497.935c-9.466,0-18.805-2.463-23.487-5.047l3.808-15.488c5.052,2.579,12.788,5.163,20.787,5.163
			c8.606,0,13.152-3.56,13.152-8.971c0-5.168-3.929-8.121-13.88-11.681c-13.774-4.799-22.749-12.419-22.749-24.469
			c0-14.144,11.802-24.959,31.351-24.959c9.35,0,16.231,1.967,21.146,4.182l-4.177,15.119c-3.317-1.598-9.224-3.939-17.339-3.939
			c-8.116,0-12.05,3.697-12.05,7.995c0,5.283,4.683,7.62,15.377,11.681c14.634,5.405,21.516,13.03,21.516,24.711
			C447.862,486.127,437.168,497.935,414.418,497.935z M97.2,366.752V21.601h250.203v110.515c0,5.961,4.831,10.8,10.8,10.8H453.6
			l0.011,223.836H97.2z"/>
	</g>
	<path d="M341.888,115.808h-12.551V97.659l-31.061-31.071H169.441v219.217h43.611v49.223h159.896V146.881L341.888,115.808z
		 M344.208,129.347l17.845,17.851h-17.845V129.347z M300.602,80.125l17.84,17.854h-17.84V80.125z M177.375,74.514h115.301v31.391
		h28.74v171.979H177.375V74.514z M365.017,327.102H220.978v-41.297h108.359V123.736h6.939v31.39h28.74V327.102L365.017,327.102z"/>
</g>
<g>
</g>
<g>
</g>
<g>
</g>
<g>
</g>
<g>
</g>
<g>
</g>
<g>
</g>
<g>
</g>
<g>
</g>
<g>
</g>
<g>
</g>
<g>
</g>
<g>
</g>
<g>
</g>
<g>
</g>
</svg>
