<?xml version="1.0" encoding="iso-8859-1"?>
<!-- Generator: Adobe Illustrator 16.0.0, SVG Export Plug-In . SVG Version: 6.00 Build 0)  -->
<!DOCTYPE svg PUBLIC "-//W3C//DTD SVG 1.1//EN" "http://www.w3.org/Graphics/SVG/1.1/DTD/svg11.dtd">
<svg version="1.1" id="Capa_1" xmlns="http://www.w3.org/2000/svg" xmlns:xlink="http://www.w3.org/1999/xlink" x="0px" y="0px"
	 width="550.801px" height="550.801px" viewBox="0 0 550.801 550.801" style="enable-background:new 0 0 550.801 550.801;"
	 xml:space="preserve">
<g>
	<g>
		<g>
			<path d="M160.445,412.773c-5.812,0-9.738,0.559-11.794,1.118v37.241c2.426,0.559,5.421,0.743,9.537,0.743
				c15.159,0,24.511-7.668,24.511-20.577C182.704,419.692,174.651,412.773,160.445,412.773z"/>
			<path d="M475.095,131.992c-0.031-2.526-0.833-5.023-2.568-6.993L366.319,3.694c-0.021-0.034-0.053-0.045-0.089-0.076
				c-0.628-0.707-1.361-1.292-2.136-1.804c-0.232-0.153-0.465-0.287-0.707-0.422c-0.686-0.366-1.393-0.67-2.136-0.892
				c-0.2-0.058-0.374-0.14-0.575-0.195C359.87,0.119,359.037,0,358.198,0H97.2c-11.907,0-21.6,9.693-21.6,21.601v507.6
				c0,11.913,9.692,21.601,21.6,21.601h356.4c11.918,0,21.6-9.688,21.6-21.601V133.202
				C475.2,132.796,475.137,132.398,475.095,131.992z M199.357,460.487c-9.727,9.16-24.134,13.278-40.975,13.278
				c-3.744,0-7.106-0.189-9.727-0.559v45.088h-28.253V393.884c8.786-1.497,21.146-2.615,38.552-2.615
				c17.582,0,30.108,3.364,38.527,10.104c8.058,6.354,13.479,16.833,13.479,29.184S206.84,453.368,199.357,460.487z
				 M293.642,496.584c8.611,0,18.146-1.872,23.757-4.118l4.303,22.274c-5.242,2.605-17.028,5.422-32.363,5.422
				c-43.59,0-66.042-27.127-66.042-63.05c0-43.042,30.694-66.983,68.853-66.983c14.782,0,26.004,2.996,31.061,5.611l-5.801,22.645
				c-5.801-2.437-13.848-4.684-23.957-4.684c-22.631,0-40.223,13.653-40.223,41.729
				C253.229,480.685,268.197,496.584,293.642,496.584z M430.408,416.138h-34.436v102.157h-28.614V416.138h-33.871v-23.952h96.915
				v23.952H430.408z M97.2,366.752V21.601h250.204v110.515c0,5.961,4.83,10.8,10.8,10.8h95.396l0.011,223.836H97.2z"/>
		</g>
		<path style="fill:#231F20;" d="M336.973,186.683c-0.189,0-0.369,0-0.563,0.005l-9.492-78.629L260.901,157.6h-107.12v114.9h114.895
			v-8.601c4.163,33.982,33.196,60.391,68.286,60.391c37.937,0,68.808-30.865,68.808-68.8
			C405.781,217.551,374.905,186.683,336.973,186.683z M159.182,267.105V163.005h94.469l-47.812,35.4l57.438,24.949v43.756H159.182
			V267.105z M268.677,225.698l5.358,2.328c-2.7,6.139-4.538,12.625-5.358,19.229V225.698z M336.973,318.896
			c-34.968,0-63.397-28.439-63.397-63.399c0-8.651,1.949-17.281,5.474-25.294l64.642,28.081l-7.557-66.161
			c0.284-0.013,0.564-0.039,0.838-0.039c34.969,0,63.408,28.447,63.408,63.407C400.381,290.451,371.936,318.896,336.973,318.896z"/>
	</g>
</g>
<g>
</g>
<g>
</g>
<g>
</g>
<g>
</g>
<g>
</g>
<g>
</g>
<g>
</g>
<g>
</g>
<g>
</g>
<g>
</g>
<g>
</g>
<g>
</g>
<g>
</g>
<g>
</g>
<g>
</g>
</svg>
