<?xml version="1.0" encoding="iso-8859-1"?>
<!-- Generator: Adobe Illustrator 16.0.0, SVG Export Plug-In . SVG Version: 6.00 Build 0)  -->
<!DOCTYPE svg PUBLIC "-//W3C//DTD SVG 1.1//EN" "http://www.w3.org/Graphics/SVG/1.1/DTD/svg11.dtd">
<svg version="1.1" id="Capa_1" xmlns="http://www.w3.org/2000/svg" xmlns:xlink="http://www.w3.org/1999/xlink" x="0px" y="0px"
	 width="550.801px" height="550.801px" viewBox="0 0 550.801 550.801" style="enable-background:new 0 0 550.801 550.801;"
	 xml:space="preserve">
<g>
	<g>
		<path d="M413.612,427.201c0-9.798-7.488-14.981-20.746-14.981c-6.339,0-9.982,0.374-12.482,0.765v30.164h9.598
			C405.349,443.148,413.612,436.81,413.612,427.201z"/>
		<path d="M147.188,412.984c-5.957,0-9.991,0.575-12.1,1.149v38.232c2.495,0.575,5.566,0.765,9.79,0.765
			c15.557,0,25.167-7.873,25.167-21.131C170.05,420.093,161.79,412.984,147.188,412.984z"/>
		<path d="M260.324,413.364c-6.523,0-10.758,0.569-13.252,1.154v84.718c2.495,0.57,6.529,0.57,10.181,0.57
			c26.507,0.194,43.799-14.396,43.799-45.342C301.245,427.581,285.494,413.364,260.324,413.364z"/>
		<path d="M390.372,464.084h-9.988v36.492c2.88,0.391,6.339,0.391,11.338,0.391c13.258,0,24.97-5,24.97-18.637
			C416.687,469.263,404.974,464.084,390.372,464.084z"/>
		<path d="M475.095,131.997c-0.031-2.526-0.828-5.021-2.562-6.992L366.325,3.694c-0.021-0.034-0.053-0.045-0.085-0.076
			c-0.633-0.707-1.36-1.29-2.141-1.804c-0.232-0.15-0.464-0.287-0.707-0.422c-0.686-0.366-1.392-0.67-2.13-0.892
			c-0.2-0.058-0.38-0.14-0.58-0.192C359.87,0.119,359.048,0,358.204,0H97.2c-11.907,0-21.6,9.693-21.6,21.601v507.6
			c0,11.913,9.692,21.601,21.6,21.601h356.4c11.918,0,21.6-9.688,21.6-21.601V133.207
			C475.2,132.796,475.137,132.398,475.095,131.997z M187.142,461.97c-9.988,9.407-24.78,13.632-42.071,13.632
			c-3.839,0-7.301-0.19-9.983-0.57v46.296h-29.014V393.578c9.028-1.529,21.713-2.685,39.577-2.685
			c18.056,0,30.923,3.454,39.569,10.373c8.264,6.528,13.835,17.286,13.835,29.964C199.054,443.918,194.828,454.666,187.142,461.97z
			 M310.658,505.966c-13.642,11.327-34.388,16.711-59.748,16.711c-15.18,0-25.93-0.965-33.236-1.925V393.583
			c10.76-1.724,24.78-2.684,39.577-2.684c24.582,0,40.539,4.414,53.017,13.827c13.447,9.993,21.896,25.939,21.896,48.8
			C332.169,478.291,323.141,495.397,310.658,505.966z M433.973,510.954c-9.413,7.494-25.159,11.723-50.91,11.723
			c-14.396,0-25.164-0.965-31.693-1.925V393.583c7.689-1.534,23.24-2.684,37.848-2.684c17.861,0,28.809,1.725,38.228,7.298
			c9.028,4.805,15.557,13.638,15.557,25.355c0,11.527-6.724,22.285-21.32,27.664v0.38c14.792,4.039,25.739,15.177,25.739,31.883
			C447.431,495.202,442.041,504.426,433.973,510.954z M97.2,366.758V21.605h250.204v110.516c0,5.962,4.83,10.8,10.8,10.8h95.396
			l0.011,223.837H97.2z"/>
		<path d="M356.464,174.847h-46.333v-3.407c0-3.056-0.886-6.162-2.668-9.218l-0.232-0.39c1.846-3.006,2.9-6.188,2.9-9.502v-21.513
			c0-2.911-0.812-5.877-2.415-8.809l-0.189-0.34c0.479-1.305,0.812-2.645,0.812-4.071c0-17.382-37.565-26.769-72.921-26.769
			c-35.318,0-72.876,9.387-72.876,26.769c0,1.426,0.33,2.766,0.81,4.071l-0.19,0.34c-1.614,2.932-2.413,5.898-2.413,8.809v21.513
			c0,3.309,1.042,6.483,2.887,9.492l-0.243,0.411c-1.759,3.056-2.645,6.151-2.645,9.207v21.514c0,3.206,0.98,6.275,2.731,9.207
			l-0.087,0.135c-1.759,3.045-2.645,6.151-2.645,9.196v21.514c0,19.11,32.798,34.09,74.669,34.09c9.295,0,18.096-0.778,26.235-2.128
			v66.269h118.721V199.405L356.464,174.847z M358.024,184.188l13.917,14.288h-13.917V184.188z M261.652,256.888
			c-7.907,1.405-16.709,2.221-26.235,2.221c-39.295,0-66.677-13.753-66.677-26.093v-20.24
			c12.263,11.232,37.492,18.404,66.677,18.404c9.269,0,18.059-0.793,26.235-2.138V256.888z M261.652,216.831
			c-7.907,1.405-16.709,2.22-26.235,2.22c-39.295,0-66.677-13.753-66.677-26.093v-20.239c12.263,11.232,37.492,18.404,66.677,18.404
			c9.269,0,18.059-0.794,26.235-2.139V216.831z M261.652,175.717v0.485c-7.907,1.4-16.709,2.215-26.235,2.215
			c-39.295,0-66.677-13.745-66.677-26.083v-17.906c11.981,10.157,39.77,15.417,66.677,15.417c26.947,0,54.718-5.265,66.709-15.417
			v17.906c0,8.493-13.02,17.643-33.961,22.518h-6.513V175.717z M302.126,172.708v2.139h-2.7
			C300.386,174.155,301.314,173.454,302.126,172.708z M374.974,325.846H267.053v-145.6h85.572v23.631h22.359v121.969H374.974z"/>
		<polygon points="280.502,263.865 308.338,280.441 308.338,272.561 287.287,260.743 287.287,260.593 308.338,248.777 
			308.338,240.899 280.502,257.474 		"/>
		<polygon points="312.631,283.416 318.495,283.416 330.898,229.526 325.045,229.526 		"/>
		<polygon points="334.263,248.777 355.772,260.593 355.772,260.743 334.263,272.561 334.263,280.441 362.096,264.086 
			362.096,257.252 334.263,240.899 		"/>
	</g>
</g>
<g>
</g>
<g>
</g>
<g>
</g>
<g>
</g>
<g>
</g>
<g>
</g>
<g>
</g>
<g>
</g>
<g>
</g>
<g>
</g>
<g>
</g>
<g>
</g>
<g>
</g>
<g>
</g>
<g>
</g>
</svg>
