<?xml version="1.0" encoding="iso-8859-1"?>
<!-- Generator: Adobe Illustrator 16.0.0, SVG Export Plug-In . SVG Version: 6.00 Build 0)  -->
<!DOCTYPE svg PUBLIC "-//W3C//DTD SVG 1.1//EN" "http://www.w3.org/Graphics/SVG/1.1/DTD/svg11.dtd">
<svg version="1.1" id="Capa_1" xmlns="http://www.w3.org/2000/svg" xmlns:xlink="http://www.w3.org/1999/xlink" x="0px" y="0px"
	 width="550.801px" height="550.801px" viewBox="0 0 550.801 550.801" style="enable-background:new 0 0 550.801 550.801;"
	 xml:space="preserve">
<g>
	<g>
		<g>
			<path d="M190.917,406.841c-6.172,0-10.346,0.602-12.527,1.197v39.571c2.586,0.591,5.767,0.786,10.136,0.786
				c16.102,0,26.048-8.147,26.048-21.869C214.568,414.197,206.015,406.841,190.917,406.841z"/>
			<path d="M475.095,131.992c-0.031-2.526-0.828-5.023-2.562-6.993L366.325,3.694c-0.021-0.034-0.053-0.045-0.085-0.076
				c-0.633-0.707-1.36-1.29-2.141-1.804c-0.232-0.15-0.464-0.285-0.707-0.422c-0.686-0.366-1.392-0.67-2.13-0.892
				c-0.2-0.058-0.38-0.14-0.58-0.192C359.87,0.119,359.048,0,358.204,0H97.2c-11.907,0-21.6,9.693-21.6,21.601v507.6
				c0,11.913,9.692,21.601,21.6,21.601h356.4c11.918,0,21.6-9.688,21.6-21.601V133.202
				C475.2,132.796,475.137,132.398,475.095,131.992z M232.269,457.545c-10.333,9.745-25.65,14.117-43.545,14.117
				c-3.974,0-7.549-0.195-10.333-0.596v47.914h-30.03V386.76c9.342-1.588,22.473-2.779,40.964-2.779
				c18.689,0,32.01,3.575,40.954,10.731c8.554,6.755,14.32,17.893,14.32,31.013C244.598,438.855,240.219,449.988,232.269,457.545z
				 M294.295,518.98h-30.43V384.972h30.43V518.98z M402.438,409.831h-51.49v30.617h48.115v24.648h-48.115v53.884H320.53V384.972
				h81.918v24.859H402.438z M97.2,366.752V21.601h250.204v110.515c0,5.961,4.83,10.8,10.8,10.8h95.396l0.011,223.836H97.2z"/>
		</g>
		<g>
			<path d="M268.748,88.847c-64.84,0-117.584,52.75-117.584,117.584c0,64.832,52.745,117.584,117.584,117.584
				s117.584-52.752,117.584-117.584C386.332,141.598,333.588,88.847,268.748,88.847z M268.748,303.392
				c-53.454,0-96.952-43.495-96.952-96.955s43.493-96.952,96.952-96.952c53.459,0,96.955,43.493,96.955,96.952
				S322.207,303.392,268.748,303.392z"/>
			<rect x="252.946" y="177.169" width="31.608" height="104.612"/>
			<path d="M269.6,131.085c-10.589,0-19.206,8.614-19.206,19.203c0,10.594,8.617,19.211,19.206,19.211s19.206-8.617,19.206-19.211
				C288.806,139.699,280.188,131.085,269.6,131.085z"/>
		</g>
	</g>
</g>
<g>
</g>
<g>
</g>
<g>
</g>
<g>
</g>
<g>
</g>
<g>
</g>
<g>
</g>
<g>
</g>
<g>
</g>
<g>
</g>
<g>
</g>
<g>
</g>
<g>
</g>
<g>
</g>
<g>
</g>
</svg>
