<?xml version="1.0" encoding="iso-8859-1"?>
<!-- Generator: Adobe Illustrator 16.0.0, SVG Export Plug-In . SVG Version: 6.00 Build 0)  -->
<!DOCTYPE svg PUBLIC "-//W3C//DTD SVG 1.1//EN" "http://www.w3.org/Graphics/SVG/1.1/DTD/svg11.dtd">
<svg version="1.1" id="Capa_1" xmlns="http://www.w3.org/2000/svg" xmlns:xlink="http://www.w3.org/1999/xlink" x="0px" y="0px"
	 width="550.801px" height="550.801px" viewBox="0 0 550.801 550.801" style="enable-background:new 0 0 550.801 550.801;"
	 xml:space="preserve">
<g>
	<g>
		<g>
			<path d="M475.095,131.992c-0.032-2.526-0.833-5.021-2.568-6.993L366.324,3.694c-0.021-0.034-0.053-0.045-0.084-0.076
				c-0.633-0.707-1.36-1.29-2.141-1.804c-0.232-0.15-0.465-0.285-0.707-0.422c-0.686-0.366-1.393-0.67-2.131-0.892
				c-0.2-0.058-0.379-0.14-0.58-0.192C359.87,0.114,359.047,0,358.203,0H97.2C85.292,0,75.6,9.693,75.6,21.601v507.6
				c0,11.913,9.692,21.601,21.6,21.601H453.6c11.918,0,21.601-9.688,21.601-21.601V133.202
				C475.2,132.796,475.137,132.398,475.095,131.992z M260.938,462.755c-9.508,8.954-23.596,12.983-40.057,12.983
				c-3.66,0-6.948-0.18-9.514-0.554v44.086h-27.622V397.634c8.598-1.461,20.672-2.563,37.681-2.563
				c17.194,0,29.452,3.296,37.681,9.877c7.868,6.223,13.171,16.464,13.171,28.54C272.278,445.559,268.254,455.8,260.938,462.755z
				 M367.053,519.275h-77.014V395.988h27.991v99.873h49.022V519.275z M97.2,366.752V21.601h250.203v110.515
				c0,5.961,4.831,10.8,10.8,10.8H453.6l0.011,223.836H97.2z"/>
			<path d="M222.89,416.106c-5.669,0-9.508,0.554-11.522,1.097v36.402c2.376,0.554,5.303,0.733,9.332,0.733
				c14.816,0,23.965-7.499,23.965-20.124C244.664,422.877,236.796,416.106,222.89,416.106z"/>
		</g>
		<g>
			<path d="M347.577,236.11l11.386-38.042c0.391-1.313,0.464-2.637,0.295-3.916l2.938-9.039c0.454-1.493-0.158-2.837-1.255-3.955
				c0.153-0.285,0.354-0.517,0.459-0.835c0.717-2.284-0.569-4.715-2.858-5.432l-3.85-1.211c-2.278-0.696-4.725,0.567-5.437,2.851
				c-0.069,0.227-0.043,0.459-0.074,0.686c-1.419,0.216-2.568,0.823-3.001,2.23l-2.679,9.39c-1.055,1.055-1.909,2.352-2.362,3.889
				l-11.391,38.042c-0.596,1.973-0.475,3.977,0.169,5.78l-15.504,54.414c-1.018,3.359-2.985,18.283,0.38,19.312
				c3.364,1.018,10.768-12.229,11.791-15.594l17.45-53.704C345.674,239.831,346.955,238.173,347.577,236.11z"/>
			<path d="M147.073,127.657L284.212,76.56l44.951,120.648c0.616-1.561,1.36-3.061,2.356-4.432l2.047-7.167
				c0.4-1.297,0.985-2.468,1.671-3.549L290.672,62.451l-157.713,58.751l76.497,205.309l93.936-35.005l3.733-13.1l-91.228,33.992
				L147.073,127.657z"/>
			<path d="M357.776,242.562l-1.745,5.854c-0.896,2.982-2.437,5.653-4.515,7.895l-0.158,0.464l1.693,4.522l-3.592,1.336
				l-4.329,13.326l22.037-8.21L357.776,242.562z"/>
			<path d="M271.289,186.97c0.937-1.041,2.173-1.663,3.507-1.756l0.931-0.058l1.076,0.34c0.849,0.309,1.54,0.232,2.141-0.076
				c0.644-0.319,1.15-0.907,1.361-1.572c0.611-1.922,2.251-3.241,4.208-3.499l-0.243-3.673c-0.031-0.382-0.311-0.728-0.675-0.852
				c-3.997-1.258-7.335-4.126-9.188-7.868c-1.856-3.752-2.112-8.172-0.691-12.103c0.13-0.356,0.026-0.783-0.258-1.031l-8.883-7.765
				c-0.493-0.432-0.81-0.258-1.076-0.124c-3.67,1.922-8.1,2.278-12.063,0.923c-3.958-1.329-7.245-4.277-9.033-8.066
				c-0.163-0.34-0.535-0.562-0.931-0.535l-11.754,0.789c-0.39,0.016-0.73,0.29-0.849,0.649c-1.252,3.994-4.129,7.348-7.873,9.194
				c-3.731,1.864-8.169,2.112-12.1,0.675c-0.243-0.074-0.601-0.206-1.036,0.282l-7.765,8.877c-0.256,0.295-0.309,0.728-0.119,1.068
				c1.927,3.71,2.273,8.105,0.933,12.068c-1.339,3.96-4.276,7.248-8.073,9.031c-0.351,0.161-0.567,0.53-0.551,0.928l0.789,11.772
				c0.021,0.383,0.287,0.712,0.659,0.836c3.997,1.258,7.338,4.132,9.202,7.874c1.846,3.742,2.093,8.171,0.664,12.103
				c-0.118,0.361-0.021,0.783,0.274,1.031l8.883,7.776c0.493,0.422,0.815,0.248,1.065,0.113c1.888-0.989,3.953-1.566,6.102-1.711
				c2.041-0.129,4.05,0.119,5.972,0.789c3.963,1.339,7.251,4.271,9.033,8.061c0.164,0.345,0.541,0.562,0.928,0.541l11.757-0.783
				c0.401-0.026,0.736-0.29,0.85-0.651c1.263-3.997,4.124-7.346,7.878-9.197c3.655-1.803,7.921-2.081,11.755-0.793
				c0.021-0.493,0.113-1,0.287-1.479c0.259-0.698,0.216-1.466-0.103-2.102c-0.314-0.617-0.892-1.118-1.571-1.329
				c-2.041-0.669-3.436-2.452-3.57-4.564l-0.367-5.571c-0.147-2.107,1-4.056,2.898-4.973c0.675-0.325,1.194-0.891,1.416-1.556
				c0.221-0.665,0.161-1.432-0.156-2.046c-0.973-1.885-0.686-4.185,0.686-5.767L271.289,186.97z M240.187,208.499
				c-12.614,0.838-23.554-8.741-24.397-21.355c-0.847-12.611,8.728-23.572,21.347-24.416c12.625-0.841,23.57,8.749,24.414,21.363
				C262.391,196.705,252.812,207.658,240.187,208.499z"/>
			<path d="M309.234,201.021c-1.888-0.599-3.476-1.962-4.351-3.731c-0.881-1.782-0.997-3.868-0.332-5.734
				c0.073-0.169,0.011-0.367-0.116-0.493l-4.197-3.681c-0.243-0.206-0.401-0.113-0.518-0.066c-1.729,0.912-3.85,1.086-5.727,0.448
				c-1.877-0.638-3.438-2.03-4.282-3.828c-0.073-0.161-0.242-0.27-0.433-0.259l-5.568,0.377c-0.185,0.016-0.348,0.135-0.396,0.309
				c-0.596,1.891-1.956,3.488-3.729,4.364c-1.767,0.878-3.87,0.997-5.732,0.316c-0.118-0.037-0.295-0.1-0.495,0.132l-3.689,4.195
				c-0.113,0.14-0.145,0.356-0.063,0.517c0.923,1.756,1.073,3.841,0.445,5.719c-0.636,1.88-2.025,3.436-3.815,4.276
				c-0.169,0.077-0.282,0.253-0.271,0.443l0.372,5.574c0.013,0.182,0.137,0.34,0.319,0.393c1.89,0.601,3.483,1.962,4.353,3.73
				c0.881,1.772,1.01,3.868,0.335,5.735c-0.065,0.174-0.011,0.364,0.118,0.493l4.211,3.686c0.232,0.201,0.38,0.116,0.507,0.056
				c0.886-0.464,1.872-0.746,2.89-0.81c0.96-0.065,1.914,0.068,2.821,0.372c1.877,0.627,3.443,2.03,4.282,3.823
				c0.073,0.169,0.258,0.266,0.438,0.253l5.568-0.372c0.18-0.01,0.343-0.129,0.401-0.303c0.596-1.901,1.951-3.488,3.729-4.361
				c1.771-0.881,3.87-0.994,5.742-0.324c0.116,0.042,0.285,0.098,0.485-0.119l3.681-4.213c0.116-0.135,0.138-0.34,0.063-0.506
				c-0.918-1.756-1.086-3.847-0.443-5.724c0.633-1.886,2.025-3.436,3.829-4.277c0.158-0.087,0.264-0.253,0.264-0.438l-0.375-5.574
				C309.54,201.237,309.414,201.068,309.234,201.021z M288.668,216.496c-5.97,0.406-11.158-4.14-11.56-10.12
				c-0.396-5.967,4.135-11.166,10.114-11.569c5.976-0.385,11.159,4.15,11.565,10.13
				C299.193,210.914,294.648,216.104,288.668,216.496z"/>
		</g>
	</g>
</g>
<g>
</g>
<g>
</g>
<g>
</g>
<g>
</g>
<g>
</g>
<g>
</g>
<g>
</g>
<g>
</g>
<g>
</g>
<g>
</g>
<g>
</g>
<g>
</g>
<g>
</g>
<g>
</g>
<g>
</g>
</svg>
