<?xml version="1.0" encoding="iso-8859-1"?>
<!-- Generator: Adobe Illustrator 16.0.0, SVG Export Plug-In . SVG Version: 6.00 Build 0)  -->
<!DOCTYPE svg PUBLIC "-//W3C//DTD SVG 1.1//EN" "http://www.w3.org/Graphics/SVG/1.1/DTD/svg11.dtd">
<svg version="1.1" id="Capa_1" xmlns="http://www.w3.org/2000/svg" xmlns:xlink="http://www.w3.org/1999/xlink" x="0px" y="0px"
	 width="550.801px" height="550.801px" viewBox="0 0 550.801 550.801" style="enable-background:new 0 0 550.801 550.801;"
	 xml:space="preserve">
<g>
	<g>
		<path d="M175.975,416.338c-5.463,0-9.168,0.533-11.114,1.055v35.105c2.296,0.533,5.115,0.712,8.997,0.712
			c14.288,0,23.113-7.235,23.113-19.411C196.976,422.867,189.382,416.338,175.975,416.338z"/>
		<path d="M278.49,416.338c-5.466,0-9.17,0.533-11.114,1.055v35.105c2.294,0.533,5.113,0.712,8.994,0.712
			c14.291,0,23.113-7.235,23.113-19.411C299.489,422.867,291.906,416.338,278.49,416.338z"/>
		<path d="M475.095,132c-0.032-2.529-0.833-5.023-2.568-6.993L366.324,3.694c-0.021-0.031-0.053-0.042-0.084-0.076
			c-0.633-0.707-1.36-1.29-2.141-1.804c-0.232-0.15-0.465-0.285-0.707-0.419c-0.686-0.369-1.393-0.67-2.131-0.892
			c-0.2-0.061-0.379-0.14-0.58-0.195C359.87,0.119,359.047,0,358.203,0H97.2C85.292,0,75.6,9.693,75.6,21.601v507.6
			c0,11.913,9.692,21.601,21.6,21.601H453.6c11.918,0,21.601-9.688,21.601-21.601V133.207
			C475.2,132.804,475.137,132.398,475.095,132z M212.667,461.331c-9.168,8.644-22.755,12.52-38.63,12.52
			c-3.52,0-6.703-0.169-9.17-0.527v42.515H138.23V398.524c8.287-1.413,19.931-2.468,36.336-2.468
			c16.588,0,28.403,3.175,36.342,9.529c7.581,5.996,12.701,15.878,12.701,27.517C223.604,444.741,219.721,454.623,212.667,461.331z
			 M315.183,461.331c-9.17,8.644-22.76,12.52-38.633,12.52c-3.521,0-6.7-0.169-9.168-0.527v42.515h-26.639V398.524
			c8.29-1.413,19.931-2.468,36.334-2.468c16.59,0,28.402,3.175,36.345,9.529c7.583,5.996,12.698,15.878,12.698,27.517
			S322.238,454.623,315.183,461.331z M372.357,517.599c-13.574,0-26.984-3.527-33.687-7.235l5.463-22.222
			c7.235,3.702,18.352,7.403,29.816,7.403c12.351,0,18.879-5.109,18.879-12.877c0-7.404-5.653-11.645-19.934-16.76
			c-19.755-6.882-32.643-17.824-32.643-35.104c0-20.298,16.938-35.812,44.993-35.812c13.404,0,23.276,2.816,30.332,5.991
			l-5.99,21.705c-4.768-2.299-13.236-5.653-24.875-5.653c-11.644,0-17.286,5.295-17.286,11.476c0,7.583,6.708,10.932,22.054,16.759
			c20.993,7.763,30.87,18.699,30.87,35.458C420.346,500.671,405,517.599,372.357,517.599z M97.2,366.758V21.605h250.203v110.519
			c0,5.961,4.831,10.8,10.8,10.8H453.6l0.011,223.834H97.2z"/>
		<path d="M241.273,102.914c-51.511,3.483-92.249,46.256-92.249,98.658c0,12.237,2.326,23.904,6.387,34.723l85.862-37.655V102.914z"
			/>
		<path d="M328.83,258.634l-81.255-50.971l-87.842,38.53c16.324,32.234,49.684,54.377,88.291,54.377
			C281.422,300.57,310.9,283.975,328.83,258.634z"/>
		<path d="M348.965,200.356c0-53.309-42.167-96.648-94.949-98.792v94.958l82.54,51.78
			C344.439,234.091,348.965,217.762,348.965,200.356z"/>
		<path d="M415.905,197.182c-2.446-1.87-5.964-1.437-7.857,1.004c-0.174,0.237-0.242,0.535-0.385,0.794
			c-1.804-0.383-3.465-0.161-4.625,1.334l-7.451,10.136c-1.745,0.799-3.349,1.975-4.604,3.623l-30.85,40.787
			c-1.604,2.114-2.357,4.588-2.384,7.051l-43.174,58.698c-2.742,3.592-11.817,20.714-8.221,23.473
			c3.596,2.742,18.488-9.914,21.235-13.511l45.204-56.964c2.484-0.659,4.783-2.078,6.46-4.293l30.85-40.784
			c1.065-1.405,1.74-2.972,2.109-4.591l7.609-9.584c1.219-1.592,1.081-3.488,0.264-5.336c0.312-0.27,0.659-0.464,0.929-0.799
			c1.893-2.434,1.439-5.951-1.008-7.839L415.905,197.182z"/>
	</g>
</g>
<g>
</g>
<g>
</g>
<g>
</g>
<g>
</g>
<g>
</g>
<g>
</g>
<g>
</g>
<g>
</g>
<g>
</g>
<g>
</g>
<g>
</g>
<g>
</g>
<g>
</g>
<g>
</g>
<g>
</g>
</svg>
