<?xml version="1.0" encoding="iso-8859-1"?>
<!-- Generator: Adobe Illustrator 16.0.0, SVG Export Plug-In . SVG Version: 6.00 Build 0)  -->
<!DOCTYPE svg PUBLIC "-//W3C//DTD SVG 1.1//EN" "http://www.w3.org/Graphics/SVG/1.1/DTD/svg11.dtd">
<svg version="1.1" id="Capa_1" xmlns="http://www.w3.org/2000/svg" xmlns:xlink="http://www.w3.org/1999/xlink" x="0px" y="0px"
	 width="548.291px" height="548.291px" viewBox="0 0 548.291 548.291" style="enable-background:new 0 0 548.291 548.291;"
	 xml:space="preserve">
<g>
	<g>
		<path d="M271.447,413.066c-5.995,0-10.058,0.577-12.192,1.155v38.51c2.523,0.577,5.617,0.776,9.87,0.776
			c15.676,0,25.347-7.938,25.347-21.286C294.471,420.22,286.156,413.066,271.447,413.066z"/>
		<path d="M159.015,413.066c-5.995,0-10.058,0.577-12.191,1.155v38.51c2.522,0.577,5.616,0.776,9.869,0.776
			c15.675,0,25.347-7.938,25.347-21.286C182.039,420.22,173.721,413.066,159.015,413.066z"/>
		<path d="M472.929,131.39c-0.031-2.514-0.839-4.997-2.566-6.96L364.656,3.677c-0.031-0.034-0.062-0.044-0.084-0.075
			c-0.63-0.704-1.365-1.284-2.142-1.796c-0.231-0.149-0.463-0.283-0.704-0.419c-0.672-0.365-1.376-0.667-2.121-0.888
			c-0.2-0.058-0.377-0.139-0.577-0.191C358.231,0.113,357.4,0,356.561,0H96.757C84.904,0,75.255,9.649,75.255,21.502V526.79
			c0,11.858,9.649,21.501,21.502,21.501h354.775c11.853,0,21.503-9.643,21.503-21.501V132.595
			C473.036,132.191,472.971,131.795,472.929,131.39z M199.265,462.4c-10.068,9.481-24.969,13.743-42.383,13.743
			c-3.867,0-7.35-0.2-10.058-0.582v46.63h-29.221V393.517c9.088-1.543,21.866-2.709,39.863-2.709
			c18.185,0,31.15,3.487,39.854,10.447c8.326,6.583,13.932,17.412,13.932,30.184C211.251,444.216,207.004,455.05,199.265,462.4z
			 M311.7,462.4c-10.068,9.481-24.973,13.743-42.387,13.743c-3.866,0-7.349-0.2-10.058-0.582v46.63h-29.22V393.517
			c9.089-1.543,21.866-2.709,39.864-2.709c18.185,0,31.151,3.487,39.854,10.447c8.326,6.583,13.933,17.412,13.933,30.184
			C323.684,444.216,319.438,455.05,311.7,462.4z M432.834,416.546h-35.601v105.645h-29.607V416.546h-35.029v-24.768h100.228v24.768
			H432.834z M96.757,365.081V21.502H345.81v110.011c0,5.935,4.819,10.751,10.751,10.751h94.972v222.816H96.757z"/>
		<path d="M257.422,139.674c-48.614,0-88.011,39.407-88.011,88.017c0,48.606,39.396,88.008,88.011,88.008
			c48.607,0,88.011-39.402,88.011-88.008h-88.011V139.674z"/>
		<path d="M269.36,213.801v0.026h88.019c0-24.758-10.269-47.092-26.72-63.084L269.36,213.801z"/>
		<path d="M268.436,198.336l62.224-62.231c-17.501-17.507-39.339-26.048-62.289-25.72l0.044,87.93L268.436,198.336z"/>
	</g>
</g>
<g>
</g>
<g>
</g>
<g>
</g>
<g>
</g>
<g>
</g>
<g>
</g>
<g>
</g>
<g>
</g>
<g>
</g>
<g>
</g>
<g>
</g>
<g>
</g>
<g>
</g>
<g>
</g>
<g>
</g>
</svg>
