<?xml version="1.0" encoding="iso-8859-1"?>
<!-- Generator: Adobe Illustrator 16.0.0, SVG Export Plug-In . SVG Version: 6.00 Build 0)  -->
<!DOCTYPE svg PUBLIC "-//W3C//DTD SVG 1.1//EN" "http://www.w3.org/Graphics/SVG/1.1/DTD/svg11.dtd">
<svg version="1.1" id="Capa_1" xmlns="http://www.w3.org/2000/svg" xmlns:xlink="http://www.w3.org/1999/xlink" x="0px" y="0px"
	 width="550.801px" height="550.801px" viewBox="0 0 550.801 550.801" style="enable-background:new 0 0 550.801 550.801;"
	 xml:space="preserve">
<g>
	<g>
		<path d="M475.095,132c-0.032-2.529-0.833-5.023-2.568-6.995L366.324,3.694c-0.021-0.031-0.053-0.042-0.084-0.076
			c-0.633-0.707-1.36-1.29-2.141-1.804c-0.232-0.15-0.465-0.285-0.707-0.419c-0.686-0.369-1.393-0.67-2.131-0.892
			c-0.2-0.061-0.379-0.14-0.58-0.195C359.87,0.119,359.047,0,358.203,0H97.2C85.292,0,75.6,9.693,75.6,21.601v507.6
			c0,11.913,9.692,21.601,21.6,21.601H453.6c11.918,0,21.601-9.688,21.601-21.601V133.207
			C475.2,132.804,475.137,132.398,475.095,132z M175.046,463.014c-7.533,7.093-18.673,10.277-31.693,10.277
			c-2.892,0-5.508-0.147-7.533-0.442v34.878h-21.848v-96.229c6.805-1.16,16.35-2.03,29.813-2.03c13.608,0,23.295,2.6,29.813,7.811
			c6.215,4.925,10.418,13.025,10.418,22.58C184.017,449.413,180.829,457.514,175.046,463.014z M259.14,463.014
			c-7.525,7.093-18.674,10.277-31.691,10.277c-2.895,0-5.503-0.147-7.528-0.442v34.878h-21.848v-96.229
			c6.803-1.16,16.35-2.03,29.813-2.03c13.608,0,23.301,2.6,29.813,7.811c6.22,4.925,10.415,13.025,10.415,22.58
			C268.115,449.413,264.935,457.514,259.14,463.014z M349.756,428.721h-26.631v79.006h-22.148v-79.006h-26.191v-18.526h74.971
			V428.721z M415.463,507.727l-8.828-17.655c-3.612-6.803-5.933-11.865-8.68-17.508h-0.285c-2.035,5.643-4.493,10.705-7.53,17.508
			l-8.11,17.655h-25.176l28.224-49.349l-27.211-48.184h25.323l8.537,17.798c2.896,5.938,5.068,10.711,7.383,16.211h0.29
			c2.32-6.223,4.198-10.568,6.655-16.211l8.248-17.798h25.186l-27.501,47.614l28.936,49.918H415.463z M97.2,366.758V21.605h250.203
			v110.519c0,5.961,4.831,10.8,10.8,10.8H453.6l0.011,223.834H97.2z"/>
		<path d="M144.946,426.11c-4.485,0-7.533,0.438-9.121,0.87v28.798c1.885,0.438,4.198,0.575,7.383,0.575
			c11.723,0,18.966-5.933,18.966-15.916C162.166,431.463,155.941,426.11,144.946,426.11z"/>
		<path d="M229.041,426.11c-4.487,0-7.527,0.438-9.115,0.87v28.798c1.886,0.438,4.195,0.575,7.375,0.575
			c11.731,0,18.966-5.933,18.966-15.916C246.262,431.463,240.036,426.11,229.041,426.11z"/>
	</g>
	<g>
		<path d="M199.682,120.021c-51.511,3.482-92.249,46.256-92.249,98.658c0,12.237,2.328,23.905,6.389,34.723l85.86-37.655V120.021z"
			/>
		<path d="M118.141,263.301c16.324,32.233,49.687,54.377,88.291,54.377c33.404,0,62.883-16.596,80.812-41.939l-81.261-50.968
			L118.141,263.301z"/>
		<path d="M212.425,118.671v94.959l82.54,51.78c7.884-14.212,12.408-30.542,12.408-47.946
			C307.373,164.154,265.204,120.814,212.425,118.671z"/>
		<rect x="325.804" y="175.922" width="108" height="16.119"/>
		<rect x="325.804" y="216.958" width="108" height="16.118"/>
		<rect x="325.804" y="257.35" width="108" height="16.118"/>
	</g>
</g>
<g>
</g>
<g>
</g>
<g>
</g>
<g>
</g>
<g>
</g>
<g>
</g>
<g>
</g>
<g>
</g>
<g>
</g>
<g>
</g>
<g>
</g>
<g>
</g>
<g>
</g>
<g>
</g>
<g>
</g>
</svg>
