<?xml version="1.0" encoding="iso-8859-1"?>
<!-- Generator: Adobe Illustrator 16.0.0, SVG Export Plug-In . SVG Version: 6.00 Build 0)  -->
<!DOCTYPE svg PUBLIC "-//W3C//DTD SVG 1.1//EN" "http://www.w3.org/Graphics/SVG/1.1/DTD/svg11.dtd">
<svg version="1.1" id="Capa_1" xmlns="http://www.w3.org/2000/svg" xmlns:xlink="http://www.w3.org/1999/xlink" x="0px" y="0px"
	 width="548.291px" height="548.291px" viewBox="0 0 548.291 548.291" style="enable-background:new 0 0 548.291 548.291;"
	 xml:space="preserve">
<g>
	<g>
		<path d="M217.052,404.647c-5.993,0-10.058,0.582-12.191,1.164v38.499c2.521,0.589,5.617,0.776,9.868,0.776
			c15.675,0,25.357-7.926,25.357-21.279C240.086,411.806,231.761,404.647,217.052,404.647z"/>
		<path d="M472.918,131.385c-0.021-2.514-0.823-4.992-2.55-6.96L364.656,3.667c-0.031-0.029-0.062-0.044-0.084-0.07
			c-0.63-0.709-1.365-1.284-2.142-1.795c-0.231-0.149-0.463-0.29-0.704-0.42c-0.672-0.37-1.387-0.667-2.121-0.888
			c-0.2-0.058-0.377-0.144-0.577-0.186C358.231,0.113,357.4,0,356.561,0H96.757C84.893,0,75.255,9.644,75.255,21.502V526.79
			c0,11.854,9.638,21.501,21.502,21.501h354.775c11.853,0,21.503-9.647,21.503-21.501v-394.2
			C473.036,132.186,472.971,131.79,472.918,131.385z M257.304,453.991c-10.068,9.481-24.968,13.732-42.375,13.732
			c-3.875,0-7.357-0.189-10.068-0.571v46.636H175.64v-128.68c9.102-1.543,21.869-2.709,39.864-2.709
			c18.187,0,31.153,3.485,39.864,10.447c8.318,6.581,13.923,17.416,13.923,30.184C269.297,435.807,265.044,446.641,257.304,453.991z
			 M320.004,515.712c-14.898,0-29.597-3.878-36.957-7.941l6.007-24.378c7.926,4.067,20.115,8.131,32.692,8.131
			c13.543,0,20.703-5.606,20.703-14.121c0-8.132-6.194-12.767-21.858-18.384c-21.669-7.549-35.801-19.543-35.801-38.5
			c0-22.261,18.572-39.291,49.349-39.291c14.693,0,25.533,3.098,33.267,6.588l-6.572,23.801c-5.229-2.519-14.51-6.193-27.286-6.193
			c-12.767,0-18.961,5.805-18.961,12.577c0,8.325,7.36,12,24.188,18.384c23.024,8.515,33.864,20.505,33.864,38.888
			C372.633,497.141,355.805,515.712,320.004,515.712z M96.757,365.076V21.502H345.81v110.006c0,5.935,4.819,10.751,10.751,10.751
			h94.972v222.816H96.757z"/>
		<path d="M267.261,186.216c-17.229,0-31.25,14.013-31.25,31.247c0,17.234,14.016,31.247,31.25,31.247
			c17.231,0,31.247-14.013,31.247-31.247C298.507,200.229,284.486,186.216,267.261,186.216z M267.261,237.508
			c-11.069,0-20.053-8.996-20.053-20.051c0-11.058,8.989-20.05,20.053-20.05c11.052,0,20.05,8.992,20.05,20.05
			C287.311,228.512,278.313,237.508,267.261,237.508z"/>
		<path d="M272.854,141.254v-19.861h-11.189v19.861c-36.822,2.711-66.828,31.99-70.429,68.747H171.19v11.191h19.673
			c1.892,38.187,32.62,69.658,70.793,72.471v19.864h11.192v-19.869c38.178-2.818,68.902-34.284,70.798-72.471h19.669v-11.191H343.27
			C339.678,173.244,309.673,143.965,272.854,141.254z M272.854,282.434v-19.275h-11.189v19.275
			c-32.011-2.776-57.723-29.189-59.581-61.248h19.473v-11.191h-19.065c3.517-30.56,28.517-54.867,59.174-57.515v19.275h11.189
			V152.48c30.657,2.653,55.643,26.955,59.171,57.515h-19.066v11.191h19.475C330.577,253.245,304.864,279.658,272.854,282.434z"/>
	</g>
</g>
<g>
</g>
<g>
</g>
<g>
</g>
<g>
</g>
<g>
</g>
<g>
</g>
<g>
</g>
<g>
</g>
<g>
</g>
<g>
</g>
<g>
</g>
<g>
</g>
<g>
</g>
<g>
</g>
<g>
</g>
</svg>
