<?xml version="1.0" encoding="iso-8859-1"?>
<!-- Generator: Adobe Illustrator 16.0.0, SVG Export Plug-In . SVG Version: 6.00 Build 0)  -->
<!DOCTYPE svg PUBLIC "-//W3C//DTD SVG 1.1//EN" "http://www.w3.org/Graphics/SVG/1.1/DTD/svg11.dtd">
<svg version="1.1" id="Capa_1" xmlns="http://www.w3.org/2000/svg" xmlns:xlink="http://www.w3.org/1999/xlink" x="0px" y="0px"
	 width="550.801px" height="550.801px" viewBox="0 0 550.801 550.801" style="enable-background:new 0 0 550.801 550.801;"
	 xml:space="preserve">
<g>
	<g>
		<path d="M374.762,406.076c-6.618,0-10.89,0.591-13.415,1.171v85.714c2.531,0.591,6.612,0.591,10.304,0.591
			c26.821,0.19,44.318-14.586,44.318-45.879C416.158,420.462,400.223,406.076,374.762,406.076z"/>
		<path d="M475.084,131.986c-0.021-2.525-0.828-5.015-2.562-6.992L366.324,3.684c-0.031-0.029-0.062-0.045-0.084-0.071
			c-0.633-0.712-1.371-1.289-2.151-1.803c-0.232-0.15-0.464-0.29-0.707-0.422c-0.675-0.372-1.392-0.669-2.13-0.891
			c-0.201-0.058-0.38-0.145-0.58-0.188C359.87,0.114,359.037,0,358.193,0H97.2C85.282,0,75.6,9.688,75.6,21.601v507.6
			c0,11.907,9.682,21.601,21.6,21.601H453.6c11.908,0,21.601-9.693,21.601-21.601V133.197
			C475.2,132.791,475.137,132.393,475.084,131.986z M195.718,455.256c-10.114,9.524-25.083,13.796-42.57,13.796
			c-3.892,0-7.391-0.185-10.114-0.575v46.854H113.68V386.059c9.144-1.551,21.969-2.722,40.046-2.722
			c18.27,0,31.295,3.496,40.046,10.494c8.355,6.613,13.988,17.492,13.988,30.317C207.766,436.989,203.494,447.873,195.718,455.256z
			 M258.704,517.262c-14.963,0-29.734-3.893-37.125-7.974l6.03-24.49c7.966,4.082,20.208,8.163,32.843,8.163
			c13.608,0,20.802-5.632,20.802-14.186c0-8.163-6.221-12.824-21.956-18.467c-21.769-7.584-35.965-19.628-35.965-38.676
			c0-22.359,18.657-39.467,49.572-39.467c14.761,0,25.65,3.111,33.429,6.613l-6.613,23.91c-5.252-2.531-14.575-6.223-27.408-6.223
			c-12.825,0-19.048,5.832-19.048,12.635c0,8.369,7.394,12.055,24.298,18.473c23.129,8.554,34.019,20.593,34.019,39.061
			C311.576,498.604,294.669,517.262,258.704,517.262z M425.683,499.764c-13.796,11.476-34.784,16.918-60.444,16.918
			c-15.356,0-26.24-0.971-33.634-1.951V386.059c10.895-1.751,25.08-2.722,40.046-2.722c24.881,0,41.018,4.472,53.652,13.996
			c13.605,10.104,22.159,26.24,22.159,49.37C447.462,471.783,438.317,489.08,425.683,499.764z M97.2,366.747V21.601h250.192v110.51
			c0,5.962,4.842,10.8,10.801,10.8H453.6v223.837H97.2z"/>
		<path d="M155.282,405.686c-6.02,0-10.104,0.591-12.248,1.171v38.676c2.534,0.591,5.645,0.78,9.917,0.78
			c15.747,0,25.471-7.963,25.471-21.379C178.421,412.879,170.058,405.686,155.282,405.686z"/>
		<path d="M152.695,191.17l153.929,29.442c1.777,0.34,3.907,0.021,4.709-0.718l58.63-53.66c0,0,3.818-2.292-1.608-3.328
			c-5.426-1.036-152.663-29.365-152.663-29.365c-1.804-0.345-3.921-0.021-4.709,0.712l-60.07,54.957
			C150.108,189.944,150.902,190.825,152.695,191.17z M220.638,141.837l133.432,25.526l-39.403,36.033l-9.725-1.856
			c0.87-7.103,3.075-16.849-8.764-17.761c-13.869-1.065-33.197,9.735-33.197,9.735s8.421-14.747-1.205-25.353
			c-9.65-10.607-57.278,14.17-57.278,14.17l-23.253-4.445L220.638,141.837z"/>
		<path d="M303.297,170.828c2.452,0.478,4.852,0.807,7.087,1.028c1.909,0.873,4.515,1.677,7.646,2.272
			c8.016,1.527,16.295,1.155,18.468-0.838c2.184-1.996-2.553-4.854-10.568-6.387c-3.021-0.58-6.054-0.891-8.796-0.946
			c-0.538-0.557-1.55-1.042-2.984-1.311l-2.104-0.406c-2.694-0.514-5.742-0.081-7.219,0.934c-6.813-0.96-12.699-0.917-13.954,0.243
			C289.358,166.812,294.922,169.23,303.297,170.828z"/>
		<path d="M311.322,266.235l58.641-53.652c0,0,3.818-2.291-1.618-3.333c-1.292-0.242-10.689-2.051-24.179-4.648l-26.832,24.543
			c-3.032,2.776-7.087,3.19-9.229,3.19c-1.055,0-2.141-0.098-3.174-0.29l-124.211-23.768l-29.813,27.271
			c-0.804,0.738,0,1.614,1.793,1.965l153.919,29.441C308.401,267.295,310.521,266.971,311.322,266.235z"/>
		<path d="M372.806,256.305c-1.297-0.243-10.689-2.051-24.179-4.648l-26.831,24.535c-3.038,2.784-7.088,3.201-9.229,3.201
			c-1.055,0-2.142-0.105-3.175-0.301L185.171,255.33l-29.813,27.274c-0.794,0.733,0,1.614,1.793,1.962l153.918,29.437
			c1.793,0.348,3.908,0.021,4.726-0.717l58.624-53.652C374.425,259.638,378.242,257.344,372.806,256.305z"/>
	</g>
</g>
<g>
</g>
<g>
</g>
<g>
</g>
<g>
</g>
<g>
</g>
<g>
</g>
<g>
</g>
<g>
</g>
<g>
</g>
<g>
</g>
<g>
</g>
<g>
</g>
<g>
</g>
<g>
</g>
<g>
</g>
</svg>
