<?xml version="1.0" encoding="iso-8859-1"?>
<!-- Generator: Adobe Illustrator 16.0.0, SVG Export Plug-In . SVG Version: 6.00 Build 0)  -->
<!DOCTYPE svg PUBLIC "-//W3C//DTD SVG 1.1//EN" "http://www.w3.org/Graphics/SVG/1.1/DTD/svg11.dtd">
<svg version="1.1" id="Capa_1" xmlns="http://www.w3.org/2000/svg" xmlns:xlink="http://www.w3.org/1999/xlink" x="0px" y="0px"
	 width="550.801px" height="550.801px" viewBox="0 0 550.801 550.801" style="enable-background:new 0 0 550.801 550.801;"
	 xml:space="preserve">
<g>
	<g>
		<path d="M405.517,427.919c0-9.408-7.192-14.386-19.901-14.386c-6.086,0-9.608,0.369-11.992,0.738v28.951h9.218
			C397.596,443.223,405.517,437.137,405.517,427.919z"/>
		<path d="M152.286,414.266c-5.719,0-9.587,0.554-11.623,1.097v36.703c2.394,0.564,5.347,0.744,9.408,0.744
			c14.948,0,24.155-7.552,24.155-20.282C174.227,421.095,166.292,414.266,152.286,414.266z"/>
		<path d="M383.199,463.319h-9.576v35.037c2.769,0.363,6.086,0.363,10.879,0.363c12.725,0,23.979-4.788,23.979-17.888
			C408.48,468.303,397.227,463.319,383.199,463.319z"/>
		<path d="M475.095,131.992c-0.032-2.521-0.833-5.021-2.568-6.993L366.324,3.689c-0.021-0.035-0.053-0.045-0.084-0.077
			c-0.633-0.706-1.36-1.284-2.141-1.803c-0.243-0.145-0.465-0.285-0.707-0.422c-0.686-0.367-1.393-0.665-2.131-0.886
			c-0.2-0.063-0.379-0.145-0.58-0.197C359.87,0.114,359.047,0,358.203,0H97.2C85.292,0,75.6,9.693,75.6,21.601v507.6
			c0,11.907,9.692,21.601,21.6,21.601H453.6c11.918,0,21.601-9.693,21.601-21.601V133.202
			C475.2,132.791,475.137,132.393,475.095,131.992z M190.648,461.284c-9.587,9.054-23.783,13.104-40.387,13.104
			c-3.694,0-7.005-0.18-9.598-0.554v44.438h-27.841V395.646c8.667-1.477,20.838-2.59,37.99-2.59c17.339,0,29.687,3.317,37.987,9.957
			c7.934,6.275,13.278,16.601,13.278,28.771S198.028,454.28,190.648,461.284z M321.416,463.693
			c0,38.359-19.364,56.616-51.833,56.616c-31.345,0-49.792-17.329-49.792-56.99v-69.335h28.213v71.539
			c0,21.399,8.124,32.289,22.51,32.289c14.752,0,22.863-10.336,22.863-32.289v-71.539h28.028v69.709H321.416z M425.081,508.323
			c-9.049,7.182-24.163,11.242-48.874,11.242c-13.838,0-24.163-0.917-30.438-1.846V395.646c7.372-1.477,22.317-2.59,36.334-2.59
			c17.149,0,27.654,1.656,36.703,7.004c8.67,4.614,14.935,13.099,14.935,24.353c0,11.068-6.449,21.395-20.456,26.546v0.38
			c14.196,3.871,24.696,14.561,24.696,30.607C437.98,493.198,432.822,502.053,425.081,508.323z M97.2,366.752V21.601h250.203
			v110.521c0,5.962,4.831,10.8,10.8,10.8H453.6l0.011,223.837H97.2V366.752z"/>
		<path d="M351.77,175.959c-7.836-6.729-20.018-13.722-36.06-13.722s-28.107,7.014-35.827,13.774
			c-2.363,2.091-4.356,4.147-6.012,6.033c-1.69-1.901-3.763-3.974-6.21-6.086c-7.868-6.729-20.039-13.722-36.104-13.722
			c-16.031,0-28.084,7.014-35.796,13.774c-7.744,6.784-11.518,13.39-11.739,13.767l-0.833,3.045v99.246l12.417,3.043l0.032,0.021
			c0.155-0.349,3.52-5.854,9.629-10.99c6.184-5.188,14.763-9.969,26.291-9.99c11.876,0,20.925,5.123,27.287,10.533
			c3.122,2.689,5.577,5.39,7.148,7.404c0.799,1.022,1.374,1.851,1.761,2.373c0.169,0.284,0.309,0.495,0.388,0.638
			c0.034,0.059,0.066,0.101,0.066,0.116h0.032l11.528-0.105l0.011-0.021v-0.021c0.264-0.453,3.606-5.864,9.618-10.947
			c6.202-5.189,14.808-9.97,26.314-9.991c11.876,0,20.894,5.123,27.285,10.534c3.153,2.689,5.537,5.389,7.119,7.403
			c0.812,1.019,1.392,1.852,1.771,2.368c0.2,0.29,0.316,0.501,0.401,0.644c0.042,0.058,0.073,0.1,0.073,0.116h0.011l12.382-3.154
			v-99.22l-0.886-3.153C363.625,189.304,359.68,182.709,351.77,175.959z M267.321,274.963c-7.823-6.642-19.905-13.479-35.765-13.479
			h-0.011c-15.578,0-27.377,6.626-35.1,13.171v-80.043c1.36-1.993,4.348-5.93,8.819-9.727c6.184-5.179,14.763-9.957,26.291-9.957
			c11.876,0,20.925,5.123,27.287,10.512c3.122,2.689,5.577,5.421,7.148,7.436c0.562,0.686,1.015,1.318,1.329,1.793V274.963z
			 M351.485,274.963c-7.879-6.663-19.944-13.479-35.775-13.479c-15.567-0.031-27.39,6.626-35.132,13.171v-80.043
			c1.371-1.973,4.346-5.93,8.817-9.727c6.202-5.179,14.808-9.957,26.314-9.957c11.876,0,20.894,5.123,27.285,10.512
			c3.153,2.689,5.537,5.421,7.119,7.436c0.569,0.686,1.022,1.318,1.371,1.793V274.963z"/>
	</g>
</g>
<g>
</g>
<g>
</g>
<g>
</g>
<g>
</g>
<g>
</g>
<g>
</g>
<g>
</g>
<g>
</g>
<g>
</g>
<g>
</g>
<g>
</g>
<g>
</g>
<g>
</g>
<g>
</g>
<g>
</g>
</svg>
