<?xml version="1.0" encoding="iso-8859-1"?>
<!-- Generator: Adobe Illustrator 16.0.0, SVG Export Plug-In . SVG Version: 6.00 Build 0)  -->
<!DOCTYPE svg PUBLIC "-//W3C//DTD SVG 1.1//EN" "http://www.w3.org/Graphics/SVG/1.1/DTD/svg11.dtd">
<svg version="1.1" id="Capa_1" xmlns="http://www.w3.org/2000/svg" xmlns:xlink="http://www.w3.org/1999/xlink" x="0px" y="0px"
	 width="548.291px" height="548.291px" viewBox="0 0 548.291 548.291" style="enable-background:new 0 0 548.291 548.291;"
	 xml:space="preserve">
<g>
	<g>
		<path d="M323.863,408.126H323.5c-1.849,7.365-3.69,16.756-5.716,23.937l-7.365,26.337h27.434l-7.728-26.337
			C327.91,424.698,325.705,415.492,323.863,408.126z"/>
		<path d="M472.929,131.396c-0.031-2.517-0.829-5-2.556-6.96L364.656,3.675c-0.021-0.031-0.053-0.042-0.084-0.073
			c-0.63-0.707-1.354-1.287-2.132-1.796c-0.23-0.152-0.462-0.286-0.703-0.419c-0.683-0.365-1.387-0.667-2.121-0.888
			c-0.2-0.058-0.377-0.139-0.577-0.194C358.231,0.118,357.411,0,356.572,0H96.757C84.904,0,75.255,9.649,75.255,21.502V526.79
			c0,11.854,9.649,21.501,21.502,21.501h354.775c11.863,0,21.503-9.647,21.503-21.501V132.595
			C473.036,132.191,472.971,131.792,472.929,131.396z M231.62,511.25c-2.032-3.49-4.977-13.626-8.653-28.914
			c-3.318-15.465-8.654-19.705-20.071-19.885h-8.473v48.799h-27.812V388.783c9.029-1.471,22.472-2.573,37.386-2.573
			c18.42,0,31.31,2.763,40.147,9.754c7.365,5.899,11.422,14.552,11.422,25.974c0,15.833-11.238,26.699-21.921,30.568v0.551
			c8.661,3.501,13.443,11.785,16.572,23.203c3.871,13.995,7.735,30.205,10.134,34.991H231.62z M351.479,511.25l-9.564-31.858
			h-35.544l-8.845,31.858h-29.09l37.935-124.122h36.835l38.483,124.122H351.479z M96.757,365.081V21.502H345.82v110.011
			c0,5.935,4.81,10.751,10.752,10.751h94.961l0.011,222.816H96.757z"/>
		<path d="M207.125,407.018c-6.821,0-10.683,0.558-12.708,0.925v34.247h11.053c13.998,0,22.287-6.993,22.287-17.858
			C227.751,412.918,220.015,407.203,207.125,407.018z"/>
	</g>
	<g>
		<g>
			<path d="M289.987,146.328l-51.853,38.709c0,0-4.853,0.493-10.417,1.858v56.179c5.56,1.2,10.417,1.753,10.417,1.753l50.731,37.645
				c0,0,9.312,7.794,9.312-0.252c0-8.08,0-128.388,0-135.735C298.177,140.162,289.987,146.328,289.987,146.328z"/>
		</g>
		<g>
			<path d="M211.257,198.228c0,10.486,0,28.838,0,36.182c0,2.812,3.963,4.998,8.843,6.623v-51.728
				C215.22,191.336,211.257,194.208,211.257,198.228z"/>
		</g>
	</g>
	<path d="M266.124,101.524c-62.198,0-112.796,50.599-112.796,112.796s50.599,112.797,112.796,112.797
		c62.201,0,112.8-50.6,112.8-112.797S328.325,101.524,266.124,101.524z M266.124,310.997c-53.307,0-96.67-43.363-96.67-96.67
		c0-53.308,43.363-96.67,96.67-96.67c53.308,0,96.673,43.362,96.673,96.67C362.796,267.633,319.431,310.997,266.124,310.997z"/>
</g>
<g>
</g>
<g>
</g>
<g>
</g>
<g>
</g>
<g>
</g>
<g>
</g>
<g>
</g>
<g>
</g>
<g>
</g>
<g>
</g>
<g>
</g>
<g>
</g>
<g>
</g>
<g>
</g>
<g>
</g>
</svg>
