<?xml version="1.0" encoding="iso-8859-1"?>
<!-- Generator: Adobe Illustrator 16.0.0, SVG Export Plug-In . SVG Version: 6.00 Build 0)  -->
<!DOCTYPE svg PUBLIC "-//W3C//DTD SVG 1.1//EN" "http://www.w3.org/Graphics/SVG/1.1/DTD/svg11.dtd">
<svg version="1.1" id="Capa_1" xmlns="http://www.w3.org/2000/svg" xmlns:xlink="http://www.w3.org/1999/xlink" x="0px" y="0px"
	 width="548.291px" height="548.291px" viewBox="0 0 548.291 548.291" style="enable-background:new 0 0 548.291 548.291;"
	 xml:space="preserve">
<g>
	<g>
		<path d="M147.099,411.019c-7.16,0-11.226,0.577-13.354,0.977v35.979h11.612c14.707,0,23.41-7.35,23.41-18.761
			C168.766,417.213,160.642,411.217,147.099,411.019z"/>
		<path d="M269.78,412.183h-0.386c-1.932,7.738-3.867,17.607-5.995,25.156l-7.735,27.665h28.828l-8.126-27.665
			C274.032,429.596,271.709,419.921,269.78,412.183z"/>
		<path d="M472.929,131.39c-0.031-2.514-0.839-4.997-2.566-6.96L364.656,3.677c-0.031-0.034-0.062-0.044-0.084-0.075
			c-0.63-0.704-1.365-1.284-2.142-1.796c-0.231-0.149-0.463-0.283-0.704-0.419c-0.672-0.365-1.376-0.667-2.121-0.888
			c-0.2-0.058-0.377-0.139-0.577-0.191C358.231,0.113,357.4,0,356.561,0H96.757C84.904,0,75.255,9.649,75.255,21.502V526.79
			c0,11.858,9.649,21.501,21.502,21.501h354.775c11.853,0,21.503-9.643,21.503-21.501V132.595
			C473.036,132.191,472.971,131.795,472.929,131.39z M172.829,520.537c-2.129-3.68-5.229-14.314-9.089-30.378
			c-3.483-16.247-9.09-20.703-21.092-20.893h-8.903v51.271h-29.221V391.87c9.483-1.555,23.614-2.71,39.278-2.71
			c19.353,0,32.903,2.897,42.187,10.247c7.735,6.188,11.998,15.287,11.998,27.28c0,16.646-11.798,28.06-23.024,32.121v0.584
			c9.092,3.68,14.121,12.383,17.407,24.378c4.063,14.704,8.126,31.724,10.643,36.762h-30.184V520.537z M298.795,520.537
			l-10.058-33.475h-37.341l-9.283,33.475h-30.576l39.854-130.411h38.696l40.437,130.411H298.795z M416.267,520.537
			c-2.13-3.68-5.233-14.314-9.103-30.378c-3.475-16.247-9.092-20.703-21.082-20.893h-8.902v51.271h-29.218V391.87
			c9.479-1.555,23.601-2.71,39.276-2.71c19.35,0,32.893,2.897,42.184,10.247c7.737,6.188,12.001,15.287,12.001,27.28
			c0,16.646-11.812,28.06-23.035,32.121v0.584c9.103,3.68,14.131,12.383,17.418,24.378c4.062,14.704,8.126,31.724,10.645,36.762
			h-30.184V520.537z M96.757,365.081V21.502H345.81v110.011c0,5.935,4.819,10.751,10.751,10.751h94.972v222.816H96.757z"/>
		<path d="M390.535,411.019c-7.16,0-11.223,0.577-13.354,0.977v35.979h11.611c14.698,0,23.413-7.35,23.413-18.761
			C412.205,417.213,404.079,411.217,390.535,411.019z"/>
		<rect x="147.92" y="146.643" width="162.854" height="21.564"/>
		<polygon points="310.775,195.827 338.313,195.827 338.313,202.927 338.313,211.022 338.313,220.224 338.313,228.332 
			338.313,237.744 338.313,245.844 338.313,256.783 310.775,256.783 310.775,283.173 147.92,283.173 147.92,304.717 
			310.775,304.717 310.775,284.397 392.204,284.397 392.204,256.783 346.703,256.783 346.703,245.844 364.666,245.844 
			364.666,237.744 346.703,237.744 346.703,228.332 364.666,228.332 364.666,220.224 346.703,220.224 346.703,211.022 
			364.666,211.022 364.666,202.927 346.703,202.927 346.703,195.827 392.204,195.827 392.204,168.208 310.775,168.208 		"/>
		<rect x="168.862" y="179.296" width="120.968" height="94.028"/>
	</g>
</g>
<g>
</g>
<g>
</g>
<g>
</g>
<g>
</g>
<g>
</g>
<g>
</g>
<g>
</g>
<g>
</g>
<g>
</g>
<g>
</g>
<g>
</g>
<g>
</g>
<g>
</g>
<g>
</g>
<g>
</g>
</svg>
