<?xml version="1.0" encoding="iso-8859-1"?>
<!-- Generator: Adobe Illustrator 16.0.0, SVG Export Plug-In . SVG Version: 6.00 Build 0)  -->
<!DOCTYPE svg PUBLIC "-//W3C//DTD SVG 1.1//EN" "http://www.w3.org/Graphics/SVG/1.1/DTD/svg11.dtd">
<svg version="1.1" id="Capa_1" xmlns="http://www.w3.org/2000/svg" xmlns:xlink="http://www.w3.org/1999/xlink" x="0px" y="0px"
	 width="550.801px" height="550.801px" viewBox="0 0 550.801 550.801" style="enable-background:new 0 0 550.801 550.801;"
	 xml:space="preserve">
<g>
	<g>
		<g>
			<path d="M250.246,410.875c-5.669,0-9.513,0.549-11.522,1.097v36.402c2.375,0.554,5.302,0.733,9.332,0.733
				c14.818,0,23.965-7.499,23.965-20.123C272.02,417.646,264.152,410.875,250.246,410.875z"/>
			<path d="M142.857,410.506c-6.766,0-10.605,0.554-12.619,0.918v34.023h10.977c13.9,0,22.135-6.95,22.135-17.745
				C163.345,416.359,155.667,410.695,142.857,410.506z"/>
			<path d="M475.095,131.992c-0.032-2.526-0.833-5.021-2.568-6.993L366.324,3.694c-0.021-0.031-0.053-0.042-0.084-0.076
				c-0.633-0.707-1.36-1.29-2.141-1.804c-0.232-0.15-0.465-0.285-0.707-0.422c-0.686-0.366-1.393-0.667-2.131-0.889
				c-0.2-0.061-0.379-0.143-0.58-0.195C359.87,0.119,359.047,0,358.203,0H97.2C85.292,0,75.6,9.693,75.6,21.601v507.6
				c0,11.913,9.692,21.601,21.6,21.601H453.6c11.918,0,21.601-9.688,21.601-21.601V133.202
				C475.2,132.796,475.137,132.398,475.095,131.992z M167.184,514.045c-2.014-3.48-4.941-13.543-8.596-28.72
				c-3.296-15.366-8.598-19.569-19.938-19.754h-8.417v48.479H102.61V392.402c8.965-1.461,22.312-2.568,37.13-2.568
				c18.291,0,31.1,2.747,39.88,9.703c7.317,5.854,11.338,14.449,11.338,25.787c0,15.736-11.156,26.521-21.766,30.364v0.554
				c8.596,3.476,13.355,11.707,16.464,23.045c3.839,13.906,7.686,30.001,10.062,34.763h-28.535V514.045z M288.299,457.523
				c-9.519,8.955-23.602,12.979-40.06,12.979c-3.663,0-6.95-0.174-9.516-0.549v44.081h-27.622V392.402
				c8.598-1.461,20.672-2.568,37.681-2.568c17.194,0,29.455,3.301,37.682,9.883c7.868,6.217,13.173,16.463,13.173,28.539
				C299.637,440.327,295.613,450.562,288.299,457.523z M420.931,514.045l-1.829-47.192c-0.554-14.818-1.098-32.743-1.098-50.673
				h-0.548c-3.839,15.726-8.965,33.286-13.722,47.746l-15.008,48.104h-21.764l-13.168-47.746
				c-4.029-14.449-8.231-32.01-11.158-48.104h-0.369c-0.729,16.648-1.276,35.665-2.194,51.037l-2.193,46.828h-25.793l7.868-123.288
				h37.131l12.076,41.148c3.839,14.275,7.683,29.637,10.425,44.086h0.554c3.476-14.27,7.679-30.544,11.707-44.26l13.168-40.975
				h36.402l6.767,123.288H420.931z M97.2,366.752V21.601h250.203v110.515c0,5.964,4.831,10.8,10.8,10.8H453.6l0.011,223.836H97.2z"
				/>
		</g>
		<g>
			<path d="M386.185,221.559c-0.2,70.458-53.404,121.526-116.2,124.326c-33.049,1.472-62.372-8.058-87.226-29.91
				c-27.822-24.459-41.75-55.83-42.019-92.607c-0.232-31.656,10.438-59.925,32.076-83.312
				c25.434-27.475,57.122-40.798,94.706-39.841C331.688,101.852,385.251,154.359,386.185,221.559z M325.477,204.845
				c0-1.588-0.053-2.608,0.011-3.623c0.042-0.541,0.301-1.065,0.433-1.606c2.336-9.693,2.989-19.282-1.118-28.774
				c-3.797-8.759-7.13-17.724-11.063-26.417c-1.951-4.319-4.061-9.012-7.394-12.16c-8.332-7.857-19.017-7.9-29.489-6.199
				c-5.867,0.949-11.586,2.721-17.613,2.078c-7.895-0.836-15.762-2.067-23.678-2.576c-6.734-0.428-13.877,4.867-15.839,11.309
				c-2.418,7.955-4.72,15.958-6.755,24.013c-1.988,7.878-0.422,12.393,6.874,16.25c7.684,4.071,16.147,6.721,24.376,9.692
				c6.054,2.186,12.366,3.655,18.386,5.901c3.953,1.474,7.111,3.941,7.006,9.089c-0.071,3.327,1.192,6.431,3.612,9.028
				c1.01,1.081,1.377,2.761,2.041,4.164c-0.227,0.396-0.453,0.788-0.681,1.179c-3.602-0.253-7.367,0.092-10.778-0.86
				c-18.998-5.276-36.872-13.191-53.386-23.976c-1.743-1.134-3.164-3.7-3.531-5.798c-0.562-3.214-0.567-6.708,0.134-9.866
				c0.654-2.927-0.464-3.241-2.618-3.101c-6.621,0.417-13.252,0.72-19.844,1.39c-7.254,0.733-13.118,4.082-17.173,10.281
				c-1.854,2.829-2.523,5.88-0.509,8.801c2.657,3.85,5.191,7.924,8.532,11.119c6.816,6.513,13.727,13.058,21.347,18.555
				c8.822,6.378,18.209,12.092,27.81,17.221c7.512,4.008,15.67,6.853,23.651,9.93c10.412,4.013,21.202,6.676,32.3,7.96
				c5.015,0.578,10.046,1.292,15.077,1.403c7.403,0.168,14.85,0.256,22.211-0.361c9.171-0.768,17.139-5.308,25.176-9.395
				c10.489-5.326,17.771-13.097,20.408-24.996c1.688-7.615,1.435-14.721-5.284-19.338c-7.377-5.076-15.192-9.711-24.058-12.092
				C332.606,197.847,331.119,202.5,325.477,204.845z M150.881,268.094c20.45,45.27,54.725,72.148,103.95,75.945
				c42.358,3.27,77.648-13.226,104.971-47.355c-3.254,0-5.722,0.053-8.19-0.01c-7.119-0.18-14.238-0.454-21.362-0.533
				c-0.569-0.005-1.762,1.419-1.63,1.904c0.791,2.947-0.695,4.387-3.063,5.494c-7.847,3.671-15.034,8.237-21.168,14.471
				c-1.872,1.903-4.514,3.217-7.029,4.24c-1.191,0.484-2.911-0.333-4.393-0.56c0.301-1.323,0.227-2.921,0.954-3.934
				c5.311-7.31,10.801-14.497,16.2-21.732c0.859-1.154,1.967-2.314,2.289-3.633c1.714-7.119,3.248-14.286,4.777-21.458
				c0.369-1.706-0.163-2.942-2.241-2.866c-1.134,0.048-2.262,0.113-3.391,0.119c-2.764,0.021-5.537,0.145-8.295,0
				c-5.438-0.298-10.848-1.928-16.258,0.469c-1.16,0.52-2.795,0.114-4.183-0.042c-2.979-0.345-5.942-1.155-8.909-1.155
				c-6.893,0-13.803,0.789-20.661,0.414c-3.446-0.177-7.394-1.432-10.043-3.542c-4.991-3.965-9.273-8.841-13.711-13.474
				c-1.701-1.777-3.261-2.391-5.632-1.302c-3.262,1.508-5.529,0.077-7.657-2.65c-2.869-3.673-6.08-7.096-9.392-10.396
				c-2.009-1.991-4.583-2.479-7.391-1.269c-3.467,1.484-6.61,3.312-6.558,7.589c0.045,3.907,1.039,7.517,3.684,10.734
				c3.024,3.684,5.437,7.802,9.677,10.45c0.902,0.562,1.371,3.014,0.934,4.163c-0.435,1.149-2.181,2.289-3.51,2.526
				c-3.319,0.58-6.42-0.171-8.986-2.7c-2.813-2.774-5.695-5.495-8.73-8.013c-1.292-1.073-3.009-2.191-4.575-2.268
				c-5.086-0.211-10.196,0.071-15.293,0.113c-4.142,0.037-8.277,0.005-13.128,0.005
				C146.857,257.505,147.878,260.065,150.881,268.094z"/>
			<path d="M227.965,145.677c2.157,1.35,3.942,2.106,5.26,3.359c3.71,3.515,8.29,3.655,12.648,2.776
				c5.469-1.102,10.394,0.367,15.433,1.727c0.562,0.15,1.345,1.171,1.263,1.664c-0.14,0.841-0.717,2.041-1.397,2.278
				c-2.487,0.886-5.06,1.614-7.66,2.062c-3.623,0.638-7.304,0.907-10.94,1.469c-1.176,0.185-2.542,0.524-3.38,1.276
				c-4.693,4.221-8.084-0.071-11.403-2.015c-3.755-2.194-3.879-6.486-3.111-10.325C224.991,148.408,226.769,147.166,227.965,145.677
				z"/>
			<path d="M277.805,132.912c4.05-1.864,8.279-2.35,12.619-1.751c1.852,0.253,3.76,0.515,5.474,1.216
				c2.568,1.041,4.319,2.781,4.383,5.967c0.047,3.093-2.278,3.979-4.24,4.456c-3.228,0.77-6.634,0.796-9.967,1.013
				c-0.506,0.034-1.055-0.614-1.982-1.203c1.93-1.664,3.586-3.09,5.474-4.714C286.506,133.803,281.712,134.645,277.805,132.912z"/>
			<path d="M282.266,292.412c-3.306-1.16-6.623-2.31-9.927-3.47c-0.211-0.073-0.396-0.295-0.602-0.306
				c-1.948-0.105-4.174,0.084-3.488-2.995c0.58-2.605,3.462-4.419,5.867-3.649c1.579,0.496,3.183,1.06,4.585,1.914
				c2.526,1.545,4.614,1.819,6.855-0.648c0.644-0.712,3.354-0.822,3.502-0.485c0.706,1.587,1.571,3.676,1.064,5.115
				C288.916,291.273,285.81,292.128,282.266,292.412z"/>
		</g>
	</g>
</g>
<g>
</g>
<g>
</g>
<g>
</g>
<g>
</g>
<g>
</g>
<g>
</g>
<g>
</g>
<g>
</g>
<g>
</g>
<g>
</g>
<g>
</g>
<g>
</g>
<g>
</g>
<g>
</g>
<g>
</g>
</svg>
