<?xml version="1.0" encoding="iso-8859-1"?>
<!-- Generator: Adobe Illustrator 16.0.0, SVG Export Plug-In . SVG Version: 6.00 Build 0)  -->
<!DOCTYPE svg PUBLIC "-//W3C//DTD SVG 1.1//EN" "http://www.w3.org/Graphics/SVG/1.1/DTD/svg11.dtd">
<svg version="1.1" id="Capa_1" xmlns="http://www.w3.org/2000/svg" xmlns:xlink="http://www.w3.org/1999/xlink" x="0px" y="0px"
	 width="550.801px" height="550.801px" viewBox="0 0 550.801 550.801" style="enable-background:new 0 0 550.801 550.801;"
	 xml:space="preserve">
<g>
	<g>
		<g>
			<path d="M181.662,416.845c-6.141,0-9.624,0.495-11.454,0.833v30.86h9.961c12.609,0,20.079-6.308,20.079-16.095
				C200.249,422.155,193.277,417.014,181.662,416.845z"/>
			<path d="M475.095,131.992c-0.031-2.526-0.828-5.021-2.562-6.993L366.325,3.694c-0.021-0.034-0.053-0.045-0.085-0.076
				c-0.633-0.707-1.36-1.29-2.141-1.804c-0.232-0.15-0.464-0.285-0.707-0.422c-0.686-0.366-1.392-0.67-2.13-0.892
				c-0.2-0.058-0.38-0.14-0.58-0.192C359.87,0.114,359.048,0,358.204,0H97.2c-11.907,0-21.6,9.693-21.6,21.601v507.6
				c0,11.913,9.692,21.601,21.6,21.601h356.4c11.918,0,21.6-9.688,21.6-21.601V133.202
				C475.2,132.796,475.137,132.398,475.095,131.992z M203.731,510.77c-1.824-3.158-4.477-12.281-7.799-26.056
				c-2.985-13.943-7.797-17.751-18.088-17.919h-7.636v43.98h-25.057V400.412c8.131-1.323,20.245-2.325,33.687-2.325
				c16.593,0,28.208,2.494,36.173,8.802c6.637,5.305,10.288,13.109,10.288,23.393c0,14.28-10.125,24.068-19.743,27.549v0.501
				c7.791,3.147,12.107,10.615,14.937,20.909c3.483,12.613,6.961,27.211,9.121,31.529H203.731z M270.918,512.431
				c-12.77,0-25.386-3.316-31.693-6.808l5.147-20.909c6.805,3.491,17.252,6.972,28.042,6.972c11.614,0,17.753-4.815,17.753-12.108
				c0-6.972-5.305-10.953-18.752-15.768c-18.586-6.476-30.697-16.759-30.697-33.022c0-19.079,15.923-33.687,42.314-33.687
				c12.608,0,21.896,2.663,28.534,5.643l-5.643,20.408c-4.482-2.151-12.445-5.305-23.393-5.305
				c-10.953,0-16.261,4.973-16.261,10.784c0,7.135,6.302,10.294,20.743,15.762c19.743,7.31,29.035,17.604,29.035,33.36
				C316.059,496.494,301.62,512.431,270.918,512.431z M360.514,512.431c-12.783,0-25.387-3.316-31.693-6.808l5.142-20.909
				c6.808,3.491,17.26,6.972,28.039,6.972c11.622,0,17.761-4.815,17.761-12.108c0-6.972-5.315-10.953-18.752-15.768
				c-18.584-6.476-30.708-16.759-30.708-33.022c0-19.079,15.937-33.687,42.319-33.687c12.609,0,21.906,2.663,28.54,5.643
				l-5.643,20.408c-4.477-2.151-12.445-5.305-23.398-5.305c-10.947,0-16.258,4.973-16.258,10.784
				c0,7.135,6.297,10.294,20.735,15.762c19.744,7.31,29.041,17.604,29.041,33.36C405.649,496.494,391.216,512.431,360.514,512.431z
				 M97.2,366.752V21.601h250.204v110.515c0,5.961,4.83,10.8,10.8,10.8h95.396l0.011,223.836H97.2z"/>
		</g>
		<g>
			<g>
				<path d="M157.492,266.409c-20.007,0-36.279,16.269-36.279,36.308c0,19.971,16.276,36.26,36.279,36.26
					c20.023,0,36.315-16.289,36.315-36.26C193.807,282.678,177.515,266.409,157.492,266.409z"/>
			</g>
			<g>
				<path d="M124.989,174.259c-2.081,0-3.776,1.695-3.776,3.797v46.055c0,2.091,1.69,3.776,3.776,3.776
					c59.163,0,107.314,48.146,107.314,107.325c0,2.057,1.685,3.765,3.768,3.765h46.084h0.164c2.104,0,3.797-1.708,3.797-3.765
					l-0.2-1.192C285.262,245.824,213.295,174.259,124.989,174.259z"/>
			</g>
			<g>
				<path d="M365.824,334.02C365.202,201.728,257.357,94.345,124.983,94.345c-2.08,0-3.775,1.69-3.775,3.789v47.408
					c0,2.088,1.69,3.768,3.775,3.768c102.492,0,185.876,83.405,185.876,185.896c0,2.057,1.688,3.761,3.76,3.761h47.419h0.185
					c2.072,0,3.807-1.704,3.807-3.761L365.824,334.02z"/>
			</g>
		</g>
	</g>
</g>
<g>
</g>
<g>
</g>
<g>
</g>
<g>
</g>
<g>
</g>
<g>
</g>
<g>
</g>
<g>
</g>
<g>
</g>
<g>
</g>
<g>
</g>
<g>
</g>
<g>
</g>
<g>
</g>
<g>
</g>
</svg>
