<?xml version="1.0" encoding="iso-8859-1"?>
<!-- Generator: Adobe Illustrator 16.0.0, SVG Export Plug-In . SVG Version: 6.00 Build 0)  -->
<!DOCTYPE svg PUBLIC "-//W3C//DTD SVG 1.1//EN" "http://www.w3.org/Graphics/SVG/1.1/DTD/svg11.dtd">
<svg version="1.1" id="Capa_1" xmlns="http://www.w3.org/2000/svg" xmlns:xlink="http://www.w3.org/1999/xlink" x="0px" y="0px"
	 width="548.291px" height="548.291px" viewBox="0 0 548.291 548.291" style="enable-background:new 0 0 548.291 548.291;"
	 xml:space="preserve">
<g>
	<g>
		<path d="M472.929,131.39c-0.031-2.514-0.829-5-2.556-6.96L364.656,3.677c-0.021-0.034-0.053-0.044-0.084-0.075
			c-0.63-0.704-1.354-1.284-2.132-1.796c-0.23-0.149-0.462-0.283-0.703-0.419c-0.683-0.365-1.387-0.667-2.121-0.888
			c-0.2-0.058-0.377-0.139-0.577-0.191C358.231,0.118,357.411,0,356.572,0H96.757C84.904,0,75.255,9.649,75.255,21.502V526.79
			c0,11.858,9.649,21.501,21.502,21.501h354.775c11.863,0,21.503-9.643,21.503-21.501V132.595
			C473.036,132.191,472.971,131.795,472.929,131.39z M207.732,513.866c-1.93-3.34-4.745-12.998-8.252-27.571
			c-3.161-14.751-8.25-18.792-19.147-18.96h-8.079v46.531h-26.517V397.087c8.606-1.407,21.422-2.462,35.651-2.462
			c17.562,0,29.853,2.63,38.279,9.307c7.029,5.617,10.889,13.868,10.889,24.757c0,15.106-10.714,25.46-20.9,29.15v0.529
			c8.252,3.338,12.822,11.243,15.798,22.126c3.693,13.344,7.38,28.798,9.658,33.365h-27.38V513.866z M331.904,417.985h-32.31v95.881
			h-26.868v-95.881h-31.792v-22.479h90.969V417.985z M418.493,417.455h-45.48V444.5h42.499v21.774h-42.499v47.592h-26.867V395.506
			h72.348V417.455z M96.757,365.081V21.502H345.82v110.011c0,5.935,4.81,10.751,10.752,10.751h94.961l0.011,222.816H96.757z"/>
		<path d="M184.37,414.473c-6.494,0-10.187,0.53-12.116,0.881v32.658h10.541c13.342,0,21.25-6.673,21.25-17.035
			C204.044,420.09,196.664,414.645,184.37,414.473z"/>
	</g>
	<g>
		<path d="M323.421,122.902h-12.493v-18.065l-30.919-30.929H151.757v218.217h43.413v48.999h159.165v-187.29L323.421,122.902z
			 M325.736,136.38l17.765,17.77h-17.765V136.38z M310.928,271.421c0.057,0.924,0.057,1.853,0,2.777V271.421z M282.323,87.382
			l17.76,17.771h-17.76V87.382z M159.655,284.236V81.796h114.773v31.248h28.61v171.197H159.655V284.236z M346.446,333.232H203.06
			v-41.107h107.862v-12.603h25.082v-10.751h-25.082v-24.185h25.082v-10.75h-25.082v-26.318h25.082v-10.75h-25.082v-65.973h6.908
			v31.247h28.61v171.19H346.446z"/>
		<path d="M184.575,137.986h21.984l2.542,20.095h8.027l-8.78-63.597h-9.244l-32.935,63.597h8.31L184.575,137.986z M196.939,113.259
			c1.885-3.869,3.489-7.832,5.187-11.604h0.188c0.283,3.772,0.756,8.401,1.134,11.701l2.451,18.399h-18.493L196.939,113.259z"/>
		<rect x="228.008" y="127.226" width="69.434" height="10.75"/>
		<rect x="228.008" y="154.548" width="69.434" height="10.751"/>
		<rect x="172.254" y="180.979" width="125.188" height="10.751"/>
		<rect x="172.254" y="206.959" width="53.964" height="10.75"/>
		<rect x="172.254" y="233.835" width="53.964" height="10.75"/>
		<rect x="172.254" y="261.277" width="123.729" height="10.75"/>
		<rect x="212.28" y="303.606" width="123.729" height="10.751"/>
		<path d="M270,242.329l-2.176-6.945c-18.142-48.885-30.302,5.601-30.302,5.601l-0.794,3.359h53.659h2.908
			C278.061,214.56,270,242.329,270,242.329z"/>
	</g>
</g>
<g>
</g>
<g>
</g>
<g>
</g>
<g>
</g>
<g>
</g>
<g>
</g>
<g>
</g>
<g>
</g>
<g>
</g>
<g>
</g>
<g>
</g>
<g>
</g>
<g>
</g>
<g>
</g>
<g>
</g>
</svg>
