<?xml version="1.0" encoding="iso-8859-1"?>
<!-- Generator: Adobe Illustrator 16.0.0, SVG Export Plug-In . SVG Version: 6.00 Build 0)  -->
<!DOCTYPE svg PUBLIC "-//W3C//DTD SVG 1.1//EN" "http://www.w3.org/Graphics/SVG/1.1/DTD/svg11.dtd">
<svg version="1.1" id="Capa_1" xmlns="http://www.w3.org/2000/svg" xmlns:xlink="http://www.w3.org/1999/xlink" x="0px" y="0px"
	 width="548.29px" height="548.291px" viewBox="0 0 548.29 548.291" style="enable-background:new 0 0 548.29 548.291;"
	 xml:space="preserve">
<g>
	<g>
		<g>
			<path d="M266.636,419.491h-0.338c-1.651,6.604-3.297,15.036-5.124,21.477l-6.606,23.616h24.62l-6.938-23.616
				C270.268,434.358,268.287,426.095,266.636,419.491z"/>
			<path d="M472.929,131.399c-0.031-2.518-0.828-5-2.556-6.964L364.65,3.677c-0.021-0.031-0.052-0.042-0.089-0.075
				c-0.625-0.704-1.355-1.284-2.127-1.796c-0.23-0.149-0.462-0.283-0.703-0.419c-0.683-0.365-1.387-0.665-2.127-0.885
				c-0.199-0.06-0.371-0.142-0.571-0.194C358.23,0.118,357.4,0,356.566,0H96.757C84.904,0,75.255,9.649,75.255,21.502V526.79
				c0,11.858,9.649,21.501,21.502,21.501h354.776c11.862,0,21.502-9.643,21.502-21.501V132.6
				C473.035,132.199,472.973,131.795,472.929,131.399z M163.072,513.645c-12.711,0-25.271-3.298-31.549-6.772l5.124-20.814
				c6.774,3.472,17.173,6.936,27.914,6.936c11.559,0,17.669-4.793,17.669-12.052c0-6.941-5.278-10.899-18.67-15.696
				c-18.497-6.438-30.564-16.683-30.564-32.861c0-18.998,15.864-33.539,42.135-33.539c12.546,0,21.795,2.641,28.407,5.617
				l-5.616,20.311c-4.462-2.137-12.39-5.276-23.297-5.276c-10.896,0-16.189,4.949-16.189,10.735c0,7.097,6.278,10.236,20.651,15.69
				C198.75,453.193,208,463.439,208,479.134C208.011,497.781,193.637,513.645,163.072,513.645z M291.41,511.996l-8.594-28.576
				h-31.881l-7.93,28.576h-26.098l34.027-111.335h33.037l34.521,111.335H291.41z M379.271,511.996h-29.402l-35.681-111.335h27.586
				l13.549,47.077c3.8,13.213,7.266,25.933,9.91,39.808h0.493c2.814-13.382,6.279-26.595,10.079-39.309l14.205-47.576h26.761
				L379.271,511.996z M96.757,365.085V21.507H345.82v110.015c0,5.935,4.809,10.75,10.751,10.75h94.962l0.01,222.813H96.757z"/>
		</g>
		<g>
			<path d="M218.842,271.416c-14.593-6.483-24.785-21.077-24.785-38.079c0-23.014,18.667-41.67,41.68-41.67
				c17.346,0,32.197,10.598,38.475,25.672c0.819-0.037,1.63-0.124,2.471-0.124h23.913c0.704-6.553,3.008-12.638,6.75-17.53
				c3.287-4.31,7.419-7.008,11.05-9.391c1.628-1.063,2.226-1.874,2.312-2.068c0.335-1.704-2.783-6.945-3.958-8.919l-0.789-1.326
				c-7.022-11.914-11.484-22.541-14.073-33.517c-1.223-5.181-0.137-10.208,3.028-14.189c3.267-4.142,8.463-6.625,13.881-6.625
				c3.306,0,6.3,0.953,8.809,2.585V90.325H143.86v198.887h76.557c-1.113-4.482-1.764-9.145-1.764-13.974
				C218.654,273.952,218.761,272.683,218.842,271.416z M163.755,110.217h136.379v70.084H163.755V110.217z"/>
			<rect x="236.683" y="119.689" width="48.307" height="48.297"/>
			<path d="M235.738,221.972c3.842,0,7.247,1.806,9.504,4.575c5.089-3.294,10.73-5.787,16.733-7.37
				c-5.231-9.074-15.014-15.194-26.237-15.194c-16.735,0-30.312,13.567-30.312,30.31c0,11.224,6.123,20.999,15.192,26.239
				c1.574-6.01,4.073-11.648,7.37-16.74c-2.764-2.258-4.57-5.648-4.57-9.5C223.422,227.484,228.932,221.972,235.738,221.972z"/>
			<path d="M375.848,227.961h-48.043l-9.208-0.107c-0.693-1.727-0.981-3.365-1.019-4.754c-0.355-9.772,9.03-18.231,13.081-21.409
				c5.365-4.218,8.17-8.531,9.66-14.875c0.992-4.186-1.355-8.905-4.043-13.383l-2.456-4.082
				c-6.246-10.32-12.157-20.071-15.172-32.833c-0.252-1.047-0.745-2.128-2.54-2.128c-1.28,0-2.636,0.62-3.359,1.543
				c-0.588,0.744-0.746,1.612-0.483,2.735c2.279,9.622,6.269,19.073,12.548,29.727l0.787,1.328
				c4.398,7.391,11.759,19.749-2.532,29.119c-2.997,1.96-5.825,3.821-7.736,6.325c-3.56,4.641-4.944,11.299-3.812,18.255
				c0.252,1.554,0.641,3.065,1.113,4.533h-38.638c-24.63,0-44.591,19.964-44.591,44.588c0,24.629,19.961,44.594,44.591,44.594
				c23.945,0,43.479-18.877,44.534-42.567h12.767c1.06,23.69,20.599,42.567,44.545,42.567c24.621,0,44.589-19.965,44.589-44.594
				C420.43,247.925,400.467,227.961,375.848,227.961z M276.88,249.773c4.562-1.67,9.596,0.671,11.271,5.225
				c1.67,4.559-0.662,9.601-5.223,11.273c-4.558,1.672-9.604-0.667-11.276-5.225C269.995,256.487,272.329,251.447,276.88,249.773z
				 M250.09,268.954c-1.672-4.559,0.671-9.606,5.23-11.279c4.547-1.671,9.594,0.673,11.265,5.227
				c1.672,4.556-0.671,9.601-5.217,11.275C256.809,275.836,251.761,273.505,250.09,268.954z M269.124,295.333
				c-4.559,1.669-9.606-0.673-11.278-5.229c-1.672-4.557,0.671-9.596,5.221-11.271c4.559-1.675,9.606,0.667,11.278,5.223
				C276.011,288.614,273.672,293.658,269.124,295.333z M290.69,287.427c-4.556,1.669-9.606-0.673-11.277-5.223
				c-1.672-4.562,0.674-9.602,5.231-11.279c4.556-1.672,9.596,0.672,11.265,5.226C297.577,280.707,295.232,285.752,290.69,287.427z
				 M398.797,278.439h-15.392v15.397h-11.769v-15.397h-15.4v-11.771h15.4v-15.395h11.769v15.395h15.392V278.439z"/>
		</g>
	</g>
</g>
<g>
</g>
<g>
</g>
<g>
</g>
<g>
</g>
<g>
</g>
<g>
</g>
<g>
</g>
<g>
</g>
<g>
</g>
<g>
</g>
<g>
</g>
<g>
</g>
<g>
</g>
<g>
</g>
<g>
</g>
</svg>
