<?xml version="1.0" encoding="iso-8859-1"?>
<!-- Generator: Adobe Illustrator 16.0.0, SVG Export Plug-In . SVG Version: 6.00 Build 0)  -->
<!DOCTYPE svg PUBLIC "-//W3C//DTD SVG 1.1//EN" "http://www.w3.org/Graphics/SVG/1.1/DTD/svg11.dtd">
<svg version="1.1" id="Capa_1" xmlns="http://www.w3.org/2000/svg" xmlns:xlink="http://www.w3.org/1999/xlink" x="0px" y="0px"
	 width="548.291px" height="548.291px" viewBox="0 0 548.291 548.291" style="enable-background:new 0 0 548.291 548.291;"
	 xml:space="preserve">
<g>
	<g>
		<path d="M267.36,409.958c-6.294,0-10.367,0.558-12.777,1.114v81.623c2.41,0.551,6.289,0.551,9.812,0.551
			c25.551,0.189,42.208-13.88,42.208-43.675C306.786,423.649,291.61,409.958,267.36,409.958z"/>
		<path d="M472.929,131.399c-0.031-2.518-0.829-5-2.556-6.961L364.656,3.677c-0.021-0.031-0.053-0.042-0.084-0.075
			c-0.63-0.704-1.354-1.284-2.132-1.796c-0.23-0.149-0.462-0.283-0.703-0.418c-0.683-0.366-1.387-0.666-2.121-0.887
			c-0.2-0.06-0.377-0.139-0.577-0.194C358.231,0.118,357.411,0,356.572,0H96.757C84.904,0,75.255,9.649,75.255,21.502V526.79
			c0,11.858,9.649,21.501,21.502,21.501h354.775c11.863,0,21.503-9.643,21.503-21.501V132.6
			C473.036,132.199,472.971,131.795,472.929,131.399z M156.849,515.829c-14.252,0-28.323-3.695-35.354-7.591l5.735-23.317
			c7.591,3.885,19.255,7.774,31.279,7.774c12.956,0,19.803-5.365,19.803-13.517c0-7.77-5.923-12.211-20.913-17.581
			c-20.73-7.219-34.242-18.692-34.242-36.835c0-21.292,17.775-37.566,47.194-37.566c14.074,0,24.431,2.963,31.833,6.29
			l-6.283,22.771c-5.003-2.409-13.884-5.937-26.103-5.937c-12.213,0-18.137,5.553-18.137,12.037c0,7.957,7.038,11.47,23.147,17.586
			c22.013,8.142,32.381,19.612,32.381,37.196C207.189,498.053,191.083,515.829,156.849,515.829z M315.852,499.177
			c-13.141,10.909-33.129,16.096-57.561,16.096c-14.62,0-24.984-0.925-32.014-1.849V390.904c10.357-1.675,23.872-2.6,38.121-2.6
			c23.688,0,39.063,4.262,51.09,13.328c12.956,9.629,21.098,24.982,21.098,47.009C336.581,472.515,327.883,488.995,315.852,499.177z
			 M431.375,412.368h-47.943v28.499h44.799v22.956h-44.799v50.157h-28.31V389.229h76.253V412.368z M96.757,365.085V21.507H345.82
			v110.015c0,5.935,4.81,10.75,10.752,10.75h94.961l0.011,222.813H96.757z"/>
	</g>
	<g>
		<polygon points="244.21,121.151 248.242,47.912 238.932,47.912 242.964,121.151 		"/>
		<polygon points="188.117,214.753 133.477,263.697 140.062,270.277 188.995,215.635 		"/>
		<polygon points="287.184,270.277 283.154,343.521 292.466,343.521 288.428,270.282 		"/>
		<path d="M407.894,275.91l-28.944-19.137v-50.481l-44.227-25.528v-49.985l-46.919-27.081l-44.229,25.527l-44.229-25.527
			l-44.132,25.476l-28.759-19.009l-2.961,4.483l28.945,19.137v51.179l44.229,25.533v49.98l0.275,0.157l-22.121,24.2l3.968,3.622
			l22.914-25.071l41.88,24.172l44.229-25.533l44.231,25.533l44.692-25.8l28.2,18.64L407.894,275.91z M329.348,133.892v46.877
			L287.81,204.75l-41.542-23.981v-46.877l41.542-23.985L329.348,133.892z M157.815,133.892l41.542-23.985l41.542,23.985v46.877
			l-42.481,24.525l-40.596-23.438v-47.964H157.815z M202.044,257.363v-46.872l41.542-23.979l41.542,23.979v46.872l-41.542,23.985
			L202.044,257.363z M373.574,257.363l-41.538,23.985l-41.543-23.985v-46.872l42.478-24.527l40.599,23.436v47.963H373.574z"/>
	</g>
</g>
<g>
</g>
<g>
</g>
<g>
</g>
<g>
</g>
<g>
</g>
<g>
</g>
<g>
</g>
<g>
</g>
<g>
</g>
<g>
</g>
<g>
</g>
<g>
</g>
<g>
</g>
<g>
</g>
<g>
</g>
</svg>
