<?xml version="1.0" encoding="iso-8859-1"?>
<!-- Generator: Adobe Illustrator 16.0.0, SVG Export Plug-In . SVG Version: 6.00 Build 0)  -->
<!DOCTYPE svg PUBLIC "-//W3C//DTD SVG 1.1//EN" "http://www.w3.org/Graphics/SVG/1.1/DTD/svg11.dtd">
<svg version="1.1" id="Capa_1" xmlns="http://www.w3.org/2000/svg" xmlns:xlink="http://www.w3.org/1999/xlink" x="0px" y="0px"
	 width="550.801px" height="550.801px" viewBox="0 0 550.801 550.801" style="enable-background:new 0 0 550.801 550.801;"
	 xml:space="preserve">
<g>
	<g>
		<path d="M475.095,131.992c-0.032-2.526-0.833-5.021-2.568-6.993L366.324,3.694c-0.021-0.031-0.053-0.042-0.084-0.076
			c-0.633-0.707-1.36-1.29-2.141-1.804c-0.232-0.15-0.465-0.285-0.707-0.422c-0.686-0.366-1.393-0.667-2.131-0.889
			c-0.2-0.061-0.379-0.143-0.58-0.195C359.87,0.119,359.047,0,358.203,0H97.2C85.292,0,75.6,9.693,75.6,21.601v507.6
			c0,11.913,9.692,21.601,21.6,21.601H453.6c11.918,0,21.601-9.688,21.601-21.601V133.202
			C475.2,132.796,475.137,132.398,475.095,131.992z M97.2,21.601h250.203v110.515c0,5.964,4.831,10.8,10.8,10.8H453.6l0.011,223.836
			H97.2V21.601z M132.587,520.004c-14.085,0-27.989-3.66-34.939-7.499l5.669-23.056c7.501,3.839,19.023,7.688,30.915,7.688
			c12.804,0,19.575-5.305,19.575-13.357c0-7.684-5.854-12.071-20.672-17.381c-20.487-7.13-33.84-18.474-33.84-36.397
			c0-21.036,17.561-37.136,46.644-37.136c13.901,0,24.15,2.927,31.462,6.218l-6.22,22.507c-4.941-2.379-13.722-5.854-25.792-5.854
			c-12.068,0-17.927,5.489-17.927,11.886c0,7.868,6.95,11.344,22.863,17.382c21.769,8.047,32.012,19.391,32.012,36.767
			C182.342,502.443,166.422,520.004,132.587,520.004z M229.181,518.174h-27.988V394.886h27.988V518.174z M338.755,418.3H305.1
			v99.874h-27.991V418.3h-33.104v-23.414h94.75V418.3z M421.812,518.174l-11.153-22.317c-4.572-8.601-7.499-14.998-10.974-22.133
			h-0.364c-2.558,7.13-5.669,13.532-9.519,22.133l-10.241,22.317h-31.83L383.4,455.8l-34.389-60.914h32.016l10.789,22.497
			c3.66,7.498,6.407,13.536,9.334,20.487h0.369c2.922-7.863,5.3-13.353,8.411-20.487l10.426-22.497h31.83l-34.757,60.181
			l36.587,63.112h-32.205V518.174z"/>
		<g>
			<rect x="160.239" y="122.23" width="158.677" height="26.136"/>
			<polygon points="398.266,181.823 398.266,148.366 318.916,148.366 318.916,181.823 345.774,181.823 345.774,190.432 
				345.774,200.228 345.774,211.378 345.774,221.21 345.774,232.617 345.774,242.423 345.774,255.681 318.916,255.681 
				318.916,287.646 160.239,287.646 160.239,313.76 318.916,313.76 318.916,289.138 398.266,289.138 398.266,255.681 
				353.927,255.681 353.927,242.423 371.439,242.423 371.439,232.617 353.927,232.617 353.927,221.21 371.439,221.21 
				371.439,211.378 353.927,211.378 353.927,200.228 371.439,200.228 371.439,190.432 353.927,190.432 353.927,181.823 			"/>
			<rect x="180.652" y="161.805" width="117.866" height="113.922"/>
		</g>
	</g>
</g>
<g>
</g>
<g>
</g>
<g>
</g>
<g>
</g>
<g>
</g>
<g>
</g>
<g>
</g>
<g>
</g>
<g>
</g>
<g>
</g>
<g>
</g>
<g>
</g>
<g>
</g>
<g>
</g>
<g>
</g>
</svg>
