<?xml version="1.0" encoding="iso-8859-1"?>
<!-- Generator: Adobe Illustrator 16.0.0, SVG Export Plug-In . SVG Version: 6.00 Build 0)  -->
<!DOCTYPE svg PUBLIC "-//W3C//DTD SVG 1.1//EN" "http://www.w3.org/Graphics/SVG/1.1/DTD/svg11.dtd">
<svg version="1.1" id="Capa_1" xmlns="http://www.w3.org/2000/svg" xmlns:xlink="http://www.w3.org/1999/xlink" x="0px" y="0px"
	 width="550.801px" height="550.801px" viewBox="0 0 550.801 550.801" style="enable-background:new 0 0 550.801 550.801;"
	 xml:space="preserve">
<g>
	<g>
		<path d="M475.095,131.992c-0.032-2.526-0.844-5.021-2.579-6.993L366.324,3.694c-0.031-0.034-0.062-0.045-0.084-0.076
			c-0.633-0.707-1.371-1.29-2.151-1.804c-0.232-0.15-0.464-0.285-0.707-0.422c-0.675-0.366-1.382-0.67-2.13-0.892
			c-0.201-0.058-0.38-0.14-0.58-0.192C359.87,0.114,359.037,0,358.193,0H97.2C85.292,0,75.6,9.693,75.6,21.601v507.6
			c0,11.913,9.692,21.601,21.6,21.601H453.6c11.908,0,21.601-9.688,21.601-21.601V133.202
			C475.2,132.796,475.137,132.398,475.095,131.992z M141.782,524.232c-14.963,0-29.742-3.892-37.125-7.973l6.022-24.49
			c7.977,4.082,20.219,8.163,32.854,8.163c13.608,0,20.801-5.632,20.801-14.186c0-8.163-6.223-12.83-21.969-18.468
			c-21.766-7.577-35.952-19.627-35.952-38.675c0-22.359,18.658-39.467,49.56-39.467c14.776,0,25.663,3.111,33.434,6.613
			l-6.605,23.909c-5.255-2.531-14.575-6.223-27.411-6.223c-12.825,0-19.045,5.833-19.045,12.636c0,8.363,7.383,12.055,24.3,18.473
			c23.129,8.554,34.014,20.604,34.014,39.061C194.653,505.575,177.747,524.232,141.782,524.232z M280.188,522.292h-34.597
			l-41.984-131.013h32.463l15.936,55.397c4.472,15.551,8.554,30.517,11.665,46.844h0.577c3.299-15.747,7.381-31.293,11.853-46.254
			l16.722-55.982h31.493L280.188,522.292z M446.196,516.26c-9.134,3.111-26.431,7.393-43.728,7.393
			c-23.91,0-41.207-6.032-53.262-17.687c-12.055-11.274-18.657-28.382-18.468-47.625c0.2-43.542,31.884-68.423,74.841-68.423
			c16.906,0,29.932,3.302,36.339,6.413l-6.217,23.725c-7.193-3.111-16.126-5.643-30.513-5.643
			c-24.689,0-43.348,13.996-43.348,42.378c0,27.021,16.907,42.957,41.207,42.957c6.803,0,12.25-0.785,14.576-1.945v-27.401h-20.208
			v-23.129h48.779V516.26z M453.6,366.752H97.2V21.601h250.192v109.954c0,0-0.717,11.362,14.271,11.362c14.992,0,91.937,0,91.937,0
			V366.752z"/>
		<g>
			<path d="M181.646,228.67v-4.517h-10.16l-12.105-4.515v-4.179h-8.646c-0.253-0.269-0.49-0.557-0.707-0.852l0.047-10.716
				c0.48-0.588,1.071-1.073,1.767-1.458v1.039h10.892v-0.941c2.408,0.994,4.282,2.555,5.632,4.693l-0.05,10.892h10.887v-2.7
				l10.012-1.355v1.613h10.887v-10.892h-2.523c-2.331-9.292-7.425-16.999-15.156-22.929c-5.832-4.469-12.448-7.225-19.688-8.21
				v-2.41h-10.892v2.288c-0.061,0-0.113,0.006-0.179,0.011c-5.189,0.559-10.362,2.497-15.356,5.753
				c-6.805,4.39-11.541,10.46-14.062,18.035c-0.709,2.118-1.226,4.255-1.534,6.389h-2.421v10.892h2.389
				c0.744,5.685,2.732,10.945,5.933,15.665c3.344,4.946,7.723,8.867,13.025,11.667v4.235h10.392l12.037,4.374v4.472h6.705v10.064
				h0.158c-0.741,0.968-1.685,1.714-2.837,2.257v-0.949h-10.895v1.453c-1.205-0.34-2.226-0.81-3.059-1.416
				c-1.242-0.881-2.247-2.299-3.006-4.245h0.485v-10.89h-10.893v3.062l-10.46,1.305v-1.466h-10.897v10.89h3.375
				c2.312,10.668,7.459,18.857,15.314,24.369c5.537,3.881,11.968,6.19,19.132,6.871v2.31h10.897v-2.441l1.416-0.169l0.593-0.169
				c6.544-1.092,12.437-3.744,17.508-7.889c5.091-4.166,8.791-9.445,10.971-15.673c0.823-2.305,1.437-4.72,1.827-7.204h2.144v-10.89
				h-2.122C196.857,243.146,191.226,234.576,181.646,228.67z M166.092,289.349v-1.604h-10.895v1.888
				c-5.79-0.706-10.913-2.609-15.256-5.663c-5.957-4.214-10.054-10.562-12.227-18.884h0.556v-2.602l10.46-1.306v1.016h3.349
				c1.835,6.257,5.339,10.259,10.502,11.944c0.844,0.237,1.714,0.448,2.616,0.619v2.531h10.895v-2.79
				c5.131-1.215,8.701-4.427,10.455-9.413h3.267v-10.89h-3.288c-0.772-2.014-1.959-3.771-3.57-5.26v-4.962h-9.347l-12.923-4.817
				v-3.874h-9.342c-3.741-2.239-6.874-5.231-9.323-8.936c-2.394-3.602-3.944-7.538-4.641-11.744h1.962v-10.892h-1.793
				c0.242-1.464,0.593-2.88,1.041-4.225c1.846-5.529,5.163-10.091,9.867-13.547c3.968-2.922,8.461-4.771,13.386-5.509v1.69h10.892
				v-1.674c5.717,0.865,10.961,3.132,15.639,6.755c6.062,4.654,10.038,10.428,12.089,17.576h-1.247v2.484l-10.012,1.39v-1.432
				h-3.494c-2.339-6.178-6.687-10.099-12.97-11.701v-2.938h-10.893v2.7c-4.569,1.118-7.729,3.989-9.263,8.435h-3.396v10.893h3.37
				c1.092,3.267,3.08,5.848,5.935,7.699v4.044h9.748l12.517,4.667v4.026h8.385c7.016,4.672,11.119,10.969,12.469,19.156h-1.938
				v10.89h1.954c-0.29,1.714-0.733,3.354-1.332,4.915c-3.955,10.815-11.818,17.133-24.139,19.338
				C166.137,289.344,166.116,289.344,166.092,289.349z"/>
			<path d="M313.095,185.631v-10.893h-10.89v1.833h-10.299v-0.412l17.613-15.828h7.129v-10.465h-10.468v8.019l-18.757,16.849h-6.418
				v5.766l-12.108,10.876h-8.385v10.465h10.465v-6.89l9.373-8.424l-26.114,68.391l-24.408-70.247v-9.938h-10.897v1.832h-10.304
				v-1.832h-10.895v10.892h3.829l34.602,99.731v10.378h10.892v-1.682h12.744v1.682h10.897v-8.184l-0.087-0.48l38.741-101.435h3.744
				V185.631z M243.087,284.851l-34.446-99.296v-2.207h10.302v2.284h4.137l25.608,74.121v10.827h11.042v-10.893h-0.158l28.284-74.055
				h4.051v-2.284h10.304v1.896l-37.897,99.607h-4.503v2.441h-12.743v-2.441H243.087z"/>
			<path d="M436.777,239.62v-10.893h-11.042v2.286H379.74v-2.286h-11.043v10.893h1.83v10.46h-1.83v11.042h11.043v-1.98h16.247
				c-4.709,4.608-10.172,7.472-16.553,8.669v-1.563h-10.89v1.717c-7.104-0.949-13.168-3.921-18.452-9.039
				c-5.252-5.089-8.385-10.974-9.513-17.93h1.339v-11.042h-1.529c1.055-7.09,4.177-13.134,9.503-18.41
				c5.331-5.292,11.454-8.358,18.652-9.323v1.717h10.89v-1.458c4.978,0.88,9.561,2.895,13.663,6.009v5.666h11.043v-1.961
				l15.34,0.114v1.854h11.043v-10.893h-4.82c-5.094-8.372-11.844-15.227-20.081-20.4c-7.974-5.007-16.77-7.984-26.188-8.846v-2.624
				h-10.896v2.573c-14.887,1.065-27.844,7.001-38.549,17.653c-10.705,10.655-16.717,23.538-17.877,38.33h-2.594v11.042h2.626
				c1.35,14.7,7.456,27.454,18.161,37.964c10.695,10.499,23.541,16.343,38.228,17.407v2.278h10.89v-2.352
				c9.165-0.938,17.74-3.855,25.555-8.69v8.295h10.896v-2.136h9.851v2.136h11.043v-10.89h-2.278l0.137-45.384h2.151V239.62z
				 M368.545,287.745v1.825c-12.904-1.039-24.179-6.238-33.528-15.462c-9.34-9.205-14.739-20.34-16.058-33.123h1.455v-11.042h-1.498
				c1.15-12.891,6.477-24.155,15.879-33.513c9.413-9.363,20.751-14.676,33.75-15.81v1.803h10.89v-1.606
				c7.899,0.839,15.356,3.391,22.19,7.61c7.077,4.358,12.931,10.109,17.434,17.112h-14.918v-2.284h-6.935
				c-5.189-4.039-11.153-6.594-17.771-7.614v-2.756h-10.89v2.502c-9.023,1.02-16.875,4.823-23.377,11.33
				c-6.503,6.5-10.347,14.305-11.454,23.225h-2.685v11.042h2.716c1.202,8.835,5.126,16.498,11.687,22.81
				c6.539,6.292,14.301,9.98,23.113,10.982v2.352h10.89v-2.584c9.661-1.387,17.782-5.896,24.194-13.429h5.548v-11.042h-10.9v2.442
				h-18.547v-2.442h-2.431v-10.46h2.431v-1.83h46v1.83h2.115c-0.021,3.726-0.068,11.264-0.127,22.615v22.768h-1.982v1.982h-9.851
				v-12.661h-10.896v5.289c-7.72,5.506-16.295,8.817-25.555,9.861v-1.729h-10.89V287.745z"/>
		</g>
	</g>
</g>
<g>
</g>
<g>
</g>
<g>
</g>
<g>
</g>
<g>
</g>
<g>
</g>
<g>
</g>
<g>
</g>
<g>
</g>
<g>
</g>
<g>
</g>
<g>
</g>
<g>
</g>
<g>
</g>
<g>
</g>
</svg>
