<?xml version="1.0" encoding="iso-8859-1"?>
<!-- Generator: Adobe Illustrator 16.0.0, SVG Export Plug-In . SVG Version: 6.00 Build 0)  -->
<!DOCTYPE svg PUBLIC "-//W3C//DTD SVG 1.1//EN" "http://www.w3.org/Graphics/SVG/1.1/DTD/svg11.dtd">
<svg version="1.1" id="Capa_1" xmlns="http://www.w3.org/2000/svg" xmlns:xlink="http://www.w3.org/1999/xlink" x="0px" y="0px"
	 width="550.801px" height="550.801px" viewBox="0 0 550.801 550.801" style="enable-background:new 0 0 550.801 550.801;"
	 xml:space="preserve">
<g>
	<g>
		<path d="M475.095,131.992c-0.032-2.531-0.833-5.021-2.568-6.993L366.324,3.694c-0.021-0.031-0.062-0.045-0.084-0.076
			c-0.633-0.707-1.36-1.295-2.141-1.804c-0.232-0.155-0.475-0.285-0.718-0.422c-0.675-0.366-1.382-0.675-2.13-0.896
			c-0.19-0.053-0.38-0.135-0.58-0.188C359.87,0.119,359.047,0,358.203,0H97.2C85.292,0,75.6,9.693,75.6,21.601v507.6
			c0,11.907,9.692,21.601,21.6,21.601H453.6c11.908,0,21.601-9.693,21.601-21.601V133.197
			C475.2,132.796,475.137,132.398,475.095,131.992z M140.822,516.691c-13.964,0-27.751-3.617-34.641-7.425l5.622-22.85
			c7.436,3.808,18.86,7.615,30.649,7.615c12.696,0,19.404-5.269,19.404-13.236c0-7.615-5.801-11.977-20.493-17.229
			c-20.311-7.072-33.552-18.314-33.552-36.086c0-20.862,17.416-36.814,46.246-36.814c13.787,0,23.938,2.896,31.192,6.159
			l-6.167,22.307c-4.899-2.352-13.608-5.801-25.576-5.801c-11.965,0-17.769,5.442-17.769,11.792c0,7.805,6.89,11.243,22.673,17.223
			c21.579,7.984,31.736,19.237,31.736,36.461C190.149,499.289,174.372,516.691,140.822,516.691z M324,514.889h-29.927
			l-10.336-52.598c-2.357-12.324-4.351-23.757-5.806-37.721h-0.359c-2.172,13.801-4.171,25.396-7.077,37.721l-11.599,52.598h-30.288
			L199.594,392.65h29.566l9.249,50.414c2.716,14.518,5.255,30.29,7.254,42.619h0.361c1.993-13.23,4.891-27.928,7.981-42.979
			l10.336-50.055h29.378l9.793,51.511c2.721,14.322,4.715,27.38,6.528,40.985h0.354c1.814-13.605,4.535-27.939,7.082-42.441
			l9.982-50.055h28.107L324,514.889z M444.614,415.315h-46.966v27.928h43.886v22.497h-43.886v49.148H369.9V392.65h74.714V415.315z
			 M97.2,366.747V21.601h250.203v110.51c0,5.97,4.831,10.8,10.8,10.8H453.6l0.011,223.837H97.2z"/>
		<path d="M291.927,158.225c-26.161,19.609-42.723,72.815-56.671,102.022c-13.959,29.202-39.672,25.737-39.672,25.737v34.414
			c0,0,16.124,0.443,29.624-5.189c13.542-5.674,29.225-18.335,38.404-34.003c3.564-6.141,9.028-18.744,14.963-32.719h41.281v-35.321
			h-26.183c4.028-8.976,7.673-16.577,10.446-20.915c10.041-15.67,34.899-15.272,34.899-15.272v-33.581
			C339.019,143.398,318.083,138.597,291.927,158.225z"/>
	</g>
</g>
<g>
</g>
<g>
</g>
<g>
</g>
<g>
</g>
<g>
</g>
<g>
</g>
<g>
</g>
<g>
</g>
<g>
</g>
<g>
</g>
<g>
</g>
<g>
</g>
<g>
</g>
<g>
</g>
<g>
</g>
</svg>
