<?xml version="1.0" encoding="iso-8859-1"?>
<!-- Generator: Adobe Illustrator 16.0.0, SVG Export Plug-In . SVG Version: 6.00 Build 0)  -->
<!DOCTYPE svg PUBLIC "-//W3C//DTD SVG 1.1//EN" "http://www.w3.org/Graphics/SVG/1.1/DTD/svg11.dtd">
<svg version="1.1" id="Capa_1" xmlns="http://www.w3.org/2000/svg" xmlns:xlink="http://www.w3.org/1999/xlink" x="0px" y="0px"
	 width="550.801px" height="550.801px" viewBox="0 0 550.801 550.801" style="enable-background:new 0 0 550.801 550.801;"
	 xml:space="preserve">
<g>
	<g>
		<g>
			<path d="M475.095,131.997c-0.031-2.528-0.828-5.023-2.562-6.992L366.325,3.691c-0.021-0.031-0.053-0.042-0.085-0.073
				c-0.633-0.709-1.36-1.292-2.141-1.804c-0.232-0.153-0.464-0.287-0.707-0.422c-0.686-0.369-1.392-0.67-2.13-0.892
				c-0.2-0.061-0.38-0.14-0.58-0.195C359.87,0.116,359.048,0,358.204,0H97.2c-11.907,0-21.6,9.693-21.6,21.601v507.6
				c0,11.907,9.692,21.601,21.6,21.601h356.4c11.918,0,21.6-9.693,21.6-21.601V133.202
				C475.2,132.796,475.137,132.396,475.095,131.997z M206.005,414.43H171.44v102.568H142.7V414.43h-33.998v-24.042h97.303V414.43z
				 M321.532,511.176c-8.827,3.006-25.544,7.141-42.267,7.141c-23.1,0-39.825-5.833-51.471-17.097
				c-11.644-10.9-18.033-27.433-17.843-46.021c0.185-42.077,30.808-66.124,72.326-66.124c16.337,0,28.925,3.196,35.121,6.191
				l-6.012,22.918c-6.951-3-15.589-5.441-29.489-5.441c-23.857,0-41.895,13.521-41.895,40.948c0,26.113,16.34,41.518,39.825,41.518
				c6.579,0,11.831-0.749,14.088-1.878v-26.493H274.38v-22.349h47.147v66.688H321.532z M419.392,516.998l-9.771-32.501h-36.25
				l-9.018,32.501h-29.689l38.707-126.61h37.568l39.261,126.61H419.392z M97.2,366.752V21.601h250.204v110.515
				c0,5.961,4.83,10.8,10.8,10.8h95.396l0.011,223.836H97.2z"/>
			<path d="M391.216,411.803h-0.38c-1.877,7.521-3.755,17.097-5.827,24.427l-7.515,26.857h27.997l-7.89-26.857
				C395.345,428.715,393.093,419.323,391.216,411.803z"/>
		</g>
		<path style="fill:#231F20;" d="M327.48,185.359c-0.985,0-1.961,0.05-2.932,0.113l-9.239-76.471l-62.988,47.271H146.987v109.503
			h109.508v-50.103l12.44,5.31c-4.952,9.45-7.554,19.942-7.554,30.489c0,36.448,29.66,66.1,66.1,66.1
			c36.45,0,66.103-29.652,66.103-66.1C393.583,215.017,363.931,185.359,327.48,185.359z M258.412,161.307l50.865-38.166
			l7.393,61.161c-18.562,2.984-35.016,13.542-45.578,29.257l-12.675-5.416v-46.836H258.412z M277.204,218.257
			c9.618-14.518,25.165-24.318,42.287-26.607l5.69,47.078L277.204,218.257z M250.734,164.666v42.288l-35.917-15.33L250.734,164.666z
			"/>
	</g>
</g>
<g>
</g>
<g>
</g>
<g>
</g>
<g>
</g>
<g>
</g>
<g>
</g>
<g>
</g>
<g>
</g>
<g>
</g>
<g>
</g>
<g>
</g>
<g>
</g>
<g>
</g>
<g>
</g>
<g>
</g>
</svg>
