<?xml version="1.0" encoding="iso-8859-1"?>
<!-- Generator: Adobe Illustrator 16.0.0, SVG Export Plug-In . SVG Version: 6.00 Build 0)  -->
<!DOCTYPE svg PUBLIC "-//W3C//DTD SVG 1.1//EN" "http://www.w3.org/Graphics/SVG/1.1/DTD/svg11.dtd">
<svg version="1.1" id="Capa_1" xmlns="http://www.w3.org/2000/svg" xmlns:xlink="http://www.w3.org/1999/xlink" x="0px" y="0px"
	 width="550.801px" height="550.801px" viewBox="0 0 550.801 550.801" style="enable-background:new 0 0 550.801 550.801;"
	 xml:space="preserve">
<g>
	<g>
		<path d="M475.095,131.992c-0.031-2.526-0.828-5.023-2.562-6.993L366.325,3.694c-0.021-0.034-0.053-0.045-0.085-0.076
			c-0.633-0.707-1.36-1.292-2.141-1.804c-0.232-0.153-0.464-0.287-0.707-0.422c-0.686-0.366-1.392-0.67-2.13-0.892
			c-0.2-0.058-0.38-0.14-0.58-0.195C359.87,0.119,359.048,0,358.204,0H97.2c-11.907,0-21.6,9.693-21.6,21.601v507.6
			c0,11.913,9.692,21.601,21.6,21.601h356.4c11.918,0,21.6-9.688,21.6-21.601V133.202
			C475.2,132.796,475.137,132.398,475.095,131.992z M191.635,418.796h-31.427v93.255h-26.125v-93.255h-30.91v-21.858h88.462V418.796
			z M300.418,512.041h-25.956v-48.157h-42.868v48.157h-26.13V396.938h26.13v44.229h42.868v-44.229h25.956V512.041z M422.182,512.041
			l-1.709-44.055c-0.506-13.838-1.018-30.57-1.018-47.313h-0.512c-3.591,14.692-8.374,31.082-12.814,44.571l-14.006,44.914H371.81
			l-12.298-44.571c-3.755-13.489-7.688-29.885-10.42-44.914h-0.338c-0.686,15.546-1.202,33.308-2.052,47.651l-2.051,43.717h-24.079
			l7.341-115.104h34.668l11.274,38.428c3.586,13.32,7.172,27.664,9.734,41.159h0.512c3.254-13.326,7.178-28.524,10.932-41.328
			l12.298-38.259h33.982l6.317,115.104H422.182z M97.2,366.752V21.601h250.204v110.515c0,5.961,4.83,10.8,10.8,10.8h95.396
			l0.011,223.836H97.2z"/>
		<g>
			<path d="M304.441,185.528c2.516,0,5.047-0.201,7.535-0.609c3.196,1.16,6.782,1.764,10.432,1.764
				c12.366,0,22.048-6.689,22.048-15.222c0-8.543-9.682-15.229-22.048-15.229c-3.064,0-6.117,0.422-8.881,1.239
				c-1.561-0.817-3.291-1.239-5.062-1.239h-2.5c-4.113,0-7.852,2.357-9.724,5.969c-9.182,1.619-14.618,5.788-14.618,11.312
				C281.623,181.765,293.446,185.528,304.441,185.528z M322.402,165.921c7.662,0,12.355,3.589,12.355,5.535
				c0,1.949-4.693,5.529-12.355,5.529c-2.911,0-5.689-0.541-8.026-1.54L313,174.867l-1.466,0.288
				c-2.326,0.453-4.715,0.686-7.099,0.686c-6.259,0-10.283-1.313-12.176-2.318c1.365-0.732,3.96-1.689,8.137-2.127l3.85-0.409
				l0.453-3.839c0.085-0.741,0.597-1.231,1.256-1.231h2.505c0.343,0,0.669,0.145,0.938,0.403l2.268,2.199l2.927-1.189
				C316.892,166.412,319.592,165.921,322.402,165.921z"/>
			<path d="M217.295,176.305c10.592,0,19.214-8.625,19.214-19.219c0-10.6-8.617-19.219-19.214-19.219
				c-10.61,0-19.24,8.62-19.24,19.219C198.055,167.68,206.685,176.305,217.295,176.305z M217.295,166.612
				c-5.268,0-9.553-4.271-9.553-9.527c0-5.255,4.285-9.526,9.553-9.526c5.25,0,9.521,4.271,9.521,9.526
				C226.816,162.341,222.545,166.612,217.295,166.612z"/>
			<path d="M176.938,95.737l-0.113,232.028h197.042l0.116-232.028H176.938z M186.63,283.121V105.43h177.654v177.691H186.63z"/>
			<path d="M312.398,209.25c-1.233,0-2.479,0.156-3.728,0.48c-10.869,2.781-18.336,16.231-23.146,29.283
				c-4.802-15.288-13.711-37.193-28.437-51.954c-3.488-3.48-7.296-5.242-11.33-5.242c-20.864,0-36.445,51.073-42.243,73.406
				l-0.849,8.754h144.701l-5.669-17.613C334.362,227.589,326.041,209.25,312.398,209.25z M245.764,191.511
				c1.39,0,2.853,0.788,4.472,2.404c18.162,18.186,26.974,50.056,29.447,60.37h-65.95
				C223.636,217.749,236.973,191.511,245.764,191.511z M334.083,254.285h-43.2c4.124-15.999,11.887-33.038,20.188-35.168
				c8.685-2.318,17.761,20.936,21.51,30.491L334.083,254.285z"/>
		</g>
	</g>
</g>
<g>
</g>
<g>
</g>
<g>
</g>
<g>
</g>
<g>
</g>
<g>
</g>
<g>
</g>
<g>
</g>
<g>
</g>
<g>
</g>
<g>
</g>
<g>
</g>
<g>
</g>
<g>
</g>
<g>
</g>
</svg>
