<?xml version="1.0" encoding="iso-8859-1"?>
<!-- Generator: Adobe Illustrator 16.0.0, SVG Export Plug-In . SVG Version: 6.00 Build 0)  -->
<!DOCTYPE svg PUBLIC "-//W3C//DTD SVG 1.1//EN" "http://www.w3.org/Graphics/SVG/1.1/DTD/svg11.dtd">
<svg version="1.1" id="Capa_1" xmlns="http://www.w3.org/2000/svg" xmlns:xlink="http://www.w3.org/1999/xlink" x="0px" y="0px"
	 width="550.801px" height="550.801px" viewBox="0 0 550.801 550.801" style="enable-background:new 0 0 550.801 550.801;"
	 xml:space="preserve">
<g>
	<g>
		<path d="M475.095,131.986c-0.032-2.525-0.844-5.015-2.579-6.992L366.324,3.684c-0.031-0.029-0.062-0.045-0.084-0.071
			c-0.633-0.712-1.371-1.289-2.151-1.803c-0.232-0.15-0.464-0.29-0.707-0.422c-0.675-0.372-1.382-0.669-2.13-0.891
			c-0.201-0.058-0.38-0.145-0.58-0.188C359.87,0.114,359.037,0,358.193,0H97.2C85.292,0,75.6,9.688,75.6,21.601v507.6
			c0,11.907,9.692,21.601,21.6,21.601H453.6c11.908,0,21.601-9.693,21.601-21.601V133.197
			C475.2,132.791,475.137,132.393,475.095,131.986z M198.893,412.921h-35.765v106.134h-29.731V412.921H98.21v-24.88h100.683V412.921
			z M244.392,519.055H214.65V388.041h29.742V519.055z M350.135,412.341h-50.34v29.933h47.039v24.1h-47.039v52.682h-29.742V388.041
			h80.082V412.341z M452.588,412.341h-50.352v29.933h47.045v24.1h-47.045v52.682h-29.731V388.041h80.083V412.341z M97.2,366.747
			V21.601h250.192v110.51c0,5.962,4.842,10.8,10.801,10.8H453.6v223.837H97.2z"/>
		<path d="M385.009,162.896H274.245l-8.079-16.266c-1.302-2.094-3.736-4.335-7.588-4.335h-49.549c-2.402,0-5.357,1.965-6.895,4.335
			l-7.594,16.266h-28.759c-11.979,0-21.692,9.719-21.692,21.708v130.23c0,11.992,9.714,21.711,21.692,21.711h219.232
			c11.992,0,21.705-9.719,21.705-21.711v-130.23C406.709,172.616,397.006,162.896,385.009,162.896z M307.41,305.068h-32.52
			c-4.474-10.314-9.95-26.852-18.229-24.943c-9.131,2.078-14.022,22.139-14.65,24.943h-0.156
			c-0.627-3.026-5.864-26.156-18.797-37.758c-13.199-11.831-26.024,33.603-27.174,37.758h-28.464v-109.61H307.42v109.61H307.41z
			 M357.423,288.289c-21.547,0-39.076-17.532-39.076-39.068c0-21.545,17.529-39.068,39.076-39.068
			c21.531,0,39.05,17.523,39.05,39.068C396.479,270.763,378.96,288.289,357.423,288.289z"/>
		<path d="M357.423,214.495c-19.163,0-34.741,15.577-34.741,34.726c0,19.15,15.578,34.728,34.741,34.728
			c19.143,0,34.721-15.577,34.721-34.728C392.144,230.072,376.565,214.495,357.423,214.495z M337.342,260.616l-11.401-11.396
			l11.401-11.394V260.616z M357.423,279.43l-11.411-11.401h22.791L357.423,279.43z M346.012,230.407l11.411-11.393l11.375,11.393
			H346.012z M374.963,260.616v-22.794l11.396,11.393L374.963,260.616z"/>
		<path d="M239.899,234.483c2.977,0,5.708-0.264,8.145-0.706c2.877,1.102,6.339,1.761,10.125,1.761
			c9.65,0,17.458-4.239,17.458-9.444c0-5.213-7.808-9.435-17.458-9.435c-3.617,0-6.992,0.578-9.79,1.614
			c-1.134-0.989-2.674-1.614-4.385-1.614h-2.555c-3.206,0-5.777,2.197-6.162,5c-7.808,0.751-13.624,3.262-13.624,6.286
			C221.653,231.567,229.83,234.483,239.899,234.483z"/>
		<circle cx="203.217" cy="224.402" r="7.819"/>
	</g>
</g>
<g>
</g>
<g>
</g>
<g>
</g>
<g>
</g>
<g>
</g>
<g>
</g>
<g>
</g>
<g>
</g>
<g>
</g>
<g>
</g>
<g>
</g>
<g>
</g>
<g>
</g>
<g>
</g>
<g>
</g>
</svg>
