<?xml version="1.0" encoding="iso-8859-1"?>
<!-- Generator: Adobe Illustrator 16.0.0, SVG Export Plug-In . SVG Version: 6.00 Build 0)  -->
<!DOCTYPE svg PUBLIC "-//W3C//DTD SVG 1.1//EN" "http://www.w3.org/Graphics/SVG/1.1/DTD/svg11.dtd">
<svg version="1.1" id="Capa_1" xmlns="http://www.w3.org/2000/svg" xmlns:xlink="http://www.w3.org/1999/xlink" x="0px" y="0px"
	 width="548.291px" height="548.291px" viewBox="0 0 548.291 548.291" style="enable-background:new 0 0 548.291 548.291;"
	 xml:space="preserve">
<g>
	<g>
		<g>
			<path d="M472.929,131.39c-0.031-2.514-0.829-4.997-2.556-6.96L364.656,3.677c-0.021-0.031-0.053-0.044-0.084-0.075
				c-0.63-0.704-1.354-1.284-2.132-1.796c-0.23-0.149-0.462-0.283-0.703-0.419c-0.683-0.365-1.387-0.667-2.121-0.888
				c-0.2-0.058-0.377-0.139-0.577-0.191C358.231,0.118,357.411,0,356.572,0H96.757C84.904,0,75.255,9.649,75.255,21.502V526.79
				c0,11.858,9.649,21.501,21.502,21.501h354.775c11.863,0,21.503-9.643,21.503-21.501V132.595
				C473.036,132.191,472.971,131.795,472.929,131.39z M197.879,419.145h-31.564v93.66h-26.242v-93.66h-31.048v-21.954h88.859v21.954
				H197.879z M310.585,512.805l-1.706-44.259c-0.515-13.894-1.034-30.703-1.034-47.516h-0.514
				c-3.601,14.743-8.398,31.218-12.871,44.771l-14.064,45.114h-20.409l-12.354-44.769c-3.777-13.548-7.72-30.021-10.465-45.116
				h-0.344c-0.687,15.605-1.204,33.448-2.06,47.858l-2.058,43.916h-24.189l7.375-115.624h34.828l11.32,38.593
				c3.601,13.387,7.208,27.802,9.777,41.346h0.516c3.262-13.375,7.204-28.642,10.978-41.513l12.353-38.426h34.137l6.347,115.624
				H310.585z M428.641,459.802c-8.926,8.404-22.133,12.173-37.57,12.173c-3.433,0-6.521-0.167-8.925-0.515v41.345h-25.899V398.729
				c8.062-1.374,19.386-2.397,35.339-2.397c16.125,0,27.621,3.086,35.339,9.264c7.375,5.832,12.356,15.438,12.356,26.769
				C439.281,443.686,435.501,453.277,428.641,459.802z M96.757,365.081V21.502H345.82v110.011c0,5.935,4.81,10.751,10.752,10.751
				h94.961l0.011,222.816H96.757z"/>
			<path d="M392.959,416.047c-5.321,0-8.923,0.52-10.813,1.028v34.144c2.23,0.515,4.976,0.682,8.757,0.682
				c13.889,0,22.466-7.028,22.466-18.867C413.369,422.405,405.989,416.047,392.959,416.047z"/>
		</g>
		<path d="M354.65,153c-0.011-1.016-0.335-2.027-1.028-2.816l-42.826-48.912c0-0.005-0.021-0.016-0.031-0.026
			c-0.252-0.29-0.545-0.52-0.859-0.725c-0.102-0.071-0.189-0.118-0.283-0.174c-0.285-0.144-0.568-0.268-0.862-0.354
			c-0.083-0.026-0.158-0.065-0.23-0.086c-0.33-0.074-0.662-0.118-1.003-0.118H202.301c-4.798,0-8.706,3.909-8.706,8.709v204.63
			c0,4.808,3.908,8.708,8.706,8.708h143.677c4.808,0,8.714-3.911,8.714-8.708V153.491C354.692,153.322,354.661,153.163,354.65,153z
			 M202.301,311.857V108.498h100.872v44.557c0,2.397,1.942,4.35,4.353,4.35h38.463v154.453H202.301z"/>
	</g>
</g>
<g>
</g>
<g>
</g>
<g>
</g>
<g>
</g>
<g>
</g>
<g>
</g>
<g>
</g>
<g>
</g>
<g>
</g>
<g>
</g>
<g>
</g>
<g>
</g>
<g>
</g>
<g>
</g>
<g>
</g>
</svg>
