<?xml version="1.0" encoding="iso-8859-1"?>
<!-- Generator: Adobe Illustrator 16.0.0, SVG Export Plug-In . SVG Version: 6.00 Build 0)  -->
<!DOCTYPE svg PUBLIC "-//W3C//DTD SVG 1.1//EN" "http://www.w3.org/Graphics/SVG/1.1/DTD/svg11.dtd">
<svg version="1.1" id="Capa_1" xmlns="http://www.w3.org/2000/svg" xmlns:xlink="http://www.w3.org/1999/xlink" x="0px" y="0px"
	 width="550.801px" height="550.801px" viewBox="0 0 550.801 550.801" style="enable-background:new 0 0 550.801 550.801;"
	 xml:space="preserve">
<g>
	<g>
		<path d="M475.095,131.992c-0.031-2.526-0.833-5.021-2.568-6.993L366.319,3.694c-0.021-0.034-0.053-0.045-0.089-0.076
			c-0.628-0.707-1.361-1.29-2.136-1.804c-0.232-0.15-0.465-0.285-0.707-0.422c-0.686-0.366-1.393-0.67-2.136-0.892
			c-0.2-0.058-0.374-0.14-0.575-0.192C359.87,0.119,359.037,0,358.198,0H97.2c-11.907,0-21.6,9.693-21.6,21.601v507.6
			c0,11.913,9.692,21.601,21.6,21.601h356.4c11.918,0,21.6-9.688,21.6-21.601V133.202
			C475.2,132.796,475.137,132.398,475.095,131.992z M225.543,423.131H191.89v99.879h-27.994v-99.879h-33.109v-23.414h94.756V423.131
			z M329.822,423.131h-33.655v99.879h-27.991v-99.879h-33.109v-23.414h94.756V423.131z M420.02,422.587h-47.382v28.166h44.265
			v22.687h-44.265v49.57h-27.997V399.717h75.368v22.87H420.02z M97.2,366.752V21.601h250.204v110.515c0,5.961,4.83,10.8,10.8,10.8
			h95.396l0.011,223.836H97.2z"/>
		<g>
			<path d="M282.509,160.11c-2.893-12.564-5.247-19.111-8.39-23.295c-4.185-6.286-8.638-8.116-28.263-8.116H227.27v128.791
				c0,20.685,2.091,23.295,26.958,24.872v7.319h-75.12v-7.319c23.815-1.577,25.914-4.188,25.914-24.872V128.698H188.79
				c-21.724,0-26.968,2.097-30.365,8.116c-3.143,4.451-5.244,11.778-8.374,23.295h-7.594c1.308-15.707,2.613-32.724,3.143-47.126
				h5.234c3.67,6.022,7.066,6.545,14.396,6.545h103.399c7.069,0,9.163-1.566,13.352-6.545h5.495c0,12.042,1.308,31.158,2.615,46.333
				L282.509,160.11z"/>
			<path d="M377.252,194.421c-2.88-12.567-5.231-19.111-8.375-23.295c-4.187-6.286-8.643-8.116-28.275-8.116h-18.584v128.791
				c0,20.688,2.099,23.298,26.958,24.869v7.325h-75.131v-7.325c23.825-1.571,25.924-4.182,25.924-24.869V163.01h-16.242
				c-21.713,0-26.958,2.096-30.364,8.116c-3.143,4.451-5.231,11.778-8.374,23.295h-7.583c1.308-15.709,2.603-32.724,3.132-47.126
				h5.245c3.659,6.022,7.069,6.547,14.396,6.547h103.388c7.083,0,9.16-1.566,13.353-6.547h5.5c0,12.042,1.318,31.158,2.627,46.333
				L377.252,194.421z"/>
		</g>
	</g>
</g>
<g>
</g>
<g>
</g>
<g>
</g>
<g>
</g>
<g>
</g>
<g>
</g>
<g>
</g>
<g>
</g>
<g>
</g>
<g>
</g>
<g>
</g>
<g>
</g>
<g>
</g>
<g>
</g>
<g>
</g>
</svg>
