<?xml version="1.0" encoding="iso-8859-1"?>
<!-- Generator: Adobe Illustrator 16.0.0, SVG Export Plug-In . SVG Version: 6.00 Build 0)  -->
<!DOCTYPE svg PUBLIC "-//W3C//DTD SVG 1.1//EN" "http://www.w3.org/Graphics/SVG/1.1/DTD/svg11.dtd">
<svg version="1.1" id="Capa_1" xmlns="http://www.w3.org/2000/svg" xmlns:xlink="http://www.w3.org/1999/xlink" x="0px" y="0px"
	 width="550.801px" height="550.801px" viewBox="0 0 550.801 550.801" style="enable-background:new 0 0 550.801 550.801;"
	 xml:space="preserve">
<g>
	<g>
		<path d="M475.095,131.997c-0.032-2.526-0.833-5.021-2.568-6.992L366.324,3.694c-0.021-0.031-0.053-0.042-0.084-0.076
			c-0.633-0.707-1.36-1.29-2.141-1.804c-0.232-0.15-0.465-0.285-0.707-0.422c-0.686-0.366-1.393-0.667-2.131-0.889
			c-0.2-0.061-0.379-0.143-0.58-0.195C359.87,0.119,359.047,0,358.203,0H97.2C85.292,0,75.6,9.693,75.6,21.601v507.6
			c0,11.913,9.692,21.601,21.6,21.601H453.6c11.918,0,21.601-9.688,21.601-21.601V133.202
			C475.2,132.799,475.137,132.398,475.095,131.997z M210.811,465.624c0,38.042-19.208,56.156-51.398,56.156
			c-31.103,0-49.388-17.196-49.388-56.525v-68.776h27.984v70.97c0,21.226,8.044,32.021,22.317,32.021
			c14.639,0,22.686-10.241,22.686-32.021v-70.97h27.799V465.624z M335.58,465.624c0,38.042-19.205,56.156-51.395,56.156
			c-31.103,0-49.389-17.196-49.389-56.525v-68.776h27.984v70.97c0,21.226,8.044,32.021,22.317,32.021
			c14.64,0,22.687-10.241,22.687-32.021v-70.97h27.796V465.624z M438.402,519.767h-78.659V396.479h76.096v22.865h-48.104v25.608
			h45.362v22.676h-45.362v29.268h50.668V519.767L438.402,519.767z M97.2,366.752V21.601h250.203v110.515
			c0,5.961,4.831,10.8,10.8,10.8H453.6l0.011,223.836H97.2z"/>
		<g>
			<rect x="259.917" y="28.535" width="32.759" height="13.51"/>
			<rect x="227.156" y="10.212" width="32.756" height="10.125"/>
			<rect x="227.156" y="48.756" width="32.756" height="13.516"/>
			<rect x="259.917" y="70.886" width="32.759" height="13.521"/>
			<rect x="260.993" y="110.896" width="32.759" height="13.521"/>
			<rect x="227.156" y="91.888" width="32.756" height="13.521"/>
			<rect x="228.237" y="137.118" width="32.756" height="13.51"/>
			<rect x="260.993" y="157.341" width="32.759" height="13.516"/>
			<rect x="228.237" y="179.474" width="32.756" height="13.521"/>
			<path d="M259.917,204.299c-16.092,0-23.738,13.041-23.738,29.138l-5.39,48.808c0,16.095,13.036,29.142,29.133,29.142
				c16.1,0,29.136-13.047,29.136-29.142l-5.379-48.808C283.669,217.345,276.012,204.299,259.917,204.299z M269.567,298.588H250.28
				V257.84h19.287V298.588z"/>
		</g>
	</g>
</g>
<g>
</g>
<g>
</g>
<g>
</g>
<g>
</g>
<g>
</g>
<g>
</g>
<g>
</g>
<g>
</g>
<g>
</g>
<g>
</g>
<g>
</g>
<g>
</g>
<g>
</g>
<g>
</g>
<g>
</g>
</svg>
