<?xml version="1.0" encoding="iso-8859-1"?>
<!-- Generator: Adobe Illustrator 16.0.0, SVG Export Plug-In . SVG Version: 6.00 Build 0)  -->
<!DOCTYPE svg PUBLIC "-//W3C//DTD SVG 1.1//EN" "http://www.w3.org/Graphics/SVG/1.1/DTD/svg11.dtd">
<svg version="1.1" id="Capa_1" xmlns="http://www.w3.org/2000/svg" xmlns:xlink="http://www.w3.org/1999/xlink" x="0px" y="0px"
	 width="548.29px" height="548.291px" viewBox="0 0 548.29 548.291" style="enable-background:new 0 0 548.29 548.291;"
	 xml:space="preserve">
<g>
	<g>
		<g>
			<path d="M331.636,460.364h-10.289v37.606c2.961,0.394,6.531,0.394,11.676,0.394c13.659,0,25.723-5.144,25.723-19.196
				C358.745,465.718,346.682,460.364,331.636,460.364z"/>
			<path d="M355.584,422.369c0-10.09-7.723-15.434-21.38-15.434c-6.531,0-10.289,0.389-12.867,0.787v31.071h9.896
				C347.069,438.798,355.584,432.268,355.584,422.369z"/>
			<path d="M472.929,131.399c-0.031-2.518-0.823-5-2.55-6.964L364.655,3.677c-0.021-0.031-0.052-0.042-0.083-0.075
				c-0.631-0.704-1.355-1.284-2.132-1.796c-0.231-0.149-0.462-0.283-0.704-0.419c-0.683-0.365-1.386-0.665-2.121-0.885
				c-0.198-0.06-0.377-0.142-0.577-0.194C358.23,0.118,357.41,0,356.571,0H96.757C84.904,0,75.255,9.649,75.255,21.502V526.79
				c0,11.858,9.649,21.501,21.502,21.501h354.776c11.862,0,21.502-9.643,21.502-21.501V132.6
				C473.035,132.199,472.973,131.795,472.929,131.399z M232.287,519.35h-35.224l-42.751-133.392h33.047l16.234,56.398
				c4.559,15.838,8.704,31.077,11.874,47.702h0.595c3.36-16.027,7.515-31.864,12.074-47.103l17.018-56.998h32.064L232.287,519.35z
				 M376.561,508.664c-9.7,7.721-25.921,12.073-52.451,12.073c-14.836,0-25.922-0.992-32.651-1.979V387.733
				c7.916-1.581,23.947-2.768,38.991-2.768c18.406,0,29.682,1.78,39.382,7.513c9.303,4.955,16.031,14.052,16.031,26.127
				c0,11.873-6.929,22.955-21.963,28.499v0.397c15.234,4.158,26.521,15.633,26.521,32.851
				C390.42,492.427,384.875,501.933,376.561,508.664z M96.757,365.085V21.507H345.82v110.015c0,5.935,4.809,10.75,10.751,10.75
				h94.962l0.01,222.813H96.757z"/>
		</g>
		<path d="M341.411,86.673L341.411,86.673h-165.27c-7.678,0-13.919,7.145-13.919,15.932v180.349h0.045
			c0,0.042,0.021,0.062,0.026,0.104c-7.724,2.446-13.412,10.541-13.412,20.142c0,11.544,8.199,20.931,18.284,20.931h126.496
			c-0.003,0.042-0.003,0.084-0.016,0.131h24.751c7.682,0,13.922-7.145,13.922-15.933V104.574c0.062-7.483,8.012-7.279,8.913-7.279
			h0.033c3.932,0,7.139,3.656,7.139,8.16c0,4.499-3.201,8.166-7.139,8.166c-2.558,0-4.636,2.37-4.636,5.304
			c0,2.935,2.078,5.312,4.636,5.312c9.054,0,16.413-8.425,16.413-18.782C357.678,95.096,350.318,86.673,341.411,86.673z
			 M284.901,313.505H167.165c-4.964,0-9.006-4.625-9.006-10.31c0-5.68,4.037-10.3,9.006-10.3h117.856
			c-1.764,2.836-2.992,6.3-2.992,10.427C282.029,307.353,283.206,310.734,284.901,313.505z M301.473,205.47H190.38v-8.959h111.092
			V205.47z M301.473,229.069H190.38v-8.96h111.092V229.069z M301.473,183.071H190.38v-8.961h111.092V183.071z M301.473,157.624
			H190.38v-8.96h111.092V157.624z M301.473,135.226H190.38v-8.961h111.092V135.226z"/>
	</g>
</g>
<g>
</g>
<g>
</g>
<g>
</g>
<g>
</g>
<g>
</g>
<g>
</g>
<g>
</g>
<g>
</g>
<g>
</g>
<g>
</g>
<g>
</g>
<g>
</g>
<g>
</g>
<g>
</g>
<g>
</g>
</svg>
