<?xml version="1.0" encoding="iso-8859-1"?>
<!-- Generator: Adobe Illustrator 16.0.0, SVG Export Plug-In . SVG Version: 6.00 Build 0)  -->
<!DOCTYPE svg PUBLIC "-//W3C//DTD SVG 1.1//EN" "http://www.w3.org/Graphics/SVG/1.1/DTD/svg11.dtd">
<svg version="1.1" id="Capa_1" xmlns="http://www.w3.org/2000/svg" xmlns:xlink="http://www.w3.org/1999/xlink" x="0px" y="0px"
	 width="550.801px" height="550.801px" viewBox="0 0 550.801 550.801" style="enable-background:new 0 0 550.801 550.801;"
	 xml:space="preserve">
<g>
	<g>
		<g>
			<path d="M379.266,412.077c-6.212,0-10.241,0.549-12.614,1.097v80.663c2.368,0.548,6.207,0.548,9.692,0.548
				c25.239,0.185,41.703-13.721,41.703-43.168C418.236,425.599,403.229,412.077,379.266,412.077z"/>
			<path d="M475.095,131.992c-0.032-2.526-0.833-5.021-2.568-6.993L366.324,3.694c-0.021-0.031-0.053-0.042-0.084-0.076
				c-0.633-0.707-1.36-1.29-2.141-1.804c-0.232-0.15-0.465-0.285-0.707-0.422c-0.686-0.366-1.393-0.667-2.131-0.889
				c-0.2-0.061-0.379-0.143-0.58-0.195C359.87,0.119,359.047,0,358.203,0H97.2C85.292,0,75.6,9.693,75.6,21.601v507.6
				c0,11.913,9.692,21.601,21.6,21.601H453.6c11.918,0,21.601-9.688,21.601-21.601V133.202
				C475.2,132.796,475.137,132.398,475.095,131.992z M176.562,514.878h-32.566L104.49,391.585h30.552l14.998,52.133
				c4.205,14.634,8.044,28.714,10.966,44.081h0.551c3.111-14.813,6.961-29.447,11.156-43.532l15.736-52.682h29.637L176.562,514.878z
				 M292.918,493.652c8.417,0,17.74-1.83,23.235-4.023l4.197,21.769c-5.115,2.562-16.643,5.305-31.641,5.305
				c-42.622,0-64.568-26.525-64.568-61.646c0-42.071,29.998-65.485,67.31-65.485c14.449,0,25.429,2.922,30.364,5.489l-5.663,22.133
				c-5.675-2.373-13.542-4.572-23.414-4.572c-22.141,0-39.327,13.353-39.327,40.79C253.412,478.106,268.041,493.652,292.918,493.652
				z M427.19,500.238c-12.983,10.801-32.742,15.916-56.879,15.916c-14.46,0-24.701-0.918-31.651-1.83V393.23
				c10.241-1.646,23.594-2.563,37.684-2.563c23.414,0,38.592,4.203,50.493,13.168c12.805,9.508,20.847,24.695,20.847,46.464
				C447.684,473.903,439.088,490.177,427.19,500.238z M97.2,366.752V21.601h250.203v110.515c0,5.964,4.831,10.8,10.8,10.8H453.6
				l0.011,223.836H97.2z"/>
		</g>
		<g>
			<path d="M331.499,159.517c-41.502,0-75.154,33.642-75.154,75.141c0,41.512,33.652,75.163,75.154,75.163
				c41.518,0,75.157-33.65,75.157-75.163C406.656,193.158,373.012,159.517,331.499,159.517z M354.133,168.692l-16.327,33.323
				c-3.164-1.231-6.307-0.572-6.307-0.572l-9.439-34.987C322.06,166.451,334.578,160.83,354.133,168.692z M331.499,264.234
				c-16.321,0-29.573-13.236-29.573-29.576c0-16.329,13.246-29.565,29.573-29.565c16.337,0,29.578,13.231,29.578,29.565
				C361.072,250.992,347.836,264.234,331.499,264.234z"/>
			<path d="M331.499,208.501c-14.418,0-26.156,11.739-26.156,26.167c0,14.423,11.738,26.165,26.156,26.165
				c14.428,0,26.167-11.742,26.167-26.165C357.666,220.24,345.927,208.501,331.499,208.501z M331.499,257.808
				c-12.751,0-23.14-10.378-23.14-23.14c0-12.772,10.389-23.155,23.14-23.155c12.772,0,23.15,10.383,23.15,23.155
				C354.649,247.43,344.271,257.808,331.499,257.808z"/>
			<path d="M331.499,222.157c-6.897,0-12.493,5.611-12.493,12.5c0,6.89,5.596,12.506,12.493,12.506
				c6.908,0,12.519-5.616,12.519-12.506C344.018,227.768,338.407,222.157,331.499,222.157z M331.499,244.15
				c-5.231,0-9.481-4.255-9.481-9.492c0-5.231,4.25-9.487,9.481-9.487c5.241,0,9.503,4.256,9.503,9.487
				C341.002,239.895,336.74,244.15,331.499,244.15z"/>
			<path d="M255.084,193.989c-6.845,1.566-14.396,2.452-22.37,2.452c-30.533,0-55.276-12.759-55.276-28.517
				c0-15.751,24.743-28.523,55.276-28.523c25.321,0,46.62,8.798,53.17,20.785c11.164-7.204,24.015-11.981,37.853-13.553
				l-3.766-24.037c-0.095-0.623-0.633-1.086-1.266-1.086H141.183c-0.633,0-1.17,0.464-1.263,1.086l-13.521,86.26
				c-0.108,0.182-0.168,0.403-0.168,0.625v54.664c0,0.707,0.566,1.282,1.284,1.282h123.219c-1.139-3.064-2.112-6.196-2.9-9.403
				h-112.2v-38.422h111.175C248.442,209.245,251.279,201.33,255.084,193.989z"/>
			<path d="M151.951,225.279c-0.72,0-1.286,0.572-1.286,1.278v16.231c0,0.715,0.566,1.282,1.286,1.282h16.232
				c0.707,0,1.273-0.567,1.273-1.282v-16.231c0-0.707-0.567-1.278-1.273-1.278H151.951z"/>
			<path d="M178.73,225.279c-0.709,0-1.287,0.572-1.287,1.278v16.231c0,0.715,0.577,1.282,1.287,1.282h16.21
				c0.707,0,1.273-0.567,1.273-1.282v-16.231c0-0.707-0.566-1.278-1.273-1.278H178.73z"/>
			<path d="M207.183,225.279c-0.709,0-1.276,0.572-1.276,1.278v16.231c0,0.715,0.567,1.282,1.276,1.282h16.232
				c0.707,0,1.284-0.567,1.284-1.282v-16.231c0-0.707-0.577-1.278-1.284-1.278H207.183z"/>
			<path d="M187.505,167.25c0,12.765,20.152,23.121,45.014,23.121c10.378,0,19.92-1.824,27.541-4.854
				c4.833-7.23,10.687-13.722,17.381-19.24c-1.007-12.316-20.692-22.156-44.916-22.156
				C207.657,144.115,187.505,154.467,187.505,167.25z"/>
		</g>
	</g>
</g>
<g>
</g>
<g>
</g>
<g>
</g>
<g>
</g>
<g>
</g>
<g>
</g>
<g>
</g>
<g>
</g>
<g>
</g>
<g>
</g>
<g>
</g>
<g>
</g>
<g>
</g>
<g>
</g>
<g>
</g>
</svg>
