<?xml version="1.0" encoding="iso-8859-1"?>
<!-- Generator: Adobe Illustrator 16.0.0, SVG Export Plug-In . SVG Version: 6.00 Build 0)  -->
<!DOCTYPE svg PUBLIC "-//W3C//DTD SVG 1.1//EN" "http://www.w3.org/Graphics/SVG/1.1/DTD/svg11.dtd">
<svg version="1.1" id="Capa_1" xmlns="http://www.w3.org/2000/svg" xmlns:xlink="http://www.w3.org/1999/xlink" x="0px" y="0px"
	 width="550.801px" height="550.801px" viewBox="0 0 550.801 550.801" style="enable-background:new 0 0 550.801 550.801;"
	 xml:space="preserve">
<g>
	<path d="M475.095,132c-0.032-2.529-0.833-5.023-2.568-6.993L366.324,3.694c-0.021-0.031-0.053-0.042-0.084-0.076
		c-0.633-0.707-1.36-1.29-2.141-1.804c-0.232-0.15-0.465-0.285-0.707-0.419c-0.686-0.369-1.393-0.67-2.131-0.892
		c-0.2-0.061-0.379-0.14-0.58-0.195C359.87,0.119,359.047,0,358.203,0H97.2C85.292,0,75.6,9.693,75.6,21.601v507.6
		c0,11.913,9.692,21.601,21.6,21.601H453.6c11.918,0,21.601-9.688,21.601-21.601V133.207C475.2,132.804,475.137,132.398,475.095,132
		z M186.677,513.19h-31.395l-38.106-118.905h29.46l14.468,50.282c4.061,14.106,7.765,27.695,10.584,42.514h0.535
		c2.998-14.285,6.694-28.407,10.755-41.981l15.175-50.805h28.576L186.677,513.19z M298.898,492.724
		c8.121,0,17.117-1.761,22.412-3.881l4.05,20.993c-4.936,2.474-16.052,5.121-30.512,5.121c-41.109,0-62.277-25.582-62.277-59.458
		c0-40.574,28.927-63.149,64.918-63.149c13.938,0,24.521,2.821,29.283,5.289l-5.463,21.342c-5.474-2.294-13.057-4.403-22.581-4.403
		c-21.347,0-37.932,12.878-37.932,39.34C260.798,477.731,274.909,492.724,298.898,492.724z M415.705,416.338h-45.689v27.164h42.688
		v21.879h-42.688v47.81h-26.989V394.285h72.679V416.338z M97.2,366.758V21.605h250.203v110.519c0,5.961,4.831,10.8,10.8,10.8H453.6
		l0.011,223.834H97.2z"/>
	<g>
		<path d="M236.121,230.494c-7.56-2.66-7.626-5.318-7.626-5.318c-0.772-0.74-1.534-1.355-2.294-1.938
			c3.51-3.744,6.086-8.82,6.74-13.534c0.48-0.34,1.252-1.155,1.537-3.012c0,0,1.809-6.465-0.583-5.764
			c0.82-2.483,3.602-12.176-1.748-18.204c0,0-2.513-3.428-8.604-5.241c0,0-9.142-2.874-16.493-1.016
			c-7.354,1.864-7.53,3.381-9.555,10.368c0,0-1.519,3.617,0.49,14.212c-2.845-1.332-0.907,5.645-0.907,5.645
			c0.29,1.862,1.073,2.671,1.537,3.012c0.585,4.796,2.972,9.655,6.13,13.283c-1.505,1.237-2.371,2.268-2.371,2.268l-16.318,8.583
			c-4.461,1.727-6.347,4.303-6.347,4.303c-6.607,9.79-7.386,31.602-7.386,31.602c0.087,4.978,2.241,5.492,2.241,5.492
			c15.19,6.779,39.008,7.986,39.008,7.986c24.479,0.512,42.293-6.95,42.293-6.95c2.576-1.635,2.658-2.927,2.658-2.927
			c1.793-15.628-5.924-33.22-5.924-33.22C250.274,234.961,236.121,230.494,236.121,230.494z"/>
		<path d="M394.854,149.624H161.979c-4.179,0-7.57,3.391-7.57,7.578v144.683c0,4.187,3.391,7.572,7.57,7.572h232.875
			c4.177,0,7.573-3.386,7.573-7.572V157.201C402.427,153.015,399.041,149.624,394.854,149.624z M395.539,301.884
			c0,0.38-0.306,0.69-0.686,0.69H161.979c-0.38,0-0.686-0.311-0.686-0.69V157.201c0-0.379,0.306-0.69,0.686-0.69h232.875
			c0.38,0,0.686,0.311,0.686,0.69V301.884z"/>
		<rect x="278.416" y="209.559" width="95.08" height="8.271"/>
		<rect x="278.416" y="182.008" width="95.08" height="8.264"/>
		<rect x="278.416" y="236.976" width="95.08" height="8.261"/>
		<rect x="278.416" y="265.368" width="71.661" height="8.261"/>
	</g>
</g>
<g>
</g>
<g>
</g>
<g>
</g>
<g>
</g>
<g>
</g>
<g>
</g>
<g>
</g>
<g>
</g>
<g>
</g>
<g>
</g>
<g>
</g>
<g>
</g>
<g>
</g>
<g>
</g>
<g>
</g>
</svg>
