<?xml version="1.0" encoding="iso-8859-1"?>
<!-- Generator: Adobe Illustrator 16.0.0, SVG Export Plug-In . SVG Version: 6.00 Build 0)  -->
<!DOCTYPE svg PUBLIC "-//W3C//DTD SVG 1.1//EN" "http://www.w3.org/Graphics/SVG/1.1/DTD/svg11.dtd">
<svg version="1.1" id="Capa_1" xmlns="http://www.w3.org/2000/svg" xmlns:xlink="http://www.w3.org/1999/xlink" x="0px" y="0px"
	 width="550.801px" height="550.801px" viewBox="0 0 550.801 550.801" style="enable-background:new 0 0 550.801 550.801;"
	 xml:space="preserve">
<g>
	<g>
		<path d="M475.095,131.992c-0.032-2.526-0.833-5.021-2.568-6.993L366.324,3.694c-0.021-0.031-0.053-0.045-0.084-0.076
			c-0.633-0.707-1.36-1.29-2.141-1.804c-0.232-0.15-0.465-0.285-0.707-0.422c-0.686-0.366-1.393-0.67-2.131-0.892
			c-0.2-0.058-0.379-0.14-0.58-0.192C359.87,0.119,359.047,0,358.203,0H97.2C85.292,0,75.6,9.693,75.6,21.601v507.6
			c0,11.913,9.692,21.601,21.6,21.601H453.6c11.918,0,21.601-9.688,21.601-21.601V133.202
			C475.2,132.796,475.137,132.398,475.095,131.992z M175.062,517.963h-31.644l-38.393-119.818h29.681l14.581,50.668
			c4.087,14.222,7.821,27.912,10.671,42.847h0.53c3.021-14.402,6.755-28.625,10.842-42.314l15.288-51.2h28.798L175.062,517.963z
			 M277.625,519.914c-35.553,0-56.349-26.848-56.349-60.972c0-35.907,22.934-62.754,58.3-62.754
			c36.804,0,56.891,27.554,56.891,60.613C336.467,496.094,312.641,519.914,277.625,519.914z M430.66,508.359
			c-8.711,6.93-23.287,10.843-47.112,10.843c-13.331,0-23.288-0.886-29.331-1.767V399.737c7.114-1.413,21.511-2.489,35.026-2.489
			c16.526,0,26.662,1.604,35.374,6.761c8.354,4.451,14.401,12.625,14.401,23.467c0,10.674-6.217,20.619-19.728,25.598v0.348
			c13.68,3.739,23.814,14.049,23.814,29.511C443.105,493.773,438.128,502.316,430.66,508.359z M97.2,366.752V21.601h250.203v110.515
			c0,5.961,4.831,10.8,10.8,10.8H453.6l0.011,223.836H97.2z"/>
		<path d="M278.87,417.699c-18.315,0-28.98,17.423-28.98,40.711c0,23.467,11.021,39.993,29.154,39.993
			c18.314,0,28.798-17.418,28.798-40.705C307.842,436.188,297.538,417.699,278.87,417.699z"/>
		<path d="M411.824,430.851c0-9.06-6.94-13.858-19.201-13.858c-5.869,0-9.244,0.354-11.564,0.707v27.906h8.891
			C404.178,445.605,411.824,439.742,411.824,430.851z"/>
		<path d="M390.309,464.98h-9.25v33.771c2.679,0.358,5.875,0.358,10.494,0.358c12.266,0,23.113-4.614,23.113-17.233
			C414.666,469.779,403.818,464.98,390.309,464.98z"/>
	</g>
	<g>
		<path d="M255.355,311.818l0.707,0.169c0.355,0,0.707-0.126,0.999-0.354l53.386-34.093c0.38-0.311,0.611-0.78,0.611-1.26
			c0-0.48-0.231-0.944-0.611-1.263l-53.386-34.08c-0.485-0.385-1.145-0.454-1.701-0.18c-0.556,0.259-0.902,0.833-0.902,1.442v68.184
			C254.454,310.99,254.805,311.561,255.355,311.818z"/>
		<path d="M364.041,185.971c0,0-138.298,0-176.396,0l5.896-4.189c43.772-25.284,140.668-86.065,140.668-86.065
			c4.029-2.333,5.4-7.485,3.091-11.515l-8.427-20.751c-2.342-4.039-7.479-5.4-11.528-3.077l-159.384,96.86
			c-4.023,2.336-5.379,7.499-3.066,11.527l15.259,16.54l0.121,139.189c0,4.668,3.763,8.422,8.417,8.422h185.351
			c4.646,0,8.422-3.749,8.422-8.422V194.405C372.463,189.752,368.688,185.971,364.041,185.971z M302.928,191.998l-26.004,25.271
			h-33.697l25.289-25.271H302.928z M291.959,83.41l29.9-19.198l-4.367,28.16l-30.602,19.646L291.959,83.41z M238.646,116.208
			l30.425-18.96l-5.456,28.545l-30.385,18.955L238.646,116.208z M178.016,179.303l5.099-28.627l30.185-19.288l-5.107,28.577
			L178.016,179.303z M209.529,191.998h33.692l-25.273,25.271h-33.689L209.529,191.998z M357.95,322.655H184.615v-92.227H357.95
			V322.655z M336.445,217.264h-34.251l25.286-25.271h33.449L336.445,217.264z"/>
	</g>
</g>
<g>
</g>
<g>
</g>
<g>
</g>
<g>
</g>
<g>
</g>
<g>
</g>
<g>
</g>
<g>
</g>
<g>
</g>
<g>
</g>
<g>
</g>
<g>
</g>
<g>
</g>
<g>
</g>
<g>
</g>
</svg>
