<?xml version="1.0" encoding="iso-8859-1"?>
<!-- Generator: Adobe Illustrator 16.0.0, SVG Export Plug-In . SVG Version: 6.00 Build 0)  -->
<!DOCTYPE svg PUBLIC "-//W3C//DTD SVG 1.1//EN" "http://www.w3.org/Graphics/SVG/1.1/DTD/svg11.dtd">
<svg version="1.1" id="Capa_1" xmlns="http://www.w3.org/2000/svg" xmlns:xlink="http://www.w3.org/1999/xlink" x="0px" y="0px"
	 width="550.801px" height="550.801px" viewBox="0 0 550.801 550.801" style="enable-background:new 0 0 550.801 550.801;"
	 xml:space="preserve">
<g>
	<g>
		<path d="M475.084,131.992c-0.021-2.526-0.828-5.021-2.562-6.993L366.324,3.694c-0.031-0.034-0.062-0.045-0.084-0.076
			c-0.633-0.707-1.371-1.29-2.151-1.804c-0.232-0.15-0.464-0.285-0.707-0.422c-0.675-0.366-1.392-0.67-2.13-0.892
			c-0.201-0.058-0.38-0.14-0.58-0.192C359.87,0.114,359.037,0,358.193,0H97.2C85.282,0,75.6,9.693,75.6,21.601v507.6
			c0,11.913,9.682,21.601,21.6,21.601H453.6c11.908,0,21.601-9.688,21.601-21.601V133.202
			C475.2,132.796,475.137,132.398,475.084,131.992z M97.2,21.601h250.192v110.515c0,5.961,4.842,10.8,10.801,10.8H453.6v223.836
			H97.2V21.601z M204.926,501.325h-25.241l-8.72-44.371c-1.993-10.399-3.673-20.033-4.894-31.81h-0.309
			c-1.835,11.618-3.52,21.41-5.967,31.81l-9.79,44.371h-25.542L99.987,398.214h24.93l7.805,42.53
			c2.289,12.234,4.427,25.544,6.117,35.943h0.309c1.69-11.164,4.126-23.551,6.729-36.25l8.72-42.224h24.788l8.256,43.447
			c2.289,12.087,3.974,23.098,5.508,34.573h0.309c1.526-11.476,3.829-23.562,5.967-35.797l8.417-42.224h23.712L204.926,501.325z
			 M332.374,501.325l-1.529-39.467c-0.464-12.393-0.917-27.39-0.917-42.377h-0.465c-3.206,13.151-7.488,27.833-11.464,39.925
			l-12.551,40.231h-18.204l-11.011-39.926c-3.359-12.081-6.882-26.772-9.334-40.23h-0.306c-0.612,13.916-1.076,29.826-1.837,42.678
			l-1.835,39.16h-21.568l6.573-103.111h31.061l10.093,34.42c3.217,11.929,6.423,24.785,8.723,36.866h0.453
			c2.911-11.928,6.418-25.544,9.793-37.014l11.011-34.272h30.443l5.664,103.111h-22.792V501.325z M434.12,501.325l-7.952-26.462
			h-29.531l-7.341,26.462h-24.174l31.515-103.111h30.596l31.979,103.111H434.12z"/>
		<path d="M411.17,415.652h-0.306c-1.529,6.117-3.059,13.922-4.735,19.897l-6.128,21.874h22.802l-6.423-21.874
			C414.534,429.427,412.71,421.77,411.17,415.652z"/>
		<rect x="146.274" y="136.619" width="45.956" height="13.516"/>
		<rect x="146.274" y="158.248" width="45.956" height="13.516"/>
		<rect x="146.274" y="179.2" width="45.956" height="13.516"/>
		<rect x="146.274" y="200.826" width="45.956" height="13.511"/>
		<rect x="146.274" y="221.369" width="45.956" height="13.516"/>
		<rect x="146.274" y="242.995" width="45.956" height="13.516"/>
		<rect x="146.274" y="263.941" width="45.956" height="13.516"/>
		<rect x="146.274" y="285.562" width="45.956" height="13.516"/>
		<rect x="213.176" y="179.2" width="45.964" height="13.516"/>
		<rect x="213.176" y="200.826" width="45.964" height="13.511"/>
		<rect x="213.176" y="221.369" width="45.964" height="13.516"/>
		<rect x="213.176" y="242.995" width="45.964" height="13.516"/>
		<rect x="213.176" y="263.941" width="45.964" height="13.516"/>
		<rect x="213.176" y="285.562" width="45.964" height="13.516"/>
		<rect x="284.133" y="136.619" width="45.953" height="13.516"/>
		<rect x="284.133" y="158.248" width="45.953" height="13.516"/>
		<rect x="284.133" y="179.2" width="45.953" height="13.516"/>
		<rect x="284.133" y="200.826" width="45.953" height="13.511"/>
		<rect x="284.133" y="221.369" width="45.953" height="13.516"/>
		<rect x="284.133" y="242.995" width="45.953" height="13.516"/>
		<rect x="284.133" y="263.941" width="45.953" height="13.516"/>
		<rect x="284.133" y="285.562" width="45.953" height="13.516"/>
		<rect x="352.561" y="242.995" width="45.953" height="13.516"/>
		<rect x="352.561" y="263.941" width="45.953" height="13.516"/>
		<rect x="352.561" y="285.562" width="45.953" height="13.516"/>
	</g>
</g>
<g>
</g>
<g>
</g>
<g>
</g>
<g>
</g>
<g>
</g>
<g>
</g>
<g>
</g>
<g>
</g>
<g>
</g>
<g>
</g>
<g>
</g>
<g>
</g>
<g>
</g>
<g>
</g>
<g>
</g>
</svg>
