<?xml version="1.0" encoding="iso-8859-1"?>
<!-- Generator: Adobe Illustrator 16.0.0, SVG Export Plug-In . SVG Version: 6.00 Build 0)  -->
<!DOCTYPE svg PUBLIC "-//W3C//DTD SVG 1.1//EN" "http://www.w3.org/Graphics/SVG/1.1/DTD/svg11.dtd">
<svg version="1.1" id="Capa_1" xmlns="http://www.w3.org/2000/svg" xmlns:xlink="http://www.w3.org/1999/xlink" x="0px" y="0px"
	 width="571.539px" height="571.539px" viewBox="0 0 571.539 571.539" style="enable-background:new 0 0 571.539 571.539;"
	 xml:space="preserve">
<g>
	<g>
		<path d="M492.985,136.956c-0.033-2.621-0.878-5.204-2.676-7.256L380.118,3.822c-0.033-0.03-0.065-0.046-0.088-0.074
			c-0.654-0.739-1.421-1.338-2.232-1.871c-0.239-0.156-0.481-0.301-0.733-0.438c-0.7-0.386-1.434-0.695-2.209-0.925
			c-0.21-0.061-0.396-0.15-0.602-0.194C373.421,0.117,372.554,0,371.68,0H100.859C88.504,0,78.446,10.051,78.446,22.412v526.713
			c0,12.355,10.058,22.413,22.413,22.413H470.68c12.354,0,22.412-10.058,22.412-22.413V138.211
			C493.092,137.79,493.027,137.376,492.985,136.956z M213.201,519.959h-24.516l-8.46-43.064c-1.938-10.112-3.559-19.47-4.751-30.9
			h-0.296c-1.784,11.289-3.424,20.788-5.789,30.9l-9.507,43.064h-24.814l-23.745-100.094h24.195l7.576,41.28
			c2.229,11.874,4.314,24.811,5.944,34.901h0.306c1.62-10.833,4.008-22.873,6.523-35.19l8.474-40.991h24.067l8.023,42.185
			c2.219,11.736,3.855,22.423,5.338,33.564h0.298c1.492-11.142,3.71-22.872,5.801-34.758l8.164-40.991h23.012L213.201,519.959z
			 M336.932,519.959l-1.488-38.32c-0.448-12.02-0.887-26.588-0.887-41.145h-0.448c-3.119,12.772-7.276,27.043-11.142,38.775
			l-12.181,39.064h-17.674l-10.689-38.774c-3.261-11.737-6.672-25.987-9.047-39.065h-0.31c-0.588,13.517-1.042,28.972-1.77,41.442
			l-1.781,38.017h-20.948l6.384-100.088h30.149l9.795,33.412c3.119,11.579,6.238,24.056,8.471,35.793h0.438
			c2.825-11.579,6.248-24.806,9.511-35.941l10.691-33.264h29.562l5.492,100.094H336.932z M426.509,519.959h-26.44l-32.083-100.094
			h24.817l12.168,42.321c3.409,11.874,6.533,23.321,8.908,35.803h0.459c2.52-12.033,5.639-23.929,9.052-35.354l12.766-42.77h24.057
			L426.509,519.959z M100.859,380.555V22.412h259.615v114.672c0,6.187,5.024,11.207,11.206,11.207h99v232.265H100.859z"/>
		<path d="M280.155,123.454c-58.396,0-105.902,47.508-105.902,105.908c0,58.399,47.51,105.907,105.902,105.907
			c58.408,0,105.916-47.508,105.916-105.907C386.071,170.961,338.563,123.454,280.155,123.454z M280.155,315.977
			c-47.745,0-86.611-38.859-86.611-86.615c0-47.757,38.866-86.611,86.611-86.611c47.762,0,86.622,38.854,86.622,86.611
			C366.777,277.118,327.917,315.977,280.155,315.977z"/>
		<path d="M248.502,166.308c-1.014,0.465-1.653,1.518-1.653,2.626v124.337c0,1.111,0.639,2.151,1.653,2.621l1.284,0.296
			c0.654,0,1.284-0.23,1.813-0.635l97.352-62.164c0.7-0.572,1.116-1.429,1.116-2.312c0-0.875-0.416-1.721-1.116-2.309
			l-97.352-62.143C250.717,165.925,249.515,165.796,248.502,166.308z"/>
	</g>
</g>
<g>
</g>
<g>
</g>
<g>
</g>
<g>
</g>
<g>
</g>
<g>
</g>
<g>
</g>
<g>
</g>
<g>
</g>
<g>
</g>
<g>
</g>
<g>
</g>
<g>
</g>
<g>
</g>
<g>
</g>
</svg>
