<?xml version="1.0" encoding="iso-8859-1"?>
<!-- Generator: Adobe Illustrator 16.0.0, SVG Export Plug-In . SVG Version: 6.00 Build 0)  -->
<!DOCTYPE svg PUBLIC "-//W3C//DTD SVG 1.1//EN" "http://www.w3.org/Graphics/SVG/1.1/DTD/svg11.dtd">
<svg version="1.1" id="Capa_1" xmlns="http://www.w3.org/2000/svg" xmlns:xlink="http://www.w3.org/1999/xlink" x="0px" y="0px"
	 width="550.801px" height="550.801px" viewBox="0 0 550.801 550.801" style="enable-background:new 0 0 550.801 550.801;"
	 xml:space="preserve">
<g>
	<g>
		<path d="M385.251,420.362c-5.479,0-9.022,0.49-11.122,0.976v71.043c2.1,0.485,5.475,0.485,8.533,0.485
			c22.243,0.158,36.739-12.081,36.739-38.021C419.565,432.285,406.35,420.362,385.251,420.362z"/>
		<path d="M475.095,131.992c-0.032-2.526-0.833-5.021-2.573-6.993L366.324,3.694c-0.021-0.034-0.053-0.045-0.084-0.076
			c-0.633-0.707-1.36-1.29-2.141-1.804c-0.232-0.15-0.465-0.285-0.707-0.422c-0.686-0.366-1.393-0.67-2.131-0.892
			c-0.2-0.058-0.379-0.14-0.58-0.192C359.87,0.114,359.047,0,358.203,0H97.2C85.292,0,75.6,9.693,75.6,21.601v507.6
			c0,11.913,9.692,21.601,21.6,21.601H453.6c11.918,0,21.601-9.688,21.601-21.601V133.202
			C475.2,132.796,475.137,132.398,475.095,131.992z M215.077,510.901h-26.586l-9.179-46.717
			c-2.096-10.953-3.865-21.104-5.157-33.513h-0.319c-1.933,12.255-3.709,22.56-6.286,33.513l-10.307,46.717h-26.902l-25.776-108.58
			h26.262l8.213,44.787c2.413,12.894,4.669,26.9,6.441,37.858h0.324c1.772-11.76,4.353-24.812,7.085-38.169l9.192-44.466h26.093
			l8.704,45.763c2.408,12.715,4.179,24.321,5.795,36.408h0.316c1.616-12.087,4.034-24.817,6.292-37.694l8.857-44.466h24.97
			L215.077,510.901z M323.853,461.131c-8.385,7.889-20.788,11.433-35.279,11.433c-3.228,0-6.128-0.158-8.385-0.485v38.823h-24.321
			V403.767c7.567-1.287,18.198-2.257,33.181-2.257c15.155,0,25.95,2.9,33.19,8.695c6.93,5.479,11.592,14.508,11.592,25.128
			C333.83,445.98,330.291,455.003,323.853,461.131z M427.454,498.023c-11.438,9.503-28.835,14.007-50.103,14.007
			c-12.725,0-21.742-0.791-27.87-1.604V403.777c9.028-1.456,20.788-2.258,33.19-2.258c20.619,0,33.998,3.713,44.466,11.597
			c11.274,8.38,18.357,21.748,18.357,40.917C445.5,474.82,437.928,489.154,427.454,498.023z M97.2,366.752V21.601h250.203v110.515
			c0,5.961,4.831,10.8,10.8,10.8H453.6l0.011,223.836H97.2z"/>
		<path d="M290.345,420.04c-4.999,0-8.385,0.485-10.156,0.971v32.062c2.099,0.49,4.672,0.644,8.216,0.644
			c13.052,0,21.104-6.608,21.104-17.714C309.509,426.01,302.579,420.04,290.345,420.04z"/>
	</g>
	<g>
		<path d="M322.935,107.708h-12.551V89.559l-31.061-31.071H150.488v219.217h43.608v49.222h159.898V138.781L322.935,107.708z
			 M325.255,121.247l17.846,17.851h-17.846V121.247z M310.384,256.906c0.068,0.928,0.068,1.861,0,2.79V256.906z M281.649,72.025
			l17.84,17.853h-17.84V72.025z M158.419,269.779V66.414h115.301v31.39h28.742v171.98L158.419,269.779L158.419,269.779z
			 M346.064,319.001H202.025v-41.296h108.358v-12.662h25.196v-10.8h-25.196v-24.295h25.196v-10.8h-25.196V192.71h25.196v-10.8
			h-25.196v-66.274h6.94v31.39h28.729L346.064,319.001L346.064,319.001z"/>
		<rect x="227.087" y="112.05" width="69.754" height="10.8"/>
		<rect x="227.087" y="139.499" width="69.754" height="10.8"/>
		<rect x="171.078" y="166.05" width="125.764" height="10.8"/>
		<rect x="171.078" y="192.148" width="54.211" height="10.8"/>
		<rect x="171.078" y="219.148" width="54.211" height="10.8"/>
		<rect x="171.078" y="246.716" width="124.298" height="10.8"/>
		<rect x="211.286" y="289.238" width="124.294" height="10.8"/>
		<path d="M269.265,227.681l-2.186-6.977c-18.225-49.108-30.441,5.627-30.441,5.627l-0.799,3.375h53.905h2.927
			C277.372,199.784,269.265,227.681,269.265,227.681z"/>
	</g>
	<g style="enable-background:new    ;">
		<path d="M167.514,111.473h13.99v1.361c-1.305,0.077-2.16,0.303-2.558,0.68c-0.401,0.377-0.602,0.918-0.602,1.608
			c-0.037,0.401,0.006,0.814,0.135,1.247c0.132,0.438,0.303,0.931,0.52,1.472l7.135,19.216l7.185-15.627l-1.906-4.952
			c-0.213-0.614-0.458-1.145-0.733-1.582c-0.277-0.43-0.599-0.794-0.983-1.084c-0.383-0.292-0.862-0.52-1.442-0.68
			c-0.583-0.164-1.29-0.266-2.12-0.303v-1.36h15.897v1.36c-1.49,0.076-2.603,0.313-3.349,0.707c-0.747,0.4-1.118,1.107-1.118,2.127
			c0,0.509,0.108,1,0.33,1.469l7.565,19.219l7.021-18.51c0.506-1.345,0.759-2.395,0.759-3.162c0-0.469-0.232-0.878-0.707-1.226
			c-0.469-0.346-1.397-0.554-2.774-0.625v-1.36h10.507v1.36c-2.138,0.33-3.705,1.759-4.683,4.303l-11.162,28.798h-1.468
			l-8.327-21.339l-9.748,21.339h-1.36L172.8,117.841c-0.329-0.91-0.654-1.643-0.983-2.205c-0.33-0.562-0.69-1.026-1.089-1.387
			c-0.401-0.363-0.865-0.648-1.39-0.849c-0.527-0.195-1.134-0.382-1.824-0.567V111.473z"/>
	</g>
</g>
<g>
</g>
<g>
</g>
<g>
</g>
<g>
</g>
<g>
</g>
<g>
</g>
<g>
</g>
<g>
</g>
<g>
</g>
<g>
</g>
<g>
</g>
<g>
</g>
<g>
</g>
<g>
</g>
<g>
</g>
</svg>
