<?xml version="1.0" encoding="iso-8859-1"?>
<!-- Generator: Adobe Illustrator 16.0.0, SVG Export Plug-In . SVG Version: 6.00 Build 0)  -->
<!DOCTYPE svg PUBLIC "-//W3C//DTD SVG 1.1//EN" "http://www.w3.org/Graphics/SVG/1.1/DTD/svg11.dtd">
<svg version="1.1" id="Capa_1" xmlns="http://www.w3.org/2000/svg" xmlns:xlink="http://www.w3.org/1999/xlink" x="0px" y="0px"
	 width="548.291px" height="548.291px" viewBox="0 0 548.291 548.291" style="enable-background:new 0 0 548.291 548.291;"
	 xml:space="preserve">
<g>
	<g>
		<path d="M304.792,415.024c-5.449,0-9.134,0.53-11.065,1.055v34.946c2.277,0.53,5.085,0.704,8.954,0.704
			c14.221,0,23.004-7.198,23.004-19.324C325.689,421.524,318.134,415.024,304.792,415.024z"/>
		<path d="M472.929,131.39c-0.031-2.514-0.829-4.997-2.556-6.96L364.656,3.677c-0.021-0.034-0.053-0.044-0.084-0.075
			c-0.63-0.704-1.354-1.284-2.132-1.796c-0.23-0.149-0.462-0.283-0.703-0.419c-0.683-0.365-1.387-0.667-2.121-0.888
			c-0.2-0.058-0.377-0.139-0.577-0.191C358.231,0.113,357.411,0,356.572,0H96.757C84.904,0,75.255,9.649,75.255,21.502V526.79
			c0,11.858,9.649,21.501,21.502,21.501h354.775c11.863,0,21.503-9.643,21.503-21.501V132.595
			C473.036,132.191,472.971,131.795,472.929,131.39z M222.751,514.071h-28.98l-10.008-50.926
			c-2.284-11.948-4.215-23.009-5.622-36.53h-0.344c-2.113,13.35-4.042,24.582-6.851,36.53l-11.238,50.926h-29.323l-28.103-118.359
			h28.625l8.956,48.819c2.632,14.049,5.089,29.324,7.026,41.267h0.349c1.929-12.82,4.74-27.046,7.725-41.618l10.013-48.468h28.447
			l9.488,49.868c2.627,13.87,4.564,26.521,6.32,39.687h0.344c1.759-13.165,4.394-27.04,6.856-41.092l9.654-48.469H253.3
			L222.751,514.071z M341.317,459.806c-9.136,8.61-22.657,12.462-38.458,12.462c-3.506,0-6.677-0.167-9.133-0.524v42.321H267.21
			V397.292c8.252-1.413,19.837-2.462,36.174-2.462c16.503,0,28.272,3.158,36.173,9.484c7.549,5.97,12.646,15.807,12.646,27.397
			C352.204,443.297,348.339,453.134,341.317,459.806z M398.231,515.829c-13.522,0-26.867-3.519-33.534-7.201l5.438-22.128
			c7.209,3.69,18.269,7.375,29.681,7.375c12.294,0,18.788-5.091,18.788-12.818c0-7.375-5.622-11.59-19.838-16.683
			c-19.675-6.851-32.495-17.742-32.495-34.95c0-20.2,16.862-35.649,44.789-35.649c13.338,0,23.175,2.81,30.194,5.97l-5.963,21.602
			c-4.746-2.285-13.177-5.623-24.762-5.623c-11.59,0-17.207,5.27-17.207,11.417c0,7.549,6.672,10.883,21.952,16.688
			c20.897,7.729,30.736,18.615,30.736,35.292C446,498.967,430.724,515.829,398.231,515.829z M96.757,365.081V21.502H345.82v110.011
			c0,5.935,4.81,10.751,10.752,10.751h94.961l0.011,222.816H96.757z"/>
	</g>
	<g>
		<path d="M297.074,200.633c3.235-1.989,6.531-3.79,9.591-5.876c3.04-2.103,6.042-4.171,8.992-6.207
			c2.825-1.98,6.101-4.173,8.389-5.856c1.807-1.37,4.462-2.806,6.897-3.896c5.051-2.163,10.278-3.698,15.298-4.436
			c5.028-0.902,9.806-0.861,14.141-0.832c4.3,0.241,8.17,0.596,11.308,1.187c3.24,0.348,5.66,1.134,7.424,1.414
			c1.742,0.354,2.677,0.549,2.677,0.549s-0.766-0.56-2.188-1.615c-1.454-1.021-3.529-2.698-6.495-4.277
			c-2.913-1.714-6.624-3.53-11.144-5.176c-4.536-1.597-9.896-2.964-15.994-3.56c-6.069-0.44-12.889-0.354-19.98,1.35
			c-3.6,0.897-7.044,1.908-11.061,3.832c-3.018,1.478-6.095,2.994-9.229,4.533c-3.027,1.483-6.113,2.992-9.232,4.515
			c-3.118,1.506-6.42,2.693-9.66,4.068c-3.243,1.323-6.508,2.656-9.793,3.994l-10.022,3.42c-6.606,2.531-13.496,3.843-20.05,5.751
			c-6.678,1.268-13.163,2.971-19.512,3.533c-6.323,0.992-12.412,1.128-18.126,1.427c-5.709-0.113-11.042-0.215-15.863-0.703
			c-2.446-0.102-4.693-0.549-6.848-0.84c-2.176-0.262-4.176-0.658-6.021-1.1c-3.746-0.732-6.827-1.727-9.255-2.507
			c-2.425-0.761-20.399-5.562-21.281-5.939c-0.872-0.423-1.339-0.648-1.339-0.648l-0.367,37.835c0,0,1.231,0.523,3.533,1.496
			c2.349,0.883,5.294,1.904,9.105,2.903c3.801,0.961,8.365,1.95,13.541,2.575c2.591,0.391,5.344,0.709,8.215,0.843
			c2.88,0.173,5.917,0.473,9.035,0.389c3.118-0.071,6.396,0.118,9.724-0.184c3.312-0.297,6.735-0.596,10.258-0.914
			c6.929-1.081,14.234-2.128,21.501-4.081c7.402-1.536,14.63-4.234,22.061-6.572c7.142-3.044,14.599-5.662,21.461-9.349
			c3.479-1.735,6.96-3.472,10.419-5.202C290.555,204.604,293.804,202.557,297.074,200.633z"/>
		<path d="M389.012,184.092c-3.706-2.554-17.896,10.756-20.451,14.459l-86.027,120.057c-1.135,1.639-0.904,3.512,0,5.313
			c-0.305,0.283-0.642,0.493-0.894,0.839c-1.753,2.515-1.122,5.983,1.387,7.749l4.23,2.966c2.521,1.748,5.996,1.138,7.754-1.381
			c0.174-0.242,0.221-0.541,0.352-0.803c1.812,0.299,3.453-0.011,4.53-1.561l82.084-123.912
			C384.53,204.127,392.718,186.651,389.012,184.092z"/>
	</g>
</g>
<g>
</g>
<g>
</g>
<g>
</g>
<g>
</g>
<g>
</g>
<g>
</g>
<g>
</g>
<g>
</g>
<g>
</g>
<g>
</g>
<g>
</g>
<g>
</g>
<g>
</g>
<g>
</g>
<g>
</g>
</svg>
