<?xml version="1.0" encoding="iso-8859-1"?>
<!-- Generator: Adobe Illustrator 16.0.0, SVG Export Plug-In . SVG Version: 6.00 Build 0)  -->
<!DOCTYPE svg PUBLIC "-//W3C//DTD SVG 1.1//EN" "http://www.w3.org/Graphics/SVG/1.1/DTD/svg11.dtd">
<svg version="1.1" id="Capa_1" xmlns="http://www.w3.org/2000/svg" xmlns:xlink="http://www.w3.org/1999/xlink" x="0px" y="0px"
	 width="550.801px" height="550.801px" viewBox="0 0 550.801 550.801" style="enable-background:new 0 0 550.801 550.801;"
	 xml:space="preserve">
<g>
	<g>
		<path d="M475.095,132c-0.031-2.529-0.828-5.023-2.562-6.995L366.325,3.694c-0.021-0.031-0.053-0.042-0.085-0.076
			c-0.633-0.707-1.36-1.29-2.141-1.804c-0.232-0.15-0.464-0.285-0.707-0.422c-0.686-0.366-1.392-0.667-2.13-0.889
			c-0.2-0.061-0.38-0.143-0.58-0.195C359.87,0.119,359.048,0,358.204,0H97.2c-11.907,0-21.6,9.693-21.6,21.601v507.6
			c0,11.913,9.692,21.601,21.6,21.601h356.4c11.918,0,21.6-9.688,21.6-21.601V133.207C475.2,132.804,475.137,132.398,475.095,132z
			 M231.902,514.113h-28.089l-9.711-49.375c-2.212-11.586-4.082-22.307-5.447-35.422h-0.34c-2.041,12.936-3.911,23.836-6.637,35.422
			l-10.903,49.375h-28.437l-27.237-114.761h27.757l8.677,47.34c2.555,13.621,4.941,28.435,6.808,40.01h0.345
			c1.87-12.436,4.596-26.215,7.486-40.353l9.708-46.997h27.583l9.197,48.357c2.555,13.442,4.425,25.713,6.136,38.48h0.335
			c1.706-12.768,4.261-26.22,6.647-39.841l9.352-46.997h26.391L231.902,514.113z M301.704,515.816
			c-13.109,0-26.051-3.406-32.513-6.982l5.276-21.457c6.982,3.575,17.714,7.15,28.777,7.15c11.918,0,18.215-4.936,18.215-12.43
			c0-7.15-5.442-11.237-19.238-16.173c-19.068-6.64-31.503-17.197-31.503-33.882c0-19.586,16.348-34.562,43.427-34.562
			c12.936,0,22.47,2.727,29.283,5.79l-5.79,20.946c-4.599-2.215-12.772-5.458-24.01-5.458c-11.238,0-16.681,5.11-16.681,11.069
			c0,7.319,6.466,10.557,21.273,16.179c20.261,7.488,29.795,18.046,29.795,34.225C348.016,499.474,333.208,515.816,301.704,515.816z
			 M435.702,420.631h-44.106v26.22h41.206v21.114h-41.206v46.143h-26.051V399.353h70.157V420.631z M97.2,366.758V21.605h250.204
			v110.519c0,5.961,4.83,10.8,10.8,10.8h95.396l0.011,223.834H97.2z"/>
		<g>
			<path d="M275.762,315.156c-0.063-0.068-0.119-0.147-0.185-0.216h-101.54c-4.983,0-9.047-4.646-9.047-10.356
				c0-5.706,4.058-10.347,9.047-10.347h95.164c-4.548-2.647-7.301-7.352-7.301-12.557v-12.532c0-5.914,3.536-11.185,9.007-13.437
				c0.955-0.372,1.572-0.973,1.862-1.68c0.288-0.701,0.282-1.582-0.026-2.289c-2.381-5.2-1.252-11.691,2.895-15.958l5.674-5.669
				h-83.953v-9.002h107.747c2.437-4.946,7.494-8.192,13.021-8.192h12.529c3.507,0,6.75,1.257,9.303,3.401V105.053
				c0.063-7.518,8.047-7.312,8.954-7.312h0.037c3.949,0,7.166,3.673,7.166,8.197c0,4.52-3.217,8.203-7.166,8.203
				c-2.568,0-4.662,2.381-4.662,5.328c0,2.948,2.094,5.337,4.662,5.337c9.091,0,16.484-8.464,16.484-18.868
				c0-10.407-7.394-18.868-16.342-18.868l0,0H183.055c-7.712,0-13.98,7.177-13.98,16.005v181.174h0.042
				c0,0.042,0.021,0.063,0.026,0.105c-7.76,2.458-13.471,10.589-13.471,20.234c0,11.597,8.234,21.025,18.365,21.025h112.512
				c-0.654-0.464-1.282-0.955-1.867-1.529L275.762,315.156z M197.359,126.842h111.602v9.001H197.359V126.842z M197.359,149.344
				h111.602v9.002H197.359V149.344z M197.359,174.907h111.602v9.002H197.359V174.907z M197.359,197.409h111.602v9.001H197.359
				V197.409z"/>
			<path d="M347.609,288.32c0.733-0.295,1.324-0.865,1.608-1.551c0.285-0.686,0.274-1.497-0.021-2.178
				c-0.902-2.062-0.438-4.487,1.134-6.064l4.192-4.2c1.064-1.044,2.426-1.616,3.85-1.616h0.985l1.124,0.433
				c0.875,0.385,1.613,0.351,2.277,0.076c0.707-0.298,1.282-0.875,1.546-1.571c0.796-1.999,2.61-3.267,4.714-3.42v-3.908
				c0-0.406-0.264-0.789-0.648-0.952c-4.145-1.619-7.493-4.892-9.197-8.997c-1.697-4.113-1.655-8.812,0.138-12.877
				c0.158-0.367,0.073-0.82-0.211-1.118l-8.87-8.862c-0.485-0.49-0.844-0.335-1.118-0.222c-4.039,1.788-8.765,1.846-12.867,0.135
				c-4.107-1.69-7.394-5.055-9.007-9.194c-0.147-0.374-0.522-0.638-0.944-0.638H313.77c-0.422,0-0.801,0.264-0.949,0.638
				c-1.613,4.145-4.894,7.504-9.001,9.194c-4.087,1.706-8.807,1.664-12.878-0.135c-0.253-0.103-0.622-0.269-1.118,0.222
				l-8.864,8.862c-0.288,0.298-0.375,0.751-0.209,1.123c1.78,4.071,1.833,8.759,0.135,12.873c-1.701,4.105-5.052,7.377-9.199,8.997
				c-0.385,0.158-0.639,0.524-0.639,0.952v12.535c0,0.412,0.253,0.781,0.639,0.939c4.152,1.618,7.493,4.894,9.199,8.996
				c1.698,4.113,1.646,8.807-0.14,12.883c-0.161,0.364-0.074,0.817,0.214,1.113l8.864,8.869c0.496,0.496,0.849,0.332,1.123,0.201
				c2.078-0.907,4.298-1.382,6.592-1.382c2.168,0,4.282,0.422,6.275,1.255c4.113,1.698,7.394,5.052,9.007,9.197
				c0.148,0.369,0.527,0.633,0.949,0.633h12.524c0.428,0,0.786-0.254,0.944-0.633c1.613-4.15,4.894-7.499,9.007-9.197
				c3.997-1.656,8.543-1.635,12.52-0.011c0.053-0.527,0.189-1.05,0.411-1.561c0.316-0.707,0.321-1.529,0.037-2.221
				c-0.279-0.68-0.87-1.249-1.566-1.523c-2.131-0.854-3.47-2.837-3.47-5.084v-5.938C344.166,291.142,345.516,289.148,347.609,288.32
				z M320.024,294.949c-13.437,0-24.363-10.922-24.363-24.377c0-13.423,10.927-24.374,24.363-24.374
				c13.447,0,24.384,10.945,24.384,24.374C344.408,284.027,333.472,294.949,320.024,294.949z"/>
			<path d="M395.888,292.935c-1.972-0.765-3.554-2.325-4.361-4.261c-0.796-1.946-0.785-4.172,0.069-6.097
				c0.073-0.179,0.031-0.396-0.101-0.543l-4.192-4.192c-0.237-0.227-0.411-0.152-0.543-0.1c-1.914,0.838-4.15,0.875-6.091,0.062
				c-1.951-0.801-3.507-2.394-4.271-4.358c-0.074-0.179-0.243-0.303-0.443-0.303h-5.938c-0.2,0-0.38,0.118-0.443,0.303
				c-0.765,1.959-2.325,3.552-4.261,4.358c-1.94,0.812-4.177,0.786-6.106-0.062c-0.116-0.053-0.296-0.127-0.527,0.1l-4.198,4.192
				c-0.137,0.143-0.179,0.358-0.105,0.543c0.86,1.925,0.87,4.15,0.063,6.097c-0.802,1.936-2.394,3.496-4.351,4.261
				c-0.185,0.079-0.311,0.248-0.311,0.453v5.943c0,0.19,0.126,0.364,0.311,0.443c1.957,0.77,3.549,2.32,4.351,4.261
				c0.807,1.94,0.791,4.171-0.063,6.106c-0.073,0.169-0.031,0.38,0.105,0.527l4.198,4.198c0.231,0.231,0.406,0.152,0.527,0.1
				c0.991-0.433,2.035-0.659,3.122-0.659c1.028,0,2.024,0.2,2.974,0.591c1.946,0.807,3.507,2.395,4.271,4.361
				c0.068,0.179,0.253,0.301,0.443,0.301h5.938c0.2,0,0.369-0.111,0.443-0.301c0.765-1.957,2.32-3.549,4.271-4.361
				c1.94-0.802,4.177-0.775,6.096,0.068c0.127,0.059,0.296,0.121,0.527-0.1l4.198-4.198c0.137-0.143,0.179-0.354,0.095-0.527
				c-0.844-1.93-0.865-4.166-0.063-6.106s2.395-3.491,4.355-4.261c0.18-0.079,0.307-0.253,0.307-0.443v-5.943
				C396.188,293.193,396.062,293.014,395.888,292.935z M372.98,307.896c-6.371,0-11.539-5.179-11.539-11.549
				c0-6.36,5.168-11.549,11.539-11.549c6.37,0,11.549,5.188,11.549,11.549C384.529,302.717,379.351,307.896,372.98,307.896z"/>
		</g>
	</g>
</g>
<g>
</g>
<g>
</g>
<g>
</g>
<g>
</g>
<g>
</g>
<g>
</g>
<g>
</g>
<g>
</g>
<g>
</g>
<g>
</g>
<g>
</g>
<g>
</g>
<g>
</g>
<g>
</g>
<g>
</g>
</svg>
