<?xml version="1.0" encoding="iso-8859-1"?>
<!-- Generator: Adobe Illustrator 16.0.0, SVG Export Plug-In . SVG Version: 6.00 Build 0)  -->
<!DOCTYPE svg PUBLIC "-//W3C//DTD SVG 1.1//EN" "http://www.w3.org/Graphics/SVG/1.1/DTD/svg11.dtd">
<svg version="1.1" id="Capa_1" xmlns="http://www.w3.org/2000/svg" xmlns:xlink="http://www.w3.org/1999/xlink" x="0px" y="0px"
	 width="548.29px" height="548.291px" viewBox="0 0 548.29 548.291" style="enable-background:new 0 0 548.29 548.291;"
	 xml:space="preserve">
<g>
	<g>
		<path d="M472.929,131.396c-0.031-2.517-0.823-5-2.55-6.96L364.655,3.675c-0.021-0.031-0.052-0.042-0.083-0.073
			c-0.631-0.704-1.355-1.287-2.132-1.796c-0.231-0.152-0.462-0.286-0.704-0.419c-0.683-0.365-1.386-0.667-2.121-0.888
			c-0.198-0.058-0.377-0.139-0.577-0.194C358.23,0.118,357.41,0,356.571,0H96.757C84.904,0,75.255,9.649,75.255,21.502V526.79
			c0,11.858,9.649,21.501,21.502,21.501h354.776c11.862,0,21.502-9.643,21.502-21.501V132.595
			C473.035,132.191,472.973,131.792,472.929,131.396z M149.967,493.397l-6.595-13.19c-2.704-5.082-4.433-8.868-6.494-13.093h-0.215
			c-1.514,4.222-3.354,8.006-5.623,13.093l-6.057,13.19h-18.814l21.082-36.871l-20.328-36.007h18.921l6.38,13.309
			c2.16,4.437,3.782,8.005,5.509,12.11h0.221c1.725-4.651,3.133-7.895,4.965-12.11l6.166-13.309H167.9l-20.528,35.57l21.62,37.308
			H149.967z M237.974,493.397h-16.439v-30.493h-27.139v30.493h-16.541v-72.878h16.541v28.011h27.139v-28.011h16.439V493.397z
			 M302.833,434.363h-19.895v59.034h-16.544v-59.034h-19.573v-13.844h56.011V434.363z M373.856,493.397l-1.075-27.895
			c-0.325-8.756-0.651-19.354-0.651-29.947h-0.319c-2.272,9.295-5.296,19.675-8.11,28.221l-8.871,28.441h-12.862l-7.789-28.221
			c-2.373-8.546-4.861-18.931-6.594-28.441h-0.221c-0.431,9.837-0.755,21.082-1.296,30.168l-1.298,27.674h-15.244l4.651-72.878
			h21.943l7.139,24.328c2.278,8.43,4.546,17.511,6.163,26.058h0.325c2.048-8.442,4.536-18.054,6.918-26.164l7.785-24.222h21.518
			l4,72.878H373.856z M448.131,493.397h-45.521v-72.878h16.545v59.041h28.977V493.397z M96.757,365.081V21.502H345.82v110.011
			c0,5.935,4.809,10.751,10.751,10.751h94.962l0.01,222.816H96.757z"/>
		<polygon points="114.334,233.093 176.388,261.928 176.388,248.219 129.455,227.665 129.455,227.405 176.388,206.851 
			176.388,193.142 114.334,221.972 		"/>
		<polygon points="371.911,206.851 419.868,227.405 419.868,227.665 371.911,248.219 371.911,261.928 433.957,233.481 
			433.957,221.589 371.911,193.142 		"/>
		<path d="M272.914,153.494c-40.891,0-74.041,33.149-74.041,74.042c0,40.886,33.15,74.034,74.041,74.034
			s74.035-33.148,74.035-74.034C346.949,186.643,313.805,153.494,272.914,153.494z M300.738,182.876l5.292-3.537
			c0,0-2.226-5.704-1.849-8.5c1.287-0.622,6.499,2.113,10.909,6.753c-2.971,11.039-9.933,9.722-9.933,9.722
			S300.067,187.187,300.738,182.876z M256.111,248.075c-0.329,1.656-2.323,5.638-3.646,8.283c-1.323,2.643-1.981,3.643-3.648,4.966
			c-1.661,1.344-2.646,3.656-2.646,3.656l-0.333,5.626c0,0,0.651,4.651,1.646,6.311c0.996,1.648-3.548,11.527-3.548,11.527
			c-2.882-0.571-4.483-3.916-5.483-6.552c-1-2.667-2.318-4.072-1.984-7.05c0.333-2.983-2.575-4.559-3.557-6.21
			c-0.989-1.679-2.323-3.986-2.323-5.643c0-1.666-3.641-3.984-3.641-3.984s-6.632-2.981-7.627-4.299
			c-0.995-1.328-2-6.977-2.32-9.289c-0.339-2.312,0.987-8.272,0.987-8.272s2.677-2.016,0.995-3.654
			c-1.661-1.657-1.977-5.974-1.977-5.974l-2.989-3.305c0,0-2.328-3.317-2.656-4.979c-0.333-1.654,0-2.648,0.333-4.315
			c0.328-1.667-0.662-4.633-0.662-6.289c12.386-30.36,33.15-37.452,33.15-37.452l1.661,6.944c0,0-3.644,1.006-5.623,0.339
			c-2-0.661-3.005-0.661-3.005-0.661l-2.638,3.641c0,0-1.013,2.328-1.338,3.653c-0.328,1.328,0.659,3.302,0.659,3.302
			s4.635,0.338,4.635-0.99s-0.651-1.981-0.651-1.981l-0.667-2.328c0,0,3.005-1.661,10.935-1.005
			c7.956,0.671,4.982,6.299,8.305,7.638c3.318,1.328-2.667,5.961-3.99,8.606c-1.323,2.654-3.31-3.317-3.31-3.317
			s1.986-2.289-1.323-2.979c-3.317-0.643-5.509,5.968-3.832,5.646c1.649-0.329,3.499,1.785,3.161,3.441
			c-0.333,1.659-0.333,1.525-1.99,5.17c-1.656,3.643-5.257,6.341-5.257,6.341s-1.693-1.026-0.714,0.969
			c1.016,1.984-0.329,6.617-0.329,7.95c0,1.318-3.979-2.322-4.626-5.648c-0.678-3.291-4.56-0.419-5.882-0.086
			c-1.328,0.338-3.746-0.57-4.386-2.215c-0.678-1.672-6.648,3.307-8.31,4.297c-1.651,0.997-0.979,3.653,1.659,2.325
			c2.65-1.328,4.968-0.333,4.312,2.339c-0.656,2.635-3.299,0.989-2.979,2.635c0.328,1.656,2.979,3.315,3.635,5.643
			c0.667,2.312,6.977,0.333,8.96-0.667c1.984-1.005,7.622-1.989,8.279,0.667c0.687,2.651,6.971,3.635,9.289,4.289
			c2.327,0.672,6.965,1.001,9.627,3.656C261.082,241.437,256.455,246.413,256.111,248.075z M271.021,170.501
			c-0.338,3.324-5.626,7.622-4.965,8.961c0.667,1.333,0,7.005-4.641,2.026c-4.643-4.977-9.294-6.665-8.95-9.987
			c0.082-0.662,4.8-1.698,4.877-2.858c7.031-6.538,18.255-5.194,19.116-3.646C274.452,168.286,271.36,167.191,271.021,170.501z
			 M328.623,192.767c4.478,7.692,11.034,28.2,8.609,31.872c-1.454-0.657-2.678-1.205-2.678-1.205h-8.84l5.298,6.191
			c0,0,2.565,3.759,6.198,3.522c-2.394,27.72-25.532,45.523-25.532,45.523c-3.527-3.537-1.764-6.617-1.764-6.617l0.997-5.309
			l0.556-8.945c0,0,0-9.272-8.845-4.866c-9.497,2.425-5.539,2.425-15.135,3.092c-9.607,0.661-8.019-19.599-8.019-19.599
			c0-30.334,23.265-7.441,23.265-7.441c13.271,8.827,15.033-7.321,15.033-7.321l9.722-3.514l0.882-4.431l-1.417-6.17l-14.12-5.827
			c0,0-1.355,4.59,2.267,10.223c0,0-1.207,6.409-4.184,4.759l-8.183-4.118c0,0-2.752-1.189-7.172,1.466
			c-4.426,2.646-11.915-0.124-11.915-0.124s0.603-4.446,5.259-6.75l3.802-2.517c0,0-0.998-4.541-0.127-8.069
			c0.872-3.53,2.431-0.441,5.963-3.094c3.528-2.641,5.964,5.191,11.265,4.31c5.298-0.887,2.657-1.77,6.201-3.533
			c3.542-1.766,6.188,3.533,6.188,3.533l7.056,0.882C329.249,198.68,328.146,190.696,328.623,192.767z"/>
	</g>
</g>
<g>
</g>
<g>
</g>
<g>
</g>
<g>
</g>
<g>
</g>
<g>
</g>
<g>
</g>
<g>
</g>
<g>
</g>
<g>
</g>
<g>
</g>
<g>
</g>
<g>
</g>
<g>
</g>
<g>
</g>
</svg>
