<?xml version="1.0" encoding="iso-8859-1"?>
<!-- Generator: Adobe Illustrator 16.0.0, SVG Export Plug-In . SVG Version: 6.00 Build 0)  -->
<!DOCTYPE svg PUBLIC "-//W3C//DTD SVG 1.1//EN" "http://www.w3.org/Graphics/SVG/1.1/DTD/svg11.dtd">
<svg version="1.1" id="Capa_1" xmlns="http://www.w3.org/2000/svg" xmlns:xlink="http://www.w3.org/1999/xlink" x="0px" y="0px"
	 width="550.801px" height="550.801px" viewBox="0 0 550.801 550.801" style="enable-background:new 0 0 550.801 550.801;"
	 xml:space="preserve">
<g>
	<g>
		<g>
			<path d="M385.241,410.258c-7.347,0-11.528,0.596-13.711,0.997v36.982h11.928c15.108,0,24.058-7.546,24.058-19.285
				C407.516,416.623,399.168,410.458,385.241,410.258z"/>
			<path d="M475.095,131.992c-0.031-2.526-0.833-5.023-2.568-6.993L366.319,3.694c-0.021-0.034-0.053-0.045-0.089-0.076
				c-0.628-0.707-1.361-1.292-2.136-1.804c-0.232-0.153-0.465-0.287-0.707-0.422c-0.686-0.366-1.393-0.67-2.136-0.892
				c-0.2-0.058-0.374-0.14-0.575-0.195C359.87,0.119,359.037,0,358.198,0H97.2c-11.907,0-21.6,9.693-21.6,21.601v507.6
				c0,11.913,9.692,21.601,21.6,21.601h356.4c11.918,0,21.6-9.688,21.6-21.601V133.202
				C475.2,132.796,475.137,132.398,475.095,131.992z M188.629,522.799L176.5,498.541c-4.968-9.345-8.156-16.306-11.929-24.058
				h-0.401c-2.787,7.757-6.162,14.713-10.336,24.058l-11.14,24.258h-34.591l38.77-67.807l-37.378-66.208h34.792l11.73,24.453
				c3.974,8.153,6.961,14.719,10.146,22.265h0.387c3.188-8.543,5.769-14.513,9.144-22.265l11.338-24.453h34.594l-37.779,65.407
				l39.772,68.597h-34.992V522.799z M323.615,522.799h-83.71V388.784h30.43v108.564h53.28V522.799z M411.697,522.799
				c-2.193-3.776-5.368-14.719-9.344-31.219c-3.586-16.696-9.345-21.273-21.674-21.474h-9.145v52.692h-30.027V390.572
				c9.746-1.593,24.258-2.784,40.363-2.784c19.881,0,33.803,2.984,43.337,10.536c7.963,6.359,12.329,15.704,12.329,28.033
				c0,17.097-12.129,28.83-23.656,33.002v0.596c9.339,3.775,14.513,12.725,17.893,25.054c4.161,15.114,8.343,32.611,10.922,37.779
				h-30.998V522.799z M97.2,366.752V21.601h250.204v110.515c0,5.961,4.83,10.8,10.8,10.8h95.396l0.011,223.836H97.2z"/>
		</g>
		<g>
			<path d="M147.815,87.054v243.401h238.022V87.054H147.815z M377.283,321.901H156.368V95.607h220.915V321.901z"/>
			<rect x="173.476" y="112.391" width="93.35" height="12.83"/>
			<rect x="173.476" y="151.562" width="93.35" height="12.83"/>
			<rect x="173.476" y="188.486" width="93.35" height="12.83"/>
			<rect x="173.476" y="227.665" width="188.853" height="12.825"/>
			<rect x="173.476" y="259.901" width="188.853" height="12.831"/>
			<rect x="173.476" y="294.912" width="188.853" height="12.836"/>
			<rect x="278.941" y="112.391" width="18.533" height="82.516"/>
			<rect x="311.724" y="142.317" width="18.531" height="52.589"/>
			<rect x="343.797" y="121.646" width="18.531" height="73.256"/>
		</g>
	</g>
</g>
<g>
</g>
<g>
</g>
<g>
</g>
<g>
</g>
<g>
</g>
<g>
</g>
<g>
</g>
<g>
</g>
<g>
</g>
<g>
</g>
<g>
</g>
<g>
</g>
<g>
</g>
<g>
</g>
<g>
</g>
</svg>
