<?xml version="1.0" encoding="iso-8859-1"?>
<!-- Generator: Adobe Illustrator 16.0.0, SVG Export Plug-In . SVG Version: 6.00 Build 0)  -->
<!DOCTYPE svg PUBLIC "-//W3C//DTD SVG 1.1//EN" "http://www.w3.org/Graphics/SVG/1.1/DTD/svg11.dtd">
<svg version="1.1" id="Capa_1" xmlns="http://www.w3.org/2000/svg" xmlns:xlink="http://www.w3.org/1999/xlink" x="0px" y="0px"
	 width="550.801px" height="550.801px" viewBox="0 0 550.801 550.801" style="enable-background:new 0 0 550.801 550.801;"
	 xml:space="preserve">
<g>
	<g>
		<path d="M475.095,131.992c-0.031-2.526-0.828-5.023-2.562-6.993L366.325,3.694c-0.021-0.034-0.053-0.045-0.085-0.076
			c-0.633-0.707-1.36-1.292-2.141-1.804c-0.232-0.153-0.464-0.287-0.707-0.422c-0.686-0.366-1.392-0.67-2.13-0.892
			c-0.2-0.058-0.38-0.14-0.58-0.195C359.87,0.119,359.048,0,358.204,0H97.2c-11.907,0-21.6,9.693-21.6,21.601v507.6
			c0,11.913,9.692,21.601,21.6,21.601h356.4c11.918,0,21.6-9.688,21.6-21.601V133.202
			C475.2,132.796,475.137,132.398,475.095,131.992z M171.358,464.411v49.781h-26.924v-48.891l-37.737-70.511h30.823l12.221,28.698
			c3.721,8.68,6.199,15.056,9.213,22.854h0.351c2.663-7.445,5.492-14.349,9.033-22.854l12.047-28.698h30.291L171.358,464.411z
			 M321.042,461.759c0,36.845-18.604,54.385-49.778,54.385c-30.117,0-47.828-16.653-47.828-54.749v-66.604h27.103v68.739
			c0,20.551,7.791,31.003,21.61,31.003c14.167,0,21.967-9.92,21.967-31.003v-68.739h26.926V461.759z M404.109,514.192h-31.53
			l-38.264-119.391h29.584l14.522,50.482c4.077,14.175,7.795,27.817,10.632,42.699h0.527c3.017-14.35,6.729-28.524,10.811-42.167
			l15.229-51.015h28.698L404.109,514.192z M97.2,366.752V21.601h250.204v110.515c0,5.961,4.83,10.8,10.8,10.8h95.396l0.011,223.836
			H97.2z"/>
		<path d="M354.792,176.386c0.185-2.183,0.312-4.271,0.312-6.249c0-45.062-36.661-81.722-81.723-81.722
			c-45.064,0-81.726,36.661-81.726,81.722c0,2.36,0.18,4.838,0.443,7.441c-30.913,12.345-51.419,42.235-51.419,75.784
			c0,45.062,36.661,81.723,81.726,81.723c19.396,0,37.868-6.897,52.639-19.401c14.763,12.504,33.236,19.401,52.637,19.401
			c45.066,0,81.717-36.661,81.717-81.723C409.398,218.785,387.145,187.795,354.792,176.386z M293.319,253.362
			c0,17.701-6.486,34.294-18.285,47.351c-11.8-13.057-18.291-29.645-18.291-47.351c0-1.03,0.065-2.138,0.124-3.245
			c5.476,1.144,11.005,1.737,16.508,1.737c6.636,0,13.268-0.831,19.781-2.474C293.256,250.755,293.319,252.086,293.319,253.362z
			 M291.685,238.61c-10.987,2.969-22.328,3.24-33.479,0.777c2.495-12.416,8.332-24.015,16.828-33.449
			C283.326,215.156,289.111,226.486,291.685,238.61z M247.85,236.24c-22.228-8.598-38.763-27.947-43.73-51.316
			c6.017-1.621,12.145-2.479,18.286-2.479c16.447,0,32.146,5.706,44.808,16.089C257.568,209.185,250.858,222.231,247.85,236.24z
			 M301.941,234.958c-3.138-13.531-9.761-26.13-19.095-36.444c16.596-13.574,38.622-19.077,59.99-14.392
			C338.302,206.577,322.866,225.698,301.941,234.958z M273.381,99.215c39.107,0,70.922,31.814,70.922,70.922
			c0,1.042-0.031,2.118-0.089,3.235c-24.701-5.147-50.119,1.516-69.056,17.468l-0.119-0.113l-0.119,0.113
			c-14.737-12.408-33.188-19.19-52.521-19.19c-6.652,0-13.283,0.826-19.802,2.474c-0.097-1.379-0.142-2.695-0.142-3.981
			C202.456,131.029,234.273,99.215,273.381,99.215z M222.399,324.285c-39.107,0-70.925-31.814-70.925-70.923
			c0-28.292,16.783-53.623,42.354-64.86c6.236,27.103,26.011,49.341,52.305,58.633l-0.016,0.137l0.108,0.032
			c-0.185,2.138-0.277,4.126-0.277,6.054c0,20.54,7.512,39.825,21.265,54.896C254.544,318.632,238.832,324.285,222.399,324.285z
			 M327.671,324.285c-16.433,0-32.147-5.653-44.809-16.026c13.753-15.076,21.268-34.356,21.268-54.896
			c0-2.333-0.126-4.709-0.385-7.285l0.09-0.031l-0.016-0.124c25.064-10.094,43.743-32.342,49.406-58.672
			c26.995,10.455,45.373,36.819,45.373,66.113C398.599,292.471,366.778,324.285,327.671,324.285z"/>
	</g>
</g>
<g>
</g>
<g>
</g>
<g>
</g>
<g>
</g>
<g>
</g>
<g>
</g>
<g>
</g>
<g>
</g>
<g>
</g>
<g>
</g>
<g>
</g>
<g>
</g>
<g>
</g>
<g>
</g>
<g>
</g>
</svg>
