<svg xmlns="http://www.w3.org/2000/svg" viewBox="0 0 155.8 155.6" width="155.8px" height="155.6px" enable-background="new 0 0 155.8 155.6" xmlns:xlink="http://www.w3.org/1999/xlink"><defs><linearGradient id="4" gradientUnits="userSpaceOnUse" y1="5.819" x2="0" y2="72.23"><stop stop-color="#fff"/><stop offset=".218" stop-color="#fcfcfc"/><stop offset=".354" stop-color="#f4f4f4"/><stop offset=".467" stop-color="#e5e5e5"/><stop offset=".568" stop-color="#d1d1d1"/><stop offset=".66" stop-color="#b6b6b6"/><stop offset=".747" stop-color="#959595"/><stop offset=".829" stop-color="#6e6e6e"/><stop offset=".907" stop-color="#414141"/><stop offset=".98" stop-color="#0f0f0f"/><stop offset="1"/></linearGradient><linearGradient id="5" gradientUnits="userSpaceOnUse" y1="3.719" x2="0" y2="151.91"><stop stop-color="#0d0d0d"/><stop offset=".276" stop-color="#666"/><stop offset=".314"/><stop offset=".622" stop-color="#404040"/><stop offset=".941" stop-color="#383838"/><stop offset="1"/></linearGradient><linearGradient id="3" gradientUnits="userSpaceOnUse" y1=".395" x2="0" y2="6.01"><stop stop-color="#6b6b6b"/><stop offset=".19" stop-color="#676767"/><stop offset=".385" stop-color="#5b5b5b"/><stop offset=".581" stop-color="#464646"/><stop offset=".779" stop-color="#2a2a2a"/><stop offset=".976" stop-color="#050505"/><stop offset="1"/></linearGradient><linearGradient id="1" gradientUnits="userSpaceOnUse" y1="0" x2="0" y2="155.63"><stop stop-color="#7a7a7a"/><stop offset="1"/></linearGradient><linearGradient id="0" gradientUnits="userSpaceOnUse" y1="149.34" x2="0" y2="124.35"><stop stop-color="#fff"/><stop offset=".006" stop-color="#f7f7f7"/><stop offset=".036" stop-color="#d3d3d3"/><stop offset=".07" stop-color="#b2b2b2"/><stop offset=".108" stop-color="#979797"/><stop offset=".151" stop-color="#818181"/><stop offset=".201" stop-color="#707070"/><stop offset=".263" stop-color="#646464"/><stop offset=".349" stop-color="#5e5e5e"/><stop offset=".589" stop-color="#5c5c5c"/></linearGradient><linearGradient id="2" gradientUnits="userSpaceOnUse" y1="5.806" x2="0" y2="30.798" xlink:href="#0"/></defs><path d="m130.1 143.6h-105.1c-10.7 0-19.3-8.6-19.3-19.3v5.7c0 10.7 8.6 19.3 19.3 19.3h105.2c10.7 0 19.3-8.6 19.3-19.3v-5.7c-.1 10.7-8.7 19.3-19.4 19.3" opacity=".15" fill="url(#0)"/><g opacity=".6"><path d="m133.1.4h-111.1c-4 0-7.7 1-10.8 2.8 2.3-.1 4.4 1.6 4.5 2.8 2.5-1.1 5.4-1.7 8.4-1.7h106.9c3 0 5.8.6 8.4 1.7-.5-1.2 1.5-3.2 4.4-3.1-3-1.4-6.7-2.5-10.7-2.5" fill="url(#3)"/></g><path d="M134.7,0H20.9C9.4,0,0,9.4,0,20.9v113.9c0,11.5,9.4,20.9,20.9,20.9h113.8c11.5,0,20.9-9.4,20.9-20.9V20.9
		C155.6,9.4,146.3,0,134.7,0z" fill="url(#1)"/><g fill="#010101"><path d="m134.3.6h-112.9c-11.5 0-20.8 9.3-20.8 20.8v112.9c0 11.4 9.3 20.7 20.7 20.7h112.9c11.4 0 20.7-9.3 20.7-20.7v-112.9c.1-11.5-9.2-20.8-20.6-20.8"/><path d="m149.1 131.4c0 10.5-8.6 19.1-19.1 19.1h-104.1c-10.6 0-19.1-8.6-19.1-19.1v-104.1c0-10.5 8.5-19.1 19.1-19.1h104.1c10.5 0 19.1 8.5 19.1 19.1v104.1"/></g><path d="m148.7 131.3c0 10.5-8.5 19-19 19h-103.6c-10.5 0-19-8.5-19-19v-103.3c0-10.5 8.5-19 19-19h103.6c10.5 0 19 8.5 19 19v103.3" fill="#020202"/><path d="m148.4 131.3c0 10.4-8.5 18.8-18.9 18.8h-103.1c-10.4 0-18.9-8.4-18.9-18.8v-102.6c0-10.4 8.5-18.8 18.9-18.8h103.1c10.4 0 18.9 8.4 18.9 18.8v102.6" fill="#030303"/><path d="m148 131.2c0 10.3-8.4 18.7-18.8 18.7h-102.6c-10.4 0-18.8-8.4-18.8-18.7v-101.8c0-10.3 8.4-18.7 18.8-18.7h102.6c10.4 0 18.8 8.4 18.8 18.7v101.8" fill="#040404"/><path d="m147.7 131.1c0 10.2-8.4 18.5-18.7 18.5h-102.1c-10.3 0-18.7-8.3-18.7-18.5v-101c0-10.2 8.4-18.5 18.7-18.5h102.1c10.3 0 18.7 8.3 18.7 18.5v101" fill="#050505"/><path d="m147.3 131.1c0 10.2-8.3 18.4-18.6 18.4h-101.6c-10.3 0-18.6-8.2-18.6-18.4v-100.3c0-10.2 8.3-18.4 18.6-18.4h101.6c10.3 0 18.6 8.2 18.6 18.4v100.3" fill="#060606"/><path d="m147 131c0 10.1-8.3 18.3-18.6 18.3h-101c-10.2 0-18.5-8.2-18.5-18.3v-99.5c0-10.1 8.3-18.2 18.5-18.2h101.1c10.2 0 18.6 8.2 18.6 18.2v99.5z" fill="#070707"/><path d="m146.7 130.9c0 10-8.3 18.1-18.5 18.1h-100.6c-10.2 0-18.5-8.1-18.5-18.1v-98.6c0-10 8.3-18.1 18.5-18.1h100.6c10.2 0 18.5 8.1 18.5 18.1v98.6" fill="#080808"/><path d="m146.3 130.9c0 9.9-8.2 18-18.4 18h-100c-10.1 0-18.4-8-18.4-18v-97.9c0-9.9 8.2-18 18.4-18h100.1c10.1 0 18.4 8 18.4 18v97.9z" fill="#090909"/><path d="m146 130.8c0 9.8-8.2 17.8-18.3 17.8h-99.6c-10.1 0-18.3-8-18.3-17.8v-97.1c0-9.8 8.2-17.8 18.3-17.8h99.6c10.1 0 18.3 8 18.3 17.8v97.1" fill="#0a0a0a"/><path d="m145.6 130.7c0 9.8-8.1 17.7-18.2 17.7h-99c-10 0-18.2-7.9-18.2-17.7v-96.3c0-9.8 8.1-17.7 18.2-17.7h99.1c10 0 18.2 7.9 18.2 17.7v96.3z" fill="#0b0b0b"/><path d="m145.3 130.7c0 9.7-8.1 17.5-18.1 17.5h-98.6c-10 0-18.1-7.9-18.1-17.5v-95.6c0-9.7 8.1-17.5 18.1-17.5h98.6c10 0 18.1 7.9 18.1 17.5v95.6" fill="#0c0c0c"/><path d="m144.9 130.6c0 9.6-8.1 17.4-18 17.4h-98c-9.9 0-18-7.8-18-17.4v-94.8c0-9.6 8.1-17.4 18-17.4h98.1c9.9 0 18 7.8 18 17.4v94.8z" fill="#0c0d0d"/><path d="m144.6 130.5c0 9.5-8 17.3-17.9 17.3h-97.6c-9.9 0-17.9-7.7-17.9-17.3v-94c0-9.5 8-17.3 17.9-17.3h97.6c9.9 0 17.9 7.7 17.9 17.3v94" fill="#0d0e0e"/><path d="m144.3 130.5c0 9.5-8 17.1-17.8 17.1h-97.1c-9.8 0-17.8-7.7-17.8-17.1v-93.3c0-9.5 8-17.1 17.8-17.1h97.1c9.8 0 17.8 7.7 17.8 17.1v93.3" fill="#0e0f0f"/><path d="m143.9 130.4c0 9.4-7.9 17-17.7 17h-96.6c-9.8 0-17.7-7.6-17.7-17v-92.5c0-9.4 7.9-17 17.7-17h96.6c9.8 0 17.7 7.6 17.7 17v92.5" fill="#0f1010"/><path d="m143.6 130.4c0 9.3-7.9 16.8-17.6 16.8h-96.1c-9.7 0-17.6-7.5-17.6-16.8v-91.8c0-9.3 7.9-16.8 17.6-16.8h96.1c9.7 0 17.6 7.5 17.6 16.8v91.8" fill="#101111"/><path d="m143.2 130.3c0 9.2-7.9 16.7-17.5 16.7h-95.6c-9.7 0-17.5-7.5-17.5-16.7v-91c0-9.2 7.8-16.7 17.5-16.7h95.6c9.7 0 17.5 7.5 17.5 16.7v91" fill="#111"/><path d="m142.9 130.2c0 9.1-7.8 16.5-17.5 16.5h-95c-9.6 0-17.4-7.4-17.4-16.5v-90.1c0-9.1 7.8-16.5 17.4-16.5h95.1c9.6 0 17.5 7.4 17.5 16.5v90.1z" fill="#111212"/><path d="m142.6 130.2c0 9.1-7.8 16.4-17.4 16.4h-94.6c-9.6 0-17.4-7.3-17.4-16.4v-89.4c0-9.1 7.8-16.4 17.4-16.4h94.6c9.6 0 17.4 7.3 17.4 16.4v89.4" fill="#121313"/><path d="m142.2 130.1c0 9-7.7 16.3-17.3 16.3h-94c-9.5 0-17.3-7.3-17.3-16.3v-88.6c0-9 7.7-16.3 17.3-16.3h94.1c9.5 0 17.3 7.3 17.3 16.3v88.6z" fill="#131413"/><path d="m141.9 130c0 8.9-7.7 16.1-17.2 16.1h-93.6c-9.5 0-17.2-7.2-17.2-16.1v-87.8c0-8.9 7.7-16.1 17.2-16.1h93.6c9.5 0 17.2 7.2 17.2 16.1v87.8" fill="#131414"/><path d="m141.5 130c0 8.8-7.6 16-17.1 16h-93c-9.4 0-17.1-7.2-17.1-16v-87.1c0-8.8 7.6-16 17.1-16h93.1c9.4 0 17.1 7.2 17.1 16v87.1z" fill="#141515"/><g fill="#151616"><path d="m141.2 129.9c0 8.7-7.6 15.8-17 15.8h-92.6c-9.4 0-17-7.1-17-15.8v-86.3c0-8.7 7.6-15.8 17-15.8h92.6c9.4 0 17 7.1 17 15.8v86.3"/><path d="m140.8 129.8c0 8.7-7.6 15.7-16.9 15.7h-92c-9.3 0-16.9-7-16.9-15.7v-85.5c0-8.7 7.6-15.7 16.9-15.7h92.1c9.3 0 16.9 7 16.9 15.7v85.5z"/></g><path d="m140.5 129.8c0 8.6-7.5 15.6-16.8 15.6h-91.6c-9.3 0-16.8-7-16.8-15.6v-84.8c0-8.6 7.5-15.6 16.8-15.6h91.6c9.3 0 16.8 7 16.8 15.6v84.8" fill="#161717"/><g fill="#171818"><path d="m140.2 129.7c0 8.5-7.5 15.4-16.7 15.4h-91.1c-9.2 0-16.7-6.9-16.7-15.4v-84c0-8.5 7.5-15.4 16.7-15.4h91.1c9.2 0 16.7 6.9 16.7 15.4v84"/><path d="m139.8 129.6c0 8.4-7.4 15.3-16.6 15.3h-90.6c-9.2 0-16.6-6.8-16.6-15.3v-83.2c0-8.4 7.4-15.3 16.6-15.3h90.6c9.2 0 16.6 6.8 16.6 15.3v83.2"/></g><path d="m139.5 129.6c0 8.4-7.4 15.1-16.5 15.1h-90.1c-9.1 0-16.5-6.8-16.5-15.1v-82.5c0-8.4 7.4-15.1 16.5-15.1h90.1c9.1 0 16.5 6.8 16.5 15.1v82.5" fill="#181919"/><path d="m139.1 129.5c0 8.3-7.4 15-16.4 15h-89.6c-9.1 0-16.4-6.7-16.4-15v-81.7c0-8.3 7.4-15 16.4-15h89.6c9.1 0 16.4 6.7 16.4 15v81.7" fill="#181a19"/><path d="m138.8 129.5c0 8.2-7.3 14.8-16.3 14.8h-89.1c-9 0-16.3-6.6-16.3-14.8v-80.9c0-8.2 7.3-14.8 16.3-14.8h89.1c9 0 16.3 6.6 16.3 14.8v80.9" fill="#191a1a"/><g fill="#1a1b1b"><path d="m138.5 129.4c0 8.1-7.3 14.7-16.3 14.7h-88.6c-9 0-16.3-6.6-16.3-14.7v-80.1c0-8.1 7.3-14.7 16.3-14.7h88.6c9 0 16.3 6.6 16.3 14.7v80.1"/><path d="m138.1 129.3c0 8-7.2 14.6-16.2 14.6h-88c-8.9 0-16.2-6.5-16.2-14.6v-79.3c0-8 7.2-14.6 16.2-14.6h88.1c8.9 0 16.2 6.5 16.2 14.6v79.3z"/></g><path d="m137.8 129.3c0 8-7.2 14.4-16.1 14.4h-87.6c-8.9 0-16.1-6.5-16.1-14.4v-78.6c0-8 7.2-14.4 16.1-14.4h87.6c8.9 0 16.1 6.5 16.1 14.4v78.6" fill="#1b1c1c"/><path d="m137.4 129.2c0 7.9-7.2 14.3-16 14.3h-87c-8.8 0-16-6.4-16-14.3v-77.8c0-7.9 7.2-14.3 16-14.3h87.1c8.8 0 16 6.4 16 14.3v77.8z" fill="#1c1d1c"/><path d="m137.1 129.1c0 7.8-7.1 14.1-15.9 14.1h-86.6c-8.8 0-15.9-6.3-15.9-14.1v-77c0-7.8 7.1-14.1 15.9-14.1h86.6c8.8 0 15.9 6.3 15.9 14.1v77" fill="#1c1d1d"/><g fill="#1d1e1e"><path d="m136.7 129.1c0 7.7-7.1 14-15.8 14h-86c-8.7 0-15.8-6.3-15.8-14v-76.3c0-7.7 7.1-14 15.8-14h86.1c8.7 0 15.8 6.3 15.8 14v76.3z"/><path d="m136.4 129c0 7.6-7 13.9-15.7 13.9h-85.6c-8.7 0-15.7-6.2-15.7-13.9v-75.5c0-7.6 7-13.8 15.7-13.8h85.6c8.7 0 15.7 6.2 15.7 13.8v75.5"/></g><g fill="#1e1f1f"><path d="m136.1 128.9c0 7.6-7 13.7-15.6 13.7h-85.1c-8.6 0-15.6-6.1-15.6-13.7v-74.7c0-7.6 7-13.7 15.6-13.7h85.1c8.6 0 15.6 6.1 15.6 13.7v74.7"/><path d="m135.7 128.9c0 7.5-7 13.6-15.5 13.6h-84.6c-8.6 0-15.5-6.1-15.5-13.6v-74c0-7.5 6.9-13.6 15.5-13.6h84.6c8.6 0 15.5 6.1 15.5 13.6v74"/></g><path d="m135.4 128.8c0 7.4-6.9 13.4-15.4 13.4h-84.1c-8.5 0-15.4-6-15.4-13.4v-73.2c0-7.4 6.9-13.4 15.4-13.4h84.1c8.5 0 15.4 6 15.4 13.4v73.2" fill="#1f2020"/><path d="m135 128.7c0 7.3-6.9 13.3-15.3 13.3h-83.6c-8.5 0-15.3-5.9-15.3-13.3v-72.3c0-7.3 6.9-13.3 15.3-13.3h83.6c8.5 0 15.3 5.9 15.3 13.3v72.3" fill="#202120"/><path d="m134.7 128.7c0 7.3-6.8 13.1-15.2 13.1h-83.1c-8.4 0-15.2-5.9-15.2-13.1v-71.6c0-7.3 6.8-13.1 15.2-13.1h83.1c8.4 0 15.2 5.9 15.2 13.1v71.6" fill="#202121"/><path d="m134.3 128.6c0 7.2-6.8 13-15.2 13h-82.5c-8.4 0-15.1-5.8-15.1-13v-70.8c0-7.2 6.8-13 15.1-13h82.6c8.4 0 15.2 5.8 15.2 13v70.8z" fill="#212221"/><path d="m134 128.5c0 7.1-6.7 12.9-15.1 12.9h-82c-8.3 0-15.1-5.8-15.1-12.9v-70c0-7.1 6.7-12.9 15.1-12.9h82.1c8.3 0 15.1 5.8 15.1 12.9v70z" fill="#212222"/><g fill="#222323"><path d="m133.7 128.5c0 7-6.7 12.7-15 12.7h-81.6c-8.3 0-15-5.7-15-12.7v-69.3c0-7 6.7-12.7 15-12.7h81.6c8.3 0 15 5.7 15 12.7v69.3"/><path d="m133.3 128.4c0 6.9-6.7 12.6-14.9 12.6h-81c-8.2 0-14.9-5.6-14.9-12.6v-68.5c0-6.9 6.7-12.6 14.9-12.6h81.1c8.2 0 14.9 5.6 14.9 12.6v68.5z"/></g><g fill="#232424"><path d="m133 128.4c0 6.9-6.6 12.4-14.8 12.4h-80.6c-8.2 0-14.8-5.6-14.8-12.4v-67.8c0-6.9 6.6-12.4 14.8-12.4h80.6c8.2 0 14.8 5.6 14.8 12.4v67.8"/><path d="m132.6 128.3c0 6.8-6.6 12.3-14.7 12.3h-80c-8.1 0-14.7-5.5-14.7-12.3v-67c0-6.8 6.6-12.3 14.7-12.3h80.1c8.1 0 14.7 5.5 14.7 12.3v67z"/></g><g fill="#242525"><path d="m132.3 128.2c0 6.7-6.5 12.2-14.6 12.2h-79.6c-8.1 0-14.6-5.4-14.6-12.2v-66.2c0-6.7 6.5-12.1 14.6-12.1h79.6c8.1 0 14.6 5.4 14.6 12.1v66.2"/><path d="m132 128.2c0 6.6-6.5 12-14.5 12h-79.1c-8 0-14.5-5.4-14.5-12v-65.5c0-6.6 6.5-12 14.5-12h79.1c8 0 14.5 5.4 14.5 12v65.5"/></g><g fill="#252626"><path d="m131.6 128.1c0 6.6-6.5 11.9-14.4 11.9h-78.6c-8 0-14.4-5.3-14.4-11.9v-64.7c0-6.6 6.5-11.9 14.4-11.9h78.6c8 0 14.4 5.3 14.4 11.9v64.7"/><path d="m131.3 128c0 6.5-6.4 11.7-14.3 11.7h-78.1c-7.9 0-14.3-5.3-14.3-11.7v-63.9c0-6.5 6.4-11.7 14.3-11.7h78.1c7.9 0 14.3 5.2 14.3 11.7v63.9"/></g><g fill="#262727"><path d="m130.9 128c0 6.4-6.4 11.6-14.2 11.6h-77.6c-7.9 0-14.2-5.2-14.2-11.6v-63.1c0-6.4 6.4-11.6 14.2-11.6h77.6c7.9 0 14.2 5.2 14.2 11.6v63.1"/><path d="m130.6 127.9c0 6.3-6.3 11.4-14.1 11.4h-77.1c-7.8 0-14.1-5.1-14.1-11.4v-62.3c0-6.3 6.3-11.4 14.1-11.4h77.1c7.8 0 14.1 5.1 14.1 11.4v62.3"/></g><g fill="#272828"><path d="m130.2 127.8c0 6.2-6.3 11.3-14.1 11.3h-76.5c-7.8 0-14-5.1-14-11.3v-61.5c0-6.2 6.3-11.3 14-11.3h76.6c7.8 0 14.1 5.1 14.1 11.3v61.5z"/><path d="m129.9 127.8c0 6.2-6.3 11.2-14 11.2h-76c-7.7 0-14-5-14-11.2v-60.8c0-6.2 6.2-11.2 14-11.2h76.1c7.7 0 14 5 14 11.2v60.8z"/></g><path d="m129.6 127.7c0 6.1-6.2 11-13.9 11h-75.6c-7.7 0-13.9-4.9-13.9-11v-60c0-6.1 6.2-11 13.9-11h75.6c7.7 0 13.9 4.9 13.9 11v60" fill="#282928"/><path d="m129.2 127.6c0 6-6.2 10.9-13.8 10.9h-75c-7.6 0-13.8-4.9-13.8-10.9v-59.2c0-6 6.2-10.9 13.8-10.9h75.1c7.6 0 13.8 4.9 13.8 10.9v59.2z" fill="#282929"/><path d="m128.9 127.6c0 5.9-6.1 10.7-13.7 10.7h-74.6c-7.6 0-13.7-4.8-13.7-10.7v-58.5c0-5.9 6.1-10.7 13.7-10.7h74.6c7.6 0 13.7 4.8 13.7 10.7v58.5" fill="#292a29"/><path d="m128.5 127.5c0 5.8-6.1 10.6-13.6 10.6h-74c-7.5 0-13.6-4.7-13.6-10.6v-57.7c0-5.8 6.1-10.6 13.6-10.6h74.1c7.5 0 13.6 4.7 13.6 10.6v57.7z" fill="#292a2a"/><path d="m128.2 127.4c0 5.8-6 10.4-13.5 10.4h-73.6c-7.5 0-13.5-4.7-13.5-10.4v-56.9c0-5.8 6-10.4 13.5-10.4h73.6c7.5 0 13.5 4.7 13.5 10.4v56.9" fill="#2a2b2a"/><path d="m127.8 127.4c0 5.7-6 10.3-13.4 10.3h-73c-7.4 0-13.4-4.6-13.4-10.3v-56.2c0-5.7 6-10.3 13.4-10.3h73.1c7.4 0 13.4 4.6 13.4 10.3v56.2z" fill="#2a2b2b"/><path d="m127.5 127.3c0 5.6-6 10.2-13.3 10.2h-72.6c-7.4 0-13.3-4.6-13.3-10.2v-55.4c0-5.6 6-10.2 13.3-10.2h72.6c7.4 0 13.3 4.5 13.3 10.2v55.4" fill="#2b2b2b"/><g fill="#2b2c2c"><path d="m127.2 127.3c0 5.5-5.9 10-13.2 10h-72.1c-7.3 0-13.2-4.5-13.2-10v-54.6c0-5.5 5.9-10 13.2-10h72.1c7.3 0 13.2 4.5 13.2 10v54.6"/><path d="m126.8 127.2c0 5.5-5.9 9.9-13.1 9.9h-71.6c-7.3 0-13.1-4.4-13.1-9.9v-53.8c0-5.5 5.9-9.9 13.1-9.9h71.6c7.3 0 13.1 4.4 13.1 9.9v53.8"/></g><g fill="#2c2d2d"><path d="m126.5 127.1c0 5.4-5.8 9.7-13 9.7h-71.1c-7.2 0-13-4.4-13-9.7v-53c0-5.4 5.8-9.7 13-9.7h71.1c7.2 0 13 4.4 13 9.7v53"/><path d="m126.1 127.1c0 5.3-5.8 9.6-13 9.6h-70.5c-7.2 0-12.9-4.3-12.9-9.6v-52.3c0-5.3 5.8-9.6 12.9-9.6h70.6c7.2 0 13 4.3 13 9.6v52.3z"/></g><g fill="#2d2e2e"><path d="m125.8 127c0 5.2-5.8 9.5-12.9 9.5h-70c-7.1 0-12.9-4.2-12.9-9.5v-51.5c0-5.2 5.8-9.5 12.9-9.5h70.1c7.1 0 12.9 4.2 12.9 9.5v51.5z"/><path d="m125.5 126.9c0 5.1-5.7 9.3-12.8 9.3h-69.6c-7.1 0-12.8-4.2-12.8-9.3v-50.7c0-5.1 5.7-9.3 12.8-9.3h69.6c7.1 0 12.8 4.2 12.8 9.3v50.7"/></g><g fill="#2e2f2f"><path d="m125.1 126.9c0 5.1-5.7 9.2-12.7 9.2h-69c-7 0-12.7-4.1-12.7-9.2v-50c0-5.1 5.7-9.2 12.7-9.2h69.1c7 0 12.7 4.1 12.7 9.2v50z"/><path d="m124.8 126.8c0 5-5.6 9-12.6 9h-68.6c-6.9 0-12.6-4-12.6-9v-49.2c0-5 5.6-9 12.6-9h68.6c6.9 0 12.6 4 12.6 9v49.2"/></g><path d="m124.4 126.7c0 4.9-5.6 8.9-12.5 8.9h-68c-6.9 0-12.5-4-12.5-8.9v-48.4c0-4.9 5.6-8.9 12.5-8.9h68.1c6.9 0 12.5 4 12.5 8.9v48.4z" fill="#2f302f"/><path d="m124.1 126.7c0 4.8-5.6 8.7-12.4 8.7h-67.6c-6.8 0-12.4-3.9-12.4-8.7v-47.7c0-4.8 5.5-8.7 12.4-8.7h67.6c6.8 0 12.4 3.9 12.4 8.7v47.7" fill="#2f3030"/><path d="m123.7 126.6c0 4.8-5.5 8.6-12.3 8.6h-67c-6.8 0-12.3-3.9-12.3-8.6v-46.9c0-4.7 5.5-8.6 12.3-8.6h67.1c6.8 0 12.3 3.9 12.3 8.6v46.9z" fill="#303130"/><path d="m123.4 126.5c0 4.7-5.5 8.5-12.2 8.5h-66.6c-6.7 0-12.2-3.8-12.2-8.5v-46.1c0-4.7 5.5-8.5 12.2-8.5h66.6c6.7 0 12.2 3.8 12.2 8.5v46.1" fill="#303131"/><path d="m123.1 126.5c0 4.6-5.4 8.3-12.1 8.3h-66.1c-6.7 0-12.1-3.7-12.1-8.3v-45.3c0-4.6 5.4-8.3 12.1-8.3h66.1c6.7 0 12.1 3.7 12.1 8.3v45.3" fill="#313131"/><path d="m122.7 126.4c0 4.5-5.4 8.2-12 8.2h-65.6c-6.6 0-12-3.7-12-8.2v-44.5c0-4.5 5.4-8.2 12-8.2h65.6c6.6 0 12 3.7 12 8.2v44.5" fill="#313232"/><path d="m122.4 126.4c0 4.4-5.3 8-11.9 8h-65.1c-6.6 0-11.9-3.6-11.9-8v-43.8c0-4.4 5.3-8 11.9-8h65.1c6.6 0 11.9 3.6 11.9 8v43.8" fill="#323232"/><path d="m122 126.3c0 4.4-5.3 7.9-11.8 7.9h-64.6c-6.5 0-11.8-3.5-11.8-7.9v-43c0-4.4 5.3-7.9 11.8-7.9h64.6c6.5 0 11.8 3.5 11.8 7.9v43" fill="#323333"/><path d="m121.7 126.2c0 4.3-5.3 7.8-11.8 7.8h-64c-6.5 0-11.8-3.5-11.8-7.8v-42.2c0-4.3 5.3-7.7 11.8-7.7h64.1c6.5 0 11.8 3.5 11.8 7.7v42.2z" fill="#333"/><g fill="#333434"><path d="m121.3 126.2c0 4.2-5.2 7.6-11.7 7.6h-63.5c-6.4 0-11.7-3.4-11.7-7.6v-41.5c0-4.2 5.2-7.6 11.7-7.6h63.6c6.4 0 11.7 3.4 11.7 7.6v41.5z"/><path d="m121 126.1c0 4.1-5.2 7.5-11.6 7.5h-63c-6.4 0-11.6-3.3-11.6-7.5v-40.7c0-4.1 5.2-7.5 11.6-7.5h63.1c6.4 0 11.6 3.3 11.6 7.5v40.7z"/></g><path d="m120.7 126c0 4-5.1 7.3-11.5 7.3h-62.6c-6.3 0-11.5-3.3-11.5-7.3v-39.9c0-4 5.1-7.3 11.5-7.3h62.6c6.3 0 11.5 3.3 11.5 7.3v39.9" fill="#343534"/><path d="m120.3 126c0 4-5.1 7.2-11.4 7.2h-62c-6.3 0-11.4-3.2-11.4-7.2v-39.2c0-4 5.1-7.2 11.4-7.2h62.1c6.3 0 11.4 3.2 11.4 7.2v39.2z" fill="#343535"/><path d="m120 125.9c0 3.9-5.1 7-11.3 7h-61.6c-6.2 0-11.3-3.2-11.3-7v-38.4c0-3.9 5.1-7 11.3-7h61.6c6.2 0 11.3 3.2 11.3 7v38.4" fill="#353535"/><path d="m119.6 125.8c0 3.8-5 6.9-11.2 6.9h-61c-6.2 0-11.2-3.1-11.2-6.9v-37.6c0-3.8 5-6.9 11.2-6.9h61.1c6.2 0 11.2 3.1 11.2 6.9v37.6z" fill="#353636"/><path d="m119.3 125.8c0 3.7-5 6.8-11.1 6.8h-60.6c-6.1 0-11.1-3-11.1-6.8v-36.8c0-3.7 5-6.8 11.1-6.8h60.6c6.1 0 11.1 3 11.1 6.8v36.8" fill="#363636"/><path d="m119 125.7c0 3.7-4.9 6.6-11 6.6h-60.1c-6.1 0-11-3-11-6.6v-36c0-3.7 4.9-6.6 11-6.6h60.1c6.1 0 11 3 11 6.6v36" fill="#363737"/><path d="m118.6 125.6c0 3.6-4.9 6.5-10.9 6.5h-59.6c-6 0-10.9-2.9-10.9-6.5v-35.2c0-3.6 4.9-6.5 10.9-6.5h59.6c6 0 10.9 2.9 10.9 6.5v35.2" fill="#373737"/><path d="m118.3 125.6c0 3.5-4.9 6.3-10.8 6.3h-59c-6 0-10.8-2.8-10.8-6.3v-34.5c0-3.5 4.8-6.3 10.8-6.3h59c6 0 10.8 2.8 10.8 6.3v34.5" fill="#373838"/><path d="m117.9 125.5c0 3.4-4.8 6.2-10.7 6.2h-58.6c-5.9 0-10.7-2.8-10.7-6.2v-33.7c0-3.4 4.8-6.2 10.7-6.2h58.5c5.9 0 10.7 2.8 10.7 6.2v33.7z" fill="#383838"/><path d="m117.6 125.4c0 3.3-4.8 6-10.7 6h-58c-5.9 0-10.7-2.7-10.7-6v-33c0-3.3 4.8-6 10.7-6h58c5.9 0 10.7 2.7 10.7 6v33" fill="#383938"/><path d="m117.2 125.4c0 3.3-4.7 5.9-10.6 5.9h-57.5c-5.8 0-10.6-2.6-10.6-5.9v-32.2c0-3.3 4.7-5.9 10.6-5.9h57.5c5.8 0 10.6 2.6 10.6 5.9v32.2" fill="#383939"/><path d="m116.9 125.3c0 3.2-4.7 5.8-10.5 5.8h-57c-5.8 0-10.5-2.6-10.5-5.8v-31.4c0-3.2 4.7-5.8 10.5-5.8h57c5.8 0 10.5 2.6 10.5 5.8v31.4" fill="#393939"/><path d="m116.6 125.3c0 3.1-4.6 5.6-10.4 5.6h-56.6c-5.7 0-10.4-2.5-10.4-5.6v-30.7c0-3.1 4.6-5.6 10.4-5.6h56.5c5.7 0 10.4 2.5 10.4 5.6v30.7z" fill="#393a3a"/><path d="m116.2 125.2c0 3-4.6 5.5-10.3 5.5h-56c-5.7 0-10.3-2.5-10.3-5.5v-29.9c0-3 4.6-5.5 10.3-5.5h56c5.7 0 10.3 2.5 10.3 5.5v29.9" fill="#3a3a3a"/><path d="m115.9 125.1c0 2.9-4.6 5.3-10.2 5.3h-55.6c-5.6 0-10.2-2.4-10.2-5.3v-29.1c0-2.9 4.6-5.3 10.2-5.3h55.5c5.6 0 10.2 2.4 10.2 5.3v29.1z" fill="#3a3b3b"/><path d="m115.5 125.1c0 2.9-4.5 5.2-10.1 5.2h-55c-5.6 0-10.1-2.3-10.1-5.2v-28.4c0-2.9 4.5-5.2 10.1-5.2h55c5.6 0 10.1 2.3 10.1 5.2v28.4" fill="#3b3b3b"/><path d="m115.2 125c0 2.8-4.5 5.1-10 5.1h-54.6c-5.5 0-10-2.3-10-5.1v-27.5c0-2.8 4.5-5.1 10-5.1h54.5c5.5 0 10 2.3 10 5.1v27.5z" fill="#3b3c3b"/><path d="m114.8 124.9c0 2.7-4.4 4.9-9.9 4.9h-54c-5.5 0-9.9-2.2-9.9-4.9v-26.7c0-2.7 4.4-4.9 9.9-4.9h54c5.5 0 9.9 2.2 9.9 4.9v26.7" fill="#3c3c3c"/><path d="m114.5 124.9c0 2.6-4.4 4.8-9.8 4.8h-53.6c-5.4 0-9.8-2.1-9.8-4.8v-26c0-2.6 4.4-4.8 9.8-4.8h53.5c5.4 0 9.8 2.1 9.8 4.8v26z" fill="#3c3d3c"/><g fill="#3d3d3d"><path d="m114.2 124.8c0 2.6-4.4 4.6-9.7 4.6h-53c-5.4 0-9.7-2.1-9.7-4.6v-25.2c0-2.6 4.4-4.6 9.7-4.6h53c5.4 0 9.7 2.1 9.7 4.6v25.2"/><path d="m113.8 124.7c0 2.5-4.3 4.5-9.6 4.5h-52.6c-5.3 0-9.6-2-9.6-4.5v-24.4c0-2.5 4.3-4.5 9.6-4.5h52.5c5.3 0 9.6 2 9.6 4.5v24.4z"/></g><path d="m113.5 124.7c0 2.4-4.3 4.3-9.6 4.3h-52c-5.3 0-9.5-1.9-9.5-4.3v-23.7c0-2.4 4.3-4.3 9.5-4.3h52c5.3 0 9.6 1.9 9.6 4.3v23.7" fill="#3e3e3e"/><g opacity=".3"><path d="m130.4 5.8h-105.2c-10.7 0-19.3 8.6-19.3 19.3v38c20.9 5.7 45.5 9.1 71.9 9.1 26.4 0 51.1-3.3 71.9-9.1v-38c0-10.6-8.6-19.3-19.3-19.3" fill="url(#4)"/></g><path d="m25.2 11.5h105.2c10.7 0 19.3 8.6 19.3 19.3v-5.7c0-10.7-8.6-19.3-19.3-19.3h-105.2c-10.7 0-19.3 8.6-19.3 19.3v5.7c0-10.7 8.7-19.3 19.3-19.3" opacity=".64" fill="url(#2)"/><g opacity=".7"><path d="m24.1 151.9c-11.3 0-20.4-9.1-20.4-20.4v-107.4c0-11.3 9.1-20.4 20.4-20.4h107.3c11.3 0 20.4 9.1 20.4 20.4v107.3c0 11.3-9.1 20.4-20.4 20.4h-107.3v.1zm-18.9-127.8v107.3c0 10.5 8.5 18.9 19 19h107.3c10.5 0 19-8.5 19-19v-107.3c0-10.5-8.5-19-19-19h-107.4c-10.4.1-18.9 8.6-18.9 19z" fill="url(#5)" stroke="#010101" stroke-width=".765"/></g><path d="m126.8 94.6c-11.2-13.3-28.3 14.7-37.6 20.8-6.4 4.2-16.1 4.5-22.9.5-9.3-5.5-6.5-18.6 3.4-21.8 8.8-2.9 24 6.3 29.6-2.9 6.8-11.4-16.5-14-23.5-13.8-12.5.6-24.5 4.6-31.9 14-8 10.2-6.1 22.5 2.6 31.7 9 8.7 21.9 12 34.8 10.9 3.3-.3 8.9-1.7 13.1-4 8.6-4.6 34.6-32.7 32.4-35.4m-81.7-9.9c4.3.9-4-23.3-4.6-26.6-.7-4-2.1-9.7-6.1-10.3-4.6-.7-5.9 4.6-5 9.2 1 4.8 11.7 26.8 15.7 27.7m35.8-12.5c6.7 1 6.2-31.2 6.2-35.6 0-3.9 1.5-14.8-3.8-15.8-7.3-1.4-8 8.2-8.2 13.3.4 5.2-1.2 37.1 5.8 38.1m16 5.1c7.3 3.1 12.9-29.4 13.7-33.6.8-4.2 1-13.3-6.3-10.4-3.6 1.4-4.3 7.3-4.9 10.6-.9 4.2-8.2 31.1-2.5 33.4m-35.2-2.7c8.2.6.5-32-.2-36.4-.7-4.4-3.7-13.3-9.8-8.2-3.1 2.6-1.7 8.6-1.1 12 .5 4.4 4.7 32.1 11.1 32.6" fill="#fff"/><path d="m153.5.9c-1.3 0-2.4 1.1-2.4 2.4 0 1.3 1.1 2.4 2.4 2.4 1.3 0 2.4-1.1 2.4-2.4-.1-1.3-1.1-2.4-2.4-2.4m0 4.5c-1.2 0-2.1-1-2.1-2.1 0-1.2 1-2.1 2.1-2.1 1.2 0 2.1 1 2.1 2.1 0 1.2-1 2.1-2.1 2.1m.7-2.4c0-.4-.3-.6-.8-.6h-.8v2h.5c0 0 0-.7 0-.7h.2l.3.7h.5l-.4-.8c.4-.2.5-.3.5-.6m-.8.2h-.3v-.5h.3c.2 0 .3.1.3.3 0 .2-.1.2-.3.2" fill="#666"/></svg>
