<svg xmlns="http://www.w3.org/2000/svg" viewBox="0 0 155.8 155.6" width="155.8px" height="155.6px"
     xmlns:xlink="http://www.w3.org/1999/xlink">
    <path d="m126.8 94.6c-11.2-13.3-28.3 14.7-37.6 20.8-6.4 4.2-16.1 4.5-22.9.5-9.3-5.5-6.5-18.6 3.4-21.8 8.8-2.9 24 6.3 29.6-2.9 6.8-11.4-16.5-14-23.5-13.8-12.5.6-24.5 4.6-31.9 14-8 10.2-6.1 22.5 2.6 31.7 9 8.7 21.9 12 34.8 10.9 3.3-.3 8.9-1.7 13.1-4 8.6-4.6 34.6-32.7 32.4-35.4m-81.7-9.9c4.3.9-4-23.3-4.6-26.6-.7-4-2.1-9.7-6.1-10.3-4.6-.7-5.9 4.6-5 9.2 1 4.8 11.7 26.8 15.7 27.7m35.8-12.5c6.7 1 6.2-31.2 6.2-35.6 0-3.9 1.5-14.8-3.8-15.8-7.3-1.4-8 8.2-8.2 13.3.4 5.2-1.2 37.1 5.8 38.1m16 5.1c7.3 3.1 12.9-29.4 13.7-33.6.8-4.2 1-13.3-6.3-10.4-3.6 1.4-4.3 7.3-4.9 10.6-.9 4.2-8.2 31.1-2.5 33.4m-35.2-2.7c8.2.6.5-32-.2-36.4-.7-4.4-3.7-13.3-9.8-8.2-3.1 2.6-1.7 8.6-1.1 12 .5 4.4 4.7 32.1 11.1 32.6"
          fill="#fff"/>
</svg>
