<?xml version="1.0" encoding="iso-8859-1"?>
<!-- Generator: Adobe Illustrator 16.0.0, SVG Export Plug-In . SVG Version: 6.00 Build 0)  -->
<!DOCTYPE svg PUBLIC "-//W3C//DTD SVG 1.1//EN" "http://www.w3.org/Graphics/SVG/1.1/DTD/svg11.dtd">
<svg version="1.1" id="Capa_1" xmlns="http://www.w3.org/2000/svg" xmlns:xlink="http://www.w3.org/1999/xlink" x="0px" y="0px"
	 width="550.801px" height="550.801px" viewBox="0 0 550.801 550.801" style="enable-background:new 0 0 550.801 550.801;"
	 xml:space="preserve">
<g>
	<g>
		<path d="M282.055,410.928h-0.358c-1.771,7.093-3.544,16.152-5.505,23.082l-7.099,25.396h26.462l-7.456-25.396
			C285.968,426.906,283.838,418.025,282.055,410.928z"/>
		<path d="M475.084,131.992c-0.021-2.531-0.828-5.021-2.562-6.993L366.324,3.689c-0.031-0.035-0.062-0.045-0.084-0.077
			c-0.633-0.706-1.371-1.294-2.151-1.803c-0.232-0.156-0.464-0.285-0.707-0.422c-0.675-0.367-1.392-0.675-2.13-0.896
			c-0.201-0.053-0.38-0.134-0.58-0.187C359.87,0.114,359.037,0,358.193,0H97.2C85.282,0,75.6,9.693,75.6,21.601v507.6
			c0,11.907,9.682,21.601,21.6,21.601H453.6c11.908,0,21.601-9.693,21.601-21.601V133.197
			C475.2,132.791,475.137,132.393,475.084,131.992z M192.153,510.396l-9.229-30.733h-34.29l-8.522,30.733H112.05l36.585-119.718
			h35.521l37.136,119.718H192.153z M308.707,510.396l-9.239-30.733h-34.29l-8.522,30.733h-28.073l36.595-119.718h35.535
			l37.114,119.718H308.707z M410.685,489.787c8.163,0,17.224-1.772,22.55-3.902l4.081,21.136
			c-4.968,2.489-16.152,5.157-30.718,5.157c-41.386,0-62.706-25.761-62.706-59.869c0-40.854,29.136-63.593,65.375-63.593
			c14.032,0,24.685,2.843,29.488,5.337l-5.511,21.489c-5.511-2.315-13.146-4.44-22.729-4.44c-21.494,0-38.2,12.962-38.2,39.604
			C372.305,474.694,386.521,489.787,410.685,489.787z M97.2,366.747V21.601h250.192v110.51c0,5.967,4.842,10.8,10.801,10.8H453.6
			v223.837H97.2z"/>
		<path d="M165.51,410.928h-0.356c-1.771,7.093-3.541,16.152-5.508,23.082l-7.096,25.396h26.46l-7.457-25.396
			C169.425,426.906,167.292,418.025,165.51,410.928z"/>
		<path d="M269.325,126.23c-55.701,0-100.854,45.162-100.854,100.862c0,55.701,45.153,100.853,100.854,100.853
			c55.688,0,100.844-45.151,100.844-100.853C370.169,171.393,325.013,126.23,269.325,126.23z M315.225,262.494
			c0,8.877-6.612,15.965-16.948,18.565c-11.327,2.811-22.265-1.936-24.442-10.621c-2.17-8.711,5.247-18.035,16.585-20.873
			c5.126-1.263,10.156-1.002,14.375,0.478v-64.581l-57.96,10.592l-0.259,80.349h-0.01c-0.055,7.604-6.919,15.082-16.778,17.519
			c-11.195,2.815-22.944-2.516-24.187-10.483c-2.157-8.609,5.189-17.849,16.408-20.651c5.044-1.258,9.991-1.015,14.133,0.448
			v-95.122l79.089-12.814v107.196H315.225z"/>
	</g>
</g>
<g>
</g>
<g>
</g>
<g>
</g>
<g>
</g>
<g>
</g>
<g>
</g>
<g>
</g>
<g>
</g>
<g>
</g>
<g>
</g>
<g>
</g>
<g>
</g>
<g>
</g>
<g>
</g>
<g>
</g>
</svg>
