<?xml version="1.0" encoding="iso-8859-1"?>
<!-- Generator: Adobe Illustrator 16.0.0, SVG Export Plug-In . SVG Version: 6.00 Build 0)  -->
<!DOCTYPE svg PUBLIC "-//W3C//DTD SVG 1.1//EN" "http://www.w3.org/Graphics/SVG/1.1/DTD/svg11.dtd">
<svg version="1.1" id="Capa_1" xmlns="http://www.w3.org/2000/svg" xmlns:xlink="http://www.w3.org/1999/xlink" x="0px" y="0px"
	 width="550.801px" height="550.801px" viewBox="0 0 550.801 550.801" style="enable-background:new 0 0 550.801 550.801;"
	 xml:space="preserve">
<g>
	<g>
		<path d="M182.179,413.2h-0.351c-1.777,7.099-3.546,16.147-5.508,23.066l-7.09,25.37h26.438l-7.451-25.37
			C186.084,429.169,183.956,420.299,182.179,413.2z"/>
		<path d="M475.095,131.997c-0.032-2.528-0.833-5.023-2.568-6.992L366.324,3.691c-0.021-0.031-0.053-0.042-0.084-0.073
			c-0.633-0.707-1.36-1.292-2.141-1.804c-0.232-0.153-0.465-0.287-0.707-0.422c-0.686-0.366-1.393-0.67-2.131-0.892
			c-0.2-0.058-0.379-0.14-0.58-0.195C359.87,0.119,359.047,0,358.203,0H97.2C85.292,0,75.6,9.693,75.6,21.601v507.6
			c0,11.913,9.692,21.601,21.6,21.601H453.6c11.918,0,21.601-9.688,21.601-21.601V133.202
			C475.2,132.796,475.137,132.396,475.095,131.997z M208.796,512.562l-9.229-30.696h-34.24l-8.522,30.696H128.78l36.553-119.586
			h35.482l37.083,119.586H208.796z M283.131,514.335c-13.666,0-27.15-3.55-33.895-7.272l5.508-22.364
			c7.274,3.728,18.451,7.451,29.99,7.451c12.413,0,18.984-5.147,18.984-12.952c0-7.445-5.686-11.707-20.05-16.854
			c-19.873-6.913-32.822-17.914-32.822-35.306c0-20.403,17.031-36.022,45.246-36.022c13.484,0,23.42,2.842,30.513,6.032
			l-6.033,21.821c-4.788-2.304-13.311-5.674-25.018-5.674s-17.392,5.321-17.392,11.538c0,7.626,6.739,11.001,22.181,16.854
			c21.114,7.805,31.05,18.805,31.05,35.658C331.388,497.302,315.953,514.335,283.131,514.335z M422.75,415.151h-45.952v27.333
			h42.937v21.99h-42.937v48.088H349.65V392.977h73.1V415.151z M97.2,366.752V21.601h250.203v110.515c0,5.961,4.831,10.8,10.8,10.8
			H453.6l0.011,223.836H97.2z"/>
	</g>
	<g>
		<path d="M270.174,141.734V114.06c-56.694,0-102.821,46.127-102.821,102.819h27.675
			C195.027,175.439,228.732,141.734,270.174,141.734z"/>
		<path d="M275.427,114.06h-1.382v28.577h1.382c37.415,0,71.476,35.055,71.476,73.551v1.384h28.582v-1.384
			C375.484,161.784,328.73,114.06,275.427,114.06z M349.655,214.812c-0.786-38.924-34.989-74.084-72.842-74.92v-23.053
			c50.794,0.804,95.117,46.084,95.892,97.973H349.655z"/>
		<path d="M272.112,295.75v27.67c56.697,0,102.818-46.127,102.818-102.821h-27.664C347.267,262.04,313.548,295.75,272.112,295.75z"
			/>
		<path d="M195.384,221.292v-1.384h-28.577v1.384c0,54.403,46.752,102.128,100.05,102.128h1.382v-28.576h-1.382
			C229.447,294.844,195.384,259.788,195.384,221.292z M265.476,320.641c-50.799-0.812-95.117-46.084-95.9-97.972h23.048
			c0.793,38.923,34.986,74.078,72.853,74.922V320.641z"/>
		<path d="M247.309,179.646c-0.625,0.292-1.026,0.946-1.026,1.632v77.269c0,0.686,0.401,1.334,1.026,1.629l0.799,0.185
			c0.406,0,0.793-0.14,1.128-0.396l60.495-38.625c0.432-0.351,0.686-0.886,0.686-1.438c0-0.551-0.254-1.067-0.686-1.434
			l-60.495-38.618C248.688,179.408,247.941,179.334,247.309,179.646z"/>
	</g>
</g>
<g>
</g>
<g>
</g>
<g>
</g>
<g>
</g>
<g>
</g>
<g>
</g>
<g>
</g>
<g>
</g>
<g>
</g>
<g>
</g>
<g>
</g>
<g>
</g>
<g>
</g>
<g>
</g>
<g>
</g>
</svg>
