<?xml version="1.0" encoding="iso-8859-1"?>
<!-- Generator: Adobe Illustrator 16.0.0, SVG Export Plug-In . SVG Version: 6.00 Build 0)  -->
<!DOCTYPE svg PUBLIC "-//W3C//DTD SVG 1.1//EN" "http://www.w3.org/Graphics/SVG/1.1/DTD/svg11.dtd">
<svg version="1.1" id="Capa_1" xmlns="http://www.w3.org/2000/svg" xmlns:xlink="http://www.w3.org/1999/xlink" x="0px" y="0px"
	 width="550.801px" height="550.801px" viewBox="0 0 550.801 550.801" style="enable-background:new 0 0 550.801 550.801;"
	 xml:space="preserve">
<g>
	<g>
		<g>
			<path d="M475.095,132c-0.031-2.529-0.828-5.023-2.562-6.995L366.325,3.694c-0.021-0.031-0.053-0.042-0.085-0.074
				c-0.633-0.709-1.36-1.292-2.141-1.803c-0.232-0.153-0.464-0.288-0.707-0.422c-0.686-0.369-1.392-0.67-2.13-0.892
				c-0.2-0.061-0.38-0.14-0.58-0.195C359.87,0.119,359.048,0,358.204,0H97.2c-11.907,0-21.6,9.695-21.6,21.601v507.6
				c0,11.913,9.692,21.601,21.6,21.601h356.4c11.918,0,21.6-9.688,21.6-21.601V133.21C475.2,132.804,475.137,132.398,475.095,132z
				 M204.707,515.152l-9.06-30.138h-33.637l-8.363,30.138h-27.535l35.898-117.45h34.857l36.418,117.45H204.707z M277.705,516.902
				c-13.413,0-26.66-3.49-33.278-7.15l5.4-21.953c7.137,3.665,18.122,7.314,29.449,7.314c12.197,0,18.646-5.053,18.646-12.72
				c0-7.31-5.579-11.502-19.688-16.548c-19.519-6.803-32.244-17.604-32.244-34.679c0-20.039,16.735-35.385,44.439-35.385
				c13.247,0,23.003,2.795,29.975,5.928l-5.928,21.441c-4.704-2.262-13.067-5.574-24.563-5.574
				c-11.504,0-17.083,5.227-17.083,11.322c0,7.499,6.621,10.811,21.788,16.554c20.734,7.678,30.496,18.478,30.496,35.031
				C325.113,500.176,309.952,516.902,277.705,516.902z M416.592,461.311c-9.065,8.543-22.486,12.371-38.164,12.371
				c-3.486,0-6.629-0.169-9.065-0.527v41.998h-26.314V399.273c8.185-1.402,19.686-2.437,35.896-2.437
				c16.385,0,28.06,3.133,35.896,9.397c7.499,5.928,12.551,15.684,12.551,27.189C427.392,444.931,423.562,454.687,416.592,461.311z
				 M97.2,366.758V21.605h250.204v110.519c0,5.961,4.83,10.8,10.8,10.8h95.396l0.011,223.834H97.2z"/>
			<path d="M178.567,417.572h-0.351c-1.743,6.972-3.483,15.852-5.4,22.654l-6.977,24.912h25.969l-7.322-24.912
				C182.4,433.245,180.307,424.544,178.567,417.572z"/>
			<path d="M380.342,416.871c-5.4,0-9.065,0.521-10.979,1.049v34.668c2.268,0.538,5.052,0.707,8.886,0.707
				c14.117,0,22.829-7.146,22.829-19.164C401.077,423.32,393.583,416.871,380.342,416.871z"/>
		</g>
		<g>
			<path d="M131.462,220.198l98.442-50.799v24.15l-74.448,36.223v0.454l74.448,36.218v24.145l-98.442-50.799V220.198z"/>
			<path d="M245.134,299.705l43.903-165.153h20.704l-43.889,165.153H245.134z"/>
			<path d="M420.104,240.464l-98.444,50.124v-24.149l76.096-36.218v-0.454l-76.096-36.218v-24.15l98.444,50.119V240.464z"/>
		</g>
	</g>
</g>
<g>
</g>
<g>
</g>
<g>
</g>
<g>
</g>
<g>
</g>
<g>
</g>
<g>
</g>
<g>
</g>
<g>
</g>
<g>
</g>
<g>
</g>
<g>
</g>
<g>
</g>
<g>
</g>
<g>
</g>
</svg>
