<?xml version="1.0" encoding="iso-8859-1"?>
<!-- Generator: Adobe Illustrator 16.0.0, SVG Export Plug-In . SVG Version: 6.00 Build 0)  -->
<!DOCTYPE svg PUBLIC "-//W3C//DTD SVG 1.1//EN" "http://www.w3.org/Graphics/SVG/1.1/DTD/svg11.dtd">
<svg version="1.1" id="Capa_1" xmlns="http://www.w3.org/2000/svg" xmlns:xlink="http://www.w3.org/1999/xlink" x="0px" y="0px"
	 width="550.801px" height="550.801px" viewBox="0 0 550.801 550.801" style="enable-background:new 0 0 550.801 550.801;"
	 xml:space="preserve">
<g>
	<g>
		<path d="M166.287,415.463h-0.372c-1.859,7.436-3.715,16.917-5.761,24.168l-7.438,26.589h27.699l-7.805-26.589
			C170.379,432.195,168.151,422.898,166.287,415.463z"/>
		<path d="M475.095,131.992c-0.032-2.526-0.833-5.021-2.568-6.993L366.324,3.694c-0.021-0.034-0.053-0.045-0.084-0.076
			c-0.633-0.707-1.36-1.29-2.141-1.804c-0.232-0.15-0.465-0.285-0.707-0.422c-0.686-0.366-1.393-0.67-2.131-0.892
			c-0.2-0.058-0.379-0.14-0.58-0.192C359.87,0.114,359.047,0,358.203,0H97.2C85.292,0,75.6,9.693,75.6,21.601v507.6
			c0,11.913,9.692,21.601,21.6,21.601H453.6c11.918,0,21.601-9.688,21.601-21.601V133.202
			C475.2,132.796,475.137,132.398,475.095,131.992z M194.173,519.561l-9.667-32.152h-35.883l-8.92,32.152h-29.371l38.291-125.297
			h37.18l38.852,125.297H194.173z M272.052,521.428c-14.315,0-28.448-3.718-35.509-7.626l5.761-23.425
			c7.625,3.908,19.333,7.811,31.417,7.811c13.018,0,19.889-5.39,19.889-13.574c0-7.805-5.943-12.261-21.007-17.66
			c-20.817-7.251-34.388-18.779-34.388-36.999c0-21.373,17.848-37.742,47.406-37.742c14.127,0,24.542,2.979,31.978,6.334
			L311.28,421.4c-5.025-2.415-13.953-5.948-26.214-5.948c-12.269,0-18.22,5.574-18.22,12.087c0,7.994,7.063,11.527,23.245,17.655
			c22.117,8.189,32.526,19.707,32.526,37.373C322.618,503.582,306.444,521.428,272.052,521.428z M407.742,519.561l-11.338-22.676
			c-4.651-8.732-7.625-15.24-11.158-22.496h-0.369c-2.601,7.256-5.765,13.764-9.672,22.496l-10.399,22.676h-32.357l36.249-63.376
			l-34.941-61.921h32.532l10.963,22.871c3.724,7.62,6.519,13.758,9.487,20.814h0.374c2.975-7.989,5.39-13.574,8.554-20.814
			l10.589-22.871h32.348l-35.321,61.161l37.178,64.136H407.742z M97.2,366.752V21.601h250.203v110.515c0,5.961,4.831,10.8,10.8,10.8
			H453.6l0.011,223.836H97.2z"/>
	</g>
	<g>
		<path d="M283.305,302.095H188.13V213.58h131.188v42.812c1.782-0.304,3.564-0.536,5.337-0.644V140.458
			c0-0.604,0.036-1.207,0.115-1.809c1.05-7.752,7.789-16.759,20.124-18.206c3.67-0.396,7.319,0.712,10.146,3.05V94.566H155.764
			V318.01h137.555C288.23,313.749,284.649,308.328,283.305,302.095z M188.13,112.251h131.188v86.74H188.13V112.251z
			 M181.715,278.923H164.02v-19.15h17.695V278.923z M181.715,235.597H164.02v-19.153h17.695V235.597z M181.715,192.85H164.02
			v-19.153h17.695V192.85z M181.715,149.516H164.02v-19.143h17.695V149.516z"/>
		<path d="M382.135,169.581c-39.604-27.681-39.493-34.186-39.493-34.186c-7.546,0.884-8.316,6.608-8.316,6.608v130.394
			c-5.663-1.965-12.445-2.31-19.374-0.604c-15.367,3.829-25.418,16.527-22.481,28.329c1.725,10.89,17.804,18.209,33.176,14.333
			c13.511-3.343,22.929-13.542,22.981-23.983h0.042l0.349-123.833c0,0,26.952-1.442,53.356,39.938
			C402.374,206.577,402.427,185.214,382.135,169.581z"/>
	</g>
</g>
<g>
</g>
<g>
</g>
<g>
</g>
<g>
</g>
<g>
</g>
<g>
</g>
<g>
</g>
<g>
</g>
<g>
</g>
<g>
</g>
<g>
</g>
<g>
</g>
<g>
</g>
<g>
</g>
<g>
</g>
</svg>
