<?xml version="1.0" encoding="iso-8859-1"?>
<!-- Generator: Adobe Illustrator 16.0.0, SVG Export Plug-In . SVG Version: 6.00 Build 0)  -->
<!DOCTYPE svg PUBLIC "-//W3C//DTD SVG 1.1//EN" "http://www.w3.org/Graphics/SVG/1.1/DTD/svg11.dtd">
<svg version="1.1" id="Capa_1" xmlns="http://www.w3.org/2000/svg" xmlns:xlink="http://www.w3.org/1999/xlink" x="0px" y="0px"
	 width="548.291px" height="548.291px" viewBox="0 0 548.291 548.291" style="enable-background:new 0 0 548.291 548.291;"
	 xml:space="preserve">
<g>
	<g>
		<g>
			<path d="M207.351,424.29c0-9.292-7.103-14.21-19.664-14.21c-6.01,0-9.472,0.361-11.838,0.729v28.588h9.108
				C199.524,439.397,207.351,433.387,207.351,424.29z"/>
			<path d="M185.323,459.25h-9.474v34.6c2.733,0.362,6.011,0.362,10.746,0.362c12.562,0,23.669-4.734,23.669-17.664
				C210.265,464.164,199.157,459.25,185.323,459.25z"/>
			<path d="M472.929,131.39c-0.031-2.514-0.829-4.997-2.556-6.96L364.656,3.677c-0.021-0.031-0.053-0.042-0.084-0.075
				c-0.63-0.704-1.354-1.284-2.132-1.796c-0.23-0.149-0.462-0.283-0.703-0.419c-0.683-0.365-1.387-0.665-2.121-0.885
				c-0.2-0.06-0.377-0.142-0.577-0.194C358.231,0.118,357.411,0,356.572,0H96.757C84.904,0,75.255,9.649,75.255,21.502V526.79
				c0,11.858,9.649,21.501,21.502,21.501h354.775c11.863,0,21.503-9.643,21.503-21.501V132.595
				C473.036,132.191,472.971,131.795,472.929,131.39z M226.653,503.675c-8.923,7.103-23.855,11.104-48.255,11.104
				c-13.658,0-23.855-0.913-30.042-1.816V392.42c7.284-1.454,22.035-2.552,35.87-2.552c16.932,0,27.312,1.638,36.236,6.914
				c8.557,4.561,14.748,12.934,14.748,24.043c0,10.923-6.375,21.123-20.21,26.221v0.361c14.019,3.827,24.398,14.39,24.398,30.226
				C239.398,488.748,234.302,497.482,226.653,503.675z M286.213,513.509h-27.861V390.782h27.861V513.509z M411.858,513.509h-29.133
				l-26.227-47.352c-7.281-13.102-15.298-28.95-21.303-43.333l-0.545,0.173c0.723,16.21,1.091,33.507,1.091,53.534v36.971H310.25
				V390.782h32.415l25.491,44.972c7.281,12.925,14.568,28.223,20.026,42.059h0.546c-1.815-16.204-2.363-32.777-2.363-51.166v-35.869
				h25.492V513.509z M96.757,365.081V21.502H345.82v110.011c0,5.938,4.81,10.751,10.752,10.751h94.961l0.011,222.816H96.757z"/>
		</g>
		<g>
			<path d="M194.335,197.919c0-23.654,19.186-42.833,42.843-42.833c13.439,0,25.415,6.187,33.269,15.864h72.119
				c-12.016-47.064-54.563-81.896-105.382-81.896c-60.135,0-108.888,48.729-108.888,108.865
				c0,60.142,48.753,108.905,108.888,108.905c1.176,0,2.323-0.133,3.489-0.18V240.6c-1.156,0.097-2.318,0.175-3.494,0.175
				C213.521,240.775,194.335,221.597,194.335,197.919z M269.975,102.349l-23.657,48.275c-4.599-1.779-9.129-0.826-9.129-0.826
				l-13.685-50.702C223.504,99.096,241.646,90.962,269.975,102.349z"/>
			<path d="M203.039,197.935c0-18.83,15.32-34.163,34.149-34.163c7.858,0,15.095,2.7,20.873,7.184h4.79
				c-6.693-6.371-15.717-10.31-25.663-10.31c-20.551,0-37.272,16.727-37.272,37.294c0,20.554,16.722,37.276,37.272,37.276
				c1.179,0,2.339-0.067,3.489-0.175v-3.119c-1.145,0.113-2.31,0.179-3.489,0.179C218.359,232.096,203.039,216.765,203.039,197.935z
				"/>
			<path d="M219.693,197.919c0,9.659,7.848,17.501,17.491,17.501c1.194,0,2.36-0.124,3.489-0.348v-3.248
				c-1.124,0.284-2.279,0.478-3.489,0.478c-7.924,0-14.368-6.452-14.368-14.378c0-7.924,6.444-14.37,14.368-14.37
				c1.21,0,2.365,0.194,3.489,0.48v-3.255c-1.129-0.231-2.294-0.349-3.489-0.349C227.541,180.42,219.693,188.268,219.693,197.919z"
				/>
			<path d="M249.875,179.076v135.921h143.589V179.076H249.875z M380.309,282.114h-5.261c-5.002-12.667-11.122-25.937-19.695-23.745
				c-8.031,2.05-13.376,15.142-16.074,23.745h-3.947c-2.935-10.509-9.544-29.506-21.396-41.37
				c-13.429-13.428-26.53,24.528-31.517,41.37h-19.384v-89.878h117.275V282.114z"/>
			<path d="M280.297,204.352c5.848,0,10.582,4.738,10.582,10.583c0,5.845-4.734,10.585-10.582,10.585
				c-5.843,0-10.583-4.741-10.583-10.585C269.715,209.09,274.455,204.352,280.297,204.352z"/>
			<path d="M344.508,232.332c2.141,0,4.147-0.221,5.921-0.581c2.073,0.887,4.594,1.417,7.329,1.417
				c6.991,0,12.671-3.417,12.671-7.643c0-4.227-5.68-7.654-12.671-7.654c-2.636,0-5.062,0.493-7.098,1.31
				c-0.82-0.806-1.942-1.31-3.182-1.31h-1.838c-2.351,0-4.21,1.79-4.482,4.074c-5.68,0.58-9.884,2.629-9.884,5.083
				C331.275,229.951,337.201,232.332,344.508,232.332z"/>
		</g>
	</g>
</g>
<g>
</g>
<g>
</g>
<g>
</g>
<g>
</g>
<g>
</g>
<g>
</g>
<g>
</g>
<g>
</g>
<g>
</g>
<g>
</g>
<g>
</g>
<g>
</g>
<g>
</g>
<g>
</g>
<g>
</g>
</svg>
