<?xml version="1.0" encoding="iso-8859-1"?>
<!-- Generator: Adobe Illustrator 16.0.0, SVG Export Plug-In . SVG Version: 6.00 Build 0)  -->
<!DOCTYPE svg PUBLIC "-//W3C//DTD SVG 1.1//EN" "http://www.w3.org/Graphics/SVG/1.1/DTD/svg11.dtd">
<svg version="1.1" id="Capa_1" xmlns="http://www.w3.org/2000/svg" xmlns:xlink="http://www.w3.org/1999/xlink" x="0px" y="0px"
	 width="550.801px" height="550.801px" viewBox="0 0 550.801 550.801" style="enable-background:new 0 0 550.801 550.801;"
	 xml:space="preserve">
<g>
	<g>
		<g>
			<path d="M285.736,409.515c-5.677,0-9.516,0.548-11.53,1.097v36.402c2.381,0.549,5.303,0.733,9.337,0.733
				c14.818,0,23.962-7.499,23.962-20.124C307.505,416.285,299.637,409.515,285.736,409.515z"/>
			<path d="M475.095,131.992c-0.031-2.526-0.833-5.021-2.568-6.993L366.319,3.694c-0.021-0.031-0.053-0.045-0.089-0.076
				c-0.628-0.707-1.361-1.29-2.136-1.804c-0.232-0.15-0.465-0.285-0.707-0.422c-0.686-0.366-1.393-0.67-2.136-0.892
				c-0.2-0.058-0.374-0.14-0.575-0.192C359.87,0.119,359.037,0,358.198,0H97.2c-11.907,0-21.6,9.693-21.6,21.601v507.6
				c0,11.913,9.692,21.601,21.6,21.601h356.4c11.918,0,21.6-9.688,21.6-21.601V133.202
				C475.2,132.796,475.137,132.398,475.095,131.992z M200.842,491.464c8.419,0,17.75-1.83,23.237-4.019l4.206,21.764
				c-5.124,2.568-16.644,5.305-31.638,5.305c-42.633,0-64.579-26.525-64.579-61.646c0-42.071,30.009-65.49,67.321-65.49
				c14.452,0,25.418,2.932,30.364,5.494l-5.674,22.139c-5.677-2.379-13.534-4.578-23.414-4.578
				c-22.141,0-39.329,13.353-39.329,40.796C161.336,475.918,175.97,491.464,200.842,491.464z M323.789,456.163
				c-9.513,8.96-23.604,12.983-40.067,12.983c-3.662,0-6.95-0.18-9.516-0.549v44.086h-27.609V391.042
				c8.596-1.461,20.659-2.568,37.674-2.568c17.207,0,29.457,3.296,37.689,9.882c7.867,6.218,13.167,16.464,13.167,28.54
				C335.127,438.967,331.099,449.213,323.789,456.163z M429.901,512.684h-77.013V389.391h27.98v99.879h49.032V512.684z
				 M97.2,366.752V21.601h250.204v110.515c0,5.961,4.83,10.8,10.8,10.8h95.396l0.011,223.836H97.2z"/>
		</g>
		<g>
			<path d="M353.7,101.203l-168.573,0.237l0.034,219.09l168.571-0.101L353.7,101.203z M196.251,309.541l-0.124-197.146
				l146.204-0.071l0.031,197.143L196.251,309.541z"/>
			<path d="M279.11,239.588c0.706-2.416,2.808-4.116,5.303-4.358c0.886-0.087,1.703-0.503,2.225-1.155
				c0.527-0.648,0.775-1.519,0.665-2.35c-0.301-2.5,0.97-4.957,3.164-6.162l5.854-3.174c1.461-0.783,3.105-0.952,4.635-0.509
				l1.065,0.319l1.055,0.825c0.823,0.704,1.635,0.902,2.426,0.807c0.854-0.092,1.667-0.545,2.173-1.199
				c1.481-1.896,3.86-2.679,6.159-2.154l1.245-4.203c0.121-0.448-0.048-0.949-0.391-1.234c-3.944-3.059-6.497-7.646-7.014-12.593
				c-0.522-4.957,1.028-9.995,4.234-13.803c0.301-0.346,0.358-0.859,0.147-1.258l-6.697-12.351
				c-0.363-0.686-0.796-0.633-1.149-0.588c-4.894,0.625-9.993-0.817-13.854-3.971c-3.876-3.114-6.317-7.776-6.75-12.754
				c-0.031-0.443-0.358-0.844-0.812-0.979l-13.447-3.989c-0.454-0.147-0.939,0.021-1.216,0.372
				c-3.066,3.941-7.657,6.502-12.614,7.011c-4.936,0.538-10.001-1.028-13.795-4.261c-0.235-0.185-0.591-0.482-1.266-0.121
				l-12.351,6.691c-0.419,0.232-0.651,0.686-0.588,1.145c0.622,4.946-0.82,9.996-3.963,13.875
				c-3.122,3.866-7.771,6.307-12.749,6.737c-0.464,0.023-0.854,0.346-0.994,0.804l-3.987,13.468c-0.145,0.438,0.013,0.912,0.38,1.21
				c3.942,3.066,6.483,7.657,7.014,12.604c0.509,4.947-1.042,10.001-4.271,13.798c-0.285,0.351-0.346,0.862-0.124,1.263
				l6.697,12.366c0.366,0.68,0.81,0.614,1.139,0.562c2.521-0.319,5.07-0.108,7.522,0.62c2.341,0.699,4.48,1.817,6.36,3.359
				c3.86,3.138,6.317,7.776,6.739,12.738c0.042,0.467,0.367,0.859,0.81,0.994l13.447,3.997c0.464,0.135,0.938-0.021,1.226-0.377
				c3.066-3.939,7.657-6.492,12.614-7.006c4.823-0.501,9.703,0.962,13.445,3.974c0.231-0.538,0.551-1.058,0.931-1.532
				c0.577-0.669,0.852-1.54,0.77-2.381c-0.095-0.817-0.538-1.616-1.213-2.138c-1.993-1.601-2.813-4.164-2.102-6.574L279.11,239.588z
				 M252.672,233.556c-14.441-4.287-22.687-19.527-18.404-33.961c4.282-14.438,19.522-22.708,33.961-18.415
				c14.449,4.295,22.697,19.543,18.415,33.972C282.351,229.593,267.105,237.848,252.672,233.556z"/>
			<path d="M329.559,247.833c-0.242-2.349,0.496-4.72,2.015-6.529c0.132-0.161,0.158-0.416,0.063-0.599l-3.164-5.858
				c-0.18-0.33-0.391-0.298-0.538-0.282c-2.326,0.303-4.772-0.382-6.598-1.869c-1.824-1.484-2.984-3.691-3.185-6.052
				c-0.021-0.205-0.169-0.4-0.375-0.458l-6.386-1.891c-0.211-0.061-0.443,0.01-0.564,0.171c-1.439,1.864-3.628,3.09-5.97,3.328
				c-2.341,0.253-4.735-0.493-6.539-2.025c-0.115-0.087-0.273-0.232-0.59-0.066l-5.864,3.17c-0.19,0.11-0.316,0.343-0.285,0.546
				c0.296,2.349-0.39,4.748-1.866,6.583c-1.487,1.825-3.687,2.99-6.044,3.19c-0.211,0.01-0.411,0.168-0.475,0.385l-1.903,6.37
				c-0.063,0.216,0.011,0.443,0.189,0.577c1.872,1.453,3.074,3.631,3.317,5.973c0.231,2.344-0.485,4.738-2.01,6.542
				c-0.147,0.161-0.158,0.398-0.068,0.588l3.175,5.864c0.18,0.33,0.38,0.29,0.543,0.264c1.197-0.145,2.399-0.053,3.565,0.298
				c1.102,0.334,2.109,0.87,3.006,1.587c1.84,1.479,3.011,3.699,3.2,6.043c0.011,0.222,0.175,0.398,0.375,0.464l6.375,1.89
				c0.211,0.069,0.443,0,0.575-0.163c1.461-1.872,3.628-3.082,5.964-3.319c2.347-0.262,4.736,0.49,6.55,2.014
				c0.116,0.097,0.279,0.227,0.591,0.069l5.854-3.186c0.2-0.108,0.306-0.319,0.285-0.535c-0.296-2.35,0.369-4.751,1.882-6.576
				c1.472-1.848,3.671-3.003,6.028-3.198c0.221-0.021,0.411-0.166,0.49-0.382l1.888-6.378c0.058-0.211-0.021-0.442-0.185-0.577
				C331.009,252.358,329.812,250.172,329.559,247.833z M319.581,253.853c-2.024,6.848-9.244,10.752-16.089,8.711
				c-6.84-2.014-10.747-9.239-8.723-16.086c2.036-6.827,9.25-10.764,16.09-8.723C317.704,239.799,321.617,247.014,319.581,253.853z"
				/>
		</g>
	</g>
</g>
<g>
</g>
<g>
</g>
<g>
</g>
<g>
</g>
<g>
</g>
<g>
</g>
<g>
</g>
<g>
</g>
<g>
</g>
<g>
</g>
<g>
</g>
<g>
</g>
<g>
</g>
<g>
</g>
<g>
</g>
</svg>
