<?xml version="1.0" encoding="iso-8859-1"?>
<!-- Generator: Adobe Illustrator 16.0.0, SVG Export Plug-In . SVG Version: 6.00 Build 0)  -->
<!DOCTYPE svg PUBLIC "-//W3C//DTD SVG 1.1//EN" "http://www.w3.org/Graphics/SVG/1.1/DTD/svg11.dtd">
<svg version="1.1" id="Capa_1" xmlns="http://www.w3.org/2000/svg" xmlns:xlink="http://www.w3.org/1999/xlink" x="0px" y="0px"
	 width="548.291px" height="548.291px" viewBox="0 0 548.291 548.291" style="enable-background:new 0 0 548.291 548.291;"
	 xml:space="preserve">
<g>
	<g>
		<path d="M274.68,460.143h-9.136v33.365c2.635,0.351,5.795,0.351,10.36,0.351c12.114,0,22.829-4.571,22.829-17.033
			C298.733,464.877,288.024,460.143,274.68,460.143z"/>
		<path d="M295.92,426.427c0-8.957-6.846-13.696-18.963-13.696c-5.797,0-9.133,0.346-11.419,0.696v27.576h8.78
			C288.371,441.003,295.92,435.208,295.92,426.427z"/>
		<path d="M383.753,413.087c-6.5,0-10.19,0.524-12.117,0.872v32.661h10.53c13.351,0,21.251-6.672,21.251-17.035
			C403.417,418.704,396.042,413.255,383.753,413.087z"/>
		<path d="M472.929,131.39c-0.031-2.514-0.829-4.997-2.556-6.96L364.656,3.677c-0.021-0.034-0.053-0.044-0.084-0.075
			c-0.63-0.704-1.354-1.284-2.132-1.796c-0.23-0.149-0.462-0.283-0.703-0.419c-0.683-0.365-1.387-0.667-2.121-0.888
			c-0.2-0.058-0.377-0.139-0.577-0.191C358.231,0.113,357.411,0,356.572,0H96.757C84.904,0,75.255,9.649,75.255,21.502V526.79
			c0,11.858,9.649,21.501,21.502,21.501h354.775c11.863,0,21.503-9.643,21.503-21.501V132.595
			C473.036,132.191,472.971,131.795,472.929,131.39z M218.107,507.031c-8.257,2.802-23.885,6.666-39.515,6.666
			c-21.599,0-37.232-5.443-48.117-15.979c-10.884-10.184-16.855-25.64-16.685-43.023c0.179-39.341,28.795-61.817,67.613-61.817
			c15.275,0,27.042,2.992,32.837,5.794l-5.617,21.43c-6.493-2.814-14.572-5.093-27.569-5.093c-22.302,0-39.161,12.64-39.161,38.278
			c0,24.411,15.276,38.809,37.232,38.809c6.146,0,11.06-0.698,13.167-1.747v-24.762h-18.259v-20.897h44.079v62.342H218.107z
			 M314.535,502.995c-8.605,6.838-23.003,10.702-46.534,10.702c-13.168,0-23-0.87-28.975-1.748V395.69
			c7.027-1.407,21.25-2.456,34.597-2.456c16.333,0,26.339,1.581,34.947,6.677c8.253,4.383,14.221,12.462,14.221,23.177
			c0,10.541-6.146,20.373-19.49,25.291v0.352c13.522,3.685,23.533,13.869,23.533,29.145
			C326.829,488.595,321.916,497.019,314.535,502.995z M407.102,512.474c-1.927-3.338-4.734-12.998-8.253-27.569
			c-3.16-14.751-8.251-18.794-19.139-18.966h-8.074v46.535h-26.52V395.69c8.608-1.407,21.419-2.456,35.648-2.456
			c17.56,0,29.854,2.636,38.285,9.302c7.022,5.628,10.887,13.875,10.887,24.762c0,15.104-10.709,25.465-20.893,29.15v0.535
			c8.246,3.328,12.818,11.233,15.8,22.12c3.686,13.346,7.376,28.8,9.66,33.365h-27.402V512.474z M96.757,365.081V21.502H345.82
			v110.011c0,5.935,4.81,10.751,10.752,10.751h94.961l0.011,222.816H96.757z"/>
	</g>
	<g>
		<path d="M396.881,285.793c-10.955,0-19.896,8.217-21.233,18.814H262.497v-62.581h78.977c1.334,10.596,10.278,18.814,21.229,18.814
			c11.873,0,21.502-9.627,21.502-21.502c0-11.874-9.629-21.501-21.502-21.501c-10.951,0-19.896,8.221-21.229,18.814h-78.977v-55.678
			h91.649c1.338,10.596,10.278,18.813,21.234,18.813c11.874,0,21.501-9.628,21.501-21.501c0-11.874-9.627-21.502-21.501-21.502
			c-10.956,0-19.896,8.218-21.234,18.814h-97.025v129.009v7.282v48.262h5.375V311.89v-1.906h113.151
			c1.338,10.598,10.278,18.814,21.233,18.814c11.875,0,21.502-9.629,21.502-21.502C418.383,295.42,408.756,285.793,396.881,285.793z
			"/>
		<path d="M136.175,242.791c-11.875,0-21.501,9.627-21.501,21.501c0,11.874,9.627,21.501,21.501,21.501
			c10.955,0,19.895-8.214,21.234-18.813h61.638v92.501h5.376v-97.876h-67.014C156.07,251.009,147.13,242.791,136.175,242.791z"/>
		<path d="M156.784,85.733c10.591-1.333,18.814-10.272,18.814-21.229c0-11.874-9.627-21.501-21.501-21.501
			c-11.875,0-21.501,9.627-21.501,21.501c0,10.956,8.223,19.895,18.813,21.229v56.038l83.663,83.657v134.053h5.375V223.203
			l-83.663-83.657V85.733z"/>
	</g>
</g>
<g>
</g>
<g>
</g>
<g>
</g>
<g>
</g>
<g>
</g>
<g>
</g>
<g>
</g>
<g>
</g>
<g>
</g>
<g>
</g>
<g>
</g>
<g>
</g>
<g>
</g>
<g>
</g>
<g>
</g>
</svg>
