<?xml version="1.0" encoding="iso-8859-1"?>
<!-- Generator: Adobe Illustrator 16.0.0, SVG Export Plug-In . SVG Version: 6.00 Build 0)  -->
<!DOCTYPE svg PUBLIC "-//W3C//DTD SVG 1.1//EN" "http://www.w3.org/Graphics/SVG/1.1/DTD/svg11.dtd">
<svg version="1.1" id="Capa_1" xmlns="http://www.w3.org/2000/svg" xmlns:xlink="http://www.w3.org/1999/xlink" x="0px" y="0px"
	 width="548.291px" height="548.291px" viewBox="0 0 548.291 548.291" style="enable-background:new 0 0 548.291 548.291;"
	 xml:space="preserve">
<g>
	<g>
		<path d="M472.929,131.385c-0.031-2.514-0.829-4.992-2.556-6.96L364.656,3.667c-0.021-0.029-0.062-0.044-0.084-0.07
			c-0.63-0.709-1.354-1.284-2.132-1.795c-0.23-0.149-0.473-0.29-0.714-0.42c-0.672-0.37-1.376-0.667-2.121-0.888
			c-0.189-0.058-0.377-0.144-0.577-0.186C358.231,0.113,357.4,0,356.572,0H96.757C84.904,0,75.255,9.644,75.255,21.502V526.79
			c0,11.854,9.649,21.501,21.502,21.501h354.775c11.853,0,21.503-9.647,21.503-21.501v-394.2
			C473.036,132.186,472.971,131.79,472.929,131.385z M244.591,511.292c-9.089,3.098-26.318,7.349-43.541,7.349
			c-23.801,0-41.02-5.993-53.017-17.604c-11.998-11.224-18.573-28.254-18.373-47.403c0.186-43.339,31.725-68.105,74.486-68.105
			c16.83,0,29.796,3.286,36.176,6.389l-6.192,23.601c-7.149-3.092-16.052-5.606-30.383-5.606c-24.554,0-43.138,13.938-43.138,42.18
			c0,26.898,16.843,42.761,41.033,42.761c6.771,0,12.188-0.771,14.506-1.93v-27.277h-20.126v-23.035h48.567V511.292z
			 M297.232,517.289h-29.606V386.881h29.606V517.289z M402.503,411.061h-50.121v29.806h46.825v23.99h-46.825v52.432h-29.607V386.881
			h79.729V411.061z M96.757,365.076V21.502H345.82v110.006c0,5.935,4.81,10.751,10.752,10.751h94.961l0.011,222.816H96.757z"/>
		<g>
			<g>
				<g>
					<polygon points="366.451,292.24 310.512,226.132 341.589,226.132 290.03,165.202 322.157,165.202 279.762,115.13 
						299.52,115.13 266.932,76.621 237.307,115.13 257.286,115.13 218.769,165.202 250.294,165.202 203.419,226.132 
						232.706,226.132 181.844,292.24 267.108,292.24 267.108,372.23 281.18,372.23 281.18,292.24 					"/>
				</g>
			</g>
		</g>
	</g>
</g>
<g>
</g>
<g>
</g>
<g>
</g>
<g>
</g>
<g>
</g>
<g>
</g>
<g>
</g>
<g>
</g>
<g>
</g>
<g>
</g>
<g>
</g>
<g>
</g>
<g>
</g>
<g>
</g>
<g>
</g>
</svg>
