<?xml version="1.0" encoding="iso-8859-1"?>
<!-- Generator: Adobe Illustrator 16.0.0, SVG Export Plug-In . SVG Version: 6.00 Build 0)  -->
<!DOCTYPE svg PUBLIC "-//W3C//DTD SVG 1.1//EN" "http://www.w3.org/Graphics/SVG/1.1/DTD/svg11.dtd">
<svg version="1.1" id="Capa_1" xmlns="http://www.w3.org/2000/svg" xmlns:xlink="http://www.w3.org/1999/xlink" x="0px" y="0px"
	 width="550.801px" height="550.801px" viewBox="0 0 550.801 550.801" style="enable-background:new 0 0 550.801 550.801;"
	 xml:space="preserve">
<g>
	<g>
		<path d="M475.095,131.986c-0.032-2.525-0.844-5.015-2.579-6.992L366.324,3.684c-0.031-0.029-0.062-0.045-0.084-0.071
			c-0.633-0.712-1.371-1.289-2.151-1.803c-0.232-0.15-0.464-0.29-0.707-0.422c-0.675-0.372-1.382-0.669-2.13-0.891
			c-0.201-0.058-0.38-0.145-0.58-0.188C359.87,0.114,359.037,0,358.193,0H97.2C85.292,0,75.6,9.688,75.6,21.601v507.6
			c0,11.907,9.692,21.601,21.6,21.601H453.6c11.908,0,21.601-9.693,21.601-21.601V133.197
			C475.2,132.791,475.137,132.393,475.095,131.986z M203.186,503.762c-7.755,2.637-22.441,6.265-37.136,6.265
			c-20.303,0-34.992-5.11-45.225-15.019c-10.233-9.566-15.844-24.09-15.681-40.427c0.166-36.978,27.074-58.103,63.545-58.103
			c14.365,0,25.431,2.806,30.873,5.442l-5.286,20.139c-6.107-2.637-13.701-4.782-25.914-4.782
			c-20.959,0-36.809,11.886-36.809,35.975c0,22.939,14.365,36.482,34.992,36.482c5.779,0,10.401-0.665,12.382-1.656v-23.267h-17.17
			v-19.648h41.428V503.762z M302.231,508.877h-86.484v-13.532l52.979-76.254v-0.664h-48.033v-20.793h80.715v14.518l-51.832,75.263
			v0.653h52.649v20.81H302.231z M343.343,508.877h-25.249V397.634h25.249V508.877z M434.784,457.877
			c-8.585,8.084-21.278,11.718-36.139,11.718c-3.301,0-6.275-0.163-8.591-0.49v39.772h-24.917V399.115
			c7.769-1.318,18.658-2.31,34.004-2.31c15.514,0,26.567,2.974,34.003,8.912c7.093,5.605,11.886,14.845,11.886,25.755
			C445.025,442.357,441.387,451.602,434.784,457.877z M97.2,366.747V21.601h250.192v110.51c0,5.962,4.842,10.8,10.801,10.8H453.6
			v223.837H97.2z"/>
		<path d="M400.454,415.79c-5.115,0-8.585,0.49-10.399,0.991v32.843c2.136,0.496,4.789,0.665,8.428,0.665
			c13.362,0,21.61-6.771,21.61-18.162C420.093,421.896,412.994,415.79,400.454,415.79z"/>
		<polygon points="241.671,240.836 184.209,224.585 184.209,281.876 269.567,308.138 269.567,178.453 257.494,205.928 		"/>
		<polygon points="284.86,206.458 274.504,180.102 274.504,308.138 359.859,281.876 359.859,216.628 297.485,234.268 		"/>
		<polygon points="353.615,163.071 353.479,163.058 353.352,162.815 351.644,162.913 272.879,156.848 178.287,162.923 
			176.417,162.815 176.283,163.053 176.109,163.065 176.122,163.34 152.616,206.318 233.858,229.295 261.776,167.74 
			219.056,165.278 272.845,161.811 314.708,165.046 276.982,167.221 301.946,222.302 374.656,201.733 353.605,163.269 		"/>
	</g>
</g>
<g>
</g>
<g>
</g>
<g>
</g>
<g>
</g>
<g>
</g>
<g>
</g>
<g>
</g>
<g>
</g>
<g>
</g>
<g>
</g>
<g>
</g>
<g>
</g>
<g>
</g>
<g>
</g>
<g>
</g>
</svg>
