<?xml version="1.0" encoding="iso-8859-1"?>
<!-- Generator: Adobe Illustrator 16.0.0, SVG Export Plug-In . SVG Version: 6.00 Build 0)  -->
<!DOCTYPE svg PUBLIC "-//W3C//DTD SVG 1.1//EN" "http://www.w3.org/Graphics/SVG/1.1/DTD/svg11.dtd">
<svg version="1.1" id="Capa_1" xmlns="http://www.w3.org/2000/svg" xmlns:xlink="http://www.w3.org/1999/xlink" x="0px" y="0px"
	 width="548.291px" height="548.291px" viewBox="0 0 548.291 548.291" style="enable-background:new 0 0 548.291 548.291;"
	 xml:space="preserve">
<g>
	<g>
		<g>
			<path d="M472.929,131.396c-0.031-2.514-0.829-4.997-2.556-6.96L364.656,3.677c-0.021-0.031-0.053-0.044-0.084-0.075
				c-0.63-0.704-1.354-1.284-2.132-1.796c-0.23-0.149-0.462-0.286-0.703-0.419c-0.683-0.365-1.387-0.667-2.121-0.888
				c-0.2-0.058-0.377-0.139-0.577-0.191C358.231,0.118,357.411,0,356.572,0H96.757C84.904,0,75.255,9.649,75.255,21.502V526.79
				c0,11.858,9.649,21.501,21.502,21.501h354.775c11.863,0,21.503-9.643,21.503-21.501V132.6
				C473.036,132.191,472.971,131.795,472.929,131.396z M203.571,513.057H175.9v-51.351h-45.702v51.351h-27.867V390.335h27.867
				v47.162H175.9v-47.162h27.671V513.057z M332.698,534.186c-17.482-5.098-32.054-10.379-48.442-17.308
				c-2.729-1.086-5.648-1.639-8.557-1.816c-27.672-1.816-53.534-22.216-53.534-62.278c0-36.778,23.308-64.453,59.906-64.453
				c37.518,0,58.096,28.399,58.096,61.913c0,27.862-12.935,47.526-29.14,54.808v0.729c9.476,2.729,20.027,4.914,29.681,6.919
				L332.698,534.186z M445.968,513.057h-95.413v-14.924l58.447-84.122v-0.735h-52.987v-22.94h89.035v16.022l-57.176,83.029v0.729
				h58.088v22.94H445.968z M96.757,365.085V21.507H345.82v110.011c0,5.935,4.81,10.751,10.752,10.751h94.961l0.011,222.815H96.757z"
				/>
			<path d="M281.346,410.357c-18.937,0-29.868,18.573-29.868,41.522c-0.178,23.308,11.104,41.146,29.68,41.146
				c18.757,0,29.675-17.659,29.675-41.696C310.837,428.93,300.276,410.357,281.346,410.357z"/>
		</g>
		<g>
			<rect x="259.287" y="26.62" width="32.606" height="13.449"/>
			<rect x="226.68" y="8.381" width="32.606" height="10.079"/>
			<rect x="226.68" y="46.749" width="32.606" height="13.455"/>
			<rect x="259.287" y="68.778" width="32.606" height="13.459"/>
			<rect x="260.362" y="108.606" width="32.608" height="13.459"/>
			<rect x="226.68" y="89.684" width="32.606" height="13.459"/>
			<rect x="227.751" y="134.708" width="32.606" height="13.448"/>
			<rect x="260.362" y="154.84" width="32.608" height="13.454"/>
			<rect x="227.751" y="176.871" width="32.606" height="13.46"/>
			<path d="M259.297,201.583c-16.019,0-23.641,12.981-23.641,29.005l-5.365,48.586c0,16.022,12.987,29.008,29.006,29.008
				c16.014,0,28.988-12.985,28.988-29.008l-5.342-48.586C282.944,214.57,275.311,201.583,259.297,201.583z M268.903,295.443h-19.2
				V254.88h19.2V295.443z"/>
		</g>
	</g>
</g>
<g>
</g>
<g>
</g>
<g>
</g>
<g>
</g>
<g>
</g>
<g>
</g>
<g>
</g>
<g>
</g>
<g>
</g>
<g>
</g>
<g>
</g>
<g>
</g>
<g>
</g>
<g>
</g>
<g>
</g>
</svg>
