<?xml version="1.0" encoding="iso-8859-1"?>
<!-- Generator: Adobe Illustrator 16.0.0, SVG Export Plug-In . SVG Version: 6.00 Build 0)  -->
<!DOCTYPE svg PUBLIC "-//W3C//DTD SVG 1.1//EN" "http://www.w3.org/Graphics/SVG/1.1/DTD/svg11.dtd">
<svg version="1.1" id="Capa_1" xmlns="http://www.w3.org/2000/svg" xmlns:xlink="http://www.w3.org/1999/xlink" x="0px" y="0px"
	 width="548.291px" height="548.291px" viewBox="0 0 548.291 548.291" style="enable-background:new 0 0 548.291 548.291;"
	 xml:space="preserve">
<g>
	<g>
		<g>
			<path d="M472.929,131.39c-0.031-2.514-0.829-4.997-2.556-6.96L364.656,3.677c-0.021-0.031-0.053-0.042-0.084-0.075
				c-0.63-0.704-1.354-1.284-2.132-1.796c-0.23-0.149-0.462-0.283-0.703-0.419c-0.683-0.365-1.387-0.665-2.121-0.885
				c-0.2-0.06-0.377-0.142-0.577-0.194C358.231,0.118,357.411,0,356.572,0H96.757C84.904,0,75.255,9.649,75.255,21.502V526.79
				c0,11.858,9.649,21.501,21.502,21.501h354.775c11.863,0,21.503-9.643,21.503-21.501V132.595
				C473.036,132.191,472.971,131.795,472.929,131.39z M181.147,512.437H153.29V389.711h27.857V512.437z M235.239,514.26
				c-14.027,0-27.867-3.644-34.786-7.466l5.648-22.946c7.467,3.822,18.939,7.645,30.775,7.645c12.746,0,19.486-5.276,19.486-13.291
				c0-7.649-5.827-12.022-20.578-17.303c-20.399-7.098-33.691-18.389-33.691-36.232c0-20.944,17.481-36.965,46.437-36.965
				c13.838,0,24.034,2.913,31.315,6.184l-6.188,22.403c-4.913-2.367-13.649-5.827-25.67-5.827c-12.018,0-17.845,5.466-17.845,11.834
				c0,7.832,6.918,11.291,22.758,17.301c21.671,8.012,31.869,19.303,31.869,36.599C284.759,496.778,268.914,514.26,235.239,514.26z
				 M355.605,514.442c-36.41,0-57.722-27.496-57.722-62.456c0-36.783,23.495-64.279,59.727-64.279
				c37.691,0,58.27,28.227,58.27,62.096C415.879,490.039,391.479,514.442,355.605,514.442z M96.757,365.081V21.502H345.82v110.011
				c0,5.938,4.81,10.751,10.752,10.751h94.961l0.011,222.816H96.757z"/>
			<path d="M356.886,409.737c-18.761,0-29.676,17.849-29.676,41.702c0,24.037,11.292,40.966,29.859,40.966
				c18.761,0,29.501-17.836,29.501-41.689C386.566,428.678,376.004,409.737,356.886,409.737z"/>
		</g>
		<g>
			<path d="M263.559,75.138c-68.512,0-124.062,55.533-124.062,124.027c0,68.513,55.549,124.067,124.062,124.067
				c68.519,0,124.046-55.554,124.046-124.067C387.605,130.677,332.078,75.138,263.559,75.138z M300.907,90.285l-26.951,55.004
				c-5.228-2.029-10.396-0.948-10.396-0.948L247.96,86.586C247.96,86.586,268.646,77.303,300.907,90.285z M263.549,247.99
				c-26.961,0-48.807-21.845-48.807-48.819c0-26.958,21.845-48.793,48.807-48.793c26.964,0,48.812,21.84,48.812,48.793
				C312.361,226.14,290.513,247.99,263.549,247.99z"/>
			<path d="M263.559,155.989c-23.811,0-43.179,19.378-43.179,43.197c0,23.806,19.373,43.179,43.179,43.179
				c23.81,0,43.186-19.373,43.186-43.179C306.745,175.373,287.374,155.989,263.559,155.989z M263.559,237.384
				c-21.06,0-38.202-17.137-38.202-38.192c0-21.081,17.142-38.218,38.202-38.218c21.064,0,38.197,17.137,38.197,38.218
				C301.756,220.252,284.624,237.384,263.559,237.384z"/>
			<path d="M263.559,178.533c-11.388,0-20.651,9.262-20.651,20.638c0,11.378,9.263,20.646,20.651,20.646
				c11.384,0,20.654-9.268,20.654-20.646C284.213,187.79,274.943,178.533,263.559,178.533z M263.559,214.838
				c-8.638,0-15.661-7.024-15.661-15.667c0-8.632,7.023-15.653,15.661-15.653c8.63,0,15.679,7.021,15.679,15.653
				C279.238,207.813,272.194,214.838,263.559,214.838z"/>
		</g>
	</g>
</g>
<g>
</g>
<g>
</g>
<g>
</g>
<g>
</g>
<g>
</g>
<g>
</g>
<g>
</g>
<g>
</g>
<g>
</g>
<g>
</g>
<g>
</g>
<g>
</g>
<g>
</g>
<g>
</g>
<g>
</g>
</svg>
