<?xml version="1.0" encoding="iso-8859-1"?>
<!-- Generator: Adobe Illustrator 16.0.0, SVG Export Plug-In . SVG Version: 6.00 Build 0)  -->
<!DOCTYPE svg PUBLIC "-//W3C//DTD SVG 1.1//EN" "http://www.w3.org/Graphics/SVG/1.1/DTD/svg11.dtd">
<svg version="1.1" id="Capa_1" xmlns="http://www.w3.org/2000/svg" xmlns:xlink="http://www.w3.org/1999/xlink" x="0px" y="0px"
	 width="550.801px" height="550.801px" viewBox="0 0 550.801 550.801" style="enable-background:new 0 0 550.801 550.801;"
	 xml:space="preserve">
<g>
	<g>
		<path d="M396.974,421.707h-0.337c-1.709,6.823-3.418,15.535-5.295,22.19l-6.829,24.416h25.439l-7.172-24.416
			C400.729,437.073,398.683,428.53,396.974,421.707z"/>
		<path d="M290.946,446.798l-14.855,24.247v0.343h24.933v-24.59c0-6.655,0.343-13.489,0.85-20.656h-0.686
			C297.602,433.309,294.706,439.805,290.946,446.798z"/>
		<path d="M475.095,131.997c-0.032-2.528-0.833-5.023-2.568-6.992L366.324,3.691c-0.021-0.031-0.053-0.042-0.084-0.073
			c-0.633-0.707-1.36-1.292-2.141-1.804c-0.232-0.153-0.465-0.287-0.707-0.422c-0.686-0.366-1.393-0.67-2.131-0.892
			c-0.2-0.058-0.379-0.14-0.58-0.195C359.87,0.119,359.047,0,358.203,0H97.2C85.292,0,75.6,9.693,75.6,21.601v507.6
			c0,11.913,9.692,21.601,21.6,21.601H453.6c11.918,0,21.601-9.688,21.601-21.601V133.202
			C475.2,132.796,475.137,132.396,475.095,131.997z M213.78,517.324l-1.706-44.054c-0.512-13.832-1.021-30.565-1.021-47.303h-0.515
			c-3.583,14.691-8.369,31.081-12.806,44.571l-14.003,44.908h-20.319l-12.297-44.571c-3.758-13.489-7.684-29.879-10.415-44.908
			h-0.34c-0.68,15.541-1.195,33.302-2.049,47.646l-2.051,43.711h-24.073l7.343-115.087h34.665l11.27,38.417
			c3.586,13.315,7.169,27.659,9.735,41.148h0.514c3.246-13.315,7.172-28.508,10.929-41.322l12.29-38.243h33.982l6.317,115.087
			H213.78z M338.935,490.862h-13.321v26.462h-24.59v-26.462h-49.177v-16.906l42.005-67.616h31.762v65.059h13.321V490.862z
			 M422.587,517.324l-8.875-29.541h-32.959l-8.195,29.541h-26.979l35.174-115.087h34.156l35.685,115.087H422.587z M97.2,366.752
			V21.601h250.203v110.515c0,5.961,4.831,10.8,10.8,10.8H453.6l0.011,223.836H97.2z"/>
	</g>
	<g>
		<path d="M269.623,103.148c-7.733,0-15.282,0.797-22.573,2.302c4.348,5.054,7.322,10.233,9.3,14.937
			c4.351-0.612,8.759-1.034,13.273-1.034c52.632,0,95.446,42.823,95.446,95.458c0,52.629-42.82,95.451-95.446,95.451
			c-42.662,0-78.862-28.144-91.057-66.825c-1.025,0.079-2.051,0.187-3.087,0.187c-5.168,0-9.975-1.01-14.289-2.666
			c11.815,48.964,55.885,85.503,108.433,85.503c61.564,0,111.646-50.087,111.646-111.651
			C381.27,153.236,331.188,103.148,269.623,103.148z"/>
		<path d="M269.623,244.83c16.556,0,30.029-13.468,30.029-30.029c0-16.562-13.474-30.035-30.029-30.035
			c-16.559,0-30.03,13.474-30.03,30.035C239.593,231.362,253.064,244.83,269.623,244.83z M269.623,200.971
			c7.623,0,13.829,6.205,13.829,13.835c0,7.631-6.206,13.83-13.829,13.83c-7.625,0-13.83-6.199-13.83-13.83
			C255.793,207.175,261.998,200.971,269.623,200.971z"/>
		<path d="M213.904,137.455l14.813-8.767c-5.226-5.439-10.033-8.851-14.03-10.974c-0.248,0.135-0.485,0.304-0.733,0.443
			L213.904,137.455z"/>
		<path d="M179.621,183.081l0.032-34.111c-8.496,11.578-14.787,24.812-18.323,39.16c3.009-1.598,6.194-2.953,9.629-3.807
			C173.842,183.605,176.742,183.194,179.621,183.081z"/>
		<path d="M184.228,227.404c11.749-2.911,19.941-11.784,19.989-20.859h0.044l0.295-107.71c0,0,23.443-1.252,46.414,34.733
			c0,0,0.048-18.57-17.605-32.173c-34.446-24.079-34.359-29.745-34.359-29.745c-6.56,0.772-7.23,5.748-7.23,5.748v113.427
			c-4.931-1.711-10.824-2.01-16.859-0.53c-13.371,3.328-22.108,14.37-19.548,24.64C156.864,224.401,170.856,230.779,184.228,227.404
			z"/>
	</g>
</g>
<g>
</g>
<g>
</g>
<g>
</g>
<g>
</g>
<g>
</g>
<g>
</g>
<g>
</g>
<g>
</g>
<g>
</g>
<g>
</g>
<g>
</g>
<g>
</g>
<g>
</g>
<g>
</g>
<g>
</g>
</svg>
