<?xml version="1.0" encoding="iso-8859-1"?>
<!-- Generator: Adobe Illustrator 16.0.0, SVG Export Plug-In . SVG Version: 6.00 Build 0)  -->
<!DOCTYPE svg PUBLIC "-//W3C//DTD SVG 1.1//EN" "http://www.w3.org/Graphics/SVG/1.1/DTD/svg11.dtd">
<svg version="1.1" id="Capa_1" xmlns="http://www.w3.org/2000/svg" xmlns:xlink="http://www.w3.org/1999/xlink" x="0px" y="0px"
	 width="550.801px" height="550.801px" viewBox="0 0 550.801 550.801" style="enable-background:new 0 0 550.801 550.801;"
	 xml:space="preserve">
<g>
	<g>
		<path d="M475.095,131.992c-0.032-2.531-0.833-5.021-2.579-6.993L366.314,3.694c-0.011-0.031-0.053-0.045-0.074-0.076
			c-0.644-0.707-1.36-1.295-2.141-1.804c-0.232-0.155-0.485-0.285-0.718-0.422c-0.675-0.366-1.392-0.675-2.13-0.896
			c-0.19-0.053-0.38-0.135-0.58-0.188C359.87,0.119,359.047,0,358.203,0H97.2C85.292,0,75.6,9.693,75.6,21.601v507.6
			c0,11.907,9.692,21.601,21.6,21.601H453.6c11.897,0,21.601-9.693,21.601-21.601V133.197
			C475.2,132.796,475.126,132.398,475.095,131.992z M179.091,523.094c-38.876,0-61.615-29.342-61.615-66.667
			c0-39.266,25.078-68.618,63.758-68.618c40.236,0,62.203,30.133,62.203,66.282C243.433,497.054,217.387,523.094,179.091,523.094z
			 M356.959,505.406c-13.801,11.476-34.789,16.918-60.444,16.918c-15.356,0-26.24-0.971-33.631-1.946V391.701
			c10.884-1.751,25.077-2.722,40.044-2.722c24.874,0,41.006,4.472,53.646,13.996c13.605,10.104,22.159,26.24,22.159,49.37
			C378.738,477.426,369.594,494.723,356.959,505.406z M427.924,520.963h-29.737V389.95h29.737V520.963z M97.2,366.747V21.601
			h250.203v110.51c0,5.97,4.831,10.8,10.8,10.8H453.6l0.011,223.837H97.2z"/>
		<path d="M306.039,411.719c-6.608,0-10.885,0.591-13.405,1.171v85.714c2.525,0.591,6.607,0.591,10.294,0.591
			c26.831,0.19,44.317-14.586,44.317-45.879C347.44,426.104,331.51,411.719,306.039,411.719z"/>
		<path d="M180.452,411.328c-20.018,0-31.683,19.059-31.683,44.519c0,25.661,12.055,43.728,31.883,43.728
			c20.018,0,31.482-19.042,31.482-44.508C212.135,431.547,200.862,411.328,180.452,411.328z"/>
	</g>
	<g>
		<path d="M337.142,264.315v-140.97c0-1.877-1.54-3.417-3.443-3.417H170.801c-1.912,0-3.449,1.54-3.449,3.417v140.97
			c0,1.898,1.537,3.438,3.449,3.438h162.897C335.602,267.754,337.142,266.214,337.142,264.315z M324.279,227.96h-10.31
			c-6.012-15.412-13.41-36.999-24.643-34.117c-13.168,3.365-19.754,34.117-19.754,34.117s-6.734-34.709-25.315-53.301
			c-18.581-18.581-36.584,53.301-36.584,53.301h-24.598V135.52h141.21v92.441H324.279z"/>
		<circle cx="205.859" cy="155.354" r="11.523"/>
		<path d="M283.162,163.485c2.59,0,5.016-0.274,7.183-0.707c2.511,1.073,5.553,1.727,8.875,1.727c8.485,0,15.367-4.158,15.367-9.271
			c0-5.126-6.882-9.271-15.367-9.271c-3.19,0-6.144,0.577-8.601,1.582c-1.007-0.973-2.362-1.582-3.86-1.582h-2.235
			c-2.843,0-5.089,2.159-5.432,4.912c-6.882,0.72-11.981,3.209-11.981,6.183C267.11,160.608,274.298,163.485,283.162,163.485z"/>
		<path d="M381.57,187.11l-35.443-7.942v15.979l22.84,5.112l-20.208,90.208l-10.057-2.258c-0.475-3.063-0.943-6.349-1.466-9.66
			H190.619l-2.932,13.088c-0.414,1.852,0.751,3.697,2.61,4.108l158.958,35.617c1.861,0.411,3.696-0.76,4.107-2.605l30.818-137.562
			C384.592,189.356,383.432,187.526,381.57,187.11z"/>
		<path d="M355.197,217.382c0.934-4.158-2.974-8.667-9.07-11.146v17.244C350.863,222.874,354.459,220.683,355.197,217.382z"/>
	</g>
</g>
<g>
</g>
<g>
</g>
<g>
</g>
<g>
</g>
<g>
</g>
<g>
</g>
<g>
</g>
<g>
</g>
<g>
</g>
<g>
</g>
<g>
</g>
<g>
</g>
<g>
</g>
<g>
</g>
<g>
</g>
</svg>
