<?xml version="1.0" encoding="iso-8859-1"?>
<!-- Generator: Adobe Illustrator 16.0.0, SVG Export Plug-In . SVG Version: 6.00 Build 0)  -->
<!DOCTYPE svg PUBLIC "-//W3C//DTD SVG 1.1//EN" "http://www.w3.org/Graphics/SVG/1.1/DTD/svg11.dtd">
<svg version="1.1" id="Capa_1" xmlns="http://www.w3.org/2000/svg" xmlns:xlink="http://www.w3.org/1999/xlink" x="0px" y="0px"
	 width="548.291px" height="548.291px" viewBox="0 0 548.291 548.291" style="enable-background:new 0 0 548.291 548.291;"
	 xml:space="preserve">
<g>
	<g>
		<path d="M279.3,412.929c-6.15,0-10.127,0.547-12.476,1.082v79.729c2.354,0.545,6.149,0.545,9.577,0.545
			c24.956,0.179,41.219-13.563,41.219-42.667C317.804,426.305,302.974,412.929,279.3,412.929z"/>
		<path d="M162.492,412.562c-18.619,0-29.467,17.732-29.467,41.408c0,23.863,11.207,40.671,29.651,40.671
			c18.62,0,29.284-17.722,29.284-41.396C191.96,431.367,181.479,412.562,162.492,412.562z"/>
		<path d="M472.929,131.39c-0.031-2.52-0.829-4.997-2.556-6.96L364.656,3.677c-0.021-0.031-0.062-0.044-0.084-0.075
			c-0.63-0.704-1.354-1.29-2.132-1.796c-0.23-0.154-0.473-0.283-0.714-0.419c-0.672-0.365-1.376-0.672-2.121-0.893
			c-0.189-0.052-0.377-0.134-0.577-0.186C358.231,0.118,357.411,0,356.572,0H96.757C84.904,0,75.255,9.649,75.255,21.502V526.79
			c0,11.854,9.649,21.501,21.502,21.501h354.775c11.853,0,21.503-9.647,21.503-21.501v-394.2
			C473.036,132.191,472.971,131.795,472.929,131.39z M161.23,516.511c-36.161,0-57.313-27.287-57.313-62.006
			c0-36.525,23.323-63.822,59.294-63.822c37.431,0,57.856,28.031,57.856,61.659C221.068,492.291,196.842,516.511,161.23,516.511z
			 M326.66,500.06c-12.829,10.676-32.357,15.737-56.219,15.737c-14.278,0-24.404-0.903-31.272-1.817V394.305
			c10.12-1.633,23.323-2.536,37.238-2.536c23.145,0,38.148,4.157,49.9,13.023c12.657,9.397,20.609,24.395,20.609,45.923
			C346.913,474.032,338.414,490.127,326.66,500.06z M444.368,415.816h-33.266v98.722h-27.654v-98.722h-32.725v-23.144h93.645
			V415.816z M451.276,365.076H96.757V21.502H345.82v110.006c0,5.943,4.81,10.751,10.752,10.751h94.961L451.276,365.076z"/>
		<path d="M140.298,97.66h151.927c5.937,0,10.749-4.816,10.749-10.75c0-5.939-4.812-10.751-10.749-10.751H140.298
			c-5.94,0-10.751,4.812-10.751,10.751C129.547,92.839,134.353,97.66,140.298,97.66z"/>
		<path d="M140.298,168.434h151.927c5.937,0,10.749-4.817,10.749-10.751c0-5.94-4.812-10.751-10.749-10.751H140.298
			c-5.94,0-10.751,4.811-10.751,10.751C129.547,163.611,134.353,168.434,140.298,168.434z"/>
		<path d="M129.547,228.402c0,5.935,4.811,10.751,10.751,10.751h248.524c5.934,0,10.751-4.816,10.751-10.751
			c0-5.939-4.817-10.75-10.751-10.75H140.298C134.353,217.652,129.547,222.462,129.547,228.402z"/>
		<path d="M388.823,288.487H140.298c-5.94,0-10.751,4.81-10.751,10.751c0,5.932,4.811,10.751,10.751,10.751h248.524
			c5.934,0,10.751-4.819,10.751-10.751C399.574,293.296,394.756,288.487,388.823,288.487z"/>
	</g>
</g>
<g>
</g>
<g>
</g>
<g>
</g>
<g>
</g>
<g>
</g>
<g>
</g>
<g>
</g>
<g>
</g>
<g>
</g>
<g>
</g>
<g>
</g>
<g>
</g>
<g>
</g>
<g>
</g>
<g>
</g>
</svg>
