<?xml version="1.0" encoding="iso-8859-1"?>
<!-- Generator: Adobe Illustrator 16.0.0, SVG Export Plug-In . SVG Version: 6.00 Build 0)  -->
<!DOCTYPE svg PUBLIC "-//W3C//DTD SVG 1.1//EN" "http://www.w3.org/Graphics/SVG/1.1/DTD/svg11.dtd">
<svg version="1.1" id="Capa_1" xmlns="http://www.w3.org/2000/svg" xmlns:xlink="http://www.w3.org/1999/xlink" x="0px" y="0px"
	 width="550.801px" height="550.801px" viewBox="0 0 550.801 550.801" style="enable-background:new 0 0 550.801 550.801;"
	 xml:space="preserve">
<g>
	<g>
		<g>
			<path d="M475.095,131.992c-0.032-2.526-0.833-5.023-2.568-6.993L366.324,3.694c-0.021-0.034-0.053-0.045-0.084-0.076
				c-0.633-0.707-1.36-1.292-2.141-1.804c-0.232-0.15-0.465-0.287-0.707-0.422c-0.686-0.366-1.393-0.67-2.131-0.892
				c-0.2-0.058-0.379-0.14-0.58-0.195C359.87,0.119,359.047,0,358.203,0H97.2C85.292,0,75.6,9.693,75.6,21.601v507.6
				c0,11.913,9.692,21.601,21.6,21.601H453.6c11.918,0,21.601-9.688,21.601-21.601V133.202
				C475.2,132.796,475.137,132.398,475.095,131.992z M197.878,459.512c-9.511,8.96-23.599,12.983-40.057,12.983
				c-3.663,0-6.951-0.18-9.516-0.554v44.086h-27.619V394.391c8.596-1.467,20.669-2.563,37.681-2.563
				c17.194,0,29.45,3.291,37.681,9.872c7.868,6.223,13.17,16.464,13.17,28.54S205.195,452.557,197.878,459.512z M295.392,516.038
				l-30.183-53.235l-10.61,12.988v40.236h-27.619V392.745h27.619v54.506h0.551c2.742-4.757,5.669-9.144,8.414-13.531l27.989-40.975
				h34.203l-40.79,52.497l42.979,70.785h-32.553V516.038z M436.261,510.363c-8.596,2.927-24.88,6.951-41.159,6.951
				c-22.502,0-38.786-5.675-50.124-16.648c-11.338-10.61-17.561-26.699-17.376-44.813c0.185-40.975,30.001-64.389,70.427-64.389
				c15.915,0,28.166,3.105,34.204,6.038l-5.854,22.312c-6.767-2.927-15.188-5.305-28.72-5.305c-23.229,0-40.79,13.173-40.79,39.883
				c0,25.429,15.915,40.421,38.786,40.421c6.402,0,11.518-0.733,13.722-1.83v-25.787h-19.026v-21.769h45.91V510.363z M97.2,366.752
				V21.601h250.203v110.515c0,5.961,4.831,10.8,10.8,10.8H453.6l0.011,223.836H97.2L97.2,366.752z"/>
			<path d="M159.83,412.863c-5.672,0-9.511,0.554-11.525,1.097v36.402c2.376,0.549,5.303,0.733,9.332,0.733
				c14.818,0,23.965-7.504,23.965-20.129C181.596,419.634,173.733,412.863,159.83,412.863z"/>
		</g>
		<g>
			<polygon points="248.574,249.756 191.117,233.506 191.117,290.799 276.471,317.061 276.471,187.374 264.395,214.851 			"/>
			<polygon points="291.758,215.378 281.401,189.021 281.401,317.061 366.763,290.799 366.763,225.553 304.388,243.19 			"/>
			<path d="M283.88,176.144l24.964,55.073l72.716-20.563l-21.046-38.465l0.01-0.203l-0.137-0.013l-0.132-0.232l-1.703,0.103
				l-21.047-1.619v-42.797h-124.2v42.617l-28.113,1.804l-1.867-0.108l-0.137,0.237l-0.166,0.014l0.011,0.274l-23.512,42.979
				l81.243,22.982l27.917-61.555l-42.712-2.463l53.786-3.47l41.86,3.238L283.88,176.144z M279.787,165.773l-61.087,3.921v-36.867
				H332.1v36.98L279.787,165.773z"/>
		</g>
	</g>
</g>
<g>
</g>
<g>
</g>
<g>
</g>
<g>
</g>
<g>
</g>
<g>
</g>
<g>
</g>
<g>
</g>
<g>
</g>
<g>
</g>
<g>
</g>
<g>
</g>
<g>
</g>
<g>
</g>
<g>
</g>
</svg>
