<?xml version="1.0" encoding="iso-8859-1"?>
<!-- Generator: Adobe Illustrator 16.0.0, SVG Export Plug-In . SVG Version: 6.00 Build 0)  -->
<!DOCTYPE svg PUBLIC "-//W3C//DTD SVG 1.1//EN" "http://www.w3.org/Graphics/SVG/1.1/DTD/svg11.dtd">
<svg version="1.1" id="Capa_1" xmlns="http://www.w3.org/2000/svg" xmlns:xlink="http://www.w3.org/1999/xlink" x="0px" y="0px"
	 width="550.801px" height="550.801px" viewBox="0 0 550.801 550.801" style="enable-background:new 0 0 550.801 550.801;"
	 xml:space="preserve">
<g>
	<g>
		<path d="M250.868,415.146h-0.346c-1.727,6.903-3.451,15.704-5.357,22.434l-6.896,24.68h25.716l-7.248-24.68
			C254.654,430.682,252.595,422.05,250.868,415.146z"/>
		<path d="M475.084,131.992c-0.021-2.526-0.828-5.021-2.562-6.993L366.324,3.694c-0.031-0.034-0.062-0.045-0.084-0.076
			c-0.633-0.707-1.371-1.29-2.151-1.804c-0.232-0.15-0.464-0.285-0.707-0.422c-0.675-0.366-1.392-0.67-2.13-0.892
			c-0.201-0.058-0.38-0.14-0.58-0.192C359.87,0.114,359.037,0,358.193,0H97.2C85.282,0,75.6,9.693,75.6,21.601v507.6
			c0,11.913,9.682,21.601,21.6,21.601H453.6c11.908,0,21.601-9.688,21.601-21.601V133.202
			C475.2,132.796,475.137,132.398,475.084,131.992z M164.402,511.777c-1.901-3.275-4.659-12.768-8.111-27.101
			c-3.109-14.497-8.111-18.457-18.802-18.62h-7.942v45.721h-26.051v-114.75c8.456-1.382,21.039-2.416,35.023-2.416
			c17.254,0,29.333,2.595,37.613,9.145c6.905,5.521,10.702,13.632,10.702,24.332c0,14.839-10.525,25.027-20.537,28.65v0.512
			c8.1,3.279,12.593,11.053,15.536,21.742c3.618,13.115,7.249,28.303,9.484,32.785H164.402z M276.75,511.777l-8.976-29.848h-33.307
			l-8.277,29.848h-27.266l35.543-116.301h34.512l36.073,116.301H276.75z M419.987,511.777h-28.477l-9.841-50.045
			c-2.235-11.733-4.145-22.603-5.511-35.892h-0.343c-2.072,13.115-3.965,24.158-6.729,35.892l-11.043,50.045h-28.819
			l-27.606-116.301h28.118l8.807,47.967c2.584,13.807,4.999,28.819,6.897,40.553h0.343c1.904-12.593,4.657-26.572,7.589-40.89
			l9.84-47.63h27.949l9.329,49.001c2.589,13.637,4.482,26.062,6.207,39.008h0.348c1.72-12.937,4.313-26.573,6.719-40.379
			l9.492-47.63h26.747L419.987,511.777z M97.2,366.752V21.601h250.192v110.515c0,5.961,4.842,10.8,10.801,10.8H453.6v223.836H97.2z"
			/>
		<path d="M141.452,414.113c-6.392,0-10.012,0.521-11.905,0.864v32.095h10.357c13.11,0,20.87-6.561,20.87-16.738
			C160.774,419.629,153.533,414.287,141.452,414.113z"/>
		<path d="M299.342,234.668l71.603-18.37c0,0-0.907-35.641-29.31-69.725L299.342,234.668z"/>
		<path d="M184.389,259.849c0,0,16.437,31.636,56.916,49.829l-0.599-97.728L184.389,259.849z"/>
		<path d="M332.98,138.932c0,0-28.64-21.229-72.997-19.833l43.387,87.57L332.98,138.932z"/>
		<path d="M252.439,312.747c0,0,35.047,6.522,74.298-14.181l-77.364-59.682L252.439,312.747z"/>
		<path d="M248.632,121.216c0,0-34.364,9.497-60.565,45.314l95.702,19.723L248.632,121.216z"/>
		<path d="M336.023,291.695c0,0,26.715-23.606,34.562-67.281l-94.658,24.229L336.023,291.695z"/>
		<path d="M182.74,176.774c0,0-13.666,32.93-1.587,75.629l74.466-63.279L182.74,176.774z"/>
	</g>
</g>
<g>
</g>
<g>
</g>
<g>
</g>
<g>
</g>
<g>
</g>
<g>
</g>
<g>
</g>
<g>
</g>
<g>
</g>
<g>
</g>
<g>
</g>
<g>
</g>
<g>
</g>
<g>
</g>
<g>
</g>
</svg>
