<?xml version="1.0" encoding="iso-8859-1"?>
<!-- Generator: Adobe Illustrator 16.0.0, SVG Export Plug-In . SVG Version: 6.00 Build 0)  -->
<!DOCTYPE svg PUBLIC "-//W3C//DTD SVG 1.1//EN" "http://www.w3.org/Graphics/SVG/1.1/DTD/svg11.dtd">
<svg version="1.1" id="Capa_1" xmlns="http://www.w3.org/2000/svg" xmlns:xlink="http://www.w3.org/1999/xlink" x="0px" y="0px"
	 width="548.291px" height="548.291px" viewBox="0 0 548.291 548.291" style="enable-background:new 0 0 548.291 548.291;"
	 xml:space="preserve">
<g>
	<g>
		<path d="M181.301,405.948c-7.796,0-12.213,0.631-14.531,1.055v39.161h12.638c16.003,0,25.476-7.995,25.476-20.425
			C204.884,412.687,196.042,406.168,181.301,405.948z"/>
		<path d="M472.929,131.39c-0.031-2.514-0.829-4.997-2.556-6.96L364.656,3.677c-0.021-0.031-0.053-0.044-0.084-0.075
			c-0.63-0.704-1.354-1.284-2.132-1.796c-0.23-0.149-0.462-0.283-0.703-0.419c-0.683-0.365-1.387-0.667-2.121-0.888
			c-0.2-0.058-0.377-0.139-0.577-0.191C358.231,0.118,357.411,0,356.572,0H96.757C84.904,0,75.255,9.649,75.255,21.502V526.79
			c0,11.858,9.649,21.501,21.502,21.501h354.775c11.863,0,21.503-9.643,21.503-21.501V132.595
			C473.036,132.191,472.971,131.795,472.929,131.39z M209.307,525.121c-2.318-3.994-5.688-15.576-9.896-33.051
			c-3.79-17.686-9.897-22.531-22.948-22.741h-9.688v55.802h-31.801V385.108c10.315-1.681,25.691-2.94,42.746-2.94
			c21.055,0,35.795,3.15,45.901,11.154c8.417,6.736,13.05,16.636,13.05,29.686c0,18.101-12.84,30.531-25.053,34.952v0.63
			c9.896,4,15.368,13.469,18.948,26.53c4.417,16.011,8.842,34.529,11.577,40.001H209.307z M381.936,525.121l-2.104-54.317
			c-0.636-17.054-1.265-37.689-1.265-58.324h-0.631c-4.42,18.108-10.32,38.32-15.795,54.956l-17.266,55.375H319.82l-15.16-54.956
			c-4.636-16.635-9.475-36.846-12.84-55.375h-0.421c-0.844,19.155-1.475,41.06-2.524,58.745l-2.529,53.896h-29.687l9.058-141.908
			h42.739l13.894,47.375c4.426,16.421,8.846,34.111,12.006,50.736h0.631c3.999-16.42,8.845-35.16,13.48-50.957l15.161-47.16h41.898
			l7.791,141.914H381.936L381.936,525.121z M96.757,365.081V21.502H345.82v110.011c0,5.935,4.81,10.751,10.752,10.751h94.961
			l0.011,222.816H96.757z"/>
	</g>
	<g>
		<path d="M251.084,166.756c-0.478-0.38-1.129-0.452-1.683-0.176c-0.554,0.257-0.897,0.822-0.897,1.428v67.55
			c0,0.601,0.344,1.17,0.897,1.422l0.698,0.168c0.354,0,0.7-0.126,0.99-0.352l52.888-33.768c0.377-0.312,0.603-0.779,0.603-1.252
			c0-0.472-0.226-0.934-0.603-1.252L251.084,166.756z"/>
		<path d="M264.013,134.37c-60.051,0-108.733,29.544-108.733,65.988c0,36.447,48.682,65.988,108.733,65.988
			c4.278,0,8.497-0.165,12.651-0.457c-3.438,10.136-15.588,36.887-26.407,68.07l98.965-86.28
			c20.152-19.48,22.289-36.452,22.289-47.439C371.511,163.801,324.066,134.37,264.013,134.37z M340.079,237.744l-57.607,50.223
			c3.134-7.638,5.601-13.686,6.97-17.735c1.46-4.278,0.673-9.002-2.088-12.577c-2.562-3.333-6.521-5.263-10.694-5.263
			c-0.309,0-0.623,0.01-0.939,0.031c-4.083,0.287-7.918,0.426-11.714,0.426c-51.625,0-95.234-24.04-95.234-52.497
			s43.609-52.497,95.234-52.497c50.953,0,94.005,23.984,94.005,52.378C358.01,209.588,355.961,222.285,340.079,237.744z"/>
	</g>
</g>
<g>
</g>
<g>
</g>
<g>
</g>
<g>
</g>
<g>
</g>
<g>
</g>
<g>
</g>
<g>
</g>
<g>
</g>
<g>
</g>
<g>
</g>
<g>
</g>
<g>
</g>
<g>
</g>
<g>
</g>
</svg>
