<?xml version="1.0" encoding="iso-8859-1"?>
<!-- Generator: Adobe Illustrator 16.0.0, SVG Export Plug-In . SVG Version: 6.00 Build 0)  -->
<!DOCTYPE svg PUBLIC "-//W3C//DTD SVG 1.1//EN" "http://www.w3.org/Graphics/SVG/1.1/DTD/svg11.dtd">
<svg version="1.1" id="Capa_1" xmlns="http://www.w3.org/2000/svg" xmlns:xlink="http://www.w3.org/1999/xlink" x="0px" y="0px"
	 width="548.291px" height="548.291px" viewBox="0 0 548.291 548.291" style="enable-background:new 0 0 548.291 548.291;"
	 xml:space="preserve">
<g>
	<g>
		<path d="M472.929,131.396c-0.031-2.514-0.829-4.997-2.556-6.96L364.656,3.677c-0.021-0.031-0.053-0.042-0.084-0.075
			c-0.63-0.704-1.354-1.284-2.132-1.796c-0.23-0.149-0.462-0.283-0.703-0.419c-0.683-0.365-1.387-0.665-2.121-0.885
			c-0.2-0.06-0.377-0.142-0.577-0.194C358.231,0.118,357.411,0,356.572,0H96.757C84.904,0,75.255,9.649,75.255,21.502V526.79
			c0,11.858,9.649,21.501,21.502,21.501h354.775c11.863,0,21.503-9.643,21.503-21.501V132.595
			C473.036,132.194,472.971,131.795,472.929,131.396z M165.33,510.967c-14.019,0-27.859-3.648-34.778-7.469l5.644-22.946
			c7.467,3.822,18.937,7.643,30.774,7.643c12.746,0,19.486-5.274,19.486-13.291c0-7.643-5.827-12.021-20.578-17.301
			c-20.394-7.098-33.688-18.389-33.688-36.232c0-20.939,17.481-36.967,46.434-36.967c13.837,0,24.04,2.919,31.318,6.188l-6.189,22.4
			c-4.916-2.362-13.659-5.827-25.673-5.827c-12.012,0-17.845,5.47-17.845,11.832c0,7.832,6.918,11.291,22.759,17.303
			c21.669,8.01,31.866,19.301,31.866,36.599C214.86,493.488,199.018,510.967,165.33,510.967z M289.714,457.98v51.172h-27.68v-50.264
			l-38.783-72.469h31.685l12.565,29.498c3.822,8.923,6.375,15.475,9.466,23.489h0.368c2.729-7.653,5.648-14.75,9.292-23.489
			l12.377-29.498h31.14L289.714,457.98z M368.208,510.967c-14.021,0-27.857-3.648-34.776-7.469l5.644-22.946
			c7.464,3.822,18.935,7.643,30.776,7.643c12.74,0,19.485-5.274,19.485-13.291c0-7.643-5.826-12.021-20.576-17.301
			c-20.401-7.098-33.692-18.389-33.692-36.232c0-20.939,17.48-36.967,46.437-36.967c13.838,0,24.031,2.919,31.318,6.188l-6.194,22.4
			c-4.913-2.362-13.659-5.827-25.67-5.827s-17.847,5.47-17.847,11.832c0,7.832,6.918,11.291,22.76,17.303
			c21.671,8.01,31.864,19.301,31.864,36.599C417.737,493.488,401.895,510.967,368.208,510.967z M96.757,365.081V21.502H345.82
			v110.011c0,5.935,4.81,10.751,10.752,10.751h94.961l0.011,222.816H96.757z"/>
		<g>
			<path d="M357.956,88.673l-191.78,0.269l0.026,249.268l191.787-0.116L357.956,88.673z M178.834,325.695l-0.149-224.289
				l166.327-0.084l0.042,224.293L178.834,325.695z"/>
			<path d="M327.694,188.956c-5.58-2.155-10.178-6.632-12.468-12.218c-2.319-5.562-2.246-11.932,0.174-17.475
				c0.221-0.494,0.111-1.108-0.294-1.509l-12.026-12.021c-0.389-0.397-1.007-0.51-1.511-0.294
				c-5.529,2.423-11.896,2.504-17.472,0.187c-5.563-2.289-10.05-6.87-12.22-12.496c-0.152-0.339-0.344-0.855-1.286-0.866
				l-17.014-0.005c-0.564,0.005-1.079,0.365-1.283,0.887c-2.194,5.622-6.632,10.176-12.224,12.488
				c-5.559,2.305-11.924,2.229-17.464-0.194c-0.518-0.226-1.119-0.118-1.523,0.289l-12.034,12.038
				c-0.393,0.391-0.506,0.988-0.28,1.509c2.43,5.543,2.488,11.893,0.199,17.47c-2.317,5.564-6.874,10.037-12.504,12.218
				c-0.514,0.21-0.864,0.722-0.864,1.28l-0.01,17.024c0.01,0.935,0.504,1.128,0.884,1.262c2.872,1.124,5.462,2.801,7.651,5
				c2.084,2.089,3.714,4.515,4.822,7.234c2.31,5.585,2.246,11.945-0.178,17.476c-0.221,0.501-0.108,1.113,0.296,1.512l12.019,12.019
				c0.409,0.409,1.011,0.522,1.513,0.301c5.541-2.425,11.894-2.493,17.475-0.183c5.428,2.251,9.772,6.63,12.029,12.011
				c0.559-0.452,1.189-0.83,1.881-1.103c0.99-0.378,1.791-1.163,2.171-2.102c0.383-0.924,0.373-2.037-0.036-2.975
				c-1.226-2.853-0.612-6.062,1.548-8.202l5.699-5.703c2.149-2.161,5.354-2.774,8.161-1.575c0.982,0.426,2.099,0.447,3.027,0.056
				c0.928-0.384,1.706-1.168,2.067-2.113c1.119-2.846,3.9-4.725,6.918-4.738h8.059c2.021,0.018,3.874,0.779,5.238,2.134l0.945,0.958
				l0.661,1.493c0.473,1.21,1.218,1.882,2.122,2.252c0.948,0.399,2.067,0.384,2.991-0.026c2.678-1.149,5.648-0.622,7.802,1.248
				l3.752-3.751c0.383-0.394,0.504-1.016,0.283-1.538c-2.42-5.526-2.487-11.891-0.184-17.46c2.311-5.575,6.86-10.042,12.488-12.229
				c0.509-0.199,0.867-0.714,0.872-1.268l-0.005-17.019C328.571,189.3,328.083,189.108,327.694,188.956z M285.484,222.151
				c-12.904,12.895-33.888,12.895-46.801-0.017c-12.884-12.898-12.884-33.877,0.011-46.772c12.884-12.89,33.886-12.906,46.791-0.01
				C298.387,188.252,298.372,209.25,285.484,222.151z"/>
			<path d="M318.235,266.636c-2.646-1.016-4.835-3.144-5.917-5.779c-1.102-2.638-1.06-5.659,0.085-8.284
				c0.115-0.242,0.047-0.524-0.132-0.713l-5.695-5.704c-0.194-0.181-0.483-0.242-0.725-0.134c-2.609,1.154-5.638,1.176-8.263,0.097
				c-2.64-1.092-4.766-3.258-5.795-5.929c-0.074-0.164-0.168-0.405-0.615-0.405l-8.062-0.011c-0.263,0.011-0.515,0.179-0.613,0.42
				c-1.029,2.671-3.14,4.816-5.786,5.914c-2.638,1.089-5.645,1.057-8.265-0.087c-0.242-0.108-0.538-0.06-0.735,0.128l-5.693,5.703
				c-0.194,0.195-0.236,0.478-0.128,0.729c1.144,2.62,1.181,5.636,0.084,8.263c-1.09,2.641-3.248,4.774-5.917,5.806
				c-0.244,0.092-0.409,0.339-0.409,0.599v8.07c0,0.451,0.236,0.537,0.419,0.594c1.354,0.541,2.58,1.328,3.623,2.366
				c0.984,0.989,1.753,2.138,2.279,3.423c1.091,2.636,1.07,5.666-0.084,8.284c-0.107,0.236-0.05,0.53,0.145,0.72l5.692,5.695
				c0.187,0.188,0.473,0.241,0.714,0.137c2.622-1.15,5.633-1.176,8.275-0.083c2.646,1.091,4.757,3.249,5.796,5.91
				c0.073,0.183,0.169,0.408,0.604,0.419l8.062-0.011c0.263,0,0.51-0.166,0.605-0.408c1.039-2.667,3.154-4.819,5.794-5.91
				c2.636-1.114,5.648-1.072,8.273,0.083c0.241,0.104,0.53,0.062,0.725-0.137l5.695-5.695c0.184-0.189,0.247-0.483,0.132-0.72
				c-1.145-2.63-1.176-5.648-0.085-8.284c1.104-2.634,3.251-4.755,5.917-5.789c0.242-0.09,0.403-0.34,0.414-0.604v-8.06
				C318.649,266.804,318.397,266.713,318.235,266.636z M298.229,282.366c-6.115,6.116-16.052,6.116-22.162,0
				c-6.114-6.121-6.108-16.046,0-22.165c6.11-6.105,16.041-6.126,22.162-0.006C304.339,266.304,304.339,276.245,298.229,282.366z"/>
		</g>
	</g>
</g>
<g>
</g>
<g>
</g>
<g>
</g>
<g>
</g>
<g>
</g>
<g>
</g>
<g>
</g>
<g>
</g>
<g>
</g>
<g>
</g>
<g>
</g>
<g>
</g>
<g>
</g>
<g>
</g>
<g>
</g>
</svg>
