<?xml version="1.0" encoding="iso-8859-1"?>
<!-- Generator: Adobe Illustrator 16.0.0, SVG Export Plug-In . SVG Version: 6.00 Build 0)  -->
<!DOCTYPE svg PUBLIC "-//W3C//DTD SVG 1.1//EN" "http://www.w3.org/Graphics/SVG/1.1/DTD/svg11.dtd">
<svg version="1.1" id="Capa_1" xmlns="http://www.w3.org/2000/svg" xmlns:xlink="http://www.w3.org/1999/xlink" x="0px" y="0px"
	 width="550.8px" height="550.801px" viewBox="0 0 550.8 550.801" style="enable-background:new 0 0 550.8 550.801;"
	 xml:space="preserve">
<g>
	<g>
		<path d="M385.03,414.034c-7.192,0-11.274,0.58-13.415,0.976v36.149h11.664c14.776,0,23.52-7.378,23.52-18.853
			C406.798,420.262,398.635,414.224,385.03,414.034z"/>
		<path d="M475.089,131.992c-0.021-2.531-0.833-5.021-2.567-6.993L366.331,3.689c-0.032-0.035-0.063-0.045-0.085-0.077
			c-0.633-0.706-1.371-1.294-2.151-1.803c-0.231-0.156-0.464-0.285-0.706-0.422c-0.686-0.367-1.393-0.675-2.131-0.896
			c-0.2-0.053-0.38-0.134-0.58-0.187C359.875,0.114,359.042,0,358.199,0H97.206c-11.918,0-21.6,9.693-21.6,21.601v507.6
			c0,11.907,9.682,21.601,21.6,21.601h356.39c11.918,0,21.6-9.693,21.6-21.601V133.197
			C475.195,132.791,475.142,132.393,475.089,131.992z M177.222,524.048H147.48V417.931h-35.187v-24.88h100.688v24.88h-35.759
			V524.048z M292.882,524.048l-10.104-33.628h-37.515l-9.336,33.628h-30.715l40.046-131.002h38.876l40.621,131.002H292.882z
			 M410.88,524.048c-2.131-3.696-5.242-14.386-9.134-30.507c-3.496-16.326-9.128-20.804-21.188-21.004h-8.943v51.511h-29.342
			V394.802c9.523-1.562,23.709-2.731,39.456-2.731c19.443,0,33.043,2.921,42.383,10.304c7.768,6.218,12.039,15.356,12.039,27.406
			c0,16.722-11.85,28.187-23.13,32.269v0.574c9.134,3.707,14.202,12.451,17.498,24.501c4.081,14.76,8.163,31.867,10.688,36.924
			H410.88z M97.206,366.747V21.601h250.193v110.51c0,5.967,4.841,10.8,10.8,10.8h95.396l0.011,223.837H97.206z"/>
		<path d="M263.73,415.21h-0.388c-1.938,7.768-3.895,17.682-6.022,25.26l-7.781,27.796h28.962l-8.166-27.796
			C268.002,432.691,265.671,422.982,263.73,415.21z"/>
		<rect x="157.188" y="148.305" width="157.146" height="20.812"/>
		<polygon points="314.334,195.766 340.933,195.766 340.933,202.624 340.933,210.432 340.933,219.31 340.933,227.135 
			340.933,236.219 340.933,244.031 340.933,254.589 314.334,254.589 314.334,280.052 157.188,280.052 157.188,300.845 
			314.334,300.845 314.334,281.232 392.919,281.232 392.919,254.589 349.007,254.589 349.007,244.031 366.346,244.031 
			366.346,236.219 349.007,236.219 349.007,227.135 366.346,227.135 366.346,219.31 349.007,219.31 349.007,210.432 
			366.346,210.432 366.346,202.624 349.007,202.624 349.007,195.766 392.919,195.766 392.919,169.117 314.334,169.117 		"/>
		<rect x="177.407" y="179.819" width="116.715" height="90.727"/>
	</g>
</g>
<g>
</g>
<g>
</g>
<g>
</g>
<g>
</g>
<g>
</g>
<g>
</g>
<g>
</g>
<g>
</g>
<g>
</g>
<g>
</g>
<g>
</g>
<g>
</g>
<g>
</g>
<g>
</g>
<g>
</g>
</svg>
