<?xml version="1.0" encoding="iso-8859-1"?>
<!-- Generator: Adobe Illustrator 16.0.0, SVG Export Plug-In . SVG Version: 6.00 Build 0)  -->
<!DOCTYPE svg PUBLIC "-//W3C//DTD SVG 1.1//EN" "http://www.w3.org/Graphics/SVG/1.1/DTD/svg11.dtd">
<svg version="1.1" id="Capa_1" xmlns="http://www.w3.org/2000/svg" xmlns:xlink="http://www.w3.org/1999/xlink" x="0px" y="0px"
	 width="548.29px" height="548.291px" viewBox="0 0 548.29 548.291" style="enable-background:new 0 0 548.29 548.291;"
	 xml:space="preserve">
<g>
	<g>
		<path d="M277.893,433.35c-3.59,0-5.897,0.325-7.005,0.66v23.361h6.731c7.665,0,12.464-4.83,12.464-12.169
			C290.082,437.077,285.283,433.35,277.893,433.35z"/>
		<path d="M225.349,433.35c-3.596,0-5.903,0.325-7.005,0.66v23.361h6.74c7.656,0,12.458-4.83,12.458-12.169
			C237.546,437.077,232.74,433.35,225.349,433.35z"/>
		<path d="M168.099,433.35c-11.26,0-17.265,12.398-17.265,27.643c0,15.035,6.375,26.992,17.265,26.992
			c10.985,0,17.166-12.073,17.166-27.538C185.264,446.515,179.448,433.35,168.099,433.35z"/>
		<path d="M472.929,131.394c-0.031-2.523-0.818-5-2.55-6.963L364.655,3.677c-0.025-0.031-0.057-0.042-0.089-0.075
			c-0.63-0.704-1.354-1.29-2.126-1.796c-0.231-0.154-0.462-0.283-0.704-0.418c-0.688-0.366-1.392-0.671-2.126-0.892
			c-0.209-0.055-0.377-0.136-0.577-0.188C358.23,0.118,357.405,0,356.566,0H96.757C84.906,0,75.255,9.649,75.255,21.502V526.79
			c0,11.854,9.651,21.501,21.502,21.501h354.776c11.862,0,21.502-9.647,21.502-21.501v-394.2
			C473.03,132.194,472.973,131.79,472.929,131.394z M96.757,21.502h249.058v110.006c0,5.943,4.813,10.751,10.751,10.751h94.961
			l0.016,192.081c-49.959-0.226-99.781,4.488-148.632-7.479c-16.587-4.063-33.404-13.251-46.457-24.379
			c-25.247-21.544-25.043-58.4-2.462-81.573c22.197-22.759,61.329-23.455,84.164-1.389c3.633,3.506,6.825,7.478,11.286,12.412
			c7.737-4.008,15.675-8.115,23.528-12.181c-12.096-30.58-50.889-51.171-86.82-45.922c-36.397,5.312-62.195,25.218-73.67,60.318
			c-11.31,34.607-2.291,65.244,23.898,90.508c29.786,28.73,67.552,36.473,106.744,37.905c32.022,1.15,64.117,0.615,96.842,2.515
			H307.274c-1.354-0.094-2.714-0.146-4.074-0.242c-25.071-1.784-48.153-12.388-67.817-28.935
			c-38.417-32.314-48.528-83.394-24.507-123.56c24.163-40.379,75.994-57.334,121.537-39.768c3.76,1.452,7.491,2.975,12.672,5.047
			c4.789-7.706,9.461-15.244,14.08-22.667c-44.243-35.875-127.152-20.147-165.651,30.499
			c-43.352,57.03-30.884,122.995,31.041,179.625h-12.678c-40.035-29.821-60.772-82.479-50.636-131.319
			c11.258-54.26,58.453-96.634,114.766-103.675c6.938-0.861,17.18,3.212,18.665-9.982c2.088-18.541-0.81-22.121-19.6-19.422
			c-63.509,9.068-110.852,41.542-133.552,102.046c-22.339,59.549-10.896,114.344,28.824,162.354H96.757V21.502z M137.338,434.987
			h-17.906v62.658h-11.347v-62.658h-17.72V423.69h46.973V434.987z M167.456,498.842c-17.541,0-28.609-15.906-28.609-37.618
			c0-22.729,11.987-38.741,29.528-38.741c18.184,0,28.892,16.337,28.892,37.408C197.267,484.689,184.614,498.842,167.456,498.842z
			 M239.383,497.65L239.383,497.65c-0.923-2.199-2.396-8.236-4.154-17.454c-1.749-9.659-4.704-12.725-11.166-12.955h-5.714v30.404
			h-11.26v-72.968c4.242-0.87,10.615-1.522,17.168-1.522c8.945,0,15.035,1.754,19.19,5.932c3.409,3.392,5.349,8.557,5.349,14.805
			c0,9.531-5.451,16.011-11.254,18.54v0.332c4.421,1.963,7.099,7.128,8.668,14.246c1.935,9.228,3.596,17.784,4.893,20.641H239.383z
			 M291.929,497.65L291.929,497.65c-0.922-2.199-2.392-8.236-4.157-17.454c-1.742-9.659-4.703-12.725-11.159-12.955h-5.714v30.404
			h-11.265v-72.968c4.246-0.87,10.611-1.522,17.168-1.522c8.944,0,15.033,1.754,19.191,5.932c3.412,3.392,5.344,8.557,5.344,14.805
			c0,9.531-5.448,16.011-11.255,18.54v0.332c4.426,1.963,7.103,7.128,8.667,14.246c1.926,9.228,3.602,17.784,4.892,20.641H291.929z
			 M349.726,497.645h-37.564V423.69h36.179v11.083h-24.83v19.091h23.445v10.972H323.51v21.723h26.216V497.645z M409.003,497.645
			L409.003,497.645H397.28l-16.236-32.474c-3.979-8.126-8.131-17.229-11.171-25.575l-0.283,0.116
			c0.462,9.544,0.556,19.296,0.556,31.465v26.457h-10.424V423.69h12.922l16.055,31.719c4.152,8.209,7.748,16.766,10.613,24.777
			h0.189c-0.745-9.881-1.008-19.414-1.008-30.711V423.68h10.521v73.965H409.003z M445.412,434.987v62.658h-11.359v-62.658h-17.727
			V423.69h46.966v11.297H445.412z"/>
	</g>
</g>
<g>
</g>
<g>
</g>
<g>
</g>
<g>
</g>
<g>
</g>
<g>
</g>
<g>
</g>
<g>
</g>
<g>
</g>
<g>
</g>
<g>
</g>
<g>
</g>
<g>
</g>
<g>
</g>
<g>
</g>
</svg>
