<?xml version="1.0" encoding="iso-8859-1"?>
<!-- Generator: Adobe Illustrator 16.0.0, SVG Export Plug-In . SVG Version: 6.00 Build 0)  -->
<!DOCTYPE svg PUBLIC "-//W3C//DTD SVG 1.1//EN" "http://www.w3.org/Graphics/SVG/1.1/DTD/svg11.dtd">
<svg version="1.1" id="Capa_1" xmlns="http://www.w3.org/2000/svg" xmlns:xlink="http://www.w3.org/1999/xlink" x="0px" y="0px"
	 width="550.801px" height="550.801px" viewBox="0 0 550.801 550.801" style="enable-background:new 0 0 550.801 550.801;"
	 xml:space="preserve">
<g>
	<g>
		<path d="M475.095,131.986c-0.032-2.525-0.833-5.015-2.568-6.992L366.324,3.684c-0.021-0.029-0.053-0.045-0.084-0.071
			c-0.633-0.712-1.36-1.289-2.141-1.803c-0.232-0.15-0.465-0.29-0.707-0.422c-0.686-0.372-1.393-0.669-2.131-0.891
			c-0.2-0.058-0.379-0.145-0.58-0.188C359.87,0.114,359.047,0,358.203,0H97.2C85.292,0,75.6,9.688,75.6,21.601v507.6
			c0,11.907,9.692,21.601,21.6,21.601H453.6c11.918,0,21.601-9.693,21.601-21.601V133.197
			C475.2,132.791,475.137,132.393,475.095,131.986z M192.101,504.911l-9.463-48.104c-2.149-11.29-3.974-21.737-5.303-34.52h-0.329
			c-1.991,12.613-3.818,23.229-6.474,34.52l-10.61,48.104h-27.709l-26.546-111.818h27.045l8.456,46.122
			c2.489,13.268,4.812,27.706,6.637,38.991h0.34c1.825-12.107,4.472-25.55,7.301-39.318l9.45-45.789h26.887l8.952,47.128
			c2.489,13.104,4.316,25.049,5.967,37.489h0.34c1.659-12.445,4.147-25.55,6.465-38.828l9.131-45.784h25.716l-28.869,111.818
			h-27.383V504.911z M319.201,504.911l-8.627-28.698h-32.026l-7.965,28.698h-26.212l34.172-111.818h33.181l34.678,111.818H319.201z
			 M407.479,504.911h-29.531l-35.838-111.818h27.717l13.595,47.282c3.818,13.268,7.299,26.051,9.956,39.988h0.496
			c2.826-13.442,6.307-26.721,10.125-39.493l14.275-47.777h26.879L407.479,504.911z M97.2,366.747V21.601h250.203v110.51
			c0,5.962,4.831,10.8,10.8,10.8H453.6l0.011,223.837H97.2z"/>
		<path d="M294.321,412.014h-0.338c-1.661,6.635-3.312,15.093-5.136,21.559l-6.645,23.73h24.722l-6.961-23.73
			C297.971,426.938,295.977,418.648,294.321,412.014z"/>
		<path d="M227.285,214.537c0-6.07-4.912-10.995-10.987-10.995H197.24c-6.075,0-10.987,4.925-10.987,10.995v46.91
			c0,6.075,4.913,10.995,10.987,10.995h19.058c6.075,0,10.987-4.925,10.987-10.995v11.702l107.947,46.791V155.303l-107.947,47.538
			V214.537z"/>
	</g>
</g>
<g>
</g>
<g>
</g>
<g>
</g>
<g>
</g>
<g>
</g>
<g>
</g>
<g>
</g>
<g>
</g>
<g>
</g>
<g>
</g>
<g>
</g>
<g>
</g>
<g>
</g>
<g>
</g>
<g>
</g>
</svg>
